<svg xmlns="http://www.w3.org/2000/svg" viewBox="0 0 512 512"><path d="M120.4 52.69c10.03-1.87 19.3 3.04 28.19 6.9 12.78 5.45 25.07 12.26 35.86 21.06 9.78 8.5 18.69 18.08 25.73 29.01 2.36 3.74 5.18 7.8 9.79 8.83 4.96-.06 8.39-4.45 9.81-8.8 3.19-9.11 6.69-18.11 9.9-27.21 2.07-5.42 4.17-11.23 8.74-15.08 3.63-3.16 9.51-4.19 13.54-1.21 4.32 2.73 7 7.29 8.66 12.01 4.07 10.67 7.8 21.48 11.86 32.15 1.39 4.13 4.96 8.04 9.55 8.11 4.02-.95 6.93-4.17 8.98-7.59 7.31-11.64 16.76-21.81 27.23-30.68 13.9-11.5 30.53-18.96 47.18-25.55 7.46-3.17 16.78-3.46 23.69 1.23 7.96 5.18 12.72 14.71 12.45 24.17.49 12.09-6.95 22.32-11.78 32.84-6.42 13.57-9.19 28.49-11.86 43.15-1.41 5.51 1.66 10.89 5.08 14.98 1.41 2.11 4.72 2.36 6.32.33 4.38-5.02 7.53-11.02 10.06-17.15 2.51-6.42 4.73-14.18 11.65-17.16 5.76-1.38 12.42-1.05 17.29 2.7 4.32 3.24 8.33 7.02 11.47 11.43 2.83 3.94 2.14 9.32 4.78 13.28 2.98 2.15 6.99.97 10.36.66 4.93-.99 10.58-1.01 14.68 2.33 4.9 3.89 6.45 10.56 5.85 16.55-.65 7.2-1.74 15.06-6.98 20.5-1.35 1.78-3.49 3.22-3.97 5.48 1.03 3.24 3.13 6.07 3.79 9.43.96 8.79-.07 17.95-4.07 25.92-1.97 3.91-6.29 5.92-8.33 9.75-1.51 4.08-1.33 8.64-3.29 12.59-2.85 6.51-9.29 11.92-16.63 11.86-5.42.04-11.07-.06-16.1 2.26-3.58 1.88-5.92 6.2-5.26 10.24.99 7.98 3.19 15.84 2.97 23.94-.11 5.06.62 10.4-1.58 15.16-3.05 6.89-7.73 12.88-11.76 19.2-9.14 13.27-19.18 25.93-30.15 37.74-6.42 6.56-12.95 13.02-19.47 19.48-15.01 13.74-31.47 25.96-49.41 35.61-15.28 8.16-31.95 14.03-49.23 15.94-15.68 1.5-31.68-.28-46.53-5.63-23.62-8.12-44.47-22.56-63.41-38.57-8.86-8.07-18.02-15.89-25.77-25.08-14.25-15-27.16-31.27-38.56-48.54-3.28-5.29-7.18-10.8-7.28-17.27-.14-7.45-.22-14.97 1.38-22.3.68-5.59 3.52-12.05-.47-17.04-4.24-5.52-12.14-4.84-18.36-5.13-7.75.54-14.58-5.15-17.62-11.92-1.97-3.93-1.81-8.48-3.28-12.56-2.09-3.79-6.31-5.9-8.32-9.78-4-7.94-5.01-17.11-4.07-25.88.5-3.65 3.69-6.64 3.63-10.28-2.61-3.79-6.51-6.73-8.03-11.22-2.03-5.7-2.9-11.82-2.8-17.86.2-6.39 3.97-13.31 10.55-14.92 6.27-1.97 12.68 1.65 18.99.2 3.04-1.29 2.86-5.18 3.76-7.86 1.06-6.09 5.49-10.74 9.99-14.63 4.35-4.13 10.03-7.23 16.22-6.44 6.58-.6 11.68 5 13.78 10.71 3.28 8.56 6.81 17.31 12.91 24.3 1.4 1.77 4.37 1.9 5.82.11 3.7-4.1 6.97-9.7 5.55-15.42-2.97-17.13-6.59-34.54-15.11-49.88-3.49-6.26-6.75-12.79-8.15-19.87-.82-6.44-.59-13.28 2.42-19.18 3.24-6.97 9.52-12.83 17.17-14.45m-14.04 30.44c.74 7.95 5.63 14.55 9.14 21.46 5.06 8.81 7.8 18.66 10.34 28.41 2.47 10.15 4.67 20.42 5.56 30.83-3.96 7.88-9.59 14.86-14.49 22.2-9.34-8.38-16.38-19.16-20.96-30.79-1.65-4.08-2.57-8.5-4.78-12.33-3.87-3.19-9.54-1.64-13.21 1.12-4.93 3.69-9.8 7.91-12.66 13.45-2.04 5.22 2.17 10.15 1.78 15.45-3.7-.02-7.41.11-11.11-.01-5.75-.4-11.26-2.56-17.02-2.77-3.77-.13-6.14 3.63-6.44 7.01-.65 5.88 1.19 11.67 1.68 17.5.63 4.19 4.15 7.04 7.95 8.33 1 .33 1.99.66 2.97 1.02 1.15.36 2.31.67 3.49.92l-.11.66c1.58.43 3.15.9 4.75 1.27.28.49.84 1.48 1.12 1.98l-.73 2.18c-4.42 1.58-9.83 1.77-13.16 5.56-2.02 2.37-1.56 5.66-1.41 8.54.9 6.6 2.08 13.23 4.23 19.55 1.94 3.76 6.78 2.73 10.21 2.66l-.12-.72c2.41.07 4.81.06 7.22-.06-.06 1.69.84 4.73-1.66 4.97-2.85.63-6.2 2.14-6.41 5.51-.33 6.09 3.82 11.27 7.7 15.53 3.08 1.36 6.5.87 9.76.98 5.24-.09 10.49.24 15.73.01l-.2.54c4.36 3 7.1 7.76 9.04 12.58-1.43 11.81-4.54 23.4-4.96 35.33.2 6.07 4.39 10.97 7.56 15.84 11.84 18.11 25.61 34.89 40.47 50.59 13.61 14.13 28.25 27.39 44.5 38.46 1.97 1.37 3.93 2.78 6.02 3.97 4.78 3.18 9.79 5.97 14.89 8.6.67.33 1.35.68 2.03 1.02 1.73.73 3.43 1.57 5.07 2.5 1.11.41 2.26.72 3.43.93l-.02.73c2.4.09 4.34 1.77 6.67 2.22.98.36 1.95.73 2.92 1.13 1.3.38 2.63.66 3.97.96.96.43 1.97.76 3.01 1 1.76.72 3.67.78 5.56.78l-.26.87c1.73.04 3.46.06 5.19.04l-.08.72c4.46.5 8.96.31 13.44.33l-.93.64 4.61.04-.34-.75c4.06.15 8.13.08 12.18-.28l-.11-.71c2.19.12 4.41-.01 6.46-.83 1.38-.19 2.78-.36 4.07-.93 1.35-.24 2.75-.38 3.94-1.14.66-.06 2-.19 2.67-.25l-.17-.89c.8.02 2.42.04 3.22.05l-.26-1 3.17-.08-.12-.76c1.39-.02 2.63-.47 3.7-1.33l1.24.59c.02-.32.05-.95.07-1.26 2.03-.22 4.08-.79 5.54-2.31l1.36.41c.06-.36.19-1.08.25-1.44l1.94.36.04-1.43c.47.13 1.41.39 1.87.52l.06-1.43c.49.09 1.48.26 1.97.35l.09-1.4c.46.1 1.37.31 1.83.41l.16-1.38c.43.08 1.3.22 1.73.3l.27-.95c2.67-.9 5.03-2.51 7.35-4.06 3.47-1.73 6.51-4.18 9.8-6.19 1.2-.9 2.89-1.43 3.28-3.07.25.07.76.21 1.01.27 1.55-1.45 3.3-2.66 4.93-4.01 1.41-.88 2.67-1.95 3.91-3.04 2.21-1.4 4.04-3.28 6.06-4.92 2.48-1.6 4.26-4.04 6.75-5.63l-.14-.49c.37-.18 1.1-.54 1.46-.72.7-.66 1.39-1.32 2.08-1.98 6.53-6.14 12.86-12.5 19-19.03.64-.67 1.25-1.37 1.83-2.09 2.16-2.94 5.17-5.17 7.05-8.32l.36.03c1.31-2.06 3.19-3.69 4.51-5.76 1.42-1.6 2.84-3.22 4.04-5 1.06-1.28 2.1-2.58 3-3.98 1.06-1.28 2.11-2.58 3.01-3.98 2.36-3.37 4.88-6.62 7.01-10.15 1.12-1.53 2.18-3.1 2.99-4.82 2.82-3.7 5.62-7.55 7.21-11.96.54-.95.83-1.97.88-3.07.17-.83.49-2.5.65-3.33h-.81c.27-5.51-.64-11.01-1.73-16.39-.64-3.68-.99-7.47-2.13-11.04-.14-2.94-.5-5.89-.19-8.84l1.36-.03c-.16-.3-.47-.89-.63-1.18 2.6-3.05 4.47-6.85 8.13-8.88l-.17-.55c7.75.07 15.5-.1 23.26-.17l.39-3.77.55 3.93c.31-.43.95-1.29 1.27-1.72 1.02-.47 1.71-1.25 2.06-2.36l.41.16c1.93-3.05 4.08-6.07 4.77-9.69.67-2.22.45-5.04-1.51-6.56-1.74-1.5-4.08-1.69-6.23-2.11 0-1.57.06-3.14.18-4.71 2.37.07 4.74.07 7.12-.02-.03.19-.08.56-.11.75 2.49.16 5.03.35 7.46-.37 1.74-.68 2.65-2.28 3-4.03.63-1.42.75-2.98.81-4.5l.71.16c.1-1.22.2-2.44.32-3.66 1.37-5.26 2.53-10.89 1.77-16.32-2.41-5.62-9.57-6.44-14.9-7.24.01-1.05.04-3.16.05-4.22l1.68 1.68-1.17-1.97c1.43-.01 2.68-.45 3.77-1.32.35.09 1.06.29 1.41.39l-.09-1.3c.79 0 2.36-.01 3.15-.01l-.1-.82c1.33-.05 2.53-.45 3.61-1.22.31.06.94.16 1.25.21l.22-.98c1.07-.29 2.06-.76 2.97-1.42.21-.27.63-.8.84-1.07.3-.36.91-1.09 1.22-1.45 1.65-4.43 1.78-9.29 2.34-13.95 1.24-4.25 1.13-10.07-2.75-12.96-4.54-2.03-9.46.48-14.08 1.03-5.67 1.62-11.59.45-17.34 1.37.03-1.49.08-2.97.13-4.46 1.82-4.22 3.55-9.82.46-13.85-3.37-4.72-7.7-8.75-12.55-11.89-3.47-2.18-8.55-3.1-11.86-.22-2.71 4.33-3.61 9.51-5.67 14.15-4.58 10.91-11.32 21.02-20.11 28.98-5.03-6.82-9.41-14.11-14.48-20.88-.19-2.77.12-5.54.25-8.3.93-1.84.85-3.95 1-5.95.65-1.61.9-3.32 1.02-5.04.52-1.62.82-3.31 1.05-5 1.18-3.96 1.98-8.03 3.03-12.02.43-1.29.73-2.62 1.02-3.95.35-1.01.69-2.03 1.02-3.04.34-1.01.69-2.02 1.05-3.01.34-1.15.62-2.3.87-3.47l.54-.11c1.59-5.54 4.9-10.35 7.39-15.49.86-1.34 1.75-2.73 2-4.34l1.05-.22c-.1-.42-.31-1.25-.41-1.67l1.47-.4-.34-1.16c.83-1.04 1.25-2.25 1.27-3.62l.81.17c0-1.37.01-2.74 0-4.1l.71-.01c1.51-9.22-2.33-19.42-10.52-24.29-3.69-2.57-8.58-3.14-12.76-1.48-7.26 2.72-14.27 6.04-21.4 9.09-17.29 7.68-33.09 18.99-45.07 33.72-6.39 7.64-11.55 16.18-16.89 24.56-6.21-1.05-12.45-1.88-18.72-2.48-4.96-15.57-11.13-30.76-16.59-46.18-1.34-3.48-2.99-8.2-7.38-8.46-4.05.33-5.81 4.6-7.28 7.81-6.17 15.53-11.54 31.36-17.3 47.03-6.18.24-12.27 1.43-18.38 2.25-4.97-8.02-9.92-16.09-15.88-23.43a114.967 114.967 0 00-28.35-25.43c-10.29-6.69-21.74-11.27-32.96-16.13-4.44-1.82-9.12-4.17-14.06-2.99-10.36 3.1-17.06 14.51-15.47 25.08z" opacity=".18"/><path d="M173.38 188.55l2.71.04c12.24 10.41 21.24 24.67 25.02 40.35 3.12 13.18 4.33 27.55-.48 40.47-19.39-10.42-38.5-21.36-57.95-31.67.03-.96.09-2.89.11-3.85.73-1.56.87-3.28 1.09-4.96.65-1.42.84-2.96.95-4.49l1.09-.01c-.07-.37-.22-1.1-.29-1.47 1.79-3.34 3.42-6.77 5.15-10.14 1.26-1.48 2.24-3.14 3.17-4.83 1.78-1.94 3.24-4.13 4.91-6.16.22-.33.65-.99.87-1.33l.44-.01c1.83-2.6 4.31-4.62 6.59-6.8.26-.22.78-.65 1.04-.87 1.25-.87 2.48-1.76 3.75-2.59v-.9l1.63.48.2-1.26m-1.2 11.18c-5.56 3.17-9.11 8.75-12.77 13.81-3.43 5.4-7.61 11.22-7.17 17.92.01 3.08 2.92 4.91 5.28 6.29 9.52 5.06 18.91 10.39 28.3 15.69 2.33 1.29 4.85 2.15 7.33 3.09 1.92-1.24 3.93-2.91 3.54-5.48.3-17.05-5.4-34.31-16.21-47.55-1.99-2.3-5.01-5.34-8.3-3.77zM335.98 188.63c.67-.04 2-.11 2.67-.15l.15 1.27c.42-.1 1.24-.29 1.66-.39l-.1.87c6.46 4.2 11.55 10.11 16.19 16.19 6.7 9.12 12 19.81 12.42 31.32-19.13 10.69-38.38 21.16-57.57 31.73-2.3-4.29-2.86-9.2-3.09-13.98l-.61.01c.08-3.33.08-6.66-.02-9.98l.54-.11c.01-4.93 1.13-9.72 1.6-14.59.76-1.34 1.08-2.81.96-4.4l.83.18c.04-.68.14-2.04.18-2.71.73-1.04 1.08-2.21 1.05-3.51l.72.08c1-4.94 4.06-9.12 6.21-13.6.81-.92 1.57-1.89 1.98-3.06 1.13-1.32 2.4-2.6 3.02-4.26l.43.03c3.08-4.08 6.85-7.73 10.78-10.94m-.77 8.78c-3.73 2.45-6.54 6.05-9.14 9.61-9.48 14.25-13.94 31.77-12.26 48.82.23 1.18.61 2.33.96 3.49 2.55.12 5.16-.06 7.4-1.41 10.04-5.13 19.76-10.87 29.71-16.18 3.39-2.09 7.41-3.63 9.84-6.94 1.26-2.72.76-5.97-.12-8.74-3.98-10.79-10.91-20.46-19.73-27.83-1.77-1.66-4.59-2.27-6.66-.82zM252.84 205.53l1.49.2.1-1.09c.79 0 2.37-.01 3.16-.02l.08 1.05 1.46-.13.59.61c1.41 1.32 2.6 2.85 3.68 4.45 8.31 11.36 16.79 22.59 25.07 33.97 3.74 7.02 5.4 15.32 4.05 23.22-1.7 8.71-8.25 15.68-15.96 19.67-8.73 4.44-18.96 6.42-28.62 4.33-9.82-1.94-19.6-6.95-25.18-15.52-1.93-2.8-2.71-6.14-4.01-9.22-.06-3.52.05-7.04-.11-10.55l.79.04c.1-.9.29-2.7.38-3.61.43-1.03.79-2.09 1.09-3.16 2.08-6.67 7.71-11.23 10.93-17.24l.42.05c.85-1.23 1.71-2.47 2.5-3.75 1.13-1.22 2.19-2.53 2.99-4 1.1-1.26 2.17-2.55 2.99-4 4.07-4.72 7.04-10.38 11.56-14.68l.55-.62m-7.98 23.34c-2.45 3.53.87 7.54 3.99 9.21 3.44 2.57 7.86 1.47 11.81 1.53l-.31-.8c2.87-.27 5.36-2.35 6.65-4.85 1.28-1.72.94-3.95-.25-5.61-3.45-5.29-7.27-10.34-10.73-15.62-3.71 5.39-7.64 10.63-11.16 16.14m-7.48 9.06c-6.15 7.57-2.09 19.59 6.7 23.08 1 .32 1.99.66 2.98 1.02 1.77.78 3.71.71 5.61.65l-.25.66c5.07.33 10.15-.47 15.02-1.88l.1-1.06c.43.11 1.29.34 1.73.46l.23-.98c2.39-.99 4.41-2.95 5.39-5.35.27-.08.79-.23 1.05-.31l-.37-1.23c2.6-3.67 2.18-8.89.42-12.87-.59-.95-1.02-2.77-2.48-2.07-2.63 2.84-4.83 6.29-8.47 7.98-7.86 3.81-18.7 2.31-24.02-5.04-1.17-1.04-1.81-3.24-3.64-3.06m-9.79 14.51c-2.6 6.06-2.55 13.42.87 19.15 2.81 4.97 7.61 8.39 12.63 10.87 2.28.97 4.56 2.02 7.02 2.45 2.76 1.25 5.85.71 8.78.81 2.34-.15 4.92.38 6.98-1.02l2.6-.12-.09-.79c1.61-.16 3.13-.71 4.61-1.35 6.02-3.13 11.9-7.74 13.9-14.51 1.36-5.04 1.68-10.7-.5-15.57-2.2 3.22-3.28 7.15-6.1 9.95-5 5.77-12.8 7.92-20.18 8.3-8.71.34-18.27-1.5-24.45-8.14-2.92-2.76-3.95-6.74-6.07-10.03z" opacity=".18"/><path d="M151.33 280.62l2.36-.03-.58 1.92.95-1.36c1.61 3.55 5.03 5.75 7.49 8.67-2 12.7-3.84 25.6-2.48 38.46.58 3.24 1.36 6.82 4.03 9.02 1.64 1.31 3.87 1.24 5.79.65 1-.36 2-.72 3-1.07 2.13-1.16 4.09-2.6 5.95-4.13 4.77-3.94 9.36-8.28 13.08-13.23l.71.1-.13-1.16 1.1.1-.19-.71 1.42-1.38c.82.05 1.64.09 2.46.14.28 1.67 1.99 2.41 3.02 3.59.25-.38.73-1.14.98-1.52l-.18 1.58c4.85 2.84 9.79 5.6 15.02 7.68 1.61.78 3.26 1.46 4.96 2.02 1 .35 2 .71 3 1.07 1 .33 2 .65 3.02.94 1.02.33 2.04.67 3.06 1.01 1.3.35 2.61.64 3.94.93 1.72.78 3.63.78 5.5.81l-.13.74c2.06.19 4.13.25 6.2.18l-.28.71c8.16.51 16.38.56 24.52-.09l-.92-2.51c.77 3.36 4.3 1.41 6.53 1.62l-.18-.78c1.41.01 2.81-.01 4.22-.02l-.19-.88c1.5-.13 3.21.18 4.5-.82 1.91-.43 3.82-.93 5.74-1.33l-.38-.9h3.2c-.01-.21-.02-.63-.03-.84 1.38-.02 2.59-.45 3.63-1.31l1.15.44c.1-.39.31-1.17.42-1.56.47.16 1.42.48 1.9.64l-.22-1.19c3.84-.37 6.77-3.21 10.3-4.52l-.08-.92c.32.06.97.19 1.29.25 1.33-.96 2.66-1.91 3.99-2.87 1.19-.51 2.14-1.37 3.04-2.28.99.06 1.99.12 2.99.19-.17.31-.53.94-.71 1.25 6.36 6.98 12.71 14.25 20.94 19.1 1.01.31 2.03.62 3.05.94.85.16 2.53.47 3.37.63l-.02-.81c1.43-.18 3.31-.33 3.44-2.26l1.05-.2c-.13-.44-.39-1.34-.52-1.79l1.3-.02c-.03-.76-.08-2.29-.1-3.06l.83.09c.31-3.05.36-6.12.25-9.18l.57.3c.01-1.05.02-3.16.03-4.21l-.59.06c-.08-4.81.6-9.77-.88-14.43.03-2.55-.17-5.12-.94-7.56-.16-1.92-.32-3.82-.53-5.72 2.48-2.67 5.18-5.14 7.54-7.92.54-.91 1.61-2.73 2.15-3.64.18 2.43.59 4.87 1.43 7.17 3.97 11.05 7.79 22.15 11.76 33.2.32 1.2 1.17 2.62.28 3.8-10.41 18.09-22.1 35.52-35.83 51.28-13.51 15.33-29.13 29.37-47.8 38.08-10.54 4.75-22.25 7.97-33.88 6.48-17.39 1.93-34.31-5.44-48.56-14.8-25.71-17.41-45.14-42.41-61.52-68.43-2.7-4.01-4.79-8.4-7.65-12.3-.14-.7-.43-2.11-.58-2.82.85-.97 1.23-2.13 1.11-3.49l.89.11c-.01-.77-.03-2.32-.05-3.09l.96.1c.26-1.62.78-3.17 1.32-4.7.37-.99.72-1.98 1.06-2.97.33-.99.66-1.99 1-2.97.56-1.09.83-2.25.83-3.49l.66.06c.37-1.57.86-3.1 1.37-4.63.38-.99.75-1.98 1.1-2.98.34-1 .68-1.99 1.03-2.99l1.02-2.97c.54-1.1.82-2.26.81-3.49l1.17-.08-.65-1.7m28.74 59.41c-4.31 3.26-9.84 3.96-15.03 4.72l-2.06 2.18c3.59 7.33 9.28 13.3 14.31 19.63 3.64 4.7 7.97 8.77 12.16 12.96 9.42 9.91 20.59 18.09 32.65 24.51 10.72 5.58 22.81 8.56 34.93 7.62 12.19.99 24.09-3.02 34.78-8.56 15.84-8.51 29.11-20.97 41.02-34.29 5.72-7.15 12.27-13.84 16.38-22.11-4.18-3.66-10.35-2.37-15-5.19-6.71-3.9-11.57-10.26-18.15-14.37-2.82.95-5.6 2.05-8.17 3.55-8.02 4.65-16.92 7.48-25.78 10.03-11.44 3.14-23.39 2.94-35.14 2.65-10.48-.68-20.73-3.36-30.52-7.05-7.03-2.64-13.34-6.88-20.53-9.12-5.72 3.72-10.42 8.74-15.85 12.84z" opacity=".18"/><g fill="#fefefe"><path d="M106.36 83.13c-1.59-10.57 5.11-21.98 15.47-25.08 4.94-1.18 9.62 1.17 14.06 2.99 11.22 4.86 22.67 9.44 32.96 16.13 10.78 6.82 20.4 15.46 28.35 25.43 5.96 7.34 10.91 15.41 15.88 23.43 6.11-.82 12.2-2.01 18.38-2.25 5.76-15.67 11.13-31.5 17.3-47.03 1.47-3.21 3.23-7.48 7.28-7.81 4.39.26 6.04 4.98 7.38 8.46 5.46 15.42 11.63 30.61 16.59 46.18 6.27.6 12.51 1.43 18.72 2.48 5.34-8.38 10.5-16.92 16.89-24.56 11.98-14.73 27.78-26.04 45.07-33.72 7.13-3.05 14.14-6.37 21.4-9.09 4.18-1.66 9.07-1.09 12.76 1.48 8.19 4.87 12.03 15.07 10.52 24.29l-.71.01c.01 1.36 0 2.73 0 4.1l-.81-.17c-.02 1.37-.44 2.58-1.27 3.62l.34 1.16-1.47.4c.1.42.31 1.25.41 1.67l-1.05.22c-.25 1.61-1.14 3-2 4.34-2.49 5.14-5.8 9.95-7.39 15.49l-.54.11c-.25 1.17-.53 2.32-.87 3.47-.36.99-.71 2-1.05 3.01-.33 1.01-.67 2.03-1.02 3.04-.29 1.33-.59 2.66-1.02 3.95-1.05 3.99-1.85 8.06-3.03 12.02-.23 1.69-.53 3.38-1.05 5-.12 1.72-.37 3.43-1.02 5.04-.15 2-.07 4.11-1 5.95-.13 2.76-.44 5.53-.25 8.3 5.07 6.77 9.45 14.06 14.48 20.88 8.79-7.96 15.53-18.07 20.11-28.98 2.06-4.64 2.96-9.82 5.67-14.15 3.31-2.88 8.39-1.96 11.86.22 4.85 3.14 9.18 7.17 12.55 11.89 3.09 4.03 1.36 9.63-.46 13.85-.05 1.49-.1 2.97-.13 4.46 5.75-.92 11.67.25 17.34-1.37 4.62-.55 9.54-3.06 14.08-1.03 3.88 2.89 3.99 8.71 2.75 12.96-.56 4.66-.69 9.52-2.34 13.95-.31.36-.92 1.09-1.22 1.45-.21.27-.63.8-.84 1.07-.91.66-1.9 1.13-2.97 1.42l-.22.98c-.31-.05-.94-.15-1.25-.21a6.494 6.494 0 01-3.61 1.22l.1.82c-.79 0-2.36.01-3.15.01l.09 1.3c-.35-.1-1.06-.3-1.41-.39-1.09.87-2.34 1.31-3.77 1.32l1.17 1.97-1.68-1.68c-.01 1.06-.04 3.17-.05 4.22 5.33.8 12.49 1.62 14.9 7.24.76 5.43-.4 11.06-1.77 16.32-.12 1.22-.22 2.44-.32 3.66l-.71-.16c-.06 1.52-.18 3.08-.81 4.5-.35 1.75-1.26 3.35-3 4.03-2.43.72-4.97.53-7.46.37.03-.19.08-.56.11-.75-2.38.09-4.75.09-7.12.02a61.78 61.78 0 00-.18 4.71c2.15.42 4.49.61 6.23 2.11 1.96 1.52 2.18 4.34 1.51 6.56-.69 3.62-2.84 6.64-4.77 9.69l-.41-.16c-.35 1.11-1.04 1.89-2.06 2.36-.32.43-.96 1.29-1.27 1.72l-.55-3.93-.39 3.77c-7.76.07-15.51.24-23.26.17l.17.55c-3.66 2.03-5.53 5.83-8.13 8.88.16.29.47.88.63 1.18l-1.36.03c-.31 2.95.05 5.9.19 8.84 1.14 3.57 1.49 7.36 2.13 11.04 1.09 5.38 2 10.88 1.73 16.39h.81c-.16.83-.48 2.5-.65 3.33-.05 1.1-.34 2.12-.88 3.07-1.59 4.41-4.39 8.26-7.21 11.96-.81 1.72-1.87 3.29-2.99 4.82-2.13 3.53-4.65 6.78-7.01 10.15-.9 1.4-1.95 2.7-3.01 3.98-.9 1.4-1.94 2.7-3 3.98-1.2 1.78-2.62 3.4-4.04 5-1.32 2.07-3.2 3.7-4.51 5.76l-.36-.03c-1.88 3.15-4.89 5.38-7.05 8.32-.58.72-1.19 1.42-1.83 2.09a437.144 437.144 0 01-19 19.03c-.69.66-1.38 1.32-2.08 1.98-.36.18-1.09.54-1.46.72l.14.49c-2.49 1.59-4.27 4.03-6.75 5.63-2.02 1.64-3.85 3.52-6.06 4.92-1.24 1.09-2.5 2.16-3.91 3.04-1.63 1.35-3.38 2.56-4.93 4.01-.25-.06-.76-.2-1.01-.27-.39 1.64-2.08 2.17-3.28 3.07-3.29 2.01-6.33 4.46-9.8 6.19-2.32 1.55-4.68 3.16-7.35 4.06l-.27.95c-.43-.08-1.3-.22-1.73-.3l-.16 1.38c-.46-.1-1.37-.31-1.83-.41l-.09 1.4c-.49-.09-1.48-.26-1.97-.35l-.06 1.43c-.46-.13-1.4-.39-1.87-.52l-.04 1.43-1.94-.36c-.06.36-.19 1.08-.25 1.44l-1.36-.41c-1.46 1.52-3.51 2.09-5.54 2.31-.02.31-.05.94-.07 1.26l-1.24-.59a5.902 5.902 0 01-3.7 1.33l.12.76-3.17.08.26 1c-.8-.01-2.42-.03-3.22-.05l.17.89c-.67.06-2.01.19-2.67.25-1.19.76-2.59.9-3.94 1.14-1.29.57-2.69.74-4.07.93-2.05.82-4.27.95-6.46.83l.11.71c-4.05.36-8.12.43-12.18.28l.34.75-4.61-.04.93-.64c-4.48-.02-8.98.17-13.44-.33l.08-.72c-1.73.02-3.46 0-5.19-.04l.26-.87c-1.89 0-3.8-.06-5.56-.78-1.04-.24-2.05-.57-3.01-1-1.34-.3-2.67-.58-3.97-.96-.97-.4-1.94-.77-2.92-1.13-2.33-.45-4.27-2.13-6.67-2.22l.02-.73c-1.17-.21-2.32-.52-3.43-.93-1.64-.93-3.34-1.77-5.07-2.5-.68-.34-1.36-.69-2.03-1.02-5.1-2.63-10.11-5.42-14.89-8.6-2.09-1.19-4.05-2.6-6.02-3.97-16.25-11.07-30.89-24.33-44.5-38.46-14.86-15.7-28.63-32.48-40.47-50.59-3.17-4.87-7.36-9.77-7.56-15.84.42-11.93 3.53-23.52 4.96-35.33-1.94-4.82-4.68-9.58-9.04-12.58l.2-.54c-5.24.23-10.49-.1-15.73-.01-3.26-.11-6.68.38-9.76-.98-3.88-4.26-8.03-9.44-7.7-15.53.21-3.37 3.56-4.88 6.41-5.51 2.5-.24 1.6-3.28 1.66-4.97-2.41.12-4.81.13-7.22.06l.12.72c-3.43.07-8.27 1.1-10.21-2.66-2.15-6.32-3.33-12.95-4.23-19.55-.15-2.88-.61-6.17 1.41-8.54 3.33-3.79 8.74-3.98 13.16-5.56l.73-2.18c-.28-.5-.84-1.49-1.12-1.98-1.6-.37-3.17-.84-4.75-1.27l.11-.66c-1.18-.25-2.34-.56-3.49-.92-.98-.36-1.97-.69-2.97-1.02-3.8-1.29-7.32-4.14-7.95-8.33-.49-5.83-2.33-11.62-1.68-17.5.3-3.38 2.67-7.14 6.44-7.01 5.76.21 11.27 2.37 17.02 2.77 3.7.12 7.41-.01 11.11.01.39-5.3-3.82-10.23-1.78-15.45 2.86-5.54 7.73-9.76 12.66-13.45 3.67-2.76 9.34-4.31 13.21-1.12 2.21 3.83 3.13 8.25 4.78 12.33 4.58 11.63 11.62 22.41 20.96 30.79 4.9-7.34 10.53-14.32 14.49-22.2-.89-10.41-3.09-20.68-5.56-30.83-2.54-9.75-5.28-19.6-10.34-28.41-3.51-6.91-8.4-13.51-9.14-21.46m67.02 105.42l-.2 1.26-1.63-.48v.9c-1.27.83-2.5 1.72-3.75 2.59-.26.22-.78.65-1.04.87-2.28 2.18-4.76 4.2-6.59 6.8l-.44.01c-.22.34-.65 1-.87 1.33-1.67 2.03-3.13 4.22-4.91 6.16-.93 1.69-1.91 3.35-3.17 4.83-1.73 3.37-3.36 6.8-5.15 10.14.07.37.22 1.1.29 1.47l-1.09.01c-.11 1.53-.3 3.07-.95 4.49-.22 1.68-.36 3.4-1.09 4.96-.02.96-.08 2.89-.11 3.85 19.45 10.31 38.56 21.25 57.95 31.67 4.81-12.92 3.6-27.29.48-40.47-3.78-15.68-12.78-29.94-25.02-40.35l-2.71-.04m162.6.08c-3.93 3.21-7.7 6.86-10.78 10.94l-.43-.03c-.62 1.66-1.89 2.94-3.02 4.26-.41 1.17-1.17 2.14-1.98 3.06-2.15 4.48-5.21 8.66-6.21 13.6l-.72-.08c.03 1.3-.32 2.47-1.05 3.51-.04.67-.14 2.03-.18 2.71l-.83-.18c.12 1.59-.2 3.06-.96 4.4-.47 4.87-1.59 9.66-1.6 14.59l-.54.11c.1 3.32.1 6.65.02 9.98l.61-.01c.23 4.78.79 9.69 3.09 13.98 19.19-10.57 38.44-21.04 57.57-31.73-.42-11.51-5.72-22.2-12.42-31.32-4.64-6.08-9.73-11.99-16.19-16.19l.1-.87c-.42.1-1.24.29-1.66.39l-.15-1.27c-.67.04-2 .11-2.67.15m-83.14 16.9l-.55.62c-4.52 4.3-7.49 9.96-11.56 14.68-.82 1.45-1.89 2.74-2.99 4-.8 1.47-1.86 2.78-2.99 4-.79 1.28-1.65 2.52-2.5 3.75l-.42-.05c-3.22 6.01-8.85 10.57-10.93 17.24-.3 1.07-.66 2.13-1.09 3.16-.09.91-.28 2.71-.38 3.61l-.79-.04c.16 3.51.05 7.03.11 10.55 1.3 3.08 2.08 6.42 4.01 9.22 5.58 8.57 15.36 13.58 25.18 15.52 9.66 2.09 19.89.11 28.62-4.33 7.71-3.99 14.26-10.96 15.96-19.67 1.35-7.9-.31-16.2-4.05-23.22-8.28-11.38-16.76-22.61-25.07-33.97-1.08-1.6-2.27-3.13-3.68-4.45l-.59-.61-1.46.13-.08-1.05c-.79.01-2.37.02-3.16.02l-.1 1.09-1.49-.2m-101.51 75.09l.65 1.7-1.17.08c.01 1.23-.27 2.39-.81 3.49l-1.02 2.97c-.35 1-.69 1.99-1.03 2.99-.35 1-.72 1.99-1.1 2.98-.51 1.53-1 3.06-1.37 4.63l-.66-.06c0 1.24-.27 2.4-.83 3.49-.34.98-.67 1.98-1 2.97-.34.99-.69 1.98-1.06 2.97-.54 1.53-1.06 3.08-1.32 4.7l-.96-.1c.02.77.04 2.32.05 3.09l-.89-.11c.12 1.36-.26 2.52-1.11 3.49.15.71.44 2.12.58 2.82 2.86 3.9 4.95 8.29 7.65 12.3 16.38 26.02 35.81 51.02 61.52 68.43 14.25 9.36 31.17 16.73 48.56 14.8 11.63 1.49 23.34-1.73 33.88-6.48 18.67-8.71 34.29-22.75 47.8-38.08 13.73-15.76 25.42-33.19 35.83-51.28.89-1.18.04-2.6-.28-3.8-3.97-11.05-7.79-22.15-11.76-33.2-.84-2.3-1.25-4.74-1.43-7.17-.54.91-1.61 2.73-2.15 3.64-2.36 2.78-5.06 5.25-7.54 7.92.21 1.9.37 3.8.53 5.72.77 2.44.97 5.01.94 7.56 1.48 4.66.8 9.62.88 14.43l.59-.06c-.01 1.05-.02 3.16-.03 4.21l-.57-.3c.11 3.06.06 6.13-.25 9.18l-.83-.09c.02.77.07 2.3.1 3.06l-1.3.02c.13.45.39 1.35.52 1.79l-1.05.2c-.13 1.93-2.01 2.08-3.44 2.26l.02.81c-.84-.16-2.52-.47-3.37-.63-1.02-.32-2.04-.63-3.05-.94-8.23-4.85-14.58-12.12-20.94-19.1.18-.31.54-.94.71-1.25-1-.07-2-.13-2.99-.19-.9.91-1.85 1.77-3.04 2.28-1.33.96-2.66 1.91-3.99 2.87-.32-.06-.97-.19-1.29-.25l.08.92c-3.53 1.31-6.46 4.15-10.3 4.52l.22 1.19c-.48-.16-1.43-.48-1.9-.64a90.1 90.1 0 00-.42 1.56l-1.15-.44c-1.04.86-2.25 1.29-3.63 1.31.01.21.02.63.03.84h-3.2l.38.9c-1.92.4-3.83.9-5.74 1.33-1.29 1-3 .69-4.5.82l.19.88c-1.41.01-2.81.03-4.22.02l.18.78c-2.23-.21-5.76 1.74-6.53-1.62l.92 2.51c-8.14.65-16.36.6-24.52.09l.28-.71c-2.07.07-4.14.01-6.2-.18l.13-.74c-1.87-.03-3.78-.03-5.5-.81-1.33-.29-2.64-.58-3.94-.93-1.02-.34-2.04-.68-3.06-1.01-1.02-.29-2.02-.61-3.02-.94-1-.36-2-.72-3-1.07-1.7-.56-3.35-1.24-4.96-2.02-5.23-2.08-10.17-4.84-15.02-7.68l.18-1.58c-.25.38-.73 1.14-.98 1.52-1.03-1.18-2.74-1.92-3.02-3.59-.82-.05-1.64-.09-2.46-.14l-1.42 1.38.19.71-1.1-.1.13 1.16-.71-.1c-3.72 4.95-8.31 9.29-13.08 13.23-1.86 1.53-3.82 2.97-5.95 4.13-1 .35-2 .71-3 1.07-1.92.59-4.15.66-5.79-.65-2.67-2.2-3.45-5.78-4.03-9.02-1.36-12.86.48-25.76 2.48-38.46-2.46-2.92-5.88-5.12-7.49-8.67l-.95 1.36.58-1.92-2.36.03z"/><path d="M244.86 228.87c3.52-5.51 7.45-10.75 11.16-16.14 3.46 5.28 7.28 10.33 10.73 15.62 1.19 1.66 1.53 3.89.25 5.61-1.29 2.5-3.78 4.58-6.65 4.85l.31.8c-3.95-.06-8.37 1.04-11.81-1.53-3.12-1.67-6.44-5.68-3.99-9.21z"/><path d="M237.38 237.93c1.83-.18 2.47 2.02 3.64 3.06 5.32 7.35 16.16 8.85 24.02 5.04 3.64-1.69 5.84-5.14 8.47-7.98 1.46-.7 1.89 1.12 2.48 2.07 1.76 3.98 2.18 9.2-.42 12.87l.37 1.23c-.26.08-.78.23-1.05.31-.98 2.4-3 4.36-5.39 5.35l-.23.98c-.44-.12-1.3-.35-1.73-.46l-.1 1.06c-4.87 1.41-9.95 2.21-15.02 1.88l.25-.66c-1.9.06-3.84.13-5.61-.65-.99-.36-1.98-.7-2.98-1.02-8.79-3.49-12.85-15.51-6.7-23.08z"/><path d="M227.59 252.44c2.12 3.29 3.15 7.27 6.07 10.03 6.18 6.64 15.74 8.48 24.45 8.14 7.38-.38 15.18-2.53 20.18-8.3 2.82-2.8 3.9-6.73 6.1-9.95 2.18 4.87 1.86 10.53.5 15.57-2 6.77-7.88 11.38-13.9 14.51-1.48.64-3 1.19-4.61 1.35l.09.79-2.6.12c-2.06 1.4-4.64.87-6.98 1.02-2.93-.1-6.02.44-8.78-.81-2.46-.43-4.74-1.48-7.02-2.45-5.02-2.48-9.82-5.9-12.63-10.87-3.42-5.73-3.47-13.09-.87-19.15z"/></g></svg>