<svg xmlns="http://www.w3.org/2000/svg" width="1280" height="1280" xmlns:v="https://vecta.io/nano"><path fill-rule="evenodd" d="M191.7 664.5c.2 2.8.2 7.5 0 10.5s-.3.8-.3-5 .1-8.3.3-5.5zm897 1c.2 2.2.2 6 0 8.5s-.4.7-.4-4 .2-6.7.4-4.5zM624 1089.4c5.2 0 7.3.1 4.5.3-2.7.2-7 .2-9.5 0s-.2-.3 5-.3zm31.5 0c5.5 0 8 .1 5.5.3s-7 .2-10 0-1-.3 4.5-.3zm-15-897.7c7.2.1 13.2.5 13.5.8.3.4-.8.4-2.5 0-1.8-.3-1 .3 2 1.5 2.8 1.1 6.5 3.2 8.3 4.5 1.7 1.4 3.4 2.5 3.7 2.5s.2-.6-.2-1.2c-.3-.7.8.1 2.6 1.7 1.7 1.7 3.1 3.1 3.1 3.3 0 .1-.5 0-1-.3s-1-.3-1 0 1.5 2.7 3.3 5.4c1.7 2.7 11.3 19.3 39.2 68.8l18 3.7 40 8.2c12.1 2.5 24.3 5.5 27 6.8 2.8 1.2 7.3 4.2 10 6.6 3.5 3.1 4.1 3.5 2 1.1-1.6-1.8-4.3-4.2-6-5.4-1.6-1.2-5.5-3.2-8.5-4.4s-4.8-2.3-4-2.3 4.2 1.3 7.5 2.9c3.3 1.7 8.3 5.3 11 8.2 2.8 2.9 4.3 4.8 3.5 4.3-1-.7-1.3-.5-.9.6.3.8 1.1 1.5 1.6 1.5.6 0 1.5.4 2 .9.5.6.2.6-.7 0-1-.7-1.3-.5-.9.6.3.8 1.2 1.5 1.9 1.5s1.5.7 1.7 1.5c.4 1.3.3 1.3-.7 0s-1.1-1.2-.5.5l2.1 7.5c.8 3 1.4 7.1 1.4 9s-.7 6.1-1.5 9.3c-.8 3.1-1.2 6.3-.7 6.9.5 1 .3 1-.8.3-1.2-.8-1.3-.6-.7.8.5 1.1-.2 2.9-2.2 5.5-1.6 2-4.6 5.5-6.8 7.8-2.1 2.2-3.1 3.1-2.3 2 .9-1.2 3.3-4 5.3-6.3 2-2.4 4.2-5.3 4.7-6.5.9-2.1.9-2-.7.2-1 1.3-4.2 5.2-12.6 14.7l-.2-.2.2.2q-.3.4-.7.8l4.2 4.2c3.5 3.4 5.2 4.3 8.8 4.7 2.5.2 7.4 1.6 11 3s8.4 3.9 10.8 5.6c2.3 1.6 4.4 3 4.7 3q.2 0 .2-.3l3.3 3.6c3.4 3.6 3.7 3.7 10.5 3.7 3.9 0 10.9.7 15.8 1.5 4.8.8 12.4 2.9 17 4.5 4.5 1.7 10.9 4.6 14.2 6.4 3.3 1.9 8.1 5 10.8 7 2.6 2 4.9 3.6 5.2 3.6.2 0 .2-.2.1-.5l7.5 8c4.2 4.4 9.5 10.9 11.9 14.5s6.1 10.1 8.2 14.5 5 12.5 6.5 18c2.6 9.9 2.7 10.6 3.8 92.6l26.5 10.8 41.8 17.4c8.7 3.9 15.7 6.4 16.4 6 .8-.5 1-.4.6.2s1.1 1.9 3.5 3c2.3 1.1 6.9 3.8 10.2 5.9 3.3 2.2 8.5 6.2 16.9 14-.2 0-.4.1-.4.4-.1.4.7 1.4 1.6 2.2 1 .9 1.5 1 1.1.3s-.6-1.3-.4-1.3c.1-.1.9.7 1.7 1.6 1.2 1.5 1.2 1.6 0 .8-1-.7-1.3-.5-.9.6.3.8 1.1 1.5 1.7 1.5.5 0 1.4.4 1.9.9.5.6.2.6-.7 0s-1.2-.5-.9.1c.2.6 1.8 3.7 3.5 7 1.8 3.3 4.2 9.4 5.5 13.5 2 6.2 2.4 9.7 2.4 20s-.4 13.8-2.3 20c-1.3 4.1-5.9 14.3-10.1 22.5-4.3 8.3-11.6 21.3-16.1 29-4.6 7.7-11.8 19.2-15.9 25.5-4.2 6.3-7.8 12-8 12.5-.3.6 0 .7.9.1s1.2-.6.7 0c-.5.5-1.2.9-1.7.9-.4 0-4.1 4.5-8.1 10s-7.2 10.5-7.2 11c0 .6 1.7 3.7 3.7 7s4.9 9.6 6.3 14c2.3 7 2.7 9.6 2.7 21s-.4 14-2.7 21c-1.4 4.4-4.3 10.7-6.2 14-2 3.3-4.7 7.1-6 8.5-1.4 1.4-2.5 3-2.5 3.5-.1.6.7.3 1.7-.5s.2.3-1.7 2.4-9.8 9.3-17.5 16.2c-7.7 6.8-19 16.2-25 20.9s-14.3 10.8-18.2 13.5c-4 2.8-7.3 4.8-7.3 4.5s3.5-2.9 7.8-5.9c4.2-2.9 12.4-9 18.2-13.5a301.5 301.5 0 0 0 8.5-6.9l9-7.5c6-5.2 14.2-12.5 18-16.1 3.9-3.6 6.8-6.5 6.5-6.5-.2-.1-2.8 2.2-6.4 5.3-1.3.9-3.7 3.1-6.3 5.6-2 1.9-5.1 4.7-8.6 7.7l-7.5 6.5q-1.1 1-2.2 1.9l-8 6.5c-4.8 3.9-10 7.9-13.5 10.5q-1.8 1.3-3.6 2.6c-4.9 3.5-11.1 7.8-16.4 11.2-7.7 5.1-21.9 13.2-31.5 18-10.1 5-23 10.5-30.5 13-7.1 2.4-16.8 5.1-21.5 6.1s-11.4 2.1-15 2.5c-3.7.4-7.7 1.6-9.2 2.6-2.6 1.7-2.9 2.6-3.4 10.2-.4 4.5-1.3 10.7-2 13.7-.8 3-3.2 9.1-5.3 13.5-2.2 4.4-5.6 9.9-7.5 12.3-2 2.3-3.6 4.5-3.6 5-.1.4.7.1 1.7-.7 1-.7-1 1.3-4.4 4.5-3.4 3.3-7.7 6.8-9.5 7.8s-2.8 1.5-2.3.9c.5-.5 3.6-2.9 6.9-5.4 3.2-2.4 6.3-5.1 7-5.9.6-.8-.9.1-3.2 2l-7.5 5.8a74.27 74.27 0 0 1-7.7 4.7c-2.5 1.2-8.8 3.7-14 5.4s-15.1 4.6-22 6.5c-6.9 1.8-18.8 4.8-26.5 6.4-7.7 1.7-19.6 4-26.5 5.1s-19.1 2.7-27.2 3.6c-8.6.9-24 1.5-36.8 1.5-12.9 0-28.3-.7-37.2-1.6-8.4-.8-21.8-2.6-29.8-4-8-1.3-21.5-4-30-6s-22.5-5.6-31-8c-8.5-2.5-18.9-6.1-23-8.2l-8.5-4.1c-.6-.3-.7 0-.1.9s.6 1.2 0 .7c-.5-.5-.9-1.4-.9-1.9 0-.6-.7-1.4-1.5-1.7-1.1-.4-1.3-.1-.6.9.8 1.2.7 1.2-.8 0-.9-.8-1.7-1.6-1.6-1.7 0-.2.6 0 1.3.4s.6-.1-.3-1.1c-.8-.9-1.8-1.7-2.2-1.6-.5 0-.5.6-.2 1.3.3.6-2.5-2-6.3-5.9-3.7-3.9-7.6-8.5-8.5-10.3-1-1.7-1.7-3.1-1.5-3.1.1 0 1.9 2.3 3.9 5.2s5.6 7.1 7.9 9.3c4.2 3.9 4.2 3.9-.6-1.5-2.6-3-6.3-7.7-8.1-10.5-1.8-2.7-4.5-7.9-6-11.5-1.4-3.6-3.2-9.8-4-13.7-.8-4-1.4-9.5-1.4-12.3 0-4.6-.3-5.2-3.2-6.9-1.8-1-6-2.2-9.3-2.6-3.3-.3-10.3-1.6-15.5-2.7s-14.4-3.7-20.5-5.8c-6-2-14.1-5.1-18-6.9-3.8-1.7-7.6-2.9-8.2-2.6-.7.3-1.1.2-.9-.2.3-.5-1.5-1.8-4-3-2.4-1.3-5-2-5.6-1.5q-1.3.7-.5-.5c.5-.9-2-2.8-8-6-4.8-2.7-14.4-8.6-21.3-13.2s-16.3-11.3-21-14.9-14.1-11.3-21-17.1c-6.8-5.8-16.8-14.9-22-20.1-7.3-7.3-10.5-11.4-13.7-17.5-2.3-4.4-5.1-11.6-6.3-16-1.3-5.2-2-11.2-2-17 0-5.5.7-11.9 1.9-16.5 1-4.1 3.3-10.4 5.1-14s4-7.6 5-9c1.7-2.5 1.7-2.5-7.3-15-4.9-6.9-9.3-12.5-9.7-12.5-.5 0-1.2-.4-1.7-.9-.5-.6-.2-.6.7 0 1 .7 1.3.5.9-.6-.3-.8-1.1-1.5-1.6-1.5-.6 0-1.5-.4-2-.9-.5-.6-.2-.6.7 0 1 .7 1.3.5.9-.6-.3-.8-1.1-1.5-1.6-1.5-.6 0-1.5-.4-2-.9-.5-.6-.2-.6.7 0 1 .7 1.3.5.9-.6-.3-.8-1.1-1.5-1.6-1.5-.6 0-1.5-.4-2-.9-.4-.5-.3-.6.5-.3.6.4 1.2.5 1.2.2s-3.1-5.3-6.8-11.2c-3.8-6-9.5-15.4-12.8-21-3.4-5.9-6.3-9.9-6.9-9.5s-.7.2-.2-.5c.4-.7-.6-3.9-2.3-7.3-2-4.1-3.4-5.8-4.2-5.2q-1.3.7-.5-.5c.4-.8-.9-4.7-2.9-9s-4.5-11.2-5.5-15.3c-1.2-4.4-1.9-11-1.9-16 0-4.7.5-11.2 1.1-14.5s2.4-9.4 4-13.5c1.5-4.1 4.6-10.1 6.9-13.2 2.2-3.2 4-6 4-6.3s-.6-.2-1.2.1c-.7.3 2.3-3 6.7-7.4s8.7-7.9 9.5-7.9c.8.1 7.6-2.8 15-6.5 7.4-3.6 21.2-9.8 30.5-13.8l56-22.9.6-41.8c.5-40.9.6-42 3.1-51.3 1.4-5.2 3.9-12.4 5.5-16s5.1-9.9 7.7-14c2.7-4.1 8.7-11.5 13.5-16.4 6.2-6.5 7.3-7.9 3.7-5-2.6 2.1-7.2 6.8-10.1 10.4s-6.5 8.4-8.1 10.8-3 4.3-3.1 4.2c-.2 0 .5-1.4 1.5-3.1.9-1.7 4.5-6.5 7.8-10.7 3.4-4.3 8.8-9.9 12-12.7 3.2-2.7 5.5-4.4 5.1-3.7-.4.6-.6 1.2-.4 1.2.1 0 3.8-2.3 8.2-5.3 4.4-2.9 11.6-6.8 16-8.6s11.4-4.2 15.5-5.3c4.1-1 12.5-2.2 29.5-3l4-3.9c2.2-2.1 6.7-5.4 10-7.4s8.9-4.5 12.5-5.6c3.6-1 7.6-1.9 9-1.9 1.6 0 4-1.5 10.9-8.5l-6.6-7.5c-3.7-4.1-7.8-10-9.2-13-2.2-4.7-2.6-6.9-2.6-15 0-8.5.3-10.1 3-15.5l3.4-7q.5-1-.9 0c-.8.5-.3-.6 1.1-2.5 1.5-1.9 4-4.4 5.5-5.5 1.6-1.1 3.2-1.8 3.7-1.7.4.1 3.1-.9 6-2.3 3.4-1.6 18.5-5.1 44.7-10.5l40.2-8.8c.4-.4 9.1-15.5 19.4-33.7 10.3-18.1 18.8-33.7 18.8-34.7.1-.9.5-2 1-2.5.6-.5.6-.2.1.7-.8 1.3-.7 1.3.9 0 .9-.8 1.7-1.8 1.6-2.2 0-.5-.5-.6-1-.3s-1 .4-1 .3c0-.2 1.8-2.1 4.1-4.3s3.9-3.4 3.5-2.7c-.3.6-.3 1.2.2 1.2.4.1 1.4-.7 2.2-1.6 1.3-1.6 1.3-1.7 0-.8-1.1.6-1.3.6-.7-.3.4-.7 1-1.1 1.5-.8.4.2 3.4-.7 6.7-2 3.3-1.4 5.3-2.5 4.5-2.5s-3.4.9-5.7 2c-2.4 1.1-4.4 1.8-4.4 1.5-.1-.4 1.6-1.4 3.8-2.3 3.1-1.4 6.5-1.7 16.8-1.5zm340 729.5c-5.2 4.3-11 8.8-15.5 12.2-7.4 5.6-14.6 10.8-18.5 12.7l2.5-1.8c1-.8 4.7-3.5 8.9-6.6 2.3-1.5 4.2-3 5.6-4l11.5-9.1 7.5-6.1q1.3-1.1 2.7-2.3c2.5-2 5.1-4.3 7.5-6.5 4-3.4 7.9-6.9 10.8-9.5 1.4-1.4 2.8-2.6 4.1-3.8.5-.3.8-.5.9-.4.3.3-5.5 5.8-12.8 12.2-4.4 3.9-10.1 8.8-15.2 13zm89.9-298.8l-4.4-4.7c-2.5-2.6-6.9-6.5-9.8-8.5s-5.2-3.8-5.2-3.9c0-.2 1.4.5 3.1 1.5 1.8.9 6.6 5 10.8 9 4.2 4.1 7 7.1 6.4 6.8q-.5-.2-.9-.2zm.1 0q0 0-.1 0 0 0 0 0zm-153.8-205q0 0 0 0 0 0 0 0-.1-.3-.3-.7c-.4-.7 1.3.6 3.7 2.8 2.5 2.2 6.3 6 8.5 8.5 2.3 2.4 5.3 6.2 9.6 12.4l-2.8-3.5c-1.5-1.9-6.4-7.1-18.7-19.5q0 0 0 0 0 0 0 0zm-77.2-30q.1.1.2.2 0 0 0 0zm.2.2q-.1-.4-.3-.9c-.4-.7 1.1.4 3.2 2.5 3.8 3.6 4.2 3.7 19.9 4.1l-8 .3c-7.8.3-8.1.3-14.8-6zM209.4 622.4l14.1-12.7c.5-.4.6-.8.2-.8s-3.8 3.1-7.5 6.8zm487.3-373c.6.5 2.8 4.1 4.9 8 2 3.8 3.3 6.5 2.7 6-.5-.6-2.7-4.2-4.8-8-2.1-3.9-3.3-6.6-2.8-6zm-231.3 61.5c.3 0-.2 1.4-1.1 3.2s-2.2 5.1-2.9 7.3-1.3 3.1-1.3 2 1.1-4.4 2.4-7.3c1.4-2.9 2.7-5.2 2.9-5.2zm-.5 39.5c1.6 2.7 5.5 7.8 14.1 17.5l-4.5 3.5c-2.4 1.9-5.5 3.4-6.7 3.4-2.1-.2-2.1-.2.3-.8 1.3-.3 4.2-1.9 9.9-6.1l-5.1-5.8c-2.9-3.1-6.5-7.7-8-10.2-1.6-2.5-2.9-5-2.9-5.5 0-.6 1.4 1.2 2.9 4zm335.8 16.2q0 0 0 0l3.8 3.5c2.2 2 5.4 3.8 10 4.5l-3 .1c-2.3.2-3.8-.7-7-4.1zm-355.9 16.3c.1 0 .3.1.3.3 0 .1-2.9 2.6-13.1 10.7l-14.5-.4 7.3-.3c7-.3 7.4-.4 13.5-5.3 3.4-2.7 6.4-5 6.5-5zM904.9 408c2.4 1.3 5.8 3.7 7.5 5.2s0 .6-3.9-1.9c-3.8-2.5-7.2-4.8-7.5-5.1-.2-.3 1.5.5 3.9 1.8zm34.7 34.4c.9 1.1 3.1 5.1 5 8.8s3.3 6.9 3.2 7.1c-.1.3-2.4-3.7-5-8.7s-4-8.3-3.2-7.2zm-615.1 45l.3 38.5v38.7c-.2 0-1.4.4-5.3 1.3l4.6-2.5zm631.2 16l.6 37.3c.1 13.3-.1 24.2-.5 24.2s-.7-16.7-.6-37.2l.5-24.3zm7.6 63.5c.4 0 5.9 2.2 12.2 4.8 6.4 2.6 11.4 4.8 11.3 5-.2.1-5.4-1.9-11.8-4.4-6.3-2.5-11.7-4.8-12-5-.2-.2-.1-.4.3-.4zM242.4 598c.5 0 .8.1.5.3-.2.2-3.6 2-7.6 4s-7.4 3.4-7.5 3.1c-.1-.2 3-2 6.8-3.9s7.3-3.5 7.8-3.5zm835.2 32.9c.3 0 2.1 3.4 4.2 7.6 2 4.1 3.5 7.6 3.2 7.9-.2.2-2.1-3.2-4.1-7.6-2-4.3-3.5-7.9-3.3-7.9zm7.4 62.7c.3.2-2.3 6-5.7 12.8-3.5 6.9-6.5 12.5-6.8 12.5-.2 0 2.3-5.8 5.7-12.8 3.4-7.1 6.5-12.7 6.8-12.5zm-18.5 35.3c.3 0-.9 2.6-2.6 5.8-1.7 3.1-3.6 6.2-4.1 6.7-.6.6 0-1 1.4-3.5 1.4-2.4 3.1-5.5 3.7-6.7.7-1.3 1.4-2.3 1.6-2.3zm-10.9 19c.2 0 .1.6-.3 1.3-.3.7-2.3 4-4.4 7.5-2.2 3.4-4.1 6.2-4.4 6.2-.2 0 .1-1 .9-2.2.7-1.3 2.8-4.6 4.6-7.5 1.7-2.9 3.3-5.3 3.6-5.3zm-830 2c.5 0 2.2 2.4 3.8 5.3s3.5 6.2 4.3 7.5c.7 1.2 1.1 2.2.8 2.2-.2 0-2.2-2.8-4.3-6.2l-4.6-7.5c-.4-.7-.4-1.3 0-1.3zm820 14c.2 0 .1.6-.3 1.3-.3.7-2.3 3.8-4.4 7-2.1 3.1-4.1 5.7-4.4 5.7-.2 0 1.6-3.1 4.2-7 2.5-3.8 4.7-7 4.9-7zm-794.8 24.5c.6.6 3.1 3.7 10 13l-3.2 4.8c-1.7 2.6-3.2 4.8-3.3 4.8-.2-.1.4-1.3 1.2-2.8.7-1.5 2.1-3.7 2.9-4.8 1.3-1.8 1.3-2.2-.8-5l-5.1-7c-1.6-2.2-2.3-3.5-1.7-3zm777.9.5c.2 0-.8 1.7-2.3 3.8l-4.6 6.2c-1.7 2.5-1.7 2.6.3 6 1.2 2 1.4 2.6.4 1.5-.9-1.1-2-2.6-2.5-3.5-.7-1 .4-3.2 3.6-7.7 2.6-3.5 4.8-6.3 5.1-6.3zm-776.2 25.2c0 .2-.9 3.3-2.1 6.9-1.3 3.5-2.3 5.9-2.3 5.2s.9-3.8 2.1-6.8l2.3-5.3zm-5.1 13.8c.1 0 .1 7.1.1 15.7 0 8.7-.3 14.4-.6 12.8-.4-1.6-.7-7-.7-12-.1-4.9.1-10.7.5-12.7.3-2.1.6-3.8.7-3.8zm786.4 11.5c.2 2.8.2 6.8 0 9-.3 2.2-.4 0-.4-5 0-4.9.2-6.7.4-4zm-783.3 26.5c1.3 3.6 2.2 6.6 2 6.8-.3.1-1.4-2.2-2.5-5.3-1.1-3-1.9-6-1.9-6.7s1.1 1.7 2.4 5.2zm8.6 17.5c1.2 1.7 7 7.7 12.8 13.4 5.9 5.7 16 14.9 22.6 20.5 6.6 5.5 16.5 13.4 22 17.4 5.5 4.1 10.5 7.9 11 8.5.6.6-1.8-.9-5.4-3.4-3.5-2.4-11.4-8.4-17.5-13.3-6.1-4.8-16-13.2-22.1-18.6-6-5.3-13.8-12.7-17.2-16.3-3.5-3.7-6.7-7.7-7.3-8.9-.7-1.4-.3-1.1 1.1.7zM439.3 990c1.5 0 4.1.7 5.7 1.7 2.8 1.6 3 2.1 2.7 11.7l-.3-4.5c-.2-2.6-1-5.1-2-6-1-.8-3.3-1.8-5.3-2.1-3-.5-3.2-.7-.8-.8zm83.7 82.6c2 .3 5.3 1.2 7.5 1.9 3.9 1.3 3.9 1.3.5.8-1.9-.4-5.3-1.2-7.5-2-3.8-1.3-3.9-1.3-.5-.7z" fill="#fcfcfc"/><path d="M631 197.9l-7.8 3.4c-1.7.9-4.8 3.4-6.8 5.4-2 2.1-12.9 20.2-24.3 40.3l-20.7 36.5-84.9 17.9c-2.2.8-6.4 3.6-9.3 6.3-3.3 2.9-6.4 6.9-8 10.3-2.1 4.5-2.6 7-2.6 13.5-.1 6.6.4 9 2.5 13.5 1.4 3 6.2 9.7 10.7 14.7l8.2 9.3c-5 3-8.3 5.7-10.5 8-2.6 2.6-4.9 4-6.5 4-1.4 0-5 .7-8 1.5s-7.9 2.7-10.9 4.2c-2.9 1.6-7.9 5.1-11 7.9l-5.6 5.1c-17.1 1-25.8 2.2-30.5 3.3-4.7 1.2-12.6 4-17.5 6.4-4.9 2.3-11.2 5.7-14 7.6-2.7 1.9-7.9 6.2-11.4 9.5s-8.4 8.7-11 12c-2.5 3.3-6.4 9.6-8.7 14s-5.3 11.6-6.7 16-3 12.1-3.6 17c-.6 5.1-1.1 25.1-1.1 46l.1 37-44.6 18c-11 4.5-27.2 11.5-36 15.5s-19.1 9.3-22.9 11.9c-3.8 2.5-9.4 7.3-12.3 10.6-3.2 3.5-7.2 9.7-9.8 15-3.1 6.4-5 12.2-6.6 20l-2.2 11c3.6 17.1 6 24.4 8.7 30 2.3 5 8 15.7 12.6 24 4.6 8.2 11.7 20.4 15.8 27a766.74 766.74 0 0 0 15 23l13.4 18.7c3.2 4.3 5.8 8 5.8 8.3s-1.8 3.1-4 6.2c-2.2 3.2-5.1 8.5-6.4 11.8s-3 9.1-3.7 13c-.7 4-.9 10.6-.6 15.5.3 5.3 1.5 11.3 3.1 16 1.4 4.1 4.1 9.9 5.9 12.9 1.7 3 6.8 9.1 11.2 13.4 4.4 4.4 13.6 12.8 20.4 18.6s16.7 13.9 22 18 16.4 11.9 24.6 17.3c8.4 5.6 22.5 13.6 32 18.3 9.4 4.6 21.1 9.8 26 11.5s13.3 4.2 18.5 5.5 13.6 2.9 18.5 3.5c7.4 1 9.8 1.7 13.7 4.3l4.6 3.2c1 13.2 1.8 19.2 2.4 22 .6 2.7 2.2 7.7 3.7 11s4.2 8.2 6.1 11c1.9 2.7 5.5 7 8 9.4s7 6 10 7.9c3 2 8.4 4.6 12 5.9 3.6 1.4 13.5 4.5 22 6.9s22.7 6 31.5 7.9 21.6 4.3 28.5 5.5c6.9 1.1 20.1 2.8 29.5 3.7 9.4 1 23.8 1.8 32 1.8 8.3 0 21.1-.6 28.5-1.3s19.6-2.2 27-3.3c7.4-1 18.2-2.8 24-4 5.8-1.1 17.5-3.8 26-5.9l27.5-7.5c6.6-2 15.1-5.3 19-7.3 4.8-2.4 9.5-6.1 15-11.6 5.9-6 9-10.1 11.7-15.6 2.1-4.1 4.4-10.4 5.2-14 .9-3.6 1.6-10 1.6-14.3V991c8.7-6.1 11-6.8 18.5-7.8 5-.6 14.2-2.5 20.5-4 6.3-1.6 16.9-5 23.5-7.7 6.6-2.6 17.4-7.5 24-10.9s16-8.8 21-11.8c5-3.1 13.3-8.6 18.5-12.4 5.2-3.7 14.9-11.1 21.5-16.3 6.5-5.3 16.4-13.7 22-18.7 5.5-5 12.5-11.7 15.5-15s7.1-9.1 9.2-12.9c2-3.9 4.4-9.7 5.4-13 1.3-4.2 1.8-9.3 1.8-17 0-7.8-.5-12.8-1.8-17-1-3.3-3.2-8.7-4.8-12-1.7-3.3-4.1-7.4-5.4-9s-2.3-3.5-2.3-4 3.5-5.7 7.8-11.5 12.1-17 17.3-25c5.3-8 13.5-21.3 18.3-29.5 4.8-8.3 11.9-21.1 15.6-28.5 3.8-7.4 7.7-16.4 8.6-20 1.1-4.1 1.7-10.3 1.7-17 0-6.9-.7-12.8-1.8-17-1-3.6-3-9.2-4.6-12.5-1.5-3.3-4.8-8.7-7.3-12-2.4-3.3-7.3-8.3-10.8-11.2-4-3.2-11.9-7.8-20.9-12.1-8-3.8-23.7-10.8-35-15.5l-36.5-14.9-16-6.3c-1-83.7-1.3-89.8-2.9-95.5-1.1-3.6-3.3-9.9-5-14-1.8-4.1-5.4-10.9-8.1-15s-8.3-10.9-12.4-15.1c-4.2-4.1-10.3-9.4-13.6-11.6s-8.7-5.4-12-7c-3.3-1.7-9.6-4.2-14-5.6s-11.5-3-15.7-3.6c-4.3-.6-10.6-1.1-14-1.1-6 0-6.5-.2-10.3-4-2.2-2.1-6.7-5.5-10-7.5s-8.9-4.5-12.5-5.6c-3.6-1-7.6-1.9-9-2-1.6 0-4.2-1.6-7-4.2-2.5-2.3-5.7-5.1-7.2-6.2l-2.7-2c12.6-14.1 17.3-20.4 18.7-23.5 2-4.3 2.6-7.1 2.6-13 0-6.4-.4-8.5-3.1-14-1.9-4-4.7-7.9-7.4-10.3-2.4-2.1-6.2-4.6-8.4-5.6s-22.2-5.6-44.5-10.1c-30.1-6.1-40.9-8.6-42-9.9-.8-1-10-17-20.5-35.6-13.2-23.4-20.5-35.4-24-39.2-3.9-4.1-6.7-6.1-12.2-8.3-4.5-1.9-8.9-3-11.5-2.9-2.4 0-6.3.9-8.8 1.8z"/><path d="M618 274.3l-22.6 39.6c-.8 1.2-13.5 4.1-45.3 10.6-24.2 4.9-44.1 9.3-44.1 9.7 0 .5 13.1 15.1 29.1 32.5l30.4 33.8c1 1.7.4 9.4-3.9 46.2l-4.6 44.7c.3.3 18.8-7.8 41.3-17.9L640 455c.5 0 19.3 8.3 41.8 18.5l41 18.2c.2-.1-2-20.5-4.7-45.2-4.8-42.8-5-45.1-3.3-46.9.9-1.1 14.6-16.1 30.5-33.5 15.8-17.4 28.4-31.9 28-32.2-.5-.4-20.2-4.6-43.8-9.4-29.9-6-43.5-9.2-44.6-10.3-.9-1-11.2-18.6-22.8-39.2l-21.9-38.1c-.4-.4-10.4 16.4-22.2 37.4zm17.2 264.5c-2.3 4.2-6.4 10.2-9 13.3-2.6 3-7.4 7.9-10.7 10.8s-9.5 7.4-13.8 10c-4.3 2.5-7.8 4.8-7.7 5.1 0 .3 2.8 2 6.3 3.8l6.2 3.3c13.7-2.9 20.9-3.4 33.5-3.4 12.3 0 19.9.5 25.5 1.6l8 1.7c9.7-5 12.5-6.8 12.5-7.3 0-.4-1.9-1.7-4.3-2.8-2.3-1.2-6.2-3.5-8.7-5.2s-7.1-5.3-10.4-8.1c-3.2-2.8-8.4-8.5-11.5-12.6s-6.7-9.9-8.1-12.8-2.7-5.2-3-5.2-2.4 3.5-4.8 7.8zm145.2 443.8c-4.4 2.4-12.6 6.5-18.4 9-5.8 2.6-15.5 6.4-21.5 8.6s-17.7 5.7-26 7.8c-8.2 2.1-21.5 4.9-29.5 6.2-12.7 2-18.2 2.2-45 2.3-26.9 0-32.2-.3-44.5-2.3-7.7-1.2-19.4-3.5-26-5.1s-17.2-4.6-23.5-6.7c-6.3-2-15.7-5.4-20.7-7.5-5.1-2.2-14.7-6.6-21.3-9.9s-12.2-6-12.5-6-.5 5.5-.5 12.2c0 6.9.5 13.8 1.2 15.8.6 1.9 2.2 5.1 3.4 7s4 4.7 6.1 6.3c2.1 1.5 8.7 4.3 14.8 6.2 6 2 18.2 5.4 27 7.6s22.1 5.1 29.5 6.4c7.4 1.4 18.7 3.2 25 4 6.3.9 21 1.8 32.5 2.2 13.1.4 26.1.1 34.5-.6 7.4-.6 19.4-2 26.5-3.1 7.1-1 19.5-3.3 27.5-5s18.8-4.2 24-5.6 14.5-4 20.5-5.9c9.1-2.8 11.9-4.1 15.9-7.7 2.7-2.4 5.8-6.1 6.9-8.3 1.7-3.2 2.2-6.3 2.5-15.5.2-6.3.2-12.7-.1-14.1l-.5-2.6z" fill="#f2c33c"/><path d="M765.3 533.8c-1 1.9-3.9 6.6-6.4 10.5-2.6 4-8.5 10.8-13.1 15.2s-12.3 10.4-17.1 13.3L720 578c10.5 5.6 15.3 8.6 17.5 10.3s6.4 5.3 9.3 8.1 7 7.3 9 10.1c2 2.7 5.3 8.1 7.3 12l3.7 7c4.2-8.5 7.1-13.5 9.2-16.5 2-3 6.6-8.4 10.1-11.9 3.5-3.6 9.6-8.5 13.4-11 3.9-2.6 8.5-5.3 10.3-6.1s3.3-1.8 3.2-2.2c0-.5-1.9-1.8-4.2-2.9-2.4-1.2-7-4-10.3-6.2s-9-7-12.6-10.6-8.7-9.7-11.2-13.6c-2.5-3.8-5.2-8.6-6-10.5l-1.5-3.5zm170.1 245.4c-.4 2.4-2.5 10.6-4.7 18.3-2.1 7.7-6.4 20.3-9.4 28-3.1 7.7-8.6 19.8-12.3 27-3.7 7.1-9.4 17.2-12.6 22.5-3.2 5.2-9.8 14.6-14.5 21-4.8 6.3-12.9 16.2-18.1 22-5.2 5.7-14.1 14.6-19.7 19.7s-9.7 9.5-9.2 9.8c.6.2 5.2-.2 10.3-1.1 5.1-.8 14-3.1 19.7-5 5.8-1.9 16.4-6.3 23.5-9.8 7.2-3.5 18-9.4 24-13.1 6.1-3.8 15.1-9.8 20-13.3 5-3.6 12.2-9 16-12.1 3.9-3.1 11.5-9.5 17-14.2 5.5-4.8 12.9-11.6 16.3-15.3 5-5.3 6.6-7.8 7.9-12.4.9-3.4 1.4-7.6 1.1-10.2-.3-2.5-1.4-6.6-2.5-9-1.1-2.6-7.5-10.7-14.8-19-7.1-8-18.1-19.8-24.4-26.3-6.4-6.5-11.9-11.8-12.2-11.8-.4.1-1 2-1.4 4.3z" fill="#7fd244"/><path d="M387.1 537.3c-1.9 3.4-5.3 8.7-7.7 11.7-2.3 3-6.1 7.3-8.3 9.5l-4.1 4v30c6.3 6.2 10 10.4 12.3 13.4s5.8 8.7 7.8 12.5l3.7 7.1C395 617 398 612 400 609c2.1-3 6.2-8 9.1-11.1 3-3 8.1-7.5 11.4-10 3.4-2.4 8.4-5.5 11.3-6.9 2.8-1.4 5.1-2.8 5.2-3.2 0-.5-1.9-1.8-4.3-2.9-2.3-1.2-6.9-4-10.2-6.2s-9.2-7.2-13-11.1c-3.9-3.9-9.4-10.9-12.3-15.6s-5.2-9.1-5.2-9.7c0-.7-.3-1.3-.8-1.3-.4 0-2.3 2.8-4.1 6.3zM357.5 597c-1.1.5-13.9 5.6-28.5 11.3L285.5 626c-9.4 4-22 9.6-28 12.5-8.4 4-11.9 6.2-14.8 9.6-2.1 2.4-4.7 6.4-5.9 8.9-1.7 3.5-2.2 6.4-2.2 13l-.1 8.5c9.9 19.4 16.6 31.5 21.3 39.5 4.6 8 12.8 21 18 29 5.3 8 13.8 20.1 19 27s11.6 14.9 14.1 17.8 4.8 5.3 5.1 5.2c.3 0 7.1-6.9 15.1-15.3l14.6-15.2c-2-14-3.1-25-3.7-33.5l-1-20.2c0-2.9.6-5.4 1.5-6.3 1.2-1.2 4.2-1.5 14.2-1.4 10.2 0 12.7-.2 12.5-1.3l-2-6.8c-1.3-4.6-1.6-13-2-53.2l-1-47.7c-.4 0-1.6.4-2.7.9z" fill="#bb0a34"/><path d="M417 437.1c-3 .5-8.4 2.2-12 3.7s-8.8 4.4-11.5 6.3c-2.8 2-7.3 6.1-10 9.1-2.8 2.9-6.2 7.4-7.7 9.8-1.4 2.5-3.9 8.1-5.4 12.5l-2.8 8c-.6 61.3-.4 65.5.9 65.5.8 0 3.6-2.8 6.1-6.3 2.6-3.4 6.4-9.8 8.4-14.2 2.1-4.4 4.2-9.2 4.9-10.8.6-1.6 1.8-2.6 2.7-2.5.9.2 2 1 2.5 1.8.4.8 2.3 4.9 4.1 9 1.9 4.1 5.3 10.2 7.5 13.5s7.2 9 10.9 12.6c3.8 3.6 9.6 8.3 12.9 10.4s9.4 5.3 13.5 7c5.2 2.2 7.6 3.8 7.8 5.1.2 1.5-1.3 2.6-8 5.3-4.6 1.9-11.4 5.6-15.3 8.2-3.9 2.5-10.1 8-13.9 12-3.7 4.1-8.8 10.8-11.2 14.9s-5.4 10.1-6.6 13.3c-1.8 4.6-2.7 5.8-4.2 5.5-1.3-.2-3-3-5.5-8.8-2-4.7-5.2-10.8-7-13.5-1.9-2.8-4.8-6.5-6.5-8.3s-3.4-3.2-3.9-3.2c-.4 0-.6 19.9-.4 44.2l.2 44.3c4.7 13.2 7.9 19.7 10 22.9 2.2 3.3 6.7 8.5 10.1 11.5 3.3 3.1 9.4 7.3 13.5 9.3 4.3 2.1 11 4.4 15.9 5.4 6.1 1.2 10.8 1.5 16.8 1 4.5-.3 11.5-1.3 15.4-2.3 4-.9 10-2.7 13.3-4.1 3.3-1.3 8.9-4.3 12.5-6.7 3.6-2.3 8.6-6.4 11.2-9.1 4.3-4.4 4.9-5.6 5.9-11.4.5-3.6 1.9-10.1 3-14.5 1.2-4.4 3.6-12 5.5-17 2-5 5.5-12.6 7.9-17s6.6-11.1 9.3-15c2.6-3.9 9.1-11.4 14.3-16.9 5.2-5.4 13-12.5 17.4-15.8s10.8-7.7 14.2-9.7l6.3-3.6c0-12.8-.3-16.7-.8-16.9-.4-.3-3.4.6-6.7 2-3.3 1.3-8.9 4.3-12.5 6.7-3.6 2.3-9.9 7.6-14 11.7-4.1 4.2-9.3 10.7-11.5 14.4-2.2 3.8-5.2 9.9-6.7 13.5-2 4.9-3.2 6.7-4.7 6.8-1.4.2-2.3-.4-2.8-2-.4-1.2-2.6-6-4.9-10.7s-6.3-11.4-9-14.9-6.9-8.2-9.4-10.4-7.6-6.1-11.5-8.6c-3.9-2.6-10.1-5.9-14-7.3-3.9-1.5-7.3-3.4-7.8-4.2-.4-1-.1-2.2.9-3.1.8-.8 2.1-1.5 2.7-1.5.7 0 4.6-1.6 8.7-3.6s10.2-5.5 13.5-7.8c3.3-2.4 8.5-7 11.5-10.2 3-3.3 7.4-8.9 9.8-12.4 2.3-3.6 5.5-9.8 7-13.7 1.5-4 3.4-7.5 4.2-7.8s2 0 2.7.7c.6.7 2.3 4.2 3.8 7.8 1.4 3.6 4.1 9 6 12 1.8 3 6.2 8.6 9.7 12.4 3.4 3.8 9 8.8 12.3 11.2 3.3 2.3 9.4 5.8 13.5 7.8s8.1 3.6 8.8 3.6c.9 0 1.2-6.2 1.2-27.5V519c-8.9-8.1-18.3-15.9-26.5-22.5L520 478.3c-4.7-3.3-13.9-9.6-20.5-13.8s-18.8-11-27-15.1c-8.3-4-19.1-8.5-24-9.9-5.2-1.5-12.6-2.7-17.5-3-4.7-.2-11 0-14 .6zm422 .4c-3.6.8-8.8 2.2-11.5 3.1-2.8 1-8.8 3.3-13.5 5.4-4.7 2-13.5 6.5-19.5 9.9-6 3.5-17.1 10.5-24.5 15.5s-20 14.2-28 20.5-18.4 14.8-23.2 19l-8.8 7.6c0 51.8.2 55.5 1.5 55.5.8 0 5.4-2 10.2-4.4 4.9-2.5 11.7-6.9 15.3-9.8 3.6-3 8.9-8.3 11.8-11.8 2.9-3.6 7.3-10.5 9.6-15.5l5.5-11.8c.6-1.5 1.7-2.7 2.3-2.7.7-.1 1.8.5 2.4 1.2.5.7 2.3 4.4 4 8.3 1.6 3.8 4.6 9.7 6.8 13 2.1 3.3 6.9 9.1 10.5 12.8 3.6 3.8 9.5 8.8 13.1 11.2s10.1 5.9 14.5 7.8c5.6 2.3 8.1 4 8.3 5.3.2 1.5-1.2 2.5-7.5 5.1-4.3 1.8-10.7 5.1-14.3 7.4s-9.9 7.6-14 11.8c-4.2 4.2-9.5 10.7-11.8 14.6-2.3 3.8-5.3 10-6.7 13.7-2.1 5.7-2.8 6.8-4.7 6.5-1.6-.1-2.8-1.8-5-7.2-1.5-3.9-4.3-9.4-6.1-12.3-1.7-3-5.5-8-8.2-11.3-2.8-3.2-8.1-8.4-12-11.4s-10.1-7-14-8.9c-3.9-1.8-8-3.6-9.3-4-2.2-.6-2.2-.4-2.2 8.1v8.8c12 7.3 19.1 12.3 23.5 15.8s11.5 10.2 15.8 14.8c4.4 4.6 10.6 12.4 13.9 17.4s8.1 13 10.5 18c2.5 5 6 13.5 7.9 19 1.8 5.5 4 13.5 4.8 17.7.9 4.3 1.6 8.7 1.6 9.8s1.2 3.6 2.7 5.5c1.6 2 5.3 5.5 8.3 7.9s8 5.7 11 7.4 8.4 4 12 5.2c3.6 1.3 10.5 2.9 15.5 3.6 5 .8 11.2 1.4 14 1.4 2.7 0 8.1-.7 12-1.5s10.8-3.4 15.5-5.7c6.3-3.1 10.3-6 15.6-11.2 4.9-5 8.1-9.3 10.7-14.6 2.1-4.1 4.4-10 5.2-13 1.2-4.4 1.5-14.1 1.5-49.3 0-28.5-.3-43.7-1-43.7-.5 0-3.1 2.8-5.6 6.2-2.6 3.5-6.5 10.1-8.8 14.8s-4.5 9.5-4.9 10.7c-.5 1.6-1.4 2.2-2.8 2-1.5-.1-2.7-1.9-4.7-6.8-1.5-3.6-4.5-9.7-6.7-13.4-2.2-3.8-7.1-10.1-11-14.1-3.9-3.9-10.4-9.4-14.5-12.1s-10.6-6.1-14.5-7.5c-3.9-1.5-7.3-3.4-7.8-4.2-.4-1-.1-2.2.9-3.1.8-.8 2.1-1.5 2.7-1.5.7 0 4.6-1.6 8.7-3.6s10.2-5.5 13.5-7.8c3.3-2.4 8.9-7.4 12.3-11.2 3.5-3.8 7.9-9.4 9.7-12.4 1.9-3 4.6-8.4 6-12 1.5-3.6 3.2-7.1 3.8-7.8.7-.7 1.9-1 2.7-.7s2.7 3.8 4.2 7.8c1.5 3.9 4.5 9.9 6.7 13.2s5.5 7.8 7.5 10l3.5 4c.1-58.8-.2-67.2-1.4-71.5-.8-3-3-8.7-4.9-12.5-1.9-3.9-5.9-9.7-8.9-13-2.9-3.3-8.3-7.9-11.8-10.2s-10-5.4-14.4-6.8c-5.3-1.8-10.9-2.8-16.5-3.1-5.3-.2-10.9.2-15 1.1zm-250.9 59.8c-2.4 1.2-5.5 3.6-6.9 5.2s-3.1 4.5-3.9 6.2c-1 2.6-1.3 12.3-1.3 44.8 0 39.1.1 41.5 1.8 40.9.9-.4 5.6-2.1 10.4-3.8 4.9-1.7 8.8-3.4 8.8-3.9 0-.4-3.3-1.9-7.2-3.4-4-1.4-7.9-3.1-8.6-3.7-.8-.7-1-1.8-.5-2.9.4-1 2.4-2.3 4.3-2.9s6.4-2.5 10-4.3 9.2-5.3 12.5-7.8 8.1-6.7 10.6-9.3c2.5-2.7 6.6-8 9.1-11.9 2.6-3.9 6-10.4 7.6-14.5 1.7-4.1 3.7-7.6 4.4-7.8s1.8.3 2.4 1c.7.7 2.3 4.2 3.8 7.8 1.4 3.6 4.1 8.9 5.9 11.9 1.7 2.9 6.3 8.7 10.2 12.9 3.9 4.1 10.6 9.8 15 12.7s11.1 6.6 15 8.2c5 2 7.1 3.4 7.3 4.8.2 1.6-1.1 2.6-7.8 5.2-4.4 1.8-8 3.6-8 4 0 .5 4 2.2 8.8 4l10.5 3.7c1.6.6 1.7-1.8 1.7-40.7l.1-41.2c-5.1-9.8-6.8-11.7-11.1-14.3l-5.5-3.2c-94.8 0-95 0-99.4 2.3z" fill="#2649b6"/><path d="M510.9 534.3c-.8 1.7-3.5 6.4-6.1 10.2-2.5 3.9-6.6 9.1-9 11.7-2.4 2.5-6.8 6.6-9.8 9s-8.5 6.1-12.2 8.1c-3.8 2-6.8 4-6.8 4.5 0 .4 2.1 1.8 4.7 3.1 2.7 1.2 7.5 4.2 10.8 6.6 3.3 2.3 9.4 7.8 13.5 12.2 4.5 4.7 9.3 11.2 12 16.1 2.5 4.5 4.7 8.1 5 8.1s2.5-3.6 5-8.1c2.7-4.9 7.5-11.4 12-16.1 4.1-4.4 10.2-9.9 13.5-12.2 3.3-2.4 8.1-5.4 10.8-6.6 2.6-1.3 4.7-2.7 4.7-3.1 0-.5-3-2.5-6.7-4.5-3.8-2.1-9.9-6.3-13.8-9.4-3.9-3.2-8.6-7.7-10.6-10.1-2-2.3-5.4-7-7.5-10.3-2.2-3.3-4.6-7.5-5.4-9.3s-1.8-3.3-2.2-3.2c-.3 0-1.2 1.5-1.9 3.3zM325.3 792.2l-23.7 26.1c-4.2 4.8-8.6 10.6-9.8 13-1.8 3.3-2.3 5.9-2.3 12.2 0 6.9.4 8.7 2.7 13 1.6 2.8 6.4 8.3 11 12.5s12.6 11.2 17.8 15.6c5.2 4.5 13.3 11 18 14.5 4.7 3.6 12.6 9.2 17.5 12.6 5 3.3 14 8.9 20 12.3 6.1 3.5 15.3 8.2 20.5 10.6 5.2 2.3 13.9 5.6 19.3 7.3 5.3 1.7 13.9 3.8 19 4.6 5 .9 9.4 1.3 9.7 1s-5.4-6.1-12.5-12.8c-7.1-6.8-16.6-16.6-21.1-21.8-4.4-5.2-11.2-13.7-15.1-18.9s-10.1-14.4-13.8-20.5c-3.8-6-9.6-16.6-13.1-23.5-3.4-6.9-8-17-10.2-22.5-2.1-5.5-5.4-14.5-7.2-20s-4.5-14.9-6-21c-1.5-6-3.1-11.1-3.7-11.3-.5-.1-8.1 7.5-17 17z" fill="#e2afd9"/><path fill-rule="evenodd" d="M643.5 587.5c7.1.2 17 1.1 22 2s13.5 3.1 19 4.9c5.5 1.9 13.8 5.3 18.5 7.6s12.1 6.6 16.5 9.5 11.1 8.1 15 11.4c3.9 3.4 9.8 9.4 13.3 13.4 3.5 3.9 8.3 10.1 10.7 13.7s6.4 10.3 8.9 15 6.3 13.9 8.5 20.5 4.7 16.3 5.5 21.5c1 5.5 1.6 15.3 1.6 23.5 0 7.7-.7 18-1.5 23s-2.6 13-4 18-5 14-7.9 20c-2.8 6-8.1 15.3-11.6 20.5-3.7 5.3-11.1 14.1-17 20-6.3 6.4-14.3 13.1-20 16.9-5.2 3.5-13.1 8.1-17.5 10.3s-13.2 5.8-19.5 7.9c-6.3 2-16.5 4.5-22.5 5.5-8.5 1.3-14.6 1.5-27 1.1-10.4-.4-19-1.3-24.5-2.5-4.7-1.1-12-3.2-16.3-4.6-4.2-1.4-11.9-4.7-16.9-7.2-5.1-2.5-13.1-7.2-17.7-10.3s-12.7-9.6-17.9-14.6-12.2-12.7-15.6-17.1c-3.3-4.5-8.1-11.7-10.6-16-2.5-4.4-6.1-11.9-8.1-16.9s-4.8-13.7-6.3-19.5c-1.4-5.8-3.1-15.7-3.6-22-.6-6.3-.8-15.3-.5-20s1.5-13.5 2.7-19.5c1.1-6 3.4-14.8 5-19.5 1.7-4.7 5.1-12.5 7.6-17.5 2.4-5 6.6-12.1 9.2-16s7.6-10.3 11.1-14.4 9.8-10.3 13.9-13.8 10.6-8.5 14.5-11.1c3.9-2.5 10.8-6.6 15.5-8.9 4.7-2.4 13.2-5.9 19-7.8 5.8-1.8 14.3-4 19-4.9l12.5-2c2.2-.2 9.9-.2 17-.1zm-275 124.4l4 5.8c2.1 3.2 6 7.9 8.5 10.4s7.4 6.5 11 8.8 7.9 4.7 9.7 5.4c3 1.1 3.2 1.6 4.3 8.7.6 4.1 2.4 12.9 4 19.5s4.4 16.5 6.3 22 5.2 14 7.4 19c2.1 5 6.3 13.3 9.2 18.5 3 5.2 7.2 12.2 9.4 15.5s6.8 9.6 10.1 14 11.4 13.6 18.1 20.4c6.6 6.8 15.6 15.2 20 18.7 4.4 3.6 11.1 8.7 15 11.3 3.9 2.7 11.5 7.4 17 10.6s14.4 7.7 19.7 10.1c5.4 2.4 14.9 6.1 21 8.3 6.2 2.1 16.3 5 22.3 6.4s16.4 3.4 23 4.3c7.8 1.1 18.7 1.7 31 1.7 10.5 0 23.3-.5 28.5-1.2s14.9-2.4 21.5-3.8c6.6-1.3 18.1-4.5 25.5-6.9 7.4-2.5 20.2-7.8 28.5-11.8 8.2-4 20-10.6 26-14.6s14.1-9.8 18-12.8c3.9-3.1 12.7-11.2 19.6-18.1s15-15.7 18.1-19.6c3-3.9 8.8-12 12.8-18s10.3-17.3 14.1-25 8.5-18.5 10.5-24c1.9-5.5 4.8-15.2 6.4-21.5s3.6-15.8 4.5-21c.8-5.2 1.6-9.5 1.8-9.5.1 0 3.3-1.6 7.2-3.5 4.2-2.1 9.8-6.3 14.5-10.6 4.1-4 8.9-9.4 13.5-17.3l25.8-.6-.6 17c-.3 9.6-1.5 23.1-2.7 31-1.2 7.7-3.9 20.8-6 29-2.1 8.3-6.1 21.3-9 29-2.8 7.7-8.4 20.5-12.4 28.5-3.9 8-10.1 19.2-13.6 24.8-3.6 5.7-10.7 16.1-15.9 23-6.3 8.4-15.4 18.7-27 30.3s-21.9 20.7-30.3 27c-6.9 5.2-17.3 12.3-23 15.8-5.6 3.6-15.7 9.2-22.3 12.6s-17.9 8.5-25 11.3-18.6 6.7-25.5 8.7-17.9 4.7-24.5 6c-6.6 1.4-17.9 3.1-25 4-7.6.9-21.5 1.5-33.5 1.5-12.2 0-26-.6-34-1.6-7.4-.8-18.9-2.7-25.5-4-6.6-1.4-16-3.7-21-5.1-5-1.3-14.6-4.5-21.5-7s-18.1-7.2-25-10.5c-6.9-3.2-18.3-9.4-25.4-13.6s-17.9-11.5-24.1-16.2c-6.3-4.7-15.9-12.5-21.6-17.5-5.6-5-14.6-14-20.1-20s-13.7-16-18.3-22-11.3-15.7-15-21.5c-3.6-5.8-9.2-15.7-12.4-22-3.3-6.3-7.9-16.5-10.4-22.5s-6.1-16-8.1-22c-1.9-6-4.5-14.8-5.6-19.5-1.2-4.7-3.2-14.8-4.5-22.5s-2.9-22.1-3.5-32-.9-18.5-.7-19c.3-.6 5.3-.9 25.2-.6zm120.7 14.2c.4-.1 1 5 1.3 11.1.4 6.2 1.6 16 2.7 21.8s3.6 15 5.5 20.5 5.8 14.5 8.6 20c2.9 5.5 7.6 13.4 10.6 17.5 2.9 4.1 8 10.4 11.1 14 3.2 3.6 9.3 9.5 13.7 13.1 4.3 3.7 11.8 9.3 16.8 12.5s12.6 7.5 17 9.5c4.4 2.1 11.6 5 16 6.4 4.4 1.5 12.3 3.6 17.5 4.8 7.9 1.7 13 2.1 29.5 2.2 15.9 0 21.8-.4 28.5-1.9 4.7-1 12.8-3.2 18-4.8 5.2-1.7 13.8-5.1 19-7.7 5.2-2.5 13.5-7.3 18.5-10.5 5.8-3.9 13.5-10.4 21.6-18.5 8.2-8.3 14.7-15.9 18.8-22.1 3.5-5.2 8.3-13.5 10.6-18.5 2.4-5 5.6-12.6 7-17 1.5-4.4 3.6-11.8 4.6-16.5 1.1-4.7 2.3-14.7 2.7-22.3.4-7.5 1-13.7 1.4-13.7.5 0 3.2 1.9 6 4.1 2.9 2.3 8.9 5.9 13.3 8.1 4.4 2.3 12.3 5.1 17.5 6.4 5.2 1.4 10.9 2.4 12.5 2.4s3.7.4 4.5 1c1.3.8 1.3 1.9-.4 9.7-1 4.8-3.8 14.9-6.3 22.3-2.4 7.4-7 18.9-10.2 25.5s-8.7 16.3-12.1 21.5c-3.5 5.2-8.3 12.2-10.9 15.5-2.5 3.3-8.6 10.2-13.6 15.4-4.9 5.2-13 12.8-18 16.9-5 4.2-13.7 10.7-19.5 14.4-5.8 3.8-15.9 9.6-22.5 12.8-6.6 3.3-18.1 7.9-25.5 10.4-7.4 2.4-18.2 5.3-24 6.5-5.8 1.1-14.5 2.5-19.5 3.1-5 .5-14.5 1-21.3 1-6.7 0-16.6-.5-22-1.1-5.3-.5-14.2-1.9-19.7-3s-16.3-4.1-24-6.7c-7.7-2.5-19.6-7.4-26.5-10.8s-17-9.2-22.5-12.9-13.4-9.5-17.5-12.9c-4.1-3.3-11.2-9.9-15.8-14.6-4.7-4.7-11.2-11.9-14.5-16s-8.7-11.5-12-16.5-9-15.1-12.6-22.5c-3.7-7.4-8.4-18.7-10.5-25s-4.8-16.3-6-22.2c-1.6-8.3-1.8-10.8-.9-11.3.7-.3 2.8-.5 4.5-.5 1.8 0 7.1-.9 11.8-2 4.7-1.2 12.6-4.1 17.5-6.5s11.2-6.2 14-8.4c2.7-2.2 5.3-4 5.7-4zM416 746.6l12.3 1.9 1.8 9c1 5 3 13 4.4 18s4.9 14.6 7.8 21.5 8.1 17.6 11.7 23.9c3.6 6.2 10.1 16.1 14.5 22 4.4 5.8 13.1 15.8 19.5 22.2 6.3 6.4 14.6 14.1 18.5 17.1s11.3 8.3 16.5 11.8c5.2 3.4 15.8 9.4 23.5 13.1 7.7 3.8 20.1 8.9 27.5 11.3s18.2 5.3 24 6.5c5.8 1.1 15.7 2.5 22 3.2 7 .7 17.7 1 27.5.6 8.8-.3 20.3-1.3 25.5-2.2s14.5-2.9 20.5-4.4c6-1.6 15.5-4.6 21-6.6 5.5-2.1 14.5-6 20-8.8 5.5-2.7 13.8-7.3 18.5-10.2s12.8-8.6 18-12.6 14-11.9 19.6-17.4c5.5-5.5 12.9-13.6 16.4-18s9-12 12.3-17c3.2-5 8.5-14.2 11.7-20.5s7.4-16 9.5-21.5 5.3-16 7.1-23.3c1.9-7.2 3.4-14.2 3.4-15.4 0-2.1.7-2.4 8.2-3.5 4.6-.6 8.5-.9 8.8-.7.3.3-.3 5.1-1.4 10.7-1 5.6-3.2 14.9-4.8 20.7-1.7 5.8-4.9 15.2-7.1 21s-6.6 15.5-9.7 21.5-8.1 14.8-11.2 19.5c-3 4.7-8.8 12.8-12.9 18-4 5.2-12.3 14.5-18.4 20.5-6 6-16.4 15.1-23 20-6.6 5-16.3 11.6-21.5 14.7s-13.8 7.7-19 10.1c-5.2 2.5-14 6.1-19.5 8.2-5.5 2-15 5-21 6.6-6 1.5-15 3.5-20 4.3-5 .9-15.3 2-23 2.7-7.7.6-19 .8-25 .4-6-.3-16-1.3-22-2-6-.8-16.4-2.8-23-4.4s-16.7-4.6-22.5-6.6-16.8-6.7-24.5-10.4c-7.7-3.8-18.7-10-24.5-13.8s-14.1-9.8-18.5-13.4c-4.4-3.5-11.5-9.7-15.9-13.9-4.3-4.1-11.4-11.8-15.8-17s-11.5-14.7-15.7-21-10.2-16.5-13.3-22.5-7.3-15.3-9.3-20.5c-2.1-5.2-5-13.8-6.6-19s-3.7-14-4.8-19.5-2.1-11.2-2.3-12.8c-.3-2.7-.2-2.7 4.2-2.1z" fill="#e8ca1d"/><path d="M886.9 534.3c-.8 1.7-3.1 5.9-5.3 9.2-2.1 3.3-5.5 8-7.5 10.3-2 2.4-6.7 6.9-10.6 10.1-3.9 3.1-10 7.3-13.7 9.4-3.8 2-6.8 4-6.8 4.5 0 .4 2.1 1.8 4.7 3.1 2.7 1.2 7.5 4.2 10.8 6.6 3.3 2.3 9.4 7.8 13.5 12.2 4.5 4.7 9.3 11.2 12 16.1 2.5 4.5 4.7 8.1 5 8.1s2.4-3.4 4.7-7.7c2.4-4.2 7.4-11.2 11.3-15.4l7-7.8v-30.5c-7.9-8.5-12.3-14.1-14.9-18-2.5-3.8-5.3-8.5-6.1-10.3s-1.8-3.3-2.2-3.2c-.3 0-1.2 1.5-1.9 3.3zm31.5 62.4c-.4.4-.7 21.6-.6 47.2.2 37.7-.1 47.7-1.2 52.1l-2 7.3c-.6 1.6.5 1.7 12.2 1.7 7 0 13.4.5 14.2 1 1.3.8 1.4 3.7.8 20.7-.4 10.9-1.4 24.2-2.2 29.6L938 766l30.3 31c.4 0 4.7-5.1 9.5-11.2 4.9-6.2 11.4-14.7 14.4-18.8s9.8-14 15-22c5.3-8 13.2-20.8 17.7-28.5s11-19.5 14.4-26.3c6-12 6.2-12.6 6.2-20-.1-5.5-.7-9-2.1-12.2-1.1-2.5-3.3-6.2-5-8.3-1.6-2.2-4.9-5.2-7.4-6.7-2.5-1.6-13-6.7-23.5-11.3s-30.9-13.2-45.5-19l-34.7-13.6c-4.5-1.6-8.5-2.7-8.9-2.4z" fill="#1995c9"/><path d="M541.9 390.7c-1.5 2.5-2.3 5.3-2.3 8.7-.1 3.2.7 6.6 1.9 9 1.1 2.2 3.6 5 5.5 6.3s5.3 2.6 7.5 2.9l4 .6c1.2-7.5 1.5-10.9 1.5-12.4 0-2.1-2-5-7.2-10.8-4-4.4-7.6-8-8-8s-1.7 1.7-2.9 3.7zm185 4.5c-6.6 7.2-7.4 8.5-7.1 11.7a97.11 97.11 0 0 0 .7 7.4c.4 3.2.9 3.7 3 3.7 1.4 0 3.7-.5 5.3-1.1 1.5-.5 4-2.2 5.5-3.7 1.6-1.5 3.5-3.9 4.3-5.4.8-1.6 1.4-5 1.4-7.8 0-3-.8-6.6-2-9-1.1-2.2-2.4-4-2.9-4s-4.2 3.7-8.2 8.2zm-218.8 3.7c-2.4 1-5.4 3.4-6.7 5.2-1.3 1.9-2.7 5.2-3 7.4-.4 2.2-.4 5.7 0 7.8.3 2.1 2 5.2 3.9 7.3 1.7 2 4.4 4.3 6 5 1.5.8 5 1.4 7.7 1.4 2.8 0 6.2-.6 7.8-1.4 1.5-.8 3.9-2.7 5.4-4.3 1.5-1.5 3.2-4 3.7-5.5.6-1.6 1.1-4.6 1.1-6.8s-.9-5.7-1.9-7.7c-1-2.1-2.7-4.6-3.7-5.5-1.1-.9-3.6-2.4-5.6-3.2-2.1-.9-5.3-1.6-7-1.6-1.8 0-5.3.9-7.7 1.9zm248.4-.2c-1.6.8-4.1 2.5-5.4 3.7-1.3 1.1-3 3.6-3.7 5.4-.8 1.7-1.4 5.3-1.4 8q0 4.7 2.4 8.7c1.3 2.2 4.1 5 6.2 6.2 2.6 1.5 5.6 2.2 8.9 2.3 2.8 0 6.5-.8 8.4-1.8 1.9-.9 4.7-3.3 6.3-5.2 1.8-2.2 3.1-5.2 3.5-8 .3-2.5.1-6.1-.5-8s-2.2-4.8-3.4-6.4c-1.3-1.6-4.1-3.8-6.3-4.8-2.2-.9-5.8-1.7-8-1.7s-5.3.7-7 1.6zm-288.2 20.2c-1.8 1-4.4 3.4-5.7 5.3-1.4 1.8-2.8 5.3-3.2 7.8l-.6 4.5c7.5 2.9 14 5.9 19.2 8.6l9.5 4.8c3.7-3.4 5.4-5.9 6.1-7.6.8-1.8 1.4-5.3 1.4-7.8s-.9-6.3-2-8.5-3.5-5-5.2-6.2c-2.4-1.7-5.1-2.4-9.8-2.6-5.1-.2-7.2.1-9.7 1.7zm326.2-.3c-1.6.8-3.8 2.3-4.9 3.2-1 .9-2.4 2.8-3.1 4.2s-1.6 4.1-1.9 6-.1 5.2.4 7.3c.6 2 2.4 5.3 4 7.2l3 3.5c22.1-10.7 28.6-14.2 28.8-14.7.2-.4-.2-2.7-.7-5-.6-2.4-2.3-5.7-3.8-7.5-1.6-1.7-4.3-3.7-6-4.5-1.8-.7-5.4-1.3-8-1.3-2.7 0-6.1.7-7.8 1.6z" fill="#f0dfa6"/><path d="M636.7 281.2c-.8 1.3-7.7 13.3-15.2 26.8l-13.9 24.7c-.1.1-13.6 2.9-30.1 6.3l-30.8 6.6c-.4.2-.7 1.2-.7 2.2 0 .9 9.2 11.8 20.5 24.2 12.7 13.9 20.5 23.3 20.4 24.5 0 1.1-1.5 14.8-3.3 30.5s-3.1 29.1-2.9 29.8c.2.6 1.2 1.2 2.3 1.2s14.4-5.6 29.5-12.5L640 433l56.5 25c.8 0 1.8-.8 2.2-1.7.3-1-.8-14.4-2.5-29.8l-3.2-30.2c0-1.6 6.5-9.4 20.5-24.5 11.3-12.3 20.5-23.1 20.5-24 0-1-.3-2-.8-2.2-.4-.2-14.2-3.2-30.7-6.6-16.5-3.3-30.3-6.6-30.7-7.3L656.6 305c-10.5-18.5-15-25.6-16.4-25.8-1.2-.2-2.6.6-3.5 2zm-17.2 333.4c-4.4.8-11.6 2.6-16 4.1-4.4 1.4-11.8 4.5-16.5 6.8-4.7 2.4-11.7 6.5-15.5 9.3-3.9 2.7-10.2 8-14 11.8-3.9 3.8-9.3 10.1-12.2 13.9-2.9 3.9-7.2 10.8-9.7 15.5s-5.8 12.5-7.5 17.5-3.8 13.5-4.7 19c-1.2 7.3-1.5 13.5-1.1 23 .4 9 1.3 15.9 3 22.5 1.3 5.2 3.9 13.1 5.7 17.5 1.7 4.4 4.9 10.9 7 14.5 2 3.6 6.4 9.9 9.7 14s8.8 10.1 12.4 13.4c3.5 3.2 9.5 8 13.4 10.6 3.8 2.6 9.8 6.1 13.2 7.9 3.5 1.7 9.3 4.2 13 5.6 3.8 1.4 11.3 3.5 16.8 4.7 7.1 1.5 13.7 2.1 23 2.1 8.4 0 16.2-.6 22-1.7 4.9-1 12.8-3.2 17.5-4.8 4.7-1.7 10.7-4.2 13.5-5.5 2.7-1.4 8.8-5.1 13.5-8.2s12.3-9.4 17-14.1 11.1-12.3 14.2-17 7.5-12.3 9.7-17 5.1-12.8 6.5-18 3.1-14.5 3.8-20.5c.9-8.4.9-13.6 0-22-.6-6-2.3-15-3.7-20-1.5-5-4.1-12.4-5.9-16.5-1.7-4.1-5.8-11.4-8.9-16.2-3.1-4.9-9.2-12.5-13.5-17-4.2-4.4-11.1-10.6-15.2-13.7s-11.1-7.5-15.5-9.8-12.1-5.5-17-7.2c-5-1.6-13.1-3.7-18-4.6-5-.8-14.1-1.5-20.5-1.4-6.3 0-15.1.7-19.5 1.5z"/><path d="M625.5 313.1c-7.7 13.7-14.7 25.1-15.5 25.3-.8.3-13.2 2.8-27.5 5.7l-26.7 5.8c-.5.3 7.8 9.9 18.2 21.3 16.6 18.2 19 21.2 19 24 0 1.8-1.3 14.5-3 28.3-1.6 13.7-2.6 25.3-2.2 25.6.4.4 11.9-4.4 25.7-10.7S639.2 427 640 427s12.8 5.2 26.5 11.4c13.8 6.3 25.2 11.3 25.5 11.1s-.7-11.3-2.2-24.7l-3.2-28.1c-.6-3.7-.4-3.9 18.4-24.5 10.4-11.4 19-21.2 19-21.7 0-.6-12.2-3.5-27.1-6.5l-27.9-6c-.5-.3-7-11.3-14.5-24.5l-14.3-24.7c-.4-.3-7 10.6-14.7 24.3zM620 620.5c-4.1.8-11.5 2.8-16.5 4.6-5 1.7-11.2 4.3-14 5.7-2.7 1.3-8.4 4.7-12.5 7.5s-11.4 8.9-16.1 13.6c-5.1 5-11.2 12.5-14.8 18.1-3.4 5.2-7.5 12.9-9.2 17-1.8 4.1-4.2 11.8-5.6 17-1.5 6.1-2.6 13.9-3 21.5-.4 8.8-.2 14.6 1.1 22 .9 5.5 2.9 13.8 4.5 18.5 1.5 4.7 4.4 11.6 6.4 15.5 1.9 3.9 5.7 10.1 8.5 14 2.7 3.9 8.2 10.3 12.3 14.3s10.1 9.2 13.4 11.7 10 6.5 15 9c5 2.4 11.7 5.3 15 6.4 3.3 1 9.6 2.7 14 3.6 5.1 1.1 12.7 1.7 21 1.8 7.1 0 15.9-.6 19.5-1.2 3.6-.7 10.1-2.4 14.5-3.8s11.4-4.2 15.5-6.2 10.4-5.7 14-8.1 10.3-8 14.9-12.5c5.3-5.1 10.9-11.8 15.3-18.5 4.1-6.3 8.4-14.5 10.7-20.5 2.2-5.5 4.6-13.6 5.5-18s1.9-12.5 2.2-18c.4-6.7.1-13.3-.9-20-.9-5.5-2.8-13.8-4.3-18.5-1.4-4.7-4.2-11.6-6.1-15.5-2-3.9-5.6-10.1-8.2-14-2.5-3.9-8.4-10.8-13.1-15.6-4.7-4.7-12.3-11-17-14.2-4.7-3.1-12.3-7.3-17-9.3s-12.8-4.8-18-6.1c-7.5-2-12.7-2.6-24.5-2.9-10.2-.2-17.4.1-22.5 1.1z" fill="#e8ca1d"/><path d="M660.6 293.3c-5.7 6.3-6.4 7.5-5.4 9.2.6 1.1 4.7 8.3 9.1 16l8 14.2c.1.1 5.8 1.4 12.7 2.8l12.7 2.5c.2 0 3.6-3.6 7.5-8 4-4.4 6.9-8.4 6.4-8.8-.4-.4-6.3-1.8-13-3.1-6.6-1.2-12.7-2.8-13.4-3.5-.8-.6-4.6-7.3-8.6-14.9-4-7.5-7.8-13.7-8.4-13.7s-4 3.3-7.6 7.2zM513.7 332c-4.2.9-7.7 2-7.7 2.6 0 .5 1.7 2.7 3.7 4.8l3.8 3.8c8.1-9 10.4-11.9 10.5-12.4 0-.4-.6-.6-1.3-.6-.6.1-4.7.9-9 1.8zm192.6 104.7l-7.8 8.6c.7 9.7.4 11.6-.6 12.2-.9.5-2.9.3-5.2-.5l-3.9-1.4c-9.9 10.5-12.7 14-12.6 14.6.2.6 10.7 5.8 23.3 11.5s23.1 10.3 23.3 10.1c.1-.1-1.1-12.8-2.8-28.2l-3.4-31.8c-.2-2-.9-3.7-1.4-3.7-.6 0-4.6 3.9-8.9 8.6zm-136.5-45.9l-6.6 6.8c3.6 4.9 3.5 6-.7 43l-4.9 41.7c-.4 2.7-.2 3.8.6 3.8.7.1 3.1-1.8 5.2-4.2l12.3-13.1c4.6-4.8 8.3-9.2 8.3-9.7 0-.6-.7-1-1.5-1s-1.6-.6-1.8-1.3c-.2-.6 1.1-14.8 3-31.5l3.3-30.2c-7.4-8.6-9.7-11.1-10-11-.3 0-3.5 3-7.2 6.7z" fill="#f9e25c"/><path d="M756.5 398.7c-1.6.8-4.1 2.5-5.4 3.7-1.3 1.1-3 3.6-3.7 5.4-.8 1.7-1.4 5.3-1.4 8q0 4.7 2.4 8.7c1.3 2.2 4.1 5 6.2 6.2 2.6 1.5 5.6 2.2 8.9 2.3 2.8 0 6.5-.8 8.4-1.8 1.9-.9 4.7-3.3 6.3-5.2 1.8-2.2 3.1-5.2 3.5-8 .3-2.5.1-6.1-.5-8s-2.2-4.8-3.4-6.4c-1.3-1.6-4.1-3.8-6.3-4.8-2.2-.9-5.8-1.7-8-1.7s-5.4.7-7 1.6zm-202.6 10.8c-3.6 3.7-5.1 5.8-4.4 6.5.5.6 2.9 1.4 5.2 1.8l4.1.7c1.2-10.5 1.3-13.8 1-14-.2-.3-2.9 2-5.9 5zm179.1.4c-2.9 3.2-5.2 6.1-5.1 6.5 0 .3.6.6 1.1.6s2.6-1.5 4.6-3.2c2-1.8 4.3-4.5 5-6 .8-1.6 1.4-3 1.4-3.3s-.4-.5-.9-.5-3.3 2.6-6.1 5.9zm61.5 8.7c-1.6.8-3.8 2.3-4.9 3.2-1 .9-2.3 2.6-2.9 3.7-.5 1.1-1.4 3.2-1.9 4.8-.6 1.9-.5 2.7.5 2.7.6 0 4.5-3.6 8.4-8 4.9-5.4 6.7-8 5.5-8-.9 0-3.1.7-4.7 1.6z" fill="#f8efd3"/><path fill-rule="evenodd" d="M649.5 306.3c.5.2 4.7 6.8 9.3 14.8l9 15.7c.4.7 5 2.2 10.2 3.3l11.3 2.4c.9.3 1.7.9 1.7 1.5s-21.3 23.8-47.4 51.7c-36.8 39.4-48.3 51.2-51.5 52.5-2.3 1-4.3 1.5-4.5 1-.2-.4.9-12 2.5-25.7l2.9-28.3c0-2.5-1.2-4.5-12-16.2l5.2-5.9 33.8-36.4c15.7-16.9 29-30.5 29.5-30.4zm-304.4 405c.9 0 1.6.6 1.7 1.4.1.7-.5 1.6-1.3 2-.8.5-1.9.5-2.3.1s-.4-1.4-.1-2.1c.3-.8 1.2-1.4 2-1.4zM931.7 761c.9 0 1.1 1 .7 3.2-.3 1.8-1.7 8.5-3.1 14.8s-3.8 15.9-5.4 21.2c-1.6 5.4-5.1 15.5-7.9 22.5-2.7 7.1-7.8 18.4-11.3 25.3s-9.2 17.2-12.8 22.8c-3.5 5.7-10.6 16.1-15.8 23-6.3 8.4-15.4 18.7-27 30.3s-21.9 20.7-30.3 27c-6.9 5.2-17.3 12.3-23 15.8-5.6 3.6-15.7 9.2-22.3 12.6s-17.9 8.5-25 11.3c-7.2 2.8-18.4 6.6-25 8.5l-14.8 4.1c-2 .4-2.6.2-2.5-.8.2-.8 50.7-55.5 112.3-121.5L931.7 761zM471.3 880.9l8.1 7.8c4.5 4.3 11.7 10.6 16.1 13.9s10 7.4 12.5 9.1 9 5.6 14.5 8.8c5.5 3.1 14.4 7.7 19.7 10.1 5.4 2.4 14.9 6.1 21 8.3 6.2 2.1 16.2 5 22.3 6.4 6 1.4 16.4 3.4 23 4.3 6.7.9 19.5 1.7 28.8 1.8 12.5.1 16.7.4 16.5 1.3-.2.7-11.8 13.6-51.3 56.5l-5-.7c-2.8-.4-10.4-1.8-17-3.2-6.6-1.3-16.1-3.6-21-5-5-1.3-14.6-4.5-21.5-7s-18.1-7.2-25-10.5c-6.9-3.2-18.3-9.4-25.4-13.6s-17.9-11.5-24.2-16.2c-6.2-4.7-16-12.8-21.9-18-5.8-5.2-10.6-9.8-10.6-10.3-.1-.4 9-10.4 20.1-22.2zm165.5-293.8c3.4-.1 6.3.1 6.3.6 0 .4-5.5 6.7-12.3 14-10.9 11.7-12.7 13.3-16.2 13.8-2.2.4-7.6 1.9-12 3.4s-11.6 4.5-16 6.8c-4.4 2.2-11.2 6.2-15 9-3.9 2.7-10.2 8-14 11.8-3.9 3.9-9.4 10.1-12.3 13.9-2.9 3.9-7.7 12-10.7 18-3 6.1-6.6 14.8-7.9 19.5s-2.7 11-3.1 14c-.5 4.7-1.2 6.2-4.8 10-2.3 2.5-7.8 8.3-12.2 12.8-4.4 4.6-8.4 8.3-8.8 8.3-.4-.1-1-2.7-1.3-5.8-.3-3.2-.3-9.6 0-14.3.4-4.7 1.6-13.4 2.7-19.5 1.1-6 3.4-14.8 5.1-19.5 1.6-4.7 5-12.5 7.5-17.5 2.5-4.9 6.7-12.1 9.2-16 2.6-3.8 7.6-10.3 11.2-14.4 3.5-4.1 9.7-10.3 13.9-13.8 4.1-3.5 10.6-8.5 14.5-11.1 3.8-2.5 10.8-6.6 15.5-8.9 4.6-2.4 13.2-5.9 19-7.7 5.7-1.9 14.3-4.1 19-5 4.6-.8 10.3-1.7 12.5-1.9s6.8-.4 10.2-.5zm85 25.8c.1 0 2.8 2 6 4.4 3.2 2.3 8.7 7.2 12.3 10.7s9 9.6 12.1 13.4c3.1 3.9 7.4 9.9 9.6 13.5s5.4 9.4 7.2 13 5 11.7 7.1 18 4.5 15.8 5.4 21c.9 5.6 1.6 15.3 1.6 23.5 0 7.7-.7 18.1-1.5 23-.8 5-2.6 13.1-4.1 18-1.4 5-4.9 14-7.8 20-2.9 6.1-8.1 15.3-11.7 20.5-3.6 5.3-11 14.1-16.9 20-6.4 6.4-14.3 13.1-20 16.9-5.3 3.5-13.1 8.1-17.5 10.4-4.4 2.2-13.2 5.7-19.5 7.8-6.4 2.1-16.5 4.5-22.5 5.5-8.6 1.3-14.7 1.5-27 1.1-10.4-.4-19-1.3-24.5-2.5-4.7-1.1-12-3.2-16.3-4.6s-11.9-4.7-17-7.2-13.1-7.1-17.7-10.3c-4.7-3.1-13.6-10.5-19.9-16.6-6.2-6-11.2-11.5-11-12.1s4.1-5 16.9-18.4l10.2 10.3c5.6 5.7 13.6 12.6 17.8 15.4 4.1 2.8 10.3 6.4 13.7 8.2 3.4 1.7 9.3 4.3 13 5.6 3.7 1.4 11.3 3.5 16.8 4.7 7.1 1.5 13.7 2.1 23 2.1 8.3 0 16.2-.6 22-1.7 4.9-1 12.8-3.1 17.5-4.8 4.6-1.7 10.7-4.1 13.5-5.5 2.7-1.4 8.8-5.1 13.4-8.2 4.7-3.1 12.4-9.4 17.1-14.1s11.1-12.3 14.2-17 7.4-12.3 9.6-17 5.2-12.8 6.6-18 3.1-14.4 3.7-20.5c.9-8.3.9-13.6.1-22-.7-6-2.4-15-3.8-20-1.4-4.9-4-12.4-5.8-16.5s-5.8-11.4-8.9-16.2c-3.2-4.9-9.5-12.7-14-17.4s-11.1-10.7-20.7-17.9l2.7-3 8.7-9.2c3.3-3.5 6.1-6.3 6.3-6.3zM607.3 624c1-.1 1.6.3 1.5.8s-17.3 19.2-38.2 41.5l-38.8 40.6c-.4 0-.5-1.7-.1-3.7.3-2.1 1.9-7.4 3.4-11.8 1.6-4.4 5.2-11.8 8-16.5s7-10.9 9.3-13.9c2.3-2.9 7.2-8.2 10.9-11.7s10-8.6 14-11.2c4-2.7 9.3-5.9 11.8-7.2 2.4-1.3 7.2-3.3 10.5-4.6s6.7-2.3 7.7-2.3zm93.7 12.9c.8.4 4.9 3.4 9.1 6.7 4.1 3.2 10.4 9.2 13.9 13.4 3.5 4.1 7.9 9.7 9.6 12.4 1.8 2.8 4.8 8.2 6.7 12 1.9 3.9 4.7 10.8 6.2 15.5s3.4 13 4.2 18.5c1 6.7 1.4 13.3 1 20-.3 5.5-1.3 13.6-2.2 18s-3.4 12.5-5.5 18c-2.2 5.5-6.7 14.3-10.1 19.5-3.3 5.2-9.3 12.8-13.2 16.8-3.9 4.1-9.4 9.1-12.1 11.2-2.8 2.1-8 5.6-11.5 7.8-3.6 2.2-9.4 5.1-12.8 6.6-3.4 1.4-10 3.7-14.5 5-4.5 1.4-13.2 2.9-19.2 3.6-8 .8-13.8.8-21 0-5.5-.6-13.6-2-18-3.1-4.4-1.2-11.9-3.7-16.5-5.8-4.7-2-11.7-5.7-15.5-8.2-3.9-2.6-9.7-7-13-9.9s-8.4-8-11.3-11.4c-2.9-3.3-5.2-6.4-5-6.9.1-.4 33.7-36.7 74.7-80.6 57.8-62.1 74.7-79.7 76-79.1zM489.2 726c.4-.1 1.1 5.6 2.4 25l-21 22.5c-11.6 12.4-21.4 22.5-21.8 22.4-.4 0-2-3.5-3.6-7.7-1.6-4.3-3.9-10.9-5-14.8-1.1-3.8-2.9-11.1-3.9-16.2-1.4-7.2-1.5-9.3-.5-9.8.7-.3 2.7-.5 4.5-.5s7.1-.9 11.8-2c4.6-1.1 12.5-4.1 17.5-6.5 4.9-2.4 11.2-6.2 14-8.4 2.7-2.2 5.3-4 5.6-4zm301-.1c.5 0 3.2 1.9 6.1 4.1 2.9 2.3 8.9 6 13.3 8.2s12.2 5 17.5 6.4c5.2 1.3 10.9 2.3 12.7 2.3s3.1.4 3 .9-33.8 37.3-74.7 81.8L690.6 914c-2.7 3.1-4 3.7-11.5 5.2-4.7.9-12.6 2.1-17.5 2.7-5 .5-14.6 1-21.3 1s-16.6-.5-22-1.1c-5.4-.5-14.2-1.9-19.7-3s-16.3-4.1-24-6.7c-7.7-2.5-19.7-7.4-26.5-10.8-6.9-3.4-17-9.2-22.5-12.9s-13.2-9.4-17-12.6c-3.9-3.2-9.5-8-18-15.7l11-11.8 22-23.7 5.5 6.3c3 3.4 9.1 9.3 13.5 13s12 9.4 17 12.6c4.9 3.2 12.6 7.5 17 9.5 4.4 2.1 11.6 5 16 6.4 4.4 1.5 12.2 3.6 17.5 4.8 7.8 1.7 12.9 2.1 29.5 2.2 15.8 0 21.7-.4 28.5-1.8 4.6-1.1 12.7-3.2 18-4.9 5.2-1.6 13.7-5.1 19-7.7 5.2-2.5 13.5-7.3 18.5-10.5 5.8-3.9 13.4-10.4 21.5-18.5 8.3-8.3 14.8-15.9 18.9-22.1 3.5-5.2 8.2-13.5 10.6-18.5 2.4-4.9 5.5-12.6 7-17s3.5-11.8 4.6-16.5 2.2-14.6 2.5-22.2c.4-7.6 1-13.8 1.5-13.8zm-368.1 21.5c3 .4 5.8.9 6.2 1.1s.8 1.5.8 2.9 1.5 8.5 3.3 15.8c1.9 7.2 5.3 18.2 11.9 35.2l-6.2 6c-5 4.9-6.3 5.7-7.1 4.5-.5-.8-2.8-6.2-5.1-12-2.2-5.8-5.4-14.8-6.9-20-1.6-5.2-3.8-13.9-6.9-29l2.2-2.6c2.1-2.4 2.7-2.5 7.8-1.9zm-15.8 11.7c.5.2 2.4 6.2 4.2 13.3 1.8 7.2 4.5 16.4 6 20.5 1.4 4.1 4.5 11.9 11.1 27.1l-4.7 4.7-20.9 22.2c-8.9 9.6-16.7 17.5-17.3 17.5-.5 0-3.4-4.5-6.3-10s-7.3-14.5-9.7-20-5.6-13.5-9.6-25.5l23.2-25c12.7-13.8 23.6-24.9 24-24.8zM487 864.9c.3.1 3.3 2.7 6.6 5.8s9.1 8.2 13 11.3c3.8 3.1 11.2 8.4 16.5 11.9 5.2 3.4 15.8 9.4 23.5 13.1 7.7 3.8 20 8.9 27.5 11.3 7.4 2.5 18.4 5.4 24.5 6.5 6 1.2 15 2.5 20 3.1 4.9.5 14.6 1 21.5 1 6.8 0 16.5-.5 21.5-1l12.2-1.5c1.8-.3 3.3-.1 3.3.5s-3.3 4.8-14.5 17.7l-12.5.7c-7 .4-18.5.3-26-.3s-17.6-1.8-22.5-2.6c-5-.9-13.3-2.7-18.5-4-5.3-1.3-14.3-4-20-6-5.8-2-16.8-6.7-24.5-10.4-7.7-3.8-18.8-10-24.5-13.8-5.8-3.8-13.9-9.6-18-12.9-4.2-3.3-10.6-8.9-21.1-18.9l5.7-5.7c3.2-3.2 6-5.8 6.3-5.8z" fill="#f4e52c"/></svg>