<svg xmlns="http://www.w3.org/2000/svg" width="1280" height="1280" xmlns:v="https://vecta.io/nano"><path d="M597.5 174.1c-7.7.5-22.1 1.8-32 3-9.9 1.1-24.1 3.2-31.5 4.5-7.4 1.4-19.8 4.1-27.5 6.1-7.7 1.9-18.5 5.1-24 7s-12.9 5-16.5 6.8-8.8 5.3-11.5 7.7c-2.8 2.5-6.5 6.7-8.2 9.4-1.8 2.7-4.2 7.3-5.3 10.2-1.1 2.8-2.4 8-2.9 11.5-.6 3.8-.6 8.8 0 13 .7 5.1 5.9 19 22.4 59.5l21.5 53.7c-.1.6-6 7.1-13.3 14.5s-16.8 18.2-21.1 24-10.9 15.7-14.6 22c-3.8 6.3-8.2 14.5-9.9 18.3L420 452l-72-25c-41.5-14.3-50.7-17.2-57-17.7-5.3-.4-9.3-.1-13.7 1.1-3.5.9-8.7 2.8-11.5 4.2-2.9 1.5-8 5.4-11.4 8.8-3.3 3.4-9.4 11.3-13.6 17.6s-10.4 16.9-13.7 23.5c-3.4 6.6-7.9 16.5-10 22-2.2 5.5-5.5 15.2-7.4 21.5s-4.4 16-5.6 21.5c-1.1 5.5-2.8 15.6-3.7 22.5-1 7.7-1.7 19.6-1.7 31 0 10.2.5 22.3 1.2 27 .6 4.7 2.1 13.2 3.2 19 1.2 5.8 4.1 16.6 6.5 24s7.8 20.3 11.9 28.5c4 8.3 10.5 19.6 14.2 25.1 3.7 5.6 10.6 14.8 15.3 20.5 4.7 5.6 11.2 12.6 14.5 15.6s9.1 7 13 8.9c4 1.9 9.9 3.8 13.8 4.4a43.01 43.01 0 0 0 13.4 0c5.6-.9 19.1-6.7 73.8-31.5l67.8-30.5c.4 0 3.3 3.3 6.5 7.2 3.1 4 9.8 11.6 14.9 16.8s9.2 9.8 9.3 10.2c0 .5-8.6 25.4-19.1 55.5l-21.1 60.8c-1.6 4.6-2.3 5.7-3 4.5-.7-1.1-.8-.9-.5 1 .3 1.4-.8 6.5-2.5 11.5-2.3 6.8-3.3 8.6-4 7.5s-.8-.9-.5 1c.4 1.6-3.1 12.9-10.1 32.8-6.8 19.3-11 29.8-11.5 29-.6-.8-.7-.3-.4 1.2.3 1.4-.8 6.5-2.5 11.5-2.3 6.8-3.3 8.6-4 7.5s-.8-.9-.5 1c.3 1.4-.8 6.5-2.5 11.5-2.3 6.8-3.3 8.6-4 7.5s-.8-.9-.5 1c.3 1.4-.6 5.6-1.9 9.5s-2.9 9.7-3.4 13c-.6 3.8-.6 8.4 0 12.8.6 3.7 2 9.1 3.2 12 1.3 2.8 3.8 7.2 5.7 9.7s2.7 3.8 1.7 3c-.9-.8-1.7-1-1.7-.5.1.5 2 2.9 4.3 5.2 2.4 2.4 4.7 4.3 5.3 4.3s-.1-1.2-1.5-2.7c-1.3-1.6-.4-.8 2.2 1.7s4.6 4.9 4.5 5.4.5 1.1 1.3 1.4c1.1.5 1.3.2.6-.8-.5-.8.3-.4 1.7 1 1.5 1.4 2.5 2.9 2.4 3.4s.5 1.1 1.3 1.4c1.1.5 1.3.2.6-.8-.8-1.2-.7-1.2.7 0 1 .8 1.5 1.7 1.2 2s.1 1.1.8 1.8c.6.7 1.6 1.3 2.2 1.3s.3-.8-.5-1.8c-.8-.9 1.1.2 4.3 2.5 3.1 2.3 5.6 4.7 5.5 5.3-.2.6.4 1.4 1.2 1.7 1.1.5 1.3.2.6-.8-.6-.9-.6-1.2 0-.7.5.5.9 1.4.9 1.9 0 .6.7 1.4 1.5 1.7 1.1.4 1.3.1.6-.9-.6-.9-.6-1.2 0-.7.5.5.9 1.4.9 1.9 0 .6.7 1.4 1.5 1.7 1.1.4 1.3.1.6-.9-.6-.9-.6-1.2 0-.7.5.5.9 1.4.9 1.9 0 .6.7 1.4 1.5 1.7 1.1.4 1.3.1.6-.9-.6-.9-.6-1.2 0-.7.5.5.9 1.4.9 1.9 0 .6.7 1.4 1.5 1.7q1.5.5.8-.7c-.6-.9-.3-.9 1.2-.2 1.1.5 1.9 1.5 1.8 2.1-.2.6.4 1.4 1.2 1.7q1.5.6.8-.6c-.6-.9-.3-.9 1.2-.2 1.1.5 1.9 1.5 1.8 2.1-.2.6.4 1.4 1.2 1.7q1.5.6.8-.6c-.6-.9-.3-.9 1.2-.2 1.2.6 1.7 1.5 1.3 2.2-.6.9-.3 1 1 .5 1-.4 1.5-.3 1.2.3-.3.5.9 1.7 2.5 2.5s3.2 1.5 3.5 1.5.3-.5 0-1 1.1-.2 3 .8c1.9.9 3 1.9 2.5 2.2s.6 1.3 2.5 2.3c1.9.9 4.1 1.7 4.8 1.7q1.2 0-.3-1c-.8-.5-1.2-1-.7-1 .4 0 1.8.6 3.2 1.3q2.5 1.2 1.3 1.8c-.7.4 3.9 2.5 10.2 4.8 6.3 2.4 16.7 5.5 23 7.1 6.3 1.5 15.8 3.3 21 4 6 .8 11.7 1 15.5.5 4.7-.6 5.4-1 3.5-1.5-2.5-.6-2.5-.6.5-1.3 1.6-.3 4.1-.4 5.5-.1 2 .5 2.2.3 1-.5-1.3-1-1.3-1.1 0-1.2l3-.4c.8-.1 2.1-.3 2.8-.4.6 0 1-.6.7-1.1s1-1.9 2.8-2.9c1.7-1.1 5.6-4.4 8.5-7.5 2.8-3.1 6.5-8.4 8.1-11.8 1.7-3.5 7.1-20.7 12.2-38.3 6.8-23.5 9.5-31.5 10.1-30s.7 1.2.4-1c-.3-1.9 3.6-16.9 11.2-42.8 8-27.3 11.9-39.3 12.5-38q.7 1.8.3-1.2c-.3-1.6.4-6.1 1.5-10s2.3-7.7 2.6-8.5c.4-1 .8-.5 1.4 1.5.4 1.6.6 4.4.3 6-.3 2.2-.2 2.5.4 1s3.2 6.2 9.9 29.5c5.9 20.1 9 32.6 8.7 34.5-.3 2.2-.2 2.5.4 1s3.2 6.3 9.9 29.5c5.9 20.1 9 32.6 8.7 34.5-.3 2.3-.2 2.5.4 1 .7-1.6 1.3-.5 2.9 5.5 1.2 4.1 2 8.8 1.7 10.5-.3 2.3-.2 2.5.4 1 .7-1.6 1.2-.7 2.6 4.5 1 3.6 2.7 8.2 3.7 10.3 1.1 2 1.4 3.4.7 2.9q-1.2-.7-.7.8c.3.8 1.1 1.5 1.6 1.5.6 0 1.5.4 2 .9.5.6.2.6-.7 0-1-.7-1.3-.5-.9.6.3.8.8 1.3 1.2 1 .3-.3 2.9 1.7 5.6 4.5 2.8 2.7 4.9 5.4 4.8 5.9s.5 1.1 1.3 1.4c1.1.5 1.3.2.6-.8-.6-.9-.6-1.2 0-.7.5.5.9 1.4.9 1.9 0 .6.7 1.4 1.5 1.7q1.5.5.8-.7c-.5-.7 1.2-.2 3.7 1 3.1 1.6 4.1 2.6 3.2 3.1-.7.5-.2.6 1.3.3 1.4-.3 3.9-.1 5.5.3 2.9.9 2.9.9.5 1.1s-2.3.3.5 1c1.6.4 5.5.8 8.5.9s10.5-.7 16.5-1.8c6-1 14.8-2.9 19.5-4.2 5.9-1.6 7.9-2.5 6.5-2.9-1.6-.5-1-.9 2.5-1.9 2.5-.8 5.2-1.6 6-1.8 1.3-.4 1.3-.4 0 .6-.8.6-1 1.1-.5 1.1s2.6-.6 4.5-1.4c1.9-.9 2.8-1.5 2-1.6-1.3 0-1.3-.1 0-1 .8-.5 2.6-.7 4-.4 1.5.3 2 .2 1.2-.3-.9-.6-.6-1.1 1.3-2.1 1.4-.6 3-1 3.5-.7s2 .2 3.3-.1c1.4-.4 1.8-.8 1-1.2-.7-.4 1.9-2.3 6.2-4.5 4.1-2 7.3-3.2 7-2.7s-.3 1 0 1 1.4-.5 2.5-1 1.8-1.5 1.5-2 .9-1.7 2.5-2.5c1.9-1 2.7-1.1 2.3-.3q-.8 1.2.7.6c.8-.3 1.4-1.1 1.3-1.7-.2-.6.6-1.6 1.7-2.1 1.5-.7 1.8-.7 1.3.2q-.8 1.2.7.7c.8-.3 1.5-1.1 1.5-1.7 0-.5.4-1.4.9-1.9.6-.5.6-.2 0 .7-.7 1-.5 1.3.6.9.8-.3 1.5-1.1 1.5-1.7 0-.7 3-3.2 6.8-5.7 3.7-2.5 6.4-4 6-3.3q-.8 1.2.7.6c.8-.3 1.4-1.1 1.3-1.7-.2-.6.5-1.7 1.4-2.4 1.4-1 1.5-1 .7.3-.7 1-.5 1.3.6.8.8-.3 1.4-1.1 1.3-1.7-.2-.6.5-1.7 1.4-2.4 1.4-1 1.5-1 .7.3-.7 1-.5 1.3.6.8.8-.3 1.4-.9 1.3-1.4-.2-.5.7-1.8 2-2.9 1.5-1.4 1.7-1.5.7-.2-.8 1-1 1.8-.5 1.8s1.6-.6 2.2-1.3c.7-.7 1.1-1.5.8-1.8s.5-1.4 1.7-2.5 1.7-1.3 1.2-.5c-.7 1-.5 1.3.6.8.8-.3 1.4-.9 1.3-1.4s1.4-2.5 3.4-4.4c2.1-1.9 3.1-2.7 2.3-1.7s-1 1.8-.5 1.8 1.9-1 3-2.1 1.5-2 1-2 .4-1.3 2-2.9c1.6-1.7 3.4-2.9 3.9-2.8s1.1-.5 1.4-1.3c.5-1.1.2-1.3-.8-.6-1.3.7-1.3.7-.2-.5.7-.8 1.8-1.4 2.4-1.4s1.4-.7 1.7-1.5q.5-1.5-.7-.8c-.9.6-.9.3-.2-1.2.5-1.1 1.5-1.8 2-1.5s1.2-.2 1.5-1 .3-2 0-2.5.2-2.9 1.1-5.3c1.2-2.8 1.7-7.3 1.7-13.7 0-8.9-.3-10.4-5-24-3.2-8.9-4.9-15.5-4.6-17 .3-1.9.2-2.1-.5-1s-1.7-.7-4-7.5c-1.7-5-2.8-10.1-2.5-11.5.3-1.9.2-2.1-.5-1s-1.7-.7-4-7.5c-1.7-5-2.8-10.1-2.5-11.5.3-1.5.2-2-.4-1.2-.5.8-4.7-9.7-11.5-29-7-19.9-10.5-31.2-10.1-32.8.3-1.9.2-2.1-.5-1-.8 1.2-1.3.5-2.4-3l-22.7-65.3L802 728c15.9-16.7 22.8-24.3 25.5-27.8 3.2-4.1 5.5-6.1 6.5-5.8.8.3 29.9 13.4 64.5 29.2l68.5 30.6c4 1.5 8 2 14.5 2 6.2 0 10.7-.6 14.5-1.9 3-1.1 8-3.6 11-5.5 3-2 9.3-7.6 13.9-12.4 4.6-4.9 11-12.3 14.1-16.4s8.2-11.3 11.3-16c3-4.7 8-13.2 10.9-19 3-5.8 7.4-15.5 9.7-21.5 2.4-6 5.8-16.9 7.6-24 1.9-7.1 4.2-18.2 5.1-24.5 1.3-8.2 1.8-17.2 1.8-31.5 0-11-.6-24.3-1.3-29.5-.6-5.2-2.3-15.4-3.7-22.5s-4.1-18-5.9-24c-1.9-6.1-5.4-16.2-8-22.5-2.5-6.3-7.3-16.7-10.7-23-3.3-6.3-9-16-12.6-21.5-3.7-5.5-9.2-12.7-12.3-16-3.5-3.8-8.1-7.3-12.5-9.6-3.8-2-9.3-4.2-12.1-4.8-2.9-.6-7.3-1.1-9.8-1.1s-6.6.5-9.2 1c-2.7.6-31.3 10.2-63.8 21.4l-59 20.4c-9.7-18.8-16-29.5-20.3-35.8-4.2-6.3-11-15.6-15.2-20.5-4.1-4.9-11.9-13.3-17.2-18.5-5.4-5.2-9.8-9.8-9.8-10.3 0-.4 9.1-22.9 20.1-50l22-54.7c1.1-3 2.2-8.2 2.5-11.5.4-3.7 0-8.7-.9-13-.8-3.8-2.7-9.7-4.3-13-1.8-3.8-5.4-8.6-9.9-13.1-5-5.1-9-8-14-10.4-3.9-1.8-13.5-5.5-21.5-8.1s-21.9-6.3-31-8.3c-9.1-1.9-22.8-4.4-30.5-5.5s-18.7-2.5-24.5-3.1l-26.5-2c-8.8-.6-27.7-.9-42-.9-14.3.1-32.3.6-40 1z" fill="#fff"/><path d="M612 178.7c-3.6.1-13.5.7-22 1.3a629.49 629.49 0 0 0-30.8 3.1c-8.3 1-22.1 3.2-30.4 4.9-8.4 1.6-21.6 4.7-29.3 6.9s-18.1 5.6-23 7.6c-4.9 1.9-11.2 5-13.9 6.8-2.7 1.7-6.3 4.8-7.9 6.7-1.7 1.9-4.1 5.2-5.4 7.3-1.2 2-3.2 6.4-4.3 9.7-1.3 3.9-2 8.7-2 13.5 0 5.3.7 9.6 2.4 14.8 1.4 3.9 11.7 29.7 22.9 57.2l20.5 50c-17.9 17.1-26.7 26.5-31.1 32s-11.2 14.7-15 20.5-9.8 16.4-13.4 23.5l-6.6 13.3c-.1.1-28.3-9.4-62.7-21.2l-68-22.1c-3.1-.4-8.2-.2-11.5.4s-8.5 2.3-11.5 3.8-8 5.2-11 8.3c-3 3-8.6 10.3-12.5 16-3.8 5.8-10.2 16.8-14.1 24.5-3.8 7.7-9.1 19.6-11.6 26.5s-6.2 19-8.2 27-4.3 19-5.2 24.5c-.8 5.5-1.8 19.5-2.1 31-.4 16.5-.2 23.9 1.2 34.5.9 7.4 3.2 19.4 5 26.5s5.2 18 7.6 24c2.3 6 6.7 15.7 9.7 21.5 2.9 5.8 7.9 14.3 10.9 19 3.1 4.7 8.5 12.3 12.2 17 3.6 4.6 10.2 12.1 14.6 16.5 5.9 6 9.9 9 15 11.5 6 2.9 8.3 3.4 16 3.8 7.2.3 10.2 0 15-1.7 3.3-1.1 35.6-15.4 71.8-31.8l65.7-29.8c12 14.7 19.8 23.4 25.2 28.8 5.4 5.3 9.8 10 9.8 10.5 0 .4-10.6 31.1-23.6 68.2l-46.2 132-22.7 64.5c0 20.7.1 21.4 3.7 28.6 2.7 5.5 5.4 9.1 10.5 13.8 3.7 3.6 11.1 9.9 16.3 14.1 5.2 4.1 14 10.5 19.5 14.2a416.87 416.87 0 0 0 21 12.7c6.1 3.4 16.4 8.4 23 11.2s17.2 6.6 23.5 8.4 15.8 4.1 21 5 12.9 1.7 17 1.7c4.7-.1 9.6-.8 13-2 3-1 7.5-3.2 10-4.9 2.5-1.6 6.2-5 8.3-7.4s4.7-6.2 5.7-8.4c1.1-2.2 13.9-45 28.6-95l27-91.5c.2-.3.6-.3.9 0 .2.3 12.4 41.5 27.1 91.5l29.2 96c1.4 2.8 4.7 7.1 7.4 9.8 2.7 2.6 7.8 6.1 11.6 7.9s9.3 3.4 12.7 3.8c3.3.4 10.3.1 15.5-.6 5.2-.6 14.7-2.5 21-4.2 6.3-1.6 16.9-5.1 23.5-7.6 6.6-2.6 17.6-7.6 24.5-11.2s17.5-9.8 23.5-13.8 15-10.4 20-14.3c5-3.8 12.1-9.8 15.9-13.4 3.8-3.5 8.2-8.4 9.9-10.9s3.9-7 5-10c1.2-3.6 1.8-8.3 1.8-13.5 0-7.9-.4-9.2-25-79.5l-46.2-132-21.6-62c-.2-.9 3.9-5.9 10.4-12.5 5.9-6.1 13.9-14.8 17.6-19.5l6.8-8.5L972 750.2c2.5.6 8.1.9 12.5.7 6.5-.4 9.3-1.1 15-3.8 5.3-2.6 9.2-5.6 16-12.5 5-5 12.6-13.8 16.9-19.6s10.3-14.8 13.4-20 7.8-14.2 10.5-20c2.8-5.8 6.9-16.4 9.2-23.5 2.4-7.1 5.2-17.5 6.4-23 1.1-5.5 2.5-14 3.1-19s1.1-16.9 1.1-26.5c0-9.8-.7-23.2-1.6-30.5-.9-7.1-2.7-18.2-4.1-24.5s-4.9-18.5-7.7-27c-3-9.1-8.3-21.9-12.8-31-4.2-8.5-10.9-20.4-14.9-26.5s-9.8-13.5-12.9-16.6c-3.1-3.2-8-6.8-11.1-8.3-3-1.4-8.2-3.1-11.5-3.7-3.4-.6-8.4-.8-11.5-.4-3 .4-33.6 10.4-68 22.2l-62.6 21.1-5.8-11.8c-3.1-6.3-8.6-16.3-12.4-22.2-3.7-5.9-10.4-15.4-14.9-21-4.4-5.7-13.7-15.7-20.5-22.3l-12.3-12.1 45-109.9c0-23.6-.1-24.2-3.4-31-2.1-4.3-5.6-9.2-9-12.6-3.1-3.1-7.8-6.7-10.6-8.1-2.7-1.4-9.5-4.2-15-6.3-5.5-2-17-5.5-25.5-7.7-8.5-2.1-23.1-5.2-32.5-6.8s-23.7-3.6-32-4.4c-8.2-.9-23.8-2-34.5-2.6-10.7-.5-27.6-.9-37.5-.8l-24.5.5z"/><path d="M608 239c-8.5.5-22.3 1.6-30.5 2.5-8.3.9-20.4 2.5-27 3.6-6.6 1.2-16.7 3.2-22.5 4.5s-12.6 3.1-15.3 3.9c-3.6 1.1-4.6 1.9-4.3 3.3.2.9 9.9 25.1 21.6 53.7l21.6 52.5c.2.3 5-1.4 10.7-3.7 5.6-2.2 13.8-5.2 18.2-6.6s12.5-3.5 18-4.6 14-2.5 19-3.1c5-.5 15.4-1 23.3-1 7.8 0 19.4.7 25.7 1.5s17.5 3 24.8 4.9c7.2 1.9 18.5 5.5 24.9 8 6.5 2.5 12 4.5 12.2 4.3.3-.1 10.2-24.1 22.1-53.2l21.2-54c-.2-.6-7.1-2.7-15.3-4.8-8.2-2-22.1-4.8-30.9-6.2s-23.6-3.2-33-4-28.7-1.7-43-1.9c-14.3-.3-33-.1-41.5.4zM287.9 477.3c-2.2 3.4-6.2 10.7-8.9 16.2-2.6 5.5-6.5 14.5-8.5 20s-5 15.2-6.6 21.5-3.6 17.4-4.5 24.5c-1.2 9.7-1.5 17.3-1.1 29.5.4 11.1 1.3 19.8 2.7 26.5 1.2 5.5 3.5 14 5.1 19s5.8 14.9 9.4 22 9.3 16.9 12.7 21.6c3.5 4.8 7.9 10.5 9.8 12.8l3.5 4L449.4 626c-.4-.8-2-5.3-3.6-10s-4-12.8-5.3-18-2.9-12.9-3.7-17q-1.3-7.5-1.3-34.2V520l-78-27-64.8-22c-.4 0-2.6 2.8-4.8 6.2zM915 495.7l-70.8 24.7c-.1.1.3 6.7.9 14.7.8 10.8.8 18 0 28.5-.7 7.7-2.3 19.6-3.7 26.5s-4.4 18-6.7 24.7c-2.3 6.8-4 12.5-3.7 12.8.3.2 33.6 15.5 74 33.9 57.7 26.2 73.8 33.1 74.9 32.2.8-.6 4.9-5.8 9.2-11.6 4.4-5.8 10.8-16.1 14.3-23s7.8-16.5 9.6-21.5c1.7-5 4.3-13.7 5.7-19.5 2-8.4 2.6-14.2 3-28.5.4-11.1.1-21.8-.6-28-.6-5.5-2.1-14.5-3.2-20s-3.8-15.4-6-22-6.2-16.7-9-22.5c-2.7-5.8-7.1-14-9.7-18.3-2.7-4.5-5.3-7.7-6.2-7.6-.8.1-33.2 11.1-72 24.5zM525.6 772.8l-25.3 72.3c-5.7 16.2-10.1 30.1-9.8 30.7.3.7 4 4.1 8.3 7.5 4.2 3.3 10.7 8.1 14.5 10.5 3.7 2.3 11.1 6.5 16.5 9.2 5.3 2.7 13.7 6.2 18.7 7.9s13 3.8 18 4.7c5 .8 9.1 1.5 9.1 1.3.1-.2 10-33.6 21.9-74.3l23.6-80.5c1.1-3.6 1.9-6.8 1.9-7.3 0-.4-2.8-1-6.2-1.3-3.5-.3-11-1.5-16.8-2.6s-16.6-4-24-6.4c-7.4-2.5-18.2-6.7-24-9.5-5.8-2.7-10.7-4.9-11-4.9s-7.3 19.2-15.4 42.7zM727 735.4c-5.8 2.8-15.7 6.8-22 8.9s-16.9 5-23.5 6.3-14.8 2.6-18.2 2.9c-3.5.3-6.3.7-6.3.8 0 .2 6.3 21.9 14 48.3l23.7 81 9.7 33.3c.1.2 4.1-.4 9.1-1.3s13-3 18-4.6c5-1.7 13.5-5.3 19-8 5.5-2.8 14.3-7.9 19.5-11.4s12-8.6 15-11.3l5.5-5-27.6-78.5-24.4-66.6c-.5 0-5.7 2.4-11.5 5.2zM457.7 967.2c-.4.8-2.9 7.9-5.7 15.7l-5 15.3c0 .5 4.4 4.2 9.8 8.2 5.3 4.1 12.4 9.2 15.7 11.4s10.1 6.3 15 9.1c5 2.8 14 7.2 20 9.7s15.3 5.7 20.5 7.1 9.6 2.4 9.7 2.2c.2-.2 2.8-8.8 5.9-19.3 4.3-14.9 5.2-19.2 4.2-19.7-.7-.4-2.1-.8-3-.8-1 0-6.9-1.3-13-2.9-6.2-1.6-15.3-4.5-20.3-6.4-4.9-1.9-13.3-5.5-18.5-8.1s-13.8-7.7-19-11.2-10.9-7.6-12.6-9c-2.4-2-3.2-2.3-3.7-1.3zm356.8 4.5c-3.9 3-11 7.9-16 10.8-5 3-12.6 7.1-17 9.1s-12.5 5.2-18 7c-5.5 1.9-15 4.6-21 6s-11.1 2.6-11.2 2.8c-.2.1 2.2 8.7 5.3 19.2l5.7 19.3c.1.1 4-.7 8.7-1.8 4.7-1.2 12.5-3.7 17.5-5.7s12.1-5.1 16-7.1c3.9-1.9 11-5.9 16-8.9 5-3.1 14.1-9.3 20.3-13.9 6.1-4.6 11.5-9 11.8-9.7.3-.6-1.8-8-4.6-16.2-2.9-8.3-5.5-15.3-5.9-15.6-.4-.4-3.8 1.8-7.6 4.7z" fill="#fff"/><path d="M480.5 901.2c-.2.7-3.4 9.8-7 20.3l-6.5 19c6.6 6.7 11.4 10.8 15 13.4 3.6 2.7 10.1 6.9 14.5 9.5 4.4 2.5 12.5 6.4 18 8.7 5.5 2.2 13.1 4.9 17 6s10.9 2.9 15.8 3.9c6.7 1.6 8.8 1.7 9.2.7.2-.6 3-10 6.1-20.7l6-20.5c.2-.6-3.7-1.8-8.8-2.8s-13.3-3.1-18.3-4.8c-5-1.6-14.4-5.6-21-8.8s-15.4-7.9-19.5-10.6c-4.1-2.6-10.3-7-13.7-9.7-4.2-3.2-6.4-4.4-6.8-3.6zm316 .9c-1.1 1.1-7.2 5.5-13.5 9.8-6.3 4.2-16.2 10-22 12.8s-15.2 6.7-21 8.7c-5.8 1.9-14.4 4.3-19.3 5.3-4.8 1-8.7 2.2-8.7 2.8 0 .5 2.5 9.5 5.5 20l6 20.7c.5 1.7 1.2 1.6 11.3-.6 5.9-1.3 15-3.8 20.2-5.5 5.2-1.8 14-5.4 19.5-8.1s13.4-7.1 17.5-9.8c4.1-2.8 10.4-7.6 14-10.7s6.7-6.1 6.8-6.8c.2-.7-2.6-9.8-6.3-20.2-3.7-10.5-7.1-19.3-7.4-19.8-.4-.4-1.6.2-2.6 1.4z" fill="#fff"/><path d="M619 375.1c-3.6.5-10.1 1.5-14.5 2.4s-13.4 3.4-20 5.6-16.7 6.4-22.5 9.3c-5.8 2.8-13.9 7.5-18 10.3-4.1 2.7-10.9 7.7-15 11s-11.1 9.8-15.5 14.5c-4.4 4.6-10.5 11.7-13.6 15.8s-7.7 11.1-10.4 15.5-6.6 11.8-8.8 16.5-5.4 13-7.2 18.5-4.4 15.2-5.7 21.5c-2 9.9-2.3 14.4-2.3 33 0 16.7.4 23.7 1.9 31.5 1 5.5 3.7 15.8 6.1 23 2.3 7.1 6.7 18 9.7 24 3.1 6 8.1 14.8 11.3 19.5s9 12.3 12.9 16.9c3.9 4.7 11.1 12 16.1 16.4 5 4.3 13.7 11 19.5 14.9s15 9.2 20.5 11.9c5.5 2.6 15.6 6.7 22.5 8.9 6.9 2.3 17.5 5 23.5 6 6 1.1 16.4 2.2 23 2.6 7.2.4 16.4.2 23-.5 6-.6 14.6-1.9 19-2.7 4.4-.9 13-3.2 19-5.1s15.5-5.7 21-8.2c5.5-2.6 13.1-6.7 17-9.1 3.9-2.3 10.4-6.8 14.4-9.9 4.1-3.1 11.1-9 15.4-13.1 4.4-4.1 10.7-10.9 14-15s8.7-11.5 12-16.5c3.2-5 8.1-13.5 10.7-19 2.7-5.5 6.5-14.7 8.4-20.5s4.4-15 5.5-20.5 2.5-15.6 3.1-22.5c.7-8.7.7-16.5-.1-25.5-.5-7.2-1.9-17-2.9-22s-3.5-14.2-5.6-20.5c-2-6.3-6.5-17.1-10-24-3.6-6.9-9.5-16.8-13.2-22s-12.1-15-18.7-21.6c-6.6-6.7-15.8-14.9-20.5-18.4-4.7-3.4-12.8-8.6-18-11.6-5.2-2.9-14-7.2-19.5-9.4-5.5-2.3-15-5.4-21-7.1-6-1.6-16-3.6-22-4.4s-17.1-1.4-24.5-1.4c-7.4.1-16.4.5-20 1z" fill="#e8ca1d"/><path d="M629.5 445.1c-3.3.5-8.3 1.6-11 2.5-2.8.9-8.6 3.5-13 5.7-6 3.1-10.1 6.2-16.5 12.7-5.8 5.8-9.7 10.7-12.2 15.5-2 3.9-4.6 9.7-5.8 13-1.1 3.3-2.5 9.6-3.1 14-.8 5.9-.8 10.3.1 17 .6 5 2.3 12.1 3.7 16s4.4 10.1 6.8 14 7.6 10.1 11.7 14 9.9 8.5 12.9 10.2c3 1.8 8.5 4.4 12.4 5.7 3.9 1.4 10.4 3 14.5 3.7 4.3.6 10.7.9 15 .5 4.1-.4 10.2-1.3 13.5-2.2 3.3-.8 9.1-3 13-4.9 3.9-1.8 9.9-5.6 13.5-8.4 3.6-2.9 8.8-8 11.5-11.4 2.8-3.4 6.7-9.6 8.8-13.7 2-4.1 4.4-10.2 5.2-13.5s1.8-9.4 2.1-13.5c.4-4.2.1-10.8-.5-15-.7-4.1-2.3-10.6-3.7-14.5-1.3-3.9-3.9-9.4-5.7-12.4-1.7-3-6.3-8.8-10.2-12.9s-9.9-9.2-13.5-11.4c-3.6-2.3-9.4-5.2-13-6.6-3.6-1.3-9.9-3-14-3.8-4.1-.7-9.5-1.3-12-1.2-2.5 0-7.2.4-10.5.9zM539 474.7c-2 1-6.9 4.5-10.9 7.8-4.1 3.3-9.9 8.7-12.9 12s-7.7 9.1-10.4 13c-2.8 3.9-7.2 11.5-9.9 17-2.6 5.5-5.7 13.4-6.8 17.5s-2.5 11.8-3.2 17c-.6 5.5-.8 13.1-.4 18 .4 4.7 1.8 12.8 3.1 18 1.4 5.6 4.7 14.1 7.8 20.5 3 6 8.4 14.8 11.9 19.5s9.5 11.4 13.3 14.9c3.8 3.6 10.7 9.3 15.4 12.8s14.8 9.5 22.5 13.3 18.3 8.2 23.5 9.9c5.2 1.6 14 3.9 19.5 5s14.4 2.5 19.7 3c5.4.6 13.7 1.1 18.5 1.1 4.9 0 13.5-.5 19.3-1 5.8-.6 15.7-2.2 22-3.7 6.3-1.4 16-4.1 21.5-6s14.3-5.7 19.5-8.3 13.8-7.6 19-11.1c5.6-3.7 13.8-10.7 20.1-16.9 6.3-6.3 12.9-14.1 16.5-19.5 3.2-5 7.5-12.8 9.5-17.5s4.6-12.3 5.8-17 2.4-13 2.8-18.5c.3-5.9.1-13.7-.7-19-.6-5-2.3-12.6-3.7-17s-4.5-12-6.9-17-7.3-12.8-10.8-17.5-10.1-12.1-14.7-16.4c-4.6-4.4-10.8-9.5-13.8-11.5-3.7-2.5-6.6-3.6-9.1-3.6-2 0-4.8.8-6.3 1.7-1.5 1-3.4 3.5-4.3 5.5-1.5 3.6-1.5 4.3.7 13.3 2 7.8 2.4 12.1 2.4 24 0 12.1-.4 15.8-2.3 22.5-1.3 4.4-4.1 11.6-6.3 16s-6.7 11.5-10.2 15.9c-3.4 4.3-9.6 10.6-13.8 14-4.2 3.3-11.4 8-16 10.3s-12 5.2-16.4 6.5c-6.7 1.9-10.4 2.2-23 2.3-11.5 0-16.7-.5-22-1.9-3.9-1-10.6-3.5-15-5.5s-10.7-5.5-14-7.8c-3.3-2.2-9.2-7.4-13.1-11.4-3.9-4.1-8.4-9.4-10.1-11.9s-4.4-7.3-6.2-10.8c-1.7-3.4-4.3-10.1-5.7-15-1.8-6.2-2.7-12-3.1-20.2-.4-9.6-.1-13.2 1.7-21.5 1.2-5.5 2.4-11.6 2.6-13.5.3-1.9-.1-4.6-.8-5.9s-2.4-3.2-3.8-4.2c-1.4-1.1-3.9-2.1-5.5-2.4-1.9-.4-4.3.1-6.5 1.2z"/><path d="M632.5 469c-2.8.5-7 1.6-9.5 2.5s-6.5 2.9-9 4.5c-2.5 1.5-6.6 5-9.1 7.7-2.5 2.6-5.7 6.8-7.1 9.3-1.5 2.5-3.4 7.2-4.4 10.5-1.1 3.7-1.7 9.1-1.7 14 .1 4.9.8 10.4 2 14 1 3.3 3.4 8.4 5.3 11.4s6 7.6 9 10.4c3 2.7 8.2 6.2 11.5 7.8 3.3 1.5 9.4 3.3 13.5 4 5.9.9 9.1.9 15-.1 4.3-.8 10.3-2.7 14-4.6s9-5.8 12.3-9.1 7.2-8.6 9.1-12.3 3.8-9.7 4.6-14c1-5.9 1-9.1.1-15-.6-4.1-2.5-10.3-4.1-13.8-1.7-3.4-5.4-8.7-8.3-11.8-2.8-3-7.2-6.9-9.7-8.4-2.5-1.6-7-3.8-10-4.8-3-1.1-8.4-2.2-12-2.5s-8.8-.2-11.5.3zm-110.4 55.8c-1.6 2.6-4.5 8.1-6.4 12.2s-4.2 10.4-5 14c-.9 3.6-1.9 9.4-2.2 13-.4 3.6-.2 10.3.5 15 .6 4.7 2.4 12.3 4 17 1.7 4.7 5.1 12.1 7.7 16.5 3.1 5.1 8.4 11.5 14.8 18 5.5 5.6 13.4 12.3 17.5 15s11.8 7.1 17 9.6c5.2 2.6 13.8 6.1 19 7.7 5.2 1.7 12.9 3.7 17 4.6 4.1.8 12.5 2 18.5 2.7 6.5.7 15.9.9 23 .5 6.6-.3 15.8-1.3 20.5-2.1s12.1-2.5 16.5-3.7c4.4-1.1 12.3-3.9 17.5-6s12.2-5.4 15.5-7.2c3.3-1.9 9.6-6.1 14-9.3 4.4-3.3 11.1-9.3 15-13.4s8.8-10.1 10.9-13.4c2.2-3.3 5.4-9.1 7.2-13 1.7-3.9 3.9-9.9 4.8-13.5s2-10.5 2.3-15.5c.4-6.6.1-11.3-1.2-17.5-.9-4.7-2.8-11.4-4.1-15-1.4-3.6-4.3-9.5-6.4-13.2-2.2-3.8-4.6-6.8-5.2-6.8-.9 0-1.5 2.5-2 7.2-.4 4-1.9 11.8-3.3 17.3-1.6 6.5-4.6 14.2-8.5 22-4 8-8.4 15-13.3 21-4.1 5-11.4 12.3-16.3 16.3-5.8 4.7-13 9.3-20.9 13.2-7.2 3.6-16 7.1-22 8.7-9.1 2.4-11.6 2.7-28.5 2.7-17 0-19.3-.3-28.5-2.7-5.5-1.5-14-4.7-19-7-5-2.4-12.4-6.6-16.5-9.4-4.1-2.9-11-8.7-15.3-13-4.2-4.3-9.7-10.5-12.2-13.8-2.4-3.3-6.2-9.4-8.4-13.5-2.1-4.1-5.3-11.3-6.9-16s-3.7-12.8-4.6-18-1.6-11-1.6-12.7c0-1.8-.4-3.3-.9-3.3s-2.3 2.1-4 4.8z" fill="#c18e08"/><path d="M637 513.1L604.2 549c-.1.6 1.9 2.8 4.5 5.1 2.7 2.2 7.5 5.4 10.8 6.9 3.3 1.6 9.4 3.4 13.5 4.1 5.9.9 9.1.9 15-.1 4.3-.8 10.3-2.7 14-4.6s9-5.8 12.3-9.1c3.6-3.6 7.1-8.4 9.3-12.8 2.1-4.3 3.8-9.9 4.5-14.5.9-5.8.9-9.2-.1-15-.8-4.3-2.7-10.3-4.6-14s-5.6-8.7-8.6-11.7l-5.4-5.1zm117.9 66.2l-48.6 51.9-33.2 36.2c0 .3 4.6-.7 10.2-2.3 5.7-1.5 14.1-4.3 18.8-6.2 4.6-1.9 11.4-5.1 15-7.1 3.5-2 10.1-6.3 14.5-9.5 4.4-3.3 11.1-9.3 15-13.4 3.8-4.1 8.7-10.1 10.9-13.4s5.4-9.2 7.1-13c1.8-3.9 4-9.9 4.9-13.5s1.9-10.9 2.2-16.3c.4-6.3.2-9.7-.5-9.7-.5 0-7.9 7.3-16.3 16.3zm-210.1 32.5l-13.7 14.7c11.3 10.8 17.7 16.1 21.5 18.7 3.8 2.5 10.8 6.6 15.4 9l8.4 4.3 23.7-25.8 7-7.7c-4.3-.9-9.6-3.1-14.5-5.4-5-2.3-12-6.2-15.5-8.6-3.6-2.5-8.9-6.6-11.8-9.2-2.9-2.7-5.6-4.8-6-4.8s-6.9 6.7-14.5 14.8z" fill="#e0c70c"/><path d="M622.5 374.7c-1.6.2-7 1-12 1.8s-12.8 2.5-17.5 3.9c-4.7 1.3-11 3.4-14 4.5-5.2 1.9-8 4.6-55.5 55.6-47.6 50.9-50.1 53.8-51.7 59.3-1 3.1-2.7 10.4-3.9 16.2-1.5 7.2-2.3 15.9-2.7 27.5-.2 9.8 0 21.4.7 27.3.7 6.1 1.6 10.4 2.4 10.8.7.4 4.1-2.4 8.4-6.7l7.2-7.4c1.7-14 3.1-21.4 4.2-25.5s4.2-12 6.8-17.5c2.7-5.5 7.1-13.1 9.9-17 2.7-3.9 7.4-9.7 10.4-13s9-8.9 13.4-12.4c4.3-3.5 9.5-7 11.4-7.8 2.2-.9 4.6-1.2 6.5-.7 1.6.4 4.2 1.8 5.8 3.1 1.7 1.4 3 3.8 3.5 6.3.4 2.2 1.2 4 1.7 4.1.5 0 24.2-24.8 52.5-55.1l51.8-55.8c.1-.4-2.1-1-5-1.4s-11.2-.7-18.3-.6c-7.1 0-14.4.3-16 .5zM801 527.5c-5.2 5.7-9.5 10.8-9.5 11.2.1.4 1 4.4 2 8.8 1.5 6.1 2 11.4 1.9 22.5 0 11.8-.4 16.2-2.3 23.5-1.3 5-4 12.8-6 17.5s-6.3 12.5-9.5 17.5c-3.6 5.4-10.2 13.2-16.5 19.5-6.3 6.2-14.5 13.2-20.1 16.9-5.2 3.5-13.8 8.5-19 11.1s-14 6.4-19.5 8.3-15.4 4.7-22 6.1c-6.6 1.5-17.4 3.2-24 3.9l-12.1 1.2c-18.5 19.9-24 26.3-24.1 27.1-.2 1.1 1.9 1.5 10.5 2 6.1.4 16.2.2 23.7-.5 7.1-.7 17-2.1 22-3.2 5-1 13.3-3.3 18.5-5 5.2-1.8 14-5.3 19.5-7.9s13.1-6.6 17-9c3.9-2.3 10.4-6.8 14.4-9.9 4.1-3.1 11.1-9 15.4-13.1 4.4-4.1 10.7-10.9 14-15s8.7-11.5 12-16.5c3.2-5 8.1-13.5 10.7-19 2.7-5.5 6.5-14.7 8.4-20.5s4.4-15 5.5-20.5 2.5-15.6 3.1-22.5a149.07 149.07 0 0 0 0-25l-1.4-16.3c-.2-2.3-.9-3.7-1.7-3.6-.8 0-5.7 4.7-10.9 10.4zm-85.2-100.8l-26 27.8-4.6 5c11.1 11.7 15.8 17.6 17.5 20.6 1.8 2.9 4.5 8.8 5.9 12.9s2.8 9.5 3.1 12c.2 2.5.9 5.2 1.3 6 .8 1.2 2.1.3 7-4.5 3.3-3.3 6.3-6.8 6.5-7.8.3-.9-.2-4.3-1.1-7.5-1.3-4.5-1.4-6.5-.5-9.5.6-2 2.3-4.6 3.9-5.7 1.5-1.1 4.1-2.3 5.7-2.6 2.1-.4 4.4.2 7.8 2l4.7 2.6 32-35c-2.5-4.3-8.5-10.7-14.9-17.1s-14.7-13.9-18.6-16.8c-3.9-2.8-7.3-5.1-7.7-5.1s-10.3 10.2-22 22.7zM580.3 571.8l-5.2 5.7c8.1 7.9 12.7 11.7 15.4 13.6 2.8 1.8 8.6 5 13 7s10.9 4.4 14.5 5.3 7.2 1.6 8 1.6 4.6-3.1 8.5-7c3.9-3.8 6.8-7.1 6.5-7.3s-4.3-.8-9-1.4-11.9-2.3-16-3.7-9.9-4.1-12.9-5.9c-3-1.7-7.9-5.5-11-8.4s-5.8-5.2-6.1-5.2-2.8 2.5-5.7 5.7zm-73.1 78.5l-6.2 6.2c12.1 14 19.4 21.2 24.1 25.1 4.6 3.9 10.4 8.5 12.9 10.3 2.5 1.7 4.7 3.2 5 3.2s4.1-3.7 8.5-8.1c4.4-4.5 8.1-8.5 8.3-9.1.1-.5-3.3-2.7-7.5-5-4.3-2.2-11.3-6.6-15.7-9.7-4.3-3.2-11.1-8.7-15.2-12.4-4.1-3.8-7.5-6.8-7.7-6.8-.1 0-3.1 2.8-6.5 6.3z" fill="#f4e52c"/></svg>