<svg xmlns="http://www.w3.org/2000/svg" width="1280" height="1280" xmlns:v="https://vecta.io/nano"><path d="M624.5 289.6c-2.2.2-8.3.9-13.5 1.5s-13.8 1.9-19 3-14.2 3.3-20 5-15.5 5.1-21.5 7.6c-6 2.4-15.3 6.7-20.5 9.3-5.2 2.7-14.9 8.5-21.5 12.8s-16.3 11.4-21.5 15.8c-5.2 4.3-12.9 11.3-17 15.4s-10.9 11.5-15 16.5c-4.2 4.9-11 14.2-15.2 20.5s-10.1 16.2-13.2 22c-3 5.8-7.5 15.4-9.9 21.5-2.4 6-5.6 15-7 20-1.5 4.9-3.5 12.8-4.6 17.5s-2.8 13.9-3.7 20.5c-1.1 8-1.7 18.6-1.7 31.5 0 10.7.6 23.3 1.2 28 .7 4.7 2.3 14 3.7 20.7 1.3 6.8 4.4 18.3 6.8 25.5 2.4 7.3 6.5 18 9.1 23.8s7.4 15.2 10.7 21 8.6 14.1 11.7 18.5 8.8 11.8 12.7 16.5c4 4.7 9.6 11.1 12.6 14.2l5.3 5.8-81.6 155.5c-3.2 6.7-5.2 12.2-5.9 16.7-.7 4.7-.7 8.9.1 13.5.5 3.8 2.4 9.7 4.1 13.3 2.3 4.8 5.4 8.8 11.7 15 4.7 4.7 12.9 11.9 18.1 15.9 5.2 4.1 14.9 11 21.5 15.3 6.6 4.4 19.6 11.7 29 16.4 9.9 4.9 22.6 10.2 30.5 12.8 7.4 2.4 18.2 5.3 24 6.4s13.4 2.3 17 2.7c4.3.4 8.9.2 13.5-.8 3.9-.8 9.5-2.7 12.5-4.2 3-1.6 8.2-5.5 11.6-8.9 3.3-3.4 6.9-7.7 7.9-9.6s13-29.8 26.7-62l25.6-59.2c.4-.4 11.9 25.7 25.6 58l28 64.1c1.7 2.9 5.4 7.4 8.2 10 2.8 2.5 7.3 5.8 10 7.3s8.3 3.5 12.4 4.3c5.1 1.1 9.6 1.5 14 1 3.6-.3 11.9-1.7 18.5-3s17.3-4.2 23.7-6.5c6.5-2.2 16-5.9 21-8.2 5.1-2.2 13.3-6.3 18.3-9.1 5-2.7 14.6-8.6 21.5-13.1s17-11.9 22.5-16.3 13-11.2 16.7-14.9c4.2-4.4 7.7-9.3 9.7-13.4 1.7-3.6 3.6-9.2 4.2-12.5s.8-8.5.5-11.5c-.4-3-1.4-7.8-2.3-10.5-.9-2.8-20.5-40.8-43.5-84.5L807 704.2c0-.1 3.9-4.6 8.8-10 4.8-5.3 11-12.6 13.8-16.2s8.1-11 11.7-16.5 9-14.7 12-20.5c3.1-5.8 7.7-15.7 10.2-22s5.9-16 7.5-21.5 3.8-14.3 4.9-19.5c1-5.2 2.5-13.8 3.2-19 .8-5.5 1.3-18.2 1.3-30 0-14.2-.6-24.1-1.8-32-.9-6.3-2.8-16.2-4.2-22-1.3-5.8-4.3-16.1-6.6-23s-7.7-19.5-11.9-28c-4.3-8.5-10.9-20.2-14.7-26-3.9-5.8-10.1-14.3-13.8-19-3.8-4.7-11.6-13.2-17.4-19s-14.3-13.6-19-17.4c-4.7-3.7-13.2-9.9-19-13.8-5.8-3.8-17.7-10.5-26.5-14.9-8.8-4.3-22.1-9.8-29.5-12.3-7.4-2.4-18-5.4-23.5-6.6s-14.5-2.8-20-3.6c-5.5-.7-17.6-1.6-27-1.8s-18.8-.2-21 0z" fill="#fff"/><path d="M623 295.1c-5.8.4-15 1.5-20.5 2.4s-14.3 2.7-19.5 4a281.82 281.82 0 0 0-19.5 5.8c-5.5 1.9-14 5.2-19 7.4-5 2.1-13.3 6.3-18.5 9.2-5.2 3-12.2 7.2-15.5 9.4s-9.6 6.8-14 10.1-13.6 11.4-20.4 18.1c-6.8 6.6-15.2 15.6-18.7 20-3.6 4.4-8.7 11.1-11.3 15-2.7 3.8-7.6 11.7-10.9 17.5s-7.9 14.8-10.2 20-5.9 14.4-8 20.5c-2.1 6-5 16.4-6.5 23s-3.3 16.7-4.1 22.5c-.7 5.8-1.4 18.9-1.4 29.2 0 11.3.6 23.5 1.5 30.5.9 6.5 2.3 14.9 3.1 18.8.9 3.8 2.9 11.7 4.6 17.5s4.8 15 7 20.5 6.5 15 9.6 21 9.1 16.2 13.2 22.5c4.2 6.3 10 14.4 13 18 2.9 3.6 9.3 10.5 14.2 15.5l8.9 9L392.8 870c-1.6 4.4-1.9 7.4-1.6 14.5.3 7.4.9 10.2 3.4 15.5 1.6 3.6 5 8.7 7.4 11.4 2.5 2.7 9.4 8.9 15.5 13.9 6.1 4.9 15.1 11.8 20 15.2s13.5 8.8 19 12.1c5.5 3.2 14.5 7.9 20 10.5s14.5 6.3 20 8.4c5.5 2 15.4 5 22 6.6 6.6 1.5 15.6 3.3 20 3.8 5.4.7 10.1.7 14.5 0 3.6-.6 8.7-2.1 11.5-3.4 2.7-1.3 7-4.1 9.5-6.3 2.5-2.1 5.9-6.1 7.6-8.8s15.5-34 30.5-69.6L640 829c.3 0 12.4 28 26.9 62.2l29.4 68.3c1.7 3.3 5.3 8.3 8.1 11.1 2.8 2.7 7.6 6.2 10.6 7.6 3 1.5 8.4 3.1 12 3.7 4.5.7 9 .7 14.5 0a255.79 255.79 0 0 0 17-3c5-1.1 14.4-3.8 21-6s19.2-7.5 28-11.9c8.8-4.3 21.4-11.4 28-15.8 6.6-4.3 16.3-11.2 21.5-15.3 5.2-4 13-10.7 17.3-14.9 5.5-5.2 8.7-9.3 10.7-13.5 1.6-3.3 3.4-8.7 4-12 .7-4.2.7-8 0-12.5-.5-3.8-2.6-9.9-4.9-14.5-2.1-4.4-21.8-42.1-43.7-83.8l-39.9-75.8c12.2-12.7 18.6-20 22.2-24.4 3.5-4.4 8.6-11.2 11.2-15 2.7-3.9 7.4-11.5 10.6-17s7.7-14.3 10-19.5c2.4-5.2 5.9-14.2 7.9-20 2.1-5.8 4.8-14.8 6.1-20s3.1-13.5 3.9-18.5c.9-5 2.1-15.8 2.7-24 .8-11 .8-18.8 0-29.5-.6-8-1.8-18.8-2.7-24s-2.9-14.5-4.4-20.5c-1.5-6.1-4.5-15.5-6.5-21s-6.7-16.3-10.5-24-10-18.6-13.7-24.2-9.7-13.9-13.3-18.4c-3.6-4.6-11-12.8-16.5-18.4s-14.5-13.7-20-18.1c-5.5-4.3-14.3-10.7-19.5-14-5.2-3.4-13.8-8.4-19-11.2s-14.7-7.2-21-9.7-16.9-6.2-23.5-8c-6.6-1.9-17.2-4.4-23.5-5.5s-17.8-2.4-25.5-3c-7.7-.5-15.8-.9-18-.8-2.2 0-8.7.4-14.5.9z"/><path d="M535.2 714.3c-1.6 2.8-22 41.3-45.3 85.5l-41.4 81.1 6 4.8c2.7 2.3 10.6 7.9 17.5 12.5s17.7 10.9 24 14c6.3 3.2 15.1 7 19.5 8.6s11.4 3.7 15.5 4.6c4.1 1 7.8 1.4 8.2.9.4-.4 18.7-43.2 40.7-95l40.3-95.5c.2-.8-2.1-1.5-6.7-2-3.9-.5-12.2-2-18.5-3.4-6.3-1.5-16-4.2-21.5-6.1s-15.6-6.1-22.5-9.4l-12.7-5.9c-.1 0-1.5 2.4-3.1 5.3zm194.8.2c-5.8 3-16.6 7.4-24 9.9s-17.8 5.5-23 6.6-12.6 2.3-16.3 2.7c-6.2.7-6.8 1-6.4 2.8.2 1.1 18.3 44.1 40.2 95.5l40.4 94.3c.3.5 4 .1 8.1-.8 4.1-1 11.8-3.3 17-5.3 5.2-1.9 13.1-5.3 17.5-7.5s12-6.4 17-9.4c4.9-3 14.1-9.3 20.2-13.9 6.4-4.7 11.2-9 11-9.8-.1-.8-20.2-39.5-44.7-86l-45.5-84.5c-.6 0-5.7 2.5-11.5 5.4z" fill="#1995c9"/><path d="M611.5 356.9c-5.5 1-12.7 2.6-16 3.4-3.3.9-10 3-15 4.8-5 1.7-13.3 5.3-18.5 7.9s-14.5 8-20.5 12.1c-8.1 5.3-14.7 11-25.1 21.3-10.6 10.7-15.9 16.9-21.7 25.6-4.2 6.3-9.8 16.2-12.6 22-2.7 5.8-6.6 15.2-8.5 21s-4.5 15.2-5.8 21c-2 9.3-2.2 13.3-2.2 34 0 20.8.2 24.7 2.3 34 1.2 5.8 3.8 15.2 5.7 21s5.7 15.2 8.5 21 7.6 14.3 10.6 19c3.1 4.7 8.2 11.6 11.3 15.5s10.6 11.7 16.6 17.4 15.6 13.5 21.4 17.4c5.8 3.8 15.9 9.6 22.5 12.7 6.6 3.2 16.3 7.2 21.5 8.8 5.2 1.7 14 4 19.5 5.2 7.6 1.7 14.8 2.3 30 2.7 17.5.5 21.6.2 33-1.7 7.1-1.2 18.4-3.9 25-6 6.6-2.2 16.5-6.1 22-8.8s13.1-6.8 17-9.2 10.8-7.3 15.5-10.9 12.1-10.2 16.5-14.6 11.4-12.5 15.5-18c4.2-5.5 9.7-13.8 12.4-18.5 2.6-4.7 6.8-13.2 9.3-19 2.4-5.8 5.8-15.2 7.4-21s3.6-15.2 4.5-21c1-6.2 1.6-16.8 1.6-26s-.6-19.8-1.6-26c-.9-5.8-2.9-15.2-4.5-21s-5-15.2-7.4-21c-2.5-5.8-6.7-14.3-9.3-19-2.7-4.7-8.2-13-12.3-18.5s-11.6-14-16.5-19c-5-4.9-13.8-12.4-19.6-16.7-6.8-5.1-15.8-10.5-25.5-15.3-8.2-4.1-19.3-8.8-24.5-10.4-5.2-1.7-14-4-19.5-5.2-8.1-1.8-14.2-2.2-31.5-2.5-17.7-.3-23.3 0-31.5 1.5z" fill="#e8ca1d"/><path d="M627 426.1c-2.5.5-6.8 1.6-9.5 2.5-2.8.9-7.5 2.9-10.5 4.4s-8.2 4.9-11.6 7.6-8.4 7.6-11.3 10.9c-2.8 3.3-6.9 9.6-9.1 14s-4.7 11.1-5.6 15c-1 4.2-1.7 11.2-1.7 17.5 0 7.9.5 12.5 2.2 18.5 1.2 4.4 3.8 10.9 5.6 14.5 1.9 3.6 5.6 9.2 8.3 12.5 2.6 3.3 7.5 8.2 10.7 10.8 3.3 2.7 9.6 6.6 14 8.7 4.4 2.2 10.9 4.6 14.5 5.4 3.6.9 11.2 1.6 17 1.6 7.4 0 12.8-.6 18.5-2 4.4-1.2 11.6-4 16-6.3 5.7-3 10.3-6.5 16.1-12.2 4.6-4.6 9.8-11 12.2-15 2.2-3.9 5-9.8 6.1-13.3 1.2-3.4 2.6-9.5 3.2-13.5.6-3.9.9-10.6.6-14.7-.4-4.1-1.3-10.2-2.2-13.5s-2.9-8.9-4.6-12.5-5.2-9.4-7.7-13c-2.6-3.5-7.6-8.8-11.2-11.8-3.6-2.9-10.5-7.3-15.5-9.7-5.1-2.5-12.3-5.1-16.8-5.9-4.2-.9-11.2-1.6-15.5-1.5-4.2.1-9.7.5-12.2 1zm-94.7 33.8c-4.3 3.2-11.2 9.4-15.3 13.7-4.2 4.4-9.6 10.8-12.2 14.4-2.5 3.6-6.6 10.5-9.1 15.5-2.5 4.9-5.7 13-7.1 18-1.5 5-3.1 13-3.7 18s-.8 12.4-.5 16.5c.4 4.1 1.1 10.2 1.7 13.5s2.2 9.4 3.6 13.5 4.4 11.1 6.7 15.5c2.2 4.4 6.6 11.4 9.6 15.5 3.1 4.1 8.9 10.8 13 14.9 4.1 4 11.3 10.2 16 13.7s14.1 9.3 21 12.8 17.2 8.1 23 10.1 15.9 4.7 22.5 6 17.9 2.9 25 3.5a161.21 161.21 0 0 0 26 0c7.1-.5 17-1.7 22-2.6s12.8-2.7 17.5-4c4.7-1.4 12.5-4.1 17.5-6.1 5-1.9 12.6-5.5 17-7.8 4.4-2.4 12-7.2 17-10.7 4.9-3.4 12.8-10.1 17.5-14.8s11-11.9 13.9-16 7.2-11.3 9.6-16c2.3-4.7 5.4-12.1 6.8-16.5s3.1-12.3 3.7-17.5c.8-5.6 1.1-13.2.7-18.5-.3-5-1.4-12.4-2.3-16.5s-2.8-10.4-4.1-14c-1.4-3.6-3.6-8.8-5-11.5-1.4-2.8-4.8-8.4-7.6-12.5-2.7-4.1-10-12.5-16.1-18.5-6.1-6.1-13.3-12.6-16.1-14.4-4.3-2.8-5.6-3.2-9.5-2.7-3.1.3-5.3 1.4-7.3 3.3-1.5 1.5-3 4.2-3.3 5.8-.3 1.7.4 6.2 1.6 10.5 1.3 4.5 2.4 11.9 2.7 18.5.4 6.9.1 14-.7 19-.7 4.4-2.3 10.9-3.5 14.5s-3.5 9-5 12-4.6 8.2-7 11.5c-2.3 3.3-7.8 9.4-12.2 13.5s-11.5 9.5-15.9 12c-4.3 2.4-11.5 5.7-15.9 7.1-4.4 1.5-12 3.3-17 3.9-5.3.8-12.5 1-17.5.6-4.7-.4-11.6-1.5-15.5-2.5s-9.9-3-13.5-4.5-10.1-5.1-14.5-8.1c-4.4-2.9-10.7-8.2-14.1-11.7-3.4-3.4-8.4-9.9-11.3-14.3s-6.5-11.4-8.1-15.5c-1.5-4.1-3.6-11.5-4.5-16.5-1.3-6.7-1.6-11.8-1.2-20 .4-6.4 1.5-14.1 2.6-18.3 1.2-3.9 2.1-8.3 2.1-9.7s-.7-3.7-1.5-5.3c-.9-1.5-2.9-3.5-4.5-4.5-1.7-.9-4.5-1.7-6.4-1.7-2.7 0-5.3 1.4-11.3 5.9z"/><path d="M628 450.6c-3 .8-8 2.8-11 4.4s-7.9 5.3-10.8 8.2-6.1 6.7-7.2 8.3-3 5.5-4.1 8.5c-1.2 3-2.5 8.3-3 11.7-.6 4-.5 8.7.1 13 .6 3.9 2.6 10.1 4.6 14.3 2.5 5.1 5.4 9.3 9.3 13 3.1 3.1 8.5 7.1 12.1 8.9 4 2.1 9.5 3.9 14.3 4.8 5.8 1 9.4 1 14.4.3 4.2-.6 9.9-2.5 14.8-4.9 5.9-2.9 9.5-5.5 13.7-10 3.2-3.4 7.1-8.9 8.8-12.4 1.6-3.4 3.5-9.6 4.1-13.7 1-6 1-9-.1-15-.8-4.4-2.8-10.4-4.9-14.5-2.1-4.2-5.8-9.2-9.1-12.5-3.1-3-8.1-6.7-11.1-8.2s-8.1-3.4-11.4-4.2c-3.3-.9-8.7-1.6-12-1.5-3.3 0-8.5.7-11.5 1.5zm-106.7 56.1c-2 3.2-4.9 8.7-6.4 12.3-1.6 3.6-3.6 9.6-4.5 13.5-1.1 4.4-1.7 11-1.7 18s.6 13.5 1.7 18c.9 3.8 3.4 10.6 5.5 15 2 4.4 5.2 10.2 7.1 13 1.8 2.7 5.7 7.7 8.5 11 2.9 3.3 8.8 8.8 13.1 12.2 4.3 3.5 10.6 7.9 13.9 9.9 3.3 2.1 9.6 5.4 14 7.4 4.4 2.1 12.5 5.2 18 6.9 5.5 1.8 15.2 4.1 21.5 5.2 8.3 1.4 16.2 2 28 2 12 0 19.6-.6 28-2 6.3-1.1 16-3.4 21.5-5.1s14.3-5.1 19.5-7.6 13.3-7.1 18-10.2 12.6-9.7 17.6-14.7c5.6-5.6 11-12.2 14.2-17.5 2.9-4.7 6.6-12.2 8.2-16.8 1.9-5.3 3.3-11.6 3.9-17.6.5-5.4.5-13.2 0-18.3-.5-4.8-2-12.2-3.4-16.3s-4.2-10.4-6.1-14c-2-3.6-4.3-7.3-5.2-8.3-1-1-2-1.8-2.4-1.7-.5 0-.8 1.7-.8 3.7 0 2.1-.6 7.6-1.4 12.3s-2.9 12.5-4.6 17.5-4.9 12.4-7.1 16.5c-2.3 4.1-6.3 10.4-8.9 14-2.7 3.6-8.4 9.9-12.7 14.1s-11.6 10.1-16.3 13.2c-4.7 3-11.6 7-15.5 8.7s-10.6 4.2-15 5.5c-4.4 1.2-12.5 2.9-18 3.5-5.8.8-14 1-19.5.7-5.2-.3-12.8-1.3-16.7-2.2-4-.8-10.1-2.4-13.5-3.6-3.5-1.1-9.9-3.9-14.3-6.1s-10.7-5.9-14-8.1-10.1-8.1-15.1-13.1c-5.3-5.3-11.6-12.9-15-18.1-3.2-5-7.4-12.6-9.2-17-1.9-4.4-4.5-12-5.8-17-1.2-5-2.5-12.5-2.9-16.8-.3-4.2-1-7.7-1.6-7.7-.5 0-2.6 2.6-4.6 5.7z" fill="#c18e08"/><path d="M646.3 503.1l-32 35c-.2.5 2.1 2.1 5 3.5 2.8 1.5 8.7 3.3 13 4 5.8 1.1 9.4 1.2 14.5.4 4.1-.6 9.8-2.5 14.7-4.9 5.9-2.9 9.5-5.5 13.8-10 3.1-3.4 7-8.9 8.7-12.4 1.6-3.4 3.5-9.6 4.1-13.7 1-6 1-9-.1-15-.7-4.1-2.8-10.5-4.7-14.3-1.8-3.7-3.7-6.7-4.2-6.7s-15.2 15.3-32.8 34.1zM521 507.2c-2.2 3.5-5.4 9.8-7 14-1.7 4.3-3.3 9.7-3.7 12l-.7 4.3 18.4-19.2c.3-.2.1-4.1-.3-8.8-.5-4.7-1.3-8.5-1.8-8.5s-2.7 2.8-4.9 6.2zm219.4 87.5l-35.6 38c-3.7 4-6.5 7.5-6 7.8.4.2 6.1-2.2 12.7-5.5s15.8-8.8 20.5-12.3c4.7-3.6 11.4-9.5 14.9-13.3 3.6-3.8 8.7-10.3 11.3-14.4 2.7-4.1 6.2-11 7.8-15.3 1.7-4.2 3.5-9.5 4-11.7.6-2.5.6-4 0-4-.5 0-13.8 13.8-29.6 30.7zm-185.7 6.5l-14.2 15.1c6.2 5.3 10.7 8.6 14 10.8s10 6 15 8.4c5 2.5 11.6 5.4 14.8 6.5l5.7 2 30.8-34c.1-.6-1.7-1.3-4-1.6-2.4-.4-7.7-1.8-11.8-3.1s-11.1-4.3-15.5-6.5-10.8-6-14.3-8.3l-6.2-4.4z" fill="#e0c70c"/><path d="M610.5 357c-10.3 1.9-11.2 2.3-14.6 5.8-2 2-31.8 34-66.3 71L467 501c-1.5 10.5-2 20.5-2 29 0 8.7.7 19.9 1.5 25.5.8 5.5 2.3 12.9 3.3 16.4.9 3.5 2.1 6.5 2.7 6.7.6.1 3.6-2.7 6.7-6.2l5.8-6.4c-.9-14.3-.7-22.3-.1-27s2.2-12.5 3.7-17.5c1.4-5 4.6-13.1 7.1-18s6.6-11.9 9.1-15.5c2.6-3.6 8-10 12.2-14.4 4.1-4.3 11-10.5 15.3-13.7 6-4.6 8.5-5.9 11.2-5.9 1.9 0 4.8.8 6.5 1.7 1.6 1 3.6 3 4.5 4.5.8 1.6 1.5 3.9 1.5 5.3s-.9 5.8-1.9 9.8c-1.1 3.9-2.2 9.6-2.5 12.4-.4 3.9-.3 5.3.6 5.2.7-.1 5.1-4.2 9.8-9.3 6.3-6.6 9.7-11.4 12.8-17.6 2.3-4.7 6.5-11.2 9.3-14.5 2.9-3.3 7.9-8.2 11.3-10.9s8.2-5.9 10.8-7.2c3.7-1.9 12.3-10.4 37.5-37.5l33.1-36.3c.2-.6-2.3-1.7-6-2.5-3.8-.8-14.7-1.5-27.8-1.7-18.2-.3-23.2 0-32.5 1.6zm111.8 62.6l-26.5 28.8c-.4.6.9 3.3 2.9 6.1 1.9 2.7 5 8.1 6.9 12 1.8 3.9 4.1 9.9 5.1 13.5 1.3 4.7 1.8 10.2 1.8 19.7 0 7.3.2 13.3.5 13.3.3.1 4.1-3.7 8.4-8.2l7.9-8.3c-1-11.6-2.2-18.4-3.3-22.5-1.3-4.5-1.9-8.7-1.5-10.5.3-1.6 1.8-4.2 3.3-5.8 1.5-1.5 4.1-3 5.7-3.3 1.6-.4 4.2-.4 5.7 0 1.6.3 6.2 3.3 10.3 6.6l7.5 6 27.9-30.2 2.6-2.7c-11.6-15.2-19.2-23.8-24.5-29-5.2-5.1-10.7-10.2-12.2-11.2l-2.6-1.9zM804.2 524l-9.3 10c1.1 16.6.8 23.9.1 29.5-.7 4.9-2.4 12.6-3.8 17s-4.4 11.8-6.8 16.5c-2.3 4.6-6.7 11.8-9.6 16-2.9 4.1-9.1 11.3-13.8 16-4.7 4.6-12.9 11.5-18.1 15.2s-14.4 9.2-20.5 12.2c-6 3-15 6.8-20 8.5-4.9 1.8-12.3 4-16.5 5-4.1 1.1-10.6 2.4-14.5 3l-7 1.1-27.2 30c-.2.6 3.6 1 9.5 1 5.4 0 15.4-1 22.2-2.1 6.9-1.2 17.9-3.8 24.5-6 6.6-2.1 16.5-6.1 22-8.7 5.5-2.7 13.2-6.9 17-9.3 3.9-2.3 10.9-7.3 15.5-10.9 4.7-3.6 12.1-10.1 16.5-14.6 4.4-4.4 11.4-12.5 15.6-18 4.1-5.4 9.7-13.8 12.3-18.4 2.7-4.7 6.8-13 9.1-18.5 2.4-5.5 5.5-14.1 6.9-19 1.5-5 3.3-12.6 4.2-17 .8-4.4 1.9-13.4 2.4-20 .6-6.6.7-15.7.4-20.3-.3-4.5-.8-8.2-1.2-8.2s-4.8 4.5-9.9 10zm-214.3 37.2c-3 3-5.3 5.7-5.2 6 .1.4 3.5 2.9 7.5 5.5 4 2.5 9.9 5.7 13.2 7.1 3.3 1.3 9.2 3.3 13 4.3 3.9 1 11.3 2.1 16.5 2.5l9.5.7c12.9-13.8 16.6-18.2 16.6-18.6s-1.3-.5-2.8-.2-8.2.8-14.8 1.1c-7.5.4-14.2.1-18-.6-3.3-.7-9.1-2.5-13-4.1-3.8-1.6-9-4.3-11.5-5.9-2.4-1.7-4.7-3-5-3s-3 2.3-6 5.2zm-73.7 79l-6.8 7.1c16.4 15.6 25.2 22.9 30.1 26.3 4.9 3.3 10.5 6.9 12.4 7.8 2.9 1.4 3.7 1.5 4.6.4.6-.7 4.3-4.8 8.3-9.1 3.9-4.2 7.2-8.1 7.2-8.5s-4.8-3.1-10.8-6.1c-5.9-2.9-13.5-6.9-16.8-8.9s-9.4-6.5-13.7-9.9l-7.8-6.2z" fill="#f4e52c"/></svg>