<svg xmlns="http://www.w3.org/2000/svg" width="1280" height="1280" xmlns:v="https://vecta.io/nano"><path d="M392.5 276.1c-3.3.5-9.4 1.7-13.5 2.8-4.1 1-11.1 3.4-15.5 5.2s-11.3 5.5-15.3 8.1c-3.9 2.6-10 7.6-13.4 11.1-3.5 3.4-8.4 9.4-11 13.2-2.6 3.9-6 10-7.7 13.7-1.7 3.8-4.2 10.5-5.5 15-1.3 4.6-3.1 13-3.9 18.8-.9 5.8-1.9 15.9-2.2 22.5l-.7 12c-16.5 3.6-26.5 6.2-32.8 8s-16 5-21.5 7-14.1 5.7-19 8c-4.9 2.4-12.5 6.6-16.8 9.4-4.2 2.8-11.1 8.4-15.3 12.3-4.2 4-9.6 10-12 13.3-2.3 3.3-5.8 9.4-7.7 13.5s-4.2 10.4-5 14c-.9 3.6-1.9 9.4-2.3 13-.3 3.6-.1 10.5.6 15.5.6 5 2.3 12.8 3.6 17.5 1.4 4.7 5.4 14.3 8.9 21.5 3.5 7.1 11.8 21.3 18.5 31.5l15.9 25c2.1 3.6 4.3 8.1 4.9 10s1.6 7.3 2.1 12c.6 4.7 1.5 18.2 2.1 30s1.7 27.4 2.5 34.5 2.6 17.5 3.9 23c1.4 5.5 4 13.6 5.8 18 1.9 4.4 5.2 10.7 7.5 14 2.2 3.3 7.2 9 11.2 12.7 4.9 4.7 9.6 8 15.3 10.8 4.6 2.2 11.2 4.7 14.8 5.6s10.3 1.7 15 1.7c4.7.1 11.2-.2 14.5-.6l6-.8c6 16 9.8 25.1 12.2 30.6 2.5 5.5 6.6 13.8 9.1 18.5s7.3 13 10.7 18.5 8.6 13.4 11.5 17.5 8.7 11.8 12.9 17 13.1 15.1 19.7 22c6.7 6.9 17.2 16.8 23.3 22 6.2 5.2 16.5 13.3 22.9 17.9s17.3 11.7 24.2 15.8c6.9 4 17.7 9.9 24 13s16.2 7.5 22 9.8 15.7 5.9 22 8c6.3 2 16.9 5 23.5 6.5 6.6 1.6 17.4 3.8 24 4.9s18.5 2.5 26.5 3.2c9.3.7 22.4 1 36.5.6 12.1-.3 27-1.3 33-2.1 6-.9 16.9-2.8 24-4.2s19.1-4.4 26.5-6.6 19.8-6.4 27.5-9.5c7.7-3 21.2-9.2 30-13.7 8.8-4.4 23.2-12.9 32-18.8 8.8-5.8 19.8-13.7 24.5-17.5 4.6-3.7 12.9-10.9 18.5-15.9 5.5-4.9 14.1-13.5 19-19 5-5.4 11.7-13.3 15.1-17.4 3.3-4.1 8.8-11.3 12.1-16 3.4-4.7 9.1-13.5 12.8-19.5s10.2-18.2 14.5-27 9.7-21.1 12.1-27.3l4.4-11.3c5.4.8 9.5 1.3 12.5 1.6s9.3.1 14-.5c4.7-.7 11.2-2 14.5-3.1 3.3-1 8.9-3.5 12.4-5.6 3.6-2.1 9.1-6.3 12.4-9.3s7.8-8.2 10-11.5c2.3-3.3 5.5-9.2 7.3-13 1.8-3.9 4.2-10.4 5.3-14.5 1.2-4.1 2.8-11.3 3.5-16 .8-4.7 1.9-13.5 2.5-19.5s1.5-20.5 2.1-32 1.5-24.4 2.1-28.5 2.2-10 3.5-13c1.4-3 7.9-13.6 14.3-23.5 6.5-9.9 14.4-22.5 17.6-28 3.1-5.5 7.5-14.3 9.8-19.5 2.2-5.2 5-13.8 6.4-19 1.8-7.3 2.3-12.2 2.3-21 0-8-.6-13.8-1.9-19-1-4.1-3.5-10.9-5.6-15s-5.6-10.2-8-13.5c-2.3-3.3-7.3-8.9-11.1-12.4s-10.1-8.5-13.9-11.1-11.5-7-17-9.7c-5.5-2.8-14.3-6.6-19.5-8.6-5.2-1.9-14.5-5-20.5-6.7-6-1.8-16.4-4.4-23-5.9l-12-2.7c-1-22.4-2-33.2-2.9-38.4s-3-13.4-4.6-18.3c-1.7-4.8-4.4-11.5-6.1-15-1.7-3.4-5-8.9-7.4-12.2-2.3-3.3-7.8-9.4-12.2-13.5s-11.5-9.5-15.9-12c-4.3-2.5-12.2-5.9-17.4-7.7-5.2-1.7-14.7-3.9-21-4.8-8.8-1.3-15.2-1.6-27-1.2-11.4.4-18.3 1.2-26 3.1-5.8 1.3-14.5 3.9-19.5 5.6-5 1.8-13.7 5.4-19.5 8.2-5.8 2.7-15.7 8-22 11.7-6.3 3.8-16.9 10.7-23.5 15.5-6.6 4.7-17.2 12.9-23.5 18.1-6.3 5.3-16 13.8-21.5 18.9-9.4 8.7-10.2 9.2-13 8.4-1.6-.5-27.1-.8-56.5-.8l-53.5.1c-19.2-17.5-30-26.8-36.4-31.9-6.4-5.2-17.5-13.3-24.6-18.1s-17.9-11.6-24-14.9c-6.1-3.4-15.9-8.2-22-10.7-6.1-2.6-15.3-5.9-20.5-7.5-5.2-1.5-14-3.5-19.5-4.4-6-.9-15.4-1.5-23.5-1.5-7.4.1-16.2.5-19.5 1z" fill="#fff"/><path d="M395.5 281c-6.6 1-15.1 2.7-19 3.9-3.9 1.1-9.7 3.2-13 4.7-3.3 1.4-8.9 4.5-12.5 6.9s-9.4 7.3-13 10.9c-3.6 3.7-7.8 8.5-9.4 10.9-1.6 2.3-4.8 8.3-7.2 13.2s-5.4 13.3-6.8 18.5c-1.3 5.2-2.9 13.8-3.5 19s-1.3 14.9-1.5 21.5l-.5 12-40.1 9.9c-5.2 1.5-14.4 4.7-20.5 7-6.1 2.4-13.9 5.8-17.5 7.6s-10.3 5.7-15 8.7c-4.7 3.1-12.1 9.2-16.5 13.7-4.5 4.4-9.7 10.8-11.7 14.1s-4.9 9.1-6.3 13c-1.5 3.9-3.3 10.3-4.1 14.3-.8 3.9-1.4 9.8-1.4 13 0 3.1 1.2 10.7 2.5 16.7 1.4 6 4.4 15.3 6.6 20.5 2.3 5.2 6.7 14 9.9 19.5 3.1 5.5 10.2 16.8 15.7 25 5.4 8.3 11.7 18.1 13.8 22 2.2 3.9 4.5 9.5 5.2 12.5s1.7 12.3 2.2 20.5l2.2 33.5c.6 10.2 1.9 23.7 2.9 30 1.1 6.3 3.1 15.3 4.6 20 1.4 4.7 4.5 12.1 6.7 16.5 2.9 5.6 6.4 10.3 11.7 15.6 4.3 4.3 10.3 9.1 14 11.2 3.6 2 10.3 4.6 15 5.8 7.4 1.9 10.2 2.1 21.5 1.5l15.3-.8c2.2-.3 2.7.7 6.2 10.2 2.1 5.8 5.3 14.1 7.2 18.5 2 4.4 5.6 12.2 8.2 17.3 2.5 5 7.5 14 11 20 3.5 5.9 9.4 15 13.1 20.2a475.47 475.47 0 0 0 14.4 19c4.2 5.2 13.9 15.8 21.6 23.6 7.7 7.7 18.7 17.9 24.5 22.5 5.8 4.7 14.3 11.3 19 14.6s12.8 8.7 18 11.9c5.2 3.1 14.4 8.3 20.5 11.5s16.2 8 22.5 10.7 17.1 6.8 24 9.1 17.9 5.6 24.5 7.2c6.6 1.7 18.3 4.1 26 5.4s20.5 3 28.5 3.7 19.2 1.3 25 1.3 17-.6 25-1.3 20.8-2.4 28.5-3.7 18.7-3.5 24.5-5 15.5-4.2 21.5-6.2c6-1.9 15.3-5.2 20.5-7.3s13.5-5.7 18.5-8 15.3-7.7 23-12.1 19.3-11.7 25.7-16.2 16.5-12.2 22.5-17.2c5.9-4.9 16.2-14.4 22.8-21s16.5-17.7 22-24.5c5.6-6.9 13.9-18.4 18.7-25.5 4.7-7.1 11.2-18 14.5-24 3.4-6 8.6-16.7 11.7-23.8 3.1-7 7.1-17 8.9-22.3 3.1-9.1 3.3-9.5 5.7-8.9 1.4.3 7.9.9 14.5 1.2 7.9.4 14.2.2 18.5-.6 3.6-.7 8.8-2.2 11.5-3.4 2.8-1.1 7.9-3.9 11.5-6.2 3.6-2.4 8.7-6.7 11.4-9.6 2.6-3 6.3-7.9 8.2-10.9 1.8-3 4.7-9.3 6.4-14s3.8-11.4 4.6-15c.9-3.6 2.2-11 2.9-16.5.8-5.5 2.1-22.8 3-38.5s2.3-32.1 3-36.5c.9-4.8 2.7-10.4 4.6-14 1.7-3.3 8.9-14.8 15.9-25.5s15.1-23.8 17.8-29c2.8-5.2 6.7-13.5 8.6-18.5s4.4-13.5 5.5-19c1.2-5.5 2.1-12.4 2.1-15.2 0-2.9-1.1-9.7-2.5-15-1.4-5.4-4.3-13.4-6.4-17.8-2.2-4.4-6.5-11-9.5-14.7-3.1-3.8-8.9-9.4-12.8-12.6-4-3.1-10.9-7.8-15.3-10.4s-12-6.5-17-8.6c-5-2.2-14.6-5.8-21.5-8-6.9-2.3-17.9-5.5-24.5-7.1l-18-4.1-6-1.2c-1.1-27.1-2.1-37.4-3.5-44.3-1.2-6.1-3.5-14.6-5.1-19s-4.9-11.5-7.4-15.8c-2.5-4.2-7.3-10.7-10.7-14.3-3.5-3.7-9-8.6-12.3-11-3.3-2.3-9.8-6.1-14.5-8.3-4.7-2.1-12.1-4.9-16.5-6s-14.1-2.8-21.5-3.7c-13.3-1.6-13.7-1.6-28.5.6-8.2 1.2-19.3 3.5-24.5 5-5.2 1.6-14.5 5-20.5 7.5-6 2.6-15.3 7.1-20.5 10-5.2 2.8-12.8 7.3-16.8 9.9-3.9 2.5-11.4 7.6-16.4 11.3-5.1 3.6-14 10.5-19.8 15.2-5.7 4.7-16 13.7-22.7 19.9L697 371c-7.2-1.6-28.7-2-57-2s-49.8.4-52.5 1l-4.5 1-24.5-21.9c-5.5-4.8-14.5-12.3-20-16.6S522.9 321 516 316.4c-6.9-4.5-18.1-11.2-25-14.8-6.9-3.5-16.6-8.1-21.5-10.1s-13.1-4.7-18-6.1c-4.9-1.3-14.9-3.3-22-4.4s-15-2-17.5-1.9-9.9.9-16.5 1.9z"/><path d="M395.5 317.4c-3.9.7-9.3 2-12 3-2.8.9-7.1 2.8-9.8 4.4-2.6 1.5-7.2 5.2-10.2 8.2-3.4 3.4-6.9 8.2-9 12.5-1.8 3.9-4 9.7-4.9 13-.8 3.3-2 10.1-2.7 15-.8 6.2-1 17.5-.5 36l1.2 53c.5 19.6.2 32.7-1.1 53-1.1 17.7-1.6 33.5-1.2 46 .4 15.1.9 20.6 2.6 27 1.2 4.4 3.3 10.5 4.8 13.5s5.5 8.4 8.8 11.8c4.2 4.5 8.1 7.4 13 9.8 3.9 1.9 10.6 4.3 15 5.5 5.4 1.4 12.6 2.3 22 2.6 8.4.4 16.6.1 20.5-.5 3.6-.6 10.1-2.3 14.5-3.8s12.3-4.8 17.5-7.4 13.6-7.5 18.5-10.7c4.9-3.3 12.8-9 17.5-12.7s13.9-11.6 20.5-17.6 16.1-15.3 21.1-20.7 12.2-13.4 16-17.8c3.9-4.4 10.3-12 14.2-17l7.2-9V420c-15.3-16.7-24.4-25.8-30.1-31-5.7-5.3-13.8-12.5-17.9-16.1-4.1-3.5-12-9.9-17.5-14l-16-11.6c-3.3-2.2-10.7-6.7-16.5-10.1-5.8-3.3-15.4-8.1-21.5-10.7-6.1-2.5-15.3-5.8-20.5-7.2-7.3-1.9-12.7-2.6-23-2.9-8.6-.2-16 .1-20.5 1zm453 .2c-4.4.8-11.8 2.8-16.5 4.3-4.7 1.6-12.8 4.9-18 7.3s-14.9 7.7-21.5 11.7-17 11-23 15.5-16 12.4-22 17.5c-6 5.2-19 17.4-28.8 27.2L701 419v96l21.8 26.5c4.7 5.5 15.8 17.2 24.6 26 8.9 8.8 21.7 20.5 28.6 26s16.3 12.5 21 15.6c4.7 3 11.4 7.1 15 9.1s10.5 5.2 15.5 7.1c5 2 12.8 4.3 17.5 5.3 6.7 1.3 11.6 1.6 23 1.1 10-.4 17-1.2 22.5-2.7 4.4-1.1 10.9-3.5 14.5-5.2 4-1.9 8.9-5.5 12.7-9.2 4.4-4.4 7.1-8.2 9.6-13.6 1.9-4.1 4.3-10.9 5.2-15 1.1-4.8 1.9-13.5 2.3-24 .3-10.5-.2-25.5-1.3-41.5-1-13.7-1.8-33.8-1.8-44.5s.5-31.2 1.3-45.5c.7-14.8 1-32.9.7-42-.4-10.1-1.4-19.5-2.6-25.5-1.2-5.2-3.7-12.9-5.7-17-2.5-5.2-5.5-9.4-9.8-13.6-3.8-3.8-8.6-7.2-12.6-9.2-3.6-1.7-9.4-3.8-13-4.7-3.7-.9-12.4-1.8-20-2-9.5-.3-15.9 0-21.5 1.1zm-257 89.4c-1.6 1.1-3.8 3.4-4.8 5.2-1.6 3-1.7 7.6-1.7 55.3 0 50.2.1 52.1 2 55.3 1.1 1.7 3.5 4 5.2 5 3 1.5 7.3 1.7 47.8 1.7 42.7 0 44.6-.1 47.8-2 1.9-1.1 4.2-3.7 5.3-5.7 1.8-3.6 1.9-6.6 1.9-54.3 0-40.5-.3-51.1-1.4-53.7-.7-1.8-2.6-4.4-4.1-5.8l-2.7-2.5c-90.8-.5-92.4-.5-95.3 1.5zM324 436.6c-7.4 1.3-21.4 4.4-31 6.8s-22 6-27.5 8.1c-5.5 2-14.3 5.9-19.5 8.6s-12.1 6.9-15.3 9.4c-3.1 2.5-7.4 6.6-9.5 9.3-2.1 2.6-4.8 7.3-6 10.5-1.6 4.1-2.2 7.8-2.2 13.5 0 4.2.7 10.4 1.6 13.7.8 3.3 3.9 11 6.9 17 2.9 6 11.2 20 18.5 31 7.2 11 14.6 22.7 16.4 26s4.5 9.2 5.9 13c1.4 3.9 3.2 12.2 4.1 18.5.8 6.3 2 21 2.6 32.5l1.5 27c.3 3.3 1.1 9.4 1.6 13.5.6 4.1 1.9 10.8 3 14.8 1 3.9 3 9.5 4.4 12.2 1.4 2.8 4 6.7 5.8 8.8 1.9 2 5.8 4.8 8.8 6.1 4.9 2.1 6.4 2.3 15.4 1.8 7.9-.4 11.9-1.1 19-3.7 4.9-1.8 11.1-4.3 13.8-5.6 4.6-2.3 4.7-2.5 4.2-6.1-.3-2.1-1.1-9.2-1.9-15.8s-1.8-17.2-2.1-23.5c-.6-10-.5-11.7 1-13.2 1.5-1.7 5.4-1.8 52.3-1.8h50.7c9.3-5.5 15.4-9.7 19.5-12.8s11.4-9.5 16.1-14.2 11.4-12.1 14.9-16.5c3.4-4.4 8.9-11.8 12-16.5s7.1-11 8.9-14c1.7-3 2.9-5.8 2.6-6.2-.3-.5-5.6 3.4-11.8 8.5-6.1 5.1-15.7 12.2-21.2 15.9-5.5 3.6-13.4 8.4-17.5 10.7-4.1 2.2-11.1 5.4-15.5 7.1-4.4 1.8-11.8 4-16.5 5.1-5.7 1.2-12.5 1.9-20.5 1.9-6.6 0-16.1-.7-21-1.5s-11.7-2.4-15-3.5c-3.3-1.2-8.7-3.5-12-5.3-3.3-1.7-8.7-5.9-12-9.2-4-3.9-7.4-8.6-9.8-13.5-2-4.1-4.7-11.1-5.8-15.5-1.8-6.6-2.3-11.8-2.6-29-.3-13.8 0-28.9 1.1-44 .9-12.6 1.6-32 1.6-43s-.2-24.4-.5-29.7c-.5-8.5-.8-9.8-2.3-9.7-.9 0-7.8 1.2-15.2 2.5zm614.5 4.7c-.4 3.9-.7 18.2-.7 31.7s.7 34.2 1.6 46 1.6 28.3 1.6 36.5c0 8.4-.7 19.4-1.5 25-.9 5.5-2.7 13.1-4 17-1.4 3.9-4.6 10.1-7.2 13.9-2.7 3.8-7.1 8.7-9.8 10.9-2.8 2.1-7.3 5-10 6.4-2.8 1.4-7.3 3.4-10 4.3-2.8 1-9.7 2.5-15.5 3.5-8 1.4-13.8 1.6-24.5 1.3-11.2-.5-15.8-1.1-23-3.2-5-1.5-13.5-4.9-19-7.5s-13.6-7-18-9.7-11.8-7.8-16.5-11.4c-4.7-3.5-11.5-9-15.3-12.2-3.7-3.2-7.2-5.8-7.7-5.8s.2 2.1 1.7 4.8c1.4 2.6 5.1 8.5 8.1 13.2s8.1 11.9 11.2 16 9.5 11.5 14.1 16.4 12 11.8 16.4 15.3 11.3 8.4 15.3 10.9l7.2 4.4 102.5.5c1.2.4 1.5 2.6 1.5 11.8 0 6.1-.7 17.3-1.6 24.7-.8 7.4-1.8 15.2-2.2 17.2l-.7 3.7c11.6 5.4 18.1 8 22 9.3 5.6 1.8 9.2 2.3 18 2.3 10.2 0 11.4-.2 15.8-2.7 2.6-1.6 6.3-4.9 8.2-7.5 2-2.7 4.5-7.3 5.6-10.3s2.7-8.2 3.4-11.5c.8-3.3 1.9-9.1 2.4-13 .6-3.9 1.7-19.6 2.6-35s2.2-32.5 3-38 2.4-12.7 3.5-16c1.2-3.3 3.9-9.4 6.1-13.5 2.3-4.1 9.9-16.3 16.9-27 7.1-10.7 15.1-24 17.9-29.5 2.7-5.5 6-13.8 7.2-18.5 1.6-6.2 2-10.4 1.7-15.5-.3-4.8-1.3-8.9-3.2-13-1.5-3.3-4.2-7.8-5.9-9.9-1.8-2.2-5.9-6-9.2-8.5s-9.6-6.4-14-8.8c-4.4-2.3-12-5.7-17-7.6s-14.9-5.1-22-7.1c-7.1-1.9-17.3-4.4-22.5-5.5s-14.7-3-21-4.1l-12.2-2c-.3 0-.9 3.3-1.3 7.3z" fill="#f2c43d"/><path fill-rule="evenodd" d="M639 545.1c7.3-.1 16.3.5 21.5 1.4 5 .9 12.6 2.6 17 4 4.4 1.3 13 4.8 19 7.8s14.6 8.2 19 11.4c4.4 3.3 11.8 10 16.5 14.9s11.1 12.7 14.2 17.4 7.2 11.9 9.2 16c1.9 4.1 4.6 11.1 6.1 15.5 1.4 4.4 3.3 12 4.2 17 .9 5.2 1.6 14.5 1.6 22s-.7 16.8-1.6 22c-.9 5-2.8 12.6-4.2 17-1.5 4.4-4.2 11.4-6.1 15.5-2 4.1-6.1 11.3-9.2 16s-9.5 12.5-14.2 17.4c-4.7 4.8-11.9 11.4-16 14.5s-12.7 8.3-19 11.5c-6.3 3.1-15.1 6.8-19.5 8.1-4.4 1.4-12 3.1-17 4-5 .8-14.2 1.5-20.5 1.5s-15.7-.7-20.8-1.5c-5-.8-12.9-2.7-17.4-4.1-4.6-1.5-11.7-4.2-15.8-6.1s-11.8-6.3-17-9.7c-5.2-3.5-13.2-9.9-17.6-14.2-4.5-4.4-10.8-11.5-14-15.9-3.3-4.4-8.2-12.5-11.1-18-2.8-5.5-6.4-14.3-8.1-19.5s-3.7-14.2-4.6-20-1.6-14.1-1.6-18.5.7-12.7 1.6-18.5 2.9-14.8 4.6-20c1.6-5.2 5.4-14.2 8.4-20s7.8-13.6 10.6-17.5c2.9-3.9 9.1-10.8 13.8-15.4s12.8-11.2 18-14.7c5.2-3.4 12.9-7.8 17-9.7s11.3-4.6 16-6.1 12.1-3.3 16.5-4.1c4.4-.7 13.6-1.3 20.5-1.4zM443 675l.5 6.7c.3 3.8 1 11.1 1.6 16.3s2.4 14.9 4.1 21.5c1.6 6.6 4.5 16.3 6.5 21.5 1.9 5.2 5.6 13.5 8.1 18.5 2.4 5 6.6 12.4 9.1 16.5 2.6 4.1 7.5 11.3 11.1 16 3.5 4.7 11.3 13.5 17.4 19.5 6.1 6.1 15.1 14.1 20.1 17.8s13.5 9.4 19 12.6c5.5 3.3 15.2 8.2 21.5 10.9s15.3 6.1 20 7.6c4.7 1.4 12.8 3.4 18 4.5s13.9 2.5 19.3 3c5.3.6 14.7 1.1 20.7 1.1s15.4-.5 20.8-1.1c5.3-.5 14.9-2.2 21.2-3.6s16.6-4.3 22.8-6.4c6.1-2.2 15.7-6.2 21.2-8.9 5.5-2.8 13-6.9 16.8-9.1 3.7-2.3 11-7.4 16.2-11.3s13.8-11.4 19-16.6 12.5-13.3 16.2-18c3.6-4.7 9.1-12.5 12.3-17.5 3.1-5 7.8-13.5 10.5-19 2.6-5.5 6.6-15.4 8.9-22 2.2-6.6 5.2-17.6 6.5-24.5 1.4-6.9 2.9-17.7 4.1-35.5l95-.5-.7 14.2c-.4 7.9-1.5 19-2.3 24.8-.9 5.8-2.8 15.7-4.2 22s-3.8 15.5-5.3 20.5-4.4 13.5-6.5 19c-2 5.5-7.2 17.2-11.5 26s-11.9 22.1-16.7 29.5c-4.9 7.4-12.6 18-17 23.5s-12 14.2-16.9 19.4-13.9 13.7-19.9 18.9-15.5 12.6-21 16.6c-5.5 3.9-14.7 10-20.5 13.4-5.8 3.5-15.7 8.9-22 11.9-6.3 3.1-16.7 7.6-23 10s-16.7 5.9-23 7.8c-6.3 1.8-16.2 4.2-22 5.4s-15.2 2.8-21 3.6-18.8 1.8-29 2.1c-11.6.4-23.7.2-32.5-.5-7.7-.7-19.2-2.1-25.5-3.2s-17.5-3.5-24.8-5.4c-7.2-1.9-18.9-5.6-26-8.1-7-2.5-18.6-7.4-25.7-10.8s-17.7-9.1-23.5-12.6-14.8-9.4-20-13.1-13.8-10.3-19-14.7-14.7-13.3-21-19.8c-6.3-6.6-14.6-15.7-18.3-20.4-3.8-4.7-10.6-14.1-15.2-21s-10.7-16.8-13.5-22c-2.9-5.2-7.9-15.4-11-22.5-3.2-7.2-7.8-19.3-10.3-27s-5.7-19.2-7.1-25.5-3.2-16-4.1-21.5c-.8-5.5-2-16.5-2.7-24.4s-.9-14.8-.5-15.3c.5-.4 21.9-.8 94.7-.8zm5.9 0h56.6l1.3 10.7c.8 6 2.4 14.8 3.6 19.8 1.3 5 4 13 6 18s5.4 11.9 7.5 15.5 6.6 10.1 9.8 14.5c3.3 4.4 9.8 11.6 14.4 16 4.7 4.4 12.3 10.5 16.9 13.6 4.7 3.1 11.9 7.4 16 9.4 4.1 2.1 12 5.2 17.5 7s13.1 3.9 17 4.6c4.6.9 13.5 1.4 26 1.3 17.9-.1 19.7-.3 30.5-3.1 6.3-1.7 15.5-4.8 20.5-6.9s12.9-6.3 17.7-9.4c4.8-3 12.2-8.3 16.3-11.8 4.1-3.4 10.5-9.7 14.1-14 3.6-4.2 8.5-10.6 10.8-14.2 2.4-3.6 6-9.9 8.1-14s5.2-12 7.1-17.5c1.8-5.5 4-14 4.9-19 .8-5 1.5-11.4 1.5-19.5h57v6.2c0 3.5-.7 11-1.5 16.8-.9 5.8-2.7 15-4.1 20.5s-4.1 14.3-6.1 19.5c-1.9 5.2-5.7 13.8-8.3 19s-7.5 13.5-10.7 18.5c-3.3 5-8.7 12.4-12 16.5s-10.3 11.6-15.4 16.6c-5.2 4.9-13 11.7-17.4 15s-12 8.4-17 11.4-13 7.3-18 9.6-13.3 5.6-18.5 7.4c-5.2 1.7-13.1 4-17.5 5s-13.3 2.6-19.8 3.4c-6.4.9-17 1.6-23.5 1.6-6.4 0-15.7-.5-20.7-1-5-.6-13.5-2-19-3.1s-14.7-3.6-20.5-5.5-15.2-5.7-21-8.5-13.9-7.1-18-9.6-10.9-7.1-15-10.1c-4.1-3.1-12.6-10.5-18.9-16.6-6.2-6.1-14.6-15.4-18.5-20.6-4-5.2-9.7-13.8-12.9-19-3.1-5.2-7.7-14.1-10.2-19.8-2.5-5.6-6-15.3-7.9-21.5-1.9-6.1-4.3-16.8-5.4-23.7s-2.3-16.2-2.6-20.8z" fill="#e8ca1d"/><path d="M632 562.7c-2.4.3-8.3 1.2-13 2s-11.6 2.6-15.5 4-9.9 4-13.5 5.8-9.9 5.7-14 8.6-10.6 8.5-14.5 12.4c-3.9 3.8-9.7 11.1-13 16-3.3 5-7.6 12.8-9.6 17.5s-4.7 12.5-6 17.5c-2.1 7.8-2.4 11.3-2.4 26s.3 18.2 2.4 26c1.3 5 4 12.8 6 17.5s6.3 12.5 9.6 17.5c3.3 4.9 9.1 12.2 13 16 3.9 3.9 10.4 9.5 14.5 12.4s10.4 6.8 14 8.6 9.6 4.4 13.5 5.8 11 3.3 16 4.2c5.6 1.1 13.6 1.8 21 1.8q12-.1 21.5-2.1c5.2-1.1 13.1-3.3 17.5-5s12-5.5 16.9-8.4c5.4-3.2 12.7-8.9 18.5-14.4 5.3-5 11.9-12.4 14.7-16.5s6.8-10.7 8.8-14.7c2-3.9 4.7-10.7 6.2-15 1.4-4.2 3.2-12 3.9-17.2.8-5.2 1.5-12.7 1.5-16.5 0-3.9-.7-11.3-1.5-16.5-.7-5.2-2.5-13-3.9-17.3-1.5-4.2-4.2-11-6.2-15-2-3.9-6-10.5-8.8-14.6s-9.4-11.5-14.7-16.5c-5.8-5.5-13.1-11.2-18.5-14.4-4.9-2.9-12.5-6.7-16.9-8.4s-12-3.8-17-4.8-12.8-2-17.5-2.3c-4.7-.2-10.5-.2-13 0z"/><path d="M628.5 569.1c-4.4.5-11.9 2-16.8 3.4-4.8 1.4-11.5 3.8-14.9 5.3-3.5 1.6-9.4 4.8-13.3 7.3s-10.3 7.6-14.4 11.5c-4.1 3.8-9.6 9.8-12.3 13.4-2.8 3.6-7.4 11.5-10.4 17.5-2.9 6-6.3 14.8-7.5 19.5-1.2 5.1-2.3 13.4-2.6 21-.3 7.8-.1 15.3.7 20 .7 4.1 2.3 11.1 3.7 15.5s4.1 11.1 6 15c2 3.9 5.9 10.3 8.7 14.4 2.8 4 8.5 10.6 12.6 14.5s10.6 9.2 14.5 11.8 10 6 13.8 7.7c3.7 1.7 10.6 4.2 15.5 5.6 4.8 1.4 13 2.9 18.2 3.4 5.6.6 13.6.6 19.5 0 5.5-.5 14-2 19-3.5 5-1.4 12.6-4.4 17-6.6s10.7-5.8 14-8.1c3.3-2.2 9.6-7.7 14-12.1 4.4-4.5 10.3-11.5 13-15.6s6.7-11.5 8.8-16.5 4.8-12.8 6-17.5c1.7-6.9 2.1-11.4 2.1-24-.1-13.5-.4-16.8-2.8-25.5-1.4-5.5-4.6-14-7-19s-7.1-12.6-10.4-17c-3.2-4.4-8.8-10.7-12.3-13.9s-9.1-7.7-12.4-9.9c-3.3-2.3-9.4-5.8-13.5-7.8-4.1-2.1-11.3-4.9-16-6.3-4.7-1.3-13.2-2.9-19-3.5s-11.2-1.1-12-1-5.1.5-9.5 1z" fill="#e8ca1d"/><path fill-rule="evenodd" d="M639 545.1c6.9 0 15.4.4 19 .9l8.3 1.5c.9.3 1.7.8 1.7 1.2 0 .5-2.7 3.8-12 14.3l-13.8-.2c-9.5-.1-16.4.4-22.7 1.6-5 1-12.1 2.9-16 4.3s-9.9 4-13.5 5.8-9.9 5.7-14 8.6-10.6 8.5-14.5 12.4c-3.9 3.8-9.7 11.1-13 16-3.3 5-7.6 12.8-9.6 17.5s-4.6 12.3-5.9 17c-1.4 5.6-2.3 12.9-2.7 21.5-.3 7.6-.1 16 1.7 27.5l-6.3 7.4c-3.4 4.1-6.7 7.3-7.2 7.2-.5-.2-1.6-2.3-2.3-4.7-.6-2.4-1.9-8.9-2.7-14.4s-1.5-13.6-1.5-18 .7-12.7 1.6-18.5 2.9-14.8 4.6-20c1.6-5.2 5.4-14.2 8.4-20s7.8-13.7 10.6-17.5c2.9-3.9 9.1-10.8 13.8-15.4s12.8-11.2 18-14.7c5.2-3.4 12.9-7.8 17-9.7s11.3-4.6 16-6.1 12.1-3.3 16.5-4.1c4.4-.7 13.6-1.3 20.5-1.4zm3.5 23.5c3.3.3 6.1.7 6.2.9.2.3-24.5 27-54.7 59.5l-56 59c-.5 0-1.3-1.7-1.6-3.8-.4-2-.4-9.3-.1-16.2.3-7.5 1.4-15.9 2.6-21 1.2-4.7 4.6-13.5 7.5-19.5 3-6 7.6-13.9 10.4-17.5 2.7-3.6 8.2-9.6 12.3-13.4 4.1-3.9 10.5-9 14.4-11.5s9.8-5.7 13.3-7.3c3.4-1.5 10.1-3.9 14.9-5.3 4.9-1.4 12.4-3 16.8-3.4 4.4-.5 10.7-.7 14-.5zm91.8 18.5c.4 0 2.7 2.5 5.2 5.6 2.5 3.2 6.7 9.2 9.3 13.3s6.4 11.4 8.4 16.2c2.1 4.9 4.4 10.8 6.3 17.7l-6.5 6.8c-3.6 3.8-7 6.9-7.5 7.1-.5.1-2-3.9-3.3-9-1.3-5.5-4.5-13.8-7.7-20.3-2.9-6-7.8-14.2-16.2-25l5.6-6.1c3.1-3.4 5.9-6.2 6.3-6.3zM718.2 605c.5 0 2.9 2.6 5.4 5.7 2.5 3.2 6.8 10.3 9.5 15.8 3 5.9 6 14.1 7.5 20 1.4 5.5 2.5 11.1 2.5 12.5 0 1.9-12.3 15.7-106.2 116.5l-8.2-.2c-5.3-.1-11.2-1-17.1-2.8-5-1.4-13-4.6-18-7s-10.5-5.7-12.4-7.2c-3.2-2.6-3.3-3-2-4.9.8-1.1 32.2-35 69.7-75.2l69.3-73.2zm-275.1 70l.5 6.7c.3 3.8 1 11.1 1.6 16.3s2.4 14.9 4.1 21.5c1.6 6.6 4.5 16.3 6.5 21.5 1.9 5.2 5.2 12.9 11 24.5l-29.9 32-37.3 39.7-5.1-7.9c-2.8-4.3-7.5-12.1-10.4-17.3s-7.9-15.4-11-22.5c-3.2-7.1-7.8-19.3-10.3-27s-5.7-19.2-7.1-25.5-3.2-16-4.1-21.5c-.8-5.5-2-16.5-2.7-24.4s-.9-14.8-.5-15.3c.5-.4 21.9-.8 94.7-.8zm5.9 0h56.6l1.3 10.7c.8 6 2.4 15.1 3.8 20.3 1.9 7.6 2.1 9.8 1.1 11-.7.8-10 10.9-20.7 22.3s-19.8 20.8-20.2 20.7c-.5 0-2.8-4.7-5.3-10.5s-6-15.6-7.9-21.8c-1.9-6.1-4.3-16.8-5.4-23.7s-2.3-16.2-2.6-20.8zm423.5 0c29.4 0 35.5.3 35.3 1.4-.2.8-24.8 27.6-54.8 59.7l-59 63.2c-2.5 2.7-5.1 4.8-5.7 4.8-.7 0-1.3-.3-1.3-.6 0-.2 3.1-4.4 6.9-9.2s9.5-12.8 12.6-17.8c3.1-4.9 7.8-13.5 10.5-19 2.6-5.5 6.6-15.4 8.9-22 2.2-6.6 5.2-17.6 6.5-24.5 1.4-6.8 2.8-17.2 3.2-23 .3-5.7.7-11 1-11.7.3-1 8.3-1.3 35.9-1.3zm-43.3 3c.5 0 .8 2.4.8 5.3s-.7 10-1.5 15.7c-.9 5.8-2.7 15-4.1 20.5s-4.1 14.3-6.1 19.5c-1.9 5.3-5.7 13.8-8.3 19-2.6 5.3-7.5 13.6-10.7 18.5-3.3 5-8.7 12.4-12 16.5-3.3 4.2-10.3 11.6-15.4 16.6-5.2 5-13 11.8-17.4 15-4.4 3.3-12 8.4-17 11.4-4.9 3-13 7.3-18 9.6-4.9 2.3-13.7 5.8-19.5 7.7s-15 4.4-20.5 5.5c-5.5 1.2-12.4 2.3-15.2 2.7-4.3.4-5.2.3-5-.9.1-.8 38.2-42.2 84.7-92l85.2-90.6zm-256.6 82c.2 0 3 1.8 6.2 3.9 3.1 2.1 8.5 5.3 12 7 3.4 1.7 10.1 4.5 15 6.1 4.8 1.6 12 3.4 16 4 3.9.6 7.2 1.5 7.2 2 0 .6-3 4.3-13.5 15.3l-9.5-2.7c-5.2-1.4-13.3-4.3-18-6.4s-12.1-6-16.5-8.9c-4.4-2.8-8.5-5.7-9.2-6.4-.9-1.1 0-2.6 4.4-7.6 3-3.4 5.7-6.3 5.9-6.3zm-16.5 17.4l8.2 5.5c4.5 3 12.3 7.4 17.2 9.8 5 2.5 13.4 5.8 18.8 7.4 5.3 1.6 9.6 3.4 9.5 3.8-.2.5-9.5 10.8-20.7 22.8l-21 22.1c-.3.2-6-2.4-12.6-5.6-6.6-3.3-16-8.7-21-12-4.9-3.3-10.7-7.5-16.5-12.7zm348.4 12.7c.5 0 .8 1 .6 2.3-.2 1.2-3.2 7.9-6.8 14.7-3.5 6.9-10.2 18.2-14.7 25-4.6 6.9-12 17.3-16.6 23-4.6 5.8-14.3 16.4-21.4 23.6-7.2 7.1-17.4 16.4-22.6 20.6s-13.8 10.5-19 14.1-13.6 8.8-18.5 11.6c-5 2.9-9.4 5.2-9.8 5.1-.4 0-.6-.6-.5-1.4.2-.8 29.1-32.3 64.2-70l65.1-68.6zm-121.3 18.1c.4 0 .8.4.8.9 0 .6-32.2 35.6-143.2 154.5l-5.7.4c-3.1.1-11.5-.2-18.6-.8-7.2-.6-17.3-1.8-22.5-2.6l-16.3-3c-3.7-.8-6.7-1.9-6.7-2.5 0-.5 15.8-18 35.1-38.7l44.4-47.2 10-1.1c5.5-.6 15.2-2.2 21.5-3.6s16.5-4.3 22.7-6.5c6.2-2.1 15.8-6.1 21.3-8.9 5.5-2.7 13-6.8 16.7-9.1s10.8-7.2 15.8-10.9c4.9-3.8 12.4-10 16.5-13.9 4.1-3.8 7.8-7 8.2-7zm-269.8 15.1l3 2.5c1.7 1.3 8.5 6 15.1 10.4s16.4 10.2 21.7 12.7c5.4 2.6 9.8 5 9.8 5.2 0 .3-14.4 16.1-32.1 35l-33.4 36c-1.2 1.4-2.4.9-9.2-3.4-4.3-2.7-11.6-7.6-16.3-10.9s-11.8-8.7-23-17.7l4.7-5.4c2.6-3 17.1-18.7 32.2-34.9z" fill="#f4e52c"/></svg>