<svg xmlns="http://www.w3.org/2000/svg" width="1280" height="1280" xmlns:v="https://vecta.io/nano"><path d="M398.5 236.7c-2.2.2-7.8 1.1-12.5 1.9-4.7.9-12.1 2.7-16.5 4.1s-10.7 3.9-14 5.6c-3.3 1.6-8 4.3-10.5 6s-7.6 6-11.4 9.6c-3.7 3.6-8.8 9.3-11.1 12.6-2.4 3.3-6 9.6-8.1 14-2 4.4-4.8 12.3-6.2 17.5-2.1 8.2-2.5 12.4-2.9 30l-.5 20.5c-13.4 4.4-22.5 7.8-28.8 10.2-6.3 2.5-16.9 7.3-23.5 10.6-6.6 3.4-16 8.8-21 12.2-4.9 3.3-12.7 9.6-17.4 14-4.6 4.4-10.3 10.7-12.6 14-2.4 3.3-5.7 8.8-7.4 12.3-1.7 3.4-4.1 9.7-5.3 14-1.8 6.1-2.2 10.3-2.2 20.2 0 6.9.6 15.9 1.3 20s2.5 11.1 3.8 15.5c1.4 4.4 4.5 11.8 6.8 16.5 2.4 4.7 6.7 11.9 9.6 16s11.7 14.1 19.6 22.3L242 571c-5 7.4-8.3 13.5-10.6 18.5s-5.2 11.9-6.4 15.5-3 10.3-4.1 15c-1 4.7-1.9 10-1.9 11.8 0 2.5-1.1 4.3-5.3 8.5-2.9 2.8-6.6 7.9-8.2 11.2-2.6 5.4-3 7.2-3.3 18-.2 6.6.1 16.3.8 21.5.6 5.2 2.2 14.2 3.6 20s4.4 15.2 6.7 21c4 10.1 4.2 11 4.3 22 .1 7.5.9 15.2 2.3 22 1.2 5.8 3.6 14.5 5.2 19.5 1.7 5 5 13.3 7.5 18.5s7.4 13.8 10.8 19 9.8 13.7 14.2 18.9c4.3 5.2 12 13.1 16.9 17.5 7.6 6.8 9.3 8.9 11 13.6 1.1 3 3.8 8.6 5.9 12.5 2.2 3.9 6.7 11 10 15.9 3.4 4.9 9.3 12.6 13.1 17 3.9 4.5 11.1 11.4 16 15.5 5 4.1 12.1 9.5 16 12s10.8 6.4 15.5 8.8 11.9 5.6 16 7.2c4.1 1.5 12 4 17.5 5.4 5.5 1.5 14.5 3.3 20 4.2 5.5.8 12.1 1.5 14.7 1.5 4.3 0 5.7.7 13 6 4.6 3.3 13.7 8.7 20.3 12s16.7 7.5 22.5 9.4 14.8 4.2 20 5.2l9.5 1.9c12.9 12.9 17.3 16.2 23 19.2 4.4 2.3 10.7 4.8 14 5.7s8.2 1.6 11 1.6c2.7 0 6.8-.5 9-1.1s18.2-7.8 35.5-16.1l31.5-15 60.5 28.5c4.4 1.9 8.8 3.1 13.5 3.5 5.8.4 8.5.1 15.5-2.1 4.7-1.5 11.4-4.3 14.9-6.4 3.6-2.1 9.7-7 13.5-11 4-4.1 8-7.2 9.1-7.3 1.1 0 7.4-1.3 14-2.9s15.6-4.3 20-6 12-5.1 17-7.7c5-2.5 13-7.4 18-10.8l9-6.3c14.7-1 23.5-2.3 29-3.4s15.2-3.7 21.5-5.8 16-6.1 21.5-8.9c5.5-2.7 14.3-7.8 19.5-11.3 6.3-4.1 13.9-10.7 22.6-19.3 9.3-9.4 15.1-16.2 20.4-24.1 4-6 9.3-15 11.7-20s4.3-9.6 4.3-10.2c0-.7 5.9-7 13.1-14 7.2-7.1 15.3-15.5 17.9-18.8s7-9.4 9.7-13.5c2.8-4.1 7.4-12.2 10.3-18s6.7-15 8.6-20.5c1.8-5.5 4.1-13.6 5-18 1.1-4.9 1.9-13.3 2-21.5.3-13 .4-13.8 3.8-21.5 1.9-4.4 4.6-11.8 5.9-16.5 1.4-4.7 3.3-13 4.3-18.5 1.2-6.6 1.8-15.2 1.8-25.5.1-15 0-15.7-2.8-21.5-1.5-3.3-5.2-8.5-8.1-11.5-4.8-5-5.3-6-6-11.5-.4-3.3-1.8-10.3-3.2-15.5-1.3-5.2-4-13.3-6-18-1.9-4.7-5.7-12.2-8.4-16.7l-4.9-8.3c23.1-23.9 31-33.1 34.9-39 3.5-5.2 7.4-11.5 8.6-14 1.3-2.5 3.7-8.5 5.4-13.5 1.8-4.9 3.9-12.8 4.7-17.5s1.5-13.9 1.5-20.5c0-8.7-.5-14-1.9-19.5-1.1-4.1-3.1-10-4.4-13s-4.4-8.4-6.8-12-8.2-10.3-12.9-15c-4.9-4.9-13.4-11.8-19.6-15.9-6-4.1-16.8-10.2-24-13.6-7.1-3.5-19.1-8.6-26.5-11.3-7.4-2.8-15.5-5.6-18-6.2l-4.5-1.1c.5-20.5.2-30.4-.4-35.4-.6-4.9-2-12.6-3.1-17s-3.9-11.8-6.1-16.5-6-11.2-8.3-14.5c-2.4-3.3-7.2-8.7-10.7-12-3.6-3.3-9.1-7.8-12.4-10s-9.4-5.4-13.5-7.2-11.8-4.4-17-5.7-13.9-2.9-19.2-3.5c-5.4-.6-14.6-1.1-20.5-1.1-6 0-14.8.5-19.8 1.1s-14.9 2.6-22 4.4-17.3 5-22.5 7c-5.2 2.1-14 5.9-19.5 8.5-5.5 2.7-15.4 8.1-22 12-6.6 4-17 10.8-23 15.1S718.7 296 712.8 301c-10.7 8.9-10.8 9-14 7.8-2.4-.9-18.1-1.3-55.3-1.5-41.1-.3-53.5-.1-59 1l-7 1.4c-10.9-9.1-19-15.5-25-20.1s-16.4-11.9-23-16.1-19-11.1-27.5-15.4c-8.5-4.2-21.1-9.6-28-11.9s-16.3-5-21-6.1-12.6-2.4-17.5-3-14.4-1-21-.9-13.8.3-16 .5z" fill="#fefefe"/><path d="M396.5 242.1c-4.4.5-11.8 1.9-16.5 3s-11.9 3.4-16 5c-4.1 1.7-10.2 4.7-13.5 6.7s-9.3 6.8-13.4 10.7c-4 3.8-9.3 9.9-11.6 13.5-2.4 3.6-5.7 9.6-7.3 13.5s-3.6 9.9-4.5 13.5-2.1 9.9-2.7 14-1 14.9-.9 24l.1 16.5c-19.9 6.4-30.9 10.3-37.2 12.9s-15.8 7-21 9.8-13.3 7.6-17.9 10.7-11.6 8.5-15.4 12.1c-3.9 3.6-9.2 9.4-11.9 13s-6.5 9.6-8.4 13.5c-1.8 3.9-4.2 11.1-5.3 16-1.2 4.9-2.1 12.1-2.1 16s.8 11.7 1.9 17.5c1 5.8 3.1 14.1 4.6 18.5 1.4 4.4 4.3 11.1 6.3 15 2 3.8 6.3 10.6 9.6 15 3.2 4.4 12.4 14.6 20.5 22.8 14 14.1 14.5 14.8 13.2 17-.8 1.2-3.3 5.1-5.5 8.7s-5.4 9.9-7.2 14-4.4 11.5-5.9 16.5c-1.4 5-3.3 13.3-4.1 18.5-1.2 7.8-1.9 9.8-3.7 11-1.2.8-3.5 2.8-5.1 4.5-1.6 1.6-4.1 5.5-5.5 8.5-2.5 5.2-2.6 6.3-2.5 21 0 11.7.6 18.2 2.2 26.5 1.2 6 3.3 14.6 4.7 19 1.5 4.4 4.2 11.5 6.1 15.8 3.1 7 3.3 8.1 2.4 12.2-.7 3-.7 7.3.1 13.3.5 4.8 1.7 12.1 2.5 16.2.9 4.1 2.9 11.5 4.6 16.5 1.6 5 5.3 13.7 8.2 19.4 2.8 5.8 7.8 14.4 11.1 19.2 3.3 4.9 9.4 12.7 13.5 17.4 4.1 4.8 11.7 12.3 16.8 16.8s9.2 8.9 9.2 9.7 2 5.8 4.6 11c2.5 5.2 7.5 14 11.2 19.5 4.5 6.8 10.8 14.2 19.7 23.1 8.7 8.7 16.1 15.1 22.5 19.3 5.2 3.5 14 8.5 19.5 11.2s14.7 6.4 20.5 8.3 15.3 4.4 21.3 5.5c5.9 1.2 14.6 2.4 19.5 2.7 5.9.4 9.5 1.2 11.2 2.3 1.4 1 5.9 4.1 10 6.8 4.1 2.8 11.2 6.9 15.8 9.2 4.5 2.2 11.5 5.4 15.5 7 3.9 1.6 12.8 4.3 19.7 6s13.7 3.1 15.3 3.1c1.8 0 3.5.9 4.9 2.8 1.3 1.5 4.8 5.1 7.8 8.1 3 2.9 8.2 6.8 11.5 8.6s7.8 3.8 10 4.5 4.5 1.6 5 2.1 4.5.9 8.8.9c4.2 0 8.5-.4 9.5-1 .9-.5 16.4-8 34.5-16.5L640 1006l67.3 32c.9.6 4.7 1 8.5 1 5.1 0 8.6-.7 14.5-3 4.2-1.6 10.1-4.5 13-6.4 2.8-1.8 7.5-5.7 10.2-8.6l6.8-7.1c.9-1.1 2.6-1.9 3.7-1.9s5.5-.7 9.8-1.6c4.2-.9 12.7-3.2 18.7-5.1 6-2 16.2-6.2 22.5-9.4 6.3-3.3 15.1-8.5 19.5-11.7l8-5.8c14-1 23-2.3 29-3.5 6-1.1 15.7-3.7 21.5-5.6s14.5-5.4 19.5-7.8 14-7.6 20-11.6c6-4.1 15.3-11.5 20.5-16.5s12.8-13.6 16.8-19c4.1-5.5 9.8-14.2 12.8-19.4s6.2-12 7.2-15c1-3.2 2.7-6.3 4.2-7.4 1.4-1.1 6.7-6.1 11.9-11 5.1-5 11.9-12.2 15.1-16.1 3.1-3.9 8.3-11 11.6-16 3.2-5 7.7-13 10-18 2.4-5 5.5-12.6 6.9-17 1.5-4.4 3.6-12 4.8-17 1.4-6.2 2.1-13.1 2.3-22.5.2-13.1.3-13.8 3.9-22 2-4.7 4.7-12.3 6-17 1.4-4.7 3.1-12.3 3.9-17s1.8-14.1 2.2-21c.6-11.4.5-13.2-1.6-20-2-6.7-3-8.2-8.6-13.7-4.5-4.4-6.4-7-6.4-8.8 0-1.4-.9-6.9-2-12.2-1-5.4-3.3-13.8-5.1-18.8-1.7-5-4.8-12.4-6.9-16.5s-5.4-9.7-7.3-12.5l-3.5-5c22.1-22.5 31.3-32.8 34.8-37.5 3.4-4.7 8-12.1 10.3-16.5 2.2-4.4 4.8-10.5 5.9-13.5 1-3 3-11 4.3-17.7 1.4-6.8 2.5-15.4 2.5-19.3 0-4.1-1-10.8-2.4-16.2-1.3-5.1-3.9-12.4-5.9-16.3-1.9-3.9-6.1-10.4-9.4-14.5-3.2-4.1-9-10.2-12.8-13.4-3.9-3.2-9.5-7.6-12.5-9.6a240.56 240.56 0 0 0-14-8.5c-4.7-2.6-12.5-6.6-17.5-8.8s-17.1-6.8-27-10.2l-18-6.3c.5-22.2.2-32.8-.4-37.7-.7-4.9-2.1-12.6-3.2-17s-4-12.1-6.4-17c-2.4-5-6.9-12.1-10.2-16-3.2-3.9-8.6-9.2-11.9-11.8-3.2-2.6-9.3-6.5-13.4-8.6-4.1-2.2-10.9-5.1-15-6.5-4.1-1.3-11.8-3.3-17-4.2-6.9-1.3-14.7-1.8-28.5-1.8-16.7 0-20.5.4-31.5 2.7-6.9 1.4-17.9 4.4-24.5 6.7-6.6 2.2-19.2 7.6-28 12-8.8 4.3-21.6 11.6-28.5 16.1s-16.1 10.9-20.5 14.2-12.3 9.6-17.5 14l-9.5 8c-10.7-2.5-23.1-2.8-65-2.8-44.7.1-53.7.3-57.5 1.6l-4.5 1.5-27.5-22.4c-4.1-3.1-11.8-8.5-17-12s-14-8.9-19.5-12-14.9-7.9-21-10.6-16.2-6.6-22.5-8.6c-6.3-2.1-16.4-4.8-22.5-6-7.4-1.4-16-2.3-26.5-2.5-8.5-.2-19.1.1-23.5.6z"/><path d="M338.5 392.2l-19.5 5.5c-8.5 2.5-20.7 6.5-27 9s-16.4 7.1-22.5 10.1c-6.1 3.1-14.4 8.2-18.5 11.2-4.1 3.1-9.7 8.1-12.3 11.1-2.7 3-5.9 7.7-7.3 10.4-1.3 2.8-2.8 7.3-3.3 10-.6 3.1-.6 8.4-.1 14 .5 5 1.7 11.5 2.6 14.5s3 8.2 4.6 11.5c1.7 3.3 4.7 8.3 6.7 11 1.9 2.8 10.8 12.4 19.6 21.5 12.8 13.1 16.7 17.8 19.3 23 2 4.2 4.2 11.9 6.2 21.5 1.8 8.3 4.2 18.1 5.4 22 1.4 4.4 3.9 9.3 6.8 13 2.5 3.3 6.6 9.4 9.1 13.5s6.3 9.2 8.6 11.3c2.3 2 7.4 5.8 11.3 8.4 4 2.6 11.1 6.4 15.8 8.5 4.7 2 8.6 3.4 8.8 3s-.8-7.4-2.2-15.7c-1.4-8.2-3.1-22.7-3.8-32.1-1.1-15.1-1.1-17.3.2-18.8 1.2-1.4 3.3-1.7 11-1.6l9.5.1c-6.2-4.5-9.7-7.7-11.8-10.2-2.1-2.4-5.6-8-7.7-12.4s-4.7-11.6-5.7-16c-1.5-6.6-1.8-12.2-1.8-32 .1-18.6.6-29 2.5-46 1.9-16.9 2.4-27.5 2.5-45.5 0-12.9-.3-26.1-.7-29.2-.4-3.2-1-5.8-1.5-5.7-.4.1-2.6.6-4.8 1.1z" fill="#db0632"/><path d="M844.5 278.6c-5 .8-11.7 2.2-15 3.1s-10.7 3.4-16.5 5.6c-5.8 2.3-15.2 6.5-21 9.4-5.8 3-16.8 9.6-24.5 14.8-7.7 5.1-18.7 13.1-24.5 17.8-5.8 4.6-16.5 14.1-23.8 21.1L706 363l-.5 106.6c-4.3 6.5-5.5 8.8-5.5 9.4 0 .5 6.9 7.6 15.3 15.7 8.3 8 21.5 20.3 29.2 27.1 7.7 6.9 19.9 17.2 27 22.9s19.8 14.9 28 20.5c8.3 5.5 20.6 12.8 27.5 16.2s16.3 7.3 21 8.6c7.1 2.1 10.5 2.5 21 2.4 7.4-.1 15.5-.8 20-1.8 4.1-.9 10.8-3.2 14.8-5.1 4-2 9.6-5.8 12.7-8.8 3.2-3 7-8 9-11.7 1.9-3.6 4.4-10.5 5.7-15.5 2.1-8.1 2.3-11.2 2.2-31.5 0-17.1-.7-28.8-2.8-49-1.9-18-2.8-32.1-2.8-44 0-12.6.7-24 2.6-40.5 1.5-12.6 2.9-28.2 3.3-34.5.4-7.2.1-15.3-.7-21.5-.7-5.5-2.1-12.5-3.2-15.5-1-3-3.1-7.7-4.6-10.4s-5.2-7.1-8.2-9.8c-3-2.8-8.2-6.3-11.5-7.8-3.3-1.6-8.7-3.5-12-4.4-3.3-.8-9.8-2-14.5-2.6-4.7-.5-12.3-1-17-.9-4.7 0-12.5.7-17.5 1.5z" fill="#35d32f"/><path d="M935.5 393.9c-.3 1.4-.9 8.7-1.4 16.1-.6 8.3-.6 19.3-.1 28.5.5 8.3 1.9 24.2 3 35.5 1.2 11.3 2.4 28.4 2.7 38 .4 11.2.1 20.8-.6 26.5-.7 5-1.9 11.7-2.7 15-.9 3.3-2.8 8.7-4.4 12s-4.6 8.2-6.7 10.9c-2.1 2.6-5.6 6.1-7.8 7.7-2.9 2-3.6 3-2.5 3.4.8.2 5.1.6 9.5.7l8 .3c.5 15.5-.1 26.5-1 34.5s-2.5 18.5-3.5 23.5-1.5 9.3-1.1 9.8c.3.4 6.5-2.2 13.6-5.8 7.2-3.6 15.9-8.8 19.4-11.7 4.4-3.7 8-7.8 11.5-13.6 2.8-4.5 7.2-11.2 9.8-15 3.5-5 5.4-9 7.2-15.7 1.3-5 3.6-14.6 5.1-21.5s3.9-15 5.3-18c2-3.9 7.3-10.3 19.2-22.5 9.1-9.4 18.7-20.4 21.5-24.5 2.7-4.1 6.2-10.6 7.6-14.5 1.5-3.9 3.3-10.1 4-14 .6-3.9 1-10.8.7-15.5-.3-6.5-1-9.7-3-13.5-1.4-2.7-4.3-7.2-6.5-10-2.1-2.7-7.5-7.7-11.9-11-4.3-3.4-11-7.8-14.9-10s-11.4-5.9-16.7-8.2c-5.4-2.4-15.1-6.1-21.5-8.4-6.5-2.2-15.6-5.1-20.3-6.4s-11.3-3.1-14.8-3.8l-6.3-1.5z" fill="#0097cd"/><path d="M586.3 351c-1.8 1.1-4 3.4-4.8 5-1.3 2.6-1.5 11-1.5 57.3 0 52.4.1 54.3 2 57.5 1.1 1.7 3.4 3.9 5 4.7 2.1 1.1 6.3 1.5 14.3 1.5h11.2c3.5-4.6 6.4-7.3 8.8-8.9 2.3-1.6 6.9-3.7 10.2-4.6 4.3-1.3 7.6-1.6 11.5-1.1 3 .4 7.9 1.8 10.8 3.1 2.8 1.4 7.1 4.5 9.5 7l4.2 4.4c23.2.1 23.6 0 26.6-2.6 1.8-1.6 3.8-4 4.5-5.5 1.1-2.3 1.4-13 1.4-55.8 0-48.4-.2-53.3-1.7-56.6-1-2-3.1-4.5-4.8-5.5-2.8-1.7-6.1-1.8-53.5-1.9-48.7 0-50.6.1-53.7 2z" fill="#fec526"/><path fill-rule="evenodd" d="M639.5 468c1.6 0 5.4.7 8.3 1.5 3.7 1.1 6.6 2.8 10 6.3 4.6 4.5 5.1 5.5 11.5 24.7 3.7 11.2 8.3 22.9 10.4 26.5s7.2 9.9 11.3 14 10.4 9.2 14 11.3 10.1 4.9 14.5 6.4c7.5 2.4 9.6 2.7 32.5 3.2 22.3.6 24.9.8 28.5 2.8 2.2 1.1 5.6 3.8 7.6 5.9 1.9 2.2 4.3 5.9 5.3 8.4 1.3 3.2 1.7 6.4 1.4 11.1-.2 5.2-.9 7.6-3.3 11.4-2.3 3.7-6.5 7.4-18.5 16.1-8.5 6.2-18.2 14.2-21.5 17.7-3.3 3.6-7.5 8.9-9.2 11.8-1.8 3-4.5 8.8-5.9 12.9s-3 11.1-3.6 15.5c-.6 5.3-.6 10.5.1 15.5.5 4.1 3.6 15.6 6.8 25.5 4.7 14.6 5.8 19.2 5.8 24.5-.1 4.6-.7 7.7-2.2 10.5-1.2 2.2-3.6 5.4-5.5 7.2-1.8 1.7-5.3 4.1-7.8 5.2-2.8 1.3-6.7 2.1-10.3 2.1-3.1 0-7.4-.7-9.5-1.6-2-.9-10.5-6.5-18.7-12.4-8.3-6-18.4-12.5-22.5-14.4s-11.3-4.2-16-5.2c-6.1-1.2-10.9-1.5-17-1.1-4.7.4-11.2 1.4-14.5 2.3-3.3.8-8.7 2.8-12 4.4s-12.5 7.6-20.5 13.4-16.1 11.3-18 12.3c-1.9.9-6 1.8-9 2.1-3 .2-7.5-.2-10-.9-3.2-.9-6.1-2.9-10-6.8-3.5-3.6-6-7.1-6.8-9.6-.6-2.2-1.2-5.9-1.2-8.3s2.5-12.2 6.1-23.5c5.6-17.4 6.2-20.2 6.7-30.2.4-8.4 0-12.9-1.3-19-1-4.4-3.5-11.4-5.6-15.5s-6-10.2-8.6-13.5c-3.1-3.9-9.8-9.7-19.3-16.7L493.7 608c-2-1.6-4.9-5.4-6.3-8.3-2-4-2.6-6.6-2.5-11.7 0-4.8.7-7.9 2.6-11.8 1.6-3.3 4-6.3 6.7-8.3 2.4-1.7 5.4-3.6 6.8-4.2s13.1-1.3 27-1.7c23.3-.6 24.9-.8 32.5-3.4 4.4-1.5 10.5-4.2 13.5-5.9s8.1-5.3 11.3-7.9c3.1-2.7 7.7-7.6 10.1-11.1 2.4-3.4 5.5-8.5 6.8-11.2 1.4-2.8 4.9-12.2 7.8-21s6.1-17.6 7.1-19.5c.9-1.9 3.2-5 5.1-6.8 1.8-1.8 5.8-4.1 8.8-5.2s6.9-2 8.5-2zM368.4 594.3c9.7.3 17.6 1 22.1 2.2 4.7 1.1 11.2 1.8 20 1.8 9.3.1 14.7-.3 19-1.5 3.3-1 6.1-1.6 6.3-1.5.1.1.7 4.9 1.2 10.7s1.4 13.6 2 17.5 1.8 9.9 2.6 13.5 3.1 11.5 5.1 17.5c1.9 6 6.1 16.4 9.2 23 3.2 6.6 8.1 15.8 11 20.5 3 4.7 7.9 11.9 11 16s9.9 11.9 15.1 17.4c5.2 5.4 12.9 12.7 17 16.1 4.1 3.5 12 9.3 17.5 12.9 5.5 3.7 14.7 9.1 20.5 12 5.8 3 15 7 20.5 9.1 5.5 2 14 4.8 19 6.1s13 3.1 18 4c5 .8 14.9 1.9 22 2.3 7.1.5 18.9.5 26 0 7.1-.4 18.9-1.9 26-3.4 7.1-1.4 18.4-4.4 25-6.6s17.4-6.6 24-9.8 16.7-9 22.5-12.8 14.7-10.5 19.9-14.9c5.2-4.3 13.2-11.9 17.8-16.9s11-12.6 14.3-17c3.2-4.4 8.7-12.7 12.2-18.5 3.4-5.8 8.1-14.8 10.4-20s5.3-12.9 6.7-17 3.5-11.1 4.6-15.5c1.2-4.4 2.8-11.8 3.6-16.5s1.8-12.8 2.1-18 .7-10 .9-10.5c.2-.6 3.6-.3 9.1.8 6.8 1.4 11.5 1.7 19.9 1.2 6-.3 14.7-1.4 19.3-2.5 6.1-1.5 11.7-2 35.2-2v8.3c0 4.5-.7 14.3-1.6 21.7-.8 7.4-2.6 18.7-3.9 25-1.4 6.3-3.9 16.5-5.6 22.5-2 7-4.6 13.4-7.2 17.5-2.2 3.6-5.6 9.9-7.4 14-1.9 4.1-5 12.2-7 18-1.9 5.8-4.6 12.4-5.9 14.8-1.7 2.9-3.4 4.5-5.6 5.2-1.8.5-7.3 3.5-12.3 6.6s-11.4 7.7-14.4 10.3c-2.9 2.5-7.7 7.7-10.7 11.6-2.9 3.9-6.9 10.5-8.8 14.8-2 4.2-3.6 8.4-3.6 9.2 0 1-3 2.5-9.2 4.5-5.1 1.6-13.6 5.1-18.8 7.7-5.2 2.7-12.9 7-17 9.8-4.1 2.7-11.5 8.9-16.5 13.7-4.9 4.8-9.3 8.5-9.7 8.2-.5-.2-.8-1.4-.8-2.6 0-1.3-.5-2.9-1.2-3.6s-2.4-1.2-3.8-1.2-6.8.7-12 1.6c-5.2.8-14.2 3.1-20 5.1-5.8 1.9-14.5 5.5-19.5 8.1s-12.4 7.2-16.5 10.3-11.1 9.5-23.5 22.8l-11 .1c-6 .1-17 .1-37.5 0l-10.2-10.3c-5.7-5.6-14.1-12.8-18.8-15.9s-12.3-7.5-17-9.7-12.5-5.1-17.5-6.6c-5-1.4-13-3.3-18-4.1-5-.9-10.4-1.4-12-1.2-2.6.3-3.1.8-4.8 8.3l-8.6-8.5c-4.7-4.7-12.6-11.2-17.6-14.6-4.9-3.3-12.8-7.8-17.5-10.1s-12.5-5.5-26.5-10.4l-1.8-5.2c-1-2.9-3.7-8.3-6-12.2s-7.3-10.3-11.2-14.4c-3.8-4-9.7-9.3-13-11.6-3.3-2.4-9.6-6.1-14-8.2-6.2-3.1-8.5-4.9-10.4-7.9-1.3-2.1-3.9-8.6-5.8-14.4s-5.2-14.3-7.4-19-5.5-11-7.3-14c-1.9-3-4.3-8.4-5.4-12-1.2-3.6-3.2-11-4.6-16.5s-3.4-15.6-4.5-22.5-2.6-19-3.3-26.9-.9-14.8-.4-15.3 7.3-.8 16-.5zm73.8-.3H479l1 3.7c.5 2.1 2.5 5.9 4.2 8.5 2.2 3.2 7.7 7.9 16.8 14.5 7.4 5.4 17.1 13.4 21.5 17.8 6 6 9 9.9 11.8 15.5 2 4.1 4.4 10.6 5.3 14.5 1.1 5 1.5 10 1.2 17.5-.4 9.5-1 12.3-6.6 29.7-4.4 13.7-6.2 20.8-6.2 24.5 0 2.9.6 7 1.3 9 .6 2.1.9 4.1.5 4.5s-2.6-.6-4.9-2.2-8.5-6.6-13.7-11c-5.3-4.4-13.6-12.5-18.5-18-4.8-5.5-11.9-14.5-15.6-20-3.8-5.5-9.1-14.3-11.9-19.5-2.7-5.2-6.7-13.8-8.8-19-2-5.2-4.9-13.8-6.5-19-1.5-5.2-3.6-15.1-4.7-22s-2.3-16.2-2.5-20.8zm394.8 0v6.5c0 3.6-.7 11.6-1.6 17.8s-2.9 16.2-4.4 22.2c-1.6 6.1-4.4 15.1-6.3 20-1.9 5-5.7 13.5-8.5 19s-7.8 14.3-11.3 19.5c-3.4 5.3-8.8 12.7-11.9 16.5-3.2 3.9-9.3 10.6-13.6 15-4.4 4.3-11.8 11-16.4 14.7-4.7 3.8-9.5 7.4-10.8 8.1-1.2.7-2.4.9-2.7.5s-.1-1.6.5-2.8c.5-1.1 1.2-4.8 1.6-8.2.5-5.7.1-7.8-5.2-24.3l-6.7-22c-.5-2.2-1-8.2-1-13.5 0-5.9.6-11.9 1.7-16 1-3.5 3.3-9.4 5.1-13 1.8-3.5 5.2-8.9 7.7-12 2.7-3.4 10-9.5 19.3-16.4 8.3-6 16.8-12.6 19-14.6 2.2-2.1 5-6 6.1-8.6 1.2-2.7 2.5-5.6 2.8-6.6.5-1.6 2.3-1.8 36.6-1.8zM638.7 737.1c3.5 0 9.8.7 14 1.5 4.3.9 11.1 3.3 15.3 5.3 4.1 2.1 13.3 8 20.5 13.3 7.1 5.2 14.8 10.5 17 11.6s5.4 2.3 7.2 2.6c1.8.4 3 1.1 2.8 1.7-.3.5-4.5 2.3-9.3 4s-13 4.1-18.2 5.4c-5.3 1.3-12.5 2.8-16 3.4-3.6.6-12.2 1.6-19 2.1-8.1.6-17.4.6-26.3 0-7.5-.5-18.6-1.9-24.5-3-5.9-1.2-16.9-4.1-24.5-6.5-7.5-2.5-13.7-4.8-13.7-5.2-.1-.4 2.3-1.5 5.2-2.5 3.4-1.1 11.2-5.9 21.8-13.5 9-6.5 19.4-13.1 23-14.6 3.5-1.6 9.2-3.5 12.5-4.2s8.8-1.3 12.2-1.4z" fill="#f0cc00"/><path d="M399.5 278.1c-3.9.5-10.4 1.9-14.5 3s-10.2 3.5-13.5 5.4c-3.3 1.8-8.4 5.8-11.3 8.9-2.8 3.1-6.3 8-7.7 10.8-1.3 2.9-3.2 8.2-4.2 11.8-1.4 5.2-1.8 10.3-1.8 25.5 0 14.4.7 24.9 2.9 43.5 2.5 21.7 2.8 26.8 2.3 44.5-.3 11-1.5 29.2-2.8 40.5-1.7 15.6-2.3 26.5-2.3 45.5-.1 21.4.2 26 1.8 32 1 3.8 3 9.7 4.5 13 1.5 3.4 5 8.5 8.1 11.8 3 3.2 7.5 7.1 10 8.7s7.9 4 12 5.4c4.1 1.3 12 3 17.5 3.6 5.6.7 13.3.9 17.5.6 4.3-.4 12-2.2 18-4.2 5.8-1.9 15.2-6 21-9.1 5.8-3 15.7-8.9 22-13.2 6.3-4.2 16.7-11.6 23-16.5s17.6-14.1 25-20.5 22.5-20.4 33.5-31.3c18.9-18.6 19.9-19.7 18.4-21.5-.9-1-2.4-3.3-3.3-5.1-1.4-2.8-1.6-9.3-1.6-55.7V363c-16.7-15.9-25.6-23.9-30.5-28.1-5-4.1-12.8-10.4-17.5-13.9-4.7-3.6-13.5-9.6-19.5-13.4-6.1-3.8-16.9-9.8-24-13.3s-17.7-7.9-23.5-9.7c-5.8-1.9-14.1-4.2-18.5-5.1s-13.9-1.9-21-2c-7.1-.2-16.1.1-20 .6z" fill="#f3b1db"/><path d="M273.5 598c-1.6 2.5-4.2 7.4-5.8 11s-4.1 10.8-5.4 16c-2 7.5-2.6 12.2-2.7 22.5 0 7.1.2 15.1.7 17.8.6 4.4 1 4.8 5 6.4 2.3 1 8.5 3.8 13.7 6.4 5.2 2.5 13.1 7.3 17.5 10.6s9.2 7.4 10.8 9.2c1.7 1.9 2.9 2.6 3.1 1.8.3-.6.7-7.5.9-15.2.3-7.7 1.3-17.6 2.2-22 1.4-6.6 1.5-8.7.5-12-.6-2.2-3.6-8.7-6.6-14.5s-9-15.2-13.3-21-10.1-13-12.8-16l-5-5.5zm724.2 2.1c-3.2 3.5-8.2 9.5-11.1 13.4-3 3.9-7.8 11-10.7 16-3 4.9-6.8 12.3-8.4 16.5l-3.1 7.5c2.8 14 4 24.6 4.4 32.6l.7 14.7c9.4-8.8 14.8-13.1 18-15.3 3.3-2.1 9.8-5.8 14.5-8.1s10.2-4.7 12.3-5.3c2-.6 3.9-1.4 4.2-1.9.2-.4.9-5.1 1.5-10.5.7-6.6.7-12.8 0-19.5-.5-5.3-1.9-13.1-3-17.2-1.2-4.1-4-11.5-6.4-16.5s-5-9.8-5.7-10.9c-1.3-1.7-1.8-1.4-7.2 4.5zm-675.2 51.1a237.53 237.53 0 0 0-1.9 7.3c-.8 3.3-2 9.8-2.7 14.5-.7 5.2-.9 13.9-.6 22.5.3 7.7 1.3 17.4 2.2 21.5s3 11.5 4.6 16.5c1.7 5 5.1 12.8 7.6 17.5s6.5 11.4 8.9 15 6.8 9.2 9.7 12.5 8.5 9.1 12.5 13 7.5 6.8 7.7 6.5c.3-.3 0-5.5-.6-11.5-.7-6.7-.9-17-.5-26.5.4-8.5 1-17.6 1.4-20.2.4-2.5 1.2-5.2 1.7-5.8.8-.9 1.8-.9 4.3-.1 1.8.6 3.9.9 4.7.6 1.3-.4 1.3-1.4-.5-7.5-1.1-3.9-3.7-11.2-5.7-16.3-2-5-5.9-12.8-8.6-17.2-2.6-4.4-7.3-11.3-10.5-15.4-3.1-4.1-8.4-9.9-11.7-12.9s-9.1-7.7-13-10.4c-3.8-2.7-7.3-4.8-7.7-4.8-.5 0-1 .6-1.3 1.2zm626.3 3.3c-3.7 2.5-10.3 7.8-14.5 11.9-4.3 4-10.6 11.3-14.1 16.2s-8.5 13.2-11.2 18.4c-2.6 5.2-6.1 13.5-7.8 18.5-1.6 5-3.3 10.6-3.7 12.5-.8 3.5-.8 3.5 2.1 2.7 1.6-.4 3.6-1 4.4-1.2.8-.3 2.1-.1 2.7.3.7.4 1.8 4.1 2.5 8.2.7 4.4 1.2 15.4 1.1 26.5 0 10.5-.5 21.4-.9 24.2-.5 2.9-.5 5.3-.1 5.3s4.8-3.9 9.8-8.8c5-4.8 12.4-13 16.3-18.2 4-5.2 9.6-14.2 12.6-20 2.9-5.8 6.6-14.1 8.1-18.5 1.4-4.4 3.5-11.8 4.5-16.5 1.5-6.6 1.9-12.5 1.9-26-.1-12.2-.6-19.6-1.7-24.5l-2.7-11.3c-.6-2.3-1.4-4.2-1.8-4.2s-3.8 2-7.5 4.5zm-705.4 26.3c.4 4.8 1.4 11.8 2.2 15.7s2.6 10.4 3.9 14.5c1.4 4.1 4.4 11.1 6.6 15.5 2.3 4.4 6.2 10.9 8.9 14.5 2.6 3.6 6.4 8 8.4 9.8 2 1.7 4.6 3.2 5.9 3.2 1.2 0 7.6 1.3 14.2 2.9s16.3 4.5 21.5 6.4 12.1 4.6 15.3 6.1c3.1 1.4 5.7 2.1 5.7 1.6s-1.6-3.6-3.7-6.8c-2-3.1-5.8-10.2-8.4-15.7s-5.9-14.3-7.4-19.5c-1.4-5.2-3.8-12-5.3-15s-5.4-8.3-8.7-11.8c-3.3-3.6-9.4-8.7-13.5-11.4s-10.9-6.6-15-8.5c-4.1-2-12-5.1-17.5-6.9s-10.8-3.4-11.9-3.4c-1.8 0-1.8.6-1.2 8.8zm779.6-5.4c-5.2 1.8-13.1 5-17.5 7-4.4 2.1-10.9 5.7-14.5 8.1s-8.9 6.7-11.9 9.7c-3 2.9-7.1 7.8-9 10.8-2 3-4 7.3-4.4 9.5s-1.9 7.6-3.4 12c-1.4 4.4-4 11.1-5.8 15-1.7 3.9-5.2 10.5-7.8 14.8-2.6 4.2-4.5 8-4.2 8.4.3.5 4.2-.9 8.8-2.9 4.5-2 12.5-5.1 17.7-6.8s14.9-4.2 21.5-5.6c7.2-1.4 12.8-3.1 13.9-4.2 1-.9 4.2-4.8 7.1-8.7 3-3.9 7.2-10.4 9.4-14.5s5.3-11.3 6.9-16c1.7-4.7 3.7-12.3 4.6-17 .8-4.7 1.7-11.8 1.9-15.8.4-6.8.4-7.2-1.7-7.1-1.1 0-6.4 1.5-11.6 3.3zm-646.2 66.9c-.9 1.5-1.2 8.8-1.2 24.2 0 17.1.4 24.1 1.8 31.5 1 5.2 2.9 13.1 4.3 17.5s4.3 11.6 6.5 16 5.9 10.7 8.3 14c2.3 3.3 7.1 8.7 10.6 11.9 3.6 3.2 8.2 7.1 10.4 8.6 2.2 1.6 7.2 4 11 5.4 3.9 1.5 9 3.8 11.5 5.2 2.5 1.3 4.6 2.3 4.8 2.2.1-.2-1.3-5-3.2-10.8s-4.2-14.5-5.1-19.5c-.8-5-1.8-14.2-2.2-20.5-.3-6.6 0-16 .6-22 1-8.8 1.6-10.8 3.4-12.3l2.2-1.8c-4.4-8.8-7.6-14.1-9.9-17.4-2.4-3.3-6.7-8.2-9.7-10.9-2.9-2.7-7.9-6.5-10.9-8.6-3-2-8.2-5.1-11.5-6.7-3.3-1.7-9.2-4.2-13.2-5.6l-7.3-2.6zm517.2.6c-4.1 1.5-10.4 4.3-14 6.1-3.5 1.8-8.5 4.6-11 6.3-2.4 1.7-7.1 5.6-10.3 8.6-3.3 3.1-7.8 8.3-10.2 11.6s-5.5 8.6-6.9 11.7c-2.1 4.7-2.3 5.8-1.1 5.8.9 0 2 .8 2.5 1.7.5 1 1.4 7.2 2 13.8.8 8.5.8 15.4.1 24-.5 6.6-1.7 15.6-2.7 20-.9 4.4-2.9 11.7-4.5 16.2-1.6 4.6-2.9 8.7-2.9 9.3 0 .5 2.6-.3 5.8-1.9 3.2-1.5 8-3.7 10.7-4.7 2.8-1 7.7-3.6 11-5.8s8.8-6.7 12.1-10.1c3.3-3.3 7.9-8.7 10.1-12s5.2-8.3 6.6-11c1.4-2.8 3.9-8.8 5.5-13.5 1.7-4.7 3.5-11 4.1-14l1.6-8.5c.3-1.7 1.1-8 1.7-14 .6-6.2.8-16.1.4-22.5l-1.1-15.8c-.3-2.3-.8-4.2-1.2-4.2-.4.1-4.1 1.3-8.3 2.9zm-634.5 20.3c.4 2.9 1.8 9 3.2 13.5 1.3 4.6 3.5 11.1 4.9 14.5 1.4 3.5 4 9 5.9 12.3 1.8 3.3 6.1 9.7 9.4 14.2 3.4 4.6 9.7 11.9 14.1 16.3s12.2 11.1 17.3 14.9c5.1 3.7 12.8 8.9 17.2 11.4l8 4.5c11.7-1.3 21.9-1.7 30.3-1.8 8.4 0 19.6.4 25 1s9.9.8 10 .5-2.2-3.1-5.3-6.3c-3-3.1-7.3-8.4-9.6-11.7-2.2-3.3-5.3-8.5-6.8-11.5s-4-8.9-5.6-13c-1.7-4.4-5.2-10.6-8.5-15-3.1-4.1-8.5-10.1-12.1-13.1-3.5-3.1-9.5-7.7-13.4-10.2-3.8-2.4-9.7-5.8-13-7.5-3.3-1.6-10.2-4.6-15.5-6.5-5.2-2-14-4.7-19.5-6.1s-14.2-3.2-19.5-4.1c-5.2-.8-11.2-1.5-13.3-1.5h-3.9zm749.5-4.6c-1.4.2-7.4 1.3-13.5 2.4-6 1.2-16.8 4-24 6.4-7.1 2.3-17.7 6.6-23.5 9.6s-13.9 7.9-18 11-10 8.3-13 11.5c-3 3.3-7.1 8.5-9.1 11.5s-5.1 9.3-7 13.9c-1.9 4.7-5.4 12.1-7.9 16.4s-7.6 11.2-11.5 15.3c-3.8 4.1-6.8 7.6-6.5 7.9s4.6 0 9.5-.5c5-.6 16-1 24.5-1s19.1.4 23.5.9c7.8.8 8.1.8 13.5-2.2 3-1.7 9.5-5.8 14.5-9.2 4.9-3.3 13.6-10.6 19.3-16.1 5.8-5.5 13.4-13.8 16.9-18.5 3.5-4.6 9.1-13.9 12.4-20.5 3.7-7.5 6.8-15.5 8.3-21.5 1.3-5.2 2.6-11.4 3-13.7l.6-4.3c-7.3.2-10.6.5-12 .7zm-567.5 42.3c-.3.5-.8 6.4-1.2 13.2-.3 7.5-.1 16.5.7 22.8.6 5.8 2.2 14.6 3.5 19.5 1.2 5 3.7 12.4 5.4 16.5 1.7 4.2 5.4 11.4 8.3 16 2.9 4.7 8.9 12.4 13.4 17l8.2 8.5c24.4-.5 33.8 0 41.2 1 6.3.9 13.3 2 15.5 2.5s4.4.6 4.8.2c.5-.4-1.7-4-4.8-8.2-3.1-4.1-7.6-11.5-10-16.5-2.4-4.9-5.3-12.6-6.5-17s-2.4-12.5-2.7-18c-.5-9.8-.6-10.1-4.7-15.4-2.2-2.9-7.2-8.3-11.1-11.8-3.8-3.6-10.6-8.9-15-11.8s-12-7.2-17-9.6c-4.9-2.3-12.8-5.5-17.5-7-4.7-1.6-8.8-2.9-9.2-2.9s-.9.4-1.3 1zm383.5 2.9c-5.8 2.1-13.9 5.5-18 7.6s-10.6 5.8-14.5 8.4c-3.8 2.5-10.8 8.3-15.5 12.7-4.7 4.5-9.7 9.9-11.1 12.1-2.2 3.1-2.8 5.4-3.4 12.8-.4 5-1.8 13.3-3.1 18.5-1.3 5.3-4.2 13.2-6.4 17.8-2.2 4.5-7 12.1-10.7 16.9l-6.8 8.8 15.5-3c5.7-1.1 15.4-1.8 29-2.1l20.5-.3c11.7-12.1 16.8-18.3 19-21.6s5.4-8.9 7.3-12.5c1.8-3.5 4.6-10.6 6.2-15.7 1.7-5.1 3.8-13.4 4.7-18.5 1-5.7 1.6-14.9 1.7-23.8 0-7.9-.3-16.2-.7-18.2-.4-2.1-1.2-3.7-1.9-3.7s-6 1.7-11.8 3.8zm-301.5 37.8c-.4 3.2-.5 10.8-.2 16.8.4 8.1 1.2 13.3 3.2 19.5 1.5 4.7 3.9 10.8 5.3 13.5 1.4 2.8 4.3 7.7 6.6 11 2.2 3.3 7 9.1 10.6 12.9s10.3 9.8 15 13.3 15 9.7 23 13.7 18.2 8.6 22.8 10.2c4.5 1.6 8.4 3.6 8.7 4.4.3.9 0 2-.7 2.7-.7.6-17.2 6.7-36.6 13.5-21 7.4-35.2 12.8-35.2 13.6 0 .7 1.1 2.9 2.3 5 1.3 2 3.7 4.7 5.3 5.8 1.6 1.2 4.3 2.9 5.9 3.8 3 1.5 3 1.5 40.8-16.4 20.7-9.9 38.5-18 39.5-18 .9 0 18.6 8 39.2 17.9l37.5 17.9c5.4-2.3 8.1-3.8 9.5-4.9s3.8-3.9 5.3-6.2 2.8-4.6 2.7-5.2c0-.5-16-6.6-35.6-13.5-19.6-6.8-36-13-36.5-13.7s-.7-1.8-.5-2.5 4.5-2.8 9.7-4.7 13.9-5.7 19.4-8.4 13.6-7.2 18-10.1c4.4-2.8 11.4-8.1 15.5-11.6 4.1-3.6 10.1-9.8 13.3-14 3.3-4.1 8.1-12 10.8-17.5 2.6-5.5 5.5-12.9 6.4-16.5.9-3.5 1.9-11.4 2.1-17.5.3-6 .1-13-.3-15.5-.9-4.5-.9-4.5-4.8-4.2-2.2.1-7.4.9-11.5 1.7s-11.1 2.7-15.5 4.1c-4.4 1.5-11.8 4.6-16.5 6.9-4.7 2.4-12.1 7-16.5 10.3s-10.5 8.6-13.6 11.9c-3.1 3.2-7.9 9-10.8 12.8-2.9 3.9-7.4 11.3-10.1 16.5-2.7 5.3-6.4 14.3-8.3 20-2 5.8-4.1 13.5-4.7 17-.7 3.6-1.8 7.2-2.6 8-.8.9-1.9 1.2-2.8.8-1-.5-2-3.2-2.7-7.5-.6-3.7-2.4-11-4-16.3-1.7-5.2-5.5-14.4-8.5-20.5-3-6-7.7-14.1-10.6-18-2.8-3.8-8.6-10.4-12.7-14.5-4.2-4.2-11-9.8-15.1-12.6s-10.2-6.5-13.5-8.1c-3.3-1.7-9.8-4.4-14.5-6-4.7-1.7-12.1-3.7-16.5-4.6s-9.8-1.8-12.1-2.2l-4.1-.6zm-172 27.9L338 871c-5.8.6-10.8 1.3-11.2 1.5s.4 2.5 1.9 5.2c1.5 2.6 4.7 7.6 7.2 11.2 2.4 3.6 8.6 10.7 13.5 15.8 5 5.2 12.9 12 17.6 15.1 4.7 3.2 11.9 7.3 16 9.3 4.1 1.9 10.4 4.5 14 5.8 3.6 1.2 10.3 3.1 15 4.1 4.7 1.1 13.1 2.3 18.8 2.7 5.6.4 10.2.4 10.2 0 0-.5-1.8-3-4-5.8-2.2-2.7-4-5.9-4-7 0-1.4 1.4-2.6 4.8-4.1 2.6-1.1 8.5-3.1 13.2-4.5 4.7-1.3 11.3-2.9 14.8-3.4l6.2-1c-8.8-9.7-13-14.7-14.9-17.4-2-2.7-6.1-7-9.1-9.4-3-2.5-9.5-6.4-14.5-8.8s-13.6-5.4-19.5-6.8c-5.8-1.4-14.9-3-20.2-3.5-5.4-.6-16.4-1-24.5-.9-8.1 0-16.1.3-17.8.4zm538 0l-11 1.5c-4.4.6-11.4 2-15.5 3.1s-10.2 3.1-13.5 4.5-8.9 4.4-12.5 6.7-8.6 6.7-11.2 9.7l-11 13-6.3 7.6c12.4 2.5 20.3 4.7 25.5 6.4s10.3 3.5 11.3 4c.9.5 1.7 1.8 1.7 2.9s-1.8 4-4 6.5-4 5.1-4 5.8c0 .9 2.3 1 10.3.4 5.6-.4 14-1.6 18.7-2.6 4.7-1.1 11.9-3.1 16-4.6s11.6-4.8 16.5-7.4c5-2.5 11.7-6.6 15-9s8.9-7.2 12.4-10.5c3.5-3.4 8.5-8.8 11.1-12.1 2.7-3.3 6.9-9.4 9.4-13.5 2.6-4.1 4.6-7.9 4.6-8.5 0-.5-4.4-1.6-9.7-2.4-5.4-.7-19-1.4-30.3-1.6s-21.8-.1-23.5.1zm-411 51.4c-3.8.5-10.6 1.6-15 2.5s-11.1 2.7-14.9 3.8c-3.8 1.2-7.1 2.8-7.2 3.5-.2.6 3.8 5.4 8.9 10.5 5.1 5 12.8 11.6 17.2 14.5s11.6 7.1 16 9.2 11.6 5.1 16 6.5 11.8 3.3 16.5 4.2c5.5 1.1 13.4 1.7 22.5 1.7h14c46.7-16.8 52.4-19.2 51.3-20-.7-.6-5.1-2.8-9.8-4.9-4.7-2-12.5-6-17.5-8.8-4.9-2.8-11.9-7.3-15.5-10-5.2-4-8.2-5.4-15.5-7.3-4.9-1.3-13.3-3-18.5-3.9s-16.7-1.8-25.5-2-19.1 0-23 .5zm284 0c-4.4.6-11.6 1.7-16 2.6-4.4.8-11 2.4-14.7 3.5-4.8 1.3-9.2 3.7-15 7.9-4.6 3.2-11.9 7.9-16.3 10.3s-11.7 5.9-16.2 7.8-8.4 3.9-8.6 4.4c-.3.6 12 5.4 27.2 10.7 27.1 9.6 27.8 9.8 36.6 9.8 5 0 13.7-.7 19.5-1.6s14.8-2.9 20-4.6 13.6-5 18.5-7.5c5-2.5 11.9-6.5 15.5-9s9-6.7 12-9.4c3-2.6 7.5-7.1 10-9.9 3.7-4.3 4.2-5.4 3-6.1-.8-.5-4.6-1.8-8.5-3-3.8-1.2-11.3-3-16.5-4-6.1-1.3-15.3-2.1-26-2.4-9.1-.2-20.1 0-24.5.5z" fill="#88db65"/><path d="M628.5 524.3c-2.8 1.3-6.5 3.9-8.4 5.8-1.8 1.9-4.1 5-5 6.9-1 1.9-4.4 11.7-7.7 21.7l-5.9 18.2c-44.2.6-45.2.7-49.9 3.1-2.7 1.4-6.8 4.5-9 7-2.9 3.2-4.7 6.5-6 11-1.2 4.4-1.6 7.8-1.1 10.5.3 2.2 1.5 6 2.6 8.5s3 5.6 4.2 6.8c1.2 1.3 9.7 7.9 18.9 14.5l16.6 12.2-7.7 23.5c-4 12.2-5.1 16.9-5.1 22 0 4.4.7 7.9 2 10.8 1.1 2.3 3.7 5.9 5.7 8 2.1 2 5.6 4.6 7.8 5.7 3 1.5 6 2 12 2 5.7 0 9-.5 11.5-1.8 1.9-.9 10.6-6.9 19.3-13.2 8.6-6.3 16-11.5 16.4-11.5.5 0 8 5.2 16.8 11.6s17.4 12.3 19 13.1c1.6.9 6.1 1.8 10 2.1 5.2.3 8.1-.1 11.5-1.4 2.5-1 6.5-3.6 8.9-5.8 2.4-2.3 5.2-5.9 6.4-8.1 1.1-2.2 2.2-6.7 2.5-10 .4-5.3-.3-8.2-5.8-25.5l-6.7-20.5c-.2-.5 7.4-6.7 16.9-13.6 13-9.5 18.1-13.8 20.6-17.5 1.8-2.8 3.5-6.8 3.8-9.4.4-2.5.4-7 0-10-.3-3.1-1.7-7.3-3-9.5s-3.7-5.2-5.3-6.7c-1.5-1.5-5.1-3.7-7.8-5-4.7-2.1-6.4-2.3-27.3-2.5L678 577c-12.7-38.8-14-41.9-17.5-45.8-2.2-2.5-5.8-5.4-8-6.5-2.6-1.3-6.6-2.2-11.5-2.4-6.3-.3-8.3 0-12.5 2z"/><path d="M630.5 529.8c-2.2 1-5.5 3.6-7.2 5.8-2.5 3-4.9 8.8-10.3 25.7l-7 21.7c-45.7.5-48.9.7-52 2.4-1.9 1-4.6 2.8-5.8 4-1.3 1.1-3.2 3.7-4.2 5.6-.9 1.9-2 5.1-2.4 7s-.2 5.5.4 8c.5 2.5 2 6 3.2 7.7 1.3 1.8 10.5 9.2 20.6 16.5 10 7.3 18.2 14 18.2 14.8s-3 10.7-6.6 22c-4.1 12.8-6.6 22.2-6.6 25 0 2.5.9 6.3 2 8.5s3.3 5.2 4.9 6.7c1.5 1.5 4.5 3.4 6.5 4.2 2.1.9 6.2 1.6 9 1.6 3.7 0 6.5-.7 9.3-2.3 2.2-1.3 11.2-7.6 20-14 8.8-6.5 16.7-11.7 17.5-11.7.8.1 9.1 5.7 18.5 12.5 9.4 6.9 18.6 13.2 20.5 14.1 2.4 1.2 5.3 1.5 9.6 1.3 4.5-.3 7.1-1.1 10.2-3.1 2.3-1.6 5.4-4.7 6.9-7 2-3 2.9-5.7 3.1-9.7.2-4.7-.8-9-6.8-26.8-6.7-20.4-6.9-21.4-5.3-23.2 1-1 8.5-6.7 16.8-12.6 8.2-5.9 16.3-11.9 17.8-13.4 1.6-1.4 3.8-4.4 4.9-6.6 1.6-3.1 2-5.4 1.7-10.6-.3-5-1-7.5-3.2-10.7-1.5-2.3-4.8-5.4-7.5-6.9-4.7-2.8-4.7-2.8-29.2-3.3l-24.4-.5c-10.9-33.4-14.9-44.3-15.9-45.8-.9-1.5-3.6-3.9-5.9-5.4-3.3-2.2-5.5-2.9-10.7-3.1-4.8-.2-7.7.2-10.6 1.6z" fill="#f0cc00"/><g fill-rule="evenodd"><path d="M330.2 653.9c1.6.9 6.1 4.3 10 7.6 4 3.3 9.9 9.2 13.3 13.2 3.3 4 8.4 11 11.2 15.5 2.9 4.6 7.1 12.5 9.3 17.6 2.2 5 5.1 12.9 6.4 17.5 2 6.8 2.2 8.3 1 9-.8.4-2.9.2-4.6-.4-2.5-.8-3.6-.8-4.3.1-.6.6-1.3 3.3-1.7 5.8-.4 2.6-1 11.7-1.4 20.2-.4 9.5-.2 19.8.5 26.5.6 6 .9 11.2.6 11.5s-3.7-2.6-7.7-6.5c-4-3.8-9.6-9.7-12.5-13-3-3.3-7.3-8.9-9.7-12.5s-6.5-10.3-9-15c-2.4-4.7-5.8-12.5-7.5-17.5s-3.8-12.4-4.7-16.5-1.8-13.8-2.1-21.5c-.4-8.6-.1-17.3.6-22.5.7-4.7 1.6-10.2 2.2-12.2.5-2.1 1.3-3.6 1.9-3.3s2-.8 3.2-2.4c2.1-2.8 2.2-2.8 5-1.2zM311.5 670c.1 0 0 6.4-.2 14.3-.3 7.8-.6 14.8-.9 15.5-.2.7-1.2.2-2.8-1.5-1.2-1.6-4.6-4.6-12.5-10.8l8.1-8.7c4.4-4.9 8.1-8.8 8.3-8.8zm723.1 2.1c2-.1 2.1.3 1.7 7.2-.2 3.9-1.1 11-2 15.7-.8 4.7-2.8 12.3-4.5 17-1.6 4.7-4.8 11.9-7 16s-6.3 10.6-9.3 14.5c-2.9 3.9-6.1 7.8-7.2 8.7-1.1 1.1-6.6 2.8-13.8 4.2-6.6 1.4-16.3 3.9-21.5 5.6s-13.2 4.8-17.8 6.8c-4.5 2-8.4 3.4-8.7 3-.3-.5 1.6-4.3 4.2-8.5 2.5-4.3 6.1-10.9 7.8-14.8 1.8-3.8 4.3-10.1 5.5-14 1.3-3.8 3.1-7.7 3.9-8.5.9-.9 9.7-10.3 19.6-20.9 9.9-10.7 17.9-19.6 17.8-20-.1-.3 2.6-1.8 6-3.3 3.4-1.6 10-4.1 14.7-5.7s9.5-3 10.6-3zM291.2 692l3.6 2.8c2.1 1.6 5.9 5.4 8.7 8.4 2.7 2.9 6.2 7.8 7.7 10.8s3.9 9.8 5.3 15 4.7 14 7.4 19.5c2.6 5.5 6.4 12.6 8.4 15.8 2 3.1 3.7 6.2 3.7 6.7s-2.6-.2-5.8-1.6c-3.1-1.5-10-4.2-15.2-6.1s-14.9-4.8-21.5-6.4-13-2.9-14.3-2.9c-1.2 0-3.8-1.5-5.8-3.2-2-1.8-5.8-6.2-8.4-9.8s-5.4-7.9-7.8-12.5zm86.8 48.1l7.3 2.6c4 1.4 9.9 3.9 13.2 5.6S407 753 410 755c3.1 2.1 8 6 10.9 8.7 3 2.6 7.3 7.5 9.7 10.8 2.3 3.3 5.5 8.6 9.9 17.5l-2.2 1.5c-1.2.9-2.3 2-2.3 2.5 0 .6-1.7 2.7-3.9 4.8s-11.4 11.8-20.6 21.7-17.1 18-17.7 18-2.8-3.3-4.9-7.5c-2.1-4.1-5.2-11.5-6.8-16.5-1.6-4.9-3.7-13.2-4.7-18.5-1.4-7.3-1.8-14.4-1.8-31.5 0-15.3.4-22.6 1.2-24.2zm574 1c.4 0-1.6 4.6-4.4 10.2-2.7 5.6-8.2 14.5-12.2 19.8-3.9 5.2-11.3 13.4-16.3 18.2s-9.4 8.8-9.8 8.8-.3-3.4.2-7.6c.6-4.1 1.4-7.5 1.8-7.4.4 0 9.5-9.5 20.3-21 10.8-11.6 20-21 20.4-21zm-693.2 17h3.9c2.1 0 8.1.7 13.3 1.5 5.2.9 14 2.7 19.5 4.1s14.3 4.1 19.5 6.1c5.2 1.9 12.2 4.9 15.5 6.5 3.3 1.7 9.2 5 13 7.5 3.9 2.5 9.9 7 13.4 10.1s9 9 12.1 13.2c3.3 4.4 6.8 10.5 8.4 15 1.6 4.1 4.8 11.2 11.6 24l-2.6 3.2c-1.4 1.8-4.8 5.6-12.4 13.8h-9.7c-5.4.1-13.2.5-24.8 1.7l-8-4.5c-4.4-2.4-12.1-7.6-17.2-11.4-5.1-3.7-12.9-10.4-17.3-14.8s-10.7-11.8-14.1-16.3c-3.3-4.5-7.6-10.9-9.4-14.2-1.9-3.3-4.5-8.9-5.9-12.3s-3.7-10-5-14.5-2.7-10.6-3.1-13.5zm747.1 1.3c.7.1 1.2.7 1.1 1.2-.1.6-21 23.4-46.5 50.8L914 862.1c0 .6-4 1-10.2 1-5.6 0-14.3.5-19.3 1.1-4.9.5-9.2.8-9.5.5-.2-.3 2.7-3.9 6.5-7.9 3.9-4.1 9.1-11 11.5-15.3 2.5-4.4 6.1-11.7 7.9-16.4 1.9-4.7 5-10.9 7-14 2-3 6.1-8.1 9.1-11.4 3.1-3.3 8.9-8.5 13-11.5 4.2-3.1 12-7.9 17.5-10.8 5.5-2.8 15.7-7 22.5-9.4 6.9-2.3 17.5-5.2 23.5-6.5 6.1-1.2 11.6-2.2 12.4-2.1zM901 795.1c.3 0 .9.2 1.4.5.5.4 0 4.3-1.1 8.8-1.2 4.5-3.3 11.6-4.8 15.7s-3.8 9.8-5.2 12.5c-1.4 2.8-4.4 7.7-6.6 11s-6.8 8.7-10.1 12.1c-3.3 3.3-8.8 7.8-12.1 10s-8.2 4.9-11 5.9c-2.7 1-7.5 3.1-10.7 4.7-3.2 1.5-5.8 2.5-5.8 2.1 0-.5 1.5-5.3 3.3-10.8 2.4-7.3 4-10.6 6.2-12.6 1.7-1.5 15-15.6 29.5-31.3l27-28.6zm-395.7 40c.4 0 3.1 2.9 11.2 12.8l.7 10.3c.4 5.7 1.6 13.8 2.7 17.9s2.9 9.5 5.9 16.5L505.5 914l-25.4.6-6.6-6.5c-3.7-3.6-8.9-9.6-11.6-13.5-2.7-3.8-4.9-7.3-4.9-7.7 0-.5 10.7-12.3 23.8-26.3l24.5-25.5zm19 .9l4.6.7c2.6.3 8.5 1.4 13.1 2.4 4.7 1 12.1 3.1 16.5 4.8 4.4 1.6 8 3.3 8 3.9s-7.9 9.7-17.7 20.2-18.1 19.1-18.5 19.1-2-3.9-3.6-8.7c-2.1-6.6-3-11.5-3.4-19.8-.3-6-.2-13.6.2-16.8zm229 .2c1 0 2 .4 2.3.9.3.6-26.4 29.9-59.3 65.1L636.8 967c.1.3-16.3 8.5-36.4 18.1l-37.2 17.8c-.3.1-3.1-1.2-6.1-3s-6.7-5.1-8.2-7.3-2.8-4.7-2.8-5.5c0-1.1 9.8-4.9 35.2-13.8 19.4-6.8 35.9-12.9 36.6-13.5.7-.7 1-1.9.7-2.7s-3.6-2.6-7.3-3.9-11-4.4-16.2-6.8-9.7-4.6-10-4.8 6.4-7.7 14.9-16.7l23-24.3 2.9 6.5c1.6 3.6 4.3 10.8 6 16 1.6 5.2 3.5 12.5 4.1 16.3.7 4.2 1.6 7 2.6 7.5 1 .4 2.1.1 2.9-.8.7-.8 1.9-4.4 2.5-8 .7-3.6 2.8-11.2 4.7-17s5.7-14.8 8.4-20 7.2-12.6 10.1-16.5c2.8-3.8 7.7-9.6 10.8-12.9 3.1-3.2 9.2-8.5 13.6-11.8s11.8-7.9 16.5-10.3c4.7-2.3 12.1-5.4 16.5-6.9s11.4-3.3 15.5-4.1l9.5-1.8c1.1-.3 2.8-.5 3.7-.6zm-385.2 32.9l-6.2 6.8c-3.4 3.7-9.4 10-13.3 14-3.8 4-7.2 6.9-7.5 6.5-.3-.5-2.6-3.8-5.1-7.3-2.5-3.6-5.8-8.6-7.3-11.2-1.4-2.7-2.3-5-1.9-5.2s5.5-.9 11.3-1.5l13.5-1.5c1.6-.1 6-.4 16.5-.6zm537.5 0l-3.4 4.3c-2 2.3-15 16.5-29.1 31.5l-26 27.2c-.3 0-.4-1.1-.3-2.5.2-1.6-.4-2.8-1.5-3.4-.9-.5-6-2.3-11.2-4s-13.1-3.9-25.5-6.4l6.3-7.6 11-13c2.6-3 7.6-7.4 11.2-9.7s9.2-5.3 12.5-6.7 9.4-3.4 13.5-4.5 11.1-2.5 15.5-3.1l11-1.4c1.6-.2 5.9-.5 16-.7zm-76.3 3.7c.4.2.1 2-.8 4.1-.9 2-3.2 6.4-5.2 9.7s-5.5 8.5-7.8 11.5-6.8 8.1-10.1 11.2c-5.7 5.5-5.9 5.6-10.3 5.1-2.5-.3-4.6-.6-4.7-.7-.1 0 8.4-9.4 18.9-20.7s19.5-20.4 20-20.2zm-377.1 19.8c.5.3 2.6 2.9 4.7 5.8 2.1 2.8 6.4 8 15.2 17.7l-6.3 1c-3.4.5-10 2.1-14.7 3.4-4.7 1.4-10.7 3.4-13.3 4.5-3.4 1.5-4.7 2.7-4.7 4.1 0 1.1 1.8 4.3 4 7 2.2 2.8 4 5.3 4 5.8 0 .4-4.2.4-9.3.1-5.1-.4-12.3-1.3-16-2-3.7-.8-6.8-1.6-6.9-1.9s9.4-10.8 21.1-23.3c11.7-12.4 21.7-22.4 22.2-22.2zm39.4 27.6c3.3-.1 6.3.2 6.7.6.4.5-4.8 6.6-11.5 13.7l-19.4 21.1-4.4-2.9c-2.4-1.6-8.4-6.9-13.2-11.8-4.8-4.8-8.6-9.4-8.4-10 .2-.7 3.5-2.3 7.3-3.4 3.8-1.2 10.5-2.9 14.9-3.8s11.1-2.1 15-2.5c3.8-.5 9.7-.9 13-1zm301.3.3c5.9.4 15 1.5 20.2 2.6 5.2 1 12.6 2.7 16.5 3.9 3.8 1.2 7.7 2.5 8.5 3 1.2.7.7 1.8-3 6.1-2.5 2.8-7 7.3-10 10-3 2.6-8.4 6.8-12 9.3s-10.6 6.5-15.5 9c-5 2.5-13.3 5.9-18.5 7.5-5.2 1.7-14.2 3.8-20 4.6-5.8.9-14.2 1.6-18.8 1.6-4.5 0-8.4-.3-8.6-.7-.2-.5 11.2-13.2 25.4-28.3s25.6-27.9 25.4-28.4c-.1-.5 4.1-.6 10.4-.2zM580 946.4l11.3 5c6.2 2.8 11.9 5.5 12.6 6.1 1 .9-4.6 3.2-24 9.9-13.9 4.8-25.5 8.5-25.8 8.3-.3-.3.8-2 2.4-3.8s7.5-8.3 13.2-14.4zm145.9 36.8c.4 0 2.4.5 4.4 1.2 2.1.7 3.8 1.7 3.8 2.2 0 .6-1.2 2.9-2.8 5.2-1.5 2.3-3.9 5.1-5.2 6.2-1.4 1.1-4.1 2.6-6 3.5-3.2 1.3-3.8 1.3-9.9-1.9l7.5-8.2c4.1-4.5 7.8-8.3 8.2-8.2z" fill="#c4ed98"/><path d="M639.5 468c1.6 0 5.4.7 8.3 1.5 3.7 1.1 6.6 2.8 10 6.3 4.7 4.5 5.1 5.5 11.5 24.7 3.7 11.1 8.2 22.7 10.2 26s3.5 6.2 3.5 6.5-2.9 3.7-6.3 7.7c-3.4 3.9-6.7 7.2-7.2 7.2-.5.1-1.9-2.7-3-6.1-1.3-3.9-3.5-7.8-6-10.6-2.2-2.5-5.8-5.4-8-6.5-2.4-1.2-6.8-2.2-11-2.4-4.9-.4-8.2 0-11 1.1-2.2.8-5.6 2.7-7.5 4.1s-4.6 4.3-6 6.3-5.4 12.6-15.5 43.1l-22.5.3c-21.7.3-22.7.4-27.4 2.8-2.7 1.4-6.8 4.5-9 7-2.9 3.2-4.7 6.5-6 11-1.2 4.4-1.6 7.8-1.1 10.5.3 2.2 1.5 6 2.6 8.5s3 5.6 4.2 6.9c1.2 1.2 9.1 7.3 17.5 13.5 8.4 6.1 15.2 11.4 15 11.8-.2.3-6.2 6.9-13.3 14.7-7.1 7.7-13.2 14.1-13.5 14.1s-1.3-3.9-2.2-8.8c-1.1-5.5-3.2-11.7-5.7-16.7-2.2-4.4-6.1-10.7-8.8-14-3.1-3.9-9.9-9.7-19.3-16.7L493.7 608c-2-1.6-4.9-5.4-6.3-8.3-2-4-2.6-6.6-2.5-11.7 0-4.8.7-7.9 2.6-11.8 1.6-3.3 4-6.3 6.8-8.3 2.3-1.7 5.3-3.6 6.7-4.2s13.1-1.3 27-1.7c23.3-.6 24.9-.8 32.5-3.4 4.4-1.5 10.5-4.2 13.5-5.9s8.1-5.3 11.3-7.9c3.1-2.7 7.7-7.6 10.1-11 2.4-3.5 5.5-8.5 6.8-11.3 1.4-2.7 4.9-12.2 7.8-21s6.1-17.6 7.1-19.5c.9-1.9 3.2-5 5.1-6.8 1.8-1.8 5.8-4.1 8.8-5.2s6.9-2 8.5-2zm-258 126.5c1.1.3 5.1 1.3 9 2.1 4.3 1 12.1 1.7 20 1.7 9.3.1 14.7-.3 19-1.5 3.3-1 6.1-1.6 6.3-1.5.1.1.7 4.9 1.2 10.7s1.4 13.6 2 17.5 1.8 9.9 2.6 13.5 3.1 11.5 5.1 17.5c1.9 6 6.1 16.4 9.2 23 3.2 6.6 8.1 15.8 11 20.5 3 4.7 7.7 11.6 10.6 15.5s8 10 11.4 13.8q6.1 6.7 5.4 8.1c-.5.7-11.6 12.9-24.8 27-13.2 14-24.3 25.4-24.7 25.1-.5-.3-.8-1.1-.8-1.7 0-.7-1.9-4.4-4.2-8.3s-7.4-10.3-11.3-14.4c-3.8-4-9.7-9.3-13-11.6-3.3-2.4-9.6-6.1-14-8.2-6.2-3.1-8.5-4.9-10.4-7.9-1.3-2.1-3.9-8.6-5.8-14.4s-5.2-14.3-7.4-19-5.5-11-7.3-14c-1.9-3-4.3-8.4-5.4-12-1.2-3.6-3.5-11.9-5-18.5-1.6-6.6-3.8-17.2-6.7-35.3l4-4.4 13-14.1c7.1-7.8 9.4-9.7 11-9.2zm525-.3l20.5-.2v8.2c0 4.6-.7 14.4-1.6 21.8-.8 7.4-2.6 18.5-3.9 24.5-1.2 6-2.8 12.8-3.4 15-.9 3.3-13.9 17.8-76.2 84.5l-77.4 83c-2.3 2.4-2.5 2.4-4.2.8-1-1-2.9-1.8-4.3-1.8s-6.8.7-12 1.6c-5.2.8-14.2 3.1-20 5.1-5.8 1.9-14.5 5.5-19.5 8.1s-12.6 7.4-16.9 10.7c-4.4 3.3-11.4 9.7-23.1 22.5h-10.8c-5.9 0-10.6-.4-10.5-.9.2-.4 21.9-24 48.2-52.2l53.5-57.3c3.1-3.3 8.3-7.7 11.6-10 3.3-2.2 9.8-7.3 14.5-11.2s12.3-11.1 16.8-16c4.6-4.9 10.9-12.3 14-16.4s8-11.3 10.9-16c4.1-6.6 15.4-19.4 49.5-56.2zm-265.4-65.9c5.2.2 7.5.9 10.8 3 2.3 1.5 5 4.2 6.2 6 1.1 1.8 2.9 6.2 6.3 16.3l-41.9 45.1L580 644c-.2.1-7.7-5.1-16.5-11.4-9.2-6.8-17-13.2-18.5-15.3-1.4-2.1-2.9-5.6-3.2-8-.4-2.3-.5-5.7-.1-7.5.3-1.8 1.4-4.8 2.4-6.7 1-2 2.8-4.5 4.1-5.7 1.3-1.1 3.9-2.9 5.8-4 3.1-1.6 6.3-1.9 52-2.3l7.1-21.8c5.4-16.8 7.7-22.6 10.2-25.7 1.8-2.1 5-4.7 7.2-5.7 2.9-1.4 5.9-1.8 10.6-1.6zm116.4 33.6l9.5.4c7.1.3 10.6.9 13.5 2.5 2.2 1.1 5.6 3.8 7.6 5.9s4.4 5.9 5.3 8.4c1.3 3.1 1.7 6.4 1.5 11-.3 5.2-1 7.6-3.4 11.5-2.3 3.7-6.5 7.4-18.5 16.2-8.5 6.2-17.2 13-19.3 15-2.1 2.1-5.8 6.5-8.2 9.8s-5.5 8.6-6.9 11.7c-1.4 3.2-3.3 8.6-4.1 12-1.4 5.6-2.5 7.2-10 15.3-5.5 5.9-8.7 8.6-9.3 8-.5-.6-3.5-9.1-6.7-19l-6.1-19c-.3-.6 7.3-6.7 16.8-13.7 10.2-7.3 18.5-14.2 20.1-16.5 1.5-2.1 3.2-5.4 3.7-7.3.6-2 1-6 1-9 0-3.1-.6-7.1-1.2-9.1-.7-1.9-2.5-5.2-6.8-10.9zm-25.1 28.5c.6.2 2.2 2.4 3.4 4.8 1.6 3.1 2.3 6.1 2.3 10.1 0 3.7-.8 7.2-2 9.5-1 2.1-3.2 5-4.7 6.4-1.6 1.4-9.6 7.5-17.9 13.4-8.2 5.9-15.7 11.6-16.7 12.6-1.7 1.8-1.5 2.8 5.2 23.1 3.9 11.7 7 22.7 7 24.5 0 2.7-1.4 4.9-17.5 22.2l-5 .1c-2.9 0-6.3-.7-8.2-1.8-1.8-.9-11.1-7.3-20.7-14.2s-17.4-12.8-17.2-13.2c.1-.3 20.6-22.5 45.5-49.3l46.5-48.2zm-290.2 3.7H479l1 3.7c.6 2.1 2.5 5.9 4.3 8.5 2.2 3.2 7.6 7.9 16.7 14.5 7.5 5.4 17.2 13.4 21.6 17.8 6 6 9 9.9 11.7 15.5 2 4.1 4.3 10.4 5.2 14 .8 3.6 1.5 9 1.6 17.5l-41.6 44.7-3.8-4.3c-2.2-2.4-6.2-7.1-8.9-10.4-2.8-3.3-7.6-9.8-10.8-14.5-3.1-4.7-8-12.8-10.7-18-2.8-5.2-6.7-13.8-8.8-19s-5-13.8-6.5-19-3.7-15.1-4.8-22-2.2-16.2-2.5-20.8zm334 29.1c.3-.1.6.5.5 1.3-.1.7-7.2 8.8-15.7 18s-16 16.7-16.7 16.6c-.8 0-.3-2 1.6-5.7 1.6-3.2 4.9-8.2 7.3-11.2s8.4-8.5 13.3-12.2c5-3.8 9.3-6.8 9.7-6.8zm-136.7 73c.6-.1 8.2 5.1 17 11.5s17.1 12.2 18.5 12.9 4 1.6 5.8 1.9c1.8.4 3.2 1.2 3.2 1.9s-2.9 4.2-12.8 14.2l-5.3-2.2c-3-1.3-9-3.1-13.4-3.9-5.6-1.2-10.5-1.5-16.5-1-4.7.3-11.2 1.3-14.5 2.2s-8.7 2.9-12 4.4c-3.3 1.6-12.5 7.6-20.5 13.4s-15 10.6-15.7 10.6-1.2-.4-1-.9c.1-.5 10.1-11.6 22.2-24.6 17.3-18.7 24.4-25.6 33-32.1 6.1-4.5 11.5-8.3 12-8.3zm-.7 41c3.4 0 9.7.7 14 1.5 4.2.9 9 2.3 10.5 3 1.5.8 2.6 1.8 2.5 2.3-.2.5-9.3 10.6-40.3 44.1l-6.5-.6c-3.6-.3-11.2-1.4-17-2.5s-16.7-4-24.2-6.5c-7.6-2.4-13.8-4.7-13.8-5.1s2.4-1.5 5.2-2.5c3.4-1.1 11.2-5.9 21.8-13.5 9.1-6.5 19.4-13.1 23-14.7 3.6-1.5 9.2-3.4 12.5-4.1s8.8-1.3 12.3-1.4zm-81.8 40c.2 0 5.2 1.8 11 4 5.8 2.3 15.5 5.4 21.5 7 6.1 1.6 15.2 3.5 20.3 4.2s9.2 1.5 9.2 1.7c0 .3-8.3 9.5-18.5 20.5l-27 28.7-9-3.5c-4.9-2-13.7-4.7-19.5-6.1s-13.8-2.7-25.3-3.1l-2.2 8.7-8.5-10.2 2.3-2.9c1.2-1.6 11.9-13.3 23.7-26l22-23z" fill="#f8e600"/></g></svg>