<svg xmlns="http://www.w3.org/2000/svg" width="1280" height="1280" xmlns:v="https://vecta.io/nano"><path d="M618 247c-6.3.5-17.1 1.6-24 2.5s-18.6 2.7-26 4.1-20.5 4.1-29 6l-28 7c-6.9 1.9-19.9 5.7-29 8.6-9.1 2.8-23.3 7.5-31.5 10.5-8.3 3-17.2 6.6-19.9 8.1-2.6 1.5-7.4 5.4-10.6 8.7a52.76 52.76 0 0 0-9.4 13.5c-2.5 5.1-3.9 10-4.6 15.5-.8 5.4-1 43.2-.8 115l.4 107c3.4 12.4 6.4 20 8.9 25 2.4 5 8 13.7 12.4 19.5 4.5 6.1 14.3 16.8 23.2 25.5 8.5 8.3 21.4 19.7 28.7 25.5s13.2 11 13.2 11.5-6.8 13.9-15 29.8l-28.6 53.5-25.2 44.2-20 33c-4.6 7.4-12.3 19.1-17 26s-12.5 17.7-17.3 24-10.1 14.4-11.8 18-3.5 9.6-4.1 13.5c-.8 5-.8 9 0 14 .6 4 2.6 10.2 4.6 14.5 2.7 5.7 5.6 9.6 12.2 16.3 4.8 4.9 13.6 13.1 19.7 18.2s16.2 13 22.5 17.5 16.3 11.1 22.3 14.6c5.9 3.5 15.1 8.6 20.5 11.3 5.3 2.7 14.9 6.9 21.2 9.4s15.6 5.8 20.5 7.2 13.3 3.4 18.5 4.5c5.2 1 14.5 2.4 20.5 3 9.3 1 12.2.9 18.5-.4 4.1-.9 10-2.8 13-4.3s8.4-5.5 12-8.9 7.7-8.3 9.2-11 8.7-21.8 16.1-42.4l24-68 11-32c.4-1.3.5-1.3 1 0 .4.8 5.8 16.4 12.1 34.5l23.5 67c6.7 18.7 13.4 36.4 14.9 39.4s5.4 8.2 8.7 11.6c4.2 4.2 8.3 7.3 13.5 9.8 4.4 2.1 10.4 4.1 14.5 4.7 5.1.8 9.8.8 17.5 0 5.8-.6 13.9-1.8 18-2.6 4.1-.7 12.3-2.7 18.3-4.4 5.9-1.6 14.9-4.6 20-6.6 5-2 13.7-5.8 19.2-8.3 5.5-2.6 14.5-7.3 20-10.6 5.5-3.2 15.2-9.3 21.5-13.6s16.2-11.6 22-16.2 15.2-12.9 20.9-18.3c5.8-5.4 12.2-12.6 14.3-15.9 2.2-3.3 4.8-8.9 5.9-12.5 1.2-4.2 1.9-9.4 1.9-14.5 0-4.4-.7-10.5-1.6-13.5s-2.4-7.1-3.4-9-6.9-10.3-13-18.5c-6.2-8.3-15.8-22-21.5-30.5-5.6-8.5-14.8-23.1-20.5-32.5l-19.5-33-21.7-39-25.7-48.5-12.8-25.6c.1 0 4.2-3.1 9.2-7 5-3.8 12.4-9.8 16.5-13.3s12.1-11 17.8-16.5c5.7-5.6 13.2-13.5 16.6-17.6s8.2-10.4 10.6-14 6.1-10.1 8.2-14.5 4.7-11.6 5.8-16c2-7.8 2-10.9 2-119.5 0-108.2 0-111.7-1.9-118-1.1-3.6-3.7-9.2-5.9-12.5-2.1-3.3-6.3-8.2-9.3-10.8-3-2.7-8.1-6.2-11.4-7.7-3.3-1.6-18.1-6.9-33-11.9-14.9-4.9-35.5-11.3-46-14.1s-26.2-6.6-35-8.5-21.6-4.3-28.5-5.5c-6.9-1.1-18.1-2.6-25-3.4s-20.6-1.7-30.5-2c-9.9-.2-23.2-.1-29.5.4z" fill="#fff"/><path d="M628 251.6c-3.6.2-12.1.9-19 1.5s-19.3 2.2-27.5 3.4c-8.3 1.3-22.4 4-31.5 5.9-9.1 2-25 5.8-35.5 8.6-10.4 2.8-30.9 9.1-45.5 13.9-14.6 4.9-29.2 10.1-32.5 11.7s-8.6 5.3-11.9 8.4c-4.1 3.9-6.9 7.7-9.5 13l-3.6 7.5 1 233c.8 3.9 3.7 11.5 6.3 17 2.7 5.5 7.7 13.8 11.2 18.5 3.4 4.7 13.3 15.5 21.9 24s22.7 21.1 31.3 28l15.7 12.5-25.7 50c-5.2 9.9-16.2 30.1-24.5 45-8.2 14.9-20.4 36-27 47s-17.9 29-25.2 40-16.8 24.6-21.1 30.3c-4.4 5.7-9.4 12.6-11.2 15.5s-4 7.7-4.9 10.7c-1.1 3.9-1.4 8.3-1.2 15 .4 8.6.8 10.4 4.1 17 3 6.2 5.6 9.4 15 18.5 6.2 6.1 16.2 15 22.3 19.8s16.6 12.5 23.5 17.1 17.4 11.1 23.5 14.4c6.1 3.4 15.3 8 20.5 10.3a730.38 730.38 0 0 0 17.5 7.1c4.4 1.6 12.9 4.2 19 5.8s15.5 3.7 21 4.5c5.5.9 13.8 1.6 18.5 1.7 4.7 0 10.5-.5 13-1.2s6.8-2.4 9.5-3.8c2.8-1.4 7.2-4.6 9.8-7.1 2.7-2.5 6.1-6.6 7.7-9.1s8.2-19.6 14.8-38l23-65 14.8-42.8c2.1-6.2 4.2-11.2 4.6-11.2.5 0 1.1 1.2 1.4 2.7.3 1.6 5.1 15.8 10.6 31.8l25.5 72.5c8.5 23.9 16.7 45.7 18.1 48.4 1.5 2.7 4.5 6.8 6.7 9.1s6 5.4 8.5 7c2.5 1.5 6.3 3.4 8.5 4.2s6.5 1.8 9.5 2.3c3 .4 9.5.4 14.5-.1s14-1.8 20-3c6-1.1 18-4.3 26.5-7.1 10-3.4 21.7-8.2 33-13.9 9.6-4.8 24.2-13.2 32.5-18.7 8.2-5.5 20-14 26-18.8 6-4.9 16-13.8 22.1-19.9 8-7.9 11.8-12.5 13.7-16.5 1.4-3 3-7.5 3.6-10s1.1-7.2 1.1-10.5-.5-8-1.1-10.5-2-6.5-3.3-9c-1.2-2.5-6.7-10.4-12-17.5-5.4-7.1-14.9-20.6-21.1-30s-15.5-24-20.7-32.5-14.9-25-21.5-36.5c-6.7-11.5-17.9-31.8-25-45l-24.7-47c-9.7-18.8-11.6-23.2-10.5-24.1.8-.7 8.4-6.7 16.9-13.5s21.8-18.6 29.6-26.4c7.8-7.7 16.9-17.8 20.4-22.5 3.4-4.7 7.8-11.4 9.8-15s5-10.3 6.7-15l3-8.5-.5-228.8c-.5-2.6-2.2-7.3-3.7-10.4-1.5-3.2-5.3-8.3-8.3-11.5-3.8-3.9-7.8-6.7-13-9.1-4.1-1.9-15.6-6.3-25.5-9.7s-27.9-9-40-12.5c-12.1-3.4-30.1-8.1-40-10.4-9.9-2.2-24.8-5.2-33-6.6-8.3-1.4-21.5-3.2-29.5-3.9-8-.8-20.4-1.7-27.5-1.9s-15.9-.2-19.5-.1z"/><path d="M476 826.8a747.07 747.07 0 0 1-10.2 17.2c-3.3 5.2-5.7 9.6-5.6 9.6.2.1 5.7 3.8 12.3 8.1 6.6 4.4 16.5 10.6 22 13.8 5.5 3.3 16.3 8.9 24 12.6s19.5 8.7 26.2 11.1c6.8 2.3 12.5 4.1 12.6 3.8.2-.3 3.4-9.2 7-19.7l6.7-20c0-.5-3.5-1.8-7.7-3.1-4.3-1.3-13-4.4-19.3-6.9s-17.8-7.7-25.5-11.7-18.3-9.9-23.5-13.2l-12-7.6-2.6-1.7zm314-1.8c-4.7 3.2-13.4 8.5-19.5 11.8-6 3.4-16.6 8.7-23.5 11.8s-18.2 7.5-25.2 9.7c-7.2 2.4-12.7 4.7-12.8 5.5 0 .6 3 9.6 6.6 20l6.7 19c.1.2 3.4-.6 7.2-1.8 3.9-1.3 11.7-4.2 17.5-6.5s14.3-6.2 19-8.5 12.1-6.3 16.5-8.8 14.4-8.7 22.3-13.9c7.8-5.1 14.2-9.7 14.2-10.3 0-.5-4.3-8.1-9.6-16.7-5.2-8.7-9.8-16-10.2-16.3-.4-.4-4.6 1.9-9.2 5z" fill="#fff"/><path d="M554.7 681.7l-21.4 41.8L509 769l-11.9 21.7c-1 2.2-.5 2.7 8.1 8.4 5.1 3.3 13.8 8.6 19.3 11.7s14.8 7.8 20.7 10.4c6 2.6 16.3 6.6 23 8.8 6.8 2.3 12.6 3.7 12.9 3.3.4-.4 3.6-9.6 7.2-20.3l14-43c4.2-12.9 10.3-33 13.6-44.5 3.4-11.5 6-21.7 5.9-22.5-.2-.8-5.9-4.9-12.8-9l-28.5-17.4-17-10.2c-.6-.3-4.5 6.7-8.8 15.3zM708 671.1c-4.1 2.8-16.3 10.2-27 16.6l-21.8 12.9-2.2 1.4 10.7 36.5c3.6 12.1 11.9 38.4 18.5 58.5l12.2 36.7c0 .1 3.2-.6 7.1-1.7 3.8-1.1 11.3-3.6 16.5-5.6s14.9-6.4 21.5-9.6c6.6-3.3 15.1-7.8 19-10.1 3.8-2.2 10.3-6.2 14.2-8.9l7.3-4.8-16.2-29.5-28-53-19.4-38.3c-1.6-3.4-3.4-6.2-3.9-6.2-.6.1-4.4 2.4-8.5 5.1zM441.4 881.7c-.9 1.6-5.5 8.2-10.2 14.8-8.2 11.6-8.4 12-6.5 13.5 1.1.8 6.7 5.3 12.4 9.9 5.7 4.7 15.3 11.7 21.4 15.7 6 4 16.2 9.9 22.5 13.2s16 7.7 21.5 9.7c5.5 2.1 14.3 4.8 19.5 6.1 5.2 1.4 10.2 2.4 11 2.4 1 .1 3.5-5.4 8-17.5 3.6-9.6 6.3-17.7 6-17.8-.3-.2-6.1-2.3-13-4.6s-20.2-7.9-29.5-12.5c-9.4-4.5-21.5-10.8-27-14.1-5.5-3.2-15.3-9.4-21.8-13.7-6.4-4.3-11.9-7.8-12.1-7.8s-1.2 1.2-2.2 2.7zm386.1 2.9c-4.4 3-13.9 9-21 13.3-7.2 4.3-18.6 10.7-25.5 14.1s-17.2 8.2-23 10.5c-5.8 2.4-13.8 5.3-17.8 6.6s-7.2 2.8-7.2 3.4c0 .5 2.7 8.4 6 17.5s6.3 16.7 6.5 17c.3.3 4.3-.3 8.8-1.4 4.5-1 12.5-3.3 17.7-5.1 5.2-1.9 13.8-5.3 19-7.7 5.2-2.5 14.9-7.7 21.5-11.7s16.9-11 23-15.6c6-4.5 13.4-10.3 16.2-12.9l5.3-4.6c-15.4-22.5-20.2-29-20.7-29-.4 0-4.4 2.5-8.8 5.6z" fill="#f2c43d"/><path d="M615 312.6c-1.9.2-10 1.3-18 2.5-8 1.1-22.8 3.8-33 6s-25.9 6-35 8.4c-9.1 2.5-25.9 7.6-37.3 11.3l-20.8 6.7.6 200.1c5.4 9 11.7 16.6 17.5 22.7 5.8 6 15.7 15.3 22 20.6s16.9 13.7 23.5 18.7 19.6 14.3 29 20.6l31.5 20.5c8 5 21.4 12.9 29.7 17.7L640 677l44-26.3c8-4.9 21.9-13.9 31-20 9.1-6 22.6-15.5 30-21s18.5-14.1 24.5-19.2 15.2-13.7 20.4-19.1c5.2-5.5 11.2-12.6 13.3-15.9 2.2-3.3 4.3-7.6 4.9-9.5.6-2.2.9-38.4.7-101l-.3-97.5c-12.4-4.3-23.4-7.9-32.5-10.6-9.1-2.8-25-7.3-35.5-9.9-10.5-2.7-24.6-6.1-31.5-7.4-6.9-1.4-18.6-3.5-26-4.7-10.4-1.6-19.3-2.1-39-2.4-14-.2-27.1-.1-29 .1z" fill="#e8ca1d"/><path d="M629.5 340c-3.3.5-9.4 2.1-13.5 3.6-4.1 1.4-10.6 4.5-14.5 6.9s-10.1 7.6-14 11.7-8.5 9.9-10.2 12.9c-1.8 3-4.4 8.5-5.7 12.4-1.4 3.9-3 10.4-3.7 14.5-.6 4.1-.9 10.9-.6 15 .4 4.1 1.3 10.2 2.2 13.5s2.9 8.9 4.6 12.5 5.4 9.6 8.2 13.3c2.9 3.8 7.9 9.1 11.2 11.8 3.3 2.8 9.6 6.8 14 8.9 4.4 2.2 10.7 4.7 14 5.5 3.3.9 9.8 1.9 14.5 2.2 6.1.4 10.9.1 17-1.2 4.7-.9 11.2-2.8 14.5-4.1 3.3-1.4 8.7-4.2 12-6.4s8.8-6.8 12.2-10.2c3.3-3.5 7.7-8.8 9.6-11.8s4.6-8.2 5.9-11.5c1.4-3.3 3.1-8.7 3.8-12 .8-3.3 1.4-10.5 1.4-16-.1-7.2-.7-12.2-2.3-18-1.2-4.4-4.1-11.6-6.4-16-3.1-5.9-6.3-10.2-12.7-16.5-6.3-6.4-10.6-9.6-16.5-12.7-4.4-2.3-11.4-5.1-15.5-6.2s-11.1-2.3-15.5-2.5c-4.4-.3-10.7-.1-14 .4zM539 369.7c-2 1-6.6 4.3-10.4 7.3s-10 8.9-13.8 13-9 10.6-11.6 14.5-6.1 9.9-7.9 13.5c-1.9 3.6-4.6 10.6-6.2 15.5s-3.5 13.1-4.2 18c-.7 5.3-.9 13.1-.6 19 .4 5.5 1.6 13.7 2.7 18.2 1.1 4.6 3.7 12.2 5.8 17 2 4.9 6.4 12.8 9.7 17.8 3.5 5.4 10.1 13.2 16.4 19.5 5.8 5.8 14.6 13.3 19.6 16.7 5 3.3 13.6 8.4 19.3 11.2 5.6 2.8 15.3 6.8 21.5 9 6.1 2.1 15.7 4.8 21.2 5.9 5.5 1.2 14.7 2.6 20.5 3.2 5.8.5 14.3 1 19 1s13.2-.5 19-1c5.8-.6 15.7-2.2 22-3.7 6.3-1.4 16-4.1 21.5-6s15.2-6.1 21.5-9.4 15.3-8.8 20-12.2c4.7-3.5 11.6-9.2 15.4-12.8 3.8-3.5 9.8-10.2 13.3-14.9s8.9-13.5 11.9-19.5c3.1-6.4 6.4-14.9 7.8-20.5 1.3-5.2 2.7-13.3 3.1-18 .4-4.9.2-12.5-.4-18-.7-5.2-2.1-12.9-3.2-17-1.2-4.1-3.8-11.1-5.8-15.5s-5.7-11.1-8.2-15-7.2-10.1-10.5-13.9c-3.2-3.8-9.5-10-13.9-13.8-4.4-3.7-10-7.8-12.5-9-3.8-1.8-5-1.9-8-1-1.9.6-4.6 2.3-6 3.7-2 2.1-2.5 3.7-2.4 7.3 0 2.6 1.1 9.2 2.3 14.7 1.9 8.4 2.2 11.8 1.8 21.5-.4 8.2-1.3 14-3.1 20.3-1.4 4.8-4.1 11.7-6 15.5-1.9 3.7-5.4 9.4-7.8 12.7s-6.9 8.4-9.9 11.4c-3 2.9-8.1 7.2-11.4 9.4-3.3 2.3-9.6 5.8-14 7.8-4.4 2.1-10.9 4.6-14.5 5.5-5 1.4-10.1 1.9-22 1.9-13.2 0-16.7-.3-23.5-2.3-4.4-1.3-11.6-4.1-16-6.2-4.4-2.2-11.6-6.8-16-10.2-4.4-3.5-10.8-9.9-14.2-14.3-3.5-4.4-8.1-11.6-10.3-16-2.1-4.4-4.9-11.6-6.2-16-1.9-6.7-2.3-10.4-2.3-23s.4-16.4 2.4-24c2.2-8.5 2.3-9.2.7-12.7-.9-2.1-2.6-4.5-3.8-5.3-1.3-.8-3.7-1.7-5.3-2-1.9-.4-4.3 0-6.5 1.2z"/><path d="M632.5 364c-2.8.5-7 1.6-9.5 2.5s-6.5 2.9-9 4.5-6.9 5.4-9.8 8.4c-2.8 3.1-6.5 8.4-8.2 11.8-1.6 3.5-3.5 9.7-4.2 13.8-.9 5.9-.9 9 0 14.5.7 3.9 2.7 10.1 4.6 14 2.2 4.5 5.5 9.1 9.3 12.8 3.3 3.4 8.5 7.2 12.3 9.1 3.6 1.8 9.9 3.9 14 4.6 6 1.1 9 1.1 15 .1 4.1-.6 10.3-2.5 13.8-4.1 3.4-1.7 8.7-5.4 11.8-8.3 3-2.8 7-7.5 8.7-10.2 1.7-2.8 4-7.7 5-11 1.3-3.9 1.9-9 1.9-14.5.1-6.1-.5-10.3-2.1-14.8-1.1-3.4-3.3-8.1-4.7-10.5-1.5-2.3-4.3-5.9-6.3-8.1-2-2.1-5.9-5.3-8.6-7.1-2.8-1.8-7.7-4.2-11-5.3s-8.7-2.2-12-2.5-8.3-.1-11 .3zm121.2 52c-.3.8-1 5.6-1.7 10.5-.6 4.9-2.3 12.8-3.7 17.5-1.3 4.7-4 11.9-5.9 16-2 4.1-5.9 11.1-8.8 15.5-3 4.4-9 11.6-13.3 16-4.4 4.4-11.6 10.5-15.9 13.5s-11.9 7.3-16.9 9.7c-5 2.3-13.5 5.5-19 7-9.1 2.4-11.6 2.7-28.5 2.7-17.2.1-19.2-.1-28.5-2.6-5.8-1.6-15.1-5.3-22-8.8-7-3.4-15.4-8.6-20-12.3-4.4-3.5-10.5-9.3-13.6-12.8s-7.4-9.1-9.7-12.4c-2.2-3.3-6.1-10.3-8.6-15.5s-5.7-13.8-7.1-19-2.8-13-3.2-17.3c-.5-5.1-1.2-7.7-2.1-7.7-.6 0-3.1 3.3-5.4 7.3-2.4 3.9-5.5 10.8-7 15.2s-3.3 11.6-3.9 16-.9 11.4-.6 15.5 1.3 10.4 2.2 14 3.6 10.6 5.9 15.5c2.4 4.9 6.3 11.7 8.8 15s8.2 9.5 12.7 13.8c4.4 4.2 12 10.3 16.8 13.4 4.9 3.1 12.4 7.4 16.8 9.4 4.4 2.1 11.6 5 16 6.4 4.4 1.5 11.8 3.6 16.5 4.6s14.6 2.4 22 3.1c10.5.9 16.5.9 27 0 7.4-.6 16.9-1.9 21-2.8s11.8-2.9 17-4.6 13.5-5 18.5-7.3c5-2.4 12.6-6.7 17-9.6s12.5-9.8 18-15.4c6.4-6.4 11.7-12.9 14.8-18 2.6-4.4 6-11.8 7.7-16.5 1.6-4.7 3.4-12.3 4-17 .7-4.8.9-11.5.5-15.5-.4-3.9-1.8-10.8-3.2-15.5-1.3-4.7-4.2-11.9-6.4-16s-4.8-8.6-5.9-10c-1.4-1.9-2-2.2-2.3-1z" fill="#c18e08"/><path d="M632.5 364c-2.8.5-7 1.6-9.5 2.5s-6.5 2.9-9 4.5-6.9 5.4-9.8 8.4c-2.8 3.1-6.5 8.4-8.2 11.8-1.6 3.5-3.5 9.7-4.2 13.8-.9 5.9-1 9 0 14.5.7 3.9 2.7 9.9 4.5 13.5 1.7 3.6 3.7 6.4 4.2 6.2s15.3-15.7 32.8-34.5c28.1-30.2 31.5-34.3 30-35.3-1-.7-4.5-2.1-7.8-3.2s-8.7-2.2-12-2.5-8.2-.1-11 .3zm121.2 52c-.3.8-1 5.6-1.7 10.5-.6 4.9-2.3 12.8-3.7 17.5-1.3 4.7-4 11.9-5.9 16-2 4.1-5.9 11.1-8.8 15.5-3 4.4-9 11.6-13.3 16-4.4 4.4-11.6 10.5-15.9 13.5s-11.9 7.3-16.9 9.7c-5 2.3-13.5 5.4-19 6.9-8.1 2.1-13.2 2.8-26.6 3.3l-16.6.6-31 34c.1.2 4.2 1.3 9.2 2.4s14 2.5 20 3.2c6.5.7 16.1.9 23.5.5 6.9-.3 14-.9 15.8-1.3 1.8-.5 3.2-1.1 3.2-1.6 0-.4 22.3-24.7 49.6-54l52.3-56 2.6-2.7c-3-10.5-5.8-17.3-8.2-22-2.3-4.7-5.2-9.6-6.2-11-1.5-1.9-2.1-2.2-2.4-1zM518 448.2l-10.4 11.3c1.1 14.7 2.1 21.7 2.9 25 .9 3.3 3.8 10.5 6.5 16s6.2 11.6 7.9 13.5l3.1 3.5 22.8-24.3c3.4-3.9 4.4-5.7 3.7-6.6-.5-.7-3.2-4.2-5.8-7.7-2.7-3.5-7.2-11.1-10.1-16.9s-6-13.7-6.9-17.8c-.9-3.9-2.1-7.2-2.5-7.2-.5 0-5.5 5.1-11.2 11.2z" fill="#e0c70c"/><path d="M630.5 325.6c-7.1 7.6-13.3 14-13.8 14.1-.4.2-.7 1-.7 1.8s.2 1.5.5 1.5 3.3-.8 6.8-1.7c3.9-1 10.1-1.6 16.7-1.6 7.8-.1 12.5.5 18.5 2.2 4.4 1.2 11.8 4.2 16.5 6.7l8.5 4.5 14.5-15.6c8-8.6 14.6-16.1 14.8-16.6.1-.5-5.1-1.8-11.5-2.9l-22.3-3.6c-5.8-.8-16.1-1.8-23-2.1l-12.5-.6zM516 333c-1.4.5-12.1 3.9-23.8 7.6l-21.4 6.8c.2 31.4.6 39.5 1.1 39.4.5-.2 12-12.2 25.6-26.8l24.5-27.2c0-.5-.8-.8-1.8-.7-.9 0-2.8.4-4.2.9zm261 27.7l-17.8 19.5c-1 1.6-.3 2.8 6.3 10.3 4.1 4.7 9.6 11.8 12.2 15.8 2.6 3.9 6.4 10.9 8.5 15.5 2.1 4.5 4.3 8.2 4.8 8.2s1.3-.6 1.8-1.4c.4-.8 4.2-5 8.4-9.3l7.7-7.8-.4-64c-9.3-3.4-12.7-4.4-13.5-4.4-.8-.1-8.9 7.9-18 17.6zM477.5 489.4l-6.7 7.3.1 48.8c4.3 8.2 7.4 12.8 9.6 15.6l4 5L510 539l1.9-2.5c-7-9.3-10.8-14.9-13-18.5-2.1-3.6-5.4-10.3-7.3-15s-3.9-11.3-4.5-14.7c-.6-3.5-1.5-6.3-2-6.3s-3.9 3.3-7.6 7.4zM753 578.6L697.7 639c-.9 1.7-1.6 3.2-1.5 3.5.2.2 8.2-4.8 17.8-11.2 9.6-6.3 23.6-16.1 31-21.6s18.5-14.1 24.5-19.2 15.1-13.5 20-18.6c5-5.2 10.6-11.6 12.4-14.4 1.9-2.7 4.3-6.8 5.3-9 1.4-3.1 1.8-6.6 1.8-15.7 0-8.8-.3-11.8-1.3-11.7-.6 0-25.3 25.9-54.7 57.5zm-195.3 17.1l-16.5 18.2c-.1.3 1 1.5 2.5 2.7l18.3 12.6 21 14.1 5.5 3.6 51.5-55.6c0-.5-6.4-1.3-14.2-2-7.9-.6-18.8-2.1-24.3-3.2-5.5-1.2-13.9-3.4-18.8-5l-8.7-2.9zm1.2-193.8l-8.4 8.9c.3 8.7 1.2 14.7 2 18.9.9 4.3 2.9 11.2 4.5 15.3s5.1 10.9 7.8 15 5.8 8.3 6.8 9.3c1.8 1.7 2 1.5 7.1-4.3l5.2-6c-5.3-7.4-8.2-12.4-9.8-16-1.7-3.6-3.9-9.4-4.8-13-1-3.8-1.7-10.5-1.8-16 0-5.2.3-12.1.6-15.3.4-3.1.4-5.7 0-5.7-.5 0-4.6 4-9.2 8.9zm159.2 21.8c-5.9 6.4-8.7 10.5-10.7 15.3-1.5 3.6-4.3 9-6.2 12s-6 8.1-9.1 11.3-8.4 7.7-11.7 10c-3.3 2.2-8 4.9-10.5 6-2.4 1.1-4.9 2.5-5.5 3.1-.5.7-4.2 4.6-8.2 8.9-4 4.2-7.3 8.4-7.3 9.2 0 1.2.9 1.3 3.8.9 2.1-.3 6.4-1.3 9.7-2.1s9.6-3.2 14-5.2c4.4-2.1 10.7-5.6 14-7.8s8.5-6.5 11.5-9.4c3-3 7.4-8.1 9.8-11.4 2.5-3.3 6-9.1 7.8-12.8 1.9-3.7 4.5-10.4 5.8-15 1.3-4.5 2.7-11.3 3-15 .4-5.2.3-6.7-.8-6.7-.7 0-4.9 3.9-9.4 8.7z" fill="#f4e52c"/></svg>