<svg xmlns="http://www.w3.org/2000/svg" width="1280" height="1280" xmlns:v="https://vecta.io/nano"><path d="M616 247c-6.3.5-18.3 1.9-26.5 3-8.3 1.2-22.6 3.7-32 5.5-9.4 1.9-24.9 5.5-34.5 7.9-9.6 2.5-25.7 7-35.8 10-10 3.1-25.3 8.1-34 11.2-8.6 3.1-18 6.8-20.7 8.2-2.8 1.4-7.6 5-10.8 8.1s-7.1 7.6-8.7 10.1-3.9 7.4-5.2 11c-2.3 6.5-2.3 6.7-2.5 63.3L405 442c-10.5-6.4-16.4-10.3-20-12.8s-8.9-6.9-11.9-9.7c-2.9-2.7-8.1-9-11.5-13.9-3.3-4.9-8.3-10.7-11.1-12.8-2.8-2.2-7.3-5-10-6.4-2.8-1.3-8.4-3.1-12.5-4-5.1-1-9.4-1.3-13.5-.8-3.3.4-8.5 1.5-11.5 2.6-3 1-7.5 3.1-10 4.5-2.5 1.5-7.9 5.7-12 9.3-4.1 3.7-11.2 11.1-15.8 16.6-4.6 5.4-10.7 13.5-13.6 17.9s-7.1 11.4-9.4 15.5c-2.2 4.1-6.2 12.7-8.7 19s-5.9 16.4-7.5 22.5-3.7 15.3-4.7 20.5c-1.4 7.5-1.8 14.9-1.7 35 0 19.4.4 28 1.7 36 1 5.8 2.9 15.7 4.3 22s5.2 19.4 8.4 29 7.7 21.8 10 27c2.2 5.2 5.8 11.8 7.9 14.5 2 2.8 5.7 6.7 8.2 8.7 2.4 2 7.8 5.2 11.9 7.1s13.1 5.3 20 7.5 18.8 5.3 26.5 7 18.9 3.8 25 4.6c6.1.9 16.2 2 22.5 2.6 6.3.5 19.9 1 30.2 1 10.4 0 24.5-.5 31.5-1.1 7.1-.6 19.2-2.1 26.9-3.2l14.2-2.2c-4.7 9.3-12.2 23-19.6 36.5L424 786.5c-6.4 11-16.6 27.6-22.5 37S386.8 846.1 382 853l-16.4 22.5c-4.2 5.5-8.5 12.4-9.6 15.3-1.1 2.8-2.5 8.5-3.1 12.5-1 5.9-.9 8.6.3 14.7.9 4.1 2.8 10.2 4.4 13.5 1.9 4.2 5.7 9 12.3 15.9 5.3 5.4 13.2 12.9 17.6 16.6s13 10.5 19.2 15.1c6.1 4.6 15.8 11.3 21.5 14.9 5.6 3.5 16.2 9.4 23.3 13.1s17.5 8.5 23 10.7 14.5 5.4 20 7.1 14.3 3.9 19.5 5 14.5 2.5 20.5 3.2c8.4.9 12.6.9 18 0 3.9-.7 10.1-2.7 14-4.6 4.3-2.1 9.3-5.7 13-9.3 3.3-3.2 7.4-8.5 9.1-11.8 1.8-3.2 10.4-26.1 19.2-50.9l23.8-67.7c4.4-12.4 8.2-22.4 8.6-22.2.5.2 2 4.1 3.4 8.7l17.9 51.7 21.7 61c3.9 10.8 7.9 19.8 10.4 23.4 2.1 3.3 5.9 7.7 8.4 9.8s7.4 5.3 11 7.2c3.8 1.9 9.6 3.8 14 4.6 5.9.9 9.8 1 18 .1 5.8-.6 14.8-2 20-3.1s13.5-3.1 18.5-4.5 14.2-4.7 20.5-7.2 16.7-7.2 23-10.4 16.7-9 23-12.9c6.3-4 17.4-11.6 24.5-17 7.1-5.3 17.3-13.5 22.5-18.2s12.3-11.5 15.7-15.1c3.5-3.7 7.4-8.8 8.7-11.4 1.3-2.7 3.1-7.3 4-10.3.9-3.1 1.6-9.1 1.6-13.5s-.7-10.4-1.6-13.5c-.9-3-2.5-7.2-3.5-9.2-1-2.1-6.3-9.5-11.6-16.5-5.3-7.1-15.6-21.8-22.9-32.8-7.2-11-18.6-29-25.1-40-6.6-11-17.4-29.7-24-41.5l-19.6-35.8c-4.3-7.8-7.5-14.5-7.2-15 .3-.4.5-.1.5.5 0 .7.5 1.1 1 .8s7 .4 14.3 1.5c7.2 1 19.5 2.5 27.2 3.1 8.7.7 23.2.9 38.5.6 13.5-.3 29.7-1.3 36-2.2l20-3.1c4.7-.8 14.8-3.1 22.5-5.1s18.5-5.1 24-7 12.7-4.9 16-6.6c3.3-1.8 8.5-5.7 11.5-8.7s6.9-8.2 8.7-11.5c1.7-3.3 5.7-12.4 8.7-20.3 3.1-7.8 7.4-20.6 9.6-28.5 2.3-7.8 5.1-20.1 6.5-27.2 1.3-7.1 2.9-18.6 3.6-25.5.7-7.6.9-18.9.6-29-.4-9.1-1.3-20.8-2.2-26s-2.7-14-4.1-19.5-4.2-14.3-6.1-19.5c-2-5.2-5.6-13.6-8.1-18.5-2.4-4.9-6.7-12.6-9.4-17-2.8-4.4-8-11.8-11.7-16.5-3.6-4.7-10.4-12.3-15.2-17-4.7-4.7-11.4-10.4-15-12.8-3.5-2.4-9.5-5.3-13.4-6.5-4.6-1.4-9.7-2.1-15-2.1-5.5 0-10 .7-14.5 2.2-3.6 1.2-8.5 3.4-11 5s-6.2 4.4-8.4 6.3c-2.1 1.9-6.4 7.2-9.5 11.8s-8.3 10.8-11.6 13.8c-3.3 2.9-9.6 7.7-14 10.7-4.4 2.9-10.1 6.5-12.7 8L874 442l-1.6-118c-.9-3-2.6-7.5-3.9-10-1.2-2.5-4.7-7.2-7.8-10.5-3-3.3-7.9-7.4-10.8-9.2-3-1.8-12.1-5.7-20.4-8.6-8.3-3-20.9-7.2-28-9.5l-23.5-7.1-26.5-7-29-6.5-19-3.6c-3.3-.6-13.2-1.9-22-3s-24.5-2.2-35-2.4c-10.5-.3-24.2-.1-30.5.4z" fill="#fff"/><path d="M619 251.4c-.3.3-6.8 1.2-14.5 2.1-7.7.8-19.6 2.4-26.5 3.5-6.9 1.2-19.7 3.6-28.5 5.5s-24.5 5.7-35 8.5c-10.4 2.8-30.9 9.1-45.5 13.9-14.6 4.9-29.2 10.1-32.5 11.7s-8.6 5.3-11.9 8.4c-4.1 3.9-6.9 7.7-9.5 13l-3.6 7.5-1.2 124.5c-.5 0-4.2-1.9-8.3-4.1s-11.3-6.6-16-9.7-12-9-16.3-13.2c-4.4-4.1-9.4-10-11.2-13s-5.8-7.9-8.9-10.8c-3.1-2.8-8.6-6.6-12.3-8.4-5.9-2.8-8.1-3.3-16.3-3.6-7.7-.3-10.7 0-15.7 1.7-3.5 1.2-8 3.2-10 4.4-2.1 1.3-6.7 4.9-10.3 8-3.6 3.2-9.8 9.4-13.8 13.9-4 4.6-10.5 13-14.4 18.8s-9.7 15.9-12.9 22.5-7.6 17.4-9.8 24c-2.1 6.6-4.8 16.7-6 22.5-1.1 5.8-2.5 14.8-3.1 20s-1.3 12.9-1.7 17c-.3 4.1 0 12.2.6 18l2.8 22c.8 6.3 3.3 18.7 5.5 27.5s6.3 22.3 9 30c2.8 7.7 6.6 17.4 8.5 21.5s5.1 9.7 7.2 12.5c2.1 2.7 6.2 6.7 9.2 8.7 3 2.1 10.3 5.6 16.4 7.9s17.8 5.8 26 7.9c8.3 2.1 20.6 4.8 27.5 5.9l22.5 3.3c5.8.7 22 1.2 38.5 1.2 23.9 0 31.2-.4 45-2.2l26-4.1c5.2-1.1 9.7-1.7 10-1.5s-4.3 9.2-10.1 20.1L448 755l-18.3 32c-4.9 8.5-13.5 22.7-19 31.5s-14.2 22.3-19.4 30c-5.3 7.7-12.8 18.2-16.7 23.3s-8.6 11.6-10.4 14.5-4 7.7-4.9 10.7c-1.1 3.9-1.4 8.3-1.2 15 .4 8.6.8 10.4 4.1 17 3 6.2 5.6 9.4 15 18.5 6.2 6 15.6 14.4 20.8 18.6s13.6 10.5 18.5 14 13.7 9.2 19.5 12.7c5.8 3.4 15.9 8.9 22.5 12.1s16.2 7.5 21.3 9.5c5 2 14 5 20 6.6 5.9 1.7 15.9 4 22.2 5.2 6.3 1.1 15.1 2.3 19.5 2.5 5.8.4 9.5 0 13.5-1.3 3-.9 7.8-2.8 10.5-4.2 2.8-1.4 7.2-4.6 9.8-7.1 2.7-2.5 6.1-6.6 7.7-9.1s8.2-19.6 14.8-38l23-65 14.8-42.8c2.1-6.2 4.2-11.2 4.7-11.2.4 0 1 1.2 1.3 2.7.3 1.6 5.1 15.8 10.6 31.8l25.5 72.5c8.5 23.9 16.7 45.7 18.1 48.4 1.5 2.7 4.5 6.8 6.7 9.1s5.9 5.3 8.3 6.8c2.3 1.5 7.2 3.8 10.9 5.2 4.9 1.8 8.9 2.5 14 2.5 4 0 9.2-.5 11.5-1 2.4-.6 9.5-1.9 15.8-3.1 6.3-1.1 18.5-4.3 27-7.1 10-3.4 21.7-8.2 33-13.9 9.6-4.8 24.2-13.2 32.5-18.7 8.2-5.5 20-14 26-18.8 6-4.9 16-13.8 22.1-19.9 8.4-8.3 11.8-12.4 13.8-16.8 1.4-3.1 3.1-8.1 3.7-11 .7-2.8.9-8.6.6-12.7s-1.5-10-2.7-13-6.7-11.6-12.3-19-15.1-20.9-21.2-30-15.6-23.9-21.1-33c-5.6-9.1-15.4-25.7-21.9-37l-26.1-47.3L802 699c0-.5.8-.8 1.7-.5a572.55 572.55 0 0 0 16.3 2.9c8 1.4 19.5 3.1 25.5 3.8 6.4.7 22.5 1.3 38.5 1.3 20.4-.1 31.1-.5 41.5-1.9 7.7-.9 19.6-2.8 26.5-4.2 6.9-1.3 18.4-4 25.5-6s17-5.2 22-7.1c5-2 10.8-4.8 13-6.4 2.2-1.5 5.8-4.7 8.1-7.1 2.2-2.3 5-5.9 6.1-7.8 1.2-1.9 4.6-9.8 7.6-17.5 3.1-7.7 7.2-19.4 9.2-26s4.8-17.2 6.1-23.5c1.4-6.3 3.1-16 3.9-21.5s1.7-16.1 2.1-23.5c.4-8 .2-18.8-.5-26.5-.7-7.1-2.3-18.4-3.6-25s-4.3-17.4-6.5-24c-2.3-6.6-6.4-16.5-9.1-22-2.6-5.5-7.6-14.3-11-19.5s-8.7-12.6-11.9-16.5c-3.1-3.9-9.9-11.1-15.1-16-7-6.8-11.4-10.1-17.3-13-7.9-4-8.1-4-19.5-4-10.8 0-12 .2-18.1 3-3.6 1.7-8.4 4.6-10.8 6.5s-7 7.3-10.1 12c-3.2 4.7-8.9 11.3-12.7 14.8s-10.7 9-15.4 12.1c-4.7 3.2-11.9 7.7-16 9.9-4.1 2.3-7.8 4.2-8.2 4.2-.5 0-.8-26.7-.8-59.3 0-37.7-.4-60.8-1.1-63.7-.6-2.5-2.2-7-3.7-10s-5.2-8-8.2-11.2c-3.8-3.9-7.8-6.7-13-9.1-4.1-1.9-15.6-6.3-25.5-9.7s-27.9-9-40-12.5c-12.1-3.4-30.1-8.1-40-10.4-9.9-2.2-24.8-5.2-33-6.6-8.3-1.4-21.1-3.2-28.5-4.1s-23.2-1.9-35-2.1-21.7-.2-22 .1z"/><path d="M409.8 391l.4 59c.5 0 .8-26.6.8-59l-.5-59c-.3 0-.6 26.6-.7 59zm459.4.8l.6 58.2c.4 0 .6-17 .4-37.7l-.5-58.3c-.1-11.3-.3 5.7-.5 37.8zm124.8 8.4c0 .2 3.5 3.7 7.7 7.8l7.8 7.5c-11.2-12-14.6-15.5-15-15.5-.3 0-.5.1-.5.2zM357.3 909.5c0 3.9.2 5.2.4 3s.2-5.4 0-7-.4.1-.4 4zm16.7 36c3.6 3.6 6.7 6.5 7 6.5s-2.3-2.9-5.7-6.5-6.5-6.5-7-6.5c-.4 0 2.1 2.9 5.7 6.5zm-61-486.8c-1.9 2.1-5.3 6.7-7.6 10.3a187.29 187.29 0 0 0-7.2 12.5c-1.6 3.3-4.4 10.1-6.1 15-1.8 4.9-4.1 13.3-5.2 18.5-1.1 5.4-2.2 15.8-2.6 24-.4 10.6-.1 18 1.1 27.5.9 7.1 3.1 19.1 5 26.5s5.5 19.1 8 26l4.6 12.5c15.9 4.9 24.8 7.3 30 8.4s14.5 2.7 20.5 3.6c6.1.9 18.4 2 27.5 2.4 9.1.5 23.5.5 32 0 8.5-.4 21.6-1.7 29-2.8 7.4-1 18.9-3.1 25.5-4.6s17.8-4.6 24.9-6.9c7.1-2.2 13.1-4.6 13.2-5.1.2-.5-4.3-4.6-9.9-9S479.4 603.4 472 596c-8.8-8.7-15.7-16.7-19.6-22.5-3.3-5-7.1-11.7-8.4-15-1.9-4.9-2.4-8.4-2.8-18.5l-.4-12.5c-17.3-6-28.6-10.5-36.3-13.7-7.7-3.3-19.1-8.6-25.2-11.9-6.2-3.2-15-8.2-19.5-11-4.6-2.9-11.7-7.7-15.8-10.8s-12-10-17.6-15.4l-10.1-9.8zm640.5 5.8c-4.9 5.1-12.8 12-17.5 15.5-4.6 3.4-12.5 8.7-17.5 11.8-4.9 3.1-15 8.6-22.5 12.4-7.4 3.7-19.5 9.2-27 12.2l-21.7 8.2-8.3 2.9c0 15.5-.6 22.3-1.3 25-.7 2.8-2.8 7.9-4.6 11.5s-5.1 9-7.4 12-6.9 8.7-10.2 12.5c-3.4 3.9-11.5 11.8-18 17.5-6.6 5.8-14.5 12.6-17.7 15-3.2 2.5-5.8 4.9-5.8 5.3s1.5 1.4 3.3 2.1c1.8.8 8.6 3 15.2 4.9 6.6 2 17.4 4.7 24 6.1 6.6 1.3 16.8 3.2 22.5 4 5.8.9 18.2 2 27.5 2.5 10 .5 23.9.5 33.5 0 9.1-.5 21.3-1.6 27-2.4 5.8-.9 15.7-2.7 22-4.1 6.4-1.4 15-3.7 19.3-5 6.2-1.9 8-2.9 9.2-5.1.7-1.5 3.6-9.5 6.4-17.8 2.8-8.2 6.2-20.6 7.5-27.5 1.4-6.9 3.1-18.3 3.7-25.5.8-9.5.8-16.2 0-25-.6-6.6-1.8-15.4-2.7-19.5-.8-4.1-2.6-10.9-4-15-1.3-4.1-4.7-12-7.4-17.5s-7.5-13.5-10.7-17.9-6.2-8-6.8-8.1c-.5-.1-5 4-10 9zM547.8 695.3L520.9 747l-24.1 44-23.2 40c-6.1 10.2-15.8 25.8-21.6 34.8-5.7 8.9-14.7 22.2-19.8 29.5-9.1 12.8-9.3 13.3-7.4 14.7l12.3 9.9c5.8 4.7 15.4 11.7 21.4 15.7 6.1 4 16.2 9.9 22.5 13.2 6.4 3.3 16 7.7 21.5 9.7 5.5 2.1 14.3 4.8 19.5 6.2 5.3 1.3 10.3 2.3 11.3 2.3 1.4 0 3.4-4.6 9.4-21.7l17.6-50.3 22.4-65.5 19.8-60c4.1-12.6 10.1-32.4 13.5-44 3.3-11.5 6-21.7 5.8-22.5-.1-.8-5.9-4.8-12.7-8.9l-28.6-17.4-17-10.3c-.5-.2-7.6 12.8-15.7 28.9zM708 671.1c-4.1 2.8-16.2 10.2-27 16.6l-21.7 13-2.3 1.3 11.7 40 18.5 58 23.3 69 22.5 64 12 33c.8 1.3 1.9 1.3 9.2-.3 4.6-1.1 12.6-3.4 17.8-5.2 5.3-1.8 13.8-5.3 19-7.7 5.3-2.4 14.9-7.7 21.5-11.7s17-11 23-15.6c6.1-4.5 13.4-10.3 16.3-12.9l5.2-4.6c-15.3-21.3-25.4-36.3-32.2-47-6.9-10.7-18.5-29.8-25.9-42.5l-25.1-44c-6.4-11.5-17.4-32-24.4-45.5L727 685.3c-5.2-10.6-9.9-19.2-10.5-19.1-.5 0-4.3 2.2-8.5 4.9z" fill="#7fd244"/><path d="M615 312.6c-1.9.2-10 1.3-18 2.5-8 1.1-22.8 3.8-33 6s-25.9 6-35 8.4c-9.1 2.5-25.9 7.6-37.3 11.3l-20.8 6.7.6 200.1c5.4 9 11.7 16.6 17.5 22.7 5.8 6 15.9 15.5 22.5 21.1 6.6 5.5 18.7 15 27 21.1 8.2 6.1 21.7 15.6 30 21.1 8.2 5.5 22 14.3 30.5 19.5 8.5 5.3 21.2 12.8 28.2 16.7L640 677l44-26.3c8-4.9 21.9-13.9 31-20 9.1-6 22.6-15.5 30-21s18.5-14.1 24.5-19.2 15.2-13.7 20.4-19.1c5.2-5.5 11.2-12.6 13.3-15.9 2.2-3.3 4.3-7.6 4.9-9.5.6-2.2.9-38.4.7-101l-.3-97.5c-12.4-4.3-23.4-7.9-32.5-10.6-9.1-2.8-25-7.3-35.5-9.9-10.5-2.7-24.6-6.1-31.5-7.4-6.9-1.4-18.6-3.5-26-4.7-10.4-1.6-19.3-2.1-39-2.4-14-.2-27.1-.1-29 .1z" fill="#e8ca1d"/><path d="M629.5 340c-3.3.5-9.4 2.1-13.5 3.6-4.1 1.4-10.6 4.5-14.5 6.9s-10.1 7.6-14 11.7-8.5 9.9-10.2 12.9c-1.8 3-4.4 8.5-5.7 12.4-1.4 3.9-3 10.4-3.7 14.5-.6 4.1-.9 10.9-.6 15 .4 4.1 1.3 10.2 2.2 13.5s2.9 8.9 4.6 12.5 5.4 9.6 8.2 13.3c2.9 3.8 7.9 9.1 11.2 11.8 3.3 2.8 9.6 6.8 14 8.9 4.4 2.2 10.7 4.7 14 5.5 3.3.9 9.8 1.9 14.5 2.2 6.1.4 10.9.1 17-1.2 4.7-.9 11.2-2.8 14.5-4.1 3.3-1.4 8.7-4.2 12-6.4 3.3-2.1 8.7-6.7 12.1-10.2s7.7-8.8 9.6-11.8c2-3 4.7-8.2 6-11.5 1.4-3.3 3.1-8.7 3.8-12 .8-3.3 1.4-10.5 1.4-16-.1-7.2-.7-12.2-2.3-18-1.2-4.4-4.1-11.6-6.4-16-3.1-5.9-6.3-10.2-12.7-16.5-6.3-6.4-10.6-9.6-16.5-12.7-4.4-2.3-11.4-5.1-15.5-6.2s-11.1-2.3-15.5-2.5c-4.4-.3-10.7-.1-14 .4zM539 369.7c-2 1-6.6 4.3-10.4 7.3s-10 8.9-13.8 13-9 10.6-11.6 14.5-6.1 9.9-7.9 13.5c-1.9 3.6-4.6 10.6-6.2 15.5s-3.5 13.1-4.2 18c-.7 5.3-.9 13.1-.6 19 .4 5.5 1.6 13.7 2.7 18.2 1.1 4.6 3.7 12.2 5.8 17 2 4.9 6.4 12.8 9.7 17.8 3.5 5.4 10.1 13.2 16.4 19.5 5.8 5.8 14.6 13.3 19.6 16.7 5 3.3 13.6 8.4 19.3 11.2 5.6 2.8 15.3 6.8 21.5 9 6.1 2.1 15.7 4.8 21.2 5.9 5.5 1.2 14.7 2.6 20.5 3.2 5.8.5 14.3 1 19 1s13.2-.5 19-1c5.8-.6 15.7-2.2 22-3.7 6.3-1.4 16-4.1 21.5-6s15.2-6.1 21.5-9.4 15.3-8.8 20-12.2c4.7-3.5 11.6-9.2 15.4-12.8 3.8-3.5 9.8-10.2 13.3-14.9s8.9-13.5 11.9-19.5c3.1-6.4 6.4-14.9 7.8-20.5 1.3-5.2 2.7-13.3 3.1-18 .4-4.9.2-12.5-.4-18-.7-5.2-2.1-12.9-3.2-17-1.2-4.1-3.8-11.1-5.8-15.5s-5.7-11.1-8.2-15-7.2-10.1-10.5-13.9c-3.2-3.8-9.5-10-13.9-13.8-4.4-3.7-10-7.8-12.5-9-3.8-1.8-5-1.9-8-1-1.9.6-4.6 2.3-6 3.7-2 2.1-2.5 3.7-2.4 7.3 0 2.6 1.1 9.2 2.3 14.7 1.9 8.4 2.2 11.8 1.8 21.5-.4 8.2-1.3 14-3.1 20.3-1.4 4.8-4.1 11.7-6 15.5-1.9 3.7-5.4 9.4-7.8 12.7s-6.9 8.4-9.9 11.4c-3 2.9-8.1 7.2-11.4 9.4-3.3 2.3-9.6 5.8-14 7.8-4.4 2.1-10.9 4.6-14.5 5.5-5 1.4-10.1 1.9-22 1.9-13.2 0-16.7-.3-23.5-2.3-4.4-1.3-11.6-4.1-16-6.2-4.4-2.2-11.6-6.8-16-10.2-4.4-3.5-10.8-9.9-14.2-14.3-3.5-4.4-8.1-11.6-10.3-16-2.1-4.4-4.9-11.6-6.2-16-1.9-6.7-2.3-10.4-2.3-23s.4-16.4 2.4-24c2.2-8.5 2.3-9.2.7-12.7-.9-2.1-2.6-4.5-3.8-5.3-1.3-.8-3.7-1.7-5.3-2-1.9-.4-4.3 0-6.5 1.2z"/><path d="M632.5 364c-2.8.5-7 1.6-9.5 2.5s-6.5 2.9-9 4.5-6.9 5.4-9.8 8.4c-2.8 3.1-6.5 8.4-8.2 11.8-1.6 3.5-3.5 9.7-4.2 13.8-.9 5.9-.9 9 0 14.5.7 3.9 2.7 10.1 4.6 14 2.2 4.5 5.5 9.1 9.3 12.8 3.3 3.4 8.5 7.2 12.3 9.1 3.6 1.8 9.9 3.9 14 4.6 6 1.1 9 1.1 15 .1 4.1-.6 10.3-2.5 13.8-4.1 3.4-1.7 8.7-5.4 11.8-8.3 3-2.8 7-7.5 8.7-10.2 1.7-2.8 4-7.7 5-11 1.3-3.9 1.9-9 1.9-14.5.1-6.1-.5-10.3-2.1-14.8-1.1-3.4-3.3-8.1-4.7-10.5-1.5-2.3-4.3-5.9-6.3-8.1-2-2.1-5.9-5.3-8.6-7.1-2.8-1.8-7.7-4.2-11-5.3s-8.7-2.2-12-2.5-8.3-.1-11 .3zm121.2 52c-.3.8-1 5.6-1.7 10.5-.6 4.9-2.3 12.8-3.7 17.5-1.3 4.7-4 11.9-5.9 16-2 4.1-5.9 11.1-8.8 15.5-3 4.4-9 11.6-13.3 16-4.4 4.4-11.6 10.5-15.9 13.5s-11.9 7.3-16.9 9.7c-5 2.3-13.5 5.5-19 7-9.1 2.4-11.6 2.7-28.5 2.7-17.2.1-19.2-.1-28.5-2.6-5.8-1.6-15.1-5.3-22-8.8-7-3.4-15.4-8.6-20-12.3-4.4-3.5-10.5-9.3-13.6-12.8s-7.4-9.1-9.7-12.4c-2.2-3.3-6.1-10.3-8.6-15.5s-5.7-13.8-7.1-19-2.8-13-3.2-17.3c-.5-5.1-1.2-7.7-2.1-7.7-.6 0-3.1 3.3-5.4 7.3-2.4 3.9-5.5 10.8-7 15.2s-3.3 11.6-3.9 16-.9 11.4-.6 15.5 1.3 10.4 2.2 14 3.6 10.6 5.9 15.5c2.4 4.9 6.3 11.7 8.8 15s8.2 9.5 12.7 13.8c4.4 4.2 12 10.3 16.8 13.4 4.9 3.1 12.4 7.4 16.8 9.4 4.4 2.1 11.6 5 16 6.4 4.4 1.5 11.8 3.6 16.5 4.6s14.6 2.4 22 3.1c10.5.9 16.5.9 27 0 7.4-.6 16.9-1.9 21-2.8s11.8-2.9 17-4.6 13.5-5 18.5-7.3c5-2.4 12.6-6.7 17-9.6s12.5-9.8 18-15.4c6.4-6.4 11.7-12.9 14.8-18 2.6-4.4 6-11.8 7.7-16.5 1.6-4.7 3.4-12.3 4-17 .7-4.8.9-11.5.5-15.5-.4-3.9-1.8-10.8-3.2-15.5-1.3-4.7-4.2-11.9-6.4-16s-4.8-8.6-5.9-10c-1.4-1.9-2-2.2-2.3-1z" fill="#c18e08"/><path d="M632.5 364c-2.8.5-7 1.6-9.5 2.5s-6.5 2.9-9 4.5-6.9 5.4-9.8 8.4c-2.8 3.1-6.5 8.4-8.2 11.8-1.6 3.5-3.5 9.7-4.2 13.8-.9 5.9-1 9 0 14.5.7 3.9 2.7 9.9 4.5 13.5 1.7 3.6 3.7 6.4 4.2 6.2s15.3-15.7 32.8-34.5c28.1-30.2 31.5-34.3 30-35.3-1-.7-4.5-2.1-7.8-3.2s-8.7-2.2-12-2.5-8.2-.1-11 .3zm121.2 52c-.3.8-1 5.6-1.7 10.5-.6 4.9-2.3 12.8-3.7 17.5-1.3 4.7-4 11.9-5.9 16-2 4.1-5.9 11.1-8.8 15.5-3 4.4-9 11.6-13.3 16-4.4 4.4-11.6 10.5-15.9 13.5s-11.9 7.3-16.9 9.7c-5 2.3-13.5 5.4-19 6.9-8.1 2.1-13.2 2.8-26.6 3.3l-16.6.6-31 34c.1.2 4.2 1.3 9.2 2.4s14 2.5 20 3.2c6.5.7 16.1.9 23.5.5 6.9-.3 14-.9 15.8-1.3 1.8-.5 3.2-1.1 3.2-1.6 0-.4 22.3-24.7 49.6-54l52.3-56 2.6-2.7c-3-10.5-5.8-17.3-8.2-22-2.3-4.7-5.2-9.6-6.2-11-1.5-1.9-2.1-2.2-2.4-1zM518 448.2l-10.4 11.3c1.1 14.7 2.1 21.7 2.9 25 .9 3.3 3.8 10.5 6.5 16s6.2 11.6 7.9 13.5l3.1 3.5 22.8-24.3c3.4-3.9 4.4-5.7 3.7-6.6-.5-.7-3.2-4.2-5.8-7.7-2.7-3.5-7.2-11.1-10.1-16.9s-6-13.7-6.9-17.8c-.9-3.9-2.1-7.2-2.5-7.2-.5 0-5.5 5.1-11.2 11.2z" fill="#e0c70c"/><path d="M630.5 325.6c-7.1 7.6-13.3 14-13.8 14.1-.4.2-.7 1-.7 1.8s.2 1.5.5 1.5 3.3-.8 6.8-1.7c3.9-1 10.1-1.6 16.7-1.6 7.8-.1 12.5.5 18.5 2.2 4.4 1.2 11.8 4.2 16.5 6.7l8.5 4.5 14.5-15.6c8-8.6 14.6-16.1 14.8-16.6.1-.5-5.1-1.8-11.5-2.9l-22.3-3.6c-5.8-.8-16.1-1.8-23-2.1l-12.5-.6zM516 333c-1.4.5-12.1 3.9-23.8 7.6l-21.4 6.8c.2 31.4.6 39.5 1.1 39.4.5-.2 12-12.2 25.6-26.8l24.5-27.2c0-.5-.8-.8-1.8-.7-.9 0-2.8.4-4.2.9zm261 27.7l-17.8 19.5c-1 1.6-.3 2.8 6.3 10.3 4.1 4.7 9.6 11.8 12.2 15.8 2.6 3.9 6.4 10.9 8.5 15.5 2.1 4.5 4.3 8.2 4.8 8.2s1.3-.6 1.8-1.4c.4-.8 4.2-5 8.4-9.3l7.7-7.8-.4-64c-9.3-3.4-12.7-4.4-13.5-4.4-.8-.1-8.9 7.9-18 17.6zm-218 41.2l-8.4 8.9c.3 8.7 1.1 14.7 2 19 .9 4.2 2.9 11.1 4.5 15.2 1.5 4.1 5.1 10.9 7.8 15s5.7 8.3 6.7 9.3c1.8 1.7 2.1 1.6 7.2-4.3l5.2-6c-5.3-7.4-8.2-12.4-9.9-16s-3.8-9.4-4.7-13c-1-3.8-1.8-10.5-1.8-16-.1-5.2.2-12.1.6-15.2.4-3.2.4-5.8-.1-5.8-.4 0-4.5 4-9.1 8.9zm159.2 21.9c-5.9 6.4-8.8 10.4-10.7 15.2-1.5 3.6-4.3 9-6.3 12-1.9 3-6 8.1-9.1 11.4-3.1 3.2-8.3 7.7-11.6 9.9s-8 5-10.5 6.1c-2.5 1-5 2.4-5.5 3.1-.5.6-4.3 4.6-8.2 8.8-4 4.2-7.3 8.4-7.3 9.2 0 1.2.8 1.4 3.8.9 2-.3 6.4-1.3 9.7-2.1s9.6-3.1 14-5.2c4.4-2 10.7-5.5 14-7.8 3.3-2.2 8.4-6.5 11.4-9.4 3-3 7.5-8.1 9.9-11.4s5.9-9 7.8-12.7c1.9-3.8 4.5-10.5 5.8-15 1.3-4.6 2.6-11.3 3-15 .4-5.3.2-6.8-.8-6.8-.7 0-5 3.9-9.4 8.8zm-240.7 65.6l-6.7 7.3.1 48.8c4.3 8.2 7.4 12.8 9.6 15.6l4 5L510 539l1.9-2.5c-7-9.3-10.8-14.9-13-18.5-2.1-3.6-5.4-10.3-7.3-15s-3.9-11.3-4.5-14.7c-.6-3.5-1.5-6.3-2-6.3s-3.9 3.3-7.6 7.4zM753 578.6L697.7 639c-.9 1.7-1.6 3.2-1.5 3.5.2.2 8.2-4.8 17.8-11.2 9.6-6.3 23.6-16.1 31-21.6s18.5-14.1 24.5-19.2 15.1-13.5 20-18.6c5-5.2 10.6-11.6 12.4-14.4 1.9-2.7 4.3-6.8 5.3-9 1.4-3.1 1.8-6.6 1.8-15.7 0-8.8-.3-11.8-1.3-11.7-.6 0-25.3 25.9-54.7 57.5zm-195.3 17.1c-8.9 9.7-16.2 17.9-16.2 18.3 0 .5 2.7 2.8 6 5.2s12.1 8.5 19.5 13.4l17.5 11.7 4 2.6 51.5-55.6c0-.5-6.4-1.3-14.2-2-7.9-.6-18.8-2.1-24.3-3.2-5.5-1.2-13.9-3.4-18.8-5l-8.7-2.9z" fill="#f4e52c"/></svg>