<svg xmlns="http://www.w3.org/2000/svg" width="1280" height="1280" xmlns:v="https://vecta.io/nano"><path d="M620.5 240.1c-5.5.4-14.3 1.5-19.5 2.4s-15.5 3.1-22.8 5c-7.2 1.9-18.5 5.6-24.9 8.1-6.5 2.5-17 7.3-23.3 10.6s-16.5 9.3-22.5 13.3c-6.1 4-14.6 10.2-19 13.8-4.4 3.5-12.7 11.1-18.4 16.8s-13.3 14-16.8 18.4c-3.6 4.4-9.8 12.9-13.8 19s-9.6 15.3-12.4 20.5c-2.7 5.2-6.5 13.1-8.4 17.5s-5 12.9-7 19-4.8 15.7-6.1 21.5c-1.4 5.8-3.3 15.9-4.2 22.5-1.1 7.9-1.7 18.6-1.7 31.5 0 10.7.5 23.3 1.2 28 .6 4.7 2 13 3.1 18.5s3.1 14 4.5 19c1.5 5 4.2 13.3 6.1 18.5 2 5.2 6.5 15.6 10.2 23s10.1 18.7 14.4 25c4.2 6.3 10.5 15.1 14.1 19.5 3.5 4.4 10.7 12.3 15.9 17.5l9.4 9.5L391.4 908c-5 14.8-5.6 17.3-5.6 24.5 0 4.9.8 10.4 1.9 14 1 3.3 3.4 8.4 5.3 11.4s7.1 8.8 11.5 12.9 12.9 11.1 19 15.7 15.7 11.3 21.5 15 17 9.9 25 13.9 19.7 9 26 11.3c6.3 2.2 16.5 5.2 22.5 6.6s15 3.1 20 3.7c6.8.9 10.6.9 15.5 0 3.6-.6 9.4-2.5 13-4.2 4.2-2 8.6-5.3 12.5-9.2 3.3-3.4 7.2-8.3 8.7-11.1 1.4-2.8 13.3-41.8 26.8-88l24.9-83.7c.3-.4 10.5 33.1 22.6 74.5l25.1 85.7c2.4 7.8 4.4 12.1 7.8 16.8 2.5 3.4 7.2 8.1 10.4 10.5 3.1 2.4 8.8 5.4 12.7 6.7 5.4 1.9 9 2.4 15.5 2.4 4.7 0 13.7-1.1 20-2.3 6.3-1.3 17.8-4.3 25.5-6.9 8.3-2.7 20.8-7.9 30.5-12.8 9.1-4.5 22.8-12.4 30.5-17.5 7.7-5.2 18.8-13.3 24.5-18 5.8-4.8 13-11.3 16.1-14.5 3.1-3.3 6.8-8.4 8.4-11.4 1.5-3 3.4-8.6 4.2-12.5 1-4.5 1.2-9.1.8-13-.4-3.7-5.5-19.8-13-41.5l-45.9-131.5L802 659c0-.3 4.4-5 9.6-10.5 5.3-5.5 12.5-13.6 16.1-18 3.5-4.4 9.4-12.5 13.1-18 3.6-5.5 9.4-15.4 12.8-22 3.5-6.6 8.1-16.6 10.3-22.2 2.3-5.7 5.5-14.9 7.1-20.5 1.7-5.7 4.1-15.9 5.5-22.8 1.3-6.9 2.9-18.8 3.6-26.5.7-8.3.9-19.7.5-28-.4-7.7-1.3-18.7-2.2-24.5-.8-5.8-2.8-16.1-4.5-23s-4.7-17-6.6-22.5-6.9-17.2-11.3-26c-4.3-8.8-11-20.7-14.8-26.5-3.9-5.8-10.1-14.3-13.8-19-3.8-4.7-11.8-13.4-17.9-19.5s-14.8-13.9-19.3-17.5c-4.6-3.6-12.9-9.6-18.5-13.3s-16.9-10.1-25.2-14.2-19.5-9-25-11c-5.5-2.1-15-5-21-6.5s-15.3-3.5-20.5-4.4c-5.2-.8-14.9-2-21.5-2.6-6.6-.5-15.6-.9-20-.8-4.4 0-12.5.4-18 .9z" fill="#fff"/><path d="M624 245.1c-6.3.4-16 1.5-21.5 2.4s-14.3 2.7-19.5 4-14 4-19.5 5.9-14.3 5.3-19.5 7.6-14.2 6.9-20 10.2c-5.8 3.4-13 7.8-16 9.8s-9.1 6.6-13.5 10c-4.4 3.5-12.9 11.1-18.8 16.9-6 5.8-14.4 14.9-18.6 20.1s-9.5 12.2-11.7 15.5c-2.3 3.3-6.7 10.5-9.9 16-3.1 5.5-7.7 14.4-10.1 19.8-2.4 5.3-6.1 14.8-8.3 21-2.1 6.1-5.1 16.6-6.6 23.2s-3.3 16.7-4.1 22.5c-.7 5.9-1.4 19.1-1.4 30 0 14.6.5 23 2.1 33.5 1.1 7.7 3.3 19 4.9 25s4.5 15.5 6.5 21c1.9 5.5 6.2 15.4 9.4 22 3.1 6.6 8.4 16.3 11.5 21.5 3.2 5.2 9 13.8 13 19 3.9 5.2 12.7 15.3 19.6 22.3 12.4 12.7 12.5 12.8 11.4 16L436.9 793l-45.4 129.5c0 20.7.1 21.4 3.7 28.6 2.7 5.5 5.4 9.1 10.5 13.8 3.7 3.6 11.1 9.9 16.3 14.1 5.2 4.1 14 10.5 19.5 14.2a416.87 416.87 0 0 0 21 12.7c6.1 3.4 16.4 8.4 23 11.2s17.2 6.6 23.5 8.4 15.8 4.1 21 5 12.9 1.7 17 1.7c4.7-.1 9.6-.8 13-2 3-1 7.5-3.2 10-4.9 2.5-1.6 6.2-5 8.3-7.4s4.7-6.2 5.7-8.4c1.1-2.2 13.9-45 28.6-95l27-91.5c.2-.3.6-.3.9 0 .2.3 12.4 41.5 27.1 91.5l29.2 96c1.4 2.8 4.7 7.1 7.4 9.8 2.7 2.6 7.8 6.1 11.5 7.9 3.9 1.8 9.4 3.4 12.8 3.8 3.3.4 10.3.1 15.5-.6 5.2-.6 14.7-2.5 21-4.2 6.3-1.6 16.9-5.1 23.5-7.6 6.6-2.6 17.6-7.6 24.5-11.2s17.5-9.8 23.5-13.8 15-10.4 20-14.3c5-3.8 12.1-9.8 15.9-13.4 3.8-3.5 8.2-8.4 9.9-10.9s3.9-7 5-10c1.2-3.6 1.8-8.3 1.8-13.5 0-8-.1-8.4-46.8-141.7l-46.8-133.6c14-13.7 21.2-21.5 25.1-26.2s10-12.8 13.6-18 8.7-13.3 11.3-18c2.7-4.7 6.9-13.2 9.5-19s6.3-15.5 8.3-21.5 4.8-15.7 6.1-21.5c1.4-5.8 3.2-15.2 4-21s1.8-16.1 2.1-23c.4-6.9.2-18.4-.4-25.5s-1.8-17.3-2.7-22.5-2.9-14.4-4.4-20.5-4.5-15.5-6.5-21-6.5-15.9-10-23-9.6-17.9-13.6-24c-3.9-6.1-10.6-15.3-14.8-20.5s-11.8-13.7-16.8-18.8c-5.1-5-13.7-12.7-19.1-16.9-5.3-4.3-14.2-10.7-19.7-14.3-5.5-3.5-15-9-21-12-6-3.1-16-7.6-22-9.9s-16.9-5.8-24-7.7-19.1-4.3-26.5-5.3c-7.4-1.1-19.1-2.1-26-2.4-6.9-.2-17.7-.1-24 .4z"/><path d="M539.9 662.8c-.6 1.5-12 34.2-25.5 72.7l-23.9 71.3c.3.6 4 4 8.3 7.4 4.2 3.3 10.7 8.1 14.5 10.5 3.7 2.3 11.1 6.5 16.5 9.2 5.3 2.7 13.7 6.2 18.7 7.9s13 3.8 18 4.7c5 .8 9.1 1.5 9.2 1.3 0-.2 10.7-36.8 23.7-81.3l23.4-81.2c-.2-.1-5.3-.9-11.3-1.8s-15.3-2.7-20.5-4-14.2-4-20-6.1c-5.8-2-14.9-5.8-20.3-8.5l-9.8-4.9zm196.6-1.2c-1.1.8-6.5 3.5-12 5.9s-14.2 5.8-19.5 7.5c-5.2 1.8-13.1 4-17.5 5.1-4.4 1-12.9 2.6-19 3.5l-11.2 1.8c-.1.1 10.5 36.7 23.5 81.4l23.7 81.3c7-1 13.1-2.3 18-3.5 5-1.3 13.5-4.2 19-6.5s14.7-7 20.4-10.4 14-9.1 18.4-12.6c4.5-3.6 8.5-7.2 9-8 .7-1.1-6.2-22.1-24.2-73.5l-25.9-72.7c-.4-.4-1.6-.1-2.7.7zM457.7 898.2c-.3.7-2.9 7.8-5.6 15.7-2.8 7.9-5 14.8-5.1 15.3 0 .5 4.4 4.2 9.8 8.2 5.3 4 12.4 9.1 15.7 11.3 3.3 2.3 10.1 6.4 15 9.2 5 2.8 14 7.1 20 9.7 6.1 2.5 15.3 5.7 20.5 7.1 5.3 1.3 9.6 2.3 9.8 2.2.1-.2 2.7-8.9 5.8-19.3 4.3-14.9 5.3-19.2 4.2-19.8-.7-.4-2.1-.7-3-.7-1 0-6.8-1.3-13-2.9s-15.3-4.5-20.3-6.4c-4.9-1.9-13.2-5.6-18.5-8.2-5.2-2.6-13.7-7.6-19-11.1-5.2-3.6-10.9-7.6-12.6-9.1-2.4-2-3.2-2.3-3.7-1.2zm356.8 4.5c-3.8 3-11 7.8-16 10.8-4.9 3-12.6 7-17 9s-12.5 5.2-18 7.1-14.9 4.6-21 6l-11.2 2.7c-.1.2 2.2 8.8 5.3 19.3l5.8 19.2c0 .2 4-.6 8.6-1.8 4.7-1.1 12.6-3.7 17.5-5.6 5-2 12.2-5.2 16-7.1 3.9-1.9 11.1-6 16-9 5-3 14.1-9.2 20.3-13.9 6.2-4.6 11.5-8.9 11.8-9.6s-1.7-8-4.6-16.2c-2.8-8.3-5.5-15.3-5.9-15.7-.4-.3-3.8 1.8-7.6 4.8z" fill="#1995c9"/><path d="M480.5 832.2c-.2.7-3.4 9.8-7 20.3l-6.5 19c6.6 6.7 11.4 10.8 15 13.4 3.6 2.7 10.1 6.9 14.5 9.5 4.4 2.5 12.5 6.4 18 8.7 5.5 2.2 13.1 4.9 17 6s10.9 2.9 15.8 3.9c6.7 1.6 8.8 1.7 9.2.7.2-.6 3-10 6.1-20.7l6-20.5c.2-.6-3.7-1.8-8.8-2.8s-13.3-3.1-18.3-4.8c-5-1.6-14.4-5.6-21-8.8s-15.4-7.9-19.5-10.6c-4.1-2.6-10.3-7-13.7-9.7-4.2-3.2-6.4-4.4-6.8-3.6zm316 .9c-1.1 1.1-7.2 5.5-13.5 9.8-6.3 4.2-16.2 10-22 12.8s-15.2 6.7-21 8.7c-5.8 1.9-14.4 4.3-19.3 5.3-4.8 1-8.7 2.2-8.7 2.8 0 .5 2.5 9.5 5.5 20l6 20.7c.5 1.7 1.2 1.6 11.3-.6 5.9-1.3 15-3.8 20.2-5.5 5.2-1.8 14-5.4 19.5-8.1s13.4-7.1 17.5-9.8c4.1-2.8 10.4-7.6 14-10.7s6.7-6.1 6.8-6.8c.2-.7-2.6-9.8-6.3-20.2-3.7-10.5-7.1-19.3-7.4-19.8-.4-.4-1.6.2-2.6 1.4z" fill="#fff"/><path d="M614 306.5c-4.7.7-11.4 2.1-15 3s-10.1 2.8-14.5 4.2-13 4.9-19 7.7c-6 2.9-15 7.8-20 11s-11.3 7.7-14 9.9c-2.8 2.2-8.8 7.7-13.3 12.1-4.6 4.5-11 11.2-14.1 15.1-3.2 3.9-8.3 10.8-11.4 15.5-3 4.7-7.8 13.2-10.6 19-2.7 5.8-6.6 15.2-8.5 21s-4.5 15.2-5.8 21c-2 9.3-2.2 13.3-2.2 34 0 20.8.2 24.7 2.3 34 1.2 5.8 3.6 14.8 5.3 20 1.6 5.2 5.5 14.7 8.5 21s8.8 16.7 13 23c5.8 8.6 11.2 15 21.7 25.6 10.5 10.4 16.9 15.9 25.1 21.4 6 4 15.5 9.5 21 12.3 5.5 2.7 15.9 6.9 23 9.2 7.1 2.4 18.9 5.3 26 6.5 11.3 1.9 15.6 2.1 33 1.7 15.3-.3 22.4-.9 30-2.6 5.5-1.2 14.3-3.5 19.5-5.2s14.7-5.5 21-8.5c6.3-3.1 14.4-7.4 18-9.6 3.6-2.3 9.2-6.2 12.5-8.7 3.3-2.4 9.1-7.3 13-10.7s10.1-9.9 14-14.4 9.9-12.5 13.5-17.8c3.6-5.4 8.8-14.4 11.7-20.2 2.8-5.8 6.7-15.2 8.6-21 2-5.8 4.5-15 5.6-20.5s2.5-15.7 3.1-22.8c.7-8.8.7-16.6-.1-25.4-.5-7.1-1.7-16.2-2.5-20.3s-2.5-11.3-3.8-16c-1.4-4.7-4.5-13.2-6.9-19-2.5-5.8-6.7-14.3-9.3-19-2.7-4.7-8-12.8-12-18-3.9-5.2-10.7-13.1-15-17.6-4.3-4.4-11.5-10.9-15.9-14.4s-11-8.3-14.7-10.7c-3.8-2.3-11.4-6.6-17-9.4-5.7-2.8-15.7-6.9-22.3-9.1s-16.3-4.9-21.5-6c-7.1-1.5-14.7-2.1-30.5-2.3-14.7-.3-23.5 0-29.5 1z" fill="#e8ca1d"/><path d="M627.5 376c-2.8.5-7.7 1.9-11 3s-8.9 3.7-12.5 5.7c-4 2.2-9.8 7-15 12.2-4.7 4.7-10 11.1-11.7 14.1-1.8 3-4.4 8.6-5.7 12.5s-2.9 10.8-3.6 15.5c-.6 4.7-.9 11.2-.5 14.5.3 3.3 1.5 9.4 2.6 13.5s3.6 10.4 5.4 14c1.9 3.6 5.6 9.2 8.2 12.5 2.7 3.2 7.5 8.1 10.8 10.7 3.3 2.7 8.9 6.4 12.5 8.3s10.1 4.4 14.5 5.5c5.7 1.6 11 2.2 18.5 2.2s12.7-.6 18.5-2.2c4.4-1.1 11.6-4 16-6.3 5.7-3 10.3-6.5 16.1-12.2 4.6-4.6 9.8-11 12.2-15 2.2-3.9 5-9.8 6.1-13.3 1.2-3.4 2.6-9.5 3.2-13.4.6-4 .9-10.7.5-14.8-.3-4.1-1.3-10.2-2.1-13.5s-3.3-9.6-5.5-14c-2.1-4.4-6.3-10.9-9.2-14.4s-8-8.4-11.3-10.8c-3.3-2.5-8.5-5.8-11.5-7.3s-8.6-3.8-12.5-5c-4.8-1.5-10.3-2.3-17.5-2.5-5.8-.2-12.8 0-15.5.5zm-89 29.5c-1.6.9-5.7 3.8-9 6.5-3.3 2.6-9.4 8.3-13.5 12.7-4.1 4.3-9.6 11-12.2 14.8-2.5 3.9-6.4 10.6-8.6 15s-5.2 12.1-6.7 17c-1.4 4.9-3.1 13.3-3.7 18.5-.8 7.1-.8 12.2.1 20 .6 5.8 2.1 13.9 3.2 18s4.2 12 6.9 17.5c2.6 5.5 7.6 13.8 11.1 18.5 3.4 4.7 9.5 11.6 13.3 15.4 3.9 3.8 10.2 9.3 14.1 12.2s10.6 7.4 15 9.9c4.4 2.6 11.8 6.4 16.5 8.5s12.8 5.1 18 6.8 14 4 19.5 5.1 16.1 2.5 23.5 3.1c9.8.8 17.4.8 27.5 0 7.7-.6 18.5-2 24-3.1s15-3.6 21-5.6c6-1.9 15.5-5.7 21-8.3s13.6-7.2 18-10c4.4-2.9 11.6-8.2 15.9-11.9 4.4-3.6 10.5-9.5 13.6-13.1 3-3.6 7.4-9.2 9.7-12.5 2.2-3.3 5.9-9.6 8.1-14s5.1-11.6 6.5-16 3.1-12 3.7-17c.8-5.3 1-13.1.7-19-.4-5.5-1.6-13.8-2.8-18.5s-3.8-12.3-5.8-17-6.3-12.6-9.5-17.5c-3.8-5.8-9.8-12.9-17-20-6.1-6.1-13.4-12.6-16.1-14.4-4.3-2.8-5.6-3.2-9.5-2.7-2.8.3-5.3 1.4-6.8 2.8-1.2 1.3-2.8 3.7-3.4 5.3-.9 2.5-.7 4.5 1.3 12 2 7.6 2.4 11.3 2.4 23.5 0 10.8-.5 16.3-1.9 21.5-1 3.9-3.6 10.8-5.8 15.5s-5.9 11.2-8.2 14.5c-2.4 3.3-7.7 9.2-11.7 13-4.1 3.9-10.5 9-14.4 11.3s-10.5 5.5-14.8 7.2c-4.2 1.6-11.9 3.7-17 4.6-6.2 1.1-12.3 1.5-18.7 1.1-5.2-.3-13.3-1.5-18-2.7s-11.2-3.4-14.5-4.9-9.6-5.2-13.9-8.1c-4.3-3-10.6-8.4-14-12s-7.9-9.2-10.1-12.5-5.5-9.6-7.4-14-4.3-12.3-5.4-17.5c-1.5-7.5-1.8-11.9-1.4-21 .4-7 1.4-14.3 2.6-18.7 1.2-4 2.1-8.7 2.1-10.3 0-2-1.1-4.2-3.3-6.6-2.4-2.6-4.2-3.7-7.2-4-2.6-.3-5 .1-7 1.1z"/><path d="M630 400.1c-2.5.5-7.4 2.3-11 4-3.7 1.8-9 5.5-12.4 8.8-3.2 3.1-6.9 7.4-8.2 9.6s-3.2 6.5-4.2 9.5-2.2 7.9-2.5 10.7c-.4 2.9-.2 8.3.3 12 .6 3.9 2.6 10.1 4.6 14.3 2.4 5 5.5 9.4 9.3 13.1 3.8 3.9 8.2 6.9 13.6 9.5 7.4 3.6 8.7 3.9 18.5 4.2 8.8.3 11.5 0 17-1.8 3.6-1.2 8.8-3.7 11.5-5.4 2.8-1.8 7.2-5.7 9.8-8.7 2.7-3 6.2-8.1 7.7-11.4 1.6-3.3 3.5-9.4 4.1-13.5 1-6 1-9-.1-15-.8-4.4-2.8-10.4-4.9-14.5-2-3.9-5.9-9.3-8.8-12.3-3.2-3.1-8.1-6.6-12.5-8.7-4-1.9-9.8-4-12.8-4.5-3-.6-7.5-1-10-.9s-6.5.5-9 1zm-108.7 56.6c-2 3.2-4.9 8.8-6.5 12.5-1.5 3.8-3.5 9.8-4.5 13.5-1.1 4.5-1.6 10.8-1.6 18.3.1 8.2.6 13.7 2.1 19 1.1 4.1 3.6 10.9 5.7 15s5.6 10.2 7.8 13.5c2.3 3.3 7.7 9.6 12.2 14 4.4 4.4 11.9 10.5 16.5 13.6 4.7 3.1 11.6 7.3 15.5 9.2s11.7 5.1 17.5 7.1 14.8 4.6 20 5.6c5.2 1.1 15 2.4 21.8 3 8.4.7 16.2.7 25 0 7-.6 17-2 22.2-3.2 5.2-1.1 12.9-3.1 17-4.5 4.1-1.3 11.8-4.5 17-6.9 5.2-2.5 13.3-7.1 18-10.2s12.6-9.7 17.6-14.7c5.6-5.6 11-12.2 14.2-17.5 2.9-4.7 6.6-12.2 8.2-16.8 1.9-5.3 3.3-11.6 3.9-17.6.5-5.4.5-13.2 0-18.3-.5-4.8-1.9-11.9-3.2-15.8s-3.4-9-4.7-11.5c-1.2-2.5-3.6-6.4-5.1-8.8-1.6-2.3-3.4-4.2-3.9-4.2s-1 1.7-1 3.7c0 2.1-.6 7.6-1.4 12.3-.9 4.7-2.7 12.1-4.2 16.5s-4 10.7-5.7 14c-1.6 3.3-4.9 9-7.3 12.7-2.4 3.8-7.9 10.5-12.1 15-4.3 4.4-11.2 10.6-15.3 13.7s-11.8 7.7-17 10.3-13.3 5.8-18 7.1c-4.7 1.4-12 3-16.2 3.6-4.3.6-11.3 1.1-15.5 1.1-4.3 0-12.3-.7-17.8-1.5-5.5-.9-13.4-2.7-17.5-4.1s-10.2-3.8-13.5-5.4-9.6-5.2-14-8.1c-4.4-2.8-12.1-9.3-17.1-14.3s-11.5-12.7-14.4-17.1c-3-4.4-7.1-11.8-9.2-16.5s-4.9-12.8-6.2-18-2.7-13-3.1-17.3c-.3-4.2-1-7.7-1.6-7.7-.5 0-2.6 2.6-4.6 5.7z" fill="#c18e08"/><path d="M630 400.1c-2.5.5-7.4 2.3-11 4-3.7 1.8-9 5.5-12.4 8.8-3.2 3.1-6.9 7.4-8.2 9.6s-3.2 6.5-4.2 9.5-2.2 7.9-2.5 10.7c-.6 4.1-.4 5.2.6 5 .7-.1 11.3-10.9 23.5-24 12.2-13 21.9-23.9 21.4-24.2-.4-.3-1.2-.5-1.7-.4s-3 .5-5.5 1zm-108.7 56.6c-2 3.2-4.9 8.8-6.5 12.5-1.5 3.8-3.4 9.6-4.2 13-.8 3.5-1.8 9.2-2.1 12.8-.4 3.6-.1 10.3.5 15 .7 4.7 2 11.3 3.1 14.7 1 3.5 2.2 6.3 2.7 6.3.4.1 6.4-6 13.5-13.5 7-7.4 12.5-14.1 12.3-14.8-.3-.6-2.1-5-4.2-9.7-2-4.7-4.7-12.6-6-17.5-1.2-5-2.5-12.5-2.9-16.8-.3-4.2-1-7.7-1.6-7.7-.5 0-2.6 2.6-4.6 5.7zm231.6-1.5a70.92 70.92 0 0 1-.7 9c-.4 2.6-.5 4.8-.2 4.8s2.5-1.9 4.9-4.2l4.3-4.3c-4.8-7.4-6.7-9.5-7.2-9.5s-1 1.9-1.1 4.2zm-168.4 114c-8 8.7-14.5 16-14.5 16.3s2.4 1.6 5.3 2.9c2.8 1.3 9.7 3.8 15.2 5.5 5.5 1.8 15.1 4.1 21.3 5.2 6.1 1 12.8 1.9 14.7 1.9 3.3 0 4.8-1.4 23-21 10.7-11.5 19.5-21.3 19.5-21.8 0-.4-2.6-.1-5.8.6-3.1.7-11.1 1.5-17.7 1.8-8.3.4-15 .1-22-.9-5.5-.8-13.3-2.6-17.3-3.9l-7.2-2.3zm87-93.1c-7.7 8.3-14.1 15.5-14.3 16-.1.4.8.6 2 .2 1.3-.3 4.5-2.1 7.3-3.8 2.7-1.8 7.2-5.7 9.8-8.6 2.7-3 6.2-8.2 7.8-11.5 1.5-3.3 2.9-6.3 2.9-6.7s-.3-.8-.8-.7c-.4 0-7 6.8-14.7 15.1z" fill="#e0c70c"/><path d="M601.4 356.7c-45 48.4-48.1 51.9-46.8 53.8.8 1.1 1.4 3.2 1.4 4.8 0 1.5-.9 6-2.1 10-1.1 4.1-2.2 11.8-2.6 18.2-.4 8.2-.1 13.3 1.2 20 .9 5 2.6 11.5 3.7 14.5s2.5 6 3 6.5c.6.6 3-1.1 6.7-5l5.9-6c-2.7-10.1-3.8-15.9-4.2-19.5-.4-3.7-.2-10.1.4-15 .7-4.7 2.3-11.6 3.6-15.5s3.9-9.5 5.7-12.5c1.7-3 7-9.4 11.7-14.1 5.5-5.6 10.9-9.9 15.5-12.4 3.9-2.2 10.4-5 14.5-6.3 4.2-1.3 11.4-2.6 16.5-2.9 5.7-.4 11.7-.1 16.5.8l8.2 1.4c.4 0 12.4-12.6 26.8-28l26-28.7c0-.5-3.5-2.1-7.7-3.7-4.3-1.6-11.6-4.1-16.3-5.5s-12.1-3.2-16.5-4-11.4-1.7-15.5-2.1l-7.5-.5zM474.5 492.6l-9 9.5c3.5 16.9 5.9 26.2 7.6 31.6 1.7 5.3 5.4 14.5 8.1 20.2l4.9 10.5 12-12c-6.1-13.1-8.8-20.3-9.9-24.5-1.2-4.1-2.6-11.5-3.2-16.5-.6-4.9-.9-13.4-.5-18.7.3-5.4.2-9.7-.2-9.7s-4.8 4.4-9.8 9.6zm322.9 39c-6.2 6.6-12.1 14-13.8 17.2-1.6 3.1-4.7 8.3-6.9 11.6-2.3 3.3-6.6 9-9.7 12.5-3.1 3.6-9.2 9.5-13.5 13.1-4.4 3.6-11.1 8.7-15 11.3-4.9 3.3-12.9 11-27.2 26.4L691 646.2c0 .4.8.7 1.8.7.9 0 5.1-1.3 9.2-2.8 4.1-1.6 11.7-5 16.8-7.5 5.1-2.6 11.8-6.3 15-8.3 3.1-2 8.4-5.7 11.7-8.2s9.2-7.4 13-10.8c3.9-3.4 10.2-9.8 14-14.3 3.9-4.5 9.9-12.6 13.5-17.9s8.8-14.4 11.7-20.2c2.8-5.8 6.7-15.2 8.6-21 1.9-5.7 3.6-11.7 3.8-13.2.3-1.7 0-2.8-.7-2.8s-6.1 5.3-12 11.7zm-42.5-147c-9.5 10.3-16.9 18.8-16.4 19 .6.1 3.3 1.7 6 3.5 2.8 1.8 10 8.2 16.1 14.3s12.7 13.4 14.5 16.3l3.4 5.3 20.7-21.6 4.6-5c-5.5-12.4-9.3-19.8-12-24.5-2.7-4.6-7.9-12.4-11.6-17.2-3.7-4.9-6.9-8.8-7.3-8.8-.3 0-8.4 8.4-18 18.7zm-38 40.7l-5.7 6.1c1.9 14.7 1.9 19.2 1.1 25-.6 4.4-2.1 11-3.3 14.5-1.1 3.6-4 9.7-6.2 13.5-2.3 4-7.5 10.4-12.2 15.1-5.7 5.7-10.4 9.2-16.1 12.2-4.4 2.3-11.6 5.1-16 6.3-5.9 1.6-10.8 2.1-19 2.1l-11-.1c-8.9 10-11.4 13.1-11.2 13.3.1.2 2 .9 4.2 1.6 2.2.6 8.5 1.4 14 1.7 7.1.4 12.7.1 19.3-1.1 5.1-.8 12.7-2.9 17-4.6 4.2-1.6 10.9-4.9 14.7-7.2 3.9-2.3 10.3-7.4 14.4-11.2 4.1-3.9 9.3-9.8 11.7-13.1 2.3-3.3 6.1-9.8 8.2-14.5 2.2-4.6 4.8-11.6 5.8-15.5 1.4-5.2 1.9-10.7 1.9-21.5 0-10.4-.5-16.5-1.7-21.7-1.1-4.4-2.3-7.2-3-7.2-.7.1-3.8 2.9-6.9 6.3zm-170.7 183l-8 8.6-3.3 3.5c14.4 9.6 23.3 14.6 29.1 17.5 5.8 2.8 13.6 6.1 17.4 7.3l6.9 2.2 21.7-23.5c0-.2-3.9-1.3-8.7-2.3s-14-3.5-20.3-5.6-15.7-5.8-20.8-8.3l-9.3-4.5z" fill="#f4e52c"/></svg>