<svg xmlns="http://www.w3.org/2000/svg" width="1280" height="1280" xmlns:v="https://vecta.io/nano"><path d="M617.5 203.1c-6.6.5-18.8 1.8-27 2.9-8.3 1.2-22.9 3.7-32.5 5.6s-26 5.7-36.5 8.4-27.1 7.4-37 10.4c-9.9 3.1-25 8.1-33.5 11.1-8.5 3.1-17.5 6.8-20 8.2-2.5 1.5-7.1 5.2-10.3 8.2-4.2 4-7 7.9-9.8 13.6-2.2 4.7-4.3 10.7-4.9 14.5-.5 3.6-1 16.5-1 28.8V337c-7.4-4.1-12.9-7.6-17-10.4s-10.8-8.2-14.8-12.1c-4.1-3.8-8.9-9.5-10.7-12.5s-6-8-9.2-11.1-8-6.7-10.8-8.1c-2.7-1.4-7.7-3.4-11-4.3-4.6-1.4-8.3-1.6-15.5-1.3-6.5.4-11.2 1.2-15 2.8-3 1.2-8.2 4.1-11.5 6.4-3.3 2.4-7.9 6.7-10.1 9.7-2.3 3-6.8 9.7-10 14.9-3.1 5.2-9.7 17.6-14.5 27.5s-11 24.1-13.8 31.5c-2.7 7.4-6.5 18.9-8.4 25.5s-4.7 17.4-6.2 24-3.5 17.9-4.6 25c-1 7.1-2.3 20.4-2.8 29.5s-.5 23.5 0 32c.4 8.5 1.3 19.5 1.9 24.5s2.2 14.6 3.6 21.5 3.8 17.3 5.4 23.3c1.7 5.9 5.1 16.4 7.6 23.5 2.5 7 6.3 16.3 8.4 20.7s5.8 10.3 8.2 13c2.5 2.8 7.1 6.8 10.4 8.9 3.2 2.2 11.1 5.9 17.4 8.2s15.7 5.2 20.8 6.5c7.2 1.9 9.2 2.8 9.2 4.2 0 .9 1.6 7.2 3.6 14 1.9 6.7 5.3 16.7 7.4 22.2 2.2 5.5 6.2 14.5 9.1 20 2.8 5.5 7.4 13.4 10.1 17.5 2.8 4.1 7.4 10.4 10.3 14s8.6 9.7 12.6 13.5c4.1 3.9 10.8 9.4 14.9 12.4a191.91 191.91 0 0 0 12.3 7.9c2.6 1.5 4.7 3 4.7 3.5 0 .4-7.3 13-16.2 28L353.7 858c-6 9.6-15.7 24.5-21.5 33s-14.1 20.2-18.5 26-8.8 12.2-9.8 14.3c-1.1 2-2.6 6.3-3.4 9.5-.8 3.1-1.5 8.8-1.5 12.7s.5 9 1.1 11.5 2.4 7.2 4 10.5 4.8 8.2 7.2 10.9c2.3 2.8 9.1 9.4 15.2 14.9 6.1 5.4 16.2 13.8 22.5 18.7 6.3 4.8 16 11.6 21.5 15.2 5.5 3.5 14.5 9 20 12 5.5 3.1 14.7 7.7 20.5 10.3s17 6.9 25 9.5c8 2.7 19.2 5.7 25 6.9 5.8 1.1 15 2.5 20.5 3.1 7.2.8 12 .8 17 0 3.9-.6 9.5-2.2 12.5-3.6s7.9-4.3 10.8-6.5c2.8-2.1 7.1-6.5 9.5-9.6 3.1-4.3 10.5-20.5 28.4-62.3l38.3-90.5 28.1-68.5c13.1-32.6 13.9-34.3 14.9-31.5.6 1.6 7.1 17.9 14.5 36l29.8 72.5 36.2 85.5L744 1050c1.5 3 5.2 8.2 8.2 11.5 3.5 3.8 8 7.4 12.4 9.7 3.8 2.1 10.3 4.5 14.4 5.3 5.2 1.1 9.7 1.4 14.5 1 3.9-.4 11.3-1.3 16.5-2.1s13.8-2.6 19-3.9 14.9-4.3 21.5-6.6c6.6-2.4 19.4-8 28.5-12.5 9.1-4.6 23.3-12.7 31.5-18.2 8.3-5.4 18.8-12.9 23.5-16.6s13.4-11.1 19.4-16.4 12.9-12.2 15.4-15.2c2.4-3 5.5-7.6 6.8-10.3 1.3-2.6 3.1-7.3 3.9-10.4.8-3.2 1.5-8.5 1.5-11.8s-.7-8.6-1.5-11.7c-.8-3.2-2.7-8.2-4.1-11-1.5-2.9-5.5-8.9-8.9-13.3s-9.8-13.2-14.2-19.5c-4.5-6.3-12.3-18-17.4-26L915 840l-21.8-36.3L882 785c9.7-5.3 15.4-8.9 19-11.6 3.6-2.6 10-8.1 14.4-12.3 4.3-4.2 10.6-11.2 14.1-15.6 3.4-4.4 8-10.9 10.3-14.5 2.2-3.6 6.8-12.1 10.1-19s7.7-17.7 9.9-24c2.1-6.3 4.9-15.5 6.1-20.5l2.2-9c8.8-2.1 17-4.6 23.9-6.9 6.9-2.4 15.4-5.8 19-7.7 3.5-1.9 9-5.9 12.1-8.9 4.3-4.2 6.8-8 10.7-16 2.8-5.8 7.8-18.6 11.1-28.5 3.2-9.9 7.3-24.3 9-32 1.6-7.7 3.7-19.2 4.6-25.5s1.9-21.4 2.2-33.5c.4-14 .1-26.9-.6-35.5-.7-7.4-2.4-20-3.7-28s-4.1-20.8-6-28.5c-2-7.7-5.9-20.5-8.6-28.5-2.8-8-7.5-20.1-10.5-27s-8.1-17.6-11.4-23.8c-3.2-6.1-8.5-15.4-11.6-20.4-3.1-5.1-8.4-12.1-11.7-15.6-3.8-3.9-8.6-7.6-12.6-9.6-3.6-1.9-9-3.9-12-4.6-3.2-.7-9.1-1-14-.8-5.2.3-10.8 1.4-14.5 2.7-3.3 1.2-8.8 4.2-12.2 6.6-4.4 3.2-7.9 6.8-11.5 12.2-2.9 4.3-7.5 10.2-10.3 13.1-2.7 3-8.1 7.8-12 10.7s-10.4 7.3-14.5 9.8c-4.1 2.6-7.8 4.6-8.2 4.7-.5 0-.8-11.6-.8-25.8 0-22.8-.2-26.4-1.9-32.2-1.1-3.6-3.7-9.2-5.9-12.5-2.1-3.3-6.3-8.2-9.3-10.8-3-2.7-8.1-6.2-11.4-7.7-3.3-1.6-14.8-5.8-25.5-9.5-10.7-3.6-29.4-9.5-41.5-13s-30.1-8.1-40-10.3c-9.9-2.3-23.2-5-29.5-6.1s-16.7-2.7-23-3.6c-6.3-.8-18-1.9-26-2.5-8-.5-18.1-.9-22.5-.8-4.4 0-13.4.5-20 .9z" fill="#fff"/><path d="M613 208.7l-16.5 1.9c-7.1.8-19.1 2.7-26.5 4l-27 5.5c-7.4 1.6-21.8 5.2-32 8s-29.1 8.6-42 12.8c-12.9 4.3-26.9 9.4-31 11.3-4.1 1.8-9.7 5.4-12.3 7.8-2.7 2.5-6.3 6.8-8 9.5-1.7 2.8-3.9 7.6-4.9 10.8-1.6 4.9-1.8 9.7-1.8 35.2 0 22.9-.3 29.5-1.2 29.5-.7 0-4.2-1.7-7.8-3.7s-9.4-5.5-13-7.8-9.9-6.9-14-10.2c-4.1-3.4-8.9-7.8-10.6-9.9-1.7-2.2-4.9-6.6-7.1-9.9s-5.8-7.6-7.9-9.5c-2.2-2-5.9-4.8-8.4-6.2-2.5-1.5-7.2-3.4-10.5-4.3-3.3-.8-8.5-1.5-11.5-1.5s-8.2.7-11.5 1.6c-3.3.8-8.2 2.7-10.9 4.2-2.6 1.5-7.2 5.2-10 8.2-2.9 3-7.8 9.7-10.9 14.8-3.1 5-8.4 14.3-11.6 20.5-3.3 6.1-8.6 17.5-11.9 25.2s-8 20.1-10.5 27.5-6.1 20-8.1 28c-1.9 8-4.4 20.1-5.5 27s-2.6 18.4-3.2 25.5c-.7 8.1-1 21.4-.6 35 .4 14.7 1.3 26.6 2.7 36 1.1 7.7 3.6 20.3 5.5 28 1.8 7.7 5.3 19.9 7.8 27 2.4 7.1 6.4 17.5 8.8 23s6.1 12.1 8.1 14.8c2.1 2.6 6.6 6.5 10.1 8.7 3.4 2.2 10 5.4 14.7 7.1s14.2 4.7 21.2 6.7l12.7 3.7c4.2 17 6.9 26.5 8.8 32s6.1 15.6 9.4 22.5c3.4 6.9 8.6 16.3 11.6 21 3.1 4.7 8.8 12.3 12.7 17 3.9 4.6 10.5 11.3 14.6 14.8s10.4 8.3 14 10.7c3.6 2.3 9.1 5.5 12.2 7.1l5.7 2.9-20.3 34.5-23.9 39.5c-5.5 8.8-15 23.4-21 32.5-6.1 9.1-15 21.8-19.9 28.3-4.8 6.4-9.9 13.8-11.2 16.5-1.3 2.6-2.9 7.1-3.5 10-.6 2.8-1.1 7.3-1.1 10 0 2.6.7 7.4 1.6 10.7.8 3.3 2.7 8.3 4.2 11 1.5 2.8 6.7 9 11.7 14s13.8 12.9 19.5 17.6c5.8 4.8 14.6 11.5 19.5 15.1 4.9 3.5 13.5 9.2 19 12.7 5.5 3.4 15.2 8.8 21.5 12s16.7 7.9 23 10.4c6.3 2.6 17.4 6.2 24.5 8.2 7.1 1.9 17.5 4.2 23 5s13.9 1.5 18.8 1.5c6.1 0 10.5-.6 14.7-2 3.3-1.1 7.9-3.2 10.3-4.7 2.3-1.5 6-4.5 8.2-6.8s5.4-6.8 7.2-10.1c1.7-3.2 11.3-25 21.3-48.4l39.5-93.5 34.6-84.3L640 789c.3 0 6.8 15.7 14.4 34.8l28.8 70.7 40.4 95.5c17.5 41 26.6 61 29.2 64.5 2 2.7 6 6.6 8.7 8.7 2.8 2.1 7.5 4.8 10.5 6.1 4.8 1.9 7.2 2.2 19.5 2.1 11.2 0 16.6-.6 26.8-2.7 7-1.5 18-4.5 24.4-6.6 6.5-2.2 17.2-6.4 23.8-9.3 6.6-3 16.7-8 22.5-11.3 5.8-3.2 15.7-9.4 22-13.6 6.3-4.3 16.5-11.7 22.5-16.5s16.3-14 22.8-20.3c8.8-8.7 12.5-13.1 14.7-17.6 1.6-3.3 3.4-9.4 4.1-13.5 1-5.9 1-8.9 0-14-.7-3.6-2.1-8.5-3.2-11s-5.8-9.5-10.3-15.5c-4.6-6-12.2-16.6-16.9-23.5l-17.4-26.5-20.8-33.5-21.7-36.5-9.6-17.1c.2-.1 3.4-1.8 7.3-3.7s10.1-5.7 14-8.4 10.1-7.8 13.9-11.4c3.8-3.5 9.6-9.8 12.9-13.9s8-10.6 10.5-14.5 7.4-12.9 10.9-20c3.4-7.1 8.5-19.7 11.2-28 2.7-8.2 5.5-17.7 6.2-21 .6-3.3 1.5-6.3 1.8-6.7s6.5-2.4 13.6-4.3c7.1-2 17.5-5.4 23-7.6 5.5-2.1 12.1-5.6 14.7-7.6 2.6-2.1 6.6-6.3 8.8-9.3 2.6-3.5 6.2-10.9 10-20.5 3.2-8.2 7.5-20.6 9.5-27.5s4.9-19 6.5-27 3.5-19.2 4.2-25c.8-6.3 1.3-20.7 1.2-36 0-18.5-.5-29-1.8-38.5-1-7.1-3.1-19.3-4.7-27-1.5-7.7-4.7-20.3-6.9-28-2.3-7.7-6.2-19.4-8.7-26-2.4-6.6-8.9-21-14.3-32s-13-24.7-16.7-30.5c-3.8-5.8-8.7-12.1-10.9-14-2.1-2-5.9-4.8-8.4-6.2-2.5-1.5-7.2-3.4-10.5-4.3-3.3-.8-8.5-1.5-11.5-1.5s-8.1.7-11.3 1.5c-3.1.8-7.6 2.5-9.9 3.7-2.4 1.1-6.7 4.4-9.6 7.2-3 2.8-6.9 7.6-8.7 10.6s-6.8 8.9-11.2 13c-4.3 4.2-11.2 9.9-15.3 12.6-4.1 2.8-11.1 7.2-15.5 9.7-4.4 2.6-8.6 4.7-9.3 4.7-.9 0-1.3-7-1.4-31.2l-.3-31.3c-6.1-12.6-9.5-17.5-12.8-20.8-2.8-3-7.4-6.5-10.2-7.9-2.7-1.4-12-5.1-20.5-8.1s-23.1-7.8-32.5-10.7l-34-9.6c-9.4-2.4-23.4-5.7-31.3-7.4-7.8-1.6-19.7-3.9-26.4-5-6.8-1.1-18.6-2.7-26.3-3.5-8.7-.9-22.4-1.4-36-1.3l-25.5.5z"/><path d="M315.3 363.1c-2.4 4.9-5.9 12.8-7.9 17.6-2.1 4.9-5.6 14.4-7.9 21.3-2.4 6.9-5.4 17.2-6.9 23-1.4 5.8-3.4 15.7-4.5 22s-2.6 18.9-3.2 28c-1 12.9-1 20.1-.1 32.7.7 9 2.3 22.3 3.7 29.5 1.3 7.3 3.8 17.8 5.4 23.3s4.3 13.9 6 18.7l3.1 8.8c12.8 3.9 21.4 6.1 27.5 7.4 6.1 1.4 15.7 3.2 21.5 4 5.8.9 17.7 2 26.5 2.6s21.9.8 29 .5c7.1-.4 18.6-1.3 25.5-2.1s16.3-2.2 21-3c4.7-.9 13-2.7 18.5-4 5.5-1.4 15.1-4.1 21.2-6 6.2-1.8 11.5-3.9 11.8-4.4s-4.6-5.1-10.8-10.2c-6.1-5.1-15.4-13.3-20.6-18.3-5.1-4.9-12.2-12.6-15.8-17-3.5-4.4-8-10.7-9.8-14-1.9-3.3-4.2-8-5.2-10.5-1.6-4-1.8-9.3-2.3-47.3l-.5-42.9-35-13.2c-4.9-2.1-15.5-7.1-23.5-11.1-8-4.1-19.9-10.9-26.5-15.3-6.6-4.3-14.9-10.3-18.5-13.3-3.6-2.9-9-7.7-12-10.5l-5.4-5.1zm637.1-2.1c-3.2 3.3-10 9.2-14.9 12.9-5 3.8-13.1 9.5-18 12.6-5 3.1-17.1 9.6-27 14.5-9.9 4.8-24.3 11.1-32 13.9l-17.5 6.4-3.5 1.2-1 85.9c-4.4 10.1-7.6 16-10 19.5-2.4 3.6-7.6 10.4-11.7 15-4.1 4.7-12.6 13.1-18.9 18.7s-14.2 12.4-17.6 15c-3.4 2.7-6.2 5.4-6.3 6.1 0 .7.8 1.4 1.7 1.6 1 .2 7.2 2.1 13.8 4.1s16.9 4.8 23 6.2A525.73 525.73 0 0 0 836 599c6.9 1 20.4 2.4 30 3 12.7.8 22.1.8 34.5 0 9.3-.6 21.5-1.8 27-2.6s13.4-2.2 17.5-3c4.1-.9 12.6-3 18.9-4.8 7.9-2.2 11.8-3.8 12.7-5.2.8-1.1 3.3-7.8 5.8-15 2.4-7.1 5.5-18.1 6.9-24.5 1.5-6.3 3.3-16.9 4.2-23.5 1-7.4 1.7-19.3 1.7-31.5 0-12.7-.6-24-1.7-32.5-.9-7.1-2.8-18.1-4.1-24.5a477.97 477.97 0 0 0-6-23.5c-2-6.6-5.8-17.6-8.6-24.5-2.7-6.8-7.1-16.7-9.6-21.9-2.6-5.2-5.2-9.6-5.8-9.8-.5-.2-3.7 2.5-7 5.8zM515.5 611.7c-6.6 2.4-17.4 6-24 7.9S473 624.4 465 626s-20.1 3.6-27 4.5c-7.6 1-22.7 1.8-38.5 2.1l-26.2.6c-.1.1.8 5 2.1 10.7 1.3 5.8 4 15.5 6 21.5 2.1 6.1 5.6 14.9 7.9 19.5 2.4 4.7 6 11.2 8.2 14.5 2.1 3.3 7.3 9.4 11.4 13.6 4.2 4.1 9.8 8.8 12.6 10.3l5 2.8c4.1-4.4 27.2-30.9 53.9-61.7l48.6-56.7c0-.4-.4-.7-.8-.6-.4 0-6.1 2.1-12.7 4.6zm235.6-3.9c0 .6 22.7 27.3 50.5 59.4l51.8 58.6c.6.2 3.4-1.3 6.3-3.3a128.26 128.26 0 0 0 9.4-7.3c2.3-2.1 6.8-7.4 10.1-11.8s8.4-12.9 11.3-19c2.9-6 6.9-16.1 8.9-22.5 1.9-6.3 4.4-15.4 5.6-20.2 1.1-4.8 1.6-8.8 1.2-8.8-.4-.1-9 0-19.2 0-10.2.1-24.1-.4-31-.9-6.9-.6-19.5-2.3-28-3.7s-22.3-4.2-30.5-6.4c-8.3-2.1-21.3-6-29-8.7l-15.6-5.7c-.9-.5-1.7-.3-1.8.3zm-191.9 19.4l-8.7 16.2-22.3 41.5-31.5 57.5-30.9 55-16 28c4.4 4.4 9.1 8.6 13.2 12 4.1 3.5 12 9.3 17.5 13.1 5.5 3.7 14.9 9.1 21 12.1 6 2.9 15 6.4 20 7.8 4.9 1.4 11.2 2.7 13.8 2.8l4.8.2 29.4-72 28-71.5c5.9-15.6 13.8-37.7 17.6-49 3.7-11.2 6.8-21.1 6.8-22 0-.8-5.4-4.6-12.7-8.9-7-4-20.3-12-29.5-17.7l-17.2-10.4c-.2 0-1.7 2.4-3.3 5.3zm140.3 5.3l-29.3 17.7c-8.2 4.9-12.2 7.8-12.2 9 0 .9 2.7 9.9 6.1 20 3.3 10 11 31.5 17.1 47.7 6 16.3 19 49.6 28.9 74l23.7 58.5 5.9 14c7.6-.4 12.9-1.4 16.8-2.4 3.8-1.1 11-3.6 16-5.7 4.9-2.1 13-6.2 18-9.2 4.9-3 13-8.5 18-12.2 4.9-3.8 11.8-9.4 15.3-12.6l6.4-5.9-32.9-57.5-33.5-60.5-31.7-58.7c-7.7-14.7-14.5-26.7-14.9-26.7s-8.4 4.7-17.7 10.5zm-312 293.2c-4.3 6.4-10.2 15-13.2 19l-5.3 7.2c12.8 10.7 20.3 16.6 25 20s12.3 8.6 17 11.5 13.2 7.6 19 10.5 14.3 6.8 19 8.5c4.7 1.8 13.2 4.5 19 5.9 5.8 1.5 11.2 2.7 12 2.7q1.5 0 10.2-20l8.8-20.6c0-.2-2.6-1-5.8-1.6-3.1-.6-10.4-2.7-16.2-4.6s-14.6-5.4-19.5-7.7c-5-2.3-13.5-6.8-19-10.1-5.5-3.2-15.2-9.8-21.5-14.6l-16.6-13.3-5.1-4.6zm493.9-9.6c-1 1.2-6 5.6-10.9 9.7-5 4.2-14.4 11.1-21 15.4-6.6 4.4-17 10.3-23 13.3-6.1 2.9-15.5 6.9-21 8.8s-13.3 4.1-17.3 5c-3.9.9-7.2 2-7.2 2.4 0 .5 3.6 9.3 8.1 19.8l9 20c.6.6 3.7.4 9.2-.9 4.5-1 12.7-3.4 18.2-5.3s15.8-6.3 23-9.8c7.1-3.5 17.9-9.6 24-13.6 6-3.9 13.7-9.2 17-11.7a369.25 369.25 0 0 0 13.3-10.7c4-3.3 7.2-6.3 7.2-6.8 0-.4-3.5-5.6-7.8-11.5l-12.7-18.5c-2.8-4.2-5.3-7.7-5.6-7.7s-1.5 1-2.5 2.1z" fill="#7fd244"/><path d="M840.5 856.7c-2.8 2.5-8.4 7.2-12.5 10.3s-11.3 8.2-16 11.2c-4.7 3.1-12.5 7.6-17.5 10-5 2.5-12.1 5.8-16 7.3s-11.3 3.8-16.5 5.2c-5.2 1.3-9.6 2.5-9.7 2.6s3.4 8.7 7.9 19.2l8 19c11.9-2.1 18.9-3.8 23.3-5.2s13.2-5 19.5-8 16-8.4 21.5-12 13.4-9.3 17.5-12.7c4.1-3.3 9.7-8.1 12.3-10.6s4.8-4.8 4.7-5.3c0-.4-4.6-8.6-10.3-18.2S846.2 852 845.9 852c-.2.1-2.7 2.2-5.4 4.7zm-415.9 10.5L414 884.7l-2 3.3c11.2 10.3 17.9 15.8 22 19 4.1 3.1 10.6 7.7 14.5 10.2 3.8 2.5 11.7 6.9 17.5 9.8s15 6.7 20.5 8.6c5.5 1.8 13.1 3.9 17 4.7 3.8.8 7.3 1.2 7.7.8.4-.3 4.3-8.9 8.6-19.1l7.8-18.7c0-.2-3.7-1.1-8.1-2.2s-11.4-3.2-15.5-4.6c-4.1-1.5-11.8-4.9-17-7.5s-12.7-6.6-16.5-9c-3.9-2.4-10.4-6.8-14.5-9.8s-10.5-8.2-14.3-11.4c-3.7-3.2-7.1-5.8-7.6-5.8s-4.7 6.4-9.5 14.2z" fill="#fff"/><path d="M612 269.1c-4.7.5-15.3 2-23.5 3.4-8.3 1.4-22 4.1-30.5 6s-22.3 5.3-30.5 7.6c-8.3 2.2-22.6 6.5-32 9.4l-20.8 6.9-3.7 1.6.5 199.6c5.6 9.6 12.7 17.6 21.5 26.5 8 8 19.9 18.8 26.5 24.1s16 12.5 21 16.1 17.3 12.2 27.5 19 25.9 16.9 35 22.4 21.1 12.5 26.8 15.6L640 633l49-29.3c9.6-6 23.8-15.3 31.5-20.5l23.5-16.5a957.73 957.73 0 0 0 19.5-15.1c5.5-4.4 14.9-12.8 20.8-18.6 6-5.8 12.9-13.2 15.4-16.5s5.6-8.3 6.9-11l2.4-5-.5-196.8c-22.5-7.6-37.3-12.2-47.5-15.1-10.2-3-25.5-7-34-9-8.5-1.9-21.8-4.7-29.5-6-7.7-1.4-20.1-3.2-27.5-4.1-7.9-.9-21-1.4-31.5-1.4-9.9.1-21.8.6-26.5 1z" fill="#e8ca1d"/><path d="M632 296c-3.6.4-9.2 1.5-12.5 2.5-3.3.9-9.6 3.5-14 5.8-5.8 3-10.3 6.4-16.1 12.2-4.6 4.6-9.8 11-12.2 15-2.2 3.9-5 9.8-6.1 13.3-1.2 3.4-2.6 9.5-3.2 13.4-.6 4-.9 10.7-.6 14.8.4 4.1 1.3 10.2 2.2 13.5s3.1 9.1 4.9 13 5.5 9.9 8.2 13.4c2.7 3.6 7.6 8.6 10.9 11.3 3.3 2.6 8.9 6.3 12.5 8.2s9.9 4.5 14 5.8c6.2 1.9 9.7 2.3 20 2.3 10.2 0 13.9-.5 20-2.4 4.1-1.2 10.6-3.9 14.4-5.9 3.9-2.1 10.3-6.8 14.5-10.7 4.1-3.9 9.6-10.4 12.3-14.5s6-10.9 7.3-15c1.4-4.1 3-11.1 3.6-15.5s.8-10.7.4-14c-.3-3.3-1.5-9.4-2.6-13.5s-3.6-10.4-5.4-14c-1.9-3.6-5.6-9.2-8.2-12.5-2.7-3.2-7.5-8.1-10.8-10.8-3.3-2.6-9.6-6.6-14-8.7-4.4-2.2-10.9-4.6-14.5-5.4-3.6-.7-9.2-1.6-12.5-1.8-3.3-.3-8.9-.2-12.5.2zm-91.5 29.1c-1.6.4-6.6 3.7-11 7.2s-10.7 9.3-13.9 12.8c-3.3 3.5-8.1 9.5-10.9 13.4-2.7 3.9-6.8 10.8-9.2 15.5-2.3 4.7-5.4 12.1-6.8 16.5s-3.1 12.1-3.7 17c-.8 5.2-1 13.2-.7 19 .3 5.5 1.7 14.3 3 19.5s4 12.9 5.9 17 6 11.6 9.2 16.5c3.8 5.9 9.7 12.8 17 20 6.7 6.7 14.8 13.5 20.6 17.3 5.2 3.5 14 8.5 19.5 11.2 5.5 2.6 13.8 6.2 18.5 7.8s13.7 4.1 20 5.5 16.5 3.1 22.5 3.8c6.6.7 17.2.9 26.5.6 8.5-.3 19.5-1.3 24.5-2.2s13.3-2.7 18.5-4.1c5.2-1.5 12.9-3.9 17-5.6 4.1-1.6 11.5-5 16.5-7.5s13-7.3 18-10.7c5-3.3 13.7-10.8 19.5-16.6s12.6-13.6 15.2-17.5c2.5-3.9 6.4-10.6 8.6-15s5.2-12.1 6.6-17c1.5-4.9 3.1-13.1 3.7-18 .6-5 .8-12.6.4-17-.3-4.4-1.3-10.9-2-14.5s-2.8-10.3-4.5-15-4.7-11.4-6.6-15c-2-3.6-6.1-9.9-9.2-14s-8.6-10.4-12.2-14-9.4-8.7-13-11.5c-3.6-2.7-7.7-5.2-9.3-5.7-1.7-.5-4.1-.3-6.4.4-2.3.8-4.6 2.6-6.1 4.8-1.7 2.6-2.2 4.4-1.9 7 .3 1.9 1.5 8 2.7 13.5 1.8 8.3 2.1 11.9 1.7 21.5-.4 8.2-1.3 14-3.1 20.2-1.4 4.9-4 11.6-5.7 15-1.8 3.5-5 9-7.3 12.3-2.2 3.3-7 8.9-10.6 12.4s-9.9 8.6-14 11.3-10.9 6.2-15 7.7c-4.1 1.6-11 3.6-15.3 4.5-4.2.9-12.4 1.6-18.2 1.6s-13.6-.7-17.5-1.5-10.3-2.7-14.3-4.3c-3.9-1.5-10.8-5-15.2-7.7s-11.4-8.3-15.5-12.5c-4.2-4.1-9.8-11.1-12.5-15.5s-6.2-11.1-7.6-15c-1.5-3.9-3.5-10.8-4.5-15.5-1.3-6.5-1.5-11.4-1.1-20.5.3-7.6 1.3-14.9 2.7-20 1.8-6.6 2-8.7 1.1-11.8-.6-2.1-2.3-4.5-3.9-5.6-1.5-1-3.8-2-5.2-2.3s-3.9-.2-5.5.3z"/><path d="M624.5 322.1c-3.3 1.2-8.3 3.6-11 5.3-2.8 1.8-7.2 5.7-9.8 8.7-2.7 3-6.2 8.1-7.7 11.4-1.6 3.3-3.5 9.4-4.1 13.5-.9 5.7-1 9.2-.1 14.5.7 4 2.7 10.1 4.7 14.2 2.2 4.6 5.6 9.4 9 12.8s8.2 6.8 12.8 9c3.9 2 10.1 4.1 13.7 4.7 4.7.9 8.6.9 14 .2 4.6-.7 10.2-2.3 14.5-4.3 4.3-2.1 9.2-5.5 12.9-9 3.2-3.1 6.9-7.4 8.2-9.6 1.2-2.2 3-6 3.9-8.5s2-7.3 2.5-10.8c.7-4.1.7-8.5 0-13-.6-3.8-2.6-10-4.6-14.2-2.4-5-5.5-9.4-9.3-13.1-3.8-3.9-8.2-6.9-13.6-9.5-7.6-3.7-8.6-3.9-19-4.2-9.2-.2-12 .1-17 1.9zm129.1 49.5c-.5.4-.9 1.9-.8 3.3s-.5 6.6-1.3 11.6c-.9 4.9-2.7 12.6-4.2 17-1.4 4.4-4.3 11.4-6.3 15.5-2.1 4.1-6 10.6-8.8 14.5-2.7 3.9-7.8 10-11.3 13.6s-9.5 8.9-13.4 11.8c-3.9 2.8-11 7.3-16 9.8s-12.1 5.7-16 7-10.6 3-15 3.8c-4.6.9-13.6 1.5-21 1.5-8.7 0-16-.6-22-1.9-5-1-13.1-3.4-18-5.2-5-1.9-12.8-5.7-17.3-8.4-4.6-2.8-11.5-7.7-15.5-11-3.9-3.3-9.9-9.4-13.4-13.5-3.4-4.1-8.2-10.9-10.7-15-2.4-4.1-5.6-10.4-7.1-14s-3.8-10.6-5.1-15.5c-1.3-5-2.7-12.5-3.1-16.8-.5-5.1-1.2-7.7-2-7.7-.7 0-3.2 3.3-5.5 7.2-2.3 4-5.4 10.9-7 15.3-1.5 4.4-3.2 11.4-3.9 15.5-.6 4.3-.9 11.2-.5 16 .3 4.7 1.5 11.8 2.6 15.7 1.1 4 3.8 10.8 5.9 15 2.1 4.3 5.9 10.5 8.3 13.8 2.5 3.3 7.6 9.1 11.4 12.8s10.7 9.4 15.4 12.6 12.3 7.8 17 10.1 13 5.7 18.5 7.6c5.5 1.8 13.5 4 17.8 4.8 4.2.9 12.3 2.1 18 2.7 5.8.7 16 .9 23.7.6 7.4-.3 18.5-1.6 24.5-2.7 6-1.2 15-3.5 20-5.1s13.5-5.2 19-7.8c5.5-2.7 14-7.8 18.9-11.3 4.9-3.4 12.5-10.2 17-14.9 4.4-4.7 10.2-12.1 12.9-16.5 2.6-4.3 6-11.7 7.7-16.4 1.6-4.7 3.4-12.3 4-17 .7-4.8.9-11.5.5-15.5-.4-3.9-1.8-10.8-3.2-15.5-1.3-4.7-4.2-11.9-6.4-16s-4.7-8.5-5.7-9.8c-.9-1.3-2.1-2-2.6-1.6z" fill="#c18e08"/><path d="M616 343c-11.8 12.8-22.4 23.8-23.5 24.6-1.9 1.3-1.9 1.8-.8 8.1.7 3.8 2.8 10.1 4.8 14 2.1 4.5 5.6 9.4 8.8 12.5 2.9 2.9 8.2 6.9 11.9 8.8l6.8 3.5c4.6-4.6 18.2-19.3 33.3-35.5l27.5-29.5c-4-7.8-7.6-12.5-10.7-15.6-3.9-3.9-8.1-6.9-13.6-9.5-6.5-3.1-9.4-3.9-15.5-4.2l-7.5-.4zm139.8 42.5c-3.5 3.3-5.1 5.7-5.8 8.8-.5 2.3-2 7.4-3.3 11.2-1.3 3.9-4 10.2-6 14-1.9 3.9-5.7 10.2-8.5 14-2.7 3.9-7.8 10-11.3 13.6s-9.5 8.9-13.4 11.8-11.3 7.4-16.5 10c-5.2 2.7-12.5 5.8-16.3 7-3.7 1.1-6.7 2.5-6.6 2.9.1.5-8.5 10.1-18.9 21.3-10.5 11.2-19 20.8-19.1 21.4-.1.7 5.1.8 15.1.3 8.8-.4 20-1.6 26.3-2.8 6-1.2 15-3.5 20-5.2 5-1.6 12.4-4.5 16.5-6.4s10.6-5.5 14.5-7.8a53.56 53.56 0 0 0 12.7-11.2c3.1-3.8 10.4-11.8 16.3-17.9 8.8-9.1 11-12.2 13.5-18 1.6-3.8 3.7-10.1 4.6-14 1.2-4.7 1.7-10.9 1.7-18.5 0-9.4-.5-13.1-2.7-20.2-1.4-4.9-3.7-11-5.1-13.8-1.4-2.7-2.6-5-2.8-5-.1 0-2.3 2.1-5 4.5zM531 434.3l-13 14-3.4 3.8c3.1 6.5 5.6 10.8 7.6 13.9 1.9 3 5.7 8 8.4 11s7.9 8.1 11.5 11.3c3.6 3.1 7 5.7 7.5 5.6.5 0 7.2-6.8 14.8-15l13.7-15.1c.1-.2-3.4-3-7.6-6.3-4.3-3.3-10.5-9-13.8-12.7-3.4-3.7-8-9.8-10.3-13.7s-4.6-7.1-5-7.1c-.5 0-5.1 4.6-10.4 10.3z" fill="#e0c70c"/><path d="M669.6 283.3c-6.6 6.9-11.9 12.9-11.8 13.4.1.4 3.5 2 7.5 3.5 3.9 1.5 10.1 4.6 13.7 6.9s8.7 6.3 11.3 8.8c2.7 2.5 6.5 7 8.5 9.9s4 5.2 4.4 5.2c.5 0 10.1-10 21.5-22.1 11.5-12.2 20.9-22.8 21-23.5.2-1-3.7-2.3-14.5-4.8a966.02 966.02 0 0 0-27.7-6l-17.5-3.1-4.5-.7zm-112.1-4.7c-8.2 1.8-21.7 5.2-30 7.5-8.2 2.2-22.6 6.5-32 9.4l-20.7 7-3.8 1.5 1 82.8c.5-.2 14.9-15.4 32.1-33.8l50.6-54.2c10.6-11.5 19.3-21.5 19.3-22.3s-.3-1.5-.7-1.4c-.4 0-7.5 1.6-15.8 3.5zm245.9 53.8c-1.6 1.8-8.1 8.9-14.6 15.7l-11.7 12.4c6.9 12.4 10.3 19.8 12 24.5s3.7 11.4 4.4 15c.8 3.6 1.8 10.2 2.2 14.8.5 4.5 1.1 8.2 1.3 8.2.3.1 3.1-2.7 6.3-6l5.7-6c0-75.9-.2-82-1.4-82-.8 0-2.7 1.5-4.2 3.4zM483.5 483.1c-10.8 11.8-12 13.4-11.9 16.7 0 2.4 1.3 5.9 3.5 9.7 2 3.4 9.2 11.9 17.1 20l13.7 14 23.1-24.7 5.5-5.8c-4.6-3.3-10.7-9.1-16.5-14.9-7.8-7.8-11.8-12.9-15.5-19.3-2.8-4.9-5.5-8.8-6-8.8s-6.4 5.9-13 13.1zM673 543.2c-7.6 1.6-13.8 2-32 2.1-12.3.1-25.1-.3-28.3-.8l-5.9-1c-31.6 33.7-40.5 44-40.3 44.5.3.6 5.2 4 10.8 7.6 5.6 3.7 16.4 10.4 24 15L615 619l71.1-77.2c0-.5-.8-.7-1.8-.7-1 .1-6 1-11.3 2.1zM563.6 397.3l-5.8 6.2c2.7 5.4 5.5 10.2 8 14 2.5 3.9 7.5 10 11.1 13.6 3.7 3.6 9.6 8.5 13.1 10.8l6.5 4.2c8.2-8.6 10.6-11.4 10.6-11.8 0-.5-2.8-2.6-6.3-4.8-3.4-2.2-8.8-6.4-11.9-9.5-3-3-7.4-8.4-9.7-12s-5-8.9-6-11.7c-.9-2.9-2.2-5.3-2.8-5.3s-3.7 2.8-6.8 6.3z" fill="#f4e52c"/></svg>