<svg xmlns="http://www.w3.org/2000/svg" width="1280" height="1280" xmlns:v="https://vecta.io/nano"><path d="M627.8 273.7l-18.5 1.5c-6.5.5-17.9 1.8-25.3 2.9-7.4 1.2-20 3.4-28 5s-22.4 4.9-32 7.4c-9.6 2.4-24.9 6.6-34 9.4-9.1 2.7-23.9 7.5-33 10.7-9.1 3.1-19.4 7-23 8.7-4.3 2-8.8 5.3-13.2 9.6-4.7 4.7-7.6 8.7-10.2 14.1-2.5 5.1-3.9 10-4.6 15.5-.8 5.4-1 43.2-.8 115l.4 107c3.4 12.4 6 19.4 8 23.5s6.2 11.3 9.4 16c3.3 4.7 9.9 13 14.8 18.5s14 14.5 20.2 20 15.1 13.1 19.9 16.9c4.7 3.8 8.7 7.2 8.8 7.5.2.3-6.1 9.6-13.9 20.6l-32.1 45-36.1 49-30.1 39.5c-6.7 8.5-13.4 17.3-14.8 19.5s-3.3 6-4.2 8.5-2 7.4-2.6 11c-.7 4.5-.7 8.6.1 13.5.6 4 2.6 10.3 4.6 14.5 3 6.3 5.3 9.3 15.2 19 6.4 6.4 16.7 15.5 22.7 20.4 6.1 4.8 16.9 12.7 24 17.5 7.2 4.8 17.7 11.4 23.5 14.6s15.5 8.1 21.5 10.8c6.1 2.7 16.9 6.9 24 9.3 7.2 2.4 18.4 5.5 25 6.9 6.6 1.3 16.5 2.8 22 3.4 5.9.5 12.6.5 16.3 0 3.4-.5 8.6-1.8 11.5-3 2.8-1.2 7-3.3 9.2-4.9 2.2-1.5 6.4-5.4 9.4-8.6 4-4.4 7.2-9.7 12.9-21.4l19.1-41 18.7-41.3c3.8-8.6 7.2-15.7 7.7-15.7.4 0 .7.5.7 1s4.7 11.5 10.4 24.3l21.1 46.2 16 33.5c3.2 6.1 7.3 12.5 9.9 15.3 2.6 2.6 7 6.2 9.9 8.1 2.8 1.9 8.1 4.5 11.7 5.7 4.9 1.6 8.8 2.1 16 2.1 5.2 0 14-.8 19.5-1.7s14.3-2.7 19.5-4 14.7-4.2 21-6.4c6.3-2.3 18-7.3 26-11.2s19.5-10.1 25.5-13.7c6.1-3.7 16.2-10.4 22.5-15.1 6.3-4.6 15.3-11.5 20-15.4s13-11.6 18.5-17.2c5.5-5.5 11.2-12.2 12.7-15 1.5-2.7 3.4-7.7 4.2-11 .9-3.3 1.6-9.4 1.6-13.5s-.7-10-1.6-13-2.5-7.3-3.6-9.5c-1.2-2.2-8.9-12.8-17.3-23.5s-24.4-31.9-35.7-47l-42.9-59-28-39.3c-3.4-4.9-5-8-4.4-8.6.6-.5 5.7-4.6 11.5-9.2s16.9-14.7 24.8-22.4 17.2-17.5 20.5-21.8c3.4-4.3 8.2-11 10.6-15s5.6-10.1 7.1-13.7 3.4-9.8 4.4-13.8c1.4-6.4 1.6-18.7 1.6-118l-1.6-116.7c-.8-3.3-2.7-8.2-4.2-11-1.5-2.7-5.4-7.7-8.7-11.1-3.5-3.5-8.5-7.4-12-9.2-3.3-1.6-13-5.5-21.5-8.5s-23.1-7.8-32.5-10.7c-9.3-2.8-25.5-7.4-36-10-10.4-2.7-25.5-6.2-33.5-7.9-8-1.6-20.6-3.9-28-5s-18.4-2.4-24.5-3c-6-.6-16.8-1.2-24-1.4-7.1-.2-16-.2-19.7 0z" fill="#fbfbfb"/><path d="M618 279c-3 .5-12 1.6-20 2.5s-22.8 3.2-33 5.1-28 5.9-39.5 8.9c-11.5 2.9-28.6 7.6-38 10.5-9.4 2.8-24 7.7-32.5 10.7s-17.5 6.5-20 7.8-6.5 4.1-9 6.2c-2.5 2.2-6.1 6.4-8 9.4s-4.2 8-5.2 11.2c-1.7 5.3-1.8 13.1-1.8 117 0 106.2.1 111.5 1.9 118.7 1 4.1 3.1 10.2 4.6 13.5 1.4 3.3 5.5 10.3 9 15.5s10.1 13.6 14.7 18.7c4.6 5 12.6 13.1 17.8 17.9s15.1 13.2 22 18.7l12.8 10.3c.1.2-7.3 11.1-16.5 24.1L445.1 751 411 797.5 378.5 840c-7.6 9.6-15 20.2-16.6 23.5s-3.4 9.1-4.1 13c-1.1 6.4-1 7.8 1 15.5 1.3 4.7 3.7 10.9 5.5 13.9 1.8 2.9 7.9 9.8 13.7 15.4 5.8 5.5 15.2 13.8 21 18.4 5.8 4.7 17.3 13 25.5 18.5 8.9 5.9 22.3 13.6 33 18.8 9.9 4.9 22.7 10.5 28.5 12.5s15 4.7 20.5 6.1 14.5 3.3 20 4.2 13.4 1.6 17.5 1.6 9.5-.6 12-1.3 7.1-2.7 10.4-4.4c3.2-1.8 8.2-5.7 11-8.7 4-4.4 7.2-9.9 15.2-26.5 5.6-11.5 15.6-32.9 22.2-47.5l18.3-41.3c3.5-8.1 6.6-14.7 6.9-14.7s3.6 7.3 7.4 16.3L665 913l21.1 45.5c8.8 18.6 11.3 22.9 16 28 3.2 3.4 8.2 7.4 11.5 9.1 3.2 1.8 8.6 4 11.9 4.9 4.1 1.1 8.1 1.5 12.5 1.2 3.6-.2 12.1-1.5 19-2.7s17.9-3.8 24.5-5.7 17-5.5 23-7.9c6-2.5 15.7-7 21.5-9.9 5.8-3 15.5-8.5 21.5-12.2 6-3.8 16.3-10.8 22.8-15.6 6.4-4.8 17-13.4 23.5-19 6.4-5.7 13.7-12.6 16.1-15.3s5.8-7.8 7.5-11.4c1.8-3.6 3.8-9.9 4.6-14 1.2-6.7 1.2-8.2-.4-14-.9-3.6-2.8-8.8-4.1-11.5-1.4-2.8-8.2-12.2-15.1-21l-31.3-41-33.2-45-32.9-46-18.7-27c-.2-.5 5.6-5.7 12.9-11.5s19-16.1 26.1-23c7.2-6.9 15.5-15.6 18.7-19.5 3.1-3.9 7.5-9.7 9.7-13s5.4-8.7 7.1-12c1.6-3.3 4-9.4 5.3-13.5l2.4-7.5v-229c-5.2-10.9-8.3-16-10.3-18.4-2-2.5-6.2-6.1-9.2-8-2.9-2-11.9-6-20-8.9-8-2.9-23.3-8-34-11.3s-27.1-8-36.5-10.4c-9.4-2.5-22.3-5.6-28.8-7-6.4-1.4-18.6-3.6-26.9-5-8.4-1.4-21.4-3.2-28.8-4.1s-21.8-1.8-32-1.9c-10.2-.2-21 .1-24 .5z"/><path d="M410.5 468l.2 54.5V413c-.1-30-.2-5.2-.2 55zm459-1l.2 53V413.5c-.1-29.1-.2-5.1-.2 53.5zM829 644.8l-8.5 8.7 17.5-17.3c0-.1-.1-.2-.3-.2-.1 0-4.1 3.9-8.7 8.7zm-282 66.5l-38.4 54.3-48.1 66-30.3 40.2-7.2 9.3c6.6 5.8 12.3 10.5 17 14.1 4.7 3.7 13.9 10.2 20.5 14.5 6.6 4.4 17.2 10.4 23.5 13.5 6.3 3.2 15.8 7.3 21 9.2s14.1 4.6 19.7 5.9c6.8 1.5 10.5 2 11.1 1.3.5-.5 5.3-10.5 10.7-22l22-48.5 20.3-47 14.2-35.5c3.4-8.8 8.8-23.9 12-33.5s6.1-19.1 6.4-21l.6-3.5-44.9-26.7c-8.6-5.4-15.9-9.8-16.2-9.8s-6.6 8.7-13.9 19.2zm155.5-9.5c-8.3 5.3-21.5 13.4-29.5 18l-15.2 9.2c-.4.3 2.8 11.2 7.1 24.1 4.4 12.9 11.7 33.2 16.4 45 4.6 11.8 13.2 32.5 19 46l21 47.5 16.6 35.7c4.4 9.2 6.6 12.8 7.8 12.8 1 0 6.5-1.2 12.3-2.6 5.8-1.5 14.3-4.1 19-5.9s13.2-5.6 19-8.5 14.5-7.8 19.5-10.9c5-3 14.2-9.4 20.5-14.2s13.6-10.5 16.3-12.8l4.7-4.1-36.7-48-36.7-50-40.9-57.7c-12.8-18.3-23.7-33.2-24.2-33.2-.5.1-7.7 4.4-16 9.6z" fill="#fff"/><path d="M618 339.7l-16 1.9c-6.9.9-20.1 3.1-29.5 4.9-9.4 1.9-24.9 5.4-34.5 7.9-9.6 2.4-24 6.5-32 9-8 2.4-19 6-24.5 7.9l-10 3.4v199.9c5.4 9.1 12.2 17.1 18.5 23.7s15.8 15.6 21 19.9c5.2 4.4 16.3 13.1 24.5 19.3 8.3 6.2 23.8 17.1 34.5 24.2 10.7 7.2 27.4 17.7 37 23.5s21 12.4 25.3 14.6l7.7 4.2c8.9-4.9 20-11.5 30.5-17.8s28.7-17.9 40.5-25.7 28.3-19.3 36.5-25.5c8.3-6.2 19-14.8 24-19 5-4.3 13.1-12 18.1-17.1 5-5.2 11-12.3 13.3-15.9s4.6-8.1 5.2-10c.6-2.2.9-38.3.7-101l-.3-97.4-54.5-16.9c-9.1-2.5-23.5-6.2-32-8.1s-22.5-4.7-31-6c-8.5-1.4-20.2-3-26-3.6-5.8-.5-17.9-.9-27-.8-9.1 0-18.1.3-20 .5z" fill="#e8ca1d"/><path d="M621 369.1c-4.1 1.1-11 3.9-15.4 6.2-4.3 2.3-11 7.1-14.9 10.7-3.8 3.6-8.9 9.4-11.2 13-2.4 3.6-5.4 9.2-6.8 12.5-1.3 3.3-3.1 8.5-3.8 11.5-.8 3-1.4 10.4-1.4 16.5.1 7.2.7 13.3 1.8 17.5.9 3.6 3.5 10.1 5.7 14.5 2.1 4.4 6.1 10.7 8.8 14 2.6 3.3 7.7 8.2 11.3 10.9 3.5 2.7 10 6.6 14.4 8.7 4.5 2.1 11.7 4.6 16.5 5.5 6.1 1.2 11.2 1.5 18 1.1 5.4-.3 12.5-1.5 16.5-2.7 3.9-1.2 9.9-3.7 13.5-5.6 3.6-1.8 8.8-5.3 11.6-7.6 2.8-2.4 7.4-7 10.2-10.3 2.9-3.3 7-9.6 9.1-14 2.2-4.4 4.7-11.1 5.7-15 1.1-4.5 1.7-10.8 1.7-17.5 0-7.8-.6-12.6-2.2-18.5-1.2-4.4-3.8-10.9-5.6-14.5-1.9-3.6-5.6-9.2-8.2-12.5-2.7-3.2-7.5-8.1-10.8-10.8-3.3-2.6-9.6-6.6-14-8.7s-10.9-4.5-14.5-5.4c-4-1-10.7-1.6-17.5-1.5-7.7 0-13.3.6-18.5 2zm-88.1 31.6c-3.5 2.6-10.2 8.6-14.9 13.3s-10.8 11.9-13.7 16c-2.8 4.1-7.2 11.8-9.7 17s-5.8 14-7.3 19.5c-2.3 8.8-2.6 11.9-2.6 25.5 0 13.4.3 16.8 2.5 25 1.4 5.2 4.3 13.3 6.5 18 2.1 4.7 6.3 12.1 9.3 16.5s9.3 12 14.1 17 12.2 11.6 16.5 14.8c4.4 3.2 12 8.2 16.9 11 5 2.9 14 7.2 20 9.6 6.1 2.4 16.2 5.7 22.5 7.3s16.6 3.5 22.7 4.3c6.2.8 17.2 1.5 24.3 1.5s18.1-.7 24.2-1.5c6.2-.8 15.8-2.6 21.3-3.9 5.5-1.4 13.8-3.9 18.5-5.6s12.1-4.9 16.5-7 12.7-6.9 18.5-10.8c5.8-3.8 14.5-10.7 19.4-15.3s11.7-12.2 15.2-16.9 8.4-12.5 10.8-17.5c2.5-5 5.6-13 7.1-18 1.4-5 3.1-13.3 3.7-18.5.8-7 .8-12.2 0-19.5-.7-5.5-1.8-12.6-2.7-15.8-.8-3.1-2.8-9.2-4.5-13.5-1.6-4.2-4.8-10.9-7.1-14.7-2.3-3.9-6.3-9.7-8.8-13s-7.7-9.1-11.6-12.9-9.9-9.1-13.5-11.8c-5.7-4.3-7.1-4.9-11.3-4.8-3.9 0-5.4.5-7.7 2.7-1.5 1.6-3.1 4.1-3.5 5.8q-.8 3 1.6 12.5c2 7.9 2.4 11.9 2.3 23.5-.1 12.2-.5 15.2-2.8 23-1.5 4.9-4.6 12.6-6.9 17s-6.7 11.1-9.8 15c-3.1 3.8-8.1 9-11 11.5-3 2.5-8.8 6.5-12.9 9s-12 6.1-17.5 8c-9.9 3.4-10.1 3.5-27.5 3.4-16.4 0-18-.1-26-2.8-4.7-1.5-11.9-4.6-16-6.8s-10.4-6.3-14-9.2-8.6-7.7-11.1-10.7c-2.6-3-6.5-8.3-8.8-11.9s-5.5-9.9-7.1-14c-1.5-4.1-3.6-11.3-4.6-16-1.3-6.5-1.5-11.4-1.1-20.5.3-7.6 1.3-14.9 2.7-20 1.8-6.6 2-8.7 1.1-11.8-.7-2.2-2.3-4.5-4.1-5.7-1.9-1.2-4.7-2-7.4-2-3.6 0-5.4.8-10.7 4.7z"/><path d="M627.5 392.2c-2.2.5-7.1 2.6-10.9 4.6-4.2 2.3-9 5.9-12.3 9.5-2.9 3.1-6.6 8.5-8.3 12-1.6 3.4-3.5 9.6-4.1 13.7-.9 5.7-1 9.1-.1 14.5.7 3.9 2.7 10.2 4.7 14.3 2.2 4.6 5.5 9.2 9.3 13 3.4 3.4 8.3 7 12.2 8.9 3.6 1.7 9.4 3.7 13 4.4s9.4.9 13 .6 9-1.5 12-2.6 8.4-3.9 12-6.3c4-2.7 8-6.5 10.8-10.3 2.4-3.3 5.2-8.5 6.4-11.5 1.1-3 2.4-8.3 2.9-11.7.6-4 .5-8.7-.1-13-.6-3.8-2.6-9.9-4.4-13.8-1.9-3.9-5.1-9-7.2-11.4-2.2-2.5-6.6-6.2-9.9-8.3-3.3-2.2-8.9-4.8-12.5-5.9-4.4-1.3-9.1-1.9-14.5-1.8-4.4 0-9.8.5-12 1.1zm-107.2 57.6c-2.2 3.7-4.9 9-6.1 11.7-1.1 2.8-2.8 7.9-3.8 11.5-1.3 4.6-1.8 10.2-1.8 19 0 9.9.4 14.1 2.2 20.3 1.2 4.2 4 11.2 6.1 15.5 2.1 4.2 6 10.5 8.5 14 2.5 3.4 7.1 8.7 10.1 11.7s9 8.1 13.3 11.3c4.2 3.1 12.2 8 17.7 10.9 5.5 2.8 13.8 6.4 18.5 8.1 4.7 1.6 12.5 3.9 17.5 5 5 1.2 13.7 2.6 19.5 3.3 6.2.7 16.2.9 24.5.6 7.7-.3 17.8-1.3 22.5-2.1s12.5-2.7 17.5-4.1 13.5-4.6 19-7.1c5.5-2.4 13.8-6.8 18.4-9.7 4.5-2.8 12.4-9.1 17.5-13.8 5-4.7 11.4-11.9 14.2-16s6.3-9.6 7.7-12.4c1.3-2.7 3.4-7.9 4.5-11.5s2.5-10.3 3.2-15c.8-6.1.9-10.9.1-17-.5-4.7-2.1-12.1-3.5-16.5s-4.7-11.7-7.3-16.3c-2.7-4.5-5.3-8.2-5.8-8.2s-1.7 5.3-2.7 11.8c-.9 6.4-2.9 15.5-4.6 20.2-1.6 4.7-4.5 11.6-6.5 15.5-1.9 3.9-5.9 10.4-8.8 14.5s-8.5 10.6-12.4 14.5c-3.8 3.9-9.9 9.1-13.5 11.6-3.6 2.6-9.4 6.2-13 8-3.6 1.9-8.3 4.2-10.5 5.1s-6.2 2.3-9 3.2c-2.7.8-7.2 2-10 2.6-2.7.6-9.3 1.5-14.5 2-5.4.4-13.8.4-19.5-.2-5.5-.5-13.6-1.8-18-2.9-4.4-1.2-11.8-3.7-16.5-5.8-4.7-2-12.5-6.3-17.5-9.6-5-3.2-12.8-9.8-17.5-14.5s-11.1-12.3-14.2-17-6.9-11.2-8.4-14.5c-1.4-3.3-3.7-9.1-5.1-13-1.3-3.9-3-10.8-3.8-15.5-.9-4.7-1.5-10.2-1.5-12.2 0-2.5-.5-3.8-1.3-3.8-.7 0-3.1 3-5.4 6.8z" fill="#c18e08"/><path d="M627.5 392.2c-2.2.5-7.1 2.6-10.9 4.6-4.2 2.3-9 5.9-12.3 9.5-2.9 3.1-6.6 8.5-8.2 12-1.6 3.4-3.4 8.9-4 12.2s-1.1 7.8-1 10c0 2.2.3 4.8.7 5.9.6 1.5 4.5-2.2 21.6-20.5l27-28.6 6-6.3c-11.6.2-16.7.6-18.9 1.2zm-107.2 57.6c-2.2 3.7-4.9 9-6.1 11.7-1.1 2.8-2.8 7.9-3.8 11.5-1.3 4.6-1.8 10.2-1.8 19 0 9.9.4 14.1 2.2 20.3 1.2 4.2 3.1 9.5 4.2 11.7s2.3 4 2.7 4c.5-.1 4.4-4 8.8-8.8l12.8-13.7 4.7-5c-7-13.9-10.2-21.6-11.7-26-1.4-4.4-3.2-11.4-3.9-15.5s-1.3-9.4-1.4-11.7q0-4.3-1.3-4.3c-.7 0-3.1 3-5.4 6.8zm232.3 0c-.4 3.7-1.4 10.1-2.2 14.2s-1.3 7.6-1.2 7.7c.2.1 3.6-3 7.5-7l7.3-7.2c-6.6-11.3-9-14.5-9.6-14.5-.7 0-1.4 2.8-1.8 6.8zM674 547.1c-1.4.6-5.4 1.7-9 2.5-3.6.9-10.8 1.9-16 2.4-5.3.4-13.9.4-19.5-.2-5.5-.5-13.3-1.8-17.3-2.8l-7.2-2-29.3 32.7c.1.5 3 1.9 6.5 3.2s11.3 3.6 17.3 5.1 16 3.3 22 4 12.1 1 13.5.8c1.8-.2 8.7-6.9 23.8-23l21.2-23.3c0-.3-.8-.5-1.8-.4-.9 0-2.8.5-4.2 1z" fill="#e0c70c"/><path d="M618.9 339.8c-1.6.4-13.6 12.5-32.5 32.8l-29.9 32.1c-3.9 16-5 24.2-5.3 31.3-.3 8.5 0 13.7 1.3 20 .9 4.7 3 11.9 4.6 16 1.5 4.1 3.4 8.3 4.1 9.3 1.2 1.7 1.8 1.3 7-4.5l5.6-6.3c-3.5-10.1-5.1-16.4-5.8-20.5-.7-4.2-1-10.8-.7-15 .3-4.1 1.2-10.2 2.1-13.5.8-3.3 2.5-8.3 3.7-11 1.2-2.8 4.1-7.9 6.4-11.5s7.4-9.4 11.2-13c4.5-4.2 10.2-8.2 15.9-11.1 5.3-2.8 12.1-5.3 16.9-6.4 6.2-1.4 10.7-1.7 20-1.3 7.9.4 13.9 1.2 17.5 2.4l5.4 1.9c19.1-20.5 24.6-26.8 24.6-27.3 0-.4-5.5-1.5-12.2-2.6-8.3-1.2-19.6-1.9-34.8-2.1-12.4-.2-23.7-.1-25.1.3zm148 31.9L751 388.3l-8.5 8.9c5.4 4.1 9.6 7.7 13 10.6 3.3 3 8.6 8.4 11.8 12 3.2 3.7 7.7 9.5 10 13 2.3 3.4 4.4 6.3 4.7 6.3s6.5-6.3 13.8-14.1l13.2-14-.5-36.3-33.1-10.7c-.7 0-4.5 3.5-8.5 7.7zm-288.9.7l-6.5 2.3c-.4 9.5-.2 12.3.2 12.3.5.1 3.8-3.3 7.5-7.5 3.8-4.1 6.8-8 6.8-8.5 0-.6-.3-1-.8-.9-.4 0-3.6 1.1-7.2 2.3zm240.3 51l-6 6.4c0 15.8-.7 22.4-1.7 26.7-1 3.9-3.5 10.6-5.7 15-2.1 4.4-6.2 10.7-9.1 14-2.8 3.3-7.4 7.9-10.2 10.3-2.8 2.3-8 5.8-11.6 7.6-3.6 1.9-9.9 4.4-14 5.7-4.1 1.2-11.4 2.5-16.1 2.8l-8.5.6c-10 10.5-12.5 13.9-12.1 14.3.5.4 8.4.7 17.5.7 16.4-.1 16.9-.1 26.7-3.5 5.5-1.9 13.4-5.5 17.5-8s9.9-6.5 12.9-9c2.9-2.5 7.9-7.6 11-11.5s7.5-10.6 9.8-15 5.3-12.1 6.8-17c1.9-6.5 2.8-12.1 3.1-20.5.4-7.4.1-14-.8-18.4-.7-3.8-1.8-7.1-2.4-7.3s-3.8 2.5-7.1 6.1zm-241.7 66.8l-5.6 6.3 1 78c.5 1.4 1.3 2.5 1.7 2.5.5.1 6.6-6.2 13.8-13.9l13-14c-8.2-16.9-11.6-25.9-13.1-31.6-1.7-6.6-2.7-14-3.1-21.8-.3-6.4-.9-11.7-1.3-11.7-.5 0-3.4 2.8-6.4 6.2zM788 541.3l-28.1 30.2c-5.3 5.5-32 34.1-59.4 63.5l-56.4 60.3c-5.1 5.3-6.3 7.1-5.4 8s2.5.4 7-2.2l24.8-14.9c10.5-6.3 27.3-17 37.5-23.6 10.2-6.7 24.6-16.6 32-22l23-17.5c5.2-4.2 14.6-12.6 20.8-18.6 6.3-6 13.5-13.7 16-17 2.4-3.3 5.5-8.3 6.8-11 2.3-4.8 2.4-5.8 2.4-30.3 0-19.5-.3-25.2-1.3-25.1-.6 0-9.5 9.1-19.7 20.2zm-247 72.3l-14.8 16.3c-.1.3 5.3 4.7 12 9.7q2.9 2.1 5.8 4.2 3 2.1 5.9 4.2 2.9 2.1 5.9 4.2 2.9 2.1 5.9 4.1L573 664l41.2-44.6c1-1.3 1.6-2.7 1.4-3.1-.2-.5-2.8-1.1-5.7-1.5-3-.4-10.8-2.1-17.4-3.8s-17-5.1-23-7.6l-12.5-5c-1-.3-6.7 5.1-16 15.2z" fill="#f4e52c"/></svg>