<svg xmlns="http://www.w3.org/2000/svg" viewBox="0 0 100 100"><path d="M99.145 47.774L69.147 14.442a3.336 3.336 0 00-2.48-1.107H46.668a3.344 3.344 0 00-3.046 1.974 3.337 3.337 0 00.566 3.586L72.18 50 44.188 81.098a3.328 3.328 0 00-.566 3.587 3.34 3.34 0 003.046 1.98h20c.946 0 1.839-.407 2.479-1.1l29.998-33.332a3.336 3.336 0 000-4.46z"/><path d="M55.814 47.774L25.816 14.442a3.336 3.336 0 00-2.48-1.107H3.337A3.344 3.344 0 00.291 15.31a3.337 3.337 0 00.566 3.586L28.85 50 .857 81.098a3.328 3.328 0 00-.566 3.587 3.34 3.34 0 003.046 1.98h20c.946 0 1.839-.407 2.479-1.1l29.998-33.332a3.336 3.336 0 000-4.46z"/></svg>