<svg xmlns="http://www.w3.org/2000/svg" viewBox="0 0 576 512"><!--! Font Awesome Free 6.2.1 by @fontawesome - https://fontawesome.com License - https://fontawesome.com/license/free (Icons: CC BY 4.0, Fonts: SIL OFL 1.1, Code: MIT License) Copyright 2022 Fonticons, Inc.--><path d="M301 35c12 5 19 16 19 29v384a32 32 0 0 1-53 24L132 352H64c-35 0-64-29-64-64v-64c0-35 29-64 64-64h68L267 40c9-8 23-10 34-5zm124 132 55 55 55-55c9-9 25-9 34 0s9 25 0 34l-55 55 55 55c9 9 9 24 0 34s-25 9-34 0l-55-55-55 55c-9 9-25 9-34 0s-9-25 0-34l55-55-55-55c-9-10-9-25 0-34s25-9 34 0z"/></svg>