<svg xmlns="http://www.w3.org/2000/svg" viewBox="0 0 640 512">
<!--! Font Awesome Free 6.2.1 by @fontawesome - https://fontawesome.com License - https://fontawesome.com/license/free (Icons: CC BY 4.0, Fonts: SIL OFL 1.1, Code: MIT License) Copyright 2022 Fonticons, Inc.-->
  <path d="M534 33a287 287 0 0 1 0 447 24 24 0 1 1-31-38 239 239 0 0 0 0-372c-10-9-11-24-3-34s23-12 34-4zm-61 74a192 192 0 0 1 0 298 24 24 0 1 1-30-37 143 143 0 0 0 0-224c-10-8-12-23-4-34s24-11 34-3zm-60 75a96 96 0 0 1 0 149 24 24 0 1 1-31-38 48 48 0 0 0 0-74c-10-9-11-24-3-34s23-12 34-4zM301 35c12 5 19 16 19 29v384a32 32 0 0 1-53 24L132 352H64c-35 0-64-29-64-64v-64c0-35 29-64 64-64h68L267 40c9-8 23-10 34-5z"/>
</svg>
