<svg xmlns="http://www.w3.org/2000/svg" viewBox="0 0 98.29 98.29"><path fill="#3962ad" d="M95.466 49.144c0 25.583-20.74 46.322-46.322 46.322-25.583 0-46.323-20.74-46.323-46.322 0-25.583 20.74-46.323 46.323-46.323 25.583 0 46.322 20.74 46.322 46.323"/><path fill="#a4eaff" d="M95.466 51.965H2.82v-5.642h92.645v5.642"/><path fill="#0ff" d="M66.13 49.144c0 9.38-7.606 16.986-16.986 16.986-9.381 0-16.986-7.605-16.986-16.986s7.605-16.986 16.986-16.986c9.38 0 16.985 7.605 16.985 16.986"/><path fill="#a4eaff" d="M71.139 49.145c0 12.145-9.887 21.994-22.079 21.994-12.193 0-22.079-9.847-22.079-21.994s9.886-21.994 22.08-21.994c12.191 0 22.077 9.847 22.077 21.994"/><path fill="#a4eaff" d="m46.461 95.481-.444-92.644 5.642-.027.444 92.643-5.642.027"/><path fill="#fff" d="M56.364 49.144a7.22 7.22 0 1 1-14.441 0 7.22 7.22 0 0 1 14.441 0"/><path fill="#3962ad" d="M49.144 44.744a4.404 4.404 0 0 0-4.4 4.4c0 2.425 1.973 4.4 4.4 4.4a4.404 4.404 0 0 0 4.399-4.4c0-2.426-1.974-4.4-4.4-4.4zm0 14.442c-5.538 0-10.043-4.505-10.043-10.042 0-5.538 4.505-10.043 10.043-10.043 5.537 0 10.042 4.505 10.042 10.043 0 5.537-4.505 10.042-10.042 10.042"/><path d="M49.144 5.643c-23.987 0-43.501 19.514-43.501 43.5 0 23.987 19.514 43.501 43.5 43.501 23.987 0 43.501-19.514 43.501-43.5 0-23.987-19.514-43.501-43.5-43.501zm0 92.644C22.046 98.287 0 76.242 0 49.144S22.046 0 49.144 0s49.143 22.046 49.143 49.144-22.045 49.143-49.143 49.143"/><ellipse cx="49.144" cy="49.144" fill="none" stroke="#a4eaff" stroke-linecap="round" stroke-linejoin="round" stroke-width="2.43" rx="32.012" ry="29.476"/><ellipse cx="49.144" cy="49.144" fill="none" stroke="#a4eaff" stroke-linecap="round" stroke-linejoin="round" stroke-width="3.366" rx="42.747" ry="42.339"/><g stroke="#000" stroke-linecap="round" stroke-linejoin="round" stroke-width="1.5"><path fill="#d8bf27" d="M37.48179798 37.55174828 10.33400813 10.40395843s-2.17628623 3.60144085-.95534892 9.6330943c16.18804727 12.00256909 28.10313877 17.51469555 28.10313877 17.51469555z"/><path fill="#fff360" d="M37.48179727 37.55174757 10.33400813 10.40395843s3.6014405-2.17628658 9.6330943-.95534892c12.0025698 16.18804798 17.51469484 28.10313806 17.51469484 28.10313806zm23.08757248 23.08757476L87.7171596 87.78711218s2.17628623-3.60144085.95534892-9.6330943C72.48446125 66.1514488 60.56936975 60.63932234 60.56936975 60.63932234z"/><path fill="#d8bf27" d="M60.56937046 60.63932304 87.7171596 87.78711218s-3.6014405 2.17628658-9.6330943.95534892C66.0814955 72.55441312 60.56937047 60.63932304 60.56937047 60.63932304zm-22.96815638-.11941695L10.45342422 87.66769594s3.60144086 2.17628623 9.6330943.95534892C32.08908762 72.4349976 37.60121408 60.5199061 37.60121408 60.5199061z"/><path fill="#fff360" d="M37.60121337 60.5199068 10.45342422 87.66769594s-2.17628658-3.6014405-.95534892-9.6330943C25.68612328 66.03203185 37.60121337 60.5199068 37.60121337 60.5199068zM60.688788 37.43232967l27.14778985-27.14778985s-3.60144085-2.17628623-9.6330943-.95534892C66.20091447 25.51723817 60.688788 37.43232967 60.688788 37.43232967z"/><path fill="#d8bf27" d="m60.6887887 37.43232897 27.14778915-27.14778915s2.17628658 3.6014405.95534892 9.6330943C72.6038788 31.92020392 60.68878871 37.43232897 60.68878871 37.43232897z"/></g><circle cx="49.145" cy="49.145" r="15.555" fill="none" stroke="#000" stroke-linecap="round" stroke-linejoin="round" stroke-width="3.99"/></svg>