<svg xmlns="http://www.w3.org/2000/svg" viewBox="0 0 98.29 98.29"><path fill="#73bbe3" d="M95.466 49.144c0 25.583-20.74 46.322-46.322 46.322-25.583 0-46.323-20.74-46.323-46.322 0-25.583 20.74-46.323 46.323-46.323 25.583 0 46.322 20.74 46.322 46.323"/><path fill="#73bbe3" d="M2.821 49.144c0-25.583 20.74-46.323 46.323-46.323 25.583 0 46.322 20.74 46.322 46.323"/><path fill="#045ca4" stroke="#201e1d" stroke-linejoin="round" stroke-width=".794" d="M8.0340207 70.266687C23.339345 81.809698 28.361297 72.450711 35.441339 68.060996c6.161402-3.820146 21.277275-3.896127 27.407319 0 8.242206 5.238573 14.45866 11.715235 27.407318 2.205691-15.935321 35.394513-65.915078 35.577133-82.2219553 0z"/><path fill="#fff" d="M43.61191842 5.28663789C31.5616595 5.2080596 11.2725302 15.94471432 11.80372377 23.86790359c1.21071008 1.92403596 2.78341857 9.64696928 5.61530849 9.62912267 2.83189019-.01785985 5.71192416-12.86614873 9.74746517-12.11585775 4.03554947.75029205 4.0472179 9.4212571 8.15217205 8.01677486 4.10494092-1.4044796 7.0648092-16.76371067 13.82225708-16.72603275 6.7574479-.03767792 9.72506866 15.32155314 13.83000958 16.72603275 4.10494886 1.40448225 4.11713853-7.26648281 8.152688-8.01677486 4.0355389-.75029098 6.91557498 12.0979979 9.74746358 12.11585775 2.83189125.01785984 4.40408405-7.70508671 5.6147936-9.62912267.5312576-7.92318927-19.75741924-18.65984399-31.80768082-18.5812657-1.02120735.00665973-1.98344811.0906727-2.86863225.2609728h-1.05836112c1.73720453 2.93725665-.93717612 3.62402797-1.61286561 3.6298479-.67568685-.00582098-3.3371502-.69259125-1.59994303-3.6298479h-1.05836112c-.88518678-.1703001-1.8469063-.2543136-2.86811895-.2609728z"/><path fill="#201e1d" d="M49.144 5.643c-23.987 0-43.501 19.514-43.501 43.5 0 23.987 19.514 43.501 43.5 43.501 23.987 0 43.501-19.514 43.501-43.5 0-23.987-19.514-43.501-43.5-43.501zm0 92.644C22.046 98.287 0 76.242 0 49.144S22.046 0 49.144 0s49.143 22.046 49.143 49.144-22.045 49.143-49.143 49.143"/><path fill="#201e1d" d="M95.466 51.965H2.82v-5.642h92.645v5.642"/><path fill="#fff" d="M66.13 49.144c0 9.38-7.606 16.986-16.986 16.986-9.381 0-16.986-7.605-16.986-16.986s7.605-16.986 16.986-16.986c9.38 0 16.985 7.605 16.985 16.986"/><path fill="#201e1d" d="M49.144 34.98c-7.81 0-14.165 6.353-14.165 14.164 0 7.81 6.354 14.164 14.165 14.164 7.81 0 14.164-6.354 14.164-14.164S56.954 34.98 49.144 34.98zm0 33.97c-10.922 0-19.808-8.885-19.808-19.806 0-10.922 8.886-19.808 19.808-19.808 10.921 0 19.807 8.886 19.807 19.808S60.065 68.95 49.144 68.95"/><path fill="#fff" d="M56.364 49.144a7.22 7.22 0 1 1-14.441 0 7.22 7.22 0 0 1 14.441 0"/><path fill="#201e1d" d="M49.144 44.744a4.404 4.404 0 0 0-4.4 4.4c0 2.425 1.973 4.4 4.4 4.4a4.404 4.404 0 0 0 4.399-4.4c0-2.426-1.974-4.4-4.4-4.4zm0 14.442c-5.538 0-10.043-4.505-10.043-10.042 0-5.538 4.505-10.043 10.043-10.043 5.537 0 10.042 4.505 10.042 10.043 0 5.537-4.505 10.042-10.042 10.042"/></svg>