<svg xmlns="http://www.w3.org/2000/svg" viewBox="0 0 98.29 98.29"><path fill="#4f4b47" d="M95.466 49.144c0 25.583-20.74 46.322-46.322 46.322-25.583 0-46.322-20.74-46.322-46.322C2.822 23.56 23.56 2.82 49.144 2.82c25.583 0 46.322 20.74 46.322 46.323"/><path fill="#4f4b47" d="M2.822 49.144C2.822 23.56 23.56 2.82 49.144 2.82c25.583 0 46.322 20.74 46.322 46.323"/><path fill="#30a241" stroke="#201e1d" stroke-width="3.18" d="M67.976 92.508c-8.092 3.213-31.613 1.76-40.064-3.535 3.969-4.507 10.972-7.722 19.296-8.301 10.087-.703 19.466 2.647 24.42 8.135M67.975 5.782c-8.091-3.213-31.612-1.76-40.063 3.535 3.969 4.507 10.972 7.722 19.296 8.301 10.087.703 19.466-2.647 24.42-8.135M92.508 31.01c3.213 8.092 1.76 31.613-3.535 40.064-4.507-3.969-7.722-10.972-8.301-19.296-.703-10.087 2.647-19.466 8.135-24.42M5.782 31.011c-3.213 8.091-1.76 31.612 3.535 40.063 4.507-3.969 7.722-10.972 8.301-19.296.703-10.087-2.647-19.466-8.135-24.42"/><path fill="#f9af17" d="M50.672 2.849c.132.004.263.009.395.015l-.395-.015m1.73.088c.062.005.126.007.188.012-.062-.005-.126-.007-.188-.012M36.158 4.669c.038-.01.074-.022.112-.033-.038.01-.074.022-.112.033m.709-.2c.126-.034.251-.069.377-.102-.126.033-.251.068-.377.102m.938-.247c.151-.038.303-.075.456-.111l-.456.11M59.11 3.9l.05.01-.05-.01m-3.327-.603l.144.02-.144-.02m-6.636-.476h-.003.003m4.989.269l.232.026-.232-.026"/><path fill="#644a3a" d="M39.652 3.796l.463-.093c-.154.031-.309.061-.463.093m-3.382.84c.198-.058.398-.112.597-.167-.199.055-.399.11-.597.167m-.112.033c-.238.07-.477.139-.713.212v.001c.236-.073.475-.144.713-.213m10.485-1.78c.106-.006.213-.01.319-.015l-.319.015m1.109-.045l.316-.01-.316.01m-5.911.552l.335-.053-.335.053m2.349-.311l.36-.037-.36.037m-1.076.127"/><path fill="#fff" d="M2.822 49.144h92.644H2.822"/><path fill="#30a241" stroke="#201e1d" stroke-linejoin="round" stroke-width="3.244" d="M74.92 49.145A25.775 25.775 0 0149.145 74.92 25.775 25.775 0 0123.37 49.145 25.775 25.775 0 0149.145 23.37 25.775 25.775 0 0174.92 49.145"/><path fill="#ed6d1e" stroke="#201e1d" stroke-width="2" d="M95.466 51.965H2.822v-5.643h92.644v5.643"/><path fill="#201e1d" d="M49.144 5.643c-23.987 0-43.501 19.514-43.501 43.5 0 23.987 19.514 43.501 43.5 43.501 23.987 0 43.502-19.514 43.502-43.5 0-23.987-19.515-43.501-43.501-43.501zm0 92.644C22.046 98.287 0 76.242 0 49.144 0 22.045 22.046 0 49.144 0s49.143 22.045 49.143 49.144c0 27.098-22.045 49.143-49.143 49.143"/><path fill="#ed6d1e" d="M66.13 49.143c0 9.381-7.605 16.986-16.986 16.986s-16.986-7.605-16.986-16.986c0-9.38 7.605-16.985 16.986-16.985 9.38 0 16.986 7.605 16.986 16.985"/><path fill="#201e1d" d="M49.144 34.98c-7.81 0-14.165 6.353-14.165 14.163 0 7.81 6.355 14.165 14.165 14.165 7.81 0 14.164-6.354 14.164-14.165 0-7.81-6.354-14.164-14.164-14.164zm0 33.97c-10.922 0-19.807-8.885-19.807-19.807 0-10.921 8.885-19.807 19.807-19.807 10.921 0 19.807 8.886 19.807 19.807 0 10.922-8.886 19.808-19.807 19.808"/><path fill="#ed6d1e" d="M56.365 49.143a7.22 7.22 0 11-14.442 0 7.22 7.22 0 0114.442 0"/><path fill="#201e1d" d="M49.144 44.744a4.404 4.404 0 00-4.4 4.4c0 2.425 1.974 4.4 4.4 4.4 2.425 0 4.4-1.975 4.4-4.4 0-2.426-1.975-4.4-4.4-4.4zm0 14.442c-5.537 0-10.042-4.505-10.042-10.043 0-5.537 4.505-10.042 10.042-10.042s10.042 4.505 10.042 10.042c0 5.538-4.505 10.043-10.042 10.043"/></svg>