<svg xmlns="http://www.w3.org/2000/svg" width="371.48" height="371.48" viewBox="0 0 98.29 98.29"><path fill="#fff" d="M95.467 49.144c0 25.583-20.74 46.322-46.323 46.322-25.583 0-46.322-20.74-46.322-46.322 0-25.583 20.739-46.322 46.322-46.322 25.584 0 46.323 20.739 46.323 46.322"/><path fill="#fab70a" d="M2.822 49.144c0-25.583 20.739-46.322 46.322-46.322 25.584 0 46.323 20.739 46.323 46.322"/><path fill="#201e1d" d="M49.144 5.643c-23.985 0-43.501 19.514-43.501 43.501 0 23.986 19.516 43.5 43.501 43.5 23.986 0 43.501-19.514 43.501-43.5 0-23.987-19.515-43.501-43.5-43.501zm0 92.644C22.047 98.287 0 76.242 0 49.144S22.047 0 49.144 0c27.097 0 49.142 22.046 49.142 49.144S76.241 98.287 49.144 98.287"/><path fill="#fff" d="M2.822 49.144h92.645H2.822"/><path fill="#201e1d" d="M95.467 51.965H2.822v-5.643h92.645v5.643"/><path fill="#fff" d="M66.13 49.144c0 9.38-7.605 16.986-16.986 16.986-9.38 0-16.986-7.605-16.986-16.986s7.606-16.986 16.986-16.986S66.13 39.763 66.13 49.144"/><path fill="#201e1d" d="M49.144 34.98c-7.81 0-14.164 6.353-14.164 14.164 0 7.81 6.354 14.164 14.164 14.164s14.164-6.354 14.164-14.164-6.353-14.165-14.164-14.165zm0 33.971c-10.922 0-19.808-8.885-19.808-19.807 0-10.922 8.886-19.807 19.808-19.807s19.809 8.885 19.809 19.807c0 10.922-8.887 19.807-19.809 19.807"/><path fill="#fff" d="M56.366 49.144a7.223 7.223 0 0 1-14.443 0 7.222 7.222 0 0 1 14.443 0"/><path fill="#201e1d" d="M49.144 44.744a4.403 4.403 0 0 0-4.399 4.4c0 2.426 1.972 4.4 4.4 4.4a4.403 4.403 0 0 0 4.398-4.4c0-2.426-1.972-4.4-4.399-4.4zm0 14.442c-5.539 0-10.043-4.505-10.043-10.042S43.605 39.1 49.144 39.1s10.044 4.506 10.044 10.043c0 5.537-4.505 10.042-10.044 10.042"/><path fill="#f89c0f" d="M43.898 13.579c-1.136-1.664-3.355-2.184-5.203-1.383-2.057.892-4.576 2.82-5.256 6.974-1.2 7.332 3.333 9.198 3.333 9.198s3.599.933 3.997-2.533c.402-3.466-.931-4.799.801-7.064 1.355-1.771 3.845-2.972 2.328-5.192"/><path fill="#f68213" d="M37.062 27.508c.12.024.398.072.74.072 1.665 0 1.98-1.055 2.071-1.848.141-1.224.05-2.173-.031-3.01-.145-1.447-.28-2.814 1.012-4.5.38-.498.822-.935 1.249-1.357 1.404-1.392 1.676-1.863 1.051-2.777-.582-.85-1.58-1.36-2.677-1.36-.494 0-.97.1-1.422.296-1.817.787-4.107 2.517-4.724 6.292-1.002 6.115 2.261 7.961 2.73 8.192zm.74 1.877c-.684 0-1.199-.13-1.256-.144l-.12-.04c-.211-.086-5.178-2.23-3.876-10.176.747-4.58 3.559-6.691 5.785-7.656a5.354 5.354 0 0 1 2.141-.445c1.694 0 3.25.803 4.17 2.146 1.556 2.278-.08 3.896-1.273 5.077-.385.38-.78.771-1.087 1.172-.857 1.12-.783 1.869-.65 3.227.086.881.195 1.977.03 3.392-.251 2.19-1.659 3.447-3.864 3.447"/><path fill="#f89c0f" d="M40.102 21.57s2.802-2.564 4.932-1.416c2.135 1.149 3.468 4.215.801 5.681-2.667 1.467-4.932-.933-5.733-4.265"/><path fill="#f68213" d="M41.838 21.899c.632 2.099 1.849 3.473 3.122 3.473.37 0 .755-.11 1.15-.328.688-.377 1.023-.866 1.02-1.493-.003-.93-.783-2.049-1.81-2.602a1.627 1.627 0 0 0-.79-.188c-.956 0-2.05.657-2.692 1.138zm3.122 5.278c-2.265 0-4.237-2.119-5.023-5.397l-.124-.516.392-.36c.219-.199 2.19-1.948 4.325-1.948a3.43 3.43 0 0 1 1.644.404c1.619.871 2.751 2.591 2.759 4.183.007 1.293-.688 2.387-1.951 3.083-.667.366-1.345.551-2.022.551"/><path fill="#f89c0f" d="M59.964 12.905s-5.599 0-6.396 6.399c0 0 .399 3.599 3.196 2.532 2.801-1.066.8-2.932 3.2-3.199 2.399-.266 4.533.267 4.932-1.733.402-2-1.464-3.732-4.932-3.999"/><path fill="#f68213" d="M54.478 19.297c.032.184.117.613.314 1.023.388.811.836.812 1.005.812.188 0 .406-.047.646-.14.984-.373 1.073-.743 1.203-1.304.155-.653.413-1.747 2.22-1.947a21.83 21.83 0 0 1 1.689-.104c1.947-.067 2.314-.202 2.455-.91a1.647 1.647 0 0 0-.324-1.38c-.635-.837-2-1.397-3.75-1.539-.43.013-4.742.267-5.458 5.489zm1.32 3.64c-2.163-.001-2.992-2.312-3.13-3.534l-.01-.106.014-.105c.709-5.686 5.08-7.189 7.292-7.189l.07.002c2.318.179 4.124.979 5.091 2.252.631.836.857 1.812.656 2.824-.448 2.233-2.423 2.3-4.166 2.36a19.48 19.48 0 0 0-1.553.093c-.54.06-.54.06-.66.569-.165.696-.44 1.861-2.317 2.576-.444.17-.878.257-1.288.257"/><path fill="#f89c0f" d="M57.699 27.834s-2.932-2.932.8-3.998c3.733-1.066 3.864-2.8 3.864-2.8s2.24-1.404 2.586 2.03c.349 3.436-.053 5.13-3.12 5.416-3.065.286-4.13-.648-4.13-.648"/><path fill="#f68213" d="M58.295 27.153c.138.088.843.481 2.417.481.328 0 .677-.017 1.033-.05.963-.09 1.595-.332 1.93-.74.47-.567.582-1.67.377-3.687-.045-.452-.204-1.503-.705-1.503a.838.838 0 0 0-.24.04c-.328.782-1.323 2.142-4.36 3.01-.41.116-1.115.375-1.224.79-.12.456.377 1.238.772 1.659zm2.417 2.286c-2.427 0-3.433-.77-3.61-.926l-.041-.04c-.177-.177-1.715-1.774-1.285-3.43.254-.98 1.087-1.678 2.473-2.075 2.713-.775 3.158-1.852 3.214-2.027l-.017-.495.437-.174c.113-.07.713-.422 1.464-.422.815 0 2.226.406 2.501 3.126.219 2.176.17 3.862-.78 5.016-.656.798-1.69 1.252-3.153 1.388a12.994 12.994 0 0 1-1.203.059"/></svg>