<svg xmlns="http://www.w3.org/2000/svg" width="371.48" height="371.48" viewBox="0 0 98.29 98.29"><path fill="#fff" d="M95.466 49.144c0 25.583-20.74 46.322-46.322 46.322-25.583 0-46.322-20.74-46.322-46.322 0-25.583 20.739-46.322 46.322-46.322 25.583 0 46.322 20.739 46.322 46.322"/><path fill="#de2171" d="M2.822 49.144c0-25.583 20.739-46.322 46.322-46.322 25.583 0 46.322 20.739 46.322 46.322"/><path fill="#f253ac" d="M57.726 7.447c-4.74 0-8.582 3.591-8.582 8.02 0-4.429-3.843-8.02-8.583-8.02s-8.582 3.591-8.582 8.02c0 .494.05.976.141 1.444 1.68 10.864 17.024 15.247 17.024 15.247s15.343-4.383 17.023-15.247c.091-.468.141-.95.141-1.443 0-4.43-3.842-8.02-8.582-8.02"/><path fill="#252323" d="M40.561 8.33c-4.246 0-7.7 3.202-7.7 7.138 0 .419.042.848.125 1.274 1.466 9.48 14.228 13.88 16.158 14.493 1.929-.612 14.69-5.01 16.152-14.459.089-.46.13-.889.13-1.308 0-3.936-3.454-7.139-7.7-7.139s-7.7 3.203-7.7 7.139h-1.764c0-3.936-3.455-7.139-7.7-7.139zm8.583 24.745l-.243-.069c-.16-.046-3.997-1.157-8.097-3.643-5.523-3.35-8.828-7.61-9.556-12.317a8.334 8.334 0 0 1-.151-1.578c0-4.909 4.246-8.903 9.464-8.903 3.795 0 7.075 2.112 8.583 5.151 1.507-3.04 4.787-5.15 8.582-5.15 5.219 0 9.464 3.993 9.464 8.902a8.47 8.47 0 0 1-.157 1.611c-.722 4.675-4.027 8.933-9.55 12.284-4.1 2.486-7.936 3.597-8.097 3.643l-.242.069"/><path fill="#ede7f0" d="M50.29 21.114c0 3.312-.513 5.997-1.146 5.997-.634 0-1.147-2.685-1.147-5.997s.513-5.997 1.147-5.997c.633 0 1.146 2.685 1.146 5.997"/><path fill="#201e1d" d="M49.144 5.643c-23.987 0-43.501 19.514-43.501 43.501 0 23.986 19.514 43.5 43.5 43.5 23.987 0 43.501-19.514 43.501-43.5 0-23.987-19.514-43.501-43.5-43.501zm0 92.644C22.046 98.287 0 76.242 0 49.144S22.046 0 49.144 0s49.143 22.046 49.143 49.144-22.045 49.143-49.143 49.143"/><path fill="#fff" d="M2.822 49.144h92.644H2.822"/><path fill="#201e1d" d="M95.466 51.965H2.82v-5.642h92.645v5.642"/><path fill="#fff" d="M66.13 49.144c0 9.38-7.606 16.986-16.986 16.986-9.381 0-16.986-7.605-16.986-16.986s7.605-16.986 16.986-16.986c9.38 0 16.985 7.605 16.985 16.986"/><path fill="#201e1d" d="M49.144 34.98c-7.81 0-14.165 6.354-14.165 14.164s6.354 14.164 14.165 14.164c7.81 0 14.164-6.354 14.164-14.164s-6.354-14.165-14.164-14.165zm0 33.971c-10.922 0-19.808-8.885-19.808-19.807 0-10.922 8.886-19.807 19.808-19.807 10.921 0 19.807 8.885 19.807 19.807 0 10.922-8.886 19.807-19.807 19.807"/><path fill="#fff" d="M56.364 49.144a7.221 7.221 0 1 1-14.442 0 7.221 7.221 0 0 1 14.442 0"/><path fill="#201e1d" d="M49.144 44.744a4.404 4.404 0 0 0-4.4 4.4c0 2.426 1.974 4.4 4.4 4.4 2.425 0 4.4-1.974 4.4-4.4s-1.975-4.4-4.4-4.4zm0 14.442c-5.538 0-10.042-4.505-10.042-10.042s4.504-10.042 10.042-10.042c5.537 0 10.042 4.505 10.042 10.042S54.68 59.186 49.144 59.186"/></svg>