<svg xmlns="http://www.w3.org/2000/svg" viewBox="0 0 98.29 98.29"><path fill="#fff" d="M95.466 49.144c0 25.583-20.74 46.322-46.322 46.322-25.583 0-46.323-20.74-46.323-46.322 0-25.583 20.74-46.323 46.323-46.323 25.583 0 46.322 20.74 46.322 46.323"/><path fill="#21abcd" d="M2.82 46.323C2.82 20.74 23.56 0 49.143 0c25.583 0 46.322 20.74 46.322 46.323"/><path fill="#201e1d" d="M95.466 51.965H2.82v-5.642h92.645v5.642"/><path fill="#fff" d="M66.13 49.144c0 9.38-7.606 16.986-16.986 16.986-9.381 0-16.986-7.605-16.986-16.986s7.605-16.986 16.986-16.986c9.38 0 16.985 7.605 16.985 16.986"/><path fill="#fff" d="M56.364 49.144a7.22 7.22 0 1 1-14.441 0 7.22 7.22 0 0 1 14.441 0"/><path fill="#201e1d" d="M49.144 44.744a4.404 4.404 0 0 0-4.4 4.4c0 2.425 1.973 4.4 4.4 4.4a4.404 4.404 0 0 0 4.399-4.4c0-2.426-1.974-4.4-4.4-4.4zm0 14.442c-5.538 0-10.043-4.505-10.043-10.042 0-5.538 4.505-10.043 10.043-10.043 5.537 0 10.042 4.505 10.042 10.043 0 5.537-4.505 10.042-10.042 10.042"/><path fill="red" stroke="#201e1d" stroke-linejoin="round" stroke-width="1.323" d="M42.792766 4.493455 26.843967 20.017392l15.152961 11.541201h14.296144l15.152961-11.541201L55.49775 4.493455Z"/><rect width="2.735" height="11.966" x="52.751" y="11.967" fill="#ffb000" stroke="#000" stroke-linejoin="round" stroke-width=".45" ry="2.646"/><rect width="2.735" height="11.966" x="47.778" y="11.967" fill="#ffb000" stroke="#000" stroke-linejoin="round" stroke-width=".45" ry="2.646"/><rect width="2.735" height="11.966" x="42.804" y="11.967" fill="#ffb000" stroke="#000" stroke-linejoin="round" stroke-width=".45" ry="2.646"/><path fill="#201e1d" d="M49.144 5.643c-23.987 0-43.501 19.514-43.501 43.5 0 23.987 19.514 43.501 43.5 43.501 23.987 0 43.501-19.514 43.501-43.5 0-23.987-19.514-43.501-43.5-43.501zm0 92.644C22.046 98.287 0 76.242 0 49.144S22.046 0 49.144 0s49.143 22.046 49.143 49.144-22.045 49.143-49.143 49.143"/><path fill="#201e1d" d="M49.144 34.98c-7.81 0-14.165 6.353-14.165 14.164 0 7.81 6.354 14.164 14.165 14.164 7.81 0 14.164-6.354 14.164-14.164S56.954 34.98 49.144 34.98zm0 33.97c-10.922 0-19.808-8.885-19.808-19.806 0-10.922 8.886-19.808 19.808-19.808 10.921 0 19.807 8.886 19.807 19.808S60.065 68.95 49.144 68.95"/></svg>