<svg xmlns="http://www.w3.org/2000/svg" width="371.47" height="371.48" viewBox="0 0 98.29 98.29"><path fill="#2d2b2c" d="M95.467 49.144c0 25.583-20.74 46.322-46.323 46.322-25.583 0-46.322-20.74-46.322-46.322C2.822 23.56 23.56 2.82 49.144 2.82c25.584 0 46.323 20.74 46.323 46.323"/><path fill="#7053ae" d="M2.822 49.144C2.822 23.56 23.56 2.82 49.144 2.82c25.584 0 46.323 20.74 46.323 46.323"/><path fill="#2d2b2c" d="M2.822 49.144C2.822 23.56 23.56 2.82 49.144 2.82c25.584 0 46.323 20.74 46.323 46.323"/><path fill="#fab70a" d="M49.144 32.654c-15.917 0-29.832-4.355-37.39-10.848a46.455 46.455 0 0 0-1.858 2.728c6.963 7.463 21.92 12.624 39.248 12.624 17.329 0 32.283-5.161 39.247-12.624a46.24 46.24 0 0 0-1.856-2.728c-7.56 6.493-21.474 10.848-37.39 10.848"/><path fill="#ed1c24" d="M49.144 29.126c-14.788 0-27.848-3.76-35.69-9.501a46.662 46.662 0 0 0-1.7 2.18c7.558 6.494 21.473 10.849 37.39 10.849 15.917 0 29.83-4.355 37.391-10.848a46.736 46.736 0 0 0-1.704-2.181c-7.839 5.741-20.898 9.501-35.687 9.501"/><path fill="#fab70a" d="M15.456 17.368a46.889 46.889 0 0 0-2.001 2.257c7.84 5.741 20.9 9.501 35.69 9.501 14.788 0 27.847-3.76 35.686-9.501a44.347 44.347 0 0 0-2-2.257c-7.959 4.972-20.094 8.149-33.687 8.149-13.596 0-25.728-3.177-33.688-8.15"/><path fill="#fff" d="M2.822 49.144h92.645H2.822"/><path fill="#ebd43f" d="M95.467 51.965H2.822v-5.642h92.645v5.642"/><path fill="#fab70a" d="M66.13 49.144c0 9.38-7.606 16.986-16.986 16.986s-16.986-7.606-16.986-16.986c0-9.381 7.606-16.986 16.986-16.986S66.13 39.763 66.13 49.144"/><path fill="#201e1d" d="M49.144 34.98c-7.81 0-14.164 6.353-14.164 14.164 0 7.81 6.354 14.164 14.164 14.164s14.164-6.354 14.164-14.164-6.353-14.165-14.164-14.165zm0 33.97c-10.922 0-19.808-8.885-19.808-19.806 0-10.922 8.886-19.808 19.808-19.808s19.809 8.886 19.809 19.808c0 10.921-8.887 19.807-19.809 19.807"/><path fill="#fab70a" d="M56.365 49.144a7.222 7.222 0 0 1-14.442 0 7.222 7.222 0 0 1 14.443 0"/><path fill="#201e1d" d="M49.144 44.744a4.403 4.403 0 0 0-4.4 4.4c0 2.426 1.973 4.4 4.4 4.4 2.427 0 4.4-1.974 4.4-4.4s-1.973-4.4-4.4-4.4zm0 14.442c-5.539 0-10.044-4.505-10.044-10.042 0-5.538 4.505-10.043 10.044-10.043 5.539 0 10.044 4.505 10.044 10.043 0 5.537-4.505 10.042-10.044 10.042"/><path fill="#201e1d" d="M49.144 5.643c-23.985 0-43.501 19.514-43.501 43.5 0 23.987 19.516 43.502 43.501 43.502S92.645 73.13 92.645 49.144c0-23.987-19.516-43.501-43.5-43.501zm0 92.644C22.047 98.287 0 76.242 0 49.144S22.047 0 49.144 0c27.097 0 49.142 22.046 49.142 49.144S76.241 98.287 49.144 98.287"/></svg>