<svg xmlns="http://www.w3.org/2000/svg" width="371.48" height="371.48" viewBox="0 0 98.29 98.29"><path fill="#f9af17" d="M52.402 2.937l.188.012-.188-.012M36.158 4.669l.112-.033-.112.033m.71-.2c.125-.034.25-.069.376-.102a43.77 43.77 0 0 0-.377.102m2.148-.534c.212-.047.424-.094.637-.139-.213.045-.425.092-.637.14m-1.21.286c.151-.038.303-.075.455-.111l-.455.11M59.11 3.9l.048.01-.048-.01m-3.328-.603l.144.02-.144-.02m-6.636-.476h-.003.003m4.99.27c.076.007.154.017.23.025l-.23-.026"/><path fill="#644a3a" d="M39.652 3.796c.154-.032.309-.062.463-.092-.154.03-.309.06-.463.092m-3.494.873c-.238.07-.477.139-.714.212v.002a41.8 41.8 0 0 1 .714-.214m10.485-1.78c.106-.006.213-.01.319-.015l-.319.015m-4.801.507l.334-.053-.335.053m2.348-.31l.36-.038-.36.037m1.3-.12l.105-.01-.106.01m-2.374.247l.368-.046-.368.046"/><path fill="#201e1d" d="M49.144 5.643c-23.987 0-43.501 19.514-43.501 43.5 0 23.987 19.514 43.501 43.5 43.501 23.987 0 43.502-19.514 43.502-43.5 0-23.987-19.515-43.501-43.501-43.501zm0 92.644C22.046 98.287 0 76.241 0 49.144 0 22.045 22.046 0 49.144 0s49.143 22.045 49.143 49.144c0 27.097-22.045 49.143-49.143 49.143"/><path fill="#fff" d="M2.822 49.144h92.644H2.822"/><path fill="#201e1d" d="M32.155 51.965H2.821v-5.643h29.334v5.643"/><path fill="#201e1d" d="M49.144 34.98c-7.81 0-14.165 6.353-14.165 14.163 0 7.81 6.354 14.165 14.165 14.165 7.81 0 14.164-6.354 14.164-14.165 0-7.81-6.354-14.164-14.164-14.164zm0 33.97c-10.922 0-19.808-8.885-19.808-19.807 0-10.921 8.886-19.807 19.808-19.807 10.921 0 19.807 8.886 19.807 19.807 0 10.922-8.886 19.808-19.807 19.808"/><path fill="#201e1d" d="M49.144 44.744a4.404 4.404 0 0 0-4.4 4.4c0 2.425 1.974 4.4 4.4 4.4 2.425 0 4.4-1.975 4.4-4.4a4.404 4.404 0 0 0-4.4-4.4zm0 14.442c-5.538 0-10.043-4.505-10.043-10.043 0-5.537 4.505-10.042 10.043-10.042 5.537 0 10.042 4.505 10.042 10.042 0 5.538-4.505 10.043-10.042 10.043m46.322-7.221H66.132v-5.643h29.334v5.643"/></svg>