<svg xmlns="http://www.w3.org/2000/svg" width="371.48" height="371.48" viewBox="0 0 98.29 98.29"><path fill="#f032a3" d="M2.822 49.143c0-25.583 20.739-46.322 46.322-46.322 25.583 0 46.322 20.74 46.322 46.322"/><path fill="#d4156b" d="M22.56 11.207a46.568 46.568 0 0 0-6.54 5.559 48.144 48.144 0 0 1 3.82 3.466c7.82 7.906 12.076 17.621 12.678 28.911h8.472c-.79-16.876-8.557-28.217-15.132-34.863a55.927 55.927 0 0 0-3.298-3.073m55.607 9.26a47.603 47.603 0 0 1 4.08-3.72 46.586 46.586 0 0 0-6.547-5.56 55.797 55.797 0 0 0-3.32 3.093c-6.575 6.646-14.342 17.987-15.132 34.863h8.471c.598-11.173 4.776-20.81 12.448-28.677"/><path fill="#201e1d" d="M49.144 5.643c-23.987 0-43.501 19.514-43.501 43.5 0 23.987 19.514 43.501 43.5 43.501 23.987 0 43.502-19.514 43.502-43.5 0-23.987-19.515-43.501-43.501-43.501zm0 92.644C22.046 98.287 0 76.241 0 49.144 0 22.046 22.046 0 49.144 0s49.144 22.046 49.144 49.144c0 27.097-22.046 49.143-49.144 49.143"/><path fill="#fff" d="M2.822 49.143h92.644H2.821"/><path fill="#201e1d" d="M95.466 51.965H2.821v-5.643h92.645v5.643"/><path fill="#fff" d="M66.13 49.143c0 9.382-7.605 16.986-16.986 16.986s-16.986-7.604-16.986-16.986c0-9.38 7.605-16.985 16.986-16.985 9.38 0 16.986 7.605 16.986 16.985"/><path fill="#201e1d" d="M49.144 34.979c-7.81 0-14.164 6.354-14.164 14.164s6.354 14.165 14.164 14.165 14.164-6.354 14.164-14.165c0-7.81-6.354-14.164-14.164-14.164zm0 33.972c-10.922 0-19.807-8.886-19.807-19.808 0-10.921 8.885-19.807 19.807-19.807 10.921 0 19.807 8.886 19.807 19.807 0 10.922-8.886 19.808-19.807 19.808"/><path fill="#fff" d="M56.364 49.143a7.22 7.22 0 1 1-14.441 0 7.22 7.22 0 0 1 14.441 0"/><path fill="#201e1d" d="M49.144 44.744a4.405 4.405 0 0 0-4.4 4.4 4.404 4.404 0 0 0 4.4 4.399c2.425 0 4.4-1.974 4.4-4.4 0-2.425-1.975-4.4-4.4-4.4zm0 14.442c-5.537 0-10.042-4.505-10.042-10.043 0-5.537 4.505-10.042 10.042-10.042s10.042 4.505 10.042 10.042c0 5.538-4.505 10.043-10.042 10.043"/></svg>