<svg xmlns="http://www.w3.org/2000/svg" width="371.48" height="371.48" viewBox="0 0 98.29 98.29"><path fill="#fff" d="M95.466 49.144c0 25.583-20.739 46.322-46.322 46.322-25.583 0-46.322-20.74-46.322-46.322C2.822 23.56 23.56 2.82 49.144 2.82c25.583 0 46.322 20.74 46.322 46.323"/><path fill="#7053ae" d="M2.822 49.144C2.822 23.56 23.56 2.82 49.144 2.82c25.583 0 46.322 20.74 46.322 46.323"/><path fill="#ebd43f" d="M2.822 49.144C2.822 23.56 23.56 2.82 49.144 2.82c25.583 0 46.322 20.74 46.322 46.323"/><path fill="#fff" d="M2.822 49.144h92.644H2.822"/><path fill="#201e1d" d="M95.466 51.965H2.822v-5.642h92.644v5.642"/><path fill="#ebd43f" d="M66.13 49.144c0 9.38-7.605 16.986-16.986 16.986s-16.986-7.606-16.986-16.986c0-9.381 7.605-16.986 16.986-16.986 9.38 0 16.986 7.605 16.986 16.986"/><path fill="#201e1d" d="M49.144 34.98c-7.81 0-14.164 6.353-14.164 14.164 0 7.81 6.354 14.164 14.164 14.164s14.164-6.354 14.164-14.164-6.354-14.165-14.164-14.165zm0 33.97c-10.922 0-19.807-8.885-19.807-19.806 0-10.922 8.885-19.808 19.807-19.808 10.921 0 19.807 8.886 19.807 19.808 0 10.921-8.886 19.807-19.807 19.807"/><path fill="#ebd43f" d="M56.365 49.144a7.22 7.22 0 1 1-14.442 0 7.22 7.22 0 0 1 14.442 0"/><path fill="#201e1d" d="M49.144 44.744a4.404 4.404 0 0 0-4.4 4.4c0 2.426 1.974 4.4 4.4 4.4s4.4-1.974 4.4-4.4-1.974-4.4-4.4-4.4zm0 14.442c-5.537 0-10.042-4.505-10.042-10.042 0-5.538 4.505-10.043 10.042-10.043s10.042 4.505 10.042 10.043c0 5.537-4.505 10.042-10.042 10.042"/><path fill="#fff" d="M21.31 33.08l-4.885-2.826a37.724 37.724 0 0 1 16.357-15.166l2.447 5.085a32.104 32.104 0 0 0-13.92 12.907"/><path fill="#201e1d" d="M49.144 5.643c-23.987 0-43.501 19.514-43.501 43.5 0 23.987 19.514 43.502 43.501 43.502 23.986 0 43.5-19.515 43.5-43.501 0-23.987-19.514-43.501-43.5-43.501zm0 92.644C22.046 98.287 0 76.242 0 49.144S22.046 0 49.144 0s49.144 22.046 49.144 49.144-22.046 49.143-49.144 49.143"/></svg>