<svg xmlns="http://www.w3.org/2000/svg" viewBox="0 0 98.29 98.29"><path fill="#fff" d="M95.466 49.144c0 25.583-20.74 46.322-46.322 46.322-25.583 0-46.323-20.74-46.323-46.322 0-25.583 20.74-46.323 46.323-46.323 25.583 0 46.322 20.74 46.322 46.323"/><g color="#000"><path fill="#f03f54" d="M95.466 51.965H2.82v-5.642h92.645v5.642"/><path fill="#201e1d" d="M1.4960937 45v8.287109H95.466797v-1.322265h1.320312V45Z"/></g><path fill="#fff" d="M66.13 49.144c0 9.38-7.606 16.986-16.986 16.986-9.381 0-16.986-7.605-16.986-16.986s7.605-16.986 16.986-16.986c9.38 0 16.985 7.605 16.985 16.986"/><g color="#000"><path fill="#f03f54" d="M49.144 34.98c-7.81 0-14.165 6.353-14.165 14.164 0 7.81 6.354 14.164 14.165 14.164 7.81 0 14.164-6.354 14.164-14.164S56.954 34.98 49.144 34.98zm0 33.97c-10.922 0-19.808-8.885-19.808-19.806 0-10.922 8.886-19.808 19.808-19.808 10.921 0 19.807 8.886 19.807 19.808S60.065 68.95 49.144 68.95"/><path fill="#201e1d" d="M49.144531 28.013672c-11.639546 0-21.130859 9.491313-21.130859 21.130859 0 11.638612 9.491394 21.128906 21.130859 21.128906 11.63845 0 21.128906-9.48936 21.128906-21.128906 0-11.639546-9.490294-21.130859-21.128906-21.130859zm0 2.644531c10.203367 0 18.484375 8.281896 18.484375 18.486328s-8.280847 18.482422-18.484375 18.482422c-10.204513 0-18.486328-8.279055-18.486328-18.482422 0-10.204432 8.281896-18.486328 18.486328-18.486328zm0 2.998047c-8.527423 0-15.488281 6.959724-15.488281 15.488281 0 8.527536 6.959837 15.486328 15.488281 15.486328 8.527536 0 15.486328-6.958792 15.486328-15.486328 0-8.527536-6.958792-15.488281-15.486328-15.488281zm0 2.646484c7.092449 0 12.839844 5.749349 12.839844 12.841797 0 7.092449-5.747395 12.839844-12.839844 12.839844-7.09354 0-12.841797-5.747395-12.841797-12.839844 0-7.093427 5.749236-12.841797 12.841797-12.841797z"/></g><path fill="#fff" d="M56.364 49.144a7.22 7.22 0 1 1-14.441 0 7.22 7.22 0 0 1 14.441 0"/><path fill="#201e1d" d="M49.144 44.744a4.404 4.404 0 0 0-4.4 4.4c0 2.425 1.973 4.4 4.4 4.4a4.404 4.404 0 0 0 4.399-4.4c0-2.426-1.974-4.4-4.4-4.4zm0 14.442c-5.538 0-10.043-4.505-10.043-10.042 0-5.538 4.505-10.043 10.043-10.043 5.537 0 10.042 4.505 10.042 10.043 0 5.537-4.505 10.042-10.042 10.042"/><path fill="#f03f54" d="M2.8227346 47.646953H31.680499v2.996094H2.8227346Zm63.7867654 0h28.857765v2.996094H66.6095Z" color="#000"/><path fill="#201e1d" d="M49.144 5.643c-23.987 0-43.501 19.514-43.501 43.5 0 23.987 19.514 43.501 43.5 43.501 23.987 0 43.501-19.514 43.501-43.5 0-23.987-19.514-43.501-43.5-43.501zm0 92.644C22.046 98.287 0 76.242 0 49.144S22.046 0 49.144 0s49.143 22.046 49.143 49.144-22.045 49.143-49.143 49.143"/></svg>