<svg width="371.48" height="371.48" viewBox="0 0 98.29 98.29" xmlns="http://www.w3.org/2000/svg"><circle style="fill:#f3c367;fill-opacity:1;stroke-width:0;stroke-linecap:round;stroke-linejoin:round" cx="50.851" cy="47.78" r="25.767"/><path fill="#fff" d="M95.466 49.144c0 25.583-20.74 46.322-46.322 46.322-25.583 0-46.323-20.74-46.323-46.322 0-25.583 20.74-46.323 46.323-46.323 25.583 0 46.322 20.74 46.322 46.323" style="fill:#fff"/><path fill="#f03e51" d="M2.821 49.144c0-25.583 20.74-46.323 46.323-46.323 25.583 0 46.322 20.74 46.322 46.323"/><circle style="fill:#f3c367;fill-opacity:1;stroke-width:0;stroke-linecap:round;stroke-linejoin:round" cx="49.316" cy="50.51" r="25.255"/><path style="fill:#fff;fill-opacity:1;stroke-width:0;stroke-linecap:round;stroke-linejoin:round" d="M170.262 349.152c-22.806-2.72-38.779-7.381-57.722-16.843-42.819-21.387-74.705-61.148-86.023-107.265-1.814-7.392-3.172-15.255-4.254-24.632l-.428-3.708h89.592l.442 3.063c1.133 7.855 6.095 19.789 11.867 28.538 2.907 4.408 11.49 13.448 16.214 17.078 8.891 6.832 20.805 12.136 31.945 14.224 7.37 1.38 20.32 1.38 27.69 0 22.453-4.208 41.364-18.19 52.798-39.04 2.582-4.71 6.557-16.148 7.229-20.8l.441-3.063h89.544l-.383 3.386c-2.812 24.897-8.303 43-19.193 63.277-14.953 27.843-38.262 51.28-65.924 66.285-17.068 9.26-32.558 14.61-52.237 18.045-6.125 1.069-11.035 1.39-23.54 1.538-8.69.103-16.817.066-18.058-.083z" transform="scale(.26459)"/><path fill="#201e1d" d="M95.466 51.965H2.82v-5.642h92.645v5.642"/><path fill="#fff" d="M66.13 49.144c0 9.38-7.606 16.986-16.986 16.986-9.381 0-16.986-7.605-16.986-16.986s7.605-16.986 16.986-16.986c9.38 0 16.985 7.605 16.985 16.986"/><path fill="#fff" d="M47.189 42.193a7.22 7.22 0 1 1 3.91 13.902 7.22 7.22 0 0 1-3.91-13.902"/><path fill="#201e1d" d="M49.144 44.744a4.404 4.404 0 0 0-4.4 4.4c0 2.425 1.973 4.4 4.4 4.4a4.404 4.404 0 0 0 4.399-4.4c0-2.426-1.974-4.4-4.4-4.4zm0 14.442c-5.538 0-10.043-4.505-10.043-10.042 0-5.538 4.505-10.043 10.043-10.043 5.537 0 10.042 4.505 10.042 10.043 0 5.537-4.505 10.042-10.042 10.042"/><path fill="#201e1d" d="M49.144 34.98c-7.81 0-14.165 6.353-14.165 14.164 0 7.81 6.354 14.164 14.165 14.164 7.81 0 14.164-6.354 14.164-14.164S56.954 34.98 49.144 34.98zm0 33.97c-10.922 0-19.808-8.885-19.808-19.806 0-10.922 8.886-19.808 19.808-19.808 10.921 0 19.807 8.886 19.807 19.808S60.065 68.95 49.144 68.95"/><ellipse style="fill:#f3c367;fill-opacity:1;stroke-width:0;stroke-linecap:round;stroke-linejoin:round" cx="49.261" cy="15.017" rx="13.822" ry="12.628"/><circle style="fill:#000;fill-opacity:1;stroke-width:0;stroke-linecap:round;stroke-linejoin:round" cx="49.261" cy="15.017" r="6.314"/><path fill="#201e1d" d="M49.144 5.643c-23.987 0-43.501 19.514-43.501 43.5 0 23.987 19.514 43.501 43.5 43.501 23.987 0 43.501-19.514 43.501-43.5 0-23.987-19.514-43.501-43.5-43.501zm0 92.644C22.046 98.287 0 76.242 0 49.144S22.046 0 49.144 0s49.143 22.046 49.143 49.144-22.045 49.143-49.143 49.143"/></svg>