<svg xmlns="http://www.w3.org/2000/svg" width="371.48" height="371.48" viewBox="0 0 98.29 98.29"><path fill="#fff" d="M95.466 49.144c0 25.583-20.739 46.322-46.322 46.322-25.583 0-46.322-20.74-46.322-46.322 0-25.583 20.739-46.322 46.322-46.322 25.583 0 46.322 20.739 46.322 46.322"/><path fill="#303132" d="M2.822 49.144c0-25.583 20.739-46.322 46.322-46.322 25.583 0 46.322 20.739 46.322 46.322"/><path fill="#201e1d" d="M49.144 5.643c-23.987 0-43.501 19.514-43.501 43.501 0 23.986 19.514 43.5 43.501 43.5 23.986 0 43.5-19.514 43.5-43.5 0-23.987-19.514-43.501-43.5-43.501zm0 92.644C22.046 98.287 0 76.242 0 49.144S22.046 0 49.144 0s49.144 22.046 49.144 49.144-22.046 49.143-49.144 49.143"/><path fill="#fff" d="M2.822 49.144h92.644H2.822"/><path fill="#201e1d" d="M95.466 51.965H2.822v-5.642h92.644v5.642"/><path fill="#fff" d="M66.13 49.144c0 9.38-7.605 16.986-16.986 16.986s-16.986-7.605-16.986-16.986 7.605-16.986 16.986-16.986c9.38 0 16.986 7.605 16.986 16.986"/><path fill="#201e1d" d="M49.144 34.98c-7.81 0-14.164 6.354-14.164 14.164s6.354 14.164 14.164 14.164 14.164-6.354 14.164-14.164-6.354-14.165-14.164-14.165zm0 33.971c-10.922 0-19.807-8.885-19.807-19.807 0-10.922 8.885-19.807 19.807-19.807 10.921 0 19.807 8.885 19.807 19.807 0 10.922-8.886 19.807-19.807 19.807"/><path fill="#fff" d="M56.365 49.144a7.221 7.221 0 1 1-14.442 0 7.221 7.221 0 0 1 14.442 0"/><path fill="#201e1d" d="M49.144 44.744a4.404 4.404 0 0 0-4.4 4.4c0 2.426 1.974 4.4 4.4 4.4s4.4-1.974 4.4-4.4-1.974-4.4-4.4-4.4zm0 14.442c-5.537 0-10.042-4.505-10.042-10.042s4.505-10.042 10.042-10.042 10.042 4.505 10.042 10.042-4.505 10.042-10.042 10.042"/><path fill="#f03e51" d="M45.845 17.232h2.369c.256 0 .752-.083 1.488-.248.372-.074.676-.264.912-.57.235-.307.353-.658.353-1.055 0-.587-.186-1.037-.558-1.352-.372-.314-1.07-.47-2.096-.47h-2.468zm-5.643 10.815V9.865h9.364c1.736 0 3.063.149 3.98.447.919.297 1.658.85 2.22 1.655.563.806.844 1.788.844 2.946 0 1.009-.215 1.879-.645 2.61a5.043 5.043 0 0 1-1.775 1.78c-.48.29-1.137.53-1.973.72.67.223 1.157.447 1.463.67.206.149.506.468.898.956.393.488.655.865.787 1.13l2.72 5.268h-6.347l-3.004-5.556c-.38-.72-.719-1.187-1.016-1.402a2.36 2.36 0 0 0-1.377-.422h-.496v7.38h-5.643"/></svg>