<svg xmlns="http://www.w3.org/2000/svg" viewBox="0 0 98.29 98.29"><path fill="#fff" d="M95.466 49.144c0 25.583-20.74 46.322-46.322 46.322-25.583 0-46.323-20.74-46.323-46.322 0-25.583 20.74-46.323 46.323-46.323 25.583 0 46.322 20.74 46.322 46.323"/><path fill="#307d53" d="M2.821 49.144c0-25.583 20.74-46.323 46.323-46.323 25.583 0 46.322 20.74 46.322 46.323"/><path fill="#799653" d="M5.6294387 35.352876s1.013299-7.205683 8.6693353-6.980506c7.656037.22518 10.020401-.788122 12.384767-7.768624 2.364363-6.980504 1.125887-14.1861858 8.331567-10.358167 7.205682 3.828018 10.358169 2.251775 13.623243 1.125887 3.265073-1.125887 6.796306 4.123836 2.180166 8.965153-4.61614 4.841318-8.259959 2.74408-8.597727 9.27423-.337765 6.530149-6.755326 7.768624-11.0337 10.132987-4.278372 2.364366-11.821821-.562942-17.563848 8.106393C7.8812141 56.519564 2.82 46.323 2.82 46.323ZM64.738545 6.6427377S51.798832 9.083559 62.149002 21.391867c10.414463 12.384765 7.590925 7.078948 13.609701 25.579313l8.59778.109545s1.521815-12.589339-1.986695-17.278596c-11.709235-15.64984-23.106303-13.66786-11.909017-20.3043802Z"/><path fill="#aaa44c" d="M37.702094 4.9114301C43.6534 13.961498 42.210856 16.388362 34.509733 17.321286c-9.087418 1.100862-12.480602-3.868385-17.504139-.524267-5.023533 3.344087-7.8717372 11.424867-7.8717372 11.424867s9.9374422-7.821367 15.5387732-4.990581c5.60133 2.830786 19.712206 1.693006 21.695311-3.475823 2.346592-6.116233 1.526278-12.1037342-.696271-15.9409558-2.222554-3.83722132-7.969576 1.0969039-7.969576 1.0969039ZM55.844033 32.932216s6.530149.562945 8.950806-4.503551c2.42066-5.066494 4.559846 1.745126 11.315172-1.632536 6.755328-3.377664 2.589542-10.189285 5.12279-10.076696 2.533248.112589 10.921112 13.961009 10.695933 16.775728-.225177 2.814719-13.510652-2.702131-18.914914-.225177-5.404262 2.476951-6.642737 11.42776-6.642737 11.42776z"/><g fill="#d8d179"><ellipse cx="59.165" cy="20.2" rx="6.792" ry="3.603"/><path d="m40.283816 33.795416-4.498094 5.095185s-8.200066-6.647624-16.2011-4.02042c-8.001034 2.627207-8.319484-7.045687-6.209758-6.80685 2.109726.238836 2.279445-7.870875 4.896155.477674.835929 2.667011 4.874255.202119 13.136028-.477674 5.657878-.465539 7.045688 3.542746 8.876769 5.732085z"/></g><path fill="#201e1d" d="M49.144 5.643c-23.987 0-43.501 19.514-43.501 43.5 0 23.987 19.514 43.501 43.5 43.501 23.987 0 43.501-19.514 43.501-43.5 0-23.987-19.514-43.501-43.5-43.501zm0 92.644C22.046 98.287 0 76.242 0 49.144S22.046 0 49.144 0s49.143 22.046 49.143 49.144-22.045 49.143-49.143 49.143"/><path fill="#201e1d" d="M95.466 51.965H2.82v-5.642h92.645v5.642"/><path fill="#fff" d="M66.13 49.144c0 9.38-7.606 16.986-16.986 16.986-9.381 0-16.986-7.605-16.986-16.986s7.605-16.986 16.986-16.986c9.38 0 16.985 7.605 16.985 16.986"/><path fill="#201e1d" d="M49.144 34.98c-7.81 0-14.165 6.353-14.165 14.164 0 7.81 6.354 14.164 14.165 14.164 7.81 0 14.164-6.354 14.164-14.164S56.954 34.98 49.144 34.98zm0 33.97c-10.922 0-19.808-8.885-19.808-19.806 0-10.922 8.886-19.808 19.808-19.808 10.921 0 19.807 8.886 19.807 19.808S60.065 68.95 49.144 68.95"/><path fill="#fff" d="M56.364 49.144a7.22 7.22 0 1 1-14.441 0 7.22 7.22 0 0 1 14.441 0"/><path fill="#201e1d" d="M49.144 44.744a4.404 4.404 0 0 0-4.4 4.4c0 2.425 1.973 4.4 4.4 4.4a4.404 4.404 0 0 0 4.399-4.4c0-2.426-1.974-4.4-4.4-4.4zm0 14.442c-5.538 0-10.043-4.505-10.043-10.042 0-5.538 4.505-10.043 10.043-10.043 5.537 0 10.042 4.505 10.042 10.043 0 5.537-4.505 10.042-10.042 10.042"/></svg>