<svg xmlns="http://www.w3.org/2000/svg" width="371.48" height="371.48" viewBox="0 0 98.29 98.29"><path fill="#fff" d="M95.466 49.144c0 25.583-20.74 46.322-46.322 46.322-25.583 0-46.322-20.74-46.322-46.322 0-25.583 20.739-46.322 46.322-46.322 25.583 0 46.322 20.739 46.322 46.322"/><path fill="#f03e51" d="M2.822 49.144c0-25.583 20.739-46.322 46.322-46.322 25.583 0 46.322 20.739 46.322 46.322"/><path fill="#201e1d" d="M49.144 5.643c-23.987 0-43.501 19.514-43.501 43.501 0 23.986 19.514 43.5 43.5 43.5 23.987 0 43.502-19.514 43.502-43.5 0-23.987-19.515-43.501-43.501-43.501zm0 92.644C22.046 98.287 0 76.242 0 49.144S22.046 0 49.144 0s49.144 22.046 49.144 49.144-22.046 49.143-49.144 49.143"/><path fill="#fff" d="M2.822 49.144h92.644H2.822"/><path fill="#201e1d" d="M95.466 51.965H2.822v-5.642h92.644v5.642"/><path fill="#fff" d="M66.13 49.144c0 9.38-7.605 16.986-16.986 16.986s-16.986-7.605-16.986-16.986 7.605-16.986 16.986-16.986c9.38 0 16.986 7.605 16.986 16.986"/><path fill="#201e1d" d="M49.144 34.98c-7.81 0-14.165 6.354-14.165 14.164s6.355 14.164 14.165 14.164c7.81 0 14.164-6.354 14.164-14.164s-6.354-14.165-14.164-14.165zm0 33.971c-10.922 0-19.807-8.885-19.807-19.807 0-10.922 8.885-19.807 19.807-19.807 10.921 0 19.807 8.885 19.807 19.807 0 10.922-8.886 19.807-19.807 19.807"/><path fill="#fff" d="M56.365 49.144a7.22 7.22 0 1 1-14.442 0 7.22 7.22 0 0 1 14.442 0"/><path fill="#201e1d" d="M49.144 44.744a4.405 4.405 0 0 0-4.4 4.4c0 2.426 1.974 4.4 4.4 4.4s4.4-1.974 4.4-4.4-1.974-4.4-4.4-4.4zm0 14.442c-5.537 0-10.042-4.505-10.042-10.042s4.505-10.042 10.042-10.042 10.042 4.505 10.042 10.042-4.505 10.042-10.042 10.042"/><path fill="#fab70a" d="M52.746 17.796a3.602 3.602 0 1 1-7.204 0 3.602 3.602 0 0 1 7.204 0"/><path fill="#292827" d="M49.144 15.076c-1.5 0-2.72 1.22-2.72 2.72 0 1.5 1.22 2.72 2.72 2.72 1.5 0 2.72-1.22 2.72-2.72 0-1.5-1.22-2.72-2.72-2.72zm0 7.204a4.49 4.49 0 0 1-4.484-4.484 4.489 4.489 0 0 1 4.484-4.484 4.489 4.489 0 0 1 4.484 4.484 4.489 4.489 0 0 1-4.484 4.484"/><path fill="#fab70a" d="M49.144 6.999c-3.797 0-7.03 2.206-8.248 5.294-.522 1.323.562 2.718 2.101 2.718.935 0 1.799-.515 2.114-1.32.593-1.512 2.175-2.594 4.033-2.594 1.858 0 3.44 1.082 4.033 2.594.315.805 1.179 1.32 2.114 1.32 1.538 0 2.622-1.395 2.1-2.718-1.217-3.088-4.45-5.294-8.247-5.294"/><path fill="#292827" d="M49.144 10.215c2.164 0 4.114 1.268 4.854 3.154.175.448.707.76 1.293.76.484 0 .921-.217 1.168-.58a.986.986 0 0 0 .112-.933c-1.118-2.832-4.102-4.735-7.427-4.735-3.325 0-6.31 1.903-7.427 4.735a.984.984 0 0 0 .112.934c.246.362.684.58 1.168.58.586 0 1.118-.313 1.293-.76.74-1.887 2.69-3.155 4.854-3.155zm6.147 5.678c-1.315 0-2.495-.755-2.936-1.88-.477-1.217-1.767-2.034-3.211-2.034-1.445 0-2.735.817-3.212 2.034-.44 1.125-1.62 1.88-2.935 1.88-1.069 0-2.051-.505-2.627-1.351a2.731 2.731 0 0 1-.294-2.573c1.38-3.5 5.025-5.852 9.068-5.852 4.043 0 7.687 2.352 9.068 5.852a2.73 2.73 0 0 1-.295 2.573c-.576.846-1.558 1.351-2.626 1.351"/><path fill="#fab70a" d="M49.144 28.392c-3.797 0-7.03-2.207-8.248-5.295-.522-1.323.562-2.718 2.101-2.718.935 0 1.799.516 2.114 1.32.593 1.513 2.175 2.595 4.033 2.595 1.858 0 3.44-1.082 4.033-2.595.315-.804 1.179-1.32 2.114-1.32 1.538 0 2.622 1.395 2.1 2.718-1.217 3.088-4.45 5.295-8.247 5.295"/><path fill="#292827" d="M42.997 21.26c-.484 0-.922.217-1.168.58a.985.985 0 0 0-.112.934c1.117 2.833 4.102 4.736 7.427 4.736 3.325 0 6.31-1.903 7.427-4.736a.987.987 0 0 0-.112-.934c-.247-.363-.684-.58-1.168-.58-.586 0-1.118.313-1.293.761-.74 1.887-2.69 3.155-4.854 3.155s-4.115-1.268-4.854-3.155c-.175-.448-.707-.76-1.293-.76zm6.147 8.013c-4.043 0-7.687-2.351-9.068-5.852a2.73 2.73 0 0 1 .294-2.573c.576-.846 1.558-1.351 2.627-1.351 1.315 0 2.494.756 2.935 1.88.477 1.217 1.767 2.035 3.212 2.035 1.444 0 2.734-.818 3.211-2.035.441-1.124 1.62-1.88 2.936-1.88 1.068 0 2.05.505 2.626 1.35.527.775.634 1.713.295 2.574-1.381 3.5-5.025 5.852-9.068 5.852"/></svg>