<svg xmlns="http://www.w3.org/2000/svg" width="371.48" height="371.48" viewBox="0 0 98.29 98.29"><path fill="#fff" d="M2.822 49.144c0 25.583 20.738 46.322 46.321 46.322 25.584 0 46.323-20.74 46.323-46.322"/><path fill="#5a5a5a" d="M2.822 49.144C2.822 23.56 23.56 2.82 49.144 2.82c25.583 0 46.322 20.74 46.322 46.323"/><path fill="#f9af17" d="M52.402 2.937l.188.012-.188-.012M36.158 4.669l.112-.033-.112.033m.71-.2c.125-.034.25-.069.376-.102a43.77 43.77 0 0 0-.377.102m2.148-.534c.212-.047.424-.094.637-.139-.213.045-.425.092-.637.14m-1.21.286c.151-.038.303-.075.455-.111l-.455.11M59.11 3.9l.048.01-.048-.01m-3.328-.603l.144.02-.144-.02m-6.636-.476h-.003.003m4.99.27c.076.007.154.017.23.025l-.23-.026"/><path fill="#644a3a" d="M39.652 3.796c.154-.032.309-.062.463-.092-.154.03-.309.06-.463.092m-3.494.873c-.238.07-.477.139-.714.212v.002a41.8 41.8 0 0 1 .714-.214m10.485-1.78c.106-.006.213-.01.319-.015l-.319.015m-4.801.507l.334-.053-.335.053m2.348-.31l.36-.038-.36.037m1.3-.12l.105-.01-.106.01m-2.374.247l.368-.046-.368.046"/><path fill="#f9b010" d="M21.457 39.101H32.06a3.395 3.395 0 0 0 3.385-3.385v-16.98a34.755 34.755 0 0 1 13.7-2.796c4.66 0 9.106.918 13.17 2.577v17.199A3.395 3.395 0 0 0 65.7 39.1h10.6a3.395 3.395 0 0 0 3.386-3.385V14.32a46.224 46.224 0 0 0-17.373-9.596 46.28 46.28 0 0 0-3.155-.813L59.11 3.9a46.138 46.138 0 0 0-3.184-.583l-.144-.02a47.847 47.847 0 0 0-1.415-.181l-.232-.026a46.39 46.39 0 0 0-1.546-.141l-.188-.012a49.011 49.011 0 0 0-1.335-.073 46.585 46.585 0 0 0-1.92-.043h-.003c-.36 0-.718.006-1.075.014a48.813 48.813 0 0 0-1.107.039l-.319.015c-.35.018-.7.04-1.049.067l-.105.008a45.68 45.68 0 0 0-.94.084l-.36.037a47.07 47.07 0 0 0-.707.081 45.435 45.435 0 0 0-1.306.177l-.335.053a38.247 38.247 0 0 0-1.161.2c-.189.034-.377.07-.565.107-.154.031-.309.061-.463.093-.213.045-.425.092-.637.14-.252.055-.504.114-.755.175l-.455.11c-.187.047-.375.096-.56.146-.127.033-.252.068-.378.102-.2.055-.399.11-.597.167l-.112.033c-.238.07-.477.14-.714.214V4.88a46.261 46.261 0 0 0-17.372 9.908v20.927a3.395 3.395 0 0 0 3.385 3.385"/><path fill="#252323" d="M49.144 13.966c4.806 0 9.488.915 13.916 2.722l1.229.501v18.527a1.412 1.412 0 0 0 1.41 1.41h10.602a1.412 1.412 0 0 0 1.41-1.41v-20.49a43.918 43.918 0 0 0-15.957-8.608 44.41 44.41 0 0 0-3.02-.78l-.048-.01c-1-.219-2.026-.407-3.046-.557l-.15-.02a44.043 44.043 0 0 0-1.344-.172l-.22-.025a44.207 44.207 0 0 0-1.481-.135l-.182-.012a45.717 45.717 0 0 0-1.278-.07l-.375-.014a41.181 41.181 0 0 0-2.496-.014l-.306.009a47.6 47.6 0 0 0-.755.028l-.302.015a47.57 47.57 0 0 0-1.007.064l-.102.009c-.302.023-.601.05-.9.08l-.343.035c-.226.024-.452.05-.678.078l-.351.043c-.301.04-.6.08-.9.126l-.32.05a88.87 88.87 0 0 0-.685.114 32.438 32.438 0 0 0-.426.077c-.182.034-.363.07-.544.105l-.057.01-.385.078a49.19 49.19 0 0 0-1.33.3l-.07.017a41.359 41.359 0 0 0-.901.229l-.366.098c-.19.052-.38.104-.568.16l-.112.032c-.223.066-.451.133-.678.203l-.321.1a44.612 44.612 0 0 0-15.66 8.808v20.039a1.412 1.412 0 0 0 1.41 1.41h10.601a1.412 1.412 0 0 0 1.411-1.41V17.432l1.199-.512a36.616 36.616 0 0 1 14.476-2.954zM76.3 41.076H65.7a5.367 5.367 0 0 1-5.361-5.36V19.872a32.74 32.74 0 0 0-11.195-1.957c-4.05 0-7.987.723-11.725 2.151v15.65a5.367 5.367 0 0 1-5.36 5.36H21.457a5.367 5.367 0 0 1-5.36-5.36V13.913l.65-.588c5.193-4.7 11.457-8.273 18.114-10.33l2.558-.792v.079l.31-.075.068-.016a44.462 44.462 0 0 1 1.452-.328c.142-.03.283-.057.424-.085l.059-.012a53.519 53.519 0 0 1 1.799-.32l.351-.056a47.54 47.54 0 0 1 .978-.137l.322-.04.063-.008c.243-.029.488-.057.733-.083l.373-.04c.331-.032.658-.061.985-.087l.12-.01c.352-.026.716-.049 1.082-.068L46.869.9a49.554 49.554 0 0 1 .825-.031l.333-.01a47.064 47.064 0 0 1 2.709.015l.344.013.065.003c.496.02.95.045 1.394.076l.198.012c.521.039 1.064.088 1.61.147l.238.027a52.1 52.1 0 0 1 1.479.189l.156.022a48.25 48.25 0 0 1 3.314.607l.053.011c1.105.244 2.212.53 3.288.849a47.847 47.847 0 0 1 18.114 10.005l.673.59v22.29a5.367 5.367 0 0 1-5.361 5.36"/><path fill="#201e1d" d="M49.144 5.643c-23.987 0-43.501 19.514-43.501 43.5 0 23.987 19.514 43.501 43.5 43.501 23.987 0 43.502-19.514 43.502-43.5 0-23.987-19.515-43.501-43.501-43.501zm0 92.644C22.046 98.287 0 76.241 0 49.144 0 22.045 22.046 0 49.144 0s49.143 22.045 49.143 49.144c0 27.097-22.045 49.143-49.143 49.143"/><path fill="#fff" d="M2.822 49.144h92.644H2.822"/><path fill="#201e1d" d="M95.466 51.965H2.82v-5.643h92.645v5.643"/><path fill="#fff" d="M66.13 49.143c0 9.382-7.605 16.986-16.986 16.986s-16.986-7.604-16.986-16.986c0-9.38 7.605-16.985 16.986-16.985 9.38 0 16.985 7.605 16.985 16.985"/><path fill="#201e1d" d="M49.144 34.98c-7.81 0-14.165 6.353-14.165 14.163 0 7.81 6.354 14.165 14.165 14.165 7.81 0 14.164-6.354 14.164-14.165 0-7.81-6.354-14.164-14.164-14.164zm0 33.97c-10.922 0-19.808-8.885-19.808-19.807 0-10.921 8.886-19.807 19.808-19.807 10.921 0 19.807 8.886 19.807 19.807 0 10.922-8.886 19.808-19.807 19.808"/><path fill="#fff" d="M56.364 49.143a7.22 7.22 0 1 1-14.441.001 7.22 7.22 0 0 1 14.441 0"/><path fill="#201e1d" d="M49.144 44.744a4.404 4.404 0 0 0-4.4 4.4c0 2.425 1.974 4.4 4.4 4.4 2.425 0 4.4-1.975 4.4-4.4a4.404 4.404 0 0 0-4.4-4.4zm0 14.442c-5.538 0-10.043-4.505-10.043-10.043 0-5.537 4.505-10.042 10.043-10.042 5.537 0 10.042 4.505 10.042 10.042 0 5.538-4.505 10.043-10.042 10.043"/></svg>