<?xml version="1.0" standalone="no"?>
<!DOCTYPE svg PUBLIC "-//W3C//DTD SVG 20010904//EN" "http://www.w3.org/TR/2001/REC-SVG-20010904/DTD/svg10.dtd">
<!-- Created using Krita: https://krita.org -->
<svg xmlns="http://www.w3.org/2000/svg" 
    xmlns:xlink="http://www.w3.org/1999/xlink"
    xmlns:krita="http://krita.org/namespaces/svg/krita"
    xmlns:sodipodi="http://sodipodi.sourceforge.net/DTD/sodipodi-0.dtd"
    width="29.76pt"
    height="29.76pt"
    viewBox="0 0 29.76 29.76">
<defs/>
<rect id="shape0" fill="#00e3ff" fill-rule="evenodd" stroke="none" stroke-width="0.48" stroke-linecap="square" stroke-linejoin="bevel" width="29.76" height="29.76" rx="8.02500003830766" ry="8.02500003830766"/><path id="shape01" transform="matrix(-0.707106781186555 0.707106781186552 -0.707106781186552 -0.707106781186555 10.3616771619191 7.3483142868674)" fill="#ff6781" fill-rule="evenodd" stroke-opacity="0" stroke="#000000" stroke-width="0" stroke-linecap="square" stroke-linejoin="bevel" d="M4.37569 5.11765L4.42314 5.31064L4.4609 5.49746L4.48898 5.67807L4.50738 5.85252L4.5161 6.0208L4.51513 6.18292L4.50448 6.33882L4.48415 6.48861L4.45413 6.63214L4.41443 6.76955L4.36504 6.90075L4.30598 7.02579L4.23723 7.14466L4.1588 7.25732L4.07069 7.36381L3.97289 7.46414L3.86541 7.55831L3.74824 7.64626L3.6214 7.72805L3.48487 7.80367L3.33866 7.87313L3.18276 7.93638L3.01719 7.99346L2.84192 8.04438L2.65698 8.08908L2.46236 8.12762L2.25805 8.16L2.25805 8.16L2.05374 8.12762L1.85912 8.08908L1.67417 8.04438L1.49891 7.99346L1.33333 7.93638L1.17744 7.87313L1.03123 7.80367L0.894697 7.72805L0.767854 7.64626L0.650692 7.55831L0.543209 7.46414L0.445413 7.36381L0.357298 7.25732L0.278867 7.14466L0.210119 7.02579L0.151053 6.90075L0.10167 6.76955L0.0619704 6.63214L0.0319535 6.48861L0.0116195 6.33882L0.000968287 6.18292L0 6.0208L0.00871459 5.85252L0.0271121 5.67807L0.0551925 5.49746L0.0929558 5.31064L0.140402 5.11765L2.25805 0" sodipodi:nodetypes="ccccccccccccccccccccccccccccccccccccccccccccccccccccccccc"/><path id="shape011" transform="matrix(0.707106781186555 0.707106781186552 0.707106781186552 -0.707106781186555 19.3383228422532 7.3483142868674)" fill="#ff6781" fill-rule="evenodd" stroke-opacity="0" stroke="#000000" stroke-width="0" stroke-linecap="square" stroke-linejoin="bevel" d="M4.37569 5.11765L4.42314 5.31064L4.4609 5.49746L4.48898 5.67807L4.50738 5.85252L4.5161 6.0208L4.51513 6.18292L4.50448 6.33882L4.48415 6.48861L4.45413 6.63214L4.41443 6.76955L4.36504 6.90075L4.30598 7.02579L4.23723 7.14466L4.1588 7.25732L4.07069 7.36381L3.97289 7.46414L3.86541 7.55831L3.74824 7.64626L3.6214 7.72805L3.48487 7.80367L3.33866 7.87313L3.18276 7.93638L3.01719 7.99346L2.84192 8.04438L2.65698 8.08908L2.46236 8.12762L2.25805 8.16L2.25805 8.16L2.05374 8.12762L1.85912 8.08908L1.67417 8.04438L1.49891 7.99346L1.33333 7.93638L1.17744 7.87313L1.03123 7.80367L0.894697 7.72805L0.767854 7.64626L0.650692 7.55831L0.543209 7.46414L0.445413 7.36381L0.357298 7.25732L0.278867 7.14466L0.210119 7.02579L0.151053 6.90075L0.10167 6.76955L0.0619704 6.63214L0.0319535 6.48861L0.0116195 6.33882L0.000968287 6.18292L0 6.0208L0.00871459 5.85252L0.0271121 5.67807L0.0551925 5.49746L0.0929558 5.31064L0.140402 5.11765L2.25805 0" sodipodi:nodetypes="ccccccccccccccccccccccccccccccccccccccccccccccccccccccccc"/><path id="shape02" transform="matrix(-0.707106781186555 -0.707106781186552 -0.707106781186552 0.707106781186555 10.3616771619191 22.4116857131326)" fill="#ff6781" fill-rule="evenodd" stroke-opacity="0" stroke="#000000" stroke-width="0" stroke-linecap="square" stroke-linejoin="bevel" d="M4.37569 5.11765L4.42314 5.31064L4.4609 5.49746L4.48898 5.67807L4.50738 5.85252L4.5161 6.0208L4.51513 6.18292L4.50448 6.33882L4.48415 6.48861L4.45413 6.63214L4.41443 6.76955L4.36504 6.90075L4.30598 7.02579L4.23723 7.14466L4.1588 7.25732L4.07069 7.36381L3.97289 7.46414L3.86541 7.55831L3.74824 7.64626L3.6214 7.72805L3.48487 7.80367L3.33866 7.87313L3.18276 7.93638L3.01719 7.99346L2.84192 8.04438L2.65698 8.08908L2.46236 8.12762L2.25805 8.16L2.25805 8.16L2.05374 8.12762L1.85912 8.08908L1.67417 8.04438L1.49891 7.99346L1.33333 7.93638L1.17744 7.87313L1.03123 7.80367L0.894697 7.72805L0.767854 7.64626L0.650692 7.55831L0.543209 7.46414L0.445413 7.36381L0.357298 7.25732L0.278867 7.14466L0.210119 7.02579L0.151053 6.90075L0.10167 6.76955L0.0619704 6.63214L0.0319535 6.48861L0.0116195 6.33882L0.000968287 6.18292L0 6.0208L0.00871459 5.85252L0.0271121 5.67807L0.0551925 5.49746L0.0929558 5.31064L0.140402 5.11765L2.25805 0" sodipodi:nodetypes="ccccccccccccccccccccccccccccccccccccccccccccccccccccccccc"/><path id="shape0111" transform="matrix(0.707106781186555 -0.707106781186552 0.707106781186552 0.707106781186555 19.3383228422532 22.4116857131326)" fill="#ff6781" fill-rule="evenodd" stroke-opacity="0" stroke="#000000" stroke-width="0" stroke-linecap="square" stroke-linejoin="bevel" d="M4.37569 5.11765L4.42314 5.31064L4.4609 5.49746L4.48898 5.67807L4.50738 5.85252L4.5161 6.0208L4.51513 6.18292L4.50448 6.33882L4.48415 6.48861L4.45413 6.63214L4.41443 6.76955L4.36504 6.90075L4.30598 7.02579L4.23723 7.14466L4.1588 7.25732L4.07069 7.36381L3.97289 7.46414L3.86541 7.55831L3.74824 7.64626L3.6214 7.72805L3.48487 7.80367L3.33866 7.87313L3.18276 7.93638L3.01719 7.99346L2.84192 8.04438L2.65698 8.08908L2.46236 8.12762L2.25805 8.16L2.25805 8.16L2.05374 8.12762L1.85912 8.08908L1.67417 8.04438L1.49891 7.99346L1.33333 7.93638L1.17744 7.87313L1.03123 7.80367L0.894697 7.72805L0.767854 7.64626L0.650692 7.55831L0.543209 7.46414L0.445413 7.36381L0.357298 7.25732L0.278867 7.14466L0.210119 7.02579L0.151053 6.90075L0.10167 6.76955L0.0619704 6.63214L0.0319535 6.48861L0.0116195 6.33882L0.000968287 6.18292L0 6.0208L0.00871459 5.85252L0.0271121 5.67807L0.0551925 5.49746L0.0929558 5.31064L0.140402 5.11765L2.25805 0" sodipodi:nodetypes="ccccccccccccccccccccccccccccccccccccccccccccccccccccccccc"/>
</svg>
