<svg xmlns="http://www.w3.org/2000/svg" viewBox="0 0 512 512"><path fill="#847c7c" d="M111.9 274h288.2v227.8H111.9z"/><g fill="#f2f2f2"><path d="M297.3 368.3A41.3 41.3 0 10239 406V454h34V406a41.3 41.3 0 0024.3-37.7zM184.5 274V124.6a71.5 71.5 0 01143 0V274h41.1V122.8a112.6 112.6 0 00-225.3 0V274h41.2z"/></g><g fill="#4d4d4d"><path d="M400 263.8h-21.2v-141a123 123 0 00-245.7 0v141H112c-5.6 0-10.2 4.6-10.2 10.2v227.8c0 5.6 4.6 10.2 10.2 10.2h288.2c5.6 0 10.2-4.6 10.2-10.2V274c0-5.6-4.6-10.2-10.2-10.2zm-246.4-141a102.5 102.5 0 01204.8 0v141h-20.7V124.6a81.8 81.8 0 00-163.4 0v139.2h-20.7v-141zm41.1 141V124.6a61.3 61.3 0 01122.6 0v139.2H194.7zM390 284.2v207.4H122V284.2H390z"/><path d="M256 316.8a51.6 51.6 0 00-27.2 95.3v42c0 5.7 4.6 10.2 10.2 10.2h34c5.6 0 10.2-4.5 10.2-10.2v-42a51.6 51.6 0 00-27.2-95.3zm12.8 79.9c-3.7 1.6-6 5.3-6 9.3v38h-13.6v-38c0-4-2.3-7.7-6-9.3a31.2 31.2 0 0112.8-59.5 31.2 31.2 0 0112.8 59.5zM145.8 342.2c-5.6 0-10.2 4.6-10.2 10.2V469a10.2 10.2 0 1020.4 0V352.4c0-5.6-4.6-10.2-10.2-10.2zM145.8 305.1c-5.6 0-10.2 4.6-10.2 10.2v5.3a10.2 10.2 0 1020.4 0v-5.3c0-5.6-4.6-10.2-10.2-10.2z"/></g></svg>