<svg xmlns="http://www.w3.org/2000/svg" viewBox="0 0 480 480">
  <defs/>
  <defs>
    <filter id="b" color-interpolation-filters="sRGB">
      <feComposite in2="SourceGraphic" k2="1.1" operator="arithmetic" result="composite1"/>
      <feColorMatrix in="composite1" result="colormatrix1" type="saturate" values="0"/>
      <feFlood flood-color="#2B7AA7" flood-opacity="1" result="flood1"/>
      <feBlend in="flood1" in2="colormatrix1" mode="multiply" result="blend1"/>
      <feBlend in2="blend1" mode="screen" result="blend2"/>
      <feColorMatrix in="blend2" result="colormatrix2" type="saturate" values="1"/>
      <feComposite in="colormatrix2" in2="SourceGraphic" k2="1" operator="in" result="composite2"/>
    </filter>
    <filter id="d" color-interpolation-filters="sRGB">
      <feComposite in2="SourceGraphic" k2="1.1" operator="arithmetic" result="composite1"/>
      <feColorMatrix in="composite1" result="colormatrix1" type="saturate" values="0"/>
      <feFlood flood-color="#2B7AA7" flood-opacity="1" result="flood1"/>
      <feBlend in="flood1" in2="colormatrix1" mode="multiply" result="blend1"/>
      <feBlend in2="blend1" mode="screen" result="blend2"/>
      <feColorMatrix in="blend2" result="colormatrix2" type="saturate" values="1"/>
      <feComposite in="colormatrix2" in2="SourceGraphic" k2="1" operator="in" result="composite2"/>
    </filter>
    <filter id="e" color-interpolation-filters="sRGB">
      <feComposite in2="SourceGraphic" k2="1.1" operator="arithmetic" result="composite1"/>
      <feColorMatrix in="composite1" result="colormatrix1" type="saturate" values="0"/>
      <feFlood flood-color="#2B7AA7" flood-opacity="1" result="flood1"/>
      <feBlend in="flood1" in2="colormatrix1" mode="multiply" result="blend1"/>
      <feBlend in2="blend1" mode="screen" result="blend2"/>
      <feColorMatrix in="blend2" result="colormatrix2" type="saturate" values="1"/>
      <feComposite in="colormatrix2" in2="SourceGraphic" k2="1" operator="in" result="composite2"/>
    </filter>
    <filter id="c" color-interpolation-filters="sRGB">
      <feComposite in2="SourceGraphic" k2="1.1" operator="arithmetic" result="composite1"/>
      <feColorMatrix in="composite1" result="colormatrix1" type="saturate" values="0"/>
      <feFlood flood-color="#2B7AA7" flood-opacity="1" result="flood1"/>
      <feBlend in="flood1" in2="colormatrix1" mode="multiply" result="blend1"/>
      <feBlend in2="blend1" mode="screen" result="blend2"/>
      <feColorMatrix in="blend2" result="colormatrix2" type="saturate" values="1"/>
      <feComposite in="colormatrix2" in2="SourceGraphic" k2="1" operator="in" result="composite2"/>
    </filter>
    <filter id="a" color-interpolation-filters="sRGB">
      <feComposite in2="SourceGraphic" k2="1.1" operator="arithmetic" result="composite1"/>
      <feColorMatrix in="composite1" result="colormatrix1" type="saturate" values="0"/>
      <feFlood flood-color="#2B7AA7" flood-opacity="1" result="flood1"/>
      <feBlend in="flood1" in2="colormatrix1" mode="multiply" result="blend1"/>
      <feBlend in2="blend1" mode="screen" result="blend2"/>
      <feColorMatrix in="blend2" result="colormatrix2" type="saturate" values="1"/>
      <feComposite in="colormatrix2" in2="SourceGraphic" k2="1" operator="in" result="composite2"/>
    </filter>
  </defs>
  <path fill="none" d="M-1-1h482v482H-1z"/>
  <path fill="#ffcb5a" d="M232 8c123.68 0 224 93.121 224 208a196.786 196.786 0 01-40.64 119.441 212.027 212.027 0 01-39.758 40.079A216.398 216.398 0 01336 400.238a233.034 233.034 0 01-48 17.203 242.32 242.32 0 01-112 0 233.034 233.034 0 01-48-17.203 216.399 216.399 0 01-39.602-24.718 212.027 212.027 0 01-39.757-40.079A196.786 196.786 0 018 216C8 101.121 108.32 8 232 8zm0 0" filter="url(#a)"/>
  <g fill="#ce893d" filter="url(#b)">
    <path d="M415.36 335.441A196.786 196.786 0 00456 216v48a196.756 196.756 0 01-40 118.559V336l-.64-.559zm0 0M376 376v47.281a217.08 217.08 0 01-39.922 24.88L336 448v-47.762a216.398 216.398 0 0039.602-24.718l.398.48zm0 0M288.32 465.36A241.198 241.198 0 01232 472v-48a238.62 238.62 0 0056-6.559V464l.32 1.36zm0 0M176 417.441V464l-.32 1.36a230.787 230.787 0 01-47.758-17.2L128 448v-47.762a233.034 233.034 0 0048 17.203zm0 0M48.64 335.441a212.027 212.027 0 0039.758 40.079L88 376v47.281a211.796 211.796 0 01-40-40.722V336l.64-.559zm0 0"/>
  </g>
  <g fill="#e6a71e" filter="url(#c)">
    <path d="M416 336v46.559a211.796 211.796 0 01-40 40.722V376l-.398-.48a212.027 212.027 0 0039.757-40.079L416 336zm0 0M336 448l.078.16a230.787 230.787 0 01-47.758 17.2L288 464v-46.559a233.034 233.034 0 0048-17.203V448zm0 0M232 424v48a241.198 241.198 0 01-56.32-6.64L176 464v-46.559A238.634 238.634 0 00232 424zm0 0M88.398 375.52A216.399 216.399 0 00128 400.238V448l-.078.16A221.413 221.413 0 0188 423.281V376l.398-.48zm0 0M8 216a196.786 196.786 0 0040.64 119.441L48 336v46.559A196.756 196.756 0 018 264v-48zm400 0c0-88.367-78.797-160-176-160S56 127.633 56 216s78.797 160 176 160 176-71.633 176-160z"/>
  </g>
  <path fill="#ffcb5a" d="M341.945 309.832l-10.937-11.664a121.664 121.664 0 0023.465-30.016l14.015 7.696a136.84 136.84 0 01-26.543 33.984zm0 0" filter="url(#d)"/>
  <path fill="#ffcb5a" d="M232 352c-83.816 0-152-61.008-152-136S148.184 80 232 80s152 61.008 152 136h-16c0-66.168-61.008-120-136-120S96 149.832 96 216s61.008 120 136 120c26.688.129 52.91-6.95 75.902-20.496l8.196 13.754A164.154 164.154 0 01232 352zm0 0" filter="url(#e)"/>
  <path fill="#404040" d="M232 384c101.465 0 184-75.367 184-168S333.465 48 232 48 48 123.367 48 216s82.535 168 184 168zm0-320c92.633 0 168 68.184 168 152s-75.367 152-168 152S64 299.816 64 216 139.367 64 232 64zm0 0"/>
  <path fill="#404040" d="M464 264v-54.398a8.543 8.543 0 00-.2-1C459.587 92.91 357.259 0 232 0 105.953 0 3.121 94.105.145 210.809c-.063.23-.11.46-.145.695V264c0 119.105 104.078 216 232 216s232-96.895 232-216zm-40 91.45v-18.345a211.362 211.362 0 0019.535-32.585A188.713 188.713 0 01424 355.45zM232 16c119.105 0 216 89.719 216 200s-96.895 200-216 200S16 326.281 16 216 112.895 16 232 16zM120 405.078v29.883a217.219 217.219 0 01-24-15.762v-28.398c7.707 5.23 15.723 10 24 14.277zm16 7.48a240.435 240.435 0 0032 11.016v31.457a223.92 223.92 0 01-32-11.941v-30.531zm48 14.762a247.971 247.971 0 0040 4.489v32a232.753 232.753 0 01-40-4.856V427.32zm56 4.489a247.971 247.971 0 0040-4.489v31.64a232.37 232.37 0 01-40 4.856V431.81zm56-8.235a240.435 240.435 0 0032-11.015v30.53a223.92 223.92 0 01-32 11.942v-31.457zm48-18.496a233.691 233.691 0 0024-14.246v28.367a217.888 217.888 0 01-24 15.73v-29.85zm-304-68v18.348a188.841 188.841 0 01-19.535-50.93A211.586 211.586 0 0040 337.106v-.028zm16 42.625v-23.215a225.64 225.64 0 0024 22.489v26.968a206.495 206.495 0 01-24-26.218v-.024zm328 26.219v-26.945a225.64 225.64 0 0024-22.489v23.239a206.495 206.495 0 01-24 26.218v-.023zm0 0"/>
  <g fill="#404040">
    <path d="M143.373 119.508c-.254-7.314 7.196-15.577 14.816-12.276 11.971 4.69 24.044 10.092 33.357 19.185 6.265 6.028 11.023 13.36 15.51 20.742a124.252 124.252 0 0110.904-1.558c4.2-10.718 7.163-21.961 12.564-32.188h4.216c2.337 4.758 4.149 9.736 5.876 14.748 1.439 3.81 2.827 7.636 4.25 11.463.71 2.049 1.49 4.08 2.235 6.113 3.725.27 7.45.558 11.192.83 5.47-8.789 11.396-17.576 19.71-23.943 8.55-7.01 18.862-11.328 29.038-15.409 5.165-2.404 10.82 1.186 13.038 5.91 2.743 4.707 1.372 10.464-.61 15.171a280.187 280.187 0 00-4.52 7.908c-.39.863-1.169 2.607-1.541 3.47-.339.932-1.016 2.795-1.338 3.71-.643 2.166-1.253 4.334-1.93 6.484a130.71 130.71 0 01-1.625 6.756c-.492 2.896-.983 5.791-1.694 8.653-.084 1.236-.254 3.69-.338 4.91 3.166 3.776 5.215 8.72 8.974 11.819 5.384-3.471 8.635-9.736 11.344-15.46 1.83-3.47 2.015-8.06 5.351-10.531 6.705-.542 10.837 5.841 14.63 10.396-.153.542-.44 1.626-.593 2.167-.406 1.575-1.202 4.742-1.609 6.333 7.01 1.422 14.19-3.115 20.81-.203-.067 6.265 1.084 14.714-5.333 18.32-3.099.458-6.096 1.914-8.196 4.285 3.218 1.304 7.874 1.304 9.804 4.792.491 5.672-1.778 11.141-2.709 16.695-3.827-.423-8.398-.762-11.446 2.184 10.075-.643 5.452 8.754 2.286 12.716-.88.356-2.642 1.067-3.54 1.44-4.097 0-8.194-.136-12.275.203-7.315 3.945-4.098 13.292-3.539 19.845 1.084 3.776 1.084 7.72.813 11.598-1.727 2.439-3.37 4.945-4.978 7.467-.932 1.406-1.88 2.811-2.828 4.234-1.287 1.862-2.608 3.725-3.895 5.587-13.427 17.508-29.191 33.594-48.07 45.227-1.474.83-2.93 1.676-4.37 2.54a497.724 497.724 0 01-10.514 5.028c-10.109 3.76-20.878 5.774-31.68 5.03l-.12-.864a365.934 365.934 0 01-7.534-.83 141.217 141.217 0 00-5.334-1.829c-2.133-.863-4.284-1.71-6.417-2.607a514.56 514.56 0 00-5.35-2.455c-26.23-14.58-47.022-37.353-63.548-62.091-7.366-9.432 1.236-21.166-1.118-31.749-3.86-6.705-11.717-3.403-17.931-4.656-4.606-1.947-6.807-7.383-5.943-12.14l4.47-1.017c.152-.745.423-2.2.559-2.929-3.387.136-6.773.288-10.16.39-1.778-5.436-3.708-11.074-3.15-16.882 1.965-3.522 6.57-3.59 9.822-5.097-3.624-4.097-11.7-3.454-12.801-9.685-.39-4.572-2.862-11.108 1.896-14.155 5.994.643 11.937 2.1 18.033 1.642-.643-2.81-1.354-5.622-2.015-8.432 3.776-4.657 8.043-10.99 14.8-10.532a166.898 166.898 0 013.013 4.047c.593 2.269 1.236 4.52 1.981 6.739 2.879 5.384 6.045 10.752 10.566 14.934.457 0 1.371.017 1.829.017 3.081-3.928 5.638-8.23 8.161-12.53-2.286-11.988-4.047-24.433-10.007-35.287-2.337-4.538-5.622-9.025-5.249-14.393m35.389 68.136c-.39.576-1.203 1.744-1.592 2.337l-1.287-.22.051 1.168a117.37 117.37 0 00-6.35 8.11c-2.269 4.657-4.47 9.483-4.216 14.8 11.565 5.91 22.893 12.31 34.17 18.744 5.554-17.288-1.473-36.693-14.511-48.715a180.668 180.668 0 01-6.265 3.776m93.585 4.318l.085.779c-1.05 1.44-2.117 2.878-3.184 4.335-.795 1.896-1.608 3.776-2.404 5.689-.914 2.641-1.693 5.35-2.625 7.992-.846 7.264-.745 14.596.356 21.826 11.954-5.808 23.502-12.48 35.067-19.015-.39-12.293-9.177-22.3-18.253-29.7-3.437 2.185-6.384 5.03-9.042 8.094m-42.805 3.37c-4.013 5.164-7.637 10.616-11.683 15.764-4.488 5.181-8.094 11.446-7.01 18.591-.373 8.348 7.822 12.97 14.477 15.781a51.05 51.05 0 0014.545 0c5.316-2.37 11.073-5.215 13.478-10.921 1.947-6.417 1.168-14.02-3.217-19.32-5.25-7.06-10.515-14.088-15.73-21.148-1.22.304-3.641.93-4.86 1.253m64.41 43.059c-1.625 2.082-3.335 4.08-4.876 6.214-.05 4.047.474 8.11 1.389 12.056.101 3.335.084 6.688 0 10.04a194.168 194.168 0 00-1.965 6.3c-8.923 1.371-13.85-7.62-19.794-12.632-3.69 2.93-7.822 5.198-12.106 7.145a475.144 475.144 0 00-8.636 3.167c-1.795.305-3.572.592-5.35.897-8.416 2.27-17.187.847-25.517-1.016-2.15-.796-4.318-1.49-6.469-2.235-4.724-1.913-9.33-4.182-13.41-7.247-.677-.135-2.032-.39-2.71-.525l.102 1.998-1.219.034c-.542.593-1.642 1.761-2.184 2.354l.05 1.168-1.811-.05.068 1.828-1.253-.17c-.424.56-1.236 1.694-1.66 2.27-2.963 2.32-6.417 3.657-10.227 3.098-3.877-9.33-.694-19.303-.525-28.87l-4.792-5.536c-1.828 4.165-3.318 8.483-4.876 12.75a112.201 112.201 0 01-1.812 5.045c-.711 2.354-1.76 4.623-2.167 7.078 8.077 13.732 17.118 27.109 28.7 38.149 8.822 8.602 19.405 16.238 31.664 18.76 10.82.729 22.452 1.474 32.171-4.283 21.386-11.514 36.168-32.053 47.953-52.71-2.574-8.467-5.723-16.764-8.737-25.077z"/>
    <path d="M226.155 207.98c2.37-2.489 3.438-8.398 7.332-8.127 2.1 3.047 4.724 5.943 5.74 9.583.407 2.896-2.641 3.996-4.318 5.673-1.557.017-3.098.034-4.656.067-1.896-1.93-6.96-3.894-4.098-7.196z"/>
    <path d="M220.55 213.246c3.641 2.692 7.13 6.722 12.04 6.604 4.978.152 8.364-3.962 12.022-6.689.338 2.777.575 5.554.745 8.348-1.355 1.795-2.743 3.59-4.098 5.385-6.468 2.827-15.628 3.234-20.15-3.099-2.505-2.997-.795-7.129-.558-10.549z"/>
    <path d="M216.165 233.87c-2.489-3.438-1.371-7.874-.931-11.768 2.506 6.112 7.89 9.82 14.139 11.344 4.86-.27 10.108-.457 14.29-3.268 2.76-2.065 4.335-5.282 6.4-7.975.797 4.267.475 8.653-1.59 12.496l-1.88 2.15c-2.422 1.525-4.928 2.947-7.23 4.657-4.454 1.016-9.042 1-13.495.119-3.455-2.286-7.552-4.013-9.703-7.755z"/>
  </g>
</svg>
