<svg xmlns="http://www.w3.org/2000/svg" viewBox="0 0 480 480"><path fill="#b18755" d="M232 8c123.68 0 224 93.121 224 208a196.786 196.786 0 01-40.64 119.441 212.027 212.027 0 01-39.758 40.079A216.398 216.398 0 01336 400.238a233.034 233.034 0 01-48 17.203 242.32 242.32 0 01-112 0 233.034 233.034 0 01-48-17.203 216.399 216.399 0 01-39.602-24.718 212.027 212.027 0 01-39.757-40.079A196.786 196.786 0 018 216C8 101.121 108.32 8 232 8zm0 0"/><path fill="#977046" d="M415.36 335.441A196.786 196.786 0 00456 216v48a196.756 196.756 0 01-40 118.559V336l-.64-.559zm0 0M376 376v47.281a217.08 217.08 0 01-39.922 24.88L336 448v-47.762a216.398 216.398 0 0039.602-24.718l.398.48zm0 0M288.32 465.36A241.198 241.198 0 01232 472v-48a238.62 238.62 0 0056-6.559V464l.32 1.36zm0 0M176 417.441V464l-.32 1.36a230.787 230.787 0 01-47.758-17.2L128 448v-47.762a233.034 233.034 0 0048 17.203zm0 0M48.64 335.441a212.027 212.027 0 0039.758 40.079L88 376v47.281a211.796 211.796 0 01-40-40.722V336l.64-.559zm0 0"/><path fill="#a47c4f" d="M416 336v46.559a211.796 211.796 0 01-40 40.722V376l-.398-.48a212.027 212.027 0 0039.757-40.079L416 336zm0 0M336 448l.078.16a230.787 230.787 0 01-47.758 17.2L288 464v-46.559a233.034 233.034 0 0048-17.203V448zm0 0M232 424v48a241.198 241.198 0 01-56.32-6.64L176 464v-46.559A238.634 238.634 0 00232 424zm0 0M88.398 375.52A216.399 216.399 0 00128 400.238V448l-.078.16A221.413 221.413 0 0188 423.281V376l.398-.48zm0 0M8 216a196.786 196.786 0 0040.64 119.441L48 336v46.559A196.756 196.756 0 018 264v-48zm400 0c0-88.367-78.797-160-176-160S56 127.633 56 216s78.797 160 176 160 176-71.633 176-160z"/><g fill="#b18755"><path d="M341.945 309.832l-10.937-11.664a121.664 121.664 0 0023.465-30.016l14.015 7.696a136.84 136.84 0 01-26.543 33.984zm0 0"/><path d="M232 352c-83.816 0-152-61.008-152-136S148.184 80 232 80s152 61.008 152 136h-16c0-66.168-61.008-120-136-120S96 149.832 96 216s61.008 120 136 120c26.688.129 52.91-6.95 75.902-20.496l8.196 13.754A164.154 164.154 0 01232 352zm0 0"/></g><g fill="#404040"><path d="M232 384c101.465 0 184-75.367 184-168S333.465 48 232 48 48 123.367 48 216s82.535 168 184 168zm0-320c92.633 0 168 68.184 168 152s-75.367 152-168 152S64 299.816 64 216 139.367 64 232 64zm0 0"/><path d="M464 264v-54.398a8.543 8.543 0 00-.2-1C459.587 92.91 357.259 0 232 0 105.953 0 3.121 94.105.145 210.809c-.063.23-.11.46-.145.695V264c0 119.105 104.078 216 232 216s232-96.895 232-216zm-40 91.45v-18.345a211.362 211.362 0 0019.535-32.585A188.713 188.713 0 01424 355.45zM232 16c119.105 0 216 89.719 216 200s-96.895 200-216 200S16 326.281 16 216 112.895 16 232 16zM120 405.078v29.883a217.219 217.219 0 01-24-15.762v-28.398c7.707 5.23 15.723 10 24 14.277zm16 7.48a240.435 240.435 0 0032 11.016v31.457a223.92 223.92 0 01-32-11.941v-30.531zm48 14.762a247.971 247.971 0 0040 4.489v32a232.753 232.753 0 01-40-4.856V427.32zm56 4.489a247.971 247.971 0 0040-4.489v31.64a232.37 232.37 0 01-40 4.856V431.81zm56-8.235a240.435 240.435 0 0032-11.015v30.53a223.92 223.92 0 01-32 11.942v-31.457zm48-18.496a233.691 233.691 0 0024-14.246v28.367a217.888 217.888 0 01-24 15.73v-29.85zm-304-68v18.348a188.841 188.841 0 01-19.535-50.93A211.586 211.586 0 0040 337.106v-.028zm16 42.625v-23.215a225.64 225.64 0 0024 22.489v26.968a206.495 206.495 0 01-24-26.218v-.024zm328 26.219v-26.945a225.64 225.64 0 0024-22.489v23.239a206.495 206.495 0 01-24 26.218v-.023zm0 0"/><path d="M244.37 242.332c13.096 13.097 35.548 11.956 50.048-2.544l21.001-21.002c2.924-2.923 3.153-7.435.512-10.075l-16.726-16.727c14.358-5.368 25.26-19.195 26.057-34.853l1.437-28.263c.095-1.891-.563-3.665-1.831-4.933-1.269-1.269-3.043-1.927-4.933-1.831l-28.263 1.436c-9.453.48-18.526 4.613-25.55 11.638-4.191 4.19-7.343 9.114-9.314 14.409l-16.725-16.725c-2.64-2.641-7.152-2.412-10.076.512l-21.001 21.001c-14.5 14.5-15.642 36.951-2.545 50.048 2.64 2.64 7.152 2.411 10.075-.512 2.924-2.924 3.153-7.436.513-10.076-7.823-7.823-7.141-21.234 1.52-29.895l15.708-15.708 14.187 14.187c3.157 3.157 4.927 7.224 5.348 11.52l-.317 6.25c-.808 4.09-2.79 8.095-5.914 11.46-.222.212-.447.418-.666.636l-21.002 21.002c-.11.11-.21.228-.313.342l-21.112 21.112c-.689-7.229-3.656-14.073-8.964-19.381l-18.97-18.97c-2.64-2.64-7.152-2.411-10.076.513l-21.001 21.001c-14.5 14.5-15.642 36.951-2.545 50.048l14.173 14.173-16.632 16.631c-2.924 2.924-3.152 7.436-.512 10.076 2.64 2.64 7.152 2.412 10.076-.512l21.598-21.598c.115-.103.232-.203.342-.313l21.002-21.002c.218-.218.425-.445.637-.666 8.67-8.05 21.603-8.51 29.229-.884l14.187 14.188-15.707 15.708c-8.662 8.661-22.073 9.343-29.896 1.52-2.64-2.641-7.152-2.412-10.076.512-2.924 2.924-3.152 7.435-.512 10.075 13.096 13.097 35.548 11.956 50.048-2.544l21.001-21.001c2.924-2.924 3.153-7.436.513-10.076l-18.97-18.97c-5.308-5.308-12.152-8.275-19.38-8.965l16.145-16.145 14.172 14.173zm40.483-12.108c-8.662 8.661-22.073 9.343-29.896 1.52L240.8 217.586l15.707-15.707c.219-.219.425-.445.637-.667 3.349-3.11 7.333-5.086 11.402-5.902l6.362-.323c4.276.431 8.322 2.198 11.465 5.341l14.188 14.188-15.708 15.708zm6.094-92.433l21.138-1.075-1.074 21.139c-.593 11.655-10.558 21.62-22.214 22.213l-12.338.628a35.918 35.918 0 00-8.017.407l-.784.04.044-.878c.422-2.623.555-5.257.4-7.85l.631-12.412c.287-5.646 2.756-11.065 6.951-15.261 4.196-4.196 9.617-6.665 15.263-6.951zm-135.908 89.678l15.708-15.708 14.187 14.188c7.626 7.625 7.167 20.559-.883 29.229-.223.213-.448.418-.666.637l-15.708 15.708-14.158-14.158c-7.823-7.824-7.141-21.235 1.52-29.896z"/></g></svg>