<svg xmlns="http://www.w3.org/2000/svg" viewBox="0 0 480 480"><path fill="#52df6a" d="M232 8c123.68 0 224 93.121 224 208a196.786 196.786 0 01-40.64 119.441 212.027 212.027 0 01-39.758 40.079A216.398 216.398 0 01336 400.238a233.034 233.034 0 01-48 17.203 242.32 242.32 0 01-112 0 233.034 233.034 0 01-48-17.203 216.399 216.399 0 01-39.602-24.718 212.027 212.027 0 01-39.757-40.079A196.786 196.786 0 018 216C8 101.121 108.32 8 232 8zm0 0"/><path fill="#3eb950" d="M415.36 335.441A196.786 196.786 0 00456 216v48a196.756 196.756 0 01-40 118.559V336l-.64-.559zm0 0M376 376v47.281a217.08 217.08 0 01-39.922 24.88L336 448v-47.762a216.398 216.398 0 0039.602-24.718l.398.48zm0 0M288.32 465.36A241.198 241.198 0 01232 472v-48a238.62 238.62 0 0056-6.559V464l.32 1.36zm0 0M176 417.441V464l-.32 1.36a230.787 230.787 0 01-47.758-17.2L128 448v-47.762a233.034 233.034 0 0048 17.203zm0 0M48.64 335.441a212.027 212.027 0 0039.758 40.079L88 376v47.281a211.796 211.796 0 01-40-40.722V336l.64-.559zm0 0"/><path fill="#46cc5c" d="M416 336v46.559a211.796 211.796 0 01-40 40.722V376l-.398-.48a212.027 212.027 0 0039.757-40.079L416 336zm0 0M336 448l.078.16a230.787 230.787 0 01-47.758 17.2L288 464v-46.559a233.034 233.034 0 0048-17.203V448zm0 0M232 424v48a241.198 241.198 0 01-56.32-6.64L176 464v-46.559A238.634 238.634 0 00232 424zm0 0M88.398 375.52A216.399 216.399 0 00128 400.238V448l-.078.16A221.413 221.413 0 0188 423.281V376l.398-.48zm0 0M8 216a196.786 196.786 0 0040.64 119.441L48 336v46.559A196.756 196.756 0 018 264v-48zm400 0c0-88.367-78.797-160-176-160S56 127.633 56 216s78.797 160 176 160 176-71.633 176-160z"/><g fill="#52df6a"><path d="M341.945 309.832l-10.937-11.664a121.664 121.664 0 0023.465-30.016l14.015 7.696a136.84 136.84 0 01-26.543 33.984zm0 0"/><path d="M232 352c-83.816 0-152-61.008-152-136S148.184 80 232 80s152 61.008 152 136h-16c0-66.168-61.008-120-136-120S96 149.832 96 216s61.008 120 136 120c26.688.129 52.91-6.95 75.902-20.496l8.196 13.754A164.154 164.154 0 01232 352zm0 0"/></g><g fill="#404040"><path d="M232 384c101.465 0 184-75.367 184-168S333.465 48 232 48 48 123.367 48 216s82.535 168 184 168zm0-320c92.633 0 168 68.184 168 152s-75.367 152-168 152S64 299.816 64 216 139.367 64 232 64zm0 0"/><path d="M464 264v-54.398a8.543 8.543 0 00-.2-1C459.587 92.91 357.259 0 232 0 105.953 0 3.121 94.105.145 210.809c-.063.23-.11.46-.145.695V264c0 119.105 104.078 216 232 216s232-96.895 232-216zm-40 91.45v-18.345a211.362 211.362 0 0019.535-32.585A188.713 188.713 0 01424 355.45zM232 16c119.105 0 216 89.719 216 200s-96.895 200-216 200S16 326.281 16 216 112.895 16 232 16zM120 405.078v29.883a217.219 217.219 0 01-24-15.762v-28.398c7.707 5.23 15.723 10 24 14.277zm16 7.48a240.435 240.435 0 0032 11.016v31.457a223.92 223.92 0 01-32-11.941v-30.531zm48 14.762a247.971 247.971 0 0040 4.489v32a232.753 232.753 0 01-40-4.856V427.32zm56 4.489a247.971 247.971 0 0040-4.489v31.64a232.37 232.37 0 01-40 4.856V431.81zm56-8.235a240.435 240.435 0 0032-11.015v30.53a223.92 223.92 0 01-32 11.942v-31.457zm48-18.496a233.691 233.691 0 0024-14.246v28.367a217.888 217.888 0 01-24 15.73v-29.85zm-304-68v18.348a188.841 188.841 0 01-19.535-50.93A211.586 211.586 0 0040 337.106v-.028zm16 42.625v-23.215a225.64 225.64 0 0024 22.489v26.968a206.495 206.495 0 01-24-26.218v-.024zm328 26.219v-26.945a225.64 225.64 0 0024-22.489v23.239a206.495 206.495 0 01-24 26.218v-.023zm0 0"/><path d="M343.79 209.69h-64.565l43.334-77.431a6.255 6.255 0 00-8.514-8.514l-77.431 43.341v-64.572a6.256 6.256 0 00-12.511 0v71.574l-11.924 6.674a39.8 39.8 0 00-2.42 1.355l-.166.093a6.289 6.289 0 00-.697.46c-.597.388-1.184.788-1.759 1.206l-25.734-25.734a6.255 6.255 0 10-8.846 8.846l25.734 25.734a39.741 39.741 0 00-3.091 5c-.034.055-.07.106-.102.163l-6.608 11.805h-71.563a6.256 6.256 0 000 12.51h64.561l-43.33 77.432a6.256 6.256 0 008.512 8.514l77.433-43.308v64.539a6.256 6.256 0 0012.51 0V257.84l12.813-7.166c.093-.053.18-.113.269-.17a39.703 39.703 0 003.885-2.49l25.734 25.734a6.234 6.234 0 004.423 1.832 6.255 6.255 0 004.423-10.678l-25.734-25.734a39.685 39.685 0 003.15-5.114c.027-.045.06-.085.086-.131l6.56-11.722h71.568a6.256 6.256 0 000-12.511zM216.1 192.905l2.108-1.18a26.932 26.932 0 0112.15-2.887c14.947 0 27.107 12.16 27.107 27.107s-12.16 27.107-27.107 27.107c-14.946 0-27.107-12.16-27.107-27.107 0-9.718 5.144-18.254 12.85-23.04zm52.01 11.03c-3.89-12.198-13.537-21.846-25.732-25.737l58.443-32.713zm-75.504 24.019c3.893 12.21 13.556 21.867 25.77 25.752l-58.487 32.713z"/><path d="M230.358 228.873c7.129 0 12.928-5.799 12.928-12.928 0-7.128-5.799-12.928-12.928-12.928-7.128 0-12.928 5.8-12.928 12.928 0 7.129 5.8 12.928 12.928 12.928zm0-13.345a.417.417 0 110 .835.417.417 0 010-.835z"/></g></svg>