<svg xmlns="http://www.w3.org/2000/svg" viewBox="0 0 480 480"><path fill="#df5259" d="M232 8c123.68 0 224 93.121 224 208a196.786 196.786 0 01-40.64 119.441 212.027 212.027 0 01-39.758 40.079A216.398 216.398 0 01336 400.238a233.034 233.034 0 01-48 17.203 242.32 242.32 0 01-112 0 233.034 233.034 0 01-48-17.203 216.399 216.399 0 01-39.602-24.718 212.027 212.027 0 01-39.757-40.079A196.786 196.786 0 018 216C8 101.121 108.32 8 232 8zm0 0"/><path fill="#b73e43" d="M415.36 335.441A196.786 196.786 0 00456 216v48a196.756 196.756 0 01-40 118.559V336l-.64-.559zm0 0M376 376v47.281a217.08 217.08 0 01-39.922 24.88L336 448v-47.762a216.398 216.398 0 0039.602-24.718l.398.48zm0 0M288.32 465.36A241.198 241.198 0 01232 472v-48a238.62 238.62 0 0056-6.559V464l.32 1.36zm0 0M176 417.441V464l-.32 1.36a230.787 230.787 0 01-47.758-17.2L128 448v-47.762a233.034 233.034 0 0048 17.203zm0 0M48.64 335.441a212.027 212.027 0 0039.758 40.079L88 376v47.281a211.796 211.796 0 01-40-40.722V336l.64-.559zm0 0"/><path fill="#cb464d" d="M416 336v46.559a211.796 211.796 0 01-40 40.722V376l-.398-.48a212.027 212.027 0 0039.757-40.079L416 336zm0 0M336 448l.078.16a230.787 230.787 0 01-47.758 17.2L288 464v-46.559a233.034 233.034 0 0048-17.203V448zm0 0M232 424v48a241.198 241.198 0 01-56.32-6.64L176 464v-46.559A238.634 238.634 0 00232 424zm0 0M88.398 375.52A216.399 216.399 0 00128 400.238V448l-.078.16A221.413 221.413 0 0188 423.281V376l.398-.48zm0 0M8 216a196.786 196.786 0 0040.64 119.441L48 336v46.559A196.756 196.756 0 018 264v-48zm400 0c0-88.367-78.797-160-176-160S56 127.633 56 216s78.797 160 176 160 176-71.633 176-160z"/><g fill="#df5259"><path d="M341.945 309.832l-10.937-11.664a121.664 121.664 0 0023.465-30.016l14.015 7.696a136.84 136.84 0 01-26.543 33.984zm0 0"/><path d="M232 352c-83.816 0-152-61.008-152-136S148.184 80 232 80s152 61.008 152 136h-16c0-66.168-61.008-120-136-120S96 149.832 96 216s61.008 120 136 120c26.688.129 52.91-6.95 75.902-20.496l8.196 13.754A164.154 164.154 0 01232 352zm0 0"/></g><g fill="#404040"><path d="M232 384c101.465 0 184-75.367 184-168S333.465 48 232 48 48 123.367 48 216s82.535 168 184 168zm0-320c92.633 0 168 68.184 168 152s-75.367 152-168 152S64 299.816 64 216 139.367 64 232 64zm0 0"/><path d="M464 264v-54.398a8.543 8.543 0 00-.2-1C459.587 92.91 357.259 0 232 0 105.953 0 3.121 94.105.145 210.809c-.063.23-.11.46-.145.695V264c0 119.105 104.078 216 232 216s232-96.895 232-216zm-40 91.45v-18.345a211.362 211.362 0 0019.535-32.585A188.713 188.713 0 01424 355.45zM232 16c119.105 0 216 89.719 216 200s-96.895 200-216 200S16 326.281 16 216 112.895 16 232 16zM120 405.078v29.883a217.219 217.219 0 01-24-15.762v-28.398c7.707 5.23 15.723 10 24 14.277zm16 7.48a240.435 240.435 0 0032 11.016v31.457a223.92 223.92 0 01-32-11.941v-30.531zm48 14.762a247.971 247.971 0 0040 4.489v32a232.753 232.753 0 01-40-4.856V427.32zm56 4.489a247.971 247.971 0 0040-4.489v31.64a232.37 232.37 0 01-40 4.856V431.81zm56-8.235a240.435 240.435 0 0032-11.015v30.53a223.92 223.92 0 01-32 11.942v-31.457zm48-18.496a233.691 233.691 0 0024-14.246v28.367a217.888 217.888 0 01-24 15.73v-29.85zm-304-68v18.348a188.841 188.841 0 01-19.535-50.93A211.586 211.586 0 0040 337.106v-.028zm16 42.625v-23.215a225.64 225.64 0 0024 22.489v26.968a206.495 206.495 0 01-24-26.218v-.024zm328 26.219v-26.945a225.64 225.64 0 0024-22.489v23.239a206.495 206.495 0 01-24 26.218v-.023zm0 0"/><path d="M317.607 292.088l-10.043-15.814 9.745-10.988a3.102 3.102 0 00-1.668-5.091l-51.076-10.991 17.247-3.81a3.096 3.096 0 001.284-.607 3.104 3.104 0 001.153-2.413v-30.525a3.102 3.102 0 00-2.45-3.032l-27.172-5.847v-23.61h4.023c5.639 0 10.226-4.587 10.226-10.225 0-5.64-4.587-10.226-10.226-10.226h-12.276v-56.44c3.8-.798 6.663-4.175 6.663-8.209 0-4.626-3.764-8.39-8.39-8.39h-28.273c-4.626 0-8.39 3.764-8.39 8.39 0 4.034 2.862 7.41 6.663 8.21v56.438h-12.276c-5.64 0-10.226 4.587-10.226 10.226 0 5.639 4.587 10.226 10.226 10.226h4.02v13.23l-59.705-12.848a3.1 3.1 0 00-3.271 4.696l10.043 15.813-9.745 10.99a3.102 3.102 0 001.667 5.09l51.077 10.991-17.25 3.803a3.097 3.097 0 00-2.434 3.027v30.524a3.102 3.102 0 002.45 3.033l27.168 5.847v47.76c0 .609.178 1.204.514 1.712l21.016 31.783a3.103 3.103 0 005.176 0l21.016-31.783a3.103 3.103 0 00.514-1.712v-37.38l59.709 12.847a3.103 3.103 0 003.271-4.695zm-111.219-55.404l-11.933-2.568 11.933-2.627zm6.205-5.889l14.814 3.188v7.225l-14.814-3.188zm21.018 4.523l14.81 3.186v7.225l-14.81-3.187zm21.014 4.521l11.941 2.57-11.94 2.631zm-6.202-38.205l-14.812-3.187V179.36h14.812zm-8.254-67.753h-19.318v-6.204h19.318zm0-12.408h-19.318v-6.204h19.318zm0-12.409h-19.318v-6.414h19.318zm-19.318 31.021h19.318v6.204h-19.318zm-4.477-48.01h28.273c1.204 0 2.185.98 2.185 2.185s-.98 2.185-2.185 2.185h-28.273a2.188 2.188 0 01-2.185-2.185c0-1.204.98-2.185 2.185-2.185zm4.477 60.419h19.318v6.414h-19.318zm-22.502 16.64a4.026 4.026 0 014.022-4.021h56.28a4.026 4.026 0 014.02 4.022 4.027 4.027 0 01-4.02 4.021h-56.28a4.026 4.026 0 01-4.022-4.021zm14.246 10.227h14.812v17.751l-14.812-3.187zm-52.944 23.259a3.102 3.102 0 00.297-3.722l-7.324-11.532 125.42 26.988v24.178l-126.166-27.149zm52.944 72.27l14.812 3.188v64.706l-14.812-22.4zm35.828 45.493l-14.812 22.4v-63.37l14.812 3.188zm-65.446-58.212v-24.178l126.166 27.15-7.772 8.763a3.102 3.102 0 00-.298 3.721l7.324 11.532z"/></g></svg>