<?xml version="1.0" encoding="UTF-8" standalone="no"?>
<svg
   xmlns:osb="http://www.openswatchbook.org/uri/2009/osb"
   xmlns:dc="http://purl.org/dc/elements/1.1/"
   xmlns:cc="http://creativecommons.org/ns#"
   xmlns:rdf="http://www.w3.org/1999/02/22-rdf-syntax-ns#"
   xmlns:svg="http://www.w3.org/2000/svg"
   xmlns="http://www.w3.org/2000/svg"
   xmlns:sodipodi="http://sodipodi.sourceforge.net/DTD/sodipodi-0.dtd"
   xmlns:inkscape="http://www.inkscape.org/namespaces/inkscape"
   viewBox="0 0 480 480"
   version="1.1"
   id="svg313"
   sodipodi:docname="coin-orange2.svg"
   inkscape:version="1.0.2-2 (e86c870879, 2021-01-15)">
  <metadata
     id="metadata317">
    <rdf:RDF>
      <cc:Work
         rdf:about="">
        <dc:format>image/svg+xml</dc:format>
        <dc:type
           rdf:resource="http://purl.org/dc/dcmitype/StillImage" />
        <dc:title></dc:title>
      </cc:Work>
    </rdf:RDF>
  </metadata>
  <sodipodi:namedview
     pagecolor="#ffffff"
     bordercolor="#666666"
     borderopacity="1"
     objecttolerance="10"
     gridtolerance="10"
     guidetolerance="10"
     inkscape:pageopacity="0"
     inkscape:pageshadow="2"
     inkscape:window-width="1366"
     inkscape:window-height="745"
     id="namedview315"
     showgrid="false"
     inkscape:zoom="1.6334978"
     inkscape:cx="210.15735"
     inkscape:cy="217.53739"
     inkscape:window-x="-8"
     inkscape:window-y="-8"
     inkscape:window-maximized="1"
     inkscape:current-layer="g1245" />
  <defs
     id="defs291">
    <linearGradient
       id="linearGradient1189"
       osb:paint="solid">
      <stop
         style="stop-color:#000000;stop-opacity:1;"
         offset="0"
         id="stop1187" />
    </linearGradient>
    <inkscape:path-effect
       effect="powerstroke"
       id="path-effect1159"
       is_visible="true"
       lpeversion="1"
       offset_points="0,0.5"
       sort_points="true"
       interpolator_type="CubicBezierJohan"
       interpolator_beta="0.2"
       start_linecap_type="zerowidth"
       linejoin_type="extrp_arc"
       miter_limit="4"
       scale_width="1"
       end_linecap_type="zerowidth" />
    <linearGradient
       id="linearGradient1151"
       osb:paint="solid">
      <stop
         style="stop-color:#404040;stop-opacity:1;"
         offset="0"
         id="stop1149" />
    </linearGradient>
    <filter
       id="b"
       color-interpolation-filters="sRGB">
      <feComposite
         in2="SourceGraphic"
         k2="1.1"
         operator="arithmetic"
         result="composite1"
         id="feComposite216" />
      <feColorMatrix
         in="composite1"
         result="colormatrix1"
         type="saturate"
         values="0"
         id="feColorMatrix218" />
      <feFlood
         flood-color="#E4570E"
         flood-opacity=".957"
         result="flood1"
         id="feFlood220" />
      <feBlend
         in="flood1"
         in2="colormatrix1"
         mode="multiply"
         result="blend1"
         id="feBlend222" />
      <feBlend
         in2="blend1"
         mode="screen"
         result="blend2"
         id="feBlend224" />
      <feColorMatrix
         in="blend2"
         result="colormatrix2"
         type="saturate"
         values="1"
         id="feColorMatrix226" />
      <feComposite
         in="colormatrix2"
         in2="SourceGraphic"
         k2="1"
         operator="in"
         result="composite2"
         id="feComposite228" />
    </filter>
    <filter
       id="d"
       color-interpolation-filters="sRGB">
      <feComposite
         in2="SourceGraphic"
         k2="1.1"
         operator="arithmetic"
         result="composite1"
         id="feComposite231" />
      <feColorMatrix
         in="composite1"
         result="colormatrix1"
         type="saturate"
         values="0"
         id="feColorMatrix233" />
      <feFlood
         flood-color="#E4570E"
         flood-opacity=".957"
         result="flood1"
         id="feFlood235" />
      <feBlend
         in="flood1"
         in2="colormatrix1"
         mode="multiply"
         result="blend1"
         id="feBlend237" />
      <feBlend
         in2="blend1"
         mode="screen"
         result="blend2"
         id="feBlend239" />
      <feColorMatrix
         in="blend2"
         result="colormatrix2"
         type="saturate"
         values="1"
         id="feColorMatrix241" />
      <feComposite
         in="colormatrix2"
         in2="SourceGraphic"
         k2="1"
         operator="in"
         result="composite2"
         id="feComposite243" />
    </filter>
    <filter
       id="e"
       color-interpolation-filters="sRGB">
      <feComposite
         in2="SourceGraphic"
         k2="1.1"
         operator="arithmetic"
         result="composite1"
         id="feComposite246" />
      <feColorMatrix
         in="composite1"
         result="colormatrix1"
         type="saturate"
         values="0"
         id="feColorMatrix248" />
      <feFlood
         flood-color="#E4570E"
         flood-opacity=".957"
         result="flood1"
         id="feFlood250" />
      <feBlend
         in="flood1"
         in2="colormatrix1"
         mode="multiply"
         result="blend1"
         id="feBlend252" />
      <feBlend
         in2="blend1"
         mode="screen"
         result="blend2"
         id="feBlend254" />
      <feColorMatrix
         in="blend2"
         result="colormatrix2"
         type="saturate"
         values="1"
         id="feColorMatrix256" />
      <feComposite
         in="colormatrix2"
         in2="SourceGraphic"
         k2="1"
         operator="in"
         result="composite2"
         id="feComposite258" />
    </filter>
    <filter
       id="c"
       color-interpolation-filters="sRGB">
      <feComposite
         in2="SourceGraphic"
         k2="1.1"
         operator="arithmetic"
         result="composite1"
         id="feComposite261" />
      <feColorMatrix
         in="composite1"
         result="colormatrix1"
         type="saturate"
         values="0"
         id="feColorMatrix263" />
      <feFlood
         flood-color="#E4570E"
         flood-opacity=".957"
         result="flood1"
         id="feFlood265" />
      <feBlend
         in="flood1"
         in2="colormatrix1"
         mode="multiply"
         result="blend1"
         id="feBlend267" />
      <feBlend
         in2="blend1"
         mode="screen"
         result="blend2"
         id="feBlend269" />
      <feColorMatrix
         in="blend2"
         result="colormatrix2"
         type="saturate"
         values="1"
         id="feColorMatrix271" />
      <feComposite
         in="colormatrix2"
         in2="SourceGraphic"
         k2="1"
         operator="in"
         result="composite2"
         id="feComposite273" />
    </filter>
    <filter
       id="a"
       color-interpolation-filters="sRGB">
      <feComposite
         in2="SourceGraphic"
         k2="1.1"
         operator="arithmetic"
         result="composite1"
         id="feComposite276" />
      <feColorMatrix
         in="composite1"
         result="colormatrix1"
         type="saturate"
         values="0"
         id="feColorMatrix278" />
      <feFlood
         flood-color="#E4570E"
         flood-opacity=".957"
         result="flood1"
         id="feFlood280" />
      <feBlend
         in="flood1"
         in2="colormatrix1"
         mode="multiply"
         result="blend1"
         id="feBlend282" />
      <feBlend
         in2="blend1"
         mode="screen"
         result="blend2"
         id="feBlend284" />
      <feColorMatrix
         in="blend2"
         result="colormatrix2"
         type="saturate"
         values="1"
         id="feColorMatrix286" />
      <feComposite
         in="colormatrix2"
         in2="SourceGraphic"
         k2="1"
         operator="in"
         result="composite2"
         id="feComposite288" />
    </filter>
  </defs>
  <path
     fill="none"
     d="M-1-1h482v482H-1z"
     id="path293" />
  <path
     fill="#ffcb5a"
     d="M232 8c123.68 0 224 93.121 224 208a196.786 196.786 0 01-40.64 119.441 212.027 212.027 0 01-39.758 40.079A216.398 216.398 0 01336 400.238a233.034 233.034 0 01-48 17.203 242.32 242.32 0 01-112 0 233.034 233.034 0 01-48-17.203 216.399 216.399 0 01-39.602-24.718 212.027 212.027 0 01-39.757-40.079A196.786 196.786 0 018 216C8 101.121 108.32 8 232 8zm0 0"
     filter="url(#a)"
     id="path295" />
  <g
     fill="#ce893d"
     filter="url(#b)"
     id="g299">
    <path
       d="M415.36 335.441A196.786 196.786 0 00456 216v48a196.756 196.756 0 01-40 118.559V336l-.64-.559zm0 0M376 376v47.281a217.08 217.08 0 01-39.922 24.88L336 448v-47.762a216.398 216.398 0 0039.602-24.718l.398.48zm0 0M288.32 465.36A241.198 241.198 0 01232 472v-48a238.62 238.62 0 0056-6.559V464l.32 1.36zm0 0M176 417.441V464l-.32 1.36a230.787 230.787 0 01-47.758-17.2L128 448v-47.762a233.034 233.034 0 0048 17.203zm0 0M48.64 335.441a212.027 212.027 0 0039.758 40.079L88 376v47.281a211.796 211.796 0 01-40-40.722V336l.64-.559zm0 0"
       id="path297" />
  </g>
  <g
     fill="#e6a71e"
     filter="url(#c)"
     id="g303">
    <path
       d="M416 336v46.559a211.796 211.796 0 01-40 40.722V376l-.398-.48a212.027 212.027 0 0039.757-40.079L416 336zm0 0M336 448l.078.16a230.787 230.787 0 01-47.758 17.2L288 464v-46.559a233.034 233.034 0 0048-17.203V448zm0 0M232 424v48a241.198 241.198 0 01-56.32-6.64L176 464v-46.559A238.634 238.634 0 00232 424zm0 0M88.398 375.52A216.399 216.399 0 00128 400.238V448l-.078.16A221.413 221.413 0 0188 423.281V376l.398-.48zm0 0M8 216a196.786 196.786 0 0040.64 119.441L48 336v46.559A196.756 196.756 0 018 264v-48zm400 0c0-88.367-78.797-160-176-160S56 127.633 56 216s78.797 160 176 160 176-71.633 176-160z"
       id="path301" />
  </g>
  <path
     fill="#ffcb5a"
     d="M341.945 309.832l-10.937-11.664a121.664 121.664 0 0023.465-30.016l14.015 7.696a136.84 136.84 0 01-26.543 33.984zm0 0"
     filter="url(#d)"
     id="path305" />
  <path
     fill="#ffcb5a"
     d="M232 352c-83.816 0-152-61.008-152-136S148.184 80 232 80s152 61.008 152 136h-16c0-66.168-61.008-120-136-120S96 149.832 96 216s61.008 120 136 120c26.688.129 52.91-6.95 75.902-20.496l8.196 13.754A164.154 164.154 0 01232 352zm0 0"
     filter="url(#e)"
     id="path307" />
  <path
     fill="#404040"
     d="M232 384c101.465 0 184-75.367 184-168S333.465 48 232 48 48 123.367 48 216s82.535 168 184 168zm0-320c92.633 0 168 68.184 168 152s-75.367 152-168 152S64 299.816 64 216 139.367 64 232 64zm0 0"
     id="path309" />
  <path
     fill="#404040"
     d="M464 264v-54.398a8.543 8.543 0 00-.2-1C459.587 92.91 357.259 0 232 0 105.953 0 3.121 94.105.145 210.809c-.063.23-.11.46-.145.695V264c0 119.105 104.078 216 232 216s232-96.895 232-216zm-40 91.45v-18.345a211.362 211.362 0 0019.535-32.585A188.713 188.713 0 01424 355.45zM232 16c119.105 0 216 89.719 216 200s-96.895 200-216 200S16 326.281 16 216 112.895 16 232 16zM120 405.078v29.883a217.219 217.219 0 01-24-15.762v-28.398c7.707 5.23 15.723 10 24 14.277zm16 7.48a240.435 240.435 0 0032 11.016v31.457a223.92 223.92 0 01-32-11.941v-30.531zm48 14.762a247.971 247.971 0 0040 4.489v32a232.753 232.753 0 01-40-4.856V427.32zm56 4.489a247.971 247.971 0 0040-4.489v31.64a232.37 232.37 0 01-40 4.856V431.81zm56-8.235a240.435 240.435 0 0032-11.015v30.53a223.92 223.92 0 01-32 11.942v-31.457zm48-18.496a233.691 233.691 0 0024-14.246v28.367a217.888 217.888 0 01-24 15.73v-29.85zm-304-68v18.348a188.841 188.841 0 01-19.535-50.93A211.586 211.586 0 0040 337.106v-.028zm16 42.625v-23.215a225.64 225.64 0 0024 22.489v26.968a206.495 206.495 0 01-24-26.218v-.024zm328 26.219v-26.945a225.64 225.64 0 0024-22.489v23.239a206.495 206.495 0 01-24 26.218v-.023zm0 0"
     id="path311" />
  <g
     inkscape:groupmode="layer"
     id="layer1"
     inkscape:label="Layer 1"
     style="display:inline" />
  <g
     id="g1245"
     transform="matrix(1.3463095,0,0,1.2922534,-76.573298,-62.024651)">
    <path
       id="rect1147"
       style="display:inline;fill:#404040;fill-opacity:1;stroke:none;stroke-width:26.9639;stroke-linecap:round;stroke-opacity:1"
       d="M 224.79102 148.45312 C 215.40997 148.45313 207.85742 155.70265 207.85742 164.70703 L 207.85742 190.66992 C 207.85742 199.6743 215.40997 206.92188 224.79102 206.92188 L 239.49609 206.92188 C 248.87714 206.92188 256.42773 199.6743 256.42773 190.66992 L 256.42773 164.70703 C 256.42773 155.70265 248.87714 148.45312 239.49609 148.45312 L 224.79102 148.45312 z M 234.22852 156.93945 C 234.22852 156.93945 240.44693 158.88837 240.76562 173.40234 C 241.10208 188.72539 235.39258 193.56055 235.39258 193.56055 C 235.39258 193.56055 236.37614 181.11376 236.16992 174.88672 C 235.97076 168.87261 234.22852 156.93945 234.22852 156.93945 z M 213.25781 159.22461 A 2.1154488 19.803351 0 0 1 215.38281 178.29102 L 215.38477 179.02734 A 2.1154488 19.803351 0 0 1 213.28906 198.83008 A 2.1154488 19.803351 0 0 1 211.1543 179.39648 A 2.1154488 19.803351 0 0 1 213.21094 159.23242 A 2.1154488 19.803351 0 0 1 213.25781 159.22461 z "
       transform="matrix(0.74277126,0,0,0.77384203,56.876445,47.997282)" />
    <path
       id="path1163"
       style="display:inline;fill:#404040;fill-opacity:1;stroke:none;stroke-width:1.319px;stroke-linecap:butt;stroke-linejoin:miter;stroke-opacity:1"
       d="M 137.23633 107.27344 C 136.05332 107.28006 134.97456 107.45198 134.01953 107.80664 C 118.73904 113.48129 95.616863 169.98195 103.24219 175.50586 C 110.8675 181.02976 188.10591 202.18593 201.78125 185.88086 C 201.78125 185.88086 203.45602 181.0474 204.0918 174.5625 C 195.76136 160.60604 181.79819 154.04709 169.58398 145.19141 C 177.68677 150.06419 194.86646 152.38967 203.83203 163.42969 C 203.43722 161.04597 202.78857 158.66027 201.78125 156.38086 C 196.38419 144.16808 154.98151 107.17413 137.23633 107.27344 z M 136.63477 142.7168 C 153.74979 142.43225 178.14389 162.88746 194.84375 175.91797 C 198.31308 178.62501 194.75483 186.33045 190.64453 186.49609 C 157.46343 187.83317 108.88274 177.18953 109.31445 170.26758 C 109.74619 163.34566 118.92831 152.88774 126.13281 146.57422 C 129.12317 143.95367 132.68515 142.78246 136.63477 142.7168 z "
       transform="matrix(0.74277126,0,0,0.77384203,56.876445,47.997282)" />
    <path
       id="path1163-8"
       style="display:inline;fill:#404040;fill-opacity:1;stroke:none;stroke-width:1.319px;stroke-linecap:butt;stroke-linejoin:miter;stroke-opacity:1"
       d="M 327.05078 107.27344 C 309.3056 107.17413 267.90096 144.16808 262.50391 156.38086 C 261.28945 159.129 260.60766 162.02863 260.25586 164.89648 C 269.29688 154.15524 286.19603 151.82502 294.21289 147.00391 C 282.2775 155.65744 268.67306 162.11702 260.28516 175.42969 C 260.97713 181.47319 262.50391 185.88086 262.50391 185.88086 C 276.17925 202.18593 353.41961 181.02976 361.04492 175.50586 C 368.67024 169.98195 345.54807 113.48129 330.26758 107.80664 C 329.31255 107.45198 328.23379 107.28006 327.05078 107.27344 z M 327.85547 143.64453 C 331.80509 143.7102 335.36707 144.87945 338.35742 147.5 C 345.56192 153.81352 354.74404 164.27144 355.17578 171.19336 C 355.60749 178.11531 307.0268 188.75895 273.8457 187.42188 C 269.7354 187.25624 266.17715 179.55079 269.64648 176.84375 C 286.34634 163.81324 310.74045 143.35998 327.85547 143.64453 z "
       transform="matrix(0.74277126,0,0,0.77384203,56.876445,47.997282)" />
    <path
       id="path1185"
       style="fill:#404040;fill-opacity:1;stroke:none;stroke-width:1.319px;stroke-linecap:butt;stroke-linejoin:miter;stroke-opacity:1"
       d="M 150.50195 191.4082 C 150.50195 191.4082 111.66474 234.56028 112.31641 245.38281 C 112.96807 256.20534 156.11578 271.32392 168.31055 270.28125 C 180.50531 269.23858 204.33984 192.57812 204.33984 192.57812 C 199.96543 193.59635 195.0213 194.36544 189.67969 194.78516 C 183.5392 206.74245 170.73434 219.24794 157.91797 231.75586 C 163.02719 219.51867 174.97305 208.43876 172.13477 194.85547 C 165.12902 194.38058 157.8265 193.29066 150.50195 191.4082 z "
       transform="matrix(0.74277126,0,0,0.77384203,56.876445,47.997282)" />
    <path
       id="path1185-3"
       style="fill:#404040;fill-opacity:1;stroke:none;stroke-width:1.319px;stroke-linecap:butt;stroke-linejoin:miter;stroke-opacity:1"
       d="M 313.7832 191.46094 C 308.58059 192.79805 303.39137 193.73072 298.30859 194.33398 C 295.0376 208.16194 307.21848 219.37228 312.39453 231.76953 C 299.70503 219.38542 287.03788 207.00395 280.82812 195.1543 C 273.0892 194.95967 265.97274 194.03385 259.94531 192.63086 C 259.94531 192.63086 283.7818 269.29132 295.97656 270.33398 C 308.17133 271.37665 351.31904 256.25808 351.9707 245.43555 C 352.62237 234.61302 313.7832 191.46094 313.7832 191.46094 z "
       transform="matrix(0.74277126,0,0,0.77384203,56.876445,47.997282)" />
    <path
       style="fill:#404040;fill-opacity:1;stroke:none;stroke-width:1px;stroke-linecap:butt;stroke-linejoin:miter;stroke-opacity:1"
       d="m 224.70374,209.31205 c 1.17382,-1.44346 -18.66155,103.05294 -25.60105,106.04467 -6.9395,2.99173 -46.91168,-16.92761 -49.7833,-23.38479 -2.87162,-6.45718 21.1559,-33.46125 21.1559,-33.46125 0,0 12.97688,5.14549 17.87211,0.14409 4.89523,-5.0014 23.17171,-58.0648 22.88577,-55.1382 -0.28593,2.9266 12.29675,7.23893 13.47057,5.79548 z"
       id="path1213"
       sodipodi:nodetypes="szzczzs" />
    <path
       id="path1213-3"
       style="fill:#404040;fill-opacity:1;stroke:none;stroke-width:1.319px;stroke-linecap:butt;stroke-linejoin:miter;stroke-opacity:1"
       d="M 257.21875 201.3125 C 257.18328 201.29347 257.16961 201.3408 257.18164 201.45898 C 257.56659 205.24089 244.02601 209.47666 239.04688 208.94727 C 239.04688 208.94727 264.17096 342.11831 273.51367 345.98438 C 282.85639 349.85044 336.67102 324.10994 340.53711 315.76562 C 344.4032 307.42132 312.05469 272.52539 312.05469 272.52539 C 312.05469 272.52539 294.58464 279.17401 287.99414 272.71094 C 281.6096 266.44983 258.31824 201.90233 257.21875 201.3125 z M 258.10547 233.60352 C 268.93479 258.67614 279.43332 283.80691 297.2793 307.64258 C 297.2793 307.64258 286.32451 301.13191 277.6543 288.8125 C 276.19871 294.72729 275.41755 301.26819 275.24805 308.37891 C 272.33345 299.55331 270.58506 287.89771 269.91211 273.63477 C 262.58231 251.75148 258.10547 233.60352 258.10547 233.60352 z "
       transform="matrix(0.74277126,0,0,0.77384203,56.876445,47.997282)" />
  </g>
</svg>
