<svg xmlns="http://www.w3.org/2000/svg" viewBox="0 0 480 480"><path fill="#45a8cf" d="M232 8c123.68 0 224 93.121 224 208a196.786 196.786 0 01-40.64 119.441 212.027 212.027 0 01-39.758 40.079A216.398 216.398 0 01336 400.238a233.034 233.034 0 01-48 17.203 242.32 242.32 0 01-112 0 233.034 233.034 0 01-48-17.203 216.399 216.399 0 01-39.602-24.718 212.027 212.027 0 01-39.757-40.079A196.786 196.786 0 018 216C8 101.121 108.32 8 232 8zm0 0"/><path fill="#3383a7" d="M415.36 335.441A196.786 196.786 0 00456 216v48a196.756 196.756 0 01-40 118.559V336l-.64-.559zm0 0M376 376v47.281a217.08 217.08 0 01-39.922 24.88L336 448v-47.762a216.398 216.398 0 0039.602-24.718l.398.48zm0 0M288.32 465.36A241.198 241.198 0 01232 472v-48a238.62 238.62 0 0056-6.559V464l.32 1.36zm0 0M176 417.441V464l-.32 1.36a230.787 230.787 0 01-47.758-17.2L128 448v-47.762a233.034 233.034 0 0048 17.203zm0 0M48.64 335.441a212.027 212.027 0 0039.758 40.079L88 376v47.281a211.796 211.796 0 01-40-40.722V336l.64-.559zm0 0"/><path fill="#3c94bb" d="M416 336v46.559a211.796 211.796 0 01-40 40.722V376l-.398-.48a212.027 212.027 0 0039.757-40.079L416 336zm0 0M336 448l.078.16a230.787 230.787 0 01-47.758 17.2L288 464v-46.559a233.034 233.034 0 0048-17.203V448zm0 0M232 424v48a241.198 241.198 0 01-56.32-6.64L176 464v-46.559A238.634 238.634 0 00232 424zm0 0M88.398 375.52A216.399 216.399 0 00128 400.238V448l-.078.16A221.413 221.413 0 0188 423.281V376l.398-.48zm0 0M8 216a196.786 196.786 0 0040.64 119.441L48 336v46.559A196.756 196.756 0 018 264v-48zm400 0c0-88.367-78.797-160-176-160S56 127.633 56 216s78.797 160 176 160 176-71.633 176-160z"/><g fill="#45a8cf"><path d="M341.945 309.832l-10.937-11.664a121.664 121.664 0 0023.465-30.016l14.015 7.696a136.84 136.84 0 01-26.543 33.984zm0 0"/><path d="M232 352c-83.816 0-152-61.008-152-136S148.184 80 232 80s152 61.008 152 136h-16c0-66.168-61.008-120-136-120S96 149.832 96 216s61.008 120 136 120c26.688.129 52.91-6.95 75.902-20.496l8.196 13.754A164.154 164.154 0 01232 352zm0 0"/></g><g fill="#404040"><path d="M232 384c101.465 0 184-75.367 184-168S333.465 48 232 48 48 123.367 48 216s82.535 168 184 168zm0-320c92.633 0 168 68.184 168 152s-75.367 152-168 152S64 299.816 64 216 139.367 64 232 64zm0 0"/><path d="M464 264v-54.398a8.543 8.543 0 00-.2-1C459.587 92.91 357.259 0 232 0 105.953 0 3.121 94.105.145 210.809c-.063.23-.11.46-.145.695V264c0 119.105 104.078 216 232 216s232-96.895 232-216zm-40 91.45v-18.345a211.362 211.362 0 0019.535-32.585A188.713 188.713 0 01424 355.45zM232 16c119.105 0 216 89.719 216 200s-96.895 200-216 200S16 326.281 16 216 112.895 16 232 16zM120 405.078v29.883a217.219 217.219 0 01-24-15.762v-28.398c7.707 5.23 15.723 10 24 14.277zm16 7.48a240.435 240.435 0 0032 11.016v31.457a223.92 223.92 0 01-32-11.941v-30.531zm48 14.762a247.971 247.971 0 0040 4.489v32a232.753 232.753 0 01-40-4.856V427.32zm56 4.489a247.971 247.971 0 0040-4.489v31.64a232.37 232.37 0 01-40 4.856V431.81zm56-8.235a240.435 240.435 0 0032-11.015v30.53a223.92 223.92 0 01-32 11.942v-31.457zm48-18.496a233.691 233.691 0 0024-14.246v28.367a217.888 217.888 0 01-24 15.73v-29.85zm-304-68v18.348a188.841 188.841 0 01-19.535-50.93A211.586 211.586 0 0040 337.106v-.028zm16 42.625v-23.215a225.64 225.64 0 0024 22.489v26.968a206.495 206.495 0 01-24-26.218v-.024zm328 26.219v-26.945a225.64 225.64 0 0024-22.489v23.239a206.495 206.495 0 01-24 26.218v-.023zm0 0"/><path d="M143.4 119.5c-.3-7.3 7.2-15.6 14.8-12.3a97 97 0 0133.3 19.2c6.3 6 11 13.4 15.6 20.8 3.6-.7 7.2-1.2 10.9-1.6 4.2-10.7 10.8-30.5 12.5-32.2 1.8-1.7 3.1-1.3 4.2 0 1.1 1.4 8.5 21.7 12.4 32.3l11.2.9a86.5 86.5 0 0119.7-24c8.6-7 18.9-11.3 29-15.4 5.2-2.4 10.9 1.2 13 6 2.8 4.6 1.5 10.4-.5 15.1-7.6 12.6-12 29.1-13 41.9 3.1 3.8 5.2 8.7 9 11.8 5.3-3.5 8.6-9.7 11.3-15.5 1.8-3.4 2-8 5.4-10.5 6.7-.5 10.8 5.9 14.6 10.4.2 3-1.5 5.7-2.2 8.5 7 1.4 14.2-3.1 20.8-.2 0 6.3 1 14.7-5.3 18.3-3 1.5-6.1 2-8.2 4.3 3.2 1.3 7.8 1.3 9.8 4.8.5 5.7-1.8 11.1-2.7 16.7-3.9-.4-8-.3-11.5 2.2 10 2.4 5.5 8.7 2.3 12.7-5 2.5-11.1 1.3-15.8 1.6-7.3 4-4.1 13.3-3.6 19.9 1.1 3.8 1.1 10.3-1.2 14.2a195.5 195.5 0 01-57.7 59.9l-4.4 2.5c-3.5 1.8-7 3.4-10.5 5a69.8 69.8 0 01-56.4-3.5c-26.3-14.6-47-37.3-63.6-62-7.3-9.5 1.3-21.2-1.1-31.8-3.9-6.7-11.7-3.4-18-4.7-4.5-2-6.7-7.4-5.9-12.1 1.8-2 2-2.6 6.3-4a19 19 0 00-11.4.1c-1.7-5.4-3.7-10.8-3.2-16.6 2-3.5 6.6-3.6 9.9-5-3.7-4.2-10.7-4-12.8-9.7-.4-4.6-2.9-11.2 1.9-14.2 6 .6 11.9 2.1 18 1.6-.6-2.8-2.6-4.8-2-8.4 3.8-4.6 8-11 14.8-10.5 4.9 6.3 11.1 25.7 17.4 25.7 3-4 5.6-8.2 8.1-12.5-2.3-12-4-24.4-10-35.3-2.3-4.5-5.6-9-5.2-14.4M185 184c-6.9 7.3-18 19.7-19.6 30 11.5 5.8 22.9 12.2 34.1 18.7a48.2 48.2 0 00-14.5-48.7m96.4 0c-15.6 11.6-19.1 33.1-16.8 48.7 12-5.8 23.5-12.5 35-19-.3-12.3-9.1-22.3-18.2-29.7m-49.6 9c-4 5.1-9.8 13.6-13.5 18.9-3.6 5.7-7.5 11.4-7.5 17.9 4 20.7 35.6 20.3 42.5 4.8 2-6.4-.8-12.5-4.9-18.5-4.6-6.6-10.7-16.4-16.6-23.1m62.2 45.5c-1.7 2-3.4 4-5 6.2 1.2 9.8 2 19.5-.5 28.4-9 1.4-13.8-7.6-19.8-12.6-20 14.8-51 13.9-74.2.2-.5 4.7-13.7 12.9-18.1 12.5-3.9-9.3-.7-19.3-.6-28.9l-4.7-5.5c-4 8-7.4 16.3-8.9 24.9 8 13.7 17.1 27 28.7 38.1a66 66 0 0031.7 18.8c10.8.7 22.4 1.4 32.1-4.3 21.4-11.5 36.2-32 48-52.7-1.7-8.8-5-16.5-8.7-25.1z"/><path d="M223.6 210.2a77 77 0 018.4-10c3 2.8 6 6.2 8.4 10-3 8.1-13.8 7.3-16.8 0z"/><path d="M221.4 212.4c7.1 8.6 14.4 9.7 21.1.5 2.3 3 4 5.3 5.4 8.8-7.2 11-25.3 9.2-31.4 0 1.5-4.2 2.5-6.3 4.9-9.3z"/><path d="M216 234.7c-2.3-3.8-2.4-7.3-.8-10.5 10 11.3 24.6 10.7 34.4.8 2.2 4 1.6 7.4-1.3 11.3-7.2 8.9-26.1 8.7-32.3-1.6z"/></g></svg>