<svg width="480" height="480" xmlns="http://www.w3.org/2000/svg">

 <g>
  <title>background</title>
  <rect fill="none" id="canvas_background" height="482" width="482" y="-1" x="-1"/>
 </g>
 <g>
  <title>Layer 1</title>
  <path id="svg_1" fill="#ce893d" d="m415.35938,335.44141c26.28906,-34.27735 40.57031,-76.2461 40.64062,-119.44141l0,48c-0.07812,42.82031 -14.12109,84.44531 -40,118.55859l0,-46.55859l-0.64062,-0.55859zm0,0"/>
  <path id="svg_2" fill="#e6a71e" d="m416,336l0,46.55859c-11.43359,15.31641 -24.89062,29.01563 -40,40.72266l0,-47.28125l-0.39844,-0.48047c14.98047,-11.52734 28.35157,-25.00781 39.75782,-40.07812l0.64062,0.55859zm0,0"/>
  <path id="svg_3" fill="#ffcb5a" d="m232,8c123.67969,0 224,93.12109 224,208c-0.07031,43.19531 -14.35156,85.16406 -40.64062,119.44141c-11.40625,15.07031 -24.77735,28.55078 -39.75782,40.07812c-12.27343,9.64453 -25.55078,17.9336 -39.60156,24.71875c-15.32422,7.47266 -31.41797,13.24219 -48,17.20313c-36.82031,8.74609 -75.17969,8.74609 -112,0c-16.58203,-3.96094 -32.67578,-9.73047 -48,-17.20313c-14.05078,-6.78515 -27.32812,-15.07422 -39.60156,-24.71875c-14.98047,-11.52734 -28.35156,-25.00781 -39.75781,-40.07812c-26.28907,-34.27735 -40.57032,-76.2461 -40.64063,-119.44141c0,-114.87891 100.32031,-208 224,-208zm0,0"/>
  <path id="svg_4" fill="#ce893d" d="m376,376l0,47.28125c-12.36719,9.71484 -25.75,18.05469 -39.92187,24.87891l-0.07813,-0.16016l0,-47.76172c14.05078,-6.78515 27.32813,-15.07422 39.60156,-24.71875l0.39844,0.48047zm0,0"/>
  <path id="svg_5" fill="#e6a71e" d="m336,448l0.07813,0.16016c-15.23829,7.47265 -31.25391,13.23828 -47.75782,17.19922l-0.32031,-1.35938l0,-46.55859c16.58203,-3.96094 32.67578,-9.73047 48,-17.20313l0,47.76172zm0,0"/>
  <path id="svg_6" fill="#ce893d" d="m288.32031,465.35938c-18.44922,4.42187 -37.35156,6.64843 -56.32031,6.64062l0,-48c18.85938,0.03516 37.66016,-2.16797 56,-6.55859l0,46.55859l0.32031,1.35938zm0,0"/>
  <path id="svg_7" fill="#e6a71e" d="m232,424l0,48c-18.96875,0.00781 -37.87109,-2.21875 -56.32031,-6.64062l0.32031,-1.35938l0,-46.55859c18.33984,4.39062 37.14063,6.59375 56,6.55859zm0,0"/>
  <path id="svg_8" fill="#ce893d" d="m176,417.44141l0,46.55859l-0.32031,1.35938c-16.50391,-3.96094 -32.51953,-9.72657 -47.75781,-17.19922l0.07812,-0.16016l0,-47.76172c15.32422,7.47266 31.41797,13.24219 48,17.20313zm0,0"/>
  <path id="svg_9" fill="#e6a71e" d="m88.39844,375.51953c12.27344,9.64453 25.55078,17.9336 39.60156,24.71875l0,47.76172l-0.07812,0.16016c-14.15235,-6.85157 -27.53516,-15.19141 -39.92188,-24.87891l0,-47.28125l0.39844,-0.48047zm0,0"/>
  <path id="svg_10" fill="#ce893d" d="m48.64063,335.44141c11.40625,15.07031 24.77734,28.55078 39.75781,40.07812l-0.39844,0.48047l0,47.28125c-15.10937,-11.70703 -28.56641,-25.40625 -40,-40.72266l0,-46.55859l0.64063,-0.55859zm0,0"/>
  <path id="svg_11" fill="#e6a71e" d="m8,216c0.07031,43.19531 14.35156,85.16406 40.64063,119.44141l-0.64063,0.55859l0,46.55859c-25.87891,-34.11328 -39.92187,-75.73828 -40,-118.55859l0,-48zm0,0"/>
  <path id="svg_12" fill="#e6a71e" d="m408,216c0,-88.36719 -78.79687,-160 -176,-160s-176,71.63281 -176,160s78.79688,160 176,160s176,-71.63281 176,-160z"/>
  <path id="svg_13" fill="#ffcb5a" d="m341.94531,309.83203l-10.9375,-11.66406c9.34766,-8.71094 17.26953,-18.83984 23.46485,-30.01563l14.01562,7.69532c-6.99609,12.66015 -15.95703,24.13281 -26.54297,33.98437zm0,0"/>
  <path id="svg_14" fill="#ffcb5a" d="m232,352c-83.81641,0 -152,-61.00781 -152,-136s68.18359,-136 152,-136s152,61.00781 152,136l-16,0c0,-66.16797 -61.00781,-120 -136,-120s-136,53.83203 -136,120s61.00781,120 136,120c26.6875,0.12891 52.91016,-6.94922 75.90234,-20.49609l8.19532,13.7539c-25.47266,15.01563 -54.52735,22.875 -84.09766,22.74219zm0,0"/>
  <path id="svg_15" fill="#404040" d="m232,384c101.46484,0 184,-75.36719 184,-168s-82.53516,-168 -184,-168s-184,75.36719 -184,168s82.53516,168 184,168zm0,-320c92.63281,0 168,68.18359 168,152s-75.36719,152 -168,152s-168,-68.18359 -168,-152s75.36719,-152 168,-152zm0,0"/>
  <path id="svg_18" fill="#404040" d="m464,264l0,-54.39844c-0.04687,-0.33984 -0.11328,-0.67187 -0.19922,-1c-4.21484,-115.6914 -106.54297,-208.60156 -231.80078,-208.60156c-126.04688,0 -228.87891,94.10547 -231.85547,210.80859c-0.0625,0.23047 -0.10937,0.46094 -0.14453,0.69532l0,52.49609c0,119.10547 104.07812,216 232,216s232,-96.89453 232,-216zm-40,91.44922l0,-18.34375c7.47656,-10.25391 14.01563,-21.16016 19.53516,-32.58594c-4.01172,17.83203 -10.58985,34.98828 -19.53516,50.92969zm-192,-339.44922c119.10547,0 216,89.71875 216,200s-96.89453,200 -216,200s-216,-89.71875 -216,-200s96.89453,-200 216,-200zm-112,389.07812l0,29.88282c-8.33984,-4.71875 -16.35547,-9.98438 -24,-15.76172l0,-28.39844c7.70703,5.23047 15.72266,10 24,14.27735l0,-0.00001zm16,7.48047c10.39453,4.41797 21.08984,8.10157 32,11.01563l0,31.45703c-10.95703,-3.16016 -21.65234,-7.15234 -32,-11.94141l0,-30.53125zm48,14.76172c13.19141,2.57813 26.56641,4.07813 40,4.48828l0,32c-13.44922,-0.46093 -26.83203,-2.08203 -40,-4.85547l0,-31.63281zm56,4.48828c13.43359,-0.41015 26.80859,-1.91015 40,-4.48828l0,31.64063c-13.16797,2.77343 -26.55078,4.39843 -40,4.85547l0,-32.00782zm56,-8.23437c10.91016,-2.91406 21.60547,-6.59766 32,-11.01563l0,30.53125c-10.34766,4.78907 -21.04297,8.78125 -32,11.94141l0,-31.45703zm48,-18.49609c8.27734,-4.26563 16.28906,-9.02344 24,-14.2461l0,28.36719c-7.64453,5.76562 -15.66406,11.01953 -24,15.73047l0,-29.85156zm-304,-68l0,18.34765c-8.94141,-15.9414 -15.52344,-33.09765 -19.53516,-50.92969c5.51954,11.4336 12.0586,22.34766 19.53516,32.60938l0,-0.02734zm16,42.625l0,-23.21485c7.44141,8.07031 15.46484,15.58594 24,22.48828l0,26.96875c-8.73828,-8.03515 -16.76953,-16.80468 -24,-26.21875l0,-0.02343zm328,26.21875l0,-26.94532c8.53516,-6.90234 16.55859,-14.41797 24,-22.48828l0,23.23828c-7.23047,9.41407 -15.26172,18.1836 -24,26.21875l0,-0.02343zm0,0"/>
  <text stroke="#404040" transform="matrix(11.651051155266094,0,0,13.09408528801592,-1904.6151165331444,-1875.3227319830994) " xml:space="preserve" text-anchor="start" font-family="Junction, sans-serif" font-size="24" id="svg_19" y="168.442745" x="176.065335" stroke-width="0" fill="#404040">P</text>
  <line stroke="#404040" stroke-width="18" stroke-linecap="null" stroke-linejoin="null" id="svg_20" y2="264" x2="277.09387" y1="263.453125" x1="152.500003" fill-opacity="null" stroke-opacity="null" fill="none"/>
  <line stroke="#404040" stroke-width="18" stroke-linecap="null" stroke-linejoin="null" id="svg_26" y2="295" x2="277.09387" y1="294.453125" x1="152.500003" fill-opacity="null" stroke-opacity="null" fill="none"/>
 </g>
</svg>