<svg xmlns="http://www.w3.org/2000/svg" viewBox="0 0 171 171">
  <path fill="#0ff" d="M85 0c-2 0-4 2-4 4v61a22 22 0 0 1 4-1 22 22 0 0 1 4 0V4c0-2-2-4-4-4zM44 41l-2 1v4l26 27a22 22 0 0 1 5-5L46 42l-2-1zm83 1h-2L99 68a22 22 0 0 1 4 5l26-27a3 3 0 0 0-2-4zM4 82a4 4 0 1 0 0 8h60a22 22 0 0 1 0-4 22 22 0 0 1 0-4zm103 0a22 22 0 0 1 0 3v1a22 22 0 0 1 0 4h60a4 4 0 1 0 0-8zM68 99l-26 26a3 3 0 1 0 4 4l27-26a22 22 0 0 1-5-4zm35 0a22 22 0 0 1-4 4l25 26a3 3 0 1 0 5-4zm-22 8v60a4 4 0 1 0 8 0v-60a22 22 0 0 1-3 0 22 22 0 0 1-5 0z"/>
</svg>
