<svg xmlns="http://www.w3.org/2000/svg" xmlns:svg="http://www.w3.org/2000/svg" id="svg889" width="647.029" height="647.031" version="1.1" viewBox="0 0 171.193 171.194"><metadata id="metadata886"/><g id="layer3" style="display:inline" transform="translate(-18.5198,-46.957339)"><path id="rect911" style="fill:#0ff;stroke:#000;stroke-width:0;stroke-linecap:round" d="m 392.18164,177.47656 c -8.50648,0 -15.35352,6.84899 -15.35352,15.35547 v 228.48242 a 81.407192,81.407192 0 0 1 14.41211,-1.69726 81.407192,81.407192 0 0 1 16.29688,1.18554 v -227.9707 c 0,-8.50648 -6.84899,-15.35547 -15.35547,-15.35547 z M 236.19336,333.04102 c -2.80944,0 -5.61888,1.0759 -7.77148,3.22851 -4.30522,4.30522 -4.30522,11.2358 0,15.54102 l 100.125,100.125 a 81.407192,81.407192 0 0 1 15.49218,-15.5918 L 243.96484,336.26953 c -2.1526,-2.15261 -4.96204,-3.22851 -7.77148,-3.22851 z m 313.28125,1.35351 c -2.80944,0 -5.61888,1.07591 -7.77149,3.22852 l -98.7207,98.7207 a 81.407192,81.407192 0 0 1 15.49414,15.5918 l 98.76953,-98.76953 c 4.30522,-4.30522 4.30522,-11.23776 0,-15.54297 -2.1526,-2.15261 -4.96204,-3.22852 -7.77148,-3.22852 z M 85.349609,486.00391 c -8.506482,0 -15.353515,6.84703 -15.353515,15.35351 0,8.50648 6.847033,15.35547 15.353515,15.35547 H 313.63672 a 81.407192,81.407192 0 0 1 -1.51953,-14.20508 81.407192,81.407192 0 0 1 1.37695,-16.5039 z m 388.175781,0 a 81.407192,81.407192 0 0 1 1.33594,11.96093 l 0.0566,3.02735 a 81.407192,81.407192 0 0 1 -1.5332,15.7207 h 228.28711 c 8.50647,0 15.35351,-6.84899 15.35351,-15.35547 0,-8.50648 -6.84704,-15.35351 -15.35351,-15.35351 z m -144.66211,64.46093 -99.08594,99.08594 c -4.30521,4.30522 -4.30521,11.2358 0,15.54102 4.30522,4.30521 11.2358,4.30521 15.54102,0 l 99.13476,-99.13477 a 81.407192,81.407192 0 0 1 -15.58984,-15.49219 z m 129.29688,0 a 81.407192,81.407192 0 0 1 -15.59375,15.49219 l 97.78125,97.78125 c 4.30521,4.30522 11.23776,4.30522 15.54296,0 4.30522,-4.30522 4.30522,-11.23775 0,-15.54297 z m -81.33204,30.20508 v 228.48242 c 0,8.50649 6.84704,15.35547 15.35352,15.35547 8.50648,0 15.35547,-6.84898 15.35547,-15.35547 v -227.9707 a 81.407192,81.407192 0 0 1 -13.26953,1.21484 81.407192,81.407192 0 0 1 -17.43946,-1.72656 z" transform="scale(0.26458333)"/></g></svg>