<?xml version="1.0" encoding="UTF-8" standalone="no"?>
<svg
   xmlns:dc="http://purl.org/dc/elements/1.1/"
   xmlns:cc="http://creativecommons.org/ns#"
   xmlns:rdf="http://www.w3.org/1999/02/22-rdf-syntax-ns#"
   xmlns:svg="http://www.w3.org/2000/svg"
   xmlns="http://www.w3.org/2000/svg"
   xmlns:sodipodi="http://sodipodi.sourceforge.net/DTD/sodipodi-0.dtd"
   xmlns:inkscape="http://www.inkscape.org/namespaces/inkscape"
   width="210mm"
   height="297mm"
   viewBox="0 0 210 297"
   version="1.1"
   id="svg8"
   inkscape:version="1.0.2-2 (e86c870879, 2021-01-15)"
   sodipodi:docname="Shadow.svg">
  <defs
     id="defs2" />
  <sodipodi:namedview
     id="base"
     pagecolor="#ffffff"
     bordercolor="#666666"
     borderopacity="1.0"
     inkscape:pageopacity="0.0"
     inkscape:pageshadow="2"
     inkscape:zoom="0.47593726"
     inkscape:cx="290.32815"
     inkscape:cy="432.05605"
     inkscape:document-units="mm"
     inkscape:current-layer="layer1"
     inkscape:document-rotation="0"
     showgrid="false"
     inkscape:window-width="1366"
     inkscape:window-height="745"
     inkscape:window-x="-8"
     inkscape:window-y="-8"
     inkscape:window-maximized="1" />
  <metadata
     id="metadata5">
    <rdf:RDF>
      <cc:Work
         rdf:about="">
        <dc:format>image/svg+xml</dc:format>
        <dc:type
           rdf:resource="http://purl.org/dc/dcmitype/StillImage" />
        <dc:title></dc:title>
      </cc:Work>
    </rdf:RDF>
  </metadata>
  <g
     inkscape:label="Capa 1"
     inkscape:groupmode="layer"
     id="layer1">
    <path
       id="path10"
       style="fill:#bf84da;fill-opacity:1;stroke:#000000;stroke-width:0;stroke-linecap:round;stroke-miterlimit:4;stroke-dasharray:none"
       d="m 362.4668,190.17969 c -1.20512,0.0159 -2.34092,0.11385 -3.38086,0.31054 -22.05581,4.17159 -42.48847,19.32583 -56.20313,37.09571 -10.34705,13.40651 -16.50449,31.17525 -16.32617,48.10937 0.46957,44.58942 35.9277,86.99111 32.07227,131.41602 -1.94021,22.35638 -18.1807,51.54768 -27.04883,66.04492 -0.13718,-0.25224 -0.27253,-0.51045 -0.41406,-0.75 -4.24957,-7.19248 -14.86336,-9.05718 -19.04883,-16.28711 -4.43595,-7.66261 -6.60681,-17.4105 -4.91602,-26.10156 2.52386,-12.97319 17.61153,-20.71428 21.41016,-33.37305 2.10135,-7.00267 3.49443,-15.36632 0.27734,-21.93164 -3.91485,-7.9893 -21.29883,-16.08594 -21.29883,-16.08594 0,0 14.52916,13.20287 13.2461,21.53125 -1.8381,11.93114 -19.60259,14.47309 -27.38086,23.70508 -9.32473,11.06744 -18.68384,23.19266 -22.43555,37.16992 -6.95815,25.92306 -5.87354,54.6998 1.5,80.50782 0.18328,0.6415 0.40708,1.31053 0.65625,1.99414 -9.82011,-2.47606 -20.67601,-9.64747 -24.43359,-15.20313 -13.76494,-20.35177 -28.0586,-49.34961 -28.0586,-49.34961 0,0 -9.97186,25.24826 11.32032,67.01172 -5.28188,-4.35813 -10.62305,-11.22461 -10.62305,-11.22461 0,0 4.75633,22.32376 9.69922,29.9375 10.28987,15.84994 28.00662,23.13751 31.16015,41.76953 1.35337,7.99615 4.23636,11.64988 -1.51171,16.25391 -8.4381,6.75866 -15.65046,4.93648 -26.2129,2.63086 -21.45183,-4.68265 -51.73828,-37.63867 -51.73828,-37.63867 0,0 3.3582,27.71535 10.40625,39.2832 13.18823,21.64562 32.23056,43.35098 56.39258,51.00976 35.87573,11.37174 57.33567,20.26661 79.7131,19.15848 0,0 24.97035,22.43999 40.48611,27.45217 23.27809,7.51971 49.13425,5.55188 73.35662,2.13242 18.644,-2.63196 53.80188,-17.20733 53.80188,-17.20733 30.27363,-27.36217 37.3169,-16.78492 60.83759,-35.38051 9.69732,-17.53981 53.23656,-27.94666 53.23656,-27.94666 0,0 -2.71877,8.62613 0,0 2.82289,-8.95672 -42.26609,-6.62354 -37.6259,-15.02415 4.11271,-7.44567 15.77217,-35.99496 42.43337,-15.89568 0,0 33.51969,-22.80978 31.86248,-26.25223 -6.99321,-14.52668 -58.52368,6.15295 -58.52368,6.15295 -15.82693,-9.50215 2.13473,-45.10861 -14.1211,-41.13867 0,0 -15.40943,31.90397 -30.03125,43.11718 -2.99687,2.29824 -7.5209,4.51241 -12.36328,6.48633 2.60934,-9.66538 4.00197,-19.7751 4.00195,-30.18359 l -0.0391,-2.01172 c 7.61709,-2.46917 11.18536,-12.07282 17.4043,-17.34375 13.91773,-11.79613 35.25325,-16.59939 43.92969,-32.64844 7.24739,-13.40572 -2.1092,-31.18301 2.7207,-45.63672 4.89494,-14.64839 28.05494,-56.39345 22.99219,-62.22461 -5.06274,-5.83116 -15.73162,3.49798 -24.13086,-7.19336 -5.18975,-6.60601 -9.384,-13.95604 -14.57813,-20.55859 -8.655,-11.00182 -14.66732,-26.25335 -27.57422,-31.67187 -12.90141,-5.41623 -30.17458,-5.13359 -41.90234,2.49804 -7.83042,5.09552 -13.42746,15.57946 -12.85547,24.9043 0.40804,6.65186 11.27344,16.50976 11.27344,16.50977 0,0 1.31374,-17.39416 18.57617,-19.83204 12.41854,-1.9182 14.97842,7.47389 22.16016,17.78516 9.1567,13.14691 9.67461,22.40112 5.2207,37.79102 -2.93525,10.14251 -3.22224,19.18526 -11.46875,25.77929 -12.43794,9.94558 -23.9401,26.67898 -37.2537,21.40202 -9.5837,-3.79858 -6.30557,-22.8239 -8.98039,-29.59462 -3.12412,-7.90798 -17.42696,-13.95487 -17.57852,-22.45624 -0.1457,-8.17825 -0.96525,-14.45114 -1.02723,-22.63045 -0.10984,-14.47573 -3.90674,-29.01431 -9.44141,-42.39063 -2.95223,-7.13498 -7.22886,-13.83518 -12.41211,-19.55859 -15.93471,-17.59529 -41.36267,-25.2763 -56.06445,-43.91407 -9.693,-12.28803 -19.88895,-27.04227 -19.54883,-42.68945 0.28617,-13.1657 7.41947,-27.32174 17.99414,-35.16992 7.65921,-5.68442 28.1582,-5.0957 28.1582,-5.0957 0,0 -18.09862,-7.50922 -29.74804,-7.35547 z M 180.68359,458.98242 c 11.41672,-14.37653 -11.41834,-15.81651 7.03907,-35.86328 l 24.49609,-9 c -18.01146,-12.39107 -25.50418,5.32423 -35.28516,-3.26758 -17.05664,-16.47156 4.36025,-37.70919 13.74414,-51.29297 0,0 -14.91151,0.74945 -20.30273,5.19141 -9.05255,7.45863 -8.23863,22.26738 -15.08008,31.79492 -6.45476,8.98908 -23.875,23.06641 -23.875,23.06641 3.54332,6.52169 13.68557,-4.50359 19.67383,-1.76563 15.36168,7.02369 29.58984,41.13672 29.58984,41.13672 z"
       transform="scale(0.26458333)"
       sodipodi:nodetypes="cssssccsssscsssscscccsssscsscaacccscccccscccsssssssssccsssasscssssscscccccsscscc" />
    <path
       style="fill:none;stroke:#000000;stroke-width:0.264583px;stroke-linecap:butt;stroke-linejoin:miter;stroke-opacity:1"
       d="M 52.860797,139.92684 Z"
       id="path859" />
  </g>
</svg>
