<svg xmlns="http://www.w3.org/2000/svg" xmlns:svg="http://www.w3.org/2000/svg" id="svg8" width="140mm" height="140mm" version="1.1" viewBox="0 0 140 140"><metadata id="metadata5"/><g id="layer1"><path id="path10" style="fill:#bf84da;fill-opacity:1;stroke:#000;stroke-width:0;stroke-linecap:round;stroke-miterlimit:4;stroke-dasharray:none" d="m 68.118312,1.259548 c -0.318854,0.00421 -0.619368,0.030123 -0.894519,0.082164 -5.8356,1.1037331 -11.241741,5.1132924 -14.870411,9.8149063 -2.737657,3.547139 -4.366813,8.248451 -4.319633,12.728937 0.124241,11.797617 9.505871,23.016398 8.485788,34.770488 -0.513347,5.915126 -4.81031,13.638657 -7.156669,17.474385 -0.0363,-0.06674 -0.07211,-0.135056 -0.109554,-0.198437 -1.124365,-1.90301 -3.932597,-2.396379 -5.040002,-4.309298 -1.173679,-2.027399 -1.748052,-4.606528 -1.300697,-6.906038 0.667771,-3.432489 4.659717,-5.480653 5.664771,-8.829952 0.555982,-1.85279 0.924568,-4.065672 0.07338,-5.802747 -1.035804,-2.113835 -5.635316,-4.256071 -5.635316,-4.256071 0,0 3.844174,3.493259 3.504697,5.69681 -0.48633,3.15678 -5.186518,3.829338 -7.244519,6.271969 -2.467168,2.92826 -4.943432,6.136391 -5.936072,9.834541 -1.841011,6.858809 -1.554041,14.472655 0.396875,21.301027 0.04849,0.16973 0.107706,0.346744 0.173633,0.527616 -2.598238,-0.655124 -5.470528,-2.55256 -6.464721,-4.022495 -3.641974,-5.384739 -7.423838,-13.057084 -7.423838,-13.057084 0,0 -2.638388,6.680269 2.995168,17.730184 -1.397497,-1.153088 -2.810682,-2.969844 -2.810682,-2.969844 0,0 1.258446,5.906494 2.566252,7.920963 2.722528,4.19363 7.410085,6.121798 8.244456,11.051528 0.35808,2.11564 1.120871,3.08236 -0.399973,4.30051 -2.23258,1.78823 -4.140851,1.30611 -6.935496,0.69608 -5.675797,-1.23895 -13.6890865,-9.95856 -13.6890865,-9.95856 0,0 0.8885235,7.33302 2.7533205,10.39368 3.489385,5.72707 8.527669,11.46994 14.920536,13.49633 9.49212,3.00877 15.170063,5.36221 21.090758,5.06901 0,0 6.606738,5.93725 10.711949,7.26339 6.158995,1.98959 13.000104,1.46893 19.408939,0.5642 4.932892,-0.69637 14.235081,-4.55277 14.235081,-4.55277 8.009903,-7.23957 9.873423,-4.44101 16.096613,-9.36109 2.56575,-4.64074 14.0855,-7.39422 14.0855,-7.39422 0,0 -0.71934,2.28233 0,0 0.74689,-2.3698 -10.67596,2.57647 -9.44824,0.35381 1.08816,-1.97 3.66611,-13.85262 10.72022,-8.53468 0,0 8.86875,-6.03509 8.43028,-6.94591 -1.85029,-3.843518 -15.48439,1.62797 -15.48439,1.62797 -4.18754,-2.51411 0.56481,-11.934989 -3.73621,-10.884609 0,0 -4.07708,8.441259 -7.94577,11.408089 -0.79292,0.60808 -1.9899,1.19391 -3.27111,1.71618 0.69038,-2.5573 1.05885,-5.23217 1.05885,-7.986082 l -0.0104,-0.532267 c 2.01536,-0.653301 2.95946,-3.194267 4.60489,-4.588867 3.6824,-3.12106 9.32742,-4.391922 11.62306,-8.638233 1.91754,-3.54693 -0.55806,-8.250505 0.71985,-12.074716 1.29512,-3.875719 7.42287,-14.920766 6.08335,-16.463594 -1.33951,-1.542828 -4.16232,0.925507 -6.38462,-1.903243 -1.37312,-1.74784 -2.48285,-3.692536 -3.85713,-5.439461 -2.28997,-2.910898 -3.88073,-6.946198 -7.29568,-8.379848 -3.4135,-1.433045 -7.98369,-1.358263 -11.086657,0.660939 -2.071798,1.34819 -3.552682,4.122066 -3.401343,6.589263 0.107961,1.759971 2.982765,4.368207 2.982765,4.36821 0,0 0.347593,-4.602205 4.914945,-5.247227 3.28574,-0.507524 3.96304,1.977466 5.86321,4.705657 2.42271,3.478453 2.55974,5.926963 1.38131,9.998874 -0.77662,2.683539 -0.85255,5.0761 -3.03444,6.82077 -3.29087,2.631435 -6.33415,7.058813 -9.856709,5.662618 -2.535688,-1.005041 -1.668349,-6.038824 -2.376062,-7.830243 -0.82659,-2.09232 -4.610883,-3.692226 -4.650983,-5.941547 -0.03855,-2.163829 -0.255389,-3.823531 -0.271788,-5.98764 -0.02906,-3.830037 -1.033658,-7.676703 -2.49804,-11.215854 -0.781061,-1.887797 -1.912586,-3.660558 -3.283987,-5.174877 -4.216059,-4.65542 -10.943873,-6.687688 -14.833719,-11.618931 -2.564606,-3.251208 -5.262285,-7.154934 -5.172295,-11.294917 0.07572,-3.483424 1.963068,-7.2288764 4.76095,-9.305374 2.026499,-1.5040028 7.45019,-1.3482373 7.45019,-1.3482373 0,0 -4.788593,-1.9868144 -7.870835,-1.9461347 z M 20.021505,72.380269 c 3.020674,-3.80379 -3.021102,-4.184785 1.862421,-9.488826 l 6.481257,-2.38125 c -4.765532,-3.27847 -6.747981,1.408703 -9.335865,-0.864547 -4.512903,-4.3581 1.153649,-9.977223 3.63647,-13.571265 0,0 -3.945337,0.198292 -5.371764,1.373561 -2.395154,1.973429 -2.179804,5.891577 -3.989938,8.412406 -1.707821,2.37836 -6.3169265,6.102987 -6.3169265,6.102987 0.9375034,1.725531 3.6209735,-1.191575 5.2053675,-0.467156 4.064444,1.858351 7.828978,10.88409 7.828978,10.88409 z"/><path style="fill:none;stroke:#000;stroke-width:.264583px;stroke-linecap:butt;stroke-linejoin:miter;stroke-opacity:1" id="path859" d="M 52.860797,139.92684 Z"/></g></svg>