<svg xmlns="http://www.w3.org/2000/svg" viewBox="0 0 140 140">
  <path fill="#bf84da" d="M68 1h-1c-6 1-11 5-15 10-2 4-4 8-4 13 0 12 10 23 9 35-1 6-5 13-8 17l-5-4c-1-2-2-5-1-7 1-4 5-6 6-9v-6c-1-2-6-4-6-4s4 3 4 6c-1 3-6 3-8 6s-5 6-6 10a41 41 0 0 0 1 21c-3 0-6-2-7-4l-7-13s-3 7 3 18l-3-3s1 6 3 8c2 4 7 6 8 11v4c-3 2-5 2-7 1-6-1-14-10-14-10l3 11c3 5 8 11 15 13 9 3 15 5 21 5 0 0 6 6 10 7 7 2 13 2 20 1l14-5c8-7 10-4 16-9 3-5 14-7 14-7s0 2 0 0c1-3-10 2-9 0s4-14 11-9l8-6c-2-4-15 1-15 1-5-2 0-12-4-11 0 0-4 9-8 12l-3 1 1-8 4-5c4-3 10-4 12-8s-1-9 1-12c1-4 7-15 6-17-2-1-5 1-7-2l-4-5c-2-3-3-7-7-9-3-1-8-1-11 1-2 1-4 4-3 7l3 4s0-5 5-5c3-1 3 2 5 4 3 4 3 6 2 10-1 3-1 6-3 7-4 3-7 7-10 6s-2-6-3-8c0-2-4-4-4-6v-6c0-4-1-8-3-11l-3-5c-4-5-11-7-15-12-3-3-5-7-5-11s2-7 5-9c2-2 7-2 7-2l-8-2zM20 72c3-3-3-4 2-9l6-2c-4-4-6 1-9-1-4-5 1-10 4-14l-6 1c-2 2-2 6-4 9l-6 6c1 2 4-1 5-1 4 2 8 11 8 11z"/>
  <path fill="none" stroke="#000" stroke-width=".3" d="M53 140Z"/>
</svg>
