<svg xmlns="http://www.w3.org/2000/svg" viewBox="0 0 98.29 98.29">
  <path fill="#3962ad" d="M95.466 49.144c0 25.583-20.74 46.322-46.322 46.322-25.583 0-46.323-20.74-46.323-46.322 0-25.583 20.74-46.323 46.323-46.323 25.583 0 46.322 20.74 46.322 46.323"/>
  <path fill="#a4eaff" d="M95.466 51.965H2.82v-5.642h92.645v5.642"/>
  <path fill="#0ff" d="M66.13 49.144c0 9.38-7.606 16.986-16.986 16.986-9.381 0-16.986-7.605-16.986-16.986s7.605-16.986 16.986-16.986c9.38 0 16.985 7.605 16.985 16.986"/>
  <path fill="#a4eaff" d="M71.139 49.145c0 12.145-9.887 21.994-22.079 21.994-12.193 0-22.079-9.847-22.079-21.994s9.886-21.994 22.08-21.994c12.191 0 22.077 9.847 22.077 21.994"/>
  <path fill="#a4eaff" d="m46.461 95.481-.444-92.644 5.642-.027.444 92.643-5.642.027"/>
  <path d="M49.06 34.982c-7.81 0-14.164 6.353-14.164 14.164 0 7.81 6.354 14.164 14.165 14.164 7.81 0 14.164-6.354 14.164-14.164S56.87 34.982 49.06 34.982zm0 33.97c-10.921 0-19.807-8.885-19.807-19.806 0-10.922 8.886-19.808 19.808-19.808 10.92 0 19.807 8.886 19.807 19.808S59.982 68.952 49.06 68.952"/>
  <path fill="#fff" d="M56.364 49.144a7.22 7.22 0 1 1-14.441 0 7.22 7.22 0 0 1 14.441 0"/>
  <path fill="#3962ad" d="M49.144 44.744a4.404 4.404 0 0 0-4.4 4.4c0 2.425 1.973 4.4 4.4 4.4a4.404 4.404 0 0 0 4.399-4.4c0-2.426-1.974-4.4-4.4-4.4zm0 14.442c-5.538 0-10.043-4.505-10.043-10.042 0-5.538 4.505-10.043 10.043-10.043 5.537 0 10.042 4.505 10.042 10.043 0 5.537-4.505 10.042-10.042 10.042"/>
  <path d="M49.144 5.643c-23.987 0-43.501 19.514-43.501 43.5 0 23.987 19.514 43.501 43.5 43.501 23.987 0 43.501-19.514 43.501-43.5 0-23.987-19.514-43.501-43.5-43.501zm0 92.644C22.046 98.287 0 76.242 0 49.144S22.046 0 49.144 0s49.143 22.046 49.143 49.144-22.045 49.143-49.143 49.143"/>
  <ellipse cx="49.144" cy="49.144" fill="none" stroke="#a4eaff" stroke-linecap="round" stroke-linejoin="round" stroke-width="2.43019" rx="32.012" ry="29.476"/>
  <ellipse cx="49.144001" cy="49.144001" fill="none" stroke="#a4eaff" stroke-linecap="round" stroke-linejoin="round" stroke-width="3.36566" rx="42.747002" ry="42.339001"/>
  <path fill="#fff578" stroke="#000" stroke-linecap="round" stroke-width=".79377084" d="m36.750805 61.325584-20.472238 24.28885c-1.212496.459717-2.424848.919379-3.580148.985648-1.1553.06627-2.471623-.326043-3.3521646-.588476"/>
  <path fill="#fff578" stroke="#000" stroke-linecap="round" stroke-width=".79377084" d="M36.750805 61.325584 10.742022 79.18944c-.611858 1.470273-1.2237696 2.940677-1.4563426 4.077791-.232573 1.137113-.085955 1.940982.060575 2.744375"/>
  <path fill="none" stroke="#000" stroke-width=".52918056" d="M36.750805 61.325584 15.777669 80.485352l-6.4314146 5.526254"/>
  <path fill="#fff578" stroke="#000" stroke-linecap="round" stroke-width=".79377084" d="M36.796242 36.792377 11.72065 17.835737c-.578764-1.40569-1.15745-2.811187-1.313653-4.071266-.156204-1.260078.163222-2.595961.376898-3.489587"/>
  <path fill="#fff578" stroke="#000" stroke-linecap="round" stroke-width=".79377084" d="M36.796242 36.792377 18.152804 11.050731c-1.661786-.449141-3.322234-.897921-4.551204-1.027374-1.22897-.1294523-2.023573.06109-2.817705.251528"/>
  <path fill="none" stroke="#000" stroke-width=".52918056" d="M36.796242 36.792377 16.655033 16.39308l-5.871138-6.118196"/>
  <path fill="#fff578" stroke="#000" stroke-linecap="round" stroke-width=".79377084" d="M59.084023 36.115682 78.01765 9.2807914c1.30611-.6762298 2.613051-1.3528896 3.82713-1.5770565 1.21408-.2241669 2.560277.048538 3.460803.230961"/>
  <path fill="#fff578" stroke="#000" stroke-linecap="round" stroke-width=".79377084" d="m59.084023 36.115682 25.44312-21.261149c.477562-1.519213.955166-3.03856 1.084844-4.191947.129678-1.1533871-.08843-1.9408719-.306405-2.7278901"/>
  <path fill="none" stroke="#000" stroke-width=".52918056" d="M59.084023 36.115682 79.395582 14.01536l5.910001-6.0806641"/>
  <path fill="#fff578" stroke="#000" stroke-linecap="round" stroke-width=".79377084" d="m61.488123 60.426835 27.435986 17.513457c.538992 1.204136 1.077938 2.40817 1.263612 3.576964.185674 1.168793-.01537 2.527542-.149849 3.436463"/>
  <path fill="#fff578" stroke="#000" stroke-linecap="round" stroke-width=".79377084" d="m61.488123 60.426835 21.5984 24.115949c1.542369.396448 3.084875.792931 4.24351.861354 1.158636.06842 1.933466-.191076 2.707839-.45042"/>
  <path fill="none" stroke="#000" stroke-width=".52918056" d="m61.488123 60.426835 22.164675 18.947152 6.385074 5.579732"/>
</svg>
