<svg width="371.48" height="371.48" viewBox="0 0 98.29 98.29" xmlns="http://www.w3.org/2000/svg"><path style="fill:#73bbe3;fill-opacity:1;stroke:none;stroke-width:5.43106;stroke-linejoin:round" d="M75.403 296.613c-2.065-.66-11.68-2.457-14.097-3.675-5.95-3-22.003-15.606-23.743-17.795-2.009-2.526-12.865-18.244-15.7-25.878-4.432-11.936-20.855-38.478-10.204-45.71l10.337-7.019 44.363-6.208 44.881 6.208 8.773-1.529c6.31-1.1 3.561 18.885 6.732 24.428 6.583 11.51 25.533 11.14 26.646 23.679l.978 11.017 14.655-1.659c7.49-.848-15.394 12.234-20.406 14.682-3.068 1.499-19.691 8.755-25.557 12.647-11.92 7.909-24.102 12.285-29.586 13.898-4.788 1.408-13.341 4.429-18.072 2.914zM276.424 298.616c-5.618-1.32-7.535-2.314-22.857-13.293-8.228-5.896-21.934-9.236-28.078-11.37-4.706-1.634 1.174-20.39-1.728-20.39-1.22 0-18.453 2.91-18.69 2.672-.237-.237 11.18-8.492 14.623-10.755 15.701-10.322 12.12-36.317 29.055-43.81l11.238-12.054 45.352-1.094 44.26 8.015 8.74 3.224c20.78 7.668-.564 49.204-17.511 58.44l-10.986 5.986-6.207 15.297c-8.192 20.188-27.875 18.622-38.103 16.218z" transform="scale(.26459)"/><path style="fill:#045ca4;fill-opacity:1;stroke:none;stroke-width:5.43106;stroke-linejoin:round" d="M174.762 355.76c-16.12-1.604-26.932 2.322-38.746-1.419-33.967-10.755-74.335-35.22-95.091-64.686-2.145-3.044-6.96-19.71-6.96-19.93 0-.172 5-1.294 10.252.684 1.5.565 6.855 4.825 7.41 5.204 10.976 7.515 22.371 11.545 30.347 10.862 8.572-.735 14.287-3.426 30.99-14.439 17.266-11.385 22.573-13.511 36.031-16.01 0 0 16.92-2.472 20.875-1.14 16.497 5.558 27.189 5.965 42.164-.385 5.654-2.398 22.432.22 32.74 5.63 2.834 1.487 11.269 6.999 17.056 11.124 5.788 4.124 13.353 9.37 16.813 11.094 5.642 2.812 7.108 2.475 12.227 2.744 9.504.499 18.374-3.604 30.876-13.14 3.018-2.302 11.014-8.161 11.014-7.955 0 .207 9.142 5.147 6.534 9.034-25.582 38.13-65.132 73.924-110.228 80.587-8.709 1.286-48.37 2.731-54.304 2.14z" transform="scale(.26459)"/><path style="fill:none;stroke:#000;stroke-width:.254941px;stroke-linecap:butt;stroke-linejoin:miter;stroke-opacity:1" d="M87.508 69.987c-3.639 2.972-7.278 5.944-10.95 5.54-3.671-.405-7.376-4.185-10.751-6.157-3.376-1.97-6.422-2.133-9.468-2.294"/><path style="fill:none;stroke:#000;stroke-width:.26459px;stroke-linecap:butt;stroke-linejoin:miter;stroke-opacity:1" d="M10.198 70.24c3.922 2.97 7.844 5.941 11.801 5.537 3.958-.404 7.95-4.183 11.588-6.153 3.638-1.97 6.921-2.131 10.204-2.293"/><path style="fill:#73bbe3;fill-opacity:1;stroke:none;stroke-width:.847306;stroke-linecap:round;stroke-linejoin:round;stroke-miterlimit:4;stroke-dasharray:none;stroke-opacity:1;paint-order:normal" d="M14.78 162.625s2.12-22.991 5.72-33.623c3.133-9.26 17.166-37.334 18.364-37.334.357 0 1.324-8.914 2.148-6.7 2.796 7.511 26.213 4.534 28.748 6.666 2.894 2.436-5.036 15.661-1.394 13.778 4.52-2.337 5.94-10.386 10.175-18.614 7.995-15.532 20.016-15.519 23.804-15.519 2.532 0 20.67-9.621 25.922-1.654 6.57 9.968 3.188 24.88 3.117 21.605-.972-45.198 15.761-9.697 28.925-42.511 10.705-26.687.19-4.427 7.841-5.162 5.563-.534-25.572 9.316 10.892-7.328 3.986-1.82 25.55-.763 30.517 11.847 7.496 19.025 19.713 21.72 28.81 21.72 3.317 0-3.664 23.17-.908 20.274 1.983-2.085.435-7.774 1.876-11.677 5.481-14.845 17.772-12.362 22.489-12.302 4.246.054 21.753 5.007 25.672 14.932 6.259 15.852 3.939 12.843 9.352 15.106 5.323 2.223-8.848 9.068-3.892-1.942 5.202-11.555 33.69-29.899 30.701-11.296-.139.865 10.376 16.636 14.894 25.882 6.994 14.311 17.476 34.5 18.981 48.879.293 2.796 9.248 20.12 1.314 14.57l-1.702 5.55-52.173 4.433-49.497-1.66-3.173-13.735c-6.175-26.73-28.78-38.23-56.267-44.968-10.1-2.476-16.468-2.463-25.899.03-13.996 3.7-21.588 6.206-31.846 15.874-11.326 10.675-10.17 48.145-22.21 40.056l-49.986 7.933-43.875-11.19-11.558.526z" transform="scale(.26459)"/><path fill="#f9af17" d="m52.402 2.937.188.012-.188-.012M36.158 4.669l.112-.033-.112.033m.71-.2c.125-.034.25-.069.376-.102a43.77 43.77 0 0 0-.377.102m2.148-.534c.212-.047.424-.094.637-.139-.213.045-.425.092-.637.14m-1.21.286c.151-.038.303-.075.455-.111l-.455.11M59.11 3.9l.048.01-.048-.01m-3.328-.603.144.02-.144-.02m-6.636-.476h-.003.003m4.99.27c.076.007.154.017.23.025l-.23-.026"/><path fill="#644a3a" d="M39.652 3.796c.154-.032.309-.062.463-.092-.154.03-.309.06-.463.092m-3.494.873c-.238.07-.477.139-.714.212v.002a41.8 41.8 0 0 1 .714-.214m10.485-1.78c.106-.006.213-.01.319-.015l-.319.015m-4.801.507.334-.053-.335.053m2.348-.31.36-.038-.36.037m1.3-.12.105-.01-.106.01m-2.374.247.368-.046-.368.046"/><path fill="#fff" d="M2.822 49.144h92.644H2.822"/><path fill="#201e1d" d="M49.144 44.744a4.404 4.404 0 0 0-4.4 4.4c0 2.425 1.974 4.4 4.4 4.4 2.425 0 4.4-1.975 4.4-4.4a4.404 4.404 0 0 0-4.4-4.4zm0 14.442c-5.538 0-10.043-4.505-10.043-10.043 0-5.537 4.505-10.042 10.043-10.042 5.537 0 10.042 4.505 10.042 10.042 0 5.538-4.505 10.043-10.042 10.043m46.322-7.221H66.132v-5.643h29.334v5.643M32.155 51.965H2.821v-5.643h29.334v5.643"/><path style="fill:#73bbe3;fill-opacity:1;stroke:none;stroke-width:.6698;stroke-linecap:round;stroke-linejoin:round;stroke-miterlimit:4;stroke-dasharray:none;stroke-opacity:1;paint-order:normal" d="M175.661 36.054c-2.672-2.671-6.727-15.373-2.137-15.118l7.951.441 4.309-5.192 9.696 1.543-1.187 4.874c-1.06 4.358 5.412 11.042 2.732 13.722-1.77 1.769-9.026 2.007-10.952 2.007-1.925 0-8.643-.508-10.412-2.277z" transform="scale(.26459)"/><path style="fill:#fff;stroke-width:0;stroke-linecap:round;stroke-linejoin:round" d="M176.308 237.966c-20.25-3.81-36.711-19.102-42.035-39.049-1.878-7.033-1.997-18.602-.262-25.38 4.996-19.521 20.037-34.564 39.526-39.531 6.783-1.73 18.358-1.608 25.38.267 25.71 6.862 43.19 32.534 39.505 58.02-1.765 12.206-6.753 22.233-15.324 30.805-12.627 12.626-29.763 18.071-46.79 14.868zm19.298-15.3c6.374-1.644 12.048-4.963 17.072-9.988 7.576-7.575 11.092-16.183 11.076-27.117-.014-10.444-3.672-19.505-10.73-26.579-7.25-7.268-14.616-10.575-24.939-11.196-29.846-1.795-49.705 28.86-36.184 55.854 4.322 8.629 13.981 16.377 23.762 19.061 4.765 1.308 14.801 1.29 19.943-.036z" transform="scale(.26459)"/><path style="fill:#fff;stroke-width:0;stroke-linecap:round;stroke-linejoin:round" d="M182.543 201.654c-12.765-3.2-17.2-18.717-7.878-27.562 10.132-9.613 27.175-2.348 27.139 11.569-.012 4.75-1.385 8.057-4.736 11.407-3.915 3.915-9.794 5.772-14.525 4.586z" transform="scale(.26459)"/><path style="fill:#fff;stroke-width:0;stroke-linecap:round;stroke-linejoin:round" d="M182.543 201.64c-12.735-3.101-17.197-18.706-7.878-27.548 10.157-9.637 27.134-2.365 27.154 11.631.011 7.467-4.896 13.744-12.234 15.647-3.86 1.002-4.01 1.007-7.042.27z" transform="scale(.26459)"/><path style="fill:#fff;stroke-width:0;stroke-linecap:round;stroke-linejoin:round" d="M182.543 201.64c-12.735-3.101-17.197-18.706-7.878-27.548 10.157-9.637 27.134-2.365 27.154 11.631.011 7.316-4.565 13.443-11.608 15.545-3.695 1.102-4.504 1.141-7.668.371z" transform="scale(.26459)"/><path style="fill:#fff;stroke-width:0;stroke-linecap:round;stroke-linejoin:round" d="M175.89 237.961c-20.035-3.992-36.346-19.295-41.617-39.044-1.82-6.817-1.974-18.517-.333-25.254 4.676-19.196 20.51-35.046 39.672-39.71 6.79-1.654 18.465-1.506 25.305.32 20.112 5.367 35.144 21.615 39.11 42.27 2.344 12.203-.257 25.717-7.136 37.084-3.471 5.737-11.947 14.084-17.873 17.603-11.288 6.704-24.891 9.17-37.129 6.731zm19.716-15.296c12.946-3.338 23.606-14.077 27.135-27.337 1.198-4.505 1.319-13.023.256-18.12-1.852-8.882-7.843-17.664-15.638-22.925-22.319-15.063-52.692-3.247-58.842 22.891-4.672 19.854 8.053 40.739 27.791 45.615 4.949 1.223 14.309 1.162 19.298-.124z" transform="scale(.26459)"/><path style="fill:#fff;fill-opacity:1;stroke:none;stroke-width:.269374;stroke-linecap:round;stroke-linejoin:round;stroke-miterlimit:4;stroke-dasharray:none;stroke-opacity:1;paint-order:normal" d="M62.476 126.479c-1.77-.883-3.254-2.45-5.105-5.395-2.085-3.316-6.64-12.54-8.812-17.846l-8.396-14.942c1.625-2.362 5.908-4.399 5.867-4.527-.1-.323 9.269 2.157 12.687-2.014 12.408-15.138 27.51-28.005 44.723-38.106 4.806-2.82 14.375-7.554 19.933-9.86 13.047-5.415 29.776-9.71 43.908-11.275 4.58-.507 11.992-1.05 12.153-.888.064.064-.188.649-.56 1.3-1.214 2.123-1.845 4.445-1.686 6.203.249 2.738 2.233 5.25 5.232 6.622 3.75 1.717 8.842-.234 10.74-4.115 1.05-2.147.866-4.267-.655-7.512-.616-1.314-1.065-2.444-.998-2.511.066-.067 2.159.016 4.649.185 17.386 1.175 34.423 5.021 50.456 11.392 5.642 2.241 16.19 7.39 21.415 10.45 10.93 6.405 20.75 13.742 30.226 22.583 4.278 3.992 15.76-13.524 12.913-.443 1.993-16.138 3.933 3.25 5.474 5.158 1.934 2.415 3.508 5.184 5.376 7.651l2.903 3.853-5.44 13.33c-1.65 2.765-3.353 6.275-6.629 13.66-5.636 12.706-8.528 16.915-11.614 16.902-3.435-.015-9.413-6.82-14.907-16.968-2.278-4.209-3.88-7.621-6.637-14.142-2.616-6.187-3.365-7.706-5.191-10.519-1.877-2.891-3.77-4.733-5.989-5.825-1.63-.803-2.06-.896-4.116-.896-2.042 0-2.455.088-3.742.8-3.635 2.014-6.527 6.79-10.944 18.075-2.708 6.918-4.334 9.772-6.86 12.043-3.553 3.195-7.638 2.556-12.933-2.02-6.82-5.896-11.7-13.845-18.157-29.572-3.522-8.578-3.74-9.042-6.292-13.4-3.116-5.316-5.264-8.217-8.556-11.549-2.514-2.545-3.2-3.087-4.532-3.575-5.805-2.129-12.31-.84-17.178 3.405-4.981 4.344-8.892 10.442-13.432 20.944-.768 1.778-1.686 3.73-2.04 4.338-.353.609-1.624 3.397-2.824 6.196-3.193 7.445-7.477 15.978-9.723 19.367-2.574 3.882-7.702 9.106-10.072 10.258-5.147 2.503-8.771-.254-17.91-13.626-6.299-9.217-9.773-13.368-12.529-14.974-1.185-.69-1.605-.783-3.502-.78-2.715.007-3.881.573-6.364 3.095-2.438 2.476-5 6.467-10.442 16.264-5.487 9.878-6.732 11.834-9.793 15.388-4.223 4.903-9.304 8.484-12.037 8.484-.397 0-1.323-.3-2.058-.666z" transform="scale(.26459)"/><path fill="#201e1d" d="M49.144 5.643c-23.987 0-43.501 19.514-43.501 43.5 0 8.608 2.513 16.64 6.844 23.401 7.738 12.079 21.278 20.1 36.656 20.1 23.987 0 43.502-19.514 43.502-43.5 0-23.987-19.515-43.501-43.501-43.501Zm0 92.644C22.046 98.287 0 76.241 0 49.144 0 22.045 22.046 0 49.144 0s49.143 22.045 49.143 49.144c0 27.097-22.045 49.143-49.143 49.143"/><path fill="#201e1d" d="M49.144 34.98c-7.81 0-14.165 6.353-14.165 14.163 0 7.81 6.354 14.165 14.165 14.165 7.81 0 14.164-6.354 14.164-14.165 0-7.81-6.354-14.164-14.164-14.164zm0 33.97c-10.922 0-19.808-8.885-19.808-19.807 0-10.921 8.886-19.807 19.808-19.807 10.921 0 19.807 8.886 19.807 19.807 0 10.922-8.886 19.808-19.807 19.808"/></svg>