<svg width="371.48" height="371.48" viewBox="0 0 98.29 98.29" xmlns="http://www.w3.org/2000/svg"><path style="fill:#73bbe3;fill-opacity:1;stroke:none;stroke-width:.847306;stroke-linecap:round;stroke-linejoin:round;stroke-miterlimit:4;stroke-dasharray:none;stroke-opacity:1;paint-order:normal" d="M14.78 162.625s2.12-22.991 5.72-33.623c3.133-9.26 17.166-37.334 18.364-37.334.357 0 1.324-8.914 2.148-6.7 2.796 7.511 26.213 4.534 28.748 6.666 2.894 2.436-5.036 15.661-1.394 13.778 4.52-2.337 5.94-10.386 10.175-18.614 7.995-15.532 20.016-15.519 23.804-15.519 2.532 0 20.67-9.621 25.922-1.654 6.57 9.968 3.188 24.88 3.117 21.605-.972-45.198 15.761-9.697 28.925-42.511 10.705-26.687.19-4.427 7.841-5.162 5.563-.534-25.572 9.316 10.892-7.328 3.986-1.82 25.55-.763 30.517 11.847 7.496 19.025 19.713 21.72 28.81 21.72 3.317 0-3.664 23.17-.908 20.274 1.983-2.085.435-7.774 1.876-11.677 5.481-14.845 17.772-12.362 22.489-12.302 4.246.054 21.753 5.007 25.672 14.932 6.259 15.852 3.939 12.843 9.352 15.106 5.323 2.223-8.848 9.068-3.892-1.942 5.202-11.555 33.69-29.899 30.701-11.296-.139.865 10.376 16.636 14.894 25.882 6.994 14.311 17.476 34.5 18.981 48.879.293 2.796 9.248 20.12 1.314 14.57l-1.702 5.55-52.173 4.433-49.497-1.66-3.173-13.735c-6.175-26.73-28.78-38.23-56.267-44.968-10.1-2.476-16.468-2.463-25.899.03-13.996 3.7-21.588 6.206-31.846 15.874-11.326 10.675-10.17 48.145-22.21 40.056l-4.849-3.257-45.137 11.19-43.875-11.19-11.558.526z" transform="scale(.26459)"/><path style="fill:#045ca4;fill-opacity:1;stroke:none;stroke-width:1;stroke-linecap:round;stroke-linejoin:round;stroke-miterlimit:4;stroke-dasharray:none;stroke-opacity:1;paint-order:normal" d="M174.373 352.088c-14.002-1.074-32.168 2.984-45.116-1.806-14.673-5.428-38.486-23.03-51.715-33.259-13.471-10.415-41.03-26.48-37.713-44.745l-.42-9.98-9.595-39.785c-.584-2.42 29.443 30.072 34.904 33.51 2.361 1.485 8.84 8.048 15.157 13.065 14.1 11.2 23.297 14.135 30.157 17.299 8.345 3.849-2.836-7.947 2.512-9.433 3.415-.948 2.458 10.077 12.503.712 4.756-4.435 22.8-10.081 24.914-11.79 6.568-5.312 9.693-4.182 23.394-9.581l12.806-5.047c6.335 2.966 30.982-36.84 32.593 3.917.725 18.338-1.23.029 11.943 12.334 17.29 16.15 8.529 15.21 14.7 15.21 9.14 0 30.747-2.637 46.334-15.319 18.43-14.994 60.272-19.173 54.133-14.907L330.33 263.28l13.862-11.14c30.424-24.445-56.43 80.099-93.268 92.368-19.58 6.521-56.504 9.119-76.551 7.58z" transform="scale(.26459)"/><path fill="#f9af17" d="m52.402 2.937.188.012-.188-.012M36.158 4.669l.112-.033-.112.033m.71-.2c.125-.034.25-.069.376-.102a43.77 43.77 0 0 0-.377.102m2.148-.534c.212-.047.424-.094.637-.139-.213.045-.425.092-.637.14m-1.21.286c.151-.038.303-.075.455-.111l-.455.11M59.11 3.9l.048.01-.048-.01m-3.328-.603.144.02-.144-.02m-6.636-.476h-.003.003m4.99.27c.076.007.154.017.23.025l-.23-.026"/><path fill="#644a3a" d="M39.652 3.796c.154-.032.309-.062.463-.092-.154.03-.309.06-.463.092m-3.494.873c-.238.07-.477.139-.714.212v.002a41.8 41.8 0 0 1 .714-.214m10.485-1.78c.106-.006.213-.01.319-.015l-.319.015m-4.801.507.334-.053-.335.053m2.348-.31.36-.038-.36.037m1.3-.12.105-.01-.106.01m-2.374.247.368-.046-.368.046"/><path fill="#fff" d="M2.822 49.144h92.644H2.822"/><path style="fill:none;stroke:#000;stroke-width:.263374px;stroke-linecap:butt;stroke-linejoin:miter;stroke-opacity:1" d="M88.037 69.243c-1.076-.043-2.14.226-3.13.63-1.32.54-2.537 1.3-3.697 2.122-1.127.8-2.192 1.681-3.269 2.547-1.028.826-2.169 1.525-3.41 1.984-1.176.435-2.423.634-3.668.742-.712.06-1.424.121-2.139.132-.73.01-1.454-.143-2.142-.377-1.435-.49-2.727-1.35-3.8-2.42-.727-.727-1.427-1.481-2.183-2.18A14.645 14.645 0 0 0 58.3 70.71c-1.255-.769-2.566-1.44-3.882-2.099l-.704-.35"/><path d="M174.373 352.088c-14.002-1.074-32.168 2.984-45.116-1.806-14.673-5.428-38.486-23.03-51.715-33.259-13.471-10.415-41.03-26.48-37.713-44.745l-.42-9.98-9.595-39.785c-.584-2.42 29.443 30.072 34.904 33.51 2.361 1.485 8.84 8.048 15.157 13.065 14.1 11.2 23.297 14.135 30.157 17.299 8.345 3.849-2.836-7.947 2.512-9.433 3.415-.948 2.458 10.077 12.503.712 4.756-4.435 22.8-10.081 24.914-11.79 6.568-5.312 9.693-4.182 23.394-9.581l12.806-5.047c6.335 2.966 30.982-36.84 32.593 3.917.725 18.338-1.23.029 11.943 12.334 17.29 16.15 8.529 15.21 14.7 15.21 9.14 0 30.747-2.637 46.334-15.319 18.43-14.994 60.272-19.173 54.133-14.907L330.33 263.28l13.862-11.14c30.424-24.445-56.43 80.099-93.268 92.368-19.58 6.521-56.504 9.119-76.551 7.58z"/><path d="M174.373 352.088c-14.002-1.074-32.168 2.984-45.116-1.806-14.673-5.428-38.486-23.03-51.715-33.259-13.471-10.415-41.03-26.48-37.713-44.745l-.42-9.98-9.595-39.785c-.584-2.42 29.443 30.072 34.904 33.51 2.361 1.485 8.84 8.048 15.157 13.065 14.1 11.2 23.297 14.135 30.157 17.299 8.345 3.849-2.836-7.947 2.512-9.433 3.415-.948 2.458 10.077 12.503.712 4.756-4.435 22.8-10.081 24.914-11.79 6.568-5.312 9.693-4.182 23.394-9.581l12.806-5.047c6.335 2.966 30.982-36.84 32.593 3.917.725 18.338-1.23.029 11.943 12.334 17.29 16.15 8.529 15.21 14.7 15.21 9.14 0 30.747-2.637 46.334-15.319 18.43-14.994 60.272-19.173 54.133-14.907L330.33 263.28l13.862-11.14c30.424-24.445-56.43 80.099-93.268 92.368-19.58 6.521-56.504 9.119-76.551 7.58z"/><path d="M174.373 352.088c-14.002-1.074-32.168 2.984-45.116-1.806-14.673-5.428-38.486-23.03-51.715-33.259-13.471-10.415-41.03-26.48-37.713-44.745l-.42-9.98-9.595-39.785c-.584-2.42 29.443 30.072 34.904 33.51 2.361 1.485 8.84 8.048 15.157 13.065 14.1 11.2 23.297 14.135 30.157 17.299 8.345 3.849-2.836-7.947 2.512-9.433 3.415-.948 2.458 10.077 12.503.712 4.756-4.435 22.8-10.081 24.914-11.79 6.568-5.312 9.693-4.182 23.394-9.581l12.806-5.047c6.335 2.966 30.982-36.84 32.593 3.917.725 18.338-1.23.029 11.943 12.334 17.29 16.15 8.529 15.21 14.7 15.21 9.14 0 30.747-2.637 46.334-15.319 18.43-14.994 60.272-19.173 54.133-14.907L330.33 263.28l13.862-11.14c30.424-24.445-56.43 80.099-93.268 92.368-19.58 6.521-56.504 9.119-76.551 7.58z"/><path d="M174.373 352.088c-14.002-1.074-32.168 2.984-45.116-1.806-14.673-5.428-38.486-23.03-51.715-33.259-13.471-10.415-41.03-26.48-37.713-44.745l-.42-9.98-9.595-39.785c-.584-2.42 29.443 30.072 34.904 33.51 2.361 1.485 8.84 8.048 15.157 13.065 14.1 11.2 23.297 14.135 30.157 17.299 8.345 3.849-2.836-7.947 2.512-9.433 3.415-.948 2.458 10.077 12.503.712 4.756-4.435 22.8-10.081 24.914-11.79 6.568-5.312 9.693-4.182 23.394-9.581l12.806-5.047c6.335 2.966 30.982-36.84 32.593 3.917.725 18.338-1.23.029 11.943 12.334 17.29 16.15 8.529 15.21 14.7 15.21 9.14 0 30.747-2.637 46.334-15.319 18.43-14.994 60.272-19.173 54.133-14.907L330.33 263.28l13.862-11.14c30.424-24.445-56.43 80.099-93.268 92.368-19.58 6.521-56.504 9.119-76.551 7.58z"/><path d="M257.464 292.147c-3.96-.844-6.13-1.474-8.2-2.471-8.362-4.03-11.885-8.176-13.253-9.705-1.367-1.53-.117-1.09 2.456 2.111 0 0-7.373-6.251-7.456-8.31-.029-.7 3.988 5.14 3.765 4.802-.223-.337 0 0-.8-.949-.454-.538-.914-.89-.914-.89s-7.303-6.744-11.48-9.241l-12.955-7.4-19.334-6.874c-6.506-2.314 13.573.242 19.733-2.597 8.537-3.934 19.49-8.539 26.62-15.825 10.215-10.44.898-39.427 14.94-38.645l3.707-10.419 50.25 7.965c37.983 6.02 46.293-7.603 46.293-6.776 0 .527 4.588 15.2 4.029 19.49-2.13 16.348-4.117 31.075-10.9 46.131-3.572 7.932-12.597 8.945-14.644 8.945-3.074 0-9.428 2.494-13.39 4.48-4.139 2.075-8.395 4.904-14.748 9.876-1.51 1.18.772-.508-1.001.934-17.475 14.213-24.412 13.504-24.412 13.504-1.233.45-14.627 2.647-18.306 1.864z"/><path d="M257.464 292.147c-3.96-.844-6.13-1.474-8.2-2.471-8.362-4.03-11.885-8.176-13.253-9.705-1.367-1.53-.117-1.09 2.456 2.111 0 0-7.373-6.251-7.456-8.31-.029-.7 3.988 5.14 3.765 4.802-.223-.337 0 0-.8-.949-.454-.538-.914-.89-.914-.89s-7.303-6.744-11.48-9.241l-12.955-7.4-19.334-6.874c-6.506-2.314 13.573.242 19.733-2.597 8.537-3.934 19.49-8.539 26.62-15.825 10.215-10.44.898-39.427 14.94-38.645l3.707-10.419 50.25 7.965c37.983 6.02 46.293-7.603 46.293-6.776 0 .527 4.588 15.2 4.029 19.49-2.13 16.348-4.117 31.075-10.9 46.131-3.572 7.932-12.597 8.945-14.644 8.945-3.074 0-9.428 2.494-13.39 4.48-4.139 2.075-8.395 4.904-14.748 9.876-1.51 1.18.772-.508-1.001.934-17.475 14.213-24.412 13.504-24.412 13.504-1.233.45-14.627 2.647-18.306 1.864z"/><path style="fill:#73bbe3;fill-opacity:1;stroke:none;stroke-width:1;stroke-linecap:round;stroke-linejoin:round;stroke-miterlimit:4;stroke-dasharray:none;stroke-opacity:1" d="M257.464 292.147c-3.96-.844-6.13-1.474-8.2-2.471-8.362-4.03-11.885-8.176-13.253-9.705-1.367-1.53-.117-1.09 2.456 2.111 0 0-7.373-6.251-7.456-8.31-.029-.7 3.988 5.14 3.765 4.802-.223-.337 0 0-.8-.949-.454-.538-.914-.89-.914-.89s-7.303-6.744-11.48-9.241l-12.955-7.4-19.334-6.874c-6.506-2.314 13.573.242 19.733-2.597 8.537-3.934 19.49-8.539 26.62-15.825 10.215-10.44.898-39.427 14.94-38.645l3.707-10.419 50.25 7.965c37.983 6.02 46.293-7.603 46.293-6.776 0 .527 4.588 15.2 4.029 19.49-2.13 16.348-4.117 31.075-10.9 46.131-3.572 7.932-12.597 8.945-14.644 8.945-3.074 0-9.428 2.494-13.39 4.48-4.139 2.075-8.395 4.904-14.748 9.876-1.51 1.18.772-.508-1.001.934-17.475 14.213-24.412 13.504-24.412 13.504-1.233.45-14.627 2.647-18.306 1.864z" transform="scale(.26459)"/><path fill="#201e1d" d="M49.144 44.744a4.404 4.404 0 0 0-4.4 4.4c0 2.425 1.974 4.4 4.4 4.4 2.425 0 4.4-1.975 4.4-4.4a4.404 4.404 0 0 0-4.4-4.4zm0 14.442c-5.538 0-10.043-4.505-10.043-10.043 0-5.537 4.505-10.042 10.043-10.042 5.537 0 10.042 4.505 10.042 10.042 0 5.538-4.505 10.043-10.042 10.043m46.322-7.221H66.132v-5.643h29.334v5.643"/><path d="M109.25 292.173c-5.015-1.088-13.673.42-19.16-3.307-2.163-1.468-8.202-3.689-14.563-8.741-16.915-13.435-32.12-22.186-36.942-15.32l-1.27 1.808-13.021-13.565c-10.836-11.29-10.898-33.098-12.858-49.007-.38-3.082 2.563-16.598 3.11-15.977l51.549-2.33 49.327-.519 5.83 11.123s4.045 8.78 6.827 14.161c7.025 13.587 15.937 24.206 29.672 31.166 6.506 3.296 41.687 14.895 25.125 15.066-.407.004-6.463.889-10.592 2.74-7.327 3.287-13.069 5.966-18.338 9.344-5.268 3.378-10.064 7.456-13.628 10.733-4.964 4.565-10.68 8.08-12.392 9.258-2.631 1.81-9.084 3.761-10.428 3.58-.215-.028-5.91.294-8.247-.213z"/><path style="fill:#73bbe3;fill-opacity:1;stroke:none;stroke-width:1;stroke-linecap:round;stroke-linejoin:round;stroke-miterlimit:4;stroke-dasharray:none;stroke-opacity:1" d="M109.25 292.173c-5.015-1.088-13.673.42-19.16-3.307-2.163-1.468-8.202-3.689-14.563-8.741-16.915-13.435-32.12-22.186-36.942-15.32l-1.27 1.808-13.021-13.565c-10.836-11.29-10.898-33.098-12.858-49.007-.38-3.082 2.563-16.598 3.11-15.977l51.549-2.33 49.327-.519 5.83 11.123s4.045 8.78 6.827 14.161c7.025 13.587 15.937 24.206 29.672 31.166 6.506 3.296 41.687 14.895 25.125 15.066-.407.004-6.463.889-10.592 2.74-7.327 3.287-13.069 5.966-18.338 9.344-5.268 3.378-10.064 7.456-13.628 10.733-4.964 4.565-10.68 8.08-12.392 9.258-2.631 1.81-9.084 3.761-10.428 3.58-.215-.028-5.91.294-8.247-.213z" transform="scale(.26459)"/><path fill="#201e1d" d="M49.144 34.98c-7.81 0-14.165 6.353-14.165 14.163 0 7.81 6.354 14.165 14.165 14.165 7.81 0 14.164-6.354 14.164-14.165 0-7.81-6.354-14.164-14.164-14.164zm0 33.97c-10.922 0-19.808-8.885-19.808-19.807 0-10.921 8.886-19.807 19.808-19.807 10.921 0 19.807 8.886 19.807 19.807 0 10.922-8.886 19.808-19.807 19.808"/><path fill="#201e1d" d="M32.155 51.965H2.821v-5.643h29.334v5.643"/><path style="fill:none;stroke:#000;stroke-width:.26459px;stroke-linecap:butt;stroke-linejoin:miter;stroke-opacity:1" d="M12.15 26.326c1.014 2.478 2.026 4.95 2.98 6.293.954 1.343 1.85 1.553 2.834 1.103.985-.45 2.058-1.56 2.763-2.369.705-.808 1.042-1.315 1.986-3.157.944-1.843 2.494-5.022 3.924-5.68 1.43-.657 2.74 1.206 3.48 2.254.74 1.048.908 1.28 1.053 1.515.145.236.266.476.582.982a12.28 12.28 0 0 0 1.557 2.035c.732.76 1.684 1.508 2.81 1.122 1.126-.386 2.426-1.904 3.499-3.669 1.072-1.765 1.916-3.775 2.664-5.6.748-1.826 1.4-3.466 2.264-4.86.865-1.392 1.942-2.538 3.015-3.065 1.074-.526 2.144-.434 2.816-.279.672.156.946.375 1.18.593.235.217.429.432.623.648.546.636 1.093 1.272 1.672 2.24.579.966 1.19 2.263 1.53 3.067.339.805.407 1.116.78 2.059.371.943 1.046 2.518 1.914 3.912.868 1.394 1.928 2.607 2.924 3.352.995.745 1.926 1.022 2.718.738.793-.285 1.448-1.132 1.904-2.026.455-.895.712-1.836 1.139-2.952.427-1.116 1.025-2.408 1.726-3.126.7-.72 1.505-.865 2.223-.55.719.313 1.352 1.087 1.73 1.617.38.53.505.816.631 1.103.356.885.712 1.771 1.011 2.535.3.763.54 1.405 1.54 3.158 1 1.754 2.756 4.62 4.229 4.418 1.473-.201 2.662-3.469 3.51-5.468.848-2 1.354-2.73 1.86-3.462"/><path style="fill:#fff;fill-opacity:1;stroke:none;stroke-width:.714945;stroke-linecap:round;stroke-linejoin:round;stroke-miterlimit:4;stroke-dasharray:none;stroke-opacity:1;paint-order:normal" d="M60.1 125.06c-2.427-2.133-7.99-12.555-11.86-22.222l-1.62-4.046 4.15-5.963c20.654-29.669 49.665-51.374 83.997-62.845 16.913-5.652 31.662-8.003 50.404-8.036 15.353-.026 25.518 1.154 39.68 4.606 35.661 8.695 69.342 30.866 91.41 60.173l4.908 6.517-2.01 3.266c-1.105 1.796-3.8 7.42-5.99 12.496-7.478 17.342-10.462 20.158-16.28 15.362-5.106-4.209-12.296-16.412-17.752-30.131-4.526-11.379-9-16.308-14.806-16.308-5.438 0-9.53 5.463-14.78 19.735-4.968 13.508-10.657 16.624-18.692 10.239-7.011-5.572-12.758-14.417-18.08-27.83-5.643-14.214-13.202-30.248-15.77-33.442-3.014-3.75-6.035-5.164-11.038-5.164-6.412 0-10.702-1.394-14.33 4.108-4.242 6.43-3.149 10.164-10.38 27.963-9.47 23.311-13.664 30.977-20.28 37.076-7.374 6.797-11.494 4.771-21.792-10.71-7.421-11.158-11.206-15.27-14.65-15.916-5.176-.97-9.113 2.923-16.279 16.104-7.22 13.282-7.72 14.095-11.365 18.474-4.062 4.882-9.452 8.694-12.29 8.694-1.211 0-2.984-.866-4.504-2.2z" transform="scale(.26459)"/><path style="fill:#fff;fill-opacity:1;stroke:none;stroke-width:.261607;stroke-linecap:round;stroke-linejoin:round;stroke-miterlimit:4;stroke-dasharray:none;stroke-opacity:1;paint-order:normal" d="M62.46 126.47c-2.82-1.404-4.974-4.47-9.362-13.325-2.3-4.64-5.91-12.838-6.189-14.048-.044-.193 1.29-2.315 2.965-4.715 1.674-2.4 2.93-4.403 2.79-4.45-.248-.082 2.838-4.29 5.808-7.918 7.1-8.673 16.392-17.824 25.242-24.857 9.353-7.433 18.254-13.099 28.908-18.403 18.855-9.386 37.362-14.633 58.893-16.695 6.333-.606 22.119-.606 28.452 0 21.543 2.063 40.027 7.303 58.893 16.695 12.715 6.33 24.77 14.415 35.151 23.574 5.402 4.767 15.277 14.888 15.462 15.848.054.284 1.022 1.617 2.15 2.962 1.99 2.373 8.303 10.556 8.982 11.643.297.477.185.79-.983 2.734-1.785 2.97-3.177 5.808-6.34 12.921-7.102 15.977-9.734 19.255-13.919 17.339-5.368-2.458-12.97-14.336-19.886-31.073-5.028-12.166-9.133-16.765-15.007-16.813-4.213-.034-7.345 2.781-10.847 9.75-.615 1.222-2.256 5.064-3.648 8.535-1.392 3.472-3.052 7.235-3.69 8.363-1.549 2.739-4.14 5.375-5.85 5.95-3.664 1.234-6.975-.18-12.143-5.185-6.253-6.054-10.377-13.018-16.348-27.605-3.38-8.254-4.009-9.675-4.513-10.188-.22-.224-1.11-1.702-1.979-3.284-1.94-3.534-3.319-5.614-5.633-8.503-2.575-3.213-5.264-5.84-6.654-6.502-4.468-2.127-11.163-1.618-15.372 1.168-6.15 4.072-10.808 10.782-16 23.058-1.05 2.482-2.039 4.513-2.197 4.513-.158 0-1.274 2.325-2.48 5.167-2.752 6.484-6.297 13.873-8.233 17.162-3.202 5.443-7.79 10.608-11.297 12.72-1.237.745-1.829.928-3.272 1.01-1.587.09-1.92.015-3.353-.75-1.68-.895-4.67-3.8-6.858-6.663-.66-.863-2.942-4.1-5.072-7.194-6.591-9.576-9.892-13.46-12.688-14.933-1.693-.893-4.582-.888-6.406.01-3.215 1.581-6.856 6.525-12.824 17.408-5.2 9.485-6.963 12.385-9.261 15.243-3.578 4.448-7.841 8.094-10.966 9.38-1.91.785-2.774.775-4.427-.048z" transform="scale(.26459)"/><path style="fill:none;fill-opacity:1;stroke:none;stroke-width:.261607;stroke-linecap:round;stroke-linejoin:round;stroke-miterlimit:4;stroke-dasharray:none;stroke-opacity:1;paint-order:normal" d="M62.478 126.48c-1.8-.897-3.036-2.159-4.852-4.957-2.052-3.16-6.847-12.827-9.07-18.287l-1.799-4.415 2.993-4.285c1.645-2.357 2.928-4.39 2.85-4.517-.14-.226 2.92-4.399 5.872-8.005 6.41-7.83 15.181-16.615 23.28-23.315 8.63-7.14 19.51-14.234 29.823-19.446 19.612-9.912 38.859-15.337 61.478-17.327 5.611-.494 20.944-.418 26.815.132 21.474 2.015 40.202 7.313 58.992 16.69 11.848 5.912 22.01 12.575 32.437 21.27 5.765 4.806 17.995 16.968 18.154 18.053.032.213 1.592 2.306 3.466 4.65 3.934 4.919 7.944 10.234 7.944 10.528 0 .112-.6 1.195-1.332 2.408-1.519 2.514-3.726 7.063-6.647 13.695-5.274 11.972-8.225 16.433-11.192 16.915-4.92.798-13.71-11.453-21.625-30.139-2.908-6.865-3.825-8.737-5.635-11.498-3.065-4.675-6.063-6.7-9.943-6.715-5.566-.021-8.928 4.266-14.726 18.777-1.27 3.181-2.833 6.709-3.473 7.84-1.552 2.743-4.142 5.38-5.852 5.955-3.665 1.234-6.976-.18-12.144-5.185-6.152-5.957-10.346-12.981-16.092-26.95-3.518-8.555-4.323-10.382-4.719-10.704-.192-.156-.977-1.461-1.745-2.9-2-3.746-4.52-7.41-7.404-10.765-4.283-4.982-6.126-5.922-11.675-5.957-3.979-.026-6.077.556-9.08 2.516-5.957 3.889-10.805 11.02-16.145 23.752-.802 1.911-1.632 3.606-1.845 3.766-.213.16-1.457 2.764-2.764 5.785-6.94 16.045-11.28 22.993-17.424 27.889-2.158 1.72-3.54 2.314-5.4 2.32-3.843.016-7.255-3.326-15.089-14.774-4.722-6.9-6.648-9.411-9.18-11.967-2.772-2.797-4.038-3.454-6.657-3.453-4.817.004-7.87 3.513-16.348 18.794-2.435 4.389-5.032 8.953-5.77 10.144-3.756 6.056-9.825 11.975-14.07 13.72-1.904.784-2.773.776-4.407-.038z" transform="scale(.26459)"/><path style="fill:none;fill-opacity:1;stroke:none;stroke-width:.261607;stroke-linecap:round;stroke-linejoin:round;stroke-miterlimit:4;stroke-dasharray:none;stroke-opacity:1;paint-order:normal" d="M62.478 126.48c-.874-2.141-3.516-3.071-4.854-4.957-4-5.636-6.374-12.274-9.201-18.58-.615-1.373-1.884-2.695-1.687-4.186.043-.325.403-.517.592-.785 1.833-2.599 3.393-5.385 5.252-7.965 3.31-4.593 6.726-9.127 10.49-13.356 4.569-5.135 8.958-10.646 14.627-14.532 26.622-18.252 57.045-31.905 88.423-39.47 6.368-1.534 13.072-1.058 19.621-1.046 6.944.014 13.924.207 20.798 1.19 10.897 1.558 21.757 3.88 32.177 7.428 10.214 3.477 20.075 8.1 29.431 13.474 8.184 4.7 15.913 10.242 23.152 16.297 6.539 5.469 12.624 11.518 18.184 17.98 1.298 1.509 2.334 3.226 3.519 4.827 2.595 3.506 7.547 6.113 7.86 10.464.07.998-.984 1.743-1.443 2.632-2.262 4.387-4.013 9.037-6.456 13.326-3.37 5.92-4.544 15.98-11.273 17.046-4.098.648-7.078-4.569-9.737-7.754-5.2-6.232-7.655-14.316-11.514-21.457-2.782-5.149-4.219-11.319-8.392-15.422-1.86-1.829-4.333-3.444-6.935-3.623-2.229-.153-4.608.813-6.309 2.262-4.688 3.993-6.005 10.753-8.92 16.177-2.043 3.8-2.997 8.373-6.004 11.466-1.395 1.435-3.237 2.915-5.238 2.934-3.914.036-7.527-2.836-10.35-5.548-7.873-7.564-11.627-18.515-16.617-28.226-1.568-3.053-2.582-6.37-4.17-9.412-.593-1.136-1.308-2.204-1.994-3.285-1.856-2.924-3.363-6.142-5.743-8.657-2.878-3.04-5.957-6.717-10.068-7.508-4.733-.91-10.076.89-13.97 3.73-7.064 5.153-9.905 14.441-14.182 22.069-.735 1.31-1.314 2.7-1.964 4.055-.881 1.835-1.085 4.183-2.625 5.515-4.923 4.258-14.615.662-18.657 5.764-5.02 6.336 3.682 18.135-1.669 24.194-.592.67-1.776.77-2.632.514-6.747-2.02-10.427-9.508-15.102-14.775-3.364-3.79-5.371-8.811-9.266-12.053-1.888-1.572-4.15-3.833-6.559-3.357-8.488 1.678-11.625 12.846-16.87 19.726-4.188 5.493-6.852 12.158-11.618 17.156-2.212 2.32-4.653 4.767-7.7 5.766-1.395.458-3.373 1.006-4.407-.038z" transform="scale(.26459)"/><path style="fill:none;stroke:#000;stroke-width:.26459px;stroke-linecap:butt;stroke-linejoin:miter;stroke-opacity:1" d="M47.98 5.325c-.536.859-1.065 1.708-.935 2.483.13.776.917 1.464 1.648 1.635.73.171 1.439-.196 1.865-.602.425-.406.667-.943.537-1.548-.13-.604-.583-1.385-1.036-2.165"/><path style="fill:#73bbe3;fill-opacity:1;stroke:none;stroke-width:.6698;stroke-linecap:round;stroke-linejoin:round;stroke-miterlimit:4;stroke-dasharray:none;stroke-opacity:1;paint-order:normal" d="M175.661 36.054c-2.672-2.671-6.727-15.373-2.137-15.118l7.951.441 4.309-5.192 9.696 1.543-1.187 4.874c-1.06 4.358 5.412 11.042 2.732 13.722-1.77 1.769-9.026 2.007-10.952 2.007-1.925 0-8.643-.508-10.412-2.277z" transform="scale(.26459)"/><path style="fill:#fff;fill-opacity:1;stroke:none;stroke-width:.269374;stroke-linecap:round;stroke-linejoin:round;stroke-miterlimit:4;stroke-dasharray:none;stroke-opacity:1;paint-order:normal" d="M62.476 126.479c-1.77-.883-3.254-2.45-5.105-5.395-2.085-3.316-6.64-12.54-8.812-17.846l-1.792-4.376 2.953-4.294c1.625-2.362 2.921-4.399 2.88-4.527-.1-.323 2.699-4.115 6.117-8.286 12.408-15.138 27.51-28.005 44.723-38.106 4.806-2.82 14.375-7.554 19.933-9.86 13.047-5.415 29.776-9.71 43.908-11.275 4.58-.507 11.992-1.05 12.153-.888.064.064-.188.649-.56 1.3-1.214 2.123-1.845 4.445-1.686 6.203.249 2.738 2.233 5.25 5.232 6.622 3.75 1.717 8.842-.234 10.74-4.115 1.05-2.147.866-4.267-.655-7.512-.616-1.314-1.065-2.444-.998-2.511.066-.067 2.159.016 4.649.185 17.386 1.175 34.423 5.021 50.456 11.392 5.642 2.241 16.19 7.39 21.415 10.45 10.93 6.405 20.75 13.742 30.226 22.583 4.278 3.992 11.182 11.326 11.278 11.982.031.21 1.317 1.942 2.858 3.85a336.497 336.497 0 0 1 5.703 7.324l2.903 3.853-1.516 2.54c-1.65 2.765-3.353 6.275-6.629 13.66-5.636 12.706-8.528 16.915-11.614 16.902-3.435-.015-9.413-6.82-14.907-16.968-2.278-4.209-3.88-7.621-6.637-14.142-2.616-6.187-3.365-7.706-5.191-10.519-1.877-2.891-3.77-4.733-5.989-5.825-1.63-.803-2.06-.896-4.116-.896-2.042 0-2.455.088-3.742.8-3.635 2.014-6.527 6.79-10.944 18.075-2.708 6.918-4.334 9.772-6.86 12.043-3.553 3.195-7.638 2.556-12.933-2.02-6.82-5.896-11.7-13.845-18.157-29.572-3.522-8.578-3.74-9.042-6.292-13.4-3.116-5.316-5.264-8.217-8.556-11.549-2.514-2.545-3.2-3.087-4.532-3.575-5.805-2.129-12.31-.84-17.178 3.405-4.981 4.344-8.892 10.442-13.432 20.944-.768 1.778-1.686 3.73-2.04 4.338-.353.609-1.624 3.397-2.824 6.196-3.193 7.445-7.477 15.978-9.723 19.367-2.574 3.882-7.702 9.106-10.072 10.258-5.147 2.503-8.771-.254-17.91-13.626-6.299-9.217-9.773-13.368-12.529-14.974-1.185-.69-1.605-.783-3.502-.78-2.715.007-3.881.573-6.364 3.095-2.438 2.476-5 6.467-10.442 16.264-5.487 9.878-6.732 11.834-9.793 15.388-4.223 4.903-9.304 8.484-12.037 8.484-.397 0-1.323-.3-2.058-.666z" transform="scale(.26459)"/><path fill="#201e1d" d="M49.144 5.643c-23.987 0-43.501 19.514-43.501 43.5 0 23.987 19.514 43.501 43.5 43.501 23.987 0 43.502-19.514 43.502-43.5 0-23.987-19.515-43.501-43.501-43.501zm0 92.644C22.046 98.287 0 76.241 0 49.144 0 22.045 22.046 0 49.144 0s49.143 22.045 49.143 49.144c0 27.097-22.045 49.143-49.143 49.143"/><path style="fill:none;stroke:#000;stroke-width:.267111px;stroke-linecap:butt;stroke-linejoin:miter;stroke-opacity:1" d="M10.751 69.578c1.12-.046 2.231.22 3.259.649 1.31.545 2.507 1.322 3.653 2.15 1.033.748 2.017 1.559 3.026 2.337 1.067.823 2.246 1.51 3.52 1.96 1.257.443 2.587.636 3.912.738.69.054 1.379.11 2.07.12.807.01 1.608-.158 2.368-.42 1.39-.478 2.647-1.3 3.704-2.32.687-.663 1.353-1.349 2.059-1.993a14.351 14.351 0 0 1 1.942-1.49c1.059-.677 2.175-1.258 3.299-1.82.68-.339 1.364-.67 2.05-.997"/><path style="fill:#fff;stroke-width:0;stroke-linecap:round;stroke-linejoin:round" d="M176.308 237.966c-20.25-3.81-36.711-19.102-42.035-39.049-1.878-7.033-1.997-18.602-.262-25.38 4.996-19.521 20.037-34.564 39.526-39.531 6.783-1.73 18.358-1.608 25.38.267 25.71 6.862 43.19 32.534 39.505 58.02-1.765 12.206-6.753 22.233-15.324 30.805-12.627 12.626-29.763 18.071-46.79 14.868zm19.298-15.3c6.374-1.644 12.048-4.963 17.072-9.988 7.576-7.575 11.092-16.183 11.076-27.117-.014-10.444-3.672-19.505-10.73-26.579-7.25-7.268-14.616-10.575-24.939-11.196-29.846-1.795-49.705 28.86-36.184 55.854 4.322 8.629 13.981 16.377 23.762 19.061 4.765 1.308 14.801 1.29 19.943-.036z" transform="scale(.26459)"/><path style="fill:#fff;stroke-width:0;stroke-linecap:round;stroke-linejoin:round" d="M182.543 201.654c-12.765-3.2-17.2-18.717-7.878-27.562 10.132-9.613 27.175-2.348 27.139 11.569-.012 4.75-1.385 8.057-4.736 11.407-3.915 3.915-9.794 5.772-14.525 4.586z" transform="scale(.26459)"/><path style="fill:#fff;stroke-width:0;stroke-linecap:round;stroke-linejoin:round" d="M182.543 201.64c-12.735-3.101-17.197-18.706-7.878-27.548 10.157-9.637 27.134-2.365 27.154 11.631.011 7.467-4.896 13.744-12.234 15.647-3.86 1.002-4.01 1.007-7.042.27z" transform="scale(.26459)"/><path style="fill:#fff;stroke-width:0;stroke-linecap:round;stroke-linejoin:round" d="M182.543 201.64c-12.735-3.101-17.197-18.706-7.878-27.548 10.157-9.637 27.134-2.365 27.154 11.631.011 7.316-4.565 13.443-11.608 15.545-3.695 1.102-4.504 1.141-7.668.371z" transform="scale(.26459)"/><path style="fill:#fff;stroke-width:0;stroke-linecap:round;stroke-linejoin:round" d="M175.89 237.961c-20.035-3.992-36.346-19.295-41.617-39.044-1.82-6.817-1.974-18.517-.333-25.254 4.676-19.196 20.51-35.046 39.672-39.71 6.79-1.654 18.465-1.506 25.305.32 20.112 5.367 35.144 21.615 39.11 42.27 2.344 12.203-.257 25.717-7.136 37.084-3.471 5.737-11.947 14.084-17.873 17.603-11.288 6.704-24.891 9.17-37.129 6.731zm19.716-15.296c12.946-3.338 23.606-14.077 27.135-27.337 1.198-4.505 1.319-13.023.256-18.12-1.852-8.882-7.843-17.664-15.638-22.925-22.319-15.063-52.692-3.247-58.842 22.891-4.672 19.854 8.053 40.739 27.791 45.615 4.949 1.223 14.309 1.162 19.298-.124z" transform="scale(.26459)"/></svg>