<svg xmlns="http://www.w3.org/2000/svg" width="371.48" height="371.48" viewBox="0 0 98.29 98.29"><path fill="#fff" d="M2.822 49.144c0 25.583 20.739 46.322 46.322 46.322 25.584 0 46.323-20.74 46.323-46.322"/><path fill="#7053ae" d="M2.822 49.144C2.822 23.56 23.56 2.82 49.144 2.82c25.584 0 46.323 20.74 46.323 46.323"/><path fill="#43a9d3" d="M2.822 49.144C2.822 23.56 23.56 2.82 49.144 2.82c25.584 0 46.323 20.74 46.323 46.323"/><path fill="#f03e51" d="M37.072 27.65L25.063 9.564A46.556 46.556 0 0 0 9.171 25.728L27.11 36.37l9.962-8.722"/><path fill="#232121" d="M12.703 24.87l14.121 8.378 6.904-6.045-9.391-14.141a44.187 44.187 0 0 0-11.634 11.809zM27.4 39.495L5.702 26.622l1.28-2.18A49.214 49.214 0 0 1 23.74 7.397l2.088-1.272 14.587 21.971L27.4 39.494"/><path fill="#f03e51" d="M60.239 27.65L72.248 9.564A46.541 46.541 0 0 1 88.14 25.728L70.198 36.37l-9.959-8.722"/><path fill="#232121" d="M63.583 27.203l6.904 6.045 14.118-8.377a44.167 44.167 0 0 0-11.63-11.809zm6.33 12.29L56.894 28.097l14.587-21.97 2.085 1.271a49.195 49.195 0 0 1 16.76 17.045l1.281 2.18-21.696 12.872"/><path fill="#fff" d="M2.822 49.144h92.645H2.822"/><path fill="#201e1d" d="M95.467 51.965H2.822v-5.642h92.645v5.642"/><path fill="#fff" d="M66.13 49.144c0 9.38-7.605 16.986-16.986 16.986-9.38 0-16.986-7.605-16.986-16.986s7.606-16.986 16.986-16.986S66.13 39.763 66.13 49.144"/><path fill="#201e1d" d="M49.144 34.98c-7.81 0-14.164 6.353-14.164 14.164 0 7.81 6.354 14.164 14.164 14.164s14.164-6.354 14.164-14.164S56.955 34.98 49.144 34.98zm0 33.97c-10.922 0-19.808-8.885-19.808-19.806 0-10.922 8.886-19.808 19.808-19.808s19.809 8.886 19.809 19.808S60.066 68.95 49.144 68.95"/><path fill="#fff" d="M56.366 49.144a7.222 7.222 0 0 1-14.443 0 7.223 7.223 0 0 1 14.443 0"/><path fill="#201e1d" d="M49.144 44.744a4.403 4.403 0 0 0-4.399 4.4c0 2.425 1.972 4.4 4.4 4.4a4.403 4.403 0 0 0 4.398-4.4c0-2.426-1.972-4.4-4.399-4.4zm0 14.442c-5.539 0-10.043-4.505-10.043-10.042 0-5.538 4.504-10.043 10.043-10.043s10.044 4.505 10.044 10.043c0 5.537-4.505 10.042-10.044 10.042"/><path fill="#201e1d" d="M49.144 5.643c-23.985 0-43.501 19.514-43.501 43.5 0 23.987 19.516 43.501 43.501 43.501 23.986 0 43.501-19.514 43.501-43.5 0-23.987-19.515-43.501-43.5-43.501zm0 92.644C22.047 98.287 0 76.242 0 49.144S22.047 0 49.144 0c27.097 0 49.142 22.046 49.142 49.144S76.241 98.287 49.144 98.287"/></svg>