<svg width="371.48" height="371.48" viewBox="0 0 98.29 98.29" xmlns="http://www.w3.org/2000/svg"><path fill="#fff" d="M95.466 49.144c0 25.583-20.74 46.322-46.322 46.322-25.583 0-46.323-20.74-46.323-46.322 0-25.583 20.74-46.323 46.323-46.323 25.583 0 46.322 20.74 46.322 46.323"/><path fill="#f03e51" d="M2.82 46.323C2.82 20.74 23.56 0 49.143 0c25.583 0 46.322 20.74 46.322 46.323" style="fill:#21abcd;fill-opacity:1;stroke-width:1.05836;stroke-miterlimit:4;stroke-dasharray:none"/><path fill="#201e1d" d="M95.466 51.965H2.82v-5.642h92.645v5.642"/><path fill="#fff" d="M66.13 49.144c0 9.38-7.606 16.986-16.986 16.986-9.381 0-16.986-7.605-16.986-16.986s7.605-16.986 16.986-16.986c9.38 0 16.985 7.605 16.985 16.986"/><path fill="#fff" d="M56.364 49.144a7.22 7.22 0 1 1-14.441 0 7.22 7.22 0 0 1 14.441 0"/><path fill="#201e1d" d="M49.144 44.744a4.404 4.404 0 0 0-4.4 4.4c0 2.425 1.973 4.4 4.4 4.4a4.404 4.404 0 0 0 4.399-4.4c0-2.426-1.974-4.4-4.4-4.4zm0 14.442c-5.538 0-10.043-4.505-10.043-10.042 0-5.538 4.505-10.043 10.043-10.043 5.537 0 10.042 4.505 10.042 10.043 0 5.537-4.505 10.042-10.042 10.042"/><path d="M55.745 5.773c4.677 4.053 6.542 6.03 9.844 9.01 1.915 1.73 5.78 5.149 5.78 5.149l-2.854 2-12.852 9.012z"/><path style="fill:#333;fill-opacity:1;stroke:#201e1d;stroke-width:2.11672;stroke-linecap:round;stroke-linejoin:round;stroke-miterlimit:4;stroke-dasharray:none;stroke-opacity:1" d="M55.745 5.773c4.677 4.053 6.542 6.03 9.844 9.01 1.915 1.73 5.78 5.149 5.78 5.149l-2.854 2-12.852 9.012"/><path style="fill:#333;fill-opacity:1;stroke:#201e1d;stroke-width:2.07911;stroke-linecap:round;stroke-linejoin:round;stroke-miterlimit:4;stroke-dasharray:none;stroke-opacity:1" d="M42.327 5.952c-4.512 4.053-6.311 6.03-9.497 9.011-1.847 1.73-5.576 5.148-5.576 5.148l2.754 2 12.399 9.012"/><path style="fill:#ff0;fill-opacity:1;stroke-width:.882733;stroke-linejoin:bevel;stroke-miterlimit:4;stroke-dasharray:none" d="M53.675 11.966h2.735v11.966h-2.735z"/><path style="fill:red;fill-opacity:1;stroke-width:.691151;stroke-linejoin:bevel;stroke-miterlimit:4;stroke-dasharray:none" d="M37.86 27.042c-2.634-1.992-5.824-4.4-7.087-5.352l-2.298-1.732 1.104-1.043c.608-.574 3.874-3.64 7.258-6.812 3.385-3.172 6.235-5.867 6.335-5.988.106-.13.979-.297 2.136-.408 3.992-.382 9.183-.117 9.711.496 0 0 2.395 2.196 4.98 4.484 9.168 8.113 10.305 9.18 10.056 9.43-.124.125-3.45 2.532-7.39 5.349L55.5 30.587l-1.554-.428c-1.377-.38-1.915-.43-4.717-.44-2.71-.008-3.37.044-4.615.37-.799.21-1.568.424-1.71.478-.16.06-2.057-1.265-5.045-3.525z"/><rect style="fill:#000;fill-opacity:1;stroke:#000;stroke-width:.882733;stroke-linejoin:bevel;stroke-miterlimit:4;stroke-dasharray:none;stroke-opacity:1" width="2.735" height="11.966" x="47.912" y="12.016" ry="2.646"/><rect style="fill:#ffb000;fill-opacity:1;stroke-width:.882733;stroke-linejoin:bevel;stroke-miterlimit:4;stroke-dasharray:none" width="2.735" height="11.966" x="47.912" y="12.016" ry="2.646"/><rect style="fill:#ffb000;fill-opacity:1;stroke:#000;stroke-width:.882733;stroke-linejoin:bevel;stroke-miterlimit:4;stroke-dasharray:none;stroke-opacity:1" width="2.735" height="11.966" x="53.333" y="12.016" ry="2.646"/><rect style="fill:#ffb000;fill-opacity:1;stroke-width:.882733;stroke-linejoin:bevel;stroke-miterlimit:4;stroke-dasharray:none" width="2.735" height="11.966" x="53.333" y="12.016" ry="2.646"/><rect style="fill:#000;fill-opacity:1;stroke:#000;stroke-width:.882733;stroke-linejoin:bevel;stroke-miterlimit:4;stroke-dasharray:none;stroke-opacity:1" width="2.735" height="11.966" x="42.492" y="12.016" ry="2.646"/><rect style="fill:#ffb000;fill-opacity:1;stroke-width:.882733;stroke-linejoin:bevel;stroke-miterlimit:4;stroke-dasharray:none" width="2.735" height="11.966" x="42.492" y="12.016" ry="2.646"/><path fill="#201e1d" d="M49.144 5.643c-23.987 0-43.501 19.514-43.501 43.5 0 23.987 19.514 43.501 43.5 43.501 23.987 0 43.501-19.514 43.501-43.5 0-23.987-19.514-43.501-43.5-43.501zm0 92.644C22.046 98.287 0 76.242 0 49.144S22.046 0 49.144 0s49.143 22.046 49.143 49.144-22.045 49.143-49.143 49.143"/><path fill="#201e1d" d="M49.144 34.98c-7.81 0-14.165 6.353-14.165 14.164 0 7.81 6.354 14.164 14.165 14.164 7.81 0 14.164-6.354 14.164-14.164S56.954 34.98 49.144 34.98zm0 33.97c-10.922 0-19.808-8.885-19.808-19.806 0-10.922 8.886-19.808 19.808-19.808 10.921 0 19.807 8.886 19.807 19.808S60.065 68.95 49.144 68.95"/></svg>