<svg xmlns="http://www.w3.org/2000/svg" width="371.48" height="371.48" viewBox="0 0 98.29 98.29"><path fill="#fff" d="M2.822 49.144c0 25.583 20.739 46.322 46.322 46.322 25.583 0 46.322-20.74 46.322-46.322"/><path fill="#7053ae" d="M2.822 49.144C2.822 23.56 23.56 2.82 49.144 2.82c25.583 0 46.322 20.74 46.322 46.323"/><path fill="#7053ae" d="M2.822 49.144C2.822 23.56 23.56 2.82 49.144 2.82c25.583 0 46.322 20.74 46.322 46.323"/><path fill="#f03e51" stroke="#201e1d" stroke-width="2.65" d="M39.95 11.735c0-2.695-.389-5.3-1.11-7.761C21.787 7.847 8.311 21.13 4.156 38.075a27.577 27.577 0 0 0 8.21 1.243c15.234 0 27.583-12.35 27.583-27.583m19.499-7.761a27.59 27.59 0 0 0-1.11 7.761c0 15.233 12.35 27.583 27.583 27.583 2.86 0 5.617-.435 8.21-1.243C89.978 21.13 76.502 7.847 59.449 3.974"/><path fill="#fff" d="M2.822 49.144h92.644H2.822"/><path fill="#201e1d" d="M95.466 51.965H2.822v-5.642h92.644v5.642"/><path fill="#fff" d="M66.13 49.144c0 9.38-7.605 16.986-16.986 16.986-9.38 0-16.986-7.605-16.986-16.986s7.605-16.986 16.986-16.986c9.38 0 16.986 7.605 16.986 16.986"/><path fill="#201e1d" d="M49.144 34.98c-7.81 0-14.164 6.353-14.164 14.164 0 7.81 6.354 14.164 14.164 14.164s14.164-6.354 14.164-14.164S56.954 34.98 49.144 34.98zm0 33.97c-10.922 0-19.807-8.885-19.807-19.806 0-10.922 8.885-19.808 19.807-19.808 10.921 0 19.807 8.886 19.807 19.808S60.065 68.95 49.144 68.95"/><path fill="#fff" d="M56.365 49.144a7.22 7.22 0 1 1-14.442 0 7.22 7.22 0 0 1 14.442 0"/><path fill="#201e1d" d="M49.144 44.744a4.404 4.404 0 0 0-4.4 4.4c0 2.425 1.974 4.4 4.4 4.4s4.4-1.975 4.4-4.4c0-2.426-1.974-4.4-4.4-4.4zm0 14.442c-5.537 0-10.042-4.505-10.042-10.042 0-5.538 4.505-10.043 10.042-10.043s10.042 4.505 10.042 10.043c0 5.537-4.505 10.042-10.042 10.042"/><path fill="#201e1d" d="M49.144 5.643c-23.987 0-43.501 19.514-43.501 43.5 0 23.987 19.514 43.501 43.501 43.501s43.5-19.514 43.5-43.5c0-23.987-19.513-43.501-43.5-43.501zm0 92.644C22.046 98.287 0 76.242 0 49.144S22.046 0 49.144 0s49.143 22.046 49.143 49.144-22.045 49.143-49.143 49.143"/></svg>