<svg xmlns="http://www.w3.org/2000/svg" version="1.1" viewBox="0 0 416 416"><g fill="none" stroke-linecap="butt" stroke-width="2"><path stroke="#8f7f10" d="M 179.77 28.61 Q 173.28 30.40 167.63 31.22 C 161.65 32.08 156.98 33.82 151.57 35.58 Q 132.35 41.83 114.91 52.15" vector-effect="non-scaling-stroke"/><path stroke="#106d74" d="M 114.91 52.15 C 67.93 81.29 37.74 125.47 28.58 180.32 Q 27.53 186.62 27.26 195.49 Q 27.25 196.00 27.75 196.00 L 125.51 196.00 Q 126.04 196.00 126.12 195.48 Q 130.96 164.43 154.85 144.33 C 165.37 135.48 176.37 131.01 189.14 127.39 C 193.67 126.11 198.24 126.06 202.91 125.59" vector-effect="non-scaling-stroke"/><path stroke="#353131" d="M 202.91 125.59 C 216.09 125.34 229.53 126.66 241.55 132.49 Q 280.99 151.63 289.59 196.26 A 0.29 0.29 0.0 0 0 290.15 196.29 Q 290.22 196.09 290.28 195.91 Q 290.34 195.74 290.52 195.74 L 387.63 195.78 Q 388.21 195.78 388.24 195.21 Q 388.33 193.24 388.13 191.31 C 380.33 115.05 329.43 54.39 256.02 33.06 C 247.55 30.60 237.58 28.75 229.17 27.81 Q 203.71 24.98 179.77 28.61" vector-effect="non-scaling-stroke"/><path stroke="#258087" d="M 202.91 125.59 L 212.92 115.83 A 1.32 1.32 0.0 0 0 212.92 113.93 L 203.75 104.97" vector-effect="non-scaling-stroke"/><path stroke="#a49223" d="M 203.75 104.97 C 234.19 105.81 281.93 96.98 298.15 66.13 Q 298.49 65.48 297.79 65.71 C 265.82 75.99 220.18 74.76 193.52 51.25 Q 183.07 42.03 179.77 28.61" vector-effect="non-scaling-stroke"/><path stroke="#7fcd66" d="M 203.75 104.97 C 173.03 104.24 118.85 90.79 114.91 52.15" vector-effect="non-scaling-stroke"/><path stroke="#908f8e" d="M 266.39 207.82 A 58.65 58.65 0.0 0 0 207.74 149.17 A 58.65 58.65 0.0 0 0 149.09 207.82 A 58.65 58.65 0.0 0 0 207.74 266.47 A 58.65 58.65 0.0 0 0 266.39 207.82" vector-effect="non-scaling-stroke"/><path stroke="#908f8e" d="M 382.12 256.08 Q 386.75 238.64 388.32 220.40 A 0.60 0.60 0.0 0 0 387.72 219.75 L 290.26 219.75 Q 289.71 219.75 289.61 220.29 C 284.10 250.31 265.47 273.73 237.38 284.92 C 195.79 301.50 149.24 280.62 131.46 239.96 C 128.84 233.98 127.39 226.85 125.87 220.24 Q 125.76 219.75 125.25 219.75 L 28.01 219.75 Q 27.54 219.75 27.55 220.22 C 28.00 244.34 36.74 271.90 47.77 292.48 Q 76.88 346.73 134.32 373.03 Q 150.61 380.49 162.82 383.14 Q 181.99 387.30 188.25 387.94 Q 199.58 389.10 216.55 388.41 C 292.84 385.31 362.29 330.87 382.12 256.08" vector-effect="non-scaling-stroke"/><path stroke="#908f8e" d="M 249.73 207.73 A 42.02 42.02 0.0 0 0 207.71 165.71 A 42.02 42.02 0.0 0 0 165.69 207.73 A 42.02 42.02 0.0 0 0 207.71 249.75 A 42.02 42.02 0.0 0 0 249.73 207.73" vector-effect="non-scaling-stroke"/><path stroke="#908f8e" d="M 225.62 207.71 A 17.96 17.96 0.0 0 0 207.66 189.75 A 17.96 17.96 0.0 0 0 189.70 207.71 A 17.96 17.96 0.0 0 0 207.66 225.67 A 17.96 17.96 0.0 0 0 225.62 207.71" vector-effect="non-scaling-stroke"/></g><path fill="#201e1d" d="M 286.56 18.48 C 347.25 44.18 392.88 97.59 407.42 161.86 C 408.81 168.03 410.38 174.24 411.00 180.47 C 412.27 193.10 413.20 205.97 412.33 218.66 C 411.61 229.08 411.45 238.39 408.49 249.94 Q 408.45 250.09 406.07 260.68 Q 404.78 266.42 402.41 271.87 C 401.92 272.97 401.93 274.01 401.55 275.07 Q 380.75 333.36 331.71 370.96 C 310.35 387.33 286.39 398.64 260.63 406.22 C 258.38 406.88 255.63 406.91 252.98 407.68 Q 241.29 411.10 228.75 411.90 Q 218.36 412.57 212.66 412.84 Q 206.69 413.12 200.73 412.72 C 187.81 411.86 175.80 411.39 163.21 407.87 C 160.32 407.07 156.89 406.68 153.52 405.72 C 122.41 396.83 92.92 380.99 69.28 358.78 C 67.71 357.30 65.21 355.36 63.46 353.41 C 61.83 351.61 59.30 350.01 57.87 347.57 Q 57.62 347.15 57.20 346.89 Q 56.52 346.47 55.83 345.68 Q 34.16 321.21 20.64 292.00 C 18.35 287.05 16.09 280.57 13.60 274.92 C 13.11 273.82 13.13 272.02 12.66 270.73 Q 10.13 263.85 8.27 256.74 C 7.95 255.54 8.07 253.88 7.70 252.46 C 2.86 233.59 2.44 217.69 3.07 197.98 Q 3.42 187.04 4.84 178.07 C 19.59 84.75 94.05 12.53 188.50 3.53 Q 210.32 1.44 236.27 4.58 C 241.50 5.21 247.68 6.92 253.47 7.98 C 264.94 10.10 277.31 14.55 286.56 18.48 Z M 179.77 28.61 Q 173.28 30.40 167.63 31.22 C 161.65 32.08 156.98 33.82 151.57 35.58 Q 132.35 41.83 114.91 52.15 C 67.93 81.29 37.74 125.47 28.58 180.32 Q 27.53 186.62 27.26 195.49 Q 27.25 196.00 27.75 196.00 L 125.51 196.00 Q 126.04 196.00 126.12 195.48 Q 130.96 164.43 154.85 144.33 C 165.37 135.48 176.37 131.01 189.14 127.39 C 193.67 126.11 198.24 126.06 202.91 125.59 C 216.09 125.34 229.53 126.66 241.55 132.49 Q 280.99 151.63 289.59 196.26 A 0.29 0.29 0.0 0 0 290.15 196.29 Q 290.22 196.09 290.28 195.91 Q 290.34 195.74 290.52 195.74 L 387.63 195.78 Q 388.21 195.78 388.24 195.21 Q 388.33 193.24 388.13 191.31 C 380.33 115.05 329.43 54.39 256.02 33.06 C 247.55 30.60 237.58 28.75 229.17 27.81 Q 203.71 24.98 179.77 28.61 Z M 266.39 207.82 A 58.65 58.65 0.0 0 0 207.74 149.17 A 58.65 58.65 0.0 0 0 149.09 207.82 A 58.65 58.65 0.0 0 0 207.74 266.47 A 58.65 58.65 0.0 0 0 266.39 207.82 Z M 382.12 256.08 Q 386.75 238.64 388.32 220.40 A 0.60 0.60 0.0 0 0 387.72 219.75 L 290.26 219.75 Q 289.71 219.75 289.61 220.29 C 284.10 250.31 265.47 273.73 237.38 284.92 C 195.79 301.50 149.24 280.62 131.46 239.96 C 128.84 233.98 127.39 226.85 125.87 220.24 Q 125.76 219.75 125.25 219.75 L 28.01 219.75 Q 27.54 219.75 27.55 220.22 C 28.00 244.34 36.74 271.90 47.77 292.48 Q 76.88 346.73 134.32 373.03 Q 150.61 380.49 162.82 383.14 Q 181.99 387.30 188.25 387.94 Q 199.58 389.10 216.55 388.41 C 292.84 385.31 362.29 330.87 382.12 256.08 Z"/><path fill="#4a4444" d="M 202.91 125.59 L 212.92 115.83 A 1.32 1.32 0.0 0 0 212.92 113.93 L 203.75 104.97 C 234.19 105.81 281.93 96.98 298.15 66.13 Q 298.49 65.48 297.79 65.71 C 265.82 75.99 220.18 74.76 193.52 51.25 Q 183.07 42.03 179.77 28.61 Q 203.71 24.98 229.17 27.81 C 237.58 28.75 247.55 30.60 256.02 33.06 C 329.43 54.39 380.33 115.05 388.13 191.31 Q 388.33 193.24 388.24 195.21 Q 388.21 195.78 387.63 195.78 L 290.52 195.74 Q 290.34 195.74 290.28 195.91 Q 290.22 196.09 290.15 196.29 A 0.29 0.29 0.0 0 1 289.59 196.26 Q 280.99 151.63 241.55 132.49 C 229.53 126.66 216.09 125.34 202.91 125.59 Z"/><path fill="#fedf02" d="M 179.77 28.61 Q 183.07 42.03 193.52 51.25 C 220.18 74.76 265.82 75.99 297.79 65.71 Q 298.49 65.48 298.15 66.13 C 281.93 96.98 234.19 105.81 203.75 104.97 C 173.03 104.24 118.85 90.79 114.91 52.15 Q 132.35 41.83 151.57 35.58 C 156.98 33.82 161.65 32.08 167.63 31.22 Q 173.28 30.40 179.77 28.61 Z"/><path fill="#00bbca" d="M 114.91 52.15 C 118.85 90.79 173.03 104.24 203.75 104.97 L 212.92 113.93 A 1.32 1.32 0.0 0 1 212.92 115.83 L 202.91 125.59 C 198.24 126.06 193.67 126.11 189.14 127.39 C 176.37 131.01 165.37 135.48 154.85 144.33 Q 130.96 164.43 126.12 195.48 Q 126.04 196.00 125.51 196.00 L 27.75 196.00 Q 27.25 196.00 27.26 195.49 Q 27.53 186.62 28.58 180.32 C 37.74 125.47 67.93 81.29 114.91 52.15 Z"/><path fill="#fff" d="M 266.39 207.82 A 58.65 58.65 0.0 0 1 207.74 266.47 A 58.65 58.65 0.0 0 1 149.09 207.82 A 58.65 58.65 0.0 0 1 207.74 149.17 A 58.65 58.65 0.0 0 1 266.39 207.82 Z M 249.73 207.73 A 42.02 42.02 0.0 0 0 207.71 165.71 A 42.02 42.02 0.0 0 0 165.69 207.73 A 42.02 42.02 0.0 0 0 207.71 249.75 A 42.02 42.02 0.0 0 0 249.73 207.73 Z"/><path fill="#201e1d" d="M 249.73 207.73 A 42.02 42.02 0.0 0 1 207.71 249.75 A 42.02 42.02 0.0 0 1 165.69 207.73 A 42.02 42.02 0.0 0 1 207.71 165.71 A 42.02 42.02 0.0 0 1 249.73 207.73 Z M 225.62 207.71 A 17.96 17.96 0.0 0 0 207.66 189.75 A 17.96 17.96 0.0 0 0 189.70 207.71 A 17.96 17.96 0.0 0 0 207.66 225.67 A 17.96 17.96 0.0 0 0 225.62 207.71 Z"/><circle cx="207.66" cy="207.71" r="17.96" fill="#fff"/><path fill="#fff" d="M 382.12 256.08 C 362.29 330.87 292.84 385.31 216.55 388.41 Q 199.58 389.10 188.25 387.94 Q 181.99 387.30 162.82 383.14 Q 150.61 380.49 134.32 373.03 Q 76.88 346.73 47.77 292.48 C 36.74 271.90 28.00 244.34 27.55 220.22 Q 27.54 219.75 28.01 219.75 L 125.25 219.75 Q 125.76 219.75 125.87 220.24 C 127.39 226.85 128.84 233.98 131.46 239.96 C 149.24 280.62 195.79 301.50 237.38 284.92 C 265.47 273.73 284.10 250.31 289.61 220.29 Q 289.71 219.75 290.26 219.75 L 387.72 219.75 A 0.60 0.60 0.0 0 1 388.32 220.40 Q 386.75 238.64 382.12 256.08 Z"/></svg>