<svg width="371.48" height="371.48" viewBox="0 0 98.29 98.29" xmlns="http://www.w3.org/2000/svg"><path fill="#fff" d="M95.466 49.144c0 25.583-20.74 46.322-46.322 46.322-25.583 0-46.323-20.74-46.323-46.322 0-25.583 20.74-46.323 46.323-46.323 25.583 0 46.322 20.74 46.322 46.323"/><path fill="#f03e51" d="M2.821 49.144c0-25.583 20.74-46.323 46.323-46.323 25.583 0 46.322 20.74 46.322 46.323"/><path style="fill:none;stroke:#000;stroke-width:.26459px;stroke-linecap:butt;stroke-linejoin:miter;stroke-opacity:1" d="M19.448 17.383c2.877 4.097 5.754 8.193 8.73 10.841 2.977 2.648 6.054 3.847 12.027 4.895 5.972 1.048 14.841 1.945 21.512-.927 6.67-2.872 11.143-9.514 15.616-16.155"/><path fill="#fff" d="M56.364 49.144a7.22 7.22 0 1 1-14.441 0 7.22 7.22 0 0 1 14.441 0"/><path style="fill:none;stroke:#000;stroke-width:.26459px;stroke-linecap:butt;stroke-linejoin:miter;stroke-opacity:1" d="M19.448 17.383C29.4 21.367 39.352 25.353 49 25.128c9.648-.225 18.99-4.658 28.334-9.09"/><path style="fill:#e3e37c;fill-opacity:1;stroke-width:0;stroke-linecap:round;stroke-linejoin:round" d="M11.362 186.299c-3.615 3.915 2.495-36.827 3.948-43.31 5.436-24.27 21.116-51.6 36.765-71.068 3.866-4.81 14.095-14.839 14.748-14.839.187 0 35.255 2.787 38.45 7.275 17.564 24.683 14.239 18.054 27.015 24.402 5.402 2.683 40.732 13.89 34.565 18.28l-24.085 17.142-2.45 1.74c-3.86 2.742-12.371 11.523-15.63 16.126-5.907 8.346-6.113 52.986-9.412 43.693l-3.888-10.954-45.14.288-44.254-.288zM259.978 174.233c.083-.31-22.533 16.185-13.404.368 4.348-7.535-1.701-13.844-7.239-22.206-2.492-3.764 3.707-15.178-.573-19.458-3.183-3.182-6.761-6.447-7.952-7.255l-2.164-1.469-22.068-19.604c-3.558-3.16 16.59-11.564 21.04-14.707 12.855-9.082 25.913-13.873 42.072-37.577 2.861-4.198 36.347-4.978 36.554-4.978.86 0 8.969 18.79 13.048 23.895 17.728 22.183 29.145 56.01 34.43 83.41.891 4.624-4.15 28.49-4.15 30.597 0 .73-92.907 1.408-92.709.665z" transform="scale(.26459)"/><path style="fill:#e3e37c;fill-opacity:1;stroke-width:0;stroke-linecap:round;stroke-linejoin:round" d="M147.352 101.28c-22.377-1.98-31.806 9.744-60.76-22.398l-12.306-13.66-7.828-11.525C59.314 43.18 87.716 31.355 98.152 34.35l12.082-6.616 39.232 5.947c53.433 8.1 26.508 14.9 71.561-5.042 4.138-1.831-18.22 1.122-15.638.864l48.932-4.896 6.823 4.542c6.773 4.51 27.036 15.4 33.117 19.696 4.626 3.268-3.098 11.005-3.098 11.39 0 .156-.348.39-.774.52-.426.13-6.051 2.714-12.5 5.743-36.94 17.346-68.04 35.718-91.598 37.9-5.808.537-32.748-2.57-38.94-3.118z" transform="scale(.26459)"/><path style="fill:#7dbe40;fill-opacity:1;stroke-width:0;stroke-linecap:round;stroke-linejoin:round" d="M138.06 121.483c-10.902-2.83-18.092-5.864-24.983-10.544-4.495-3.053-19.657-12.357-25.347-19.591-2.149-2.731-16.874-16.885-20.683-22.036-5.304-7.172 4.509-7.155 4.647-7.296.084-.085 8.722 7.236 13.789 9.237 38.257 15.114 62.218 21.885 84.612 23.91 8.153.736 23.73.314 31.241-.848 22.732-3.516 44.048-10.87 78.966-27.246 4.962-2.327 13.962-7.255 14.052-7.165.103.103 5.67-.358 3.905 4.487-1.848 5.075-11.087 15.536-13.57 18.893-14.81 20.021-35.388 29.901-49.58 36.6-7.556 3.566-7.331 3.53-10.372 1.698-23.613-14.22-54.143-14.444-77.006-.563-1.808 1.097-3.43 1.987-3.603 1.976-.174-.01-2.905-.69-6.069-1.512zM173.68 55.926c-10.492-1.272-18.7-3.155-29.647-6.8-6.313-2.101-20.515-7.587-27.826-10.748l-1.497-.647 2.603-1.206c16.174-7.492 33.9-21.761 52.36-23.53 8.939-.858 39.04-.608 46.93.475 14.596 2.004 42.948-1.788 38.593 8.974l-4.992 12.338-5.185 2.37c-30.89 14.116-45.425 18.494-62.489 18.821-4.016.078-7.998.056-8.85-.047z" transform="scale(.26459)"/><path fill="#201e1d" d="M49.144 5.643c-23.987 0-43.501 19.514-43.501 43.5 0 23.987 19.514 43.501 43.5 43.501 23.987 0 43.501-19.514 43.501-43.5 0-23.987-19.514-43.501-43.5-43.501zm0 92.644C22.046 98.287 0 76.242 0 49.144S22.046 0 49.144 0s49.143 22.046 49.143 49.144-22.045 49.143-49.143 49.143"/><path fill="#201e1d" d="M95.466 51.965H2.82v-5.642h92.645v5.642"/><path fill="#fff" d="M66.13 49.144c0 9.38-7.606 16.986-16.986 16.986-9.381 0-16.986-7.605-16.986-16.986s7.605-16.986 16.986-16.986c9.38 0 16.985 7.605 16.985 16.986"/><path fill="#201e1d" d="M49.144 44.744a4.404 4.404 0 0 0-4.4 4.4c0 2.425 1.973 4.4 4.4 4.4a4.404 4.404 0 0 0 4.399-4.4c0-2.426-1.974-4.4-4.4-4.4zm0 14.442c-5.538 0-10.043-4.505-10.043-10.042 0-5.538 4.505-10.043 10.043-10.043 5.537 0 10.042 4.505 10.042 10.043 0 5.537-4.505 10.042-10.042 10.042"/><path fill="#201e1d" d="M49.144 34.98c-7.81 0-14.165 6.353-14.165 14.164 0 7.81 6.354 14.164 14.165 14.164 7.81 0 14.164-6.354 14.164-14.164S56.954 34.98 49.144 34.98zm0 33.97c-10.922 0-19.808-8.885-19.808-19.806 0-10.922 8.886-19.808 19.808-19.808 10.921 0 19.807 8.886 19.807 19.808S60.065 68.95 49.144 68.95"/></svg>