<svg xmlns="http://www.w3.org/2000/svg" width="371.48" height="371.48" viewBox="0 0 98.29 98.29"><path fill="#fff" d="M95.466 49.144c0 25.583-20.74 46.322-46.322 46.322-25.583 0-46.322-20.74-46.322-46.322C2.822 23.56 23.56 2.82 49.144 2.82c25.583 0 46.322 20.74 46.322 46.323"/><path fill="#44ad3b" d="M68.95 49.143l-19.806 4.4-19.807-4.4-17.997.985 8.57 29.992 18.944-11.17h20.084l18.944 11.17 9.481-29.11-18.412-1.867"/><path fill="#252323" d="M38.469 67.54h20.854l17.762 10.472 8.394-25.775-16.444-1.666-19.891 4.418-19.924-4.426-16.038.877 7.583 26.537zM19.055 82.262L9.497 48.815l19.956-1.091 19.69 4.374 19.724-4.381 20.38 2.065L78.68 82.228 58.553 70.362H39.24l-20.184 11.9"/><path fill="#388b38" d="M2.822 49.144C2.822 23.56 23.56 2.82 49.144 2.82c25.583 0 46.322 20.74 46.322 46.323"/><path fill="#44ad3b" d="M83.756 18.362L49.144 39.494v9.65h11.56l33.035-12.57a46.224 46.224 0 0 0-9.983-18.212"/><path fill="#44ad3b" d="M14.532 18.362l34.612 21.132v9.65H37.582L4.548 36.574a46.229 46.229 0 0 1 9.984-18.212"/><path fill="#201e1d" d="M49.144 5.643c-23.987 0-43.501 19.514-43.501 43.5 0 23.987 19.514 43.502 43.5 43.502 23.987 0 43.502-19.515 43.502-43.501 0-23.987-19.515-43.501-43.501-43.501zm0 92.644C22.046 98.287 0 76.242 0 49.144S22.046 0 49.144 0s49.143 22.046 49.143 49.144-22.045 49.143-49.143 49.143"/><path fill="#fff" d="M2.822 49.144h92.644H2.822"/><path fill="#201e1d" d="M95.466 51.965H2.82v-5.642h92.645v5.642"/><path fill="#fff" d="M66.13 49.144c0 9.38-7.605 16.986-16.986 16.986s-16.986-7.606-16.986-16.986c0-9.381 7.605-16.986 16.986-16.986 9.38 0 16.985 7.605 16.985 16.986"/><path fill="#201e1d" d="M49.144 34.98c-7.81 0-14.165 6.353-14.165 14.164 0 7.81 6.354 14.164 14.165 14.164 7.81 0 14.164-6.354 14.164-14.164s-6.354-14.165-14.164-14.165zm0 33.97c-10.922 0-19.807-8.885-19.807-19.806 0-10.922 8.885-19.808 19.807-19.808 10.921 0 19.807 8.886 19.807 19.808 0 10.921-8.886 19.807-19.807 19.807"/><path fill="#fff" d="M56.364 49.144a7.22 7.22 0 1 1-14.441 0 7.22 7.22 0 0 1 14.441 0"/><path fill="#201e1d" d="M49.144 44.744a4.404 4.404 0 0 0-4.4 4.4c0 2.426 1.974 4.4 4.4 4.4 2.425 0 4.4-1.974 4.4-4.4s-1.975-4.4-4.4-4.4zm0 14.442c-5.538 0-10.042-4.505-10.042-10.042 0-5.538 4.504-10.043 10.042-10.043 5.537 0 10.042 4.505 10.042 10.043 0 5.537-4.505 10.042-10.042 10.042"/><path fill="#c2262d" d="M43.846 24.084a4.745 4.745 0 1 1-9.49 0 4.745 4.745 0 0 1 9.49 0"/><path fill="#201e1d" d="M43.846 24.084h-1.234a3.496 3.496 0 0 1-1.028 2.482 3.494 3.494 0 0 1-2.482 1.028 3.492 3.492 0 0 1-2.483-1.028 3.495 3.495 0 0 1-1.028-2.482c0-.974.39-1.843 1.028-2.483a3.495 3.495 0 0 1 2.483-1.028c.972 0 1.842.391 2.482 1.028a3.495 3.495 0 0 1 1.028 2.483h2.468c0-1.648-.671-3.15-1.751-4.229a5.965 5.965 0 0 0-4.228-1.751c-1.648 0-3.15.671-4.229 1.751a5.966 5.966 0 0 0-1.751 4.229 5.96 5.96 0 0 0 1.751 4.228 5.966 5.966 0 0 0 4.229 1.751 5.965 5.965 0 0 0 4.228-1.751 5.966 5.966 0 0 0 1.751-4.228h-1.235"/><path fill="#c2262d" d="M63.93 24.084a4.745 4.745 0 1 1-9.49 0 4.745 4.745 0 0 1 9.49 0"/><path fill="#201e1d" d="M63.93 24.084h-1.234c0 .973-.39 1.843-1.028 2.482a3.494 3.494 0 0 1-2.482 1.028 3.492 3.492 0 0 1-2.482-1.028 3.494 3.494 0 0 1-1.029-2.482 3.495 3.495 0 0 1 1.029-2.483 3.495 3.495 0 0 1 2.482-1.028c.973 0 1.843.391 2.482 1.028a3.495 3.495 0 0 1 1.028 2.483h2.469a5.966 5.966 0 0 0-1.75-4.229 5.967 5.967 0 0 0-4.23-1.751c-1.647 0-3.15.671-4.228 1.751a5.966 5.966 0 0 0-1.751 4.229c0 1.647.671 3.15 1.751 4.228a5.967 5.967 0 0 0 4.229 1.751 5.965 5.965 0 0 0 4.228-1.751 5.965 5.965 0 0 0 1.751-4.228h-1.234"/></svg>