<svg xmlns="http://www.w3.org/2000/svg" width="371.48" height="371.48" viewBox="0 0 98.29 98.29"><path fill="#fff" d="M2.821 49.144c0-25.584 20.74-46.323 46.323-46.323 25.583 0 46.322 20.74 46.322 46.323"/><path fill="#201e1d" d="M49.144 5.643c-23.987 0-43.501 19.514-43.501 43.5 0 23.987 19.514 43.501 43.5 43.501 23.987 0 43.501-19.514 43.501-43.5 0-23.987-19.514-43.501-43.5-43.501zm0 92.644C22.046 98.287 0 76.241 0 49.144 0 22.045 22.046 0 49.144 0s49.143 22.045 49.143 49.144c0 27.097-22.045 49.143-49.143 49.143"/><path fill="#fff" d="M95.466 49.144c0 25.583-20.74 46.322-46.322 46.322-25.583 0-46.323-20.74-46.323-46.322 0-25.584 20.74-46.323 46.323-46.323 25.583 0 46.322 20.74 46.322 46.323"/><path fill="#f03f54" d="M95.466 53.26H2.82V42.528h92.645V53.26"/><path fill="#201e1d" d="M4.796 51.285h88.695v-6.782H4.796zm92.645 3.95H.846V40.553h96.595v14.682"/><path fill="#fff" d="M66.13 49.143c0 9.382-7.606 16.986-16.986 16.986-9.381 0-16.986-7.604-16.986-16.986 0-9.38 7.605-16.985 16.986-16.985 9.38 0 16.985 7.604 16.985 16.985"/><path fill="#f03f54" d="M49.144 34.979c-7.81 0-14.165 6.354-14.165 14.164s6.354 14.165 14.165 14.165c7.81 0 14.164-6.355 14.164-14.165 0-7.81-6.354-14.164-14.164-14.164zm0 40.303c-14.413 0-26.14-11.726-26.14-26.139 0-14.413 11.727-26.138 26.14-26.138 14.412 0 26.138 11.725 26.138 26.138 0 14.413-11.726 26.14-26.139 26.14"/><path fill="#201e1d" d="M49.143 36.954c-6.72 0-12.189 5.468-12.189 12.19 0 6.72 5.468 12.189 12.19 12.189 6.72 0 12.189-5.468 12.189-12.19 0-6.72-5.468-12.189-12.19-12.189zm0 28.329c-8.899 0-16.139-7.24-16.139-16.14 0-8.899 7.24-16.139 16.14-16.139 8.899 0 16.139 7.24 16.139 16.14 0 8.898-7.24 16.139-16.14 16.139zm0-40.303c-13.323 0-24.164 10.84-24.164 24.163 0 13.324 10.84 24.165 24.164 24.165 13.324 0 24.165-10.84 24.165-24.165 0-13.324-10.84-24.163-24.165-24.163zm0 52.278c-15.501 0-28.113-12.613-28.113-28.115 0-15.502 12.612-28.113 28.113-28.113 15.502 0 28.115 12.611 28.115 28.113 0 15.502-12.613 28.115-28.115 28.115"/><path fill="#fff" d="M56.364 49.143a7.22 7.22 0 1 1-14.441.002 7.22 7.22 0 0 1 14.441-.002"/><path fill="#201e1d" d="M49.144 44.744a4.404 4.404 0 0 0-4.4 4.4 4.404 4.404 0 0 0 4.4 4.399 4.404 4.404 0 0 0 4.399-4.4 4.405 4.405 0 0 0-4.4-4.399zm0 14.442c-5.538 0-10.043-4.505-10.043-10.043 0-5.537 4.505-10.042 10.043-10.042 5.537 0 10.042 4.505 10.042 10.042 0 5.538-4.505 10.043-10.042 10.043"/></svg>