<svg xmlns="http://www.w3.org/2000/svg" viewBox="0 0 98.29 98.29">
  <path fill="#fff" d="M2.821 49.144c0-25.584 20.74-46.323 46.323-46.323 25.583 0 46.322 20.74 46.322 46.323"/>
  <path fill="#fff" d="M95.466 49.144c0 25.583-20.74 46.322-46.322 46.322-25.583 0-46.323-20.74-46.323-46.322 0-25.584 20.74-46.323 46.323-46.323 25.583 0 46.322 20.74 46.322 46.323"/>
  <path fill="#201e1d" d="M4.796 51.477639h88.695v-4.665278H4.796Zm92.645 3.95H.846V42.862361h96.595v12.565278"/>
  <path fill="#fff" d="M66.13 49.143c0 9.382-7.606 16.986-16.986 16.986-9.381 0-16.986-7.604-16.986-16.986 0-9.38 7.605-16.985 16.986-16.985 9.38 0 16.985 7.604 16.985 16.985"/>
  <path fill="#f03f54" d="M49.14385 36.046389c-6.6385 0-13.098611 6.459261-13.098611 13.097761 0 6.6385 6.459261 13.098611 13.098611 13.098611 6.6385 0 13.097761-6.460111 13.097761-13.098611S55.78235 36.046389 49.14385 36.046389zm0 35.315911c-12.25105 0-22.219-9.9671-22.219-22.21815 0-12.25105 9.96795-22.2173 22.219-22.2173 12.2502 0 22.2173 9.96625 22.2173 22.2173 0 12.25105-9.9671 22.219-22.21815 22.219"/>
  <path fill="#201e1d" d="M49.143 36.955c-6.72 0-12.189 5.468-12.189 12.19 0 6.72 5.468 12.189 12.19 12.189 6.72 0 12.189-5.468 12.189-12.19 0-6.72-5.468-12.189-12.19-12.189zm0 28.329c-8.899 0-16.139-7.24-16.139-16.14 0-8.899 7.24-16.139 16.14-16.139 8.899 0 16.139 7.24 16.139 16.14 0 8.898-7.24 16.139-16.14 16.139z"/>
  <path fill="#fff" d="M56.364 49.143334a7.2205001 7.2205001 0 1 1-14.441.002 7.2205001 7.2205001 0 0 1 14.441-.002"/>
  <path fill="#201e1d" d="M49.144 44.7455a4.404 4.404 0 0 0-4.4 4.4 4.404 4.404 0 0 0 4.4 4.399 4.404 4.404 0 0 0 4.399-4.4 4.405 4.405 0 0 0-4.4-4.399zm0 14.442c-5.538 0-10.043-4.505-10.043-10.043 0-5.537 4.505-10.042 10.043-10.042 5.537 0 10.042 4.505 10.042 10.042 0 5.538-4.505 10.043-10.042 10.043"/>
  <path fill="#201e1d" d="M49.144145 28.484781c-11.391165 0-20.66022 9.268199-20.66022 20.659365 0 11.392019 9.2682 20.661074 20.66022 20.661074 11.39202 0 20.661075-9.268199 20.661075-20.661074 0-11.392021-9.2682-20.659365-20.661075-20.659365zm0 44.697688c-13.253355 0-24.036615-10.784115-24.036615-24.038323 0-13.254209 10.78326-24.036615 24.036615-24.036615 13.25421 0 24.038325 10.782406 24.038325 24.036615 0 13.254208-10.784115 24.038323-24.038325 24.038323"/>
  <path fill="#f03f54" d="M95.444469 51.964827H68.662902v-5.639655H95.44418v5.639656m-65.817081-.000001H2.845531v-5.639655H29.62681v5.639656"/>
  <path fill="#201e1d" d="M49.144 5.643c-23.987 0-43.501 19.514-43.501 43.5 0 23.987 19.514 43.501 43.5 43.501 23.987 0 43.501-19.514 43.501-43.5 0-23.987-19.514-43.501-43.5-43.501zm0 92.644C22.046 98.287 0 76.241 0 49.144 0 22.045 22.046 0 49.144 0s49.143 22.045 49.143 49.144c0 27.097-22.045 49.143-49.143 49.143"/>
</svg>
