<svg xmlns="http://www.w3.org/2000/svg" width="371.48" height="371.48" viewBox="0 0 98.29 98.29"><path fill="#fff" d="M2.821 49.144c0 25.583 20.74 46.322 46.322 46.322 25.583 0 46.323-20.74 46.323-46.322"/><path fill="#45bc5a" d="M2.822 49.144c0-25.583 20.739-46.322 46.322-46.322 25.583 0 46.322 20.739 46.322 46.322"/><path fill="#201e1d" d="M49.144 5.643c-23.987 0-43.501 19.514-43.501 43.501 0 23.986 19.514 43.5 43.501 43.5s43.5-19.514 43.5-43.5c0-23.987-19.513-43.501-43.5-43.501zm0 92.644C22.046 98.287 0 76.242 0 49.144S22.046 0 49.144 0s49.143 22.046 49.143 49.144-22.045 49.143-49.143 49.143"/><path fill="#fff" d="M2.822 49.144h92.644H2.822"/><path fill="#201e1d" d="M95.466 51.965H2.822v-5.643h92.644v5.643"/><path fill="#fff" d="M66.13 49.144c0 9.38-7.605 16.986-16.986 16.986-9.38 0-16.986-7.605-16.986-16.986s7.605-16.986 16.986-16.986c9.38 0 16.986 7.605 16.986 16.986"/><path fill="#201e1d" d="M49.144 34.98c-7.81 0-14.164 6.353-14.164 14.164 0 7.81 6.354 14.164 14.164 14.164s14.164-6.354 14.164-14.164-6.354-14.165-14.164-14.165zm0 33.971c-10.922 0-19.807-8.885-19.807-19.807 0-10.922 8.885-19.807 19.807-19.807 10.921 0 19.807 8.885 19.807 19.807 0 10.922-8.886 19.807-19.807 19.807"/><path fill="#fff" d="M56.365 49.144a7.221 7.221 0 1 1-14.442 0 7.221 7.221 0 0 1 14.442 0"/><path fill="#201e1d" d="M49.144 44.744a4.404 4.404 0 0 0-4.4 4.4c0 2.426 1.974 4.4 4.4 4.4s4.4-1.974 4.4-4.4-1.974-4.4-4.4-4.4zm0 14.442c-5.537 0-10.042-4.505-10.042-10.042S43.607 39.1 49.144 39.1s10.042 4.506 10.042 10.043c0 5.537-4.505 10.042-10.042 10.042"/><path fill="#100f0d" d="M53.173 21.285c0 .759-.142 1.424-.424 1.997a4.135 4.135 0 0 1-1.149 1.433 4.998 4.998 0 0 1-1.695.865 7.229 7.229 0 0 1-2.075.29 7.42 7.42 0 0 1-1.388-.123 7.94 7.94 0 0 1-1.132-.296 4.91 4.91 0 0 1-.82-.362 2.383 2.383 0 0 1-.474-.335.835.835 0 0 1-.206-.418 3.836 3.836 0 0 1-.062-.786c0-.23.008-.424.023-.58.015-.157.039-.283.072-.38a.419.419 0 0 1 .134-.206.324.324 0 0 1 .195-.061c.104 0 .251.061.441.184s.433.258.73.407a6.75 6.75 0 0 0 1.065.407c.413.123.89.184 1.434.184.357 0 .676-.043.959-.128a2.14 2.14 0 0 0 .72-.363 1.534 1.534 0 0 0 .45-.58 1.85 1.85 0 0 0 .157-.77c0-.327-.09-.607-.268-.841a2.655 2.655 0 0 0-.697-.625 7.28 7.28 0 0 0-.975-.513 66.92 66.92 0 0 1-1.127-.507 10.264 10.264 0 0 1-1.126-.608 4.56 4.56 0 0 1-.977-.814 3.859 3.859 0 0 1-.697-1.121c-.178-.431-.267-.948-.267-1.55 0-.692.128-1.3.385-1.824.256-.524.602-.96 1.037-1.305a4.412 4.412 0 0 1 1.54-.775 6.735 6.735 0 0 1 1.878-.257c.342 0 .684.027 1.026.078a7.033 7.033 0 0 1 .96.212c.297.09.56.19.791.302.23.11.383.204.458.278a.827.827 0 0 1 .15.19.936.936 0 0 1 .067.206c.019.086.032.194.04.323a10.697 10.697 0 0 1-.006 1.032 2.04 2.04 0 0 1-.056.369.435.435 0 0 1-.112.211.276.276 0 0 1-.195.067c-.082 0-.212-.052-.39-.156a8.471 8.471 0 0 0-.658-.34 6.234 6.234 0 0 0-.904-.335 4 4 0 0 0-1.126-.15c-.32 0-.599.039-.836.117a1.73 1.73 0 0 0-.597.323 1.275 1.275 0 0 0-.357.497 1.625 1.625 0 0 0-.117.613c0 .32.087.597.262.831.174.234.409.443.703.624.293.183.626.354.998.513.371.16.75.33 1.137.508a11.33 11.33 0 0 1 1.138.608 4.585 4.585 0 0 1 .992.814c.29.316.525.688.703 1.115.179.428.268.931.268 1.511"/></svg>