<svg xmlns="http://www.w3.org/2000/svg" width="371.47" height="371.48" viewBox="0 0 98.29 98.29"><path fill="#fff" d="M95.467 49.144c0 25.583-20.74 46.322-46.323 46.322-25.583 0-46.322-20.74-46.322-46.322 0-25.583 20.739-46.322 46.322-46.322 25.584 0 46.323 20.739 46.323 46.322"/><path fill="#fff" d="M2.822 49.144c0-25.583 20.739-46.322 46.322-46.322 25.584 0 46.323 20.739 46.323 46.322"/><path fill="#f03e51" d="M25.78 18.956s-13.61 6.4-20.562 27.367c0 0-2.821-13.225 10.194-29.465l10.368 2.098m46.206 0s13.614 6.4 20.564 27.367c0 0 2.822-13.225-10.192-29.465l-10.372 2.098"/><path fill="#201e1d" d="M49.701 26.717c14.376 0 26.794-4.025 32.657-9.859C73.941 8.201 62.172 2.822 49.144 2.822c-12.735 0-24.271 5.14-32.646 13.46 5.606 6.143 18.362 10.435 33.203 10.435"/><path fill="#f03e51" d="M49.144 2.822l-9.028.881 3.55 20.177a5.56 5.56 0 0 0 5.478 4.6 5.56 5.56 0 0 0 5.479-4.6l3.549-20.177-9.028-.881"/><path fill="#201e1d" d="M49.144 5.643c-23.985 0-43.501 19.514-43.501 43.501 0 23.986 19.516 43.5 43.501 43.5s43.501-19.514 43.501-43.5c0-23.987-19.516-43.501-43.5-43.501zm0 92.644C22.047 98.287 0 76.242 0 49.144S22.047 0 49.144 0c27.097 0 49.142 22.046 49.142 49.144S76.241 98.287 49.144 98.287"/><path fill="#fff" d="M2.822 49.144h92.645H2.822"/><path fill="#201e1d" d="M95.467 51.965H2.822v-5.642h92.645v5.642"/><path fill="#fff" d="M66.13 49.144c0 9.38-7.606 16.986-16.986 16.986s-16.986-7.605-16.986-16.986 7.606-16.986 16.986-16.986S66.13 39.763 66.13 49.144"/><path fill="#201e1d" d="M49.144 34.98c-7.81 0-14.164 6.354-14.164 14.164s6.354 14.164 14.164 14.164 14.164-6.354 14.164-14.164-6.353-14.165-14.164-14.165zm0 33.971c-10.922 0-19.808-8.885-19.808-19.807 0-10.922 8.886-19.807 19.808-19.807s19.809 8.885 19.809 19.807c0 10.922-8.887 19.807-19.809 19.807"/><path fill="#fff" d="M56.365 49.144a7.223 7.223 0 0 1-14.442 0 7.222 7.222 0 0 1 14.443 0"/><path fill="#201e1d" d="M49.144 44.744a4.404 4.404 0 0 0-4.4 4.4c0 2.426 1.973 4.4 4.4 4.4 2.427 0 4.4-1.974 4.4-4.4s-1.973-4.4-4.4-4.4zm0 14.442c-5.539 0-10.044-4.505-10.044-10.042s4.505-10.042 10.044-10.042c5.539 0 10.044 4.505 10.044 10.042s-4.505 10.042-10.044 10.042"/></svg>