<svg xmlns="http://www.w3.org/2000/svg" viewBox="0 0 1280 1280">
  <g fill="none" stroke-width="2">
    <path stroke="#7f7f7f" d="m155 642 484 220h2l483-220h1l1-2a2 2-74 0 0-1-2L641 418a2 2 45 0 0-2 0L157 637l-2 1a2 2 0 0 0 0 4" vector-effect="non-scaling-stroke"/>
    <path stroke="#56600d" d="m163 641 477 216 478-217-478-217" vector-effect="non-scaling-stroke"/>
    <path stroke="#696e40" d="M640 423 162 640l1 1" vector-effect="non-scaling-stroke"/>
    <path stroke="#bece4d" d="M640 423v175" vector-effect="non-scaling-stroke"/>
    <path stroke="#a9ae80" d="M640 598c-10 0-25-4-31-13s-1-19 7-24c2-1 2-3 1-4a2 2-31 0 0-2-1q-39 9-62 42l-2 4a1 1 11 0 0 1 1l87 36h1" vector-effect="non-scaling-stroke"/>
    <path stroke="#bece4d" d="M640 639v1h-21" vector-effect="non-scaling-stroke"/>
    <path stroke="#767b4d" d="M619 640h-1" vector-effect="non-scaling-stroke"/>
    <path stroke="#a9ae80" d="m618 640-98-40v-1l82-67a3 3-19 0 0 1-3c1-12 1-24-2-36-1-6-6-9-10-4-6 7-5 19-5 28l-1 1-102 82a2 2 50 0 0 0 3l2 1 56 29-1 7" vector-effect="non-scaling-stroke"/>
    <path stroke="#bece4d" d="M540 640H167l-4 1" vector-effect="non-scaling-stroke"/>
    <path stroke="#4d4d4d" d="M618 640h-78m100-42v41" vector-effect="non-scaling-stroke"/>
    <path stroke="#636d1a" d="m540 640-1 8q-20 4-39 11c-7 2-9 5-12 12q-9 24-11 50c-1 4 3 14 8 7l8-14 10-32a2 2 87 0 1 1-1l37-14h1l6 13h-1c-15 8-31 16-45 26-5 4-3 7 0 11l7 8 38 39 1 1c-1 9-1 18 3 25 3 5 8 5 11-1 4-8 5-19 5-28a3 3-66 0 0 0-2l-37-42v-1l36-14h1c17 14 38 22 59 28q3 1 4-2l5-80a2 2 13 0 0-2-2l-14-6m21-1h1l86-35a2 2 0 0 0 1-4q-22-34-62-44-3 0-4 2a2 2-71 0 0 1 2c10 6 15 18 6 27-7 8-18 11-29 11" vector-effect="non-scaling-stroke"/>
    <path stroke="#56600d" d="m663 639-16 7q-2 1-2 3l5 79a2 2 81 0 0 3 2c22-5 43-14 60-28h1l36 14v1l-37 42v1c-1 6 1 37 12 33 8-2 8-21 7-28l1-1 30-31q10-9 17-20c3-4-1-7-4-9-14-9-29-16-43-24q-1 0 0 0l5-13h1l37 14a1 1-88 0 1 1 1q5 19 13 37l4 8c7 9 9-1 9-6q-2-26-12-51c-3-9-8-11-17-13l-33-9-1-9" vector-effect="non-scaling-stroke"/>
    <path stroke="#636d1a" d="m740 639-1-6 57-30a2 2 0 0 0 1-3l-102-82-1-3c0-5-1-24-6-27-14-9-12 37-12 42a2 2-72 0 0 1 1l83 68v1l-97 39" vector-effect="non-scaling-stroke"/>
    <path stroke="#0d0d0d" d="M740 639c-24 2-49 1-73 1l-4-1" vector-effect="non-scaling-stroke"/>
  </g>
  <path fill="#fdfdfd" d="M635 865 155 647c-8-4-8-10 0-14l482-219a7 7-45 0 1 6 0l483 219c4 2 6 7 3 11q-1 2-5 3L643 866c-3 1-5 0-8-1ZM155 642l484 220h2l483-220h1l1-2a2 2-74 0 0-1-2L641 418a2 2 45 0 0-2 0L157 637l-2 1a2 2 0 0 0 0 4Z"/>
  <path d="M639 862 155 642a2 2 0 0 1 0-4l2-1 482-219a2 2 45 0 1 2 0l484 220a2 2-74 0 1 1 2l-1 2h-1L641 862h-2ZM163 641l477 216 478-217-478-217-478 217 1 1Z"/>
  <path fill="#d1dc80" d="M640 423v175c-10 0-25-4-31-13s-1-19 7-24c2-1 2-3 1-4a2 2-31 0 0-2-1q-39 9-62 42l-2 4a1 1 11 0 0 1 1l87 36h1v1h-22l-98-40v-1l82-67a3 3-19 0 0 1-3c1-12 1-24-2-36-1-6-6-9-10-4-6 7-5 19-5 28l-1 1-102 82a2 2 50 0 0 0 3l2 1 56 29-1 7H167l-4 1-1-1 478-217Z"/>
  <path fill="#abbf1a" d="m640 423 478 217-478 217-477-216 4-1h373l-1 8q-20 4-39 11c-7 2-9 5-12 12q-9 24-11 50c-1 4 3 14 8 7l8-14 10-32a2 2 87 0 1 1-1l37-14h1l6 13h-1c-15 8-31 16-45 26-5 4-3 7 0 11l7 8 38 39 1 1c-1 9-1 18 3 25 3 5 8 5 11-1 4-8 5-19 5-28a3 3-66 0 0 0-2l-37-42v-1l36-14h1c17 14 38 22 59 28q3 1 4-2l5-80a2 2 13 0 0-2-2l-14-6h21v-1h1l86-35a2 2 0 0 0 1-4q-22-34-62-44-3 0-4 2a2 2-71 0 0 1 2c10 6 15 18 6 27-7 8-18 11-29 11V423Zm23 216-16 7q-2 1-2 3l5 79a2 2 81 0 0 3 2c22-5 43-14 60-28h1l36 14v1l-37 42v1c-1 6 1 37 12 33 8-2 8-21 7-28l1-1 30-31q10-9 17-20c3-4-1-7-4-9-14-9-29-16-43-24q-1 0 0 0l5-13h1l37 14a1 1-88 0 1 1 1q5 19 13 37l4 8c7 9 9-1 9-6q-2-26-12-51c-3-9-8-11-17-13l-33-9-1-9-1-6 57-30a2 2 0 0 0 1-3l-102-82-1-3c0-5-1-24-6-27-14-9-12 37-12 42a2 2-72 0 0 1 1l83 68v1l-97 39Z"/>
  <path fill="gray" d="M618 640h-78l1-7-56-29-2-1a2 2 50 0 1 0-3l102-82 1-1c0-9-1-21 5-28 4-5 9-2 10 4 3 12 3 24 2 36a3 3-19 0 1-1 3l-82 67v1l98 40Z"/>
  <path fill="#1a1a1a" d="M740 639c-24 2-49 1-73 1l-4-1 97-39v-1l-83-68a2 2-72 0 1-1-1c0-5-2-51 12-42 5 3 6 22 6 27l1 3 102 82a2 2 0 0 1-1 3l-57 30 1 6Z"/>
  <path fill="gray" d="M640 598v41h-1l-87-36a1 1 11 0 1-1-1l2-4q23-33 62-42a2 2-31 0 1 2 1c1 1 1 3-1 4-8 5-13 15-7 24s21 13 31 13Z"/>
  <path fill="#1a1a1a" d="M640 639v-41c11 0 22-3 29-11 9-9 4-21-6-27a2 2-71 0 1-1-2q1-2 4-2 40 10 62 44a2 2 0 0 1-1 4l-86 35h-1Z"/>
  <path d="m663 639 4 1c24 0 49 1 73-1l1 9 33 9c9 2 14 4 17 13q10 25 12 51c0 5-2 15-9 6l-4-8q-8-18-13-37a1 1-88 0 0-1-1l-37-14h-1l-5 13q-1 0 0 0c14 8 29 15 43 24 3 2 7 5 4 9q-7 11-17 20l-30 31-1 1c1 7 1 26-7 28-11 4-13-27-12-33v-1l37-42v-1l-36-14h-1c-17 14-38 23-60 28a2 2 81 0 1-3-2l-5-79q0-2 2-3l16-7Z"/>
  <path fill="#1a1a1a" d="M618 640h1l14 6a2 2 13 0 1 2 2l-5 80q-1 3-4 2c-21-6-42-14-59-28h-1l-36 14v1l37 42a3 3-66 0 1 0 2c0 9-1 20-5 28-3 6-8 6-11 1-4-7-4-16-3-25l-1-1-38-39-7-8c-3-4-5-7 0-11 14-10 30-18 45-26h1l-6-13h-1l-37 14a2 2 87 0 0-1 1l-10 32-8 14c-5 7-9-3-8-7q2-26 11-50c3-7 5-10 12-12q19-7 39-11l1-8h78Z"/>
</svg>
