<?xml version="1.0" encoding="UTF-8" standalone="no"?>
<!DOCTYPE svg PUBLIC "-//W3C//DTD SVG 1.1//EN" "http://www.w3.org/Graphics/SVG/1.1/DTD/svg11.dtd">
<svg xmlns="http://www.w3.org/2000/svg" version="1.1" viewBox="0.00 0.00 1280.00 1280.00">
<g stroke-width="2.00" fill="none" stroke-linecap="butt">
<path stroke="#7f7f7f" vector-effect="non-scaling-stroke" d="
  M 154.89 641.92
  L 639.24 862.09
  Q 639.97 862.42 640.70 862.09
  Q 882.33 752.26 1124.36 642.23
  Q 1125.06 641.92 1125.44 641.54
  Q 1126.05 640.95 1126.13 640.40
  A 2.39 2.35 -74.2 0 0 1124.78 637.94
  L 640.77 417.94
  A 1.94 1.91 44.6 0 0 639.16 417.94
  Q 398.35 527.40 157.25 637.00
  Q 155.73 637.68 154.65 638.36
  A 2.03 2.03 0.0 0 0 154.89 641.92"
/>
<path stroke="#56600d" vector-effect="non-scaling-stroke" d="
  M 162.98 640.59
  L 639.50 857.21
  Q 639.99 857.43 640.47 857.21
  L 1117.79 640.24
  Q 1118.29 640.01 1117.79 639.78
  L 640.30 422.74"
/>
<path stroke="#696e40" vector-effect="non-scaling-stroke" d="
  M 640.30 422.74
  L 162.14 639.72
  Q 161.61 639.96 162.08 640.29
  Q 162.39 640.51 162.98 640.59"
/>
<path stroke="#bece4d" vector-effect="non-scaling-stroke" d="
  M 640.30 422.74
  C 639.37 426.21 639.80 432.61 639.79 435.97
  Q 639.58 513.65 640.04 591.33
  C 640.05 593.32 639.79 595.76 639.84 598.01"
/>
<path stroke="#a9ae80" vector-effect="non-scaling-stroke" d="
  M 639.84 598.01
  C 629.53 598.12 615.35 594.26 609.31 585.18
  C 602.91 575.56 607.72 566.49 616.43 560.54
  C 617.86 559.55 618.35 558.09 616.87 556.88
  A 2.02 2.00 -31.4 0 0 615.14 556.47
  Q 575.96 565.46 552.99 598.01
  Q 551.36 600.32 551.40 602.32
  A 1.04 1.03 10.8 0 0 552.04 603.26
  Q 595.37 621.35 638.69 639.28
  Q 639.11 639.45 639.96 639.23"
/>
<path stroke="#bece4d" vector-effect="non-scaling-stroke" d="
  M 639.96 639.23
  Q 640.08 639.55 639.84 639.81
  A 0.45 0.43 19.2 0 1 639.54 639.95
  L 618.96 640.12"
/>
<path stroke="#767b4d" vector-effect="non-scaling-stroke" d="
  M 618.96 640.12
  Q 618.86 640.46 618.04 639.87"
/>
<path stroke="#a9ae80" vector-effect="non-scaling-stroke" d="
  M 618.04 639.87
  L 519.95 599.85
  Q 519.21 599.55 519.83 599.05
  L 602.23 531.99
  A 3.36 3.35 -19.3 0 0 603.48 529.40
  C 603.61 517.31 604.17 504.58 600.93 492.65
  C 599.52 487.46 594.60 483.71 590.64 489.16
  C 585.45 496.30 586.07 508.48 585.51 516.87
  Q 585.47 517.50 584.98 517.89
  L 482.98 599.72
  A 2.06 2.04 49.7 0 0 482.75 602.69
  Q 483.26 603.27 484.57 603.94
  Q 512.67 618.25 540.84 632.54
  Q 541.31 632.78 541.21 633.30
  L 539.96 639.98"
/>
<path stroke="#bece4d" vector-effect="non-scaling-stroke" d="
  M 539.96 639.98
  Q 259.12 640.10 167.06 639.94
  Q 164.47 639.93 162.98 640.59"
/>
<path stroke="#4d4d4d" vector-effect="non-scaling-stroke" d="
  M 618.04 639.87
  L 539.96 639.96"
/>
<path stroke="#4d4d4d" vector-effect="non-scaling-stroke" d="
  M 639.93 598.15
  L 639.96 639.23"
/>
<path stroke="#96a04d" vector-effect="non-scaling-stroke" d="
  M 539.96 639.98
  Q 539.96 639.97 539.96 639.96"
/>
<path stroke="#636d1a" vector-effect="non-scaling-stroke" d="
  M 539.96 639.96
  L 539.42 647.60
  Q 539.38 648.12 538.87 648.23
  Q 519.03 652.47 499.81 658.91
  C 492.80 661.25 490.85 664.19 488.14 671.20
  Q 478.80 695.38 476.66 721.24
  C 476.31 725.45 479.57 735.12 485.06 727.74
  Q 489.70 721.49 492.54 714.22
  Q 498.69 698.49 502.97 682.21
  A 2.19 2.17 87.4 0 1 504.32 680.72
  L 541.32 666.96
  Q 541.77 666.80 541.97 667.24
  L 547.50 679.82
  Q 547.68 680.24 547.27 680.45
  C 531.79 688.35 515.83 696.15 501.56 706.35
  C 496.52 709.95 499.16 712.66 502.13 716.64
  Q 505.52 721.20 509.37 725.40
  Q 527.65 745.34 547.26 764.08
  Q 547.64 764.45 547.61 764.98
  C 547.19 773.57 547.32 783.43 550.68 789.56
  C 553.65 794.98 559.33 794.55 562.12 789.30
  C 566.46 781.14 567.43 770.41 567.45 760.69
  A 2.54 2.53 -65.6 0 0 566.81 758.98
  L 529.80 716.93
  Q 529.37 716.44 529.97 716.20
  L 565.89 701.87
  Q 566.39 701.67 566.81 702.01
  C 584.06 715.80 605.06 724.48 626.34 729.82
  Q 629.46 730.61 629.64 727.68
  Q 632.11 688.09 634.53 647.99
  A 1.95 1.94 12.9 0 0 633.33 646.08
  L 618.96 640.12"
/>
<path stroke="#636d1a" vector-effect="non-scaling-stroke" d="
  M 639.96 639.23
  Q 640.11 639.29 640.24 639.37
  Q 640.54 639.53 640.85 639.40
  L 727.17 603.65
  A 2.39 2.39 0.0 0 0 728.26 600.13
  Q 705.97 566.22 665.85 556.44
  Q 662.78 555.69 662.34 558.48
  A 1.97 1.95 -70.6 0 0 663.28 560.47
  C 672.91 566.13 677.54 577.50 669.26 586.78
  C 661.92 595.01 650.68 597.97 639.93 598.15"
/>
<path stroke="#96a04d" vector-effect="non-scaling-stroke" d="
  M 639.93 598.15
  Q 639.99 598.04 639.84 598.01"
/>
<path stroke="#56600d" vector-effect="non-scaling-stroke" d="
  M 663.49 639.17
  L 647.13 645.79
  Q 645.26 646.54 645.39 648.55
  L 650.28 727.99
  A 2.22 2.21 81.3 0 0 653.03 730.01
  C 674.62 724.59 695.56 715.90 713.25 702.07
  Q 713.61 701.78 714.03 701.95
  L 749.82 716.20
  Q 750.51 716.47 750.02 717.03
  L 712.92 759.24
  Q 712.57 759.65 712.56 760.19
  C 712.47 765.96 713.70 796.84 725.05 793.25
  C 733.11 790.70 732.82 771.71 732.38 765.01
  Q 732.35 764.50 732.72 764.15
  Q 748.40 749.11 763.47 733.47
  Q 772.61 723.98 780.31 713.31
  C 783.16 709.36 778.83 706.30 775.95 704.41
  C 762.19 695.40 747.39 687.88 732.73 680.43
  Q 732.33 680.22 732.51 679.81
  L 737.96 667.35
  Q 738.17 666.86 738.68 667.05
  L 775.97 680.90
  A 1.26 1.23 -87.9 0 1 776.73 681.74
  Q 781.78 700.85 789.75 719.11
  Q 791.65 723.47 794.46 727.29
  C 800.53 735.54 803.41 725.88 803.04 721.02
  Q 801.03 694.59 791.35 669.92
  C 787.80 660.86 783.18 659.35 774.48 656.78
  Q 757.98 651.90 741.10 648.14
  Q 740.60 648.03 740.56 647.51
  L 739.95 639.47"
/>
<path stroke="#636d1a" vector-effect="non-scaling-stroke" d="
  M 739.95 639.47
  L 738.73 633.28
  Q 738.63 632.79 739.08 632.57
  L 796.42 603.39
  A 2.27 2.27 0.0 0 0 796.82 599.60
  Q 745.94 558.65 695.16 517.82
  Q 694.15 517.01 694.23 515.01
  C 694.46 509.85 693.38 490.70 687.95 487.55
  C 673.97 479.47 676.22 524.88 676.48 530.28
  A 1.59 1.58 -71.9 0 0 677.07 531.45
  L 760.15 599.07
  Q 760.75 599.56 760.04 599.84
  L 663.49 639.17"
/>
<path stroke="#0d0d0d" vector-effect="non-scaling-stroke" d="
  M 739.95 639.47
  C 716.12 641.19 691.25 640.00 667.29 639.99
  C 665.99 639.99 664.77 639.45 663.49 639.17"
/>
</g>
<path fill="#fdfdfd" d="
  M 635.01 865.13
  C 475.03 792.40 315.05 719.65 155.05 646.96
  C 147.39 643.48 147.24 636.59 154.95 633.08
  Q 396.47 523.29 637.25 413.85
  A 6.55 6.52 -44.9 0 1 642.66 413.85
  Q 883.74 523.41 1125.69 633.40
  C 1129.86 635.30 1132.29 639.57 1129.44 643.60
  Q 1128.10 645.50 1124.22 647.27
  Q 883.37 756.77 642.50 866.24
  C 639.95 867.40 637.55 866.28 635.01 865.13
  Z
  M 154.89 641.92
  L 639.24 862.09
  Q 639.97 862.42 640.70 862.09
  Q 882.33 752.26 1124.36 642.23
  Q 1125.06 641.92 1125.44 641.54
  Q 1126.05 640.95 1126.13 640.40
  A 2.39 2.35 -74.2 0 0 1124.78 637.94
  L 640.77 417.94
  A 1.94 1.91 44.6 0 0 639.16 417.94
  Q 398.35 527.40 157.25 637.00
  Q 155.73 637.68 154.65 638.36
  A 2.03 2.03 0.0 0 0 154.89 641.92
  Z"
/>
<path fill="#000000" d="
  M 639.24 862.09
  L 154.89 641.92
  A 2.03 2.03 0.0 0 1 154.65 638.36
  Q 155.73 637.68 157.25 637.00
  Q 398.35 527.40 639.16 417.94
  A 1.94 1.91 44.6 0 1 640.77 417.94
  L 1124.78 637.94
  A 2.39 2.35 -74.2 0 1 1126.13 640.40
  Q 1126.05 640.95 1125.44 641.54
  Q 1125.06 641.92 1124.36 642.23
  Q 882.33 752.26 640.70 862.09
  Q 639.97 862.42 639.24 862.09
  Z
  M 162.98 640.59
  L 639.50 857.21
  Q 639.99 857.43 640.47 857.21
  L 1117.79 640.24
  Q 1118.29 640.01 1117.79 639.78
  L 640.30 422.74
  L 162.14 639.72
  Q 161.61 639.96 162.08 640.29
  Q 162.39 640.51 162.98 640.59
  Z"
/>
<path fill="#d1dc80" d="
  M 640.30 422.74
  C 639.37 426.21 639.80 432.61 639.79 435.97
  Q 639.58 513.65 640.04 591.33
  C 640.05 593.32 639.79 595.76 639.84 598.01
  C 629.53 598.12 615.35 594.26 609.31 585.18
  C 602.91 575.56 607.72 566.49 616.43 560.54
  C 617.86 559.55 618.35 558.09 616.87 556.88
  A 2.02 2.00 -31.4 0 0 615.14 556.47
  Q 575.96 565.46 552.99 598.01
  Q 551.36 600.32 551.40 602.32
  A 1.04 1.03 10.8 0 0 552.04 603.26
  Q 595.37 621.35 638.69 639.28
  Q 639.11 639.45 639.96 639.23
  Q 640.08 639.55 639.84 639.81
  A 0.45 0.43 19.2 0 1 639.54 639.95
  L 618.96 640.12
  Q 618.86 640.46 618.04 639.87
  L 519.95 599.85
  Q 519.21 599.55 519.83 599.05
  L 602.23 531.99
  A 3.36 3.35 -19.3 0 0 603.48 529.40
  C 603.61 517.31 604.17 504.58 600.93 492.65
  C 599.52 487.46 594.60 483.71 590.64 489.16
  C 585.45 496.30 586.07 508.48 585.51 516.87
  Q 585.47 517.50 584.98 517.89
  L 482.98 599.72
  A 2.06 2.04 49.7 0 0 482.75 602.69
  Q 483.26 603.27 484.57 603.94
  Q 512.67 618.25 540.84 632.54
  Q 541.31 632.78 541.21 633.30
  L 539.96 639.98
  Q 259.12 640.10 167.06 639.94
  Q 164.47 639.93 162.98 640.59
  Q 162.39 640.51 162.08 640.29
  Q 161.61 639.96 162.14 639.72
  L 640.30 422.74
  Z"
/>
<path fill="#abbf1a" d="
  M 640.30 422.74
  L 1117.79 639.78
  Q 1118.29 640.01 1117.79 640.24
  L 640.47 857.21
  Q 639.99 857.43 639.50 857.21
  L 162.98 640.59
  Q 164.47 639.93 167.06 639.94
  Q 259.12 640.10 539.96 639.98
  Q 539.96 639.97 539.96 639.96
  L 539.42 647.60
  Q 539.38 648.12 538.87 648.23
  Q 519.03 652.47 499.81 658.91
  C 492.80 661.25 490.85 664.19 488.14 671.20
  Q 478.80 695.38 476.66 721.24
  C 476.31 725.45 479.57 735.12 485.06 727.74
  Q 489.70 721.49 492.54 714.22
  Q 498.69 698.49 502.97 682.21
  A 2.19 2.17 87.4 0 1 504.32 680.72
  L 541.32 666.96
  Q 541.77 666.80 541.97 667.24
  L 547.50 679.82
  Q 547.68 680.24 547.27 680.45
  C 531.79 688.35 515.83 696.15 501.56 706.35
  C 496.52 709.95 499.16 712.66 502.13 716.64
  Q 505.52 721.20 509.37 725.40
  Q 527.65 745.34 547.26 764.08
  Q 547.64 764.45 547.61 764.98
  C 547.19 773.57 547.32 783.43 550.68 789.56
  C 553.65 794.98 559.33 794.55 562.12 789.30
  C 566.46 781.14 567.43 770.41 567.45 760.69
  A 2.54 2.53 -65.6 0 0 566.81 758.98
  L 529.80 716.93
  Q 529.37 716.44 529.97 716.20
  L 565.89 701.87
  Q 566.39 701.67 566.81 702.01
  C 584.06 715.80 605.06 724.48 626.34 729.82
  Q 629.46 730.61 629.64 727.68
  Q 632.11 688.09 634.53 647.99
  A 1.95 1.94 12.9 0 0 633.33 646.08
  L 618.96 640.12
  L 639.54 639.95
  A 0.45 0.43 19.2 0 0 639.84 639.81
  Q 640.08 639.55 639.96 639.23
  Q 640.11 639.29 640.24 639.37
  Q 640.54 639.53 640.85 639.40
  L 727.17 603.65
  A 2.39 2.39 0.0 0 0 728.26 600.13
  Q 705.97 566.22 665.85 556.44
  Q 662.78 555.69 662.34 558.48
  A 1.97 1.95 -70.6 0 0 663.28 560.47
  C 672.91 566.13 677.54 577.50 669.26 586.78
  C 661.92 595.01 650.68 597.97 639.93 598.15
  Q 639.99 598.04 639.84 598.01
  C 639.79 595.76 640.05 593.32 640.04 591.33
  Q 639.58 513.65 639.79 435.97
  C 639.80 432.61 639.37 426.21 640.30 422.74
  Z
  M 663.49 639.17
  L 647.13 645.79
  Q 645.26 646.54 645.39 648.55
  L 650.28 727.99
  A 2.22 2.21 81.3 0 0 653.03 730.01
  C 674.62 724.59 695.56 715.90 713.25 702.07
  Q 713.61 701.78 714.03 701.95
  L 749.82 716.20
  Q 750.51 716.47 750.02 717.03
  L 712.92 759.24
  Q 712.57 759.65 712.56 760.19
  C 712.47 765.96 713.70 796.84 725.05 793.25
  C 733.11 790.70 732.82 771.71 732.38 765.01
  Q 732.35 764.50 732.72 764.15
  Q 748.40 749.11 763.47 733.47
  Q 772.61 723.98 780.31 713.31
  C 783.16 709.36 778.83 706.30 775.95 704.41
  C 762.19 695.40 747.39 687.88 732.73 680.43
  Q 732.33 680.22 732.51 679.81
  L 737.96 667.35
  Q 738.17 666.86 738.68 667.05
  L 775.97 680.90
  A 1.26 1.23 -87.9 0 1 776.73 681.74
  Q 781.78 700.85 789.75 719.11
  Q 791.65 723.47 794.46 727.29
  C 800.53 735.54 803.41 725.88 803.04 721.02
  Q 801.03 694.59 791.35 669.92
  C 787.80 660.86 783.18 659.35 774.48 656.78
  Q 757.98 651.90 741.10 648.14
  Q 740.60 648.03 740.56 647.51
  L 739.95 639.47
  L 738.73 633.28
  Q 738.63 632.79 739.08 632.57
  L 796.42 603.39
  A 2.27 2.27 0.0 0 0 796.82 599.60
  Q 745.94 558.65 695.16 517.82
  Q 694.15 517.01 694.23 515.01
  C 694.46 509.85 693.38 490.70 687.95 487.55
  C 673.97 479.47 676.22 524.88 676.48 530.28
  A 1.59 1.58 -71.9 0 0 677.07 531.45
  L 760.15 599.07
  Q 760.75 599.56 760.04 599.84
  L 663.49 639.17
  Z"
/>
<path fill="#808080" d="
  M 618.04 639.87
  L 539.96 639.96
  Q 539.96 639.97 539.96 639.98
  L 541.21 633.30
  Q 541.31 632.78 540.84 632.54
  Q 512.67 618.25 484.57 603.94
  Q 483.26 603.27 482.75 602.69
  A 2.06 2.04 49.7 0 1 482.98 599.72
  L 584.98 517.89
  Q 585.47 517.50 585.51 516.87
  C 586.07 508.48 585.45 496.30 590.64 489.16
  C 594.60 483.71 599.52 487.46 600.93 492.65
  C 604.17 504.58 603.61 517.31 603.48 529.40
  A 3.36 3.35 -19.3 0 1 602.23 531.99
  L 519.83 599.05
  Q 519.21 599.55 519.95 599.85
  L 618.04 639.87
  Z"
/>
<path fill="#1a1a1a" d="
  M 739.95 639.47
  C 716.12 641.19 691.25 640.00 667.29 639.99
  C 665.99 639.99 664.77 639.45 663.49 639.17
  L 760.04 599.84
  Q 760.75 599.56 760.15 599.07
  L 677.07 531.45
  A 1.59 1.58 -71.9 0 1 676.48 530.28
  C 676.22 524.88 673.97 479.47 687.95 487.55
  C 693.38 490.70 694.46 509.85 694.23 515.01
  Q 694.15 517.01 695.16 517.82
  Q 745.94 558.65 796.82 599.60
  A 2.27 2.27 0.0 0 1 796.42 603.39
  L 739.08 632.57
  Q 738.63 632.79 738.73 633.28
  L 739.95 639.47
  Z"
/>
<path fill="#808080" d="
  M 639.84 598.01
  Q 639.99 598.04 639.93 598.15
  L 639.96 639.23
  Q 639.11 639.45 638.69 639.28
  Q 595.37 621.35 552.04 603.26
  A 1.04 1.03 10.8 0 1 551.40 602.32
  Q 551.36 600.32 552.99 598.01
  Q 575.96 565.46 615.14 556.47
  A 2.02 2.00 -31.4 0 1 616.87 556.88
  C 618.35 558.09 617.86 559.55 616.43 560.54
  C 607.72 566.49 602.91 575.56 609.31 585.18
  C 615.35 594.26 629.53 598.12 639.84 598.01
  Z"
/>
<path fill="#1a1a1a" d="
  M 639.96 639.23
  L 639.93 598.15
  C 650.68 597.97 661.92 595.01 669.26 586.78
  C 677.54 577.50 672.91 566.13 663.28 560.47
  A 1.97 1.95 -70.6 0 1 662.34 558.48
  Q 662.78 555.69 665.85 556.44
  Q 705.97 566.22 728.26 600.13
  A 2.39 2.39 0.0 0 1 727.17 603.65
  L 640.85 639.40
  Q 640.54 639.53 640.24 639.37
  Q 640.11 639.29 639.96 639.23
  Z"
/>
<path fill="#000000" d="
  M 663.49 639.17
  C 664.77 639.45 665.99 639.99 667.29 639.99
  C 691.25 640.00 716.12 641.19 739.95 639.47
  L 740.56 647.51
  Q 740.60 648.03 741.10 648.14
  Q 757.98 651.90 774.48 656.78
  C 783.18 659.35 787.80 660.86 791.35 669.92
  Q 801.03 694.59 803.04 721.02
  C 803.41 725.88 800.53 735.54 794.46 727.29
  Q 791.65 723.47 789.75 719.11
  Q 781.78 700.85 776.73 681.74
  A 1.26 1.23 -87.9 0 0 775.97 680.90
  L 738.68 667.05
  Q 738.17 666.86 737.96 667.35
  L 732.51 679.81
  Q 732.33 680.22 732.73 680.43
  C 747.39 687.88 762.19 695.40 775.95 704.41
  C 778.83 706.30 783.16 709.36 780.31 713.31
  Q 772.61 723.98 763.47 733.47
  Q 748.40 749.11 732.72 764.15
  Q 732.35 764.50 732.38 765.01
  C 732.82 771.71 733.11 790.70 725.05 793.25
  C 713.70 796.84 712.47 765.96 712.56 760.19
  Q 712.57 759.65 712.92 759.24
  L 750.02 717.03
  Q 750.51 716.47 749.82 716.20
  L 714.03 701.95
  Q 713.61 701.78 713.25 702.07
  C 695.56 715.90 674.62 724.59 653.03 730.01
  A 2.22 2.21 81.3 0 1 650.28 727.99
  L 645.39 648.55
  Q 645.26 646.54 647.13 645.79
  L 663.49 639.17
  Z"
/>
<path fill="#1a1a1a" d="
  M 618.04 639.87
  Q 618.86 640.46 618.96 640.12
  L 633.33 646.08
  A 1.95 1.94 12.9 0 1 634.53 647.99
  Q 632.11 688.09 629.64 727.68
  Q 629.46 730.61 626.34 729.82
  C 605.06 724.48 584.06 715.80 566.81 702.01
  Q 566.39 701.67 565.89 701.87
  L 529.97 716.20
  Q 529.37 716.44 529.80 716.93
  L 566.81 758.98
  A 2.54 2.53 -65.6 0 1 567.45 760.69
  C 567.43 770.41 566.46 781.14 562.12 789.30
  C 559.33 794.55 553.65 794.98 550.68 789.56
  C 547.32 783.43 547.19 773.57 547.61 764.98
  Q 547.64 764.45 547.26 764.08
  Q 527.65 745.34 509.37 725.40
  Q 505.52 721.20 502.13 716.64
  C 499.16 712.66 496.52 709.95 501.56 706.35
  C 515.83 696.15 531.79 688.35 547.27 680.45
  Q 547.68 680.24 547.50 679.82
  L 541.97 667.24
  Q 541.77 666.80 541.32 666.96
  L 504.32 680.72
  A 2.19 2.17 87.4 0 0 502.97 682.21
  Q 498.69 698.49 492.54 714.22
  Q 489.70 721.49 485.06 727.74
  C 479.57 735.12 476.31 725.45 476.66 721.24
  Q 478.80 695.38 488.14 671.20
  C 490.85 664.19 492.80 661.25 499.81 658.91
  Q 519.03 652.47 538.87 648.23
  Q 539.38 648.12 539.42 647.60
  L 539.96 639.96
  L 618.04 639.87
  Z"
/>
</svg>
