<?xml version="1.0" encoding="UTF-8" standalone="no"?>
<!DOCTYPE svg PUBLIC "-//W3C//DTD SVG 1.1//EN" "http://www.w3.org/Graphics/SVG/1.1/DTD/svg11.dtd">
<svg xmlns="http://www.w3.org/2000/svg" version="1.1" viewBox="0.00 0.00 1448.00 1448.00">
<g stroke-width="2.00" fill="none" stroke-linecap="butt">
<path stroke="#808080" vector-effect="non-scaling-stroke" d="
  M 175.47 721.65
  A 2.58 2.58 0.0 0 0 175.47 726.35
  L 722.76 975.12
  A 2.58 2.58 0.0 0 0 724.90 975.12
  L 1272.21 726.35
  A 2.58 2.58 0.0 0 0 1272.21 721.65
  L 724.92 472.87
  A 2.58 2.58 0.0 0 0 722.78 472.87
  L 175.47 721.65"
/>
<path stroke="#2d2825" vector-effect="non-scaling-stroke" d="
  M 183.58 723.56
  C 185.83 725.83 187.45 726.20 190.04 727.38
  Q 456.72 848.63 723.41 969.82
  Q 723.66 969.93 723.91 969.88
  L 724.29 969.80"
/>
<path stroke="#231e1b" vector-effect="non-scaling-stroke" d="
  M 724.29 969.80
  L 1264.31 724.30
  Q 1264.88 724.04 1264.49 723.56
  Q 1264.38 723.43 1263.81 723.46"
/>
<path stroke="#2d2825" vector-effect="non-scaling-stroke" d="
  M 1263.81 723.46
  L 723.85 477.96"
/>
<path stroke="#524f4e" vector-effect="non-scaling-stroke" d="
  M 723.85 477.96
  L 183.58 723.56"
/>
<path stroke="#7e7673" vector-effect="non-scaling-stroke" d="
  M 723.85 477.96
  Q 724.19 478.84 723.75 479.25
  Q 723.75 598.12 723.75 717.00"
/>
<path stroke="#928f8e" vector-effect="non-scaling-stroke" d="
  M 723.75 717.00
  Q 723.19 717.25 722.70 717.27
  C 683.60 718.19 636.78 700.53 619.55 662.69
  C 602.21 624.59 624.56 588.69 657.61 570.04
  Q 659.53 568.95 658.60 566.95
  Q 657.76 565.14 655.82 565.60
  C 579.03 583.46 504.39 638.92 498.49 723.98"
/>
<path stroke="#5f5c5b" vector-effect="non-scaling-stroke" d="
  M 498.49 723.98
  Q 498.43 723.99 498.37 724.00"
/>
<path stroke="#7e7673" vector-effect="non-scaling-stroke" d="
  M 498.37 724.00
  L 185.40 724.00
  Q 185.00 724.00 184.65 724.19
  Q 184.00 724.55 183.58 723.56"
/>
<path stroke="#3a3532" vector-effect="non-scaling-stroke" d="
  M 498.37 724.00
  C 495.63 796.53 545.40 853.83 608.51 882.32
  A 2.29 2.29 0.0 0 0 611.42 881.41
  C 612.58 879.50 611.37 878.16 609.67 877.14
  C 556.21 845.09 523.75 786.53 544.05 723.99"
/>
<path stroke="#3a3532" vector-effect="non-scaling-stroke" d="
  M 570.89 724.01
  Q 568.20 752.15 570.28 780.26
  C 570.57 784.14 573.73 784.85 575.98 781.82
  Q 594.58 756.76 623.80 739.56
  C 625.71 738.43 624.79 735.98 622.93 735.03
  Q 613.68 730.32 605.07 724.07"
/>
<path stroke="#3a3532" vector-effect="non-scaling-stroke" d="
  M 624.77 724.11
  C 655.97 738.27 688.94 744.24 722.99 744.08"
/>
<path stroke="#3a3532" vector-effect="non-scaling-stroke" d="
  M 723.30 756.55
  Q 673.74 757.61 628.85 738.14
  C 626.26 737.02 624.59 737.70 624.28 740.58
  Q 620.54 775.74 622.78 811.06
  Q 622.95 813.81 625.83 813.23
  A 2.68 2.62 -70.9 0 0 627.07 812.61
  Q 653.79 788.93 682.57 767.82
  A 0.56 0.56 0.0 0 1 683.39 768.01
  Q 700.58 800.63 717.83 833.33
  C 719.16 835.84 721.46 836.67 723.08 833.77"
/>
<path stroke="#4d4d4d" vector-effect="non-scaling-stroke" d="
  M 723.77 717.42
  L 723.77 724.00"
/>
<path stroke="#4d4d4d" vector-effect="non-scaling-stroke" d="
  M 723.77 724.00
  L 624.77 724.11"
/>
<path stroke="#6d6865" vector-effect="non-scaling-stroke" d="
  M 624.77 724.11
  Q 624.66 723.96 624.01 724.01"
/>
<path stroke="#928f8e" vector-effect="non-scaling-stroke" d="
  M 624.01 724.01
  Q 624.10 723.57 623.47 723.27
  C 602.43 713.47 583.12 698.10 573.21 676.66
  A 0.29 0.29 0.0 0 0 572.74 676.59
  Q 553.59 697.39 544.05 723.99"
/>
<path stroke="#4d4d4d" vector-effect="non-scaling-stroke" d="
  M 544.05 723.99
  L 498.49 723.98"
/>
<path stroke="#504540" vector-effect="non-scaling-stroke" d="
  M 1263.81 723.46
  Q 1263.74 723.57 1263.67 723.68
  A 0.74 0.72 -72.3 0 1 1263.07 724.00
  L 944.13 724.00
  Q 943.70 724.00 943.29 723.87
  L 942.70 723.68"
/>
<path stroke="#3a3532" vector-effect="non-scaling-stroke" d="
  M 942.70 723.68
  C 936.43 639.08 862.37 583.47 785.59 565.51
  C 782.81 564.85 780.79 568.65 783.72 570.31
  C 821.48 591.57 842.42 633.68 815.36 673.43
  C 795.40 702.75 757.88 716.58 723.77 717.42"
/>
<path stroke="#6d6865" vector-effect="non-scaling-stroke" d="
  M 723.77 717.42
  L 723.75 717.00"
/>
<path stroke="#7e7673" vector-effect="non-scaling-stroke" d="
  M 624.01 724.01
  L 605.07 724.07"
/>
<path stroke="#5f5c5b" vector-effect="non-scaling-stroke" d="
  M 605.07 724.07
  L 603.75 724.00"
/>
<path stroke="#928f8e" vector-effect="non-scaling-stroke" d="
  M 603.75 724.00
  L 603.76 723.39
  Q 603.77 722.87 603.35 722.57
  Q 590.40 712.96 581.08 697.92
  Q 579.73 695.74 577.22 697.44
  A 1.32 1.29 82.5 0 0 576.71 698.12
  Q 572.59 710.72 571.14 724.00"
/>
<path stroke="#5f5c5b" vector-effect="non-scaling-stroke" d="
  M 571.14 724.00
  Q 571.01 724.01 570.89 724.01"
/>
<path stroke="#7e7673" vector-effect="non-scaling-stroke" d="
  M 570.89 724.01
  L 544.05 723.99"
/>
<path stroke="#0d0d0d" vector-effect="non-scaling-stroke" d="
  M 723.82 756.75
  L 723.87 832.07"
/>
<path stroke="#231e1b" vector-effect="non-scaling-stroke" d="
  M 835.48 724.24
  Q 827.86 729.96 819.81 734.07
  C 817.55 735.23 817.34 737.94 819.66 739.11
  C 839.27 749.00 856.12 764.70 869.21 782.17
  C 871.45 785.16 873.95 783.94 874.29 780.48
  Q 877.03 752.00 873.84 723.85"
/>
<path stroke="#231e1b" vector-effect="non-scaling-stroke" d="
  M 897.10 724.02
  C 917.50 787.31 884.59 845.27 830.84 877.61
  C 827.62 879.55 829.80 883.61 832.76 882.29
  C 895.66 854.14 945.09 796.65 942.79 724.71
  Q 942.79 724.51 942.68 724.34
  Q 942.56 724.16 942.46 724.01"
/>
<path stroke="#504540" vector-effect="non-scaling-stroke" d="
  M 724.29 969.80
  L 723.75 834.36
  Q 723.75 833.99 723.41 833.82
  Q 723.22 833.72 723.08 833.77"
/>
<path stroke="#302b28" vector-effect="non-scaling-stroke" d="
  M 723.08 833.77
  L 723.87 832.07"
/>
<path stroke="#231e1b" vector-effect="non-scaling-stroke" d="
  M 723.87 832.07
  L 757.69 768.00
  A 0.61 0.61 0.0 0 1 758.58 767.80
  Q 787.27 788.86 813.94 812.55
  C 816.43 814.76 818.35 812.90 818.52 810.18
  Q 820.60 775.78 816.96 741.52
  C 816.68 738.95 815.79 736.54 812.68 737.91
  C 783.87 750.58 755.00 755.88 723.82 756.75"
/>
<path stroke="#302b28" vector-effect="non-scaling-stroke" d="
  M 723.82 756.75
  Q 723.24 756.82 723.30 756.55"
/>
<path stroke="#504540" vector-effect="non-scaling-stroke" d="
  M 723.30 756.55
  Q 723.27 756.31 723.48 756.11
  Q 723.75 755.86 723.75 755.49
  L 723.75 744.75
  Q 723.75 744.35 723.36 744.28
  Q 723.08 744.23 722.99 744.08"
/>
<path stroke="#302b28" vector-effect="non-scaling-stroke" d="
  M 722.99 744.08
  Q 723.27 743.96 723.70 744.00"
/>
<path stroke="#231e1b" vector-effect="non-scaling-stroke" d="
  M 723.70 744.00
  C 755.24 743.78 788.07 737.57 816.38 723.98"
/>
<path stroke="#302b28" vector-effect="non-scaling-stroke" d="
  M 942.70 723.68
  Q 942.54 723.78 942.46 724.01"
/>
<path stroke="#0d0d0d" vector-effect="non-scaling-stroke" d="
  M 942.46 724.01
  L 897.10 724.02"
/>
<path stroke="#302b28" vector-effect="non-scaling-stroke" d="
  M 897.10 724.02
  L 896.86 723.46"
/>
<path stroke="#3a3532" vector-effect="non-scaling-stroke" d="
  M 896.86 723.46
  Q 887.50 697.30 868.55 676.82
  Q 868.17 676.41 867.93 676.92
  C 857.75 698.24 838.83 713.38 817.74 723.31"
/>
<path stroke="#302b28" vector-effect="non-scaling-stroke" d="
  M 817.74 723.31
  L 816.38 723.98"
/>
<path stroke="#0d0d0d" vector-effect="non-scaling-stroke" d="
  M 816.38 723.98
  L 723.77 724.00"
/>
<path stroke="#0d0d0d" vector-effect="non-scaling-stroke" d="
  M 723.70 744.00
  L 723.77 724.00"
/>
<path stroke="#4d4d4d" vector-effect="non-scaling-stroke" d="
  M 603.75 724.00
  L 571.14 724.00"
/>
<path stroke="#504540" vector-effect="non-scaling-stroke" d="
  M 896.86 723.46
  Q 896.79 723.58 896.74 723.71
  Q 896.66 723.94 896.42 723.94
  L 873.84 723.85"
/>
<path stroke="#3a3532" vector-effect="non-scaling-stroke" d="
  M 873.84 723.85
  Q 872.05 708.56 866.87 694.46
  C 865.92 691.86 863.34 691.61 861.95 694.27
  Q 852.78 711.82 836.27 723.68"
/>
<path stroke="#2d2825" vector-effect="non-scaling-stroke" d="
  M 836.27 723.68
  L 835.48 724.24"
/>
<path stroke="#504540" vector-effect="non-scaling-stroke" d="
  M 835.48 724.24
  Q 826.98 723.83 819.00 724.00
  Q 818.24 724.02 817.74 723.31"
/>
<path stroke="#0d0d0d" vector-effect="non-scaling-stroke" d="
  M 873.84 723.85
  L 836.27 723.68"
/>
</g>
<path fill="#ffffff" d="
  M 716.48 977.84
  C 535.71 895.77 354.75 814.05 174.26 731.36
  C 165.65 727.41 167.84 719.52 175.30 716.13
  Q 448.26 592.04 721.23 467.96
  C 724.48 466.49 729.23 469.16 732.21 470.51
  Q 1001.94 593.19 1271.69 715.80
  C 1274.93 717.27 1277.61 718.37 1278.54 722.03
  C 1279.80 726.95 1277.14 729.73 1272.72 731.74
  Q 1000.40 855.54 728.06 979.31
  C 723.28 981.48 721.56 980.14 716.48 977.84
  Z
  M 175.47 721.65
  A 2.58 2.58 0.0 0 0 175.47 726.35
  L 722.76 975.12
  A 2.58 2.58 0.0 0 0 724.90 975.12
  L 1272.21 726.35
  A 2.58 2.58 0.0 0 0 1272.21 721.65
  L 724.92 472.87
  A 2.58 2.58 0.0 0 0 722.78 472.87
  L 175.47 721.65
  Z"
/>
<path fill="#000000" d="
  M 175.47 721.65
  L 722.78 472.87
  A 2.58 2.58 0.0 0 1 724.92 472.87
  L 1272.21 721.65
  A 2.58 2.58 0.0 0 1 1272.21 726.35
  L 724.90 975.12
  A 2.58 2.58 0.0 0 1 722.76 975.12
  L 175.47 726.35
  A 2.58 2.58 0.0 0 1 175.47 721.65
  Z
  M 183.58 723.56
  C 185.83 725.83 187.45 726.20 190.04 727.38
  Q 456.72 848.63 723.41 969.82
  Q 723.66 969.93 723.91 969.88
  L 724.29 969.80
  L 1264.31 724.30
  Q 1264.88 724.04 1264.49 723.56
  Q 1264.38 723.43 1263.81 723.46
  L 723.85 477.96
  L 183.58 723.56
  Z"
/>
<path fill="#a39d9b" d="
  M 723.85 477.96
  Q 724.19 478.84 723.75 479.25
  Q 723.75 598.12 723.75 717.00
  Q 723.19 717.25 722.70 717.27
  C 683.60 718.19 636.78 700.53 619.55 662.69
  C 602.21 624.59 624.56 588.69 657.61 570.04
  Q 659.53 568.95 658.60 566.95
  Q 657.76 565.14 655.82 565.60
  C 579.03 583.46 504.39 638.92 498.49 723.98
  Q 498.43 723.99 498.37 724.00
  L 185.40 724.00
  Q 185.00 724.00 184.65 724.19
  Q 184.00 724.55 183.58 723.56
  L 723.85 477.96
  Z"
/>
<path fill="#594f4a" d="
  M 723.85 477.96
  L 1263.81 723.46
  Q 1263.74 723.57 1263.67 723.68
  A 0.74 0.72 -72.3 0 1 1263.07 724.00
  L 944.13 724.00
  Q 943.70 724.00 943.29 723.87
  L 942.70 723.68
  C 936.43 639.08 862.37 583.47 785.59 565.51
  C 782.81 564.85 780.79 568.65 783.72 570.31
  C 821.48 591.57 842.42 633.68 815.36 673.43
  C 795.40 702.75 757.88 716.58 723.77 717.42
  L 723.75 717.00
  Q 723.75 598.12 723.75 479.25
  Q 724.19 478.84 723.85 477.96
  Z"
/>
<path fill="#808080" d="
  M 723.75 717.00
  L 723.77 717.42
  L 723.77 724.00
  L 624.77 724.11
  Q 624.66 723.96 624.01 724.01
  Q 624.10 723.57 623.47 723.27
  C 602.43 713.47 583.12 698.10 573.21 676.66
  A 0.29 0.29 0.0 0 0 572.74 676.59
  Q 553.59 697.39 544.05 723.99
  L 498.49 723.98
  C 504.39 638.92 579.03 583.46 655.82 565.60
  Q 657.76 565.14 658.60 566.95
  Q 659.53 568.95 657.61 570.04
  C 624.56 588.69 602.21 624.59 619.55 662.69
  C 636.78 700.53 683.60 718.19 722.70 717.27
  Q 723.19 717.25 723.75 717.00
  Z"
/>
<path fill="#1a1a1a" d="
  M 942.70 723.68
  Q 942.54 723.78 942.46 724.01
  L 897.10 724.02
  L 896.86 723.46
  Q 887.50 697.30 868.55 676.82
  Q 868.17 676.41 867.93 676.92
  C 857.75 698.24 838.83 713.38 817.74 723.31
  L 816.38 723.98
  L 723.77 724.00
  L 723.77 717.42
  C 757.88 716.58 795.40 702.75 815.36 673.43
  C 842.42 633.68 821.48 591.57 783.72 570.31
  C 780.79 568.65 782.81 564.85 785.59 565.51
  C 862.37 583.47 936.43 639.08 942.70 723.68
  Z"
/>
<path fill="#a39d9b" d="
  M 624.01 724.01
  L 605.07 724.07
  L 603.75 724.00
  L 603.76 723.39
  Q 603.77 722.87 603.35 722.57
  Q 590.40 712.96 581.08 697.92
  Q 579.73 695.74 577.22 697.44
  A 1.32 1.29 82.5 0 0 576.71 698.12
  Q 572.59 710.72 571.14 724.00
  Q 571.01 724.01 570.89 724.01
  L 544.05 723.99
  Q 553.59 697.39 572.74 676.59
  A 0.29 0.29 0.0 0 1 573.21 676.66
  C 583.12 698.10 602.43 713.47 623.47 723.27
  Q 624.10 723.57 624.01 724.01
  Z"
/>
<path fill="#594f4a" d="
  M 896.86 723.46
  Q 896.79 723.58 896.74 723.71
  Q 896.66 723.94 896.42 723.94
  L 873.84 723.85
  Q 872.05 708.56 866.87 694.46
  C 865.92 691.86 863.34 691.61 861.95 694.27
  Q 852.78 711.82 836.27 723.68
  L 835.48 724.24
  Q 826.98 723.83 819.00 724.00
  Q 818.24 724.02 817.74 723.31
  C 838.83 713.38 857.75 698.24 867.93 676.92
  Q 868.17 676.41 868.55 676.82
  Q 887.50 697.30 896.86 723.46
  Z"
/>
<path fill="#1a1a1a" d="
  M 873.84 723.85
  L 836.27 723.68
  Q 852.78 711.82 861.95 694.27
  C 863.34 691.61 865.92 691.86 866.87 694.46
  Q 872.05 708.56 873.84 723.85
  Z"
/>
<path fill="#808080" d="
  M 603.75 724.00
  L 571.14 724.00
  Q 572.59 710.72 576.71 698.12
  A 1.32 1.29 82.5 0 1 577.22 697.44
  Q 579.73 695.74 581.08 697.92
  Q 590.40 712.96 603.35 722.57
  Q 603.77 722.87 603.76 723.39
  L 603.75 724.00
  Z"
/>
<path fill="#463b36" d="
  M 817.74 723.31
  Q 818.24 724.02 819.00 724.00
  Q 826.98 723.83 835.48 724.24
  Q 827.86 729.96 819.81 734.07
  C 817.55 735.23 817.34 737.94 819.66 739.11
  C 839.27 749.00 856.12 764.70 869.21 782.17
  C 871.45 785.16 873.95 783.94 874.29 780.48
  Q 877.03 752.00 873.84 723.85
  L 896.42 723.94
  Q 896.66 723.94 896.74 723.71
  Q 896.79 723.58 896.86 723.46
  L 897.10 724.02
  C 917.50 787.31 884.59 845.27 830.84 877.61
  C 827.62 879.55 829.80 883.61 832.76 882.29
  C 895.66 854.14 945.09 796.65 942.79 724.71
  Q 942.79 724.51 942.68 724.34
  Q 942.56 724.16 942.46 724.01
  Q 942.54 723.78 942.70 723.68
  L 943.29 723.87
  Q 943.70 724.00 944.13 724.00
  L 1263.07 724.00
  A 0.74 0.72 -72.3 0 0 1263.67 723.68
  Q 1263.74 723.57 1263.81 723.46
  Q 1264.38 723.43 1264.49 723.56
  Q 1264.88 724.04 1264.31 724.30
  L 724.29 969.80
  L 723.75 834.36
  Q 723.75 833.99 723.41 833.82
  Q 723.22 833.72 723.08 833.77
  L 723.87 832.07
  L 757.69 768.00
  A 0.61 0.61 0.0 0 1 758.58 767.80
  Q 787.27 788.86 813.94 812.55
  C 816.43 814.76 818.35 812.90 818.52 810.18
  Q 820.60 775.78 816.96 741.52
  C 816.68 738.95 815.79 736.54 812.68 737.91
  C 783.87 750.58 755.00 755.88 723.82 756.75
  Q 723.24 756.82 723.30 756.55
  Q 723.27 756.31 723.48 756.11
  Q 723.75 755.86 723.75 755.49
  L 723.75 744.75
  Q 723.75 744.35 723.36 744.28
  Q 723.08 744.23 722.99 744.08
  Q 723.27 743.96 723.70 744.00
  C 755.24 743.78 788.07 737.57 816.38 723.98
  L 817.74 723.31
  Z"
/>
<path fill="#000000" d="
  M 816.38 723.98
  C 788.07 737.57 755.24 743.78 723.70 744.00
  L 723.77 724.00
  L 816.38 723.98
  Z"
/>
<path fill="#000000" d="
  M 836.27 723.68
  L 873.84 723.85
  Q 877.03 752.00 874.29 780.48
  C 873.95 783.94 871.45 785.16 869.21 782.17
  C 856.12 764.70 839.27 749.00 819.66 739.11
  C 817.34 737.94 817.55 735.23 819.81 734.07
  Q 827.86 729.96 835.48 724.24
  L 836.27 723.68
  Z"
/>
<path fill="#594f4a" d="
  M 498.37 724.00
  C 495.63 796.53 545.40 853.83 608.51 882.32
  A 2.29 2.29 0.0 0 0 611.42 881.41
  C 612.58 879.50 611.37 878.16 609.67 877.14
  C 556.21 845.09 523.75 786.53 544.05 723.99
  L 570.89 724.01
  Q 568.20 752.15 570.28 780.26
  C 570.57 784.14 573.73 784.85 575.98 781.82
  Q 594.58 756.76 623.80 739.56
  C 625.71 738.43 624.79 735.98 622.93 735.03
  Q 613.68 730.32 605.07 724.07
  L 624.01 724.01
  Q 624.66 723.96 624.77 724.11
  C 655.97 738.27 688.94 744.24 722.99 744.08
  Q 723.08 744.23 723.36 744.28
  Q 723.75 744.35 723.75 744.75
  L 723.75 755.49
  Q 723.75 755.86 723.48 756.11
  Q 723.27 756.31 723.30 756.55
  Q 673.74 757.61 628.85 738.14
  C 626.26 737.02 624.59 737.70 624.28 740.58
  Q 620.54 775.74 622.78 811.06
  Q 622.95 813.81 625.83 813.23
  A 2.68 2.62 -70.9 0 0 627.07 812.61
  Q 653.79 788.93 682.57 767.82
  A 0.56 0.56 0.0 0 1 683.39 768.01
  Q 700.58 800.63 717.83 833.33
  C 719.16 835.84 721.46 836.67 723.08 833.77
  Q 723.22 833.72 723.41 833.82
  Q 723.75 833.99 723.75 834.36
  L 724.29 969.80
  L 723.91 969.88
  Q 723.66 969.93 723.41 969.82
  Q 456.72 848.63 190.04 727.38
  C 187.45 726.20 185.83 725.83 183.58 723.56
  Q 184.00 724.55 184.65 724.19
  Q 185.00 724.00 185.40 724.00
  L 498.37 724.00
  Z"
/>
<path fill="#1a1a1a" d="
  M 498.37 724.00
  Q 498.43 723.99 498.49 723.98
  L 544.05 723.99
  C 523.75 786.53 556.21 845.09 609.67 877.14
  C 611.37 878.16 612.58 879.50 611.42 881.41
  A 2.29 2.29 0.0 0 1 608.51 882.32
  C 545.40 853.83 495.63 796.53 498.37 724.00
  Z"
/>
<path fill="#1a1a1a" d="
  M 570.89 724.01
  Q 571.01 724.01 571.14 724.00
  L 603.75 724.00
  L 605.07 724.07
  Q 613.68 730.32 622.93 735.03
  C 624.79 735.98 625.71 738.43 623.80 739.56
  Q 594.58 756.76 575.98 781.82
  C 573.73 784.85 570.57 784.14 570.28 780.26
  Q 568.20 752.15 570.89 724.01
  Z"
/>
<path fill="#1a1a1a" d="
  M 723.77 724.00
  L 723.70 744.00
  Q 723.27 743.96 722.99 744.08
  C 688.94 744.24 655.97 738.27 624.77 724.11
  L 723.77 724.00
  Z"
/>
<path fill="#000000" d="
  M 897.10 724.02
  L 942.46 724.01
  Q 942.56 724.16 942.68 724.34
  Q 942.79 724.51 942.79 724.71
  C 945.09 796.65 895.66 854.14 832.76 882.29
  C 829.80 883.61 827.62 879.55 830.84 877.61
  C 884.59 845.27 917.50 787.31 897.10 724.02
  Z"
/>
<path fill="#1a1a1a" d="
  M 723.30 756.55
  Q 723.24 756.82 723.82 756.75
  L 723.87 832.07
  L 723.08 833.77
  C 721.46 836.67 719.16 835.84 717.83 833.33
  Q 700.58 800.63 683.39 768.01
  A 0.56 0.56 0.0 0 0 682.57 767.82
  Q 653.79 788.93 627.07 812.61
  A 2.68 2.62 -70.9 0 1 625.83 813.23
  Q 622.95 813.81 622.78 811.06
  Q 620.54 775.74 624.28 740.58
  C 624.59 737.70 626.26 737.02 628.85 738.14
  Q 673.74 757.61 723.30 756.55
  Z"
/>
<path fill="#000000" d="
  M 723.87 832.07
  L 723.82 756.75
  C 755.00 755.88 783.87 750.58 812.68 737.91
  C 815.79 736.54 816.68 738.95 816.96 741.52
  Q 820.60 775.78 818.52 810.18
  C 818.35 812.90 816.43 814.76 813.94 812.55
  Q 787.27 788.86 758.58 767.80
  A 0.61 0.61 0.0 0 0 757.69 768.00
  L 723.87 832.07
  Z"
/>
</svg>
