<?xml version="1.0" encoding="UTF-8" standalone="no"?>
<!DOCTYPE svg PUBLIC "-//W3C//DTD SVG 1.1//EN" "http://www.w3.org/Graphics/SVG/1.1/DTD/svg11.dtd">
<svg xmlns="http://www.w3.org/2000/svg" version="1.1" viewBox="0.00 0.00 1448.00 1448.00">
<g stroke-width="2.00" fill="none" stroke-linecap="butt">
<path stroke="#808080" vector-effect="non-scaling-stroke" d="
  M 175.52 726.31
  L 722.70 975.04
  A 3.09 3.07 44.7 0 0 725.23 975.04
  Q 998.46 850.84 1272.16 726.38
  C 1274.36 725.39 1274.36 722.54 1272.19 721.55
  Q 1000.10 597.89 728.01 474.22
  C 725.53 473.10 724.48 472.16 721.72 473.41
  Q 448.49 597.60 175.52 721.68
  A 2.54 2.54 0.0 0 0 175.52 726.31"
/>
<path stroke="#215253" vector-effect="non-scaling-stroke" d="
  M 183.71 724.27
  L 723.98 970.00"
/>
<path stroke="#174d4e" vector-effect="non-scaling-stroke" d="
  M 723.98 970.00
  L 1263.28 724.87"
/>
<path stroke="#215253" vector-effect="non-scaling-stroke" d="
  M 1263.28 724.87
  Q 1264.07 724.70 1264.62 724.27
  A 0.34 0.33 37.7 0 0 1264.54 723.70
  L 724.26 478.29"
/>
<path stroke="#4b6767" vector-effect="non-scaling-stroke" d="
  M 724.26 478.29
  Q 724.11 478.27 723.98 478.10
  Q 723.89 477.99 723.76 478.05
  L 183.24 723.75
  A 0.27 0.27 0.0 0 0 183.24 724.24
  Q 183.42 724.32 183.71 724.27"
/>
<path stroke="#6cb9ba" vector-effect="non-scaling-stroke" d="
  M 724.26 478.29
  L 724.00 595.81"
/>
<path stroke="#8ba7a7" vector-effect="non-scaling-stroke" d="
  M 724.00 595.81
  Q 690.09 595.30 659.75 601.96
  Q 652.01 603.66 642.48 607.97
  C 640.53 608.85 639.37 610.23 640.53 612.31
  A 1.68 1.65 -1.6 0 0 641.28 613.01
  L 668.32 625.89
  Q 668.80 626.12 668.59 626.61
  Q 653.32 662.84 634.62 697.43
  C 629.80 706.34 624.25 717.41 617.52 722.80
  Q 617.42 722.89 617.49 723.00
  L 617.68 723.33
  Q 617.89 723.69 617.47 723.69
  Q 616.88 723.70 616.74 724.01"
/>
<path stroke="#587474" vector-effect="non-scaling-stroke" d="
  M 616.74 724.01
  L 616.30 724.03"
/>
<path stroke="#6cb9ba" vector-effect="non-scaling-stroke" d="
  M 616.30 724.03
  L 183.71 724.27"
/>
<path stroke="#4d4d4d" vector-effect="non-scaling-stroke" d="
  M 724.00 595.81
  L 724.01 626.31"
/>
<path stroke="#8ba7a7" vector-effect="non-scaling-stroke" d="
  M 724.01 626.31
  C 713.51 625.89 707.48 634.63 701.96 642.97
  C 684.64 669.11 671.85 697.93 654.52 723.98"
/>
<path stroke="#619293" vector-effect="non-scaling-stroke" d="
  M 654.52 723.98
  L 654.01 724.46"
/>
<path stroke="#4d4d4d" vector-effect="non-scaling-stroke" d="
  M 654.01 724.46
  Q 654.03 724.34 653.98 724.19
  Q 653.95 724.06 653.81 724.06
  L 616.74 724.01"
/>
<path stroke="#389fa1" vector-effect="non-scaling-stroke" d="
  M 1263.28 724.87
  L 1262.30 724.26
  Q 1261.89 724.00 1261.40 724.00
  Q 1062.25 724.00 863.10 724.00
  Q 863.06 724.00 863.05 723.97
  Q 862.99 723.85 862.94 723.74"
/>
<path stroke="#2e5f60" vector-effect="non-scaling-stroke" d="
  M 862.94 723.74
  C 874.17 702.43 889.82 676.16 908.30 661.05
  C 922.73 649.25 945.56 649.35 962.93 651.07
  Q 979.97 652.76 997.02 654.29
  C 1010.28 655.48 1016.70 647.83 1001.14 641.65
  Q 983.60 634.69 965.29 630.08
  C 900.62 613.80 833.58 603.43 767.19 597.55
  Q 749.53 595.99 724.00 595.81"
/>
<path stroke="#2e5f60" vector-effect="non-scaling-stroke" d="
  M 677.61 724.06
  C 652.45 748.39 623.38 765.02 591.71 778.98
  Q 560.60 792.70 529.62 806.69
  Q 521.05 810.56 515.54 814.27
  C 512.84 816.10 511.83 820.26 515.65 821.74
  C 517.07 822.29 520.33 822.08 521.82 821.75
  Q 532.32 819.44 542.85 817.25
  Q 577.00 810.13 611.73 813.68
  C 632.34 815.79 650.23 823.53 662.76 840.20
  C 664.95 843.12 669.45 842.12 670.55 838.73
  Q 674.39 826.96 678.56 815.32
  C 680.70 809.37 683.84 804.83 689.75 801.89
  Q 705.98 793.79 723.99 790.47"
/>
<path stroke="#389fa1" vector-effect="non-scaling-stroke" d="
  M 723.99 790.47
  L 723.98 970.00"
/>
<path stroke="#2e5f60" vector-effect="non-scaling-stroke" d="
  M 616.30 724.03
  Q 608.08 730.71 600.97 734.75
  C 564.19 755.68 522.99 771.62 484.18 790.15
  Q 475.46 794.32 468.27 800.59
  C 465.39 803.10 464.05 807.87 468.50 809.79
  C 480.22 814.83 545.46 781.64 558.70 775.21
  Q 582.86 763.49 648.72 729.94
  Q 651.02 728.77 654.01 724.46"
/>
<path stroke="#245a5b" vector-effect="non-scaling-stroke" d="
  M 862.94 723.74
  Q 862.68 724.00 862.65 724.26"
/>
<path stroke="#0d0d0d" vector-effect="non-scaling-stroke" d="
  M 862.65 724.26
  Q 860.12 723.79 859.44 723.81
  Q 843.34 724.32 826.83 723.73"
/>
<path stroke="#2e5f60" vector-effect="non-scaling-stroke" d="
  M 826.83 723.73
  Q 843.18 699.91 857.48 673.46
  Q 862.42 664.32 865.80 655.35
  C 866.99 652.19 868.34 649.11 864.30 647.87
  Q 848.65 643.05 831.84 639.78
  C 804.25 634.40 776.41 630.13 748.43 627.35
  Q 736.23 626.14 724.01 626.31"
/>
<path stroke="#6cb9ba" vector-effect="non-scaling-stroke" d="
  M 724.01 626.31
  L 724.13 660.42"
/>
<path stroke="#587474" vector-effect="non-scaling-stroke" d="
  M 724.13 660.42
  Q 724.25 660.69 723.99 661.73"
/>
<path stroke="#8ba7a7" vector-effect="non-scaling-stroke" d="
  M 723.99 661.73
  C 723.54 662.07 723.24 662.15 722.97 662.67
  Q 705.41 695.95 678.98 722.72
  Q 678.71 722.99 678.46 723.98"
/>
<path stroke="#587474" vector-effect="non-scaling-stroke" d="
  M 678.46 723.98
  Q 678.62 723.47 677.61 724.06"
/>
<path stroke="#6cb9ba" vector-effect="non-scaling-stroke" d="
  M 677.61 724.06
  L 654.52 723.98"
/>
<path stroke="#215253" vector-effect="non-scaling-stroke" d="
  M 826.83 723.73
  L 826.52 724.14"
/>
<path stroke="#389fa1" vector-effect="non-scaling-stroke" d="
  M 826.52 724.14
  L 801.06 723.94"
/>
<path stroke="#2e5f60" vector-effect="non-scaling-stroke" d="
  M 801.06 723.94
  L 835.68 664.80
  A 2.51 2.50 -72.1 0 0 833.76 661.03
  L 731.12 651.21
  A 3.02 3.01 16.6 0 0 728.17 652.80
  L 724.13 660.42"
/>
<path stroke="#245a5b" vector-effect="non-scaling-stroke" d="
  M 723.52 756.91
  Q 723.79 757.04 723.87 757.00"
/>
<path stroke="#0d0d0d" vector-effect="non-scaling-stroke" d="
  M 723.87 757.00
  L 723.89 790.27"
/>
<path stroke="#245a5b" vector-effect="non-scaling-stroke" d="
  M 723.89 790.27
  Q 723.94 790.37 723.99 790.47"
/>
<path stroke="#174d4e" vector-effect="non-scaling-stroke" d="
  M 862.65 724.26
  Q 853.62 740.51 846.78 757.69
  C 845.00 762.17 844.59 767.49 844.48 771.75
  Q 844.01 790.42 842.94 809.07
  C 842.57 815.58 841.16 831.00 831.21 819.29
  C 821.61 807.99 809.09 791.08 794.79 785.87
  Q 791.01 784.50 785.42 784.49
  Q 754.54 784.45 723.89 790.27"
/>
<path stroke="#619293" vector-effect="non-scaling-stroke" d="
  M 724.15 709.32
  Q 724.14 709.66 723.58 710.45"
/>
<path stroke="#8ba7a7" vector-effect="non-scaling-stroke" d="
  M 723.58 710.45
  L 715.07 723.99"
/>
<path stroke="#619293" vector-effect="non-scaling-stroke" d="
  M 715.07 723.99
  Q 714.99 723.99 714.92 723.99"
/>
<path stroke="#4d4d4d" vector-effect="non-scaling-stroke" d="
  M 714.92 723.99
  L 678.46 723.98"
/>
<path stroke="#245a5b" vector-effect="non-scaling-stroke" d="
  M 801.06 723.94
  L 800.55 724.76"
/>
<path stroke="#0d0d0d" vector-effect="non-scaling-stroke" d="
  M 800.55 724.76
  Q 800.57 724.56 800.53 724.40
  Q 800.43 723.95 799.97 723.94
  L 743.17 723.73"
/>
<path stroke="#2e5f60" vector-effect="non-scaling-stroke" d="
  M 743.17 723.73
  L 763.56 683.74
  A 2.40 2.40 0.0 0 1 766.89 682.75
  C 777.93 689.01 757.58 710.65 763.62 719.84
  C 768.29 726.95 777.73 720.83 781.84 716.58
  C 789.24 708.94 800.65 693.21 802.13 682.19
  A 2.28 2.28 0.0 0 0 800.86 679.83
  C 787.90 673.52 767.68 666.65 753.28 668.89
  A 1.44 1.39 15.2 0 0 752.41 669.37
  C 742.30 681.05 733.52 694.86 724.15 709.32"
/>
<path stroke="#4d4d4d" vector-effect="non-scaling-stroke" d="
  M 724.15 709.32
  L 723.99 661.73"
/>
<path stroke="#174d4e" vector-effect="non-scaling-stroke" d="
  M 826.52 724.14
  Q 817.70 736.91 811.52 743.77
  C 805.64 750.28 802.03 753.36 794.73 754.92
  Q 783.86 757.24 772.75 757.80
  Q 748.46 759.04 723.87 757.00"
/>
<path stroke="#215253" vector-effect="non-scaling-stroke" d="
  M 743.17 723.73
  Q 743.01 723.77 743.00 724.02"
/>
<path stroke="#389fa1" vector-effect="non-scaling-stroke" d="
  M 743.00 724.02
  L 724.74 724.01
  A 0.74 0.74 0.0 0 0 724.00 724.75
  L 724.00 756.00
  Q 724.00 756.38 723.72 756.64
  Q 723.57 756.78 723.52 756.91"
/>
<path stroke="#2e5f60" vector-effect="non-scaling-stroke" d="
  M 723.52 756.91
  Q 711.99 756.40 701.36 753.54
  A 1.30 1.29 -72.9 0 1 700.48 751.87
  C 703.81 742.17 709.71 732.91 714.92 723.99"
/>
<path stroke="#6cb9ba" vector-effect="non-scaling-stroke" d="
  M 715.07 723.99
  L 723.23 723.98
  Q 723.78 723.98 723.83 723.43
  Q 724.49 717.19 723.58 710.45"
/>
<path stroke="#174d4e" vector-effect="non-scaling-stroke" d="
  M 800.55 724.76
  L 792.33 738.72
  Q 791.86 739.53 790.91 739.60
  Q 765.75 741.41 742.34 742.97
  C 739.73 743.14 736.41 744.46 734.84 741.29
  Q 734.60 740.81 734.84 740.33
  L 743.00 724.02"
/>
</g>
<path fill="#ffffff" d="
  M 719.55 979.20
  C 537.03 896.27 354.38 813.58 172.02 730.28
  Q 170.61 729.64 169.63 727.28
  C 167.63 722.50 169.92 718.62 174.52 716.53
  Q 448.15 592.15 721.80 467.78
  C 723.43 467.04 726.29 467.84 728.19 468.70
  Q 1000.82 592.62 1273.44 716.54
  C 1281.03 719.99 1280.86 728.08 1273.30 731.52
  Q 1001.21 855.22 729.10 978.89
  C 725.30 980.61 723.60 981.04 719.55 979.20
  Z
  M 175.52 726.31
  L 722.70 975.04
  A 3.09 3.07 44.7 0 0 725.23 975.04
  Q 998.46 850.84 1272.16 726.38
  C 1274.36 725.39 1274.36 722.54 1272.19 721.55
  Q 1000.10 597.89 728.01 474.22
  C 725.53 473.10 724.48 472.16 721.72 473.41
  Q 448.49 597.60 175.52 721.68
  A 2.54 2.54 0.0 0 0 175.52 726.31
  Z"
/>
<path fill="#000000" d="
  M 722.70 975.04
  L 175.52 726.31
  A 2.54 2.54 0.0 0 1 175.52 721.68
  Q 448.49 597.60 721.72 473.41
  C 724.48 472.16 725.53 473.10 728.01 474.22
  Q 1000.10 597.89 1272.19 721.55
  C 1274.36 722.54 1274.36 725.39 1272.16 726.38
  Q 998.46 850.84 725.23 975.04
  A 3.09 3.07 44.7 0 1 722.70 975.04
  Z
  M 183.71 724.27
  L 723.98 970.00
  L 1263.28 724.87
  Q 1264.07 724.70 1264.62 724.27
  A 0.34 0.33 37.7 0 0 1264.54 723.70
  L 724.26 478.29
  Q 724.11 478.27 723.98 478.10
  Q 723.89 477.99 723.76 478.05
  L 183.24 723.75
  A 0.27 0.27 0.0 0 0 183.24 724.24
  Q 183.42 724.32 183.71 724.27
  Z"
/>
<path fill="#96cdce" d="
  M 724.26 478.29
  L 724.00 595.81
  Q 690.09 595.30 659.75 601.96
  Q 652.01 603.66 642.48 607.97
  C 640.53 608.85 639.37 610.23 640.53 612.31
  A 1.68 1.65 -1.6 0 0 641.28 613.01
  L 668.32 625.89
  Q 668.80 626.12 668.59 626.61
  Q 653.32 662.84 634.62 697.43
  C 629.80 706.34 624.25 717.41 617.52 722.80
  Q 617.42 722.89 617.49 723.00
  L 617.68 723.33
  Q 617.89 723.69 617.47 723.69
  Q 616.88 723.70 616.74 724.01
  L 616.30 724.03
  L 183.71 724.27
  Q 183.42 724.32 183.24 724.24
  A 0.27 0.27 0.0 0 1 183.24 723.75
  L 723.76 478.05
  Q 723.89 477.99 723.98 478.10
  Q 724.11 478.27 724.26 478.29
  Z"
/>
<path fill="#42a4a6" d="
  M 724.26 478.29
  L 1264.54 723.70
  A 0.34 0.33 37.7 0 1 1264.62 724.27
  Q 1264.07 724.70 1263.28 724.87
  L 1262.30 724.26
  Q 1261.89 724.00 1261.40 724.00
  Q 1062.25 724.00 863.10 724.00
  Q 863.06 724.00 863.05 723.97
  Q 862.99 723.85 862.94 723.74
  C 874.17 702.43 889.82 676.16 908.30 661.05
  C 922.73 649.25 945.56 649.35 962.93 651.07
  Q 979.97 652.76 997.02 654.29
  C 1010.28 655.48 1016.70 647.83 1001.14 641.65
  Q 983.60 634.69 965.29 630.08
  C 900.62 613.80 833.58 603.43 767.19 597.55
  Q 749.53 595.99 724.00 595.81
  L 724.26 478.29
  Z"
/>
<path fill="#808080" d="
  M 724.00 595.81
  L 724.01 626.31
  C 713.51 625.89 707.48 634.63 701.96 642.97
  C 684.64 669.11 671.85 697.93 654.52 723.98
  L 654.01 724.46
  Q 654.03 724.34 653.98 724.19
  Q 653.95 724.06 653.81 724.06
  L 616.74 724.01
  Q 616.88 723.70 617.47 723.69
  Q 617.89 723.69 617.68 723.33
  L 617.49 723.00
  Q 617.42 722.89 617.52 722.80
  C 624.25 717.41 629.80 706.34 634.62 697.43
  Q 653.32 662.84 668.59 626.61
  Q 668.80 626.12 668.32 625.89
  L 641.28 613.01
  A 1.68 1.65 -1.6 0 1 640.53 612.31
  C 639.37 610.23 640.53 608.85 642.48 607.97
  Q 652.01 603.66 659.75 601.96
  Q 690.09 595.30 724.00 595.81
  Z"
/>
<path fill="#1a1a1a" d="
  M 724.00 595.81
  Q 749.53 595.99 767.19 597.55
  C 833.58 603.43 900.62 613.80 965.29 630.08
  Q 983.60 634.69 1001.14 641.65
  C 1016.70 647.83 1010.28 655.48 997.02 654.29
  Q 979.97 652.76 962.93 651.07
  C 945.56 649.35 922.73 649.25 908.30 661.05
  C 889.82 676.16 874.17 702.43 862.94 723.74
  Q 862.68 724.00 862.65 724.26
  Q 860.12 723.79 859.44 723.81
  Q 843.34 724.32 826.83 723.73
  Q 843.18 699.91 857.48 673.46
  Q 862.42 664.32 865.80 655.35
  C 866.99 652.19 868.34 649.11 864.30 647.87
  Q 848.65 643.05 831.84 639.78
  C 804.25 634.40 776.41 630.13 748.43 627.35
  Q 736.23 626.14 724.01 626.31
  L 724.00 595.81
  Z"
/>
<path fill="#96cdce" d="
  M 724.01 626.31
  L 724.13 660.42
  Q 724.25 660.69 723.99 661.73
  C 723.54 662.07 723.24 662.15 722.97 662.67
  Q 705.41 695.95 678.98 722.72
  Q 678.71 722.99 678.46 723.98
  Q 678.62 723.47 677.61 724.06
  L 654.52 723.98
  C 671.85 697.93 684.64 669.11 701.96 642.97
  C 707.48 634.63 713.51 625.89 724.01 626.31
  Z"
/>
<path fill="#42a4a6" d="
  M 724.01 626.31
  Q 736.23 626.14 748.43 627.35
  C 776.41 630.13 804.25 634.40 831.84 639.78
  Q 848.65 643.05 864.30 647.87
  C 868.34 649.11 866.99 652.19 865.80 655.35
  Q 862.42 664.32 857.48 673.46
  Q 843.18 699.91 826.83 723.73
  L 826.52 724.14
  L 801.06 723.94
  L 835.68 664.80
  A 2.51 2.50 -72.1 0 0 833.76 661.03
  L 731.12 651.21
  A 3.02 3.01 16.6 0 0 728.17 652.80
  L 724.13 660.42
  L 724.01 626.31
  Z"
/>
<path fill="#1a1a1a" d="
  M 801.06 723.94
  L 800.55 724.76
  Q 800.57 724.56 800.53 724.40
  Q 800.43 723.95 799.97 723.94
  L 743.17 723.73
  L 763.56 683.74
  A 2.40 2.40 0.0 0 1 766.89 682.75
  C 777.93 689.01 757.58 710.65 763.62 719.84
  C 768.29 726.95 777.73 720.83 781.84 716.58
  C 789.24 708.94 800.65 693.21 802.13 682.19
  A 2.28 2.28 0.0 0 0 800.86 679.83
  C 787.90 673.52 767.68 666.65 753.28 668.89
  A 1.44 1.39 15.2 0 0 752.41 669.37
  C 742.30 681.05 733.52 694.86 724.15 709.32
  L 723.99 661.73
  Q 724.25 660.69 724.13 660.42
  L 728.17 652.80
  A 3.02 3.01 16.6 0 1 731.12 651.21
  L 833.76 661.03
  A 2.51 2.50 -72.1 0 1 835.68 664.80
  L 801.06 723.94
  Z"
/>
<path fill="#808080" d="
  M 723.99 661.73
  L 724.15 709.32
  Q 724.14 709.66 723.58 710.45
  L 715.07 723.99
  Q 714.99 723.99 714.92 723.99
  L 678.46 723.98
  Q 678.71 722.99 678.98 722.72
  Q 705.41 695.95 722.97 662.67
  C 723.24 662.15 723.54 662.07 723.99 661.73
  Z"
/>
<path fill="#42a4a6" d="
  M 743.17 723.73
  Q 743.01 723.77 743.00 724.02
  L 724.74 724.01
  A 0.74 0.74 0.0 0 0 724.00 724.75
  L 724.00 756.00
  Q 724.00 756.38 723.72 756.64
  Q 723.57 756.78 723.52 756.91
  Q 711.99 756.40 701.36 753.54
  A 1.30 1.29 -72.9 0 1 700.48 751.87
  C 703.81 742.17 709.71 732.91 714.92 723.99
  Q 714.99 723.99 715.07 723.99
  L 723.23 723.98
  Q 723.78 723.98 723.83 723.43
  Q 724.49 717.19 723.58 710.45
  Q 724.14 709.66 724.15 709.32
  C 733.52 694.86 742.30 681.05 752.41 669.37
  A 1.44 1.39 15.2 0 1 753.28 668.89
  C 767.68 666.65 787.90 673.52 800.86 679.83
  A 2.28 2.28 0.0 0 1 802.13 682.19
  C 800.65 693.21 789.24 708.94 781.84 716.58
  C 777.73 720.83 768.29 726.95 763.62 719.84
  C 757.58 710.65 777.93 689.01 766.89 682.75
  A 2.40 2.40 0.0 0 0 763.56 683.74
  L 743.17 723.73
  Z"
/>
<path fill="#96cdce" d="
  M 723.58 710.45
  Q 724.49 717.19 723.83 723.43
  Q 723.78 723.98 723.23 723.98
  L 715.07 723.99
  L 723.58 710.45
  Z"
/>
<path fill="#000000" d="
  M 800.55 724.76
  L 792.33 738.72
  Q 791.86 739.53 790.91 739.60
  Q 765.75 741.41 742.34 742.97
  C 739.73 743.14 736.41 744.46 734.84 741.29
  Q 734.60 740.81 734.84 740.33
  L 743.00 724.02
  Q 743.01 723.77 743.17 723.73
  L 799.97 723.94
  Q 800.43 723.95 800.53 724.40
  Q 800.57 724.56 800.55 724.76
  Z"
/>
<path fill="#42a4a6" d="
  M 677.61 724.06
  C 652.45 748.39 623.38 765.02 591.71 778.98
  Q 560.60 792.70 529.62 806.69
  Q 521.05 810.56 515.54 814.27
  C 512.84 816.10 511.83 820.26 515.65 821.74
  C 517.07 822.29 520.33 822.08 521.82 821.75
  Q 532.32 819.44 542.85 817.25
  Q 577.00 810.13 611.73 813.68
  C 632.34 815.79 650.23 823.53 662.76 840.20
  C 664.95 843.12 669.45 842.12 670.55 838.73
  Q 674.39 826.96 678.56 815.32
  C 680.70 809.37 683.84 804.83 689.75 801.89
  Q 705.98 793.79 723.99 790.47
  L 723.98 970.00
  L 183.71 724.27
  L 616.30 724.03
  Q 608.08 730.71 600.97 734.75
  C 564.19 755.68 522.99 771.62 484.18 790.15
  Q 475.46 794.32 468.27 800.59
  C 465.39 803.10 464.05 807.87 468.50 809.79
  C 480.22 814.83 545.46 781.64 558.70 775.21
  Q 582.86 763.49 648.72 729.94
  Q 651.02 728.77 654.01 724.46
  L 654.52 723.98
  L 677.61 724.06
  Z"
/>
<path fill="#1a1a1a" d="
  M 678.46 723.98
  L 714.92 723.99
  C 709.71 732.91 703.81 742.17 700.48 751.87
  A 1.30 1.29 -72.9 0 0 701.36 753.54
  Q 711.99 756.40 723.52 756.91
  Q 723.79 757.04 723.87 757.00
  L 723.89 790.27
  Q 723.94 790.37 723.99 790.47
  Q 705.98 793.79 689.75 801.89
  C 683.84 804.83 680.70 809.37 678.56 815.32
  Q 674.39 826.96 670.55 838.73
  C 669.45 842.12 664.95 843.12 662.76 840.20
  C 650.23 823.53 632.34 815.79 611.73 813.68
  Q 577.00 810.13 542.85 817.25
  Q 532.32 819.44 521.82 821.75
  C 520.33 822.08 517.07 822.29 515.65 821.74
  C 511.83 820.26 512.84 816.10 515.54 814.27
  Q 521.05 810.56 529.62 806.69
  Q 560.60 792.70 591.71 778.98
  C 623.38 765.02 652.45 748.39 677.61 724.06
  Q 678.62 723.47 678.46 723.98
  Z"
/>
<path fill="#2d9a9c" d="
  M 801.06 723.94
  L 826.52 724.14
  Q 817.70 736.91 811.52 743.77
  C 805.64 750.28 802.03 753.36 794.73 754.92
  Q 783.86 757.24 772.75 757.80
  Q 748.46 759.04 723.87 757.00
  Q 723.79 757.04 723.52 756.91
  Q 723.57 756.78 723.72 756.64
  Q 724.00 756.38 724.00 756.00
  L 724.00 724.75
  A 0.74 0.74 0.0 0 1 724.74 724.01
  L 743.00 724.02
  L 734.84 740.33
  Q 734.60 740.81 734.84 741.29
  C 736.41 744.46 739.73 743.14 742.34 742.97
  Q 765.75 741.41 790.91 739.60
  Q 791.86 739.53 792.33 738.72
  L 800.55 724.76
  L 801.06 723.94
  Z"
/>
<path fill="#000000" d="
  M 826.83 723.73
  Q 843.34 724.32 859.44 723.81
  Q 860.12 723.79 862.65 724.26
  Q 853.62 740.51 846.78 757.69
  C 845.00 762.17 844.59 767.49 844.48 771.75
  Q 844.01 790.42 842.94 809.07
  C 842.57 815.58 841.16 831.00 831.21 819.29
  C 821.61 807.99 809.09 791.08 794.79 785.87
  Q 791.01 784.50 785.42 784.49
  Q 754.54 784.45 723.89 790.27
  L 723.87 757.00
  Q 748.46 759.04 772.75 757.80
  Q 783.86 757.24 794.73 754.92
  C 802.03 753.36 805.64 750.28 811.52 743.77
  Q 817.70 736.91 826.52 724.14
  L 826.83 723.73
  Z"
/>
<path fill="#2d9a9c" d="
  M 862.94 723.74
  Q 862.99 723.85 863.05 723.97
  Q 863.06 724.00 863.10 724.00
  Q 1062.25 724.00 1261.40 724.00
  Q 1261.89 724.00 1262.30 724.26
  L 1263.28 724.87
  L 723.98 970.00
  L 723.99 790.47
  Q 723.94 790.37 723.89 790.27
  Q 754.54 784.45 785.42 784.49
  Q 791.01 784.50 794.79 785.87
  C 809.09 791.08 821.61 807.99 831.21 819.29
  C 841.16 831.00 842.57 815.58 842.94 809.07
  Q 844.01 790.42 844.48 771.75
  C 844.59 767.49 845.00 762.17 846.78 757.69
  Q 853.62 740.51 862.65 724.26
  Q 862.68 724.00 862.94 723.74
  Z"
/>
<path fill="#1a1a1a" d="
  M 616.30 724.03
  L 616.74 724.01
  L 653.81 724.06
  Q 653.95 724.06 653.98 724.19
  Q 654.03 724.34 654.01 724.46
  Q 651.02 728.77 648.72 729.94
  Q 582.86 763.49 558.70 775.21
  C 545.46 781.64 480.22 814.83 468.50 809.79
  C 464.05 807.87 465.39 803.10 468.27 800.59
  Q 475.46 794.32 484.18 790.15
  C 522.99 771.62 564.19 755.68 600.97 734.75
  Q 608.08 730.71 616.30 724.03
  Z"
/>
</svg>
