<svg xmlns="http://www.w3.org/2000/svg" viewBox="0 0 1448 1448">
  <g fill="none" stroke-width="2">
    <path stroke="gray" d="m176 726 547 249a3 3 45 0 0 2 0l547-249c2-1 2-3 0-4L728 474c-2-1-4-2-6-1L176 722a3 3 0 0 0 0 4" vector-effect="non-scaling-stroke"/>
    <path stroke="#215253" d="m1263 725 2-1-541-246" vector-effect="non-scaling-stroke"/>
    <path stroke="#4b6767" d="M724 478 183 724h1" vector-effect="non-scaling-stroke"/>
    <path stroke="#6cb9ba" d="M724 478v118" vector-effect="non-scaling-stroke"/>
    <path stroke="#8ba7a7" d="M724 596q-34-1-64 6l-18 6c-1 1-3 2-1 4a2 2-2 0 0 0 1l27 13 1 1q-16 36-34 70c-5 9-11 20-17 26h-1 1l-1 1" vector-effect="non-scaling-stroke"/>
    <path stroke="#587474" d="M617 724h-1" vector-effect="non-scaling-stroke"/>
    <path stroke="#6cb9ba" d="M616 724H184" vector-effect="non-scaling-stroke"/>
    <path stroke="#4d4d4d" d="M724 596v30" vector-effect="non-scaling-stroke"/>
    <path stroke="#8ba7a7" d="M724 626c-10 0-17 9-22 17-17 26-30 55-47 81" vector-effect="non-scaling-stroke"/>
    <path stroke="#619293" d="M655 724h-1" vector-effect="non-scaling-stroke"/>
    <path stroke="#4d4d4d" d="M654 724h-37" vector-effect="non-scaling-stroke"/>
    <path stroke="#389fa1" d="m1263 725-1-1H863" vector-effect="non-scaling-stroke"/>
    <path stroke="#2e5f60" d="M863 724c11-22 27-48 45-63 15-12 38-12 55-10l34 3c13 1 20-6 4-12q-17-7-36-12c-64-16-131-27-198-32q-17-2-43-2m-46 128c-26 24-55 41-86 55l-62 28-14 7c-3 2-4 6 0 8h6l21-5q34-7 69-3c20 2 38 10 51 26 2 3 6 2 8-1l8-24c2-6 5-10 11-13q16-8 34-12" vector-effect="non-scaling-stroke"/>
    <path stroke="#389fa1" d="M724 790v180" vector-effect="non-scaling-stroke"/>
    <path stroke="#2e5f60" d="m616 724-15 11c-37 21-78 37-117 55q-9 4-16 11c-3 2-4 7 1 9 11 5 76-28 90-35l90-45 5-6" vector-effect="non-scaling-stroke"/>
    <path stroke="#0d0d0d" d="M863 724h-36" vector-effect="non-scaling-stroke"/>
    <path stroke="#2e5f60" d="M827 724q16-24 30-51l9-18c1-3 2-6-2-7q-15-5-32-8c-28-6-56-10-84-13l-24-1" vector-effect="non-scaling-stroke"/>
    <path stroke="#6cb9ba" d="M724 626v34" vector-effect="non-scaling-stroke"/>
    <path stroke="#587474" d="M724 660v2" vector-effect="non-scaling-stroke"/>
    <path stroke="#8ba7a7" d="m724 662-1 1q-18 33-44 60l-1 1" vector-effect="non-scaling-stroke"/>
    <path stroke="#587474" d="M678 724q1-1 0 0" vector-effect="non-scaling-stroke"/>
    <path stroke="#6cb9ba" d="M678 724h-23" vector-effect="non-scaling-stroke"/>
    <path stroke="#389fa1" d="M827 724h-26" vector-effect="non-scaling-stroke"/>
    <path stroke="#2e5f60" d="m801 724 35-59a3 3-72 0 0-2-4l-103-10a3 3 17 0 0-3 2l-4 7" vector-effect="non-scaling-stroke"/>
    <path stroke="#0d0d0d" d="M724 757v33" vector-effect="non-scaling-stroke"/>
    <path stroke="#174d4e" d="m863 724-16 34c-2 4-2 9-3 14l-1 37c0 7-2 22-12 10-9-11-22-28-36-33l-10-2q-30 0-61 6" vector-effect="non-scaling-stroke"/>
    <path stroke="#619293" d="M724 709v1" vector-effect="non-scaling-stroke"/>
    <path stroke="#4d4d4d" d="M715 724h-37" vector-effect="non-scaling-stroke"/>
    <path stroke="#245a5b" d="M801 724v1" vector-effect="non-scaling-stroke"/>
    <path stroke="#0d0d0d" d="M801 725v-1h-58" vector-effect="non-scaling-stroke"/>
    <path stroke="#2e5f60" d="m743 724 21-40a2 2 0 0 1 3-1c11 6-9 28-3 37 4 7 14 1 18-3 7-8 19-24 20-35a2 2 0 0 0-1-2c-13-6-33-13-48-11a1 1 15 0 0-1 0c-10 12-18 26-28 40" vector-effect="non-scaling-stroke"/>
    <path stroke="#4d4d4d" d="M724 709v-47" vector-effect="non-scaling-stroke"/>
    <path stroke="#174d4e" d="m827 724-15 20c-6 6-10 9-17 11l-22 3q-25 1-49-1" vector-effect="non-scaling-stroke"/>
    <path stroke="#389fa1" d="M743 724h-18a1 1 0 0 0-1 1v32" vector-effect="non-scaling-stroke"/>
    <path stroke="#2e5f60" d="m724 757-23-3a1 1-73 0 1-1-2c4-10 10-19 15-28" vector-effect="non-scaling-stroke"/>
    <path stroke="#6cb9ba" d="M715 724h8l1-1v-13" vector-effect="non-scaling-stroke"/>
    <path stroke="#174d4e" d="m801 725-9 14-1 1-49 3c-2 0-6 1-7-2v-1l8-16" vector-effect="non-scaling-stroke"/>
  </g>
  <path fill="#fff" d="M720 979c-183-83-366-165-548-249l-2-3c-2-4 0-8 5-10l547-249c1-1 4 0 6 1l545 248c8 3 8 11 0 15L729 979c-4 2-5 2-9 0ZM176 726l547 249a3 3 45 0 0 2 0l547-249c2-1 2-3 0-4L728 474c-2-1-4-2-6-1L176 722a3 3 0 0 0 0 4Z"/>
  <path d="M723 975 176 726a3 3 0 0 1 0-4l546-249c2-1 4 0 6 1l544 248c2 1 2 3 0 4L725 975a3 3 45 0 1-2 0ZM184 724l540 246 539-245 2-1-541-246-541 246h1Z"/>
  <path fill="#96cdce" d="M724 478v118q-34-1-64 6l-18 6c-1 1-3 2-1 4a2 2-2 0 0 0 1l27 13 1 1q-16 36-34 70c-5 9-11 20-17 26h-1 1l-1 1H183l541-246Z"/>
  <path fill="#42a4a6" d="m724 478 541 246-2 1-1-1H863c11-22 27-48 45-63 15-12 38-12 55-10l34 3c13 1 20-6 4-12q-17-7-36-12c-64-16-131-27-198-32q-17-2-43-2V478Z"/>
  <path fill="gray" d="M724 596v30c-10 0-17 9-22 17-17 26-30 55-47 81h-38l1-1h-1 1c6-6 12-17 17-26q18-34 34-70l-1-1-27-13a2 2-2 0 1 0-1c-2-2 0-3 1-4l18-6q30-7 64-6Z"/>
  <path fill="#1a1a1a" d="M724 596q26 0 43 2c67 5 134 16 198 32q19 5 36 12c16 6 9 13-4 12l-34-3c-17-2-40-2-55 10-18 15-34 41-45 63h-36q16-24 30-51l9-18c1-3 2-6-2-7q-15-5-32-8c-28-6-56-10-84-13l-24-1v-30Z"/>
  <path fill="#96cdce" d="M724 626v36l-1 1q-18 33-44 60l-1 1q1-1 0 0h-23c17-26 30-55 47-81 5-8 12-17 22-17Z"/>
  <path fill="#42a4a6" d="m724 626 24 1c28 3 56 7 84 13q17 3 32 8c4 1 3 4 2 7l-9 18q-14 27-30 51h-26l35-59a3 3-72 0 0-2-4l-103-10a3 3 17 0 0-3 2l-4 7v-34Z"/>
  <path fill="#1a1a1a" d="M801 724v1-1h-58l21-40a2 2 0 0 1 3-1c11 6-9 28-3 37 4 7 14 1 18-3 7-8 19-24 20-35a2 2 0 0 0-1-2c-13-6-33-13-48-11a1 1 15 0 0-1 0c-10 12-18 26-28 40v-49l4-7a3 3 17 0 1 3-2l103 10a3 3-72 0 1 2 4l-35 59Z"/>
  <path fill="gray" d="M724 662v48l-9 14h-37l1-1q26-27 44-60l1-1Z"/>
  <path fill="#42a4a6" d="M743 724h-18a1 1 0 0 0-1 1v32l-23-3a1 1-73 0 1-1-2c4-10 10-19 15-28h8l1-1v-14c10-14 18-28 28-40a1 1 15 0 1 1 0c15-2 35 5 48 11a2 2 0 0 1 1 2c-1 11-13 27-20 35-4 4-14 10-18 3-6-9 14-31 3-37a2 2 0 0 0-3 1l-21 40Z"/>
  <path fill="#96cdce" d="M724 710v13l-1 1h-8l9-14Z"/>
  <path d="m801 725-9 14-1 1-49 3c-2 0-6 1-7-2v-1l8-16h58v1Z"/>
  <path fill="#42a4a6" d="M678 724c-26 24-55 41-86 55l-62 28-14 7c-3 2-4 6 0 8h6l21-5q34-7 69-3c20 2 38 10 51 26 2 3 6 2 8-1l8-24c2-6 5-10 11-13q16-8 34-12v180L184 724h432l-15 11c-37 21-78 37-117 55q-9 4-16 11c-3 2-4 7 1 9 11 5 76-28 90-35l90-45 5-6h24Z"/>
  <path fill="#1a1a1a" d="M678 724h37c-5 9-11 18-15 28a1 1-73 0 0 1 2l23 3v33q-18 4-34 12c-6 3-9 7-11 13l-8 24c-2 3-6 4-8 1a69 69 0 0 0-51-26q-35-4-69 3l-21 5h-6c-4-2-3-6 0-8l14-7 62-28c31-14 60-31 86-55q1-1 0 0Z"/>
  <path fill="#2d9a9c" d="M801 724h26l-15 20c-6 6-10 9-17 11l-22 3q-25 1-49-1v-32a1 1 0 0 1 1-1h18l-8 16v1c1 3 5 2 7 2l49-3 1-1 9-14v-1Z"/>
  <path d="M827 724h36l-16 34c-2 4-2 9-3 14l-1 37c0 7-2 22-12 10-9-11-22-28-36-33l-10-2q-30 0-61 6v-33q24 2 49 1l22-3c7-2 11-5 17-11l15-20Z"/>
  <path fill="#2d9a9c" d="M863 724h399l1 1-539 245V790q31-6 61-6l10 2c14 5 27 22 36 33 10 12 12-3 12-10l1-37c1-5 1-10 3-14l16-34Z"/>
  <path fill="#1a1a1a" d="M616 724h38l-5 6-90 45c-14 7-79 40-90 35-5-2-4-7-1-9q7-7 16-11c39-18 80-34 117-55l15-11Z"/>
</svg>
