<svg xmlns="http://www.w3.org/2000/svg" viewBox="0 0 1448 1448">
  <g fill="none" stroke-width="2">
    <path stroke="gray" d="m175 726 548 249a3 3 0 0 0 2 0l547-249q2-1 2-3a2 2-87 0 0-2-1L725 473a3 3 0 0 0-2 0L175 722a3 3 0 0 0 0 4" vector-effect="non-scaling-stroke"/>
    <path stroke="#6e4258" d="M723 970h1l538-245" vector-effect="non-scaling-stroke"/>
    <path stroke="#70495c" d="m1262 725 3-1-541-246" vector-effect="non-scaling-stroke"/>
    <path stroke="#77616c" d="M724 478 184 724h-1l2 1" vector-effect="non-scaling-stroke"/>
    <path stroke="#e7aac7" d="M724 478v164l-1 10" vector-effect="non-scaling-stroke"/>
    <path stroke="#b7a1ac" d="M723 652c-1 5-3 28 1 31" vector-effect="non-scaling-stroke"/>
    <path stroke="#846e79" d="M724 683v3" vector-effect="non-scaling-stroke"/>
    <path stroke="#e7aac7" d="M724 686v14l-1 1" vector-effect="non-scaling-stroke"/>
    <path stroke="#b7a1ac" d="M723 701q-10-15-23-30c9-34-2-68-26-92q-21-21-50-14c-21 4-29 22-32 42-4 29-2 60 23 81q15 13 36 17 20 5 34-8 5 13 8 27" vector-effect="non-scaling-stroke"/>
    <path stroke="#e7aac7" d="M693 724H186l-1 1" vector-effect="non-scaling-stroke"/>
    <path stroke="#4d4d4d" d="M724 683v-34m1 54h-1v21m0 0h-30" vector-effect="non-scaling-stroke"/>
    <path stroke="#b0899c" d="M694 724h-1" vector-effect="non-scaling-stroke"/>
    <path stroke="#de8bb3" d="m1262 725-2-1H852" vector-effect="non-scaling-stroke"/>
    <path stroke="#70495c" d="M852 724v-1" vector-effect="non-scaling-stroke"/>
    <path stroke="#7d5669" d="m852 723-2-6c-12-17-30-23-50-21-14 1-50 9-52 28" vector-effect="non-scaling-stroke"/>
    <path stroke="#de8bb3" d="M748 724h-11" vector-effect="non-scaling-stroke"/>
    <path stroke="#7d5669" d="M724 686c7 15 20 16 35 13 42-9 80-60 87-101 3-16-2-48-24-49-55-3-88 54-98 100m-30 75v1q5 22 7 45 0 8-5 17c-7 13-18 25-28 36l-34 36c-3 4-20 21-15 27 5 8 23-6 28-10 16-12 32-25 50-36l4-2a2 2 0 0 1 3 2c0 9-1 17-4 28l-7 36c-1 4-7 30 6 24 9-5 19-23 24-32" vector-effect="non-scaling-stroke"/>
    <path stroke="#de8bb3" d="m723 896 1 2v72h-1" vector-effect="non-scaling-stroke"/>
    <path stroke="#0d0d0d" d="M737 724h-13" vector-effect="non-scaling-stroke"/>
    <path stroke="#6e4258" d="M737 724c11 22 18 47 16 71-1 35-13 69-29 99" vector-effect="non-scaling-stroke"/>
    <path stroke="#0d0d0d" d="M724 894V724m128-1-5 1h-35" vector-effect="non-scaling-stroke"/>
    <path stroke="#7b4f65" d="M812 724v-1" vector-effect="non-scaling-stroke"/>
    <path stroke="#7d5669" d="M812 723c-11-12-31-7-43 0" vector-effect="non-scaling-stroke"/>
    <path stroke="#0d0d0d" d="M767 725v-1h-19" vector-effect="non-scaling-stroke"/>
    <path stroke="#6e4258" d="M852 724c-1 13-15 22-27 25-19 6-41 5-59-5-8-4-17-11-18-20" vector-effect="non-scaling-stroke"/>
    <path stroke="#de8bb3" d="m812 723-1 1h-38c-2 0-2 1-4-1" vector-effect="non-scaling-stroke"/>
    <path stroke="#6e4258" d="M812 724c0 5-6 9-10 10q-13 5-26 1c-3-1-13-6-9-10" vector-effect="non-scaling-stroke"/>
    <path stroke="#7d5669" d="M749 665c-1 11 4 18 16 13 18-7 31-26 36-44 2-7 3-29-9-28-28 2-41 36-43 59" vector-effect="non-scaling-stroke"/>
    <path stroke="#b7a1ac" d="M678 642a22 16 71 0 0 8-26 22 16 71 0 0-23-15 22 16 71 0 0-8 26 22 16 71 0 0 23 15m-40 26a22 16 60 0 0 3-27 22 16 60 0 0-25-11 22 16 60 0 0-3 27 22 16 60 0 0 25 11" vector-effect="non-scaling-stroke"/>
  </g>
  <path fill="#fff" d="M720 979 175 732c-8-4-9-12 0-15l547-249c1-1 4 0 6 1l545 248c7 3 8 11 1 14L732 977c-5 3-7 5-12 2ZM175 726l548 249a3 3 0 0 0 2 0l547-249q2-1 2-3a2 2-87 0 0-2-1L725 473a3 3 0 0 0-2 0L175 722a3 3 0 0 0 0 4Z"/>
  <path d="M723 975 175 726a3 3 0 0 1 0-4l548-249a3 3 0 0 1 2 0l547 249a2 2-87 0 1 2 1q0 2-2 3L725 975a3 3 0 0 1-2 0ZM185 725l538 245h1l538-245 3-1-541-246-540 246h-1l2 1Z"/>
  <path fill="#eec2d7" d="M724 478v164l-1 10c-1 5-3 28 1 31v17l-1 1q-10-15-23-30c9-34-2-68-26-92q-21-21-50-14c-21 4-29 22-32 42-4 29-2 60 23 81q15 13 36 17 20 5 34-8 5 13 8 27H186l-1 1-2-1h1l540-246Z"/>
  <path fill="#e091b7" d="m724 478 541 246-3 1-2-1H852v-1l-2-6c-12-17-30-23-50-21-14 1-50 9-52 28h-11l-12-21-2-2 1-1v-14c7 15 20 16 35 13 42-9 80-60 87-101 3-16-2-48-24-49-55-3-88 54-98 100l-1 3 1-10V478Z"/>
  <path fill="#1a1a1a" d="M724 686v-37c10-46 43-103 98-100 22 1 27 33 24 49-7 41-45 92-87 101-15 3-28 2-35-13Zm25-21c-1 11 4 18 16 13 18-7 31-26 36-44 2-7 3-29-9-28-28 2-41 36-43 59Z"/>
  <path fill="gray" d="m723 701 2 2h-1v21h-31q-3-14-8-27-14 13-34 8-21-4-36-17c-25-21-27-52-23-81 3-20 11-38 32-42q29-7 50 14c24 24 35 58 26 92q13 15 23 30Zm-45-59a22 16 71 0 0 8-26 22 16 71 0 0-23-15 22 16 71 0 0-8 26 22 16 71 0 0 23 15Zm-40 26a22 16 60 0 0 3-27 22 16 60 0 0-25-11 22 16 60 0 0-3 27 22 16 60 0 0 25 11Z"/>
  <ellipse fill="#eec2d7" rx="22" ry="16.5" transform="rotate(71 -104 784)"/>
  <path fill="#e091b7" d="M765 678c-12 5-17-2-16-13 2-23 15-57 43-59 12-1 11 21 9 28-5 18-18 37-36 44Z"/>
  <ellipse fill="#eec2d7" rx="22" ry="16.5" transform="rotate(60 -252 871)"/>
  <path fill="gray" d="M724 649v34c-4-3-2-26-1-31l1-3Z"/>
  <path fill="#1a1a1a" d="m852 723-5 1h-35v-1c-11-12-31-7-43 0l-2 2v-1h-19c2-19 38-27 52-28 20-2 38 4 50 21l2 6Zm-127-20 12 21h-13v-21h1Z"/>
  <path fill="#e091b7" d="m812 723-1 1h-38c-2 0-2 1-4-1 12-7 32-12 43 0Z"/>
  <path fill="#dc84af" d="M769 723c2 2 2 1 4 1h38l1-1v1c0 5-6 9-10 10q-13 5-26 1c-3-1-13-6-9-10l2-2Z"/>
  <path d="M852 723v1c-1 13-15 22-27 25-19 6-41 5-59-5-8-4-17-11-18-20h19v1c-4 4 6 9 9 10q13 4 26-1c4-1 10-5 10-10h35l5-1Z"/>
  <path fill="#e091b7" d="M693 724h1v1q5 22 7 45 0 8-5 17c-7 13-18 25-28 36l-34 36c-3 4-20 21-15 27 5 8 23-6 28-10 16-12 32-25 50-36l4-2a2 2 0 0 1 3 2c0 9-1 17-4 28l-7 36c-1 4-7 30 6 24 9-5 19-23 24-32l1 2v72h-1L185 725l1-1h507Z"/>
  <path d="M737 724c11 22 18 47 16 71-1 35-13 69-29 99V724h13Z"/>
  <path fill="#dc84af" d="M748 724c1 9 10 16 18 20 18 10 40 11 59 5 12-3 26-12 27-25h408l2 1-538 245h-1 1v-72l-1-2 1-2c16-30 28-64 29-99 2-24-5-49-16-71h11Z"/>
  <path fill="#1a1a1a" d="M694 724h30v170l-1 2c-5 9-15 27-24 32-13 6-7-20-6-24l7-36c3-11 4-19 4-28a2 2 0 0 0-3-2l-4 2c-18 11-34 24-50 36-5 4-23 18-28 10-5-6 12-23 15-27l34-36c10-11 21-23 28-36q5-9 5-17-2-23-7-45v-1Z"/>
</svg>
