<?xml version="1.0" encoding="UTF-8" standalone="no"?>
<!DOCTYPE svg PUBLIC "-//W3C//DTD SVG 1.1//EN" "http://www.w3.org/Graphics/SVG/1.1/DTD/svg11.dtd">
<svg xmlns="http://www.w3.org/2000/svg" version="1.1" viewBox="0.00 0.00 1448.00 1448.00">
<g stroke-width="2.00" fill="none" stroke-linecap="butt">
<path stroke="#808080" vector-effect="non-scaling-stroke" d="
  M 175.48 726.29
  L 722.67 975.03
  A 3.10 3.10 0.0 0 0 725.23 975.03
  Q 998.53 850.82 1272.19 726.44
  Q 1274.41 725.43 1273.60 723.04
  A 2.43 2.42 -87.4 0 0 1272.32 721.63
  L 725.24 472.96
  A 3.06 3.06 0.0 0 0 722.70 472.96
  L 175.48 721.69
  A 2.53 2.53 0.0 0 0 175.48 726.29"
/>
<path stroke="#70495c" vector-effect="non-scaling-stroke" d="
  M 184.93 724.89
  L 723.49 969.81"
/>
<path stroke="#6e4258" vector-effect="non-scaling-stroke" d="
  M 723.49 969.81
  Q 723.63 970.17 724.00 970.00
  Q 993.17 847.69 1262.32 725.31"
/>
<path stroke="#70495c" vector-effect="non-scaling-stroke" d="
  M 1262.32 725.31
  L 1264.53 724.32
  Q 1265.20 724.02 1264.53 723.71
  L 724.33 478.16"
/>
<path stroke="#77616c" vector-effect="non-scaling-stroke" d="
  M 724.33 478.16
  L 183.53 723.61
  Q 183.10 723.80 183.44 724.13
  Q 183.97 724.65 184.93 724.89"
/>
<path stroke="#e7aac7" vector-effect="non-scaling-stroke" d="
  M 724.33 478.16
  Q 724.35 479.10 724.15 479.70
  Q 723.99 480.16 723.99 480.65
  Q 724.02 561.23 723.98 641.81
  C 723.98 644.94 723.36 648.45 723.19 651.74"
/>
<path stroke="#b7a1ac" vector-effect="non-scaling-stroke" d="
  M 723.19 651.74
  C 722.15 656.81 719.57 680.37 723.95 683.09"
/>
<path stroke="#846e79" vector-effect="non-scaling-stroke" d="
  M 723.95 683.09
  Q 723.70 684.10 724.08 685.82"
/>
<path stroke="#e7aac7" vector-effect="non-scaling-stroke" d="
  M 724.08 685.82
  Q 723.99 692.88 723.94 700.10
  C 723.94 700.59 723.68 700.90 723.42 701.28"
/>
<path stroke="#b7a1ac" vector-effect="non-scaling-stroke" d="
  M 723.42 701.28
  Q 712.80 685.54 700.08 671.44
  Q 699.73 671.06 699.86 670.56
  C 708.86 636.94 698.23 602.79 673.91 578.86
  Q 652.96 558.26 624.13 564.58
  C 602.90 569.23 595.35 586.94 592.49 606.50
  C 588.14 636.25 590.19 666.70 614.71 687.67
  Q 629.78 700.56 651.02 705.49
  Q 670.87 710.10 684.58 697.33
  Q 684.99 696.94 685.19 697.47
  Q 690.11 710.44 693.22 723.78"
/>
<path stroke="#e7aac7" vector-effect="non-scaling-stroke" d="
  M 693.22 723.78
  Q 693.21 723.84 693.20 723.89
  Q 693.19 724.00 693.00 724.00
  L 185.99 724.00
  Q 185.70 724.00 185.55 724.26
  Q 185.33 724.63 184.93 724.89"
/>
<path stroke="#4d4d4d" vector-effect="non-scaling-stroke" d="
  M 723.95 683.09
  L 724.19 648.78"
/>
<path stroke="#4d4d4d" vector-effect="non-scaling-stroke" d="
  M 724.51 702.95
  Q 724.37 702.97 724.24 703.00
  Q 724.06 703.05 724.06 703.24
  L 724.02 723.83"
/>
<path stroke="#404040" vector-effect="non-scaling-stroke" d="
  M 724.02 723.83
  Q 724.00 723.92 723.99 724.01"
/>
<path stroke="#4d4d4d" vector-effect="non-scaling-stroke" d="
  M 723.99 724.01
  L 693.54 724.00"
/>
<path stroke="#b0899c" vector-effect="non-scaling-stroke" d="
  M 693.54 724.00
  Q 693.47 723.70 693.22 723.78"
/>
<path stroke="#de8bb3" vector-effect="non-scaling-stroke" d="
  M 1262.32 725.31
  Q 1261.41 724.01 1260.44 724.01
  Q 1055.99 723.99 851.54 724.01"
/>
<path stroke="#70495c" vector-effect="non-scaling-stroke" d="
  M 851.54 724.01
  Q 851.53 723.72 851.52 723.44"
/>
<path stroke="#7d5669" vector-effect="non-scaling-stroke" d="
  M 851.52 723.44
  Q 851.46 719.31 849.94 717.05
  C 838.47 699.98 820.12 694.34 800.32 695.91
  C 785.74 697.06 750.01 704.63 748.43 723.78"
/>
<path stroke="#de8bb3" vector-effect="non-scaling-stroke" d="
  M 748.43 723.78
  L 736.54 724.03"
/>
<path stroke="#70495c" vector-effect="non-scaling-stroke" d="
  M 736.54 724.03
  Q 736.93 724.33 736.53 723.77"
/>
<path stroke="#7d5669" vector-effect="non-scaling-stroke" d="
  M 736.53 723.77
  L 724.51 702.95"
/>
<path stroke="#b0899c" vector-effect="non-scaling-stroke" d="
  M 724.51 702.95
  Q 724.32 702.02 723.42 701.28"
/>
<path stroke="#7d5669" vector-effect="non-scaling-stroke" d="
  M 724.08 685.82
  C 730.82 701.42 744.10 702.20 758.96 699.12
  C 801.10 690.37 839.30 638.73 846.16 598.20
  C 848.92 581.93 844.08 549.93 822.24 548.76
  C 766.79 545.79 733.95 602.55 724.19 648.78"
/>
<path stroke="#b0899c" vector-effect="non-scaling-stroke" d="
  M 724.19 648.78
  Q 723.94 650.88 723.19 651.74"
/>
<path stroke="#7d5669" vector-effect="non-scaling-stroke" d="
  M 693.54 724.00
  Q 693.40 724.75 693.57 725.44
  Q 698.91 747.17 700.58 769.50
  Q 701.24 778.34 696.34 787.07
  C 688.94 800.25 678.43 812.16 668.14 823.14
  Q 651.21 841.21 634.23 859.22
  C 630.59 863.08 614.04 879.93 618.70 886.47
  C 624.12 894.07 642.00 880.02 646.75 876.48
  C 663.20 864.25 679.24 850.71 696.79 840.12
  C 698.06 839.36 699.70 838.86 701.06 838.38
  A 1.94 1.94 0.0 0 1 703.65 840.11
  C 704.12 848.97 702.70 856.66 700.12 868.42
  Q 696.28 885.95 692.54 903.51
  C 691.59 907.95 685.53 934.10 699.02 927.57
  C 707.65 923.39 718.42 904.92 722.89 896.35"
/>
<path stroke="#de8bb3" vector-effect="non-scaling-stroke" d="
  M 722.89 896.35
  Q 723.99 897.13 723.99 897.75
  Q 724.02 933.62 723.97 969.49
  Q 723.97 969.69 723.78 969.74
  Q 723.63 969.78 723.49 969.81"
/>
<path stroke="#0d0d0d" vector-effect="non-scaling-stroke" d="
  M 736.53 723.77
  L 724.02 723.83"
/>
<path stroke="#6e4258" vector-effect="non-scaling-stroke" d="
  M 736.54 724.03
  C 747.91 745.90 754.54 770.87 753.33 795.47
  C 751.64 829.63 740.48 863.65 724.26 893.91"
/>
<path stroke="#0d0d0d" vector-effect="non-scaling-stroke" d="
  M 724.26 893.91
  Q 723.55 889.54 723.72 885.28
  Q 724.00 878.79 724.00 878.70
  Q 724.01 801.39 723.99 724.01"
/>
<path stroke="#0d0d0d" vector-effect="non-scaling-stroke" d="
  M 851.52 723.44
  Q 849.69 723.95 847.00 723.97
  Q 829.90 724.12 812.81 723.85
  Q 812.25 723.84 811.97 724.24"
/>
<path stroke="#7b4f65" vector-effect="non-scaling-stroke" d="
  M 811.97 724.24
  Q 811.79 724.28 811.54 723.22"
/>
<path stroke="#7d5669" vector-effect="non-scaling-stroke" d="
  M 811.54 723.22
  C 801.05 710.88 781.34 715.76 769.46 722.98"
/>
<path stroke="#7b4f65" vector-effect="non-scaling-stroke" d="
  M 769.46 722.98
  L 767.33 725.04"
/>
<path stroke="#0d0d0d" vector-effect="non-scaling-stroke" d="
  M 767.33 725.04
  L 767.05 724.38
  Q 766.84 723.89 766.30 723.89
  L 748.45 723.88"
/>
<path stroke="#7b4f65" vector-effect="non-scaling-stroke" d="
  M 748.45 723.88
  Q 748.44 723.83 748.43 723.78"
/>
<path stroke="#6e4258" vector-effect="non-scaling-stroke" d="
  M 851.54 724.01
  C 850.85 737.15 836.82 745.93 825.42 749.12
  C 806.07 754.53 783.67 753.73 765.58 744.41
  C 757.98 740.49 749.04 733.12 748.45 723.88"
/>
<path stroke="#7b4f65" vector-effect="non-scaling-stroke" d="
  M 722.89 896.35
  L 724.26 893.91"
/>
<path stroke="#de8bb3" vector-effect="non-scaling-stroke" d="
  M 811.54 723.22
  Q 811.52 724.10 811.44 724.10
  Q 792.28 723.89 773.10 724.02
  C 771.46 724.03 770.71 724.63 769.46 722.98"
/>
<path stroke="#6e4258" vector-effect="non-scaling-stroke" d="
  M 811.97 724.24
  C 811.71 728.95 806.32 732.68 802.33 734.11
  Q 789.17 738.82 775.70 735.08
  C 772.66 734.24 763.03 729.49 767.33 725.04"
/>
<path stroke="#7d5669" vector-effect="non-scaling-stroke" d="
  M 749.19 664.52
  C 748.06 675.98 753.41 682.76 765.35 677.83
  C 783.09 670.50 795.78 651.78 801.17 633.80
  C 803.26 626.84 804.49 605.12 791.99 605.97
  C 764.32 607.85 751.44 641.58 749.19 664.52"
/>
<path stroke="#b7a1ac" vector-effect="non-scaling-stroke" d="
  M 677.6109 642.4820
  A 21.98 16.47 70.6 0 0 685.8449 616.2793
  A 21.98 16.47 70.6 0 0 663.0091 601.0180
  A 21.98 16.47 70.6 0 0 654.7751 627.2207
  A 21.98 16.47 70.6 0 0 677.6109 642.4820"
/>
<path stroke="#b7a1ac" vector-effect="non-scaling-stroke" d="
  M 638.2446 667.9661
  A 21.99 16.46 59.7 0 0 641.3615 640.6755
  A 21.99 16.46 59.7 0 0 616.0554 629.9939
  A 21.99 16.46 59.7 0 0 612.9385 657.2845
  A 21.99 16.46 59.7 0 0 638.2446 667.9661"
/>
</g>
<path fill="#ffffff" d="
  M 719.53 979.20
  C 538.03 896.72 356.46 814.38 175.07 731.68
  C 167.47 728.22 166.34 720.25 174.51 716.53
  Q 448.15 592.14 721.79 467.77
  C 723.40 467.04 726.31 467.84 728.19 468.70
  Q 1000.82 592.60 1273.45 716.54
  C 1280.46 719.73 1281.18 727.93 1273.88 731.25
  Q 1003.08 854.38 732.25 977.46
  C 726.64 980.00 724.69 981.54 719.53 979.20
  Z
  M 175.48 726.29
  L 722.67 975.03
  A 3.10 3.10 0.0 0 0 725.23 975.03
  Q 998.53 850.82 1272.19 726.44
  Q 1274.41 725.43 1273.60 723.04
  A 2.43 2.42 -87.4 0 0 1272.32 721.63
  L 725.24 472.96
  A 3.06 3.06 0.0 0 0 722.70 472.96
  L 175.48 721.69
  A 2.53 2.53 0.0 0 0 175.48 726.29
  Z"
/>
<path fill="#000000" d="
  M 722.67 975.03
  L 175.48 726.29
  A 2.53 2.53 0.0 0 1 175.48 721.69
  L 722.70 472.96
  A 3.06 3.06 0.0 0 1 725.24 472.96
  L 1272.32 721.63
  A 2.43 2.42 -87.4 0 1 1273.60 723.04
  Q 1274.41 725.43 1272.19 726.44
  Q 998.53 850.82 725.23 975.03
  A 3.10 3.10 0.0 0 1 722.67 975.03
  Z
  M 184.93 724.89
  L 723.49 969.81
  Q 723.63 970.17 724.00 970.00
  Q 993.17 847.69 1262.32 725.31
  L 1264.53 724.32
  Q 1265.20 724.02 1264.53 723.71
  L 724.33 478.16
  L 183.53 723.61
  Q 183.10 723.80 183.44 724.13
  Q 183.97 724.65 184.93 724.89
  Z"
/>
<path fill="#eec2d7" d="
  M 724.33 478.16
  Q 724.35 479.10 724.15 479.70
  Q 723.99 480.16 723.99 480.65
  Q 724.02 561.23 723.98 641.81
  C 723.98 644.94 723.36 648.45 723.19 651.74
  C 722.15 656.81 719.57 680.37 723.95 683.09
  Q 723.70 684.10 724.08 685.82
  Q 723.99 692.88 723.94 700.10
  C 723.94 700.59 723.68 700.90 723.42 701.28
  Q 712.80 685.54 700.08 671.44
  Q 699.73 671.06 699.86 670.56
  C 708.86 636.94 698.23 602.79 673.91 578.86
  Q 652.96 558.26 624.13 564.58
  C 602.90 569.23 595.35 586.94 592.49 606.50
  C 588.14 636.25 590.19 666.70 614.71 687.67
  Q 629.78 700.56 651.02 705.49
  Q 670.87 710.10 684.58 697.33
  Q 684.99 696.94 685.19 697.47
  Q 690.11 710.44 693.22 723.78
  Q 693.21 723.84 693.20 723.89
  Q 693.19 724.00 693.00 724.00
  L 185.99 724.00
  Q 185.70 724.00 185.55 724.26
  Q 185.33 724.63 184.93 724.89
  Q 183.97 724.65 183.44 724.13
  Q 183.10 723.80 183.53 723.61
  L 724.33 478.16
  Z"
/>
<path fill="#e091b7" d="
  M 724.33 478.16
  L 1264.53 723.71
  Q 1265.20 724.02 1264.53 724.32
  L 1262.32 725.31
  Q 1261.41 724.01 1260.44 724.01
  Q 1055.99 723.99 851.54 724.01
  Q 851.53 723.72 851.52 723.44
  Q 851.46 719.31 849.94 717.05
  C 838.47 699.98 820.12 694.34 800.32 695.91
  C 785.74 697.06 750.01 704.63 748.43 723.78
  L 736.54 724.03
  Q 736.93 724.33 736.53 723.77
  L 724.51 702.95
  Q 724.32 702.02 723.42 701.28
  C 723.68 700.90 723.94 700.59 723.94 700.10
  Q 723.99 692.88 724.08 685.82
  C 730.82 701.42 744.10 702.20 758.96 699.12
  C 801.10 690.37 839.30 638.73 846.16 598.20
  C 848.92 581.93 844.08 549.93 822.24 548.76
  C 766.79 545.79 733.95 602.55 724.19 648.78
  Q 723.94 650.88 723.19 651.74
  C 723.36 648.45 723.98 644.94 723.98 641.81
  Q 724.02 561.23 723.99 480.65
  Q 723.99 480.16 724.15 479.70
  Q 724.35 479.10 724.33 478.16
  Z"
/>
<path fill="#1a1a1a" d="
  M 724.08 685.82
  Q 723.70 684.10 723.95 683.09
  L 724.19 648.78
  C 733.95 602.55 766.79 545.79 822.24 548.76
  C 844.08 549.93 848.92 581.93 846.16 598.20
  C 839.30 638.73 801.10 690.37 758.96 699.12
  C 744.10 702.20 730.82 701.42 724.08 685.82
  Z
  M 749.19 664.52
  C 748.06 675.98 753.41 682.76 765.35 677.83
  C 783.09 670.50 795.78 651.78 801.17 633.80
  C 803.26 626.84 804.49 605.12 791.99 605.97
  C 764.32 607.85 751.44 641.58 749.19 664.52
  Z"
/>
<path fill="#808080" d="
  M 723.42 701.28
  Q 724.32 702.02 724.51 702.95
  Q 724.37 702.97 724.24 703.00
  Q 724.06 703.05 724.06 703.24
  L 724.02 723.83
  Q 724.00 723.92 723.99 724.01
  L 693.54 724.00
  Q 693.47 723.70 693.22 723.78
  Q 690.11 710.44 685.19 697.47
  Q 684.99 696.94 684.58 697.33
  Q 670.87 710.10 651.02 705.49
  Q 629.78 700.56 614.71 687.67
  C 590.19 666.70 588.14 636.25 592.49 606.50
  C 595.35 586.94 602.90 569.23 624.13 564.58
  Q 652.96 558.26 673.91 578.86
  C 698.23 602.79 708.86 636.94 699.86 670.56
  Q 699.73 671.06 700.08 671.44
  Q 712.80 685.54 723.42 701.28
  Z
  M 677.6109 642.4820
  A 21.98 16.47 70.6 0 0 685.8449 616.2793
  A 21.98 16.47 70.6 0 0 663.0091 601.0180
  A 21.98 16.47 70.6 0 0 654.7751 627.2207
  A 21.98 16.47 70.6 0 0 677.6109 642.4820
  Z
  M 638.2446 667.9661
  A 21.99 16.46 59.7 0 0 641.3615 640.6755
  A 21.99 16.46 59.7 0 0 616.0554 629.9939
  A 21.99 16.46 59.7 0 0 612.9385 657.2845
  A 21.99 16.46 59.7 0 0 638.2446 667.9661
  Z"
/>
<ellipse fill="#eec2d7" cx="0.00" cy="0.00" transform="translate(670.31,621.75) rotate(70.6)" rx="21.98" ry="16.47"/>
<path fill="#e091b7" d="
  M 765.35 677.83
  C 753.41 682.76 748.06 675.98 749.19 664.52
  C 751.44 641.58 764.32 607.85 791.99 605.97
  C 804.49 605.12 803.26 626.84 801.17 633.80
  C 795.78 651.78 783.09 670.50 765.35 677.83
  Z"
/>
<ellipse fill="#eec2d7" cx="0.00" cy="0.00" transform="translate(627.15,648.98) rotate(59.7)" rx="21.99" ry="16.46"/>
<path fill="#808080" d="
  M 724.19 648.78
  L 723.95 683.09
  C 719.57 680.37 722.15 656.81 723.19 651.74
  Q 723.94 650.88 724.19 648.78
  Z"
/>
<path fill="#1a1a1a" d="
  M 851.52 723.44
  Q 849.69 723.95 847.00 723.97
  Q 829.90 724.12 812.81 723.85
  Q 812.25 723.84 811.97 724.24
  Q 811.79 724.28 811.54 723.22
  C 801.05 710.88 781.34 715.76 769.46 722.98
  L 767.33 725.04
  L 767.05 724.38
  Q 766.84 723.89 766.30 723.89
  L 748.45 723.88
  Q 748.44 723.83 748.43 723.78
  C 750.01 704.63 785.74 697.06 800.32 695.91
  C 820.12 694.34 838.47 699.98 849.94 717.05
  Q 851.46 719.31 851.52 723.44
  Z"
/>
<path fill="#1a1a1a" d="
  M 724.51 702.95
  L 736.53 723.77
  L 724.02 723.83
  L 724.06 703.24
  Q 724.06 703.05 724.24 703.00
  Q 724.37 702.97 724.51 702.95
  Z"
/>
<path fill="#e091b7" d="
  M 811.54 723.22
  Q 811.52 724.10 811.44 724.10
  Q 792.28 723.89 773.10 724.02
  C 771.46 724.03 770.71 724.63 769.46 722.98
  C 781.34 715.76 801.05 710.88 811.54 723.22
  Z"
/>
<path fill="#dc84af" d="
  M 769.46 722.98
  C 770.71 724.63 771.46 724.03 773.10 724.02
  Q 792.28 723.89 811.44 724.10
  Q 811.52 724.10 811.54 723.22
  Q 811.79 724.28 811.97 724.24
  C 811.71 728.95 806.32 732.68 802.33 734.11
  Q 789.17 738.82 775.70 735.08
  C 772.66 734.24 763.03 729.49 767.33 725.04
  L 769.46 722.98
  Z"
/>
<path fill="#000000" d="
  M 851.52 723.44
  Q 851.53 723.72 851.54 724.01
  C 850.85 737.15 836.82 745.93 825.42 749.12
  C 806.07 754.53 783.67 753.73 765.58 744.41
  C 757.98 740.49 749.04 733.12 748.45 723.88
  L 766.30 723.89
  Q 766.84 723.89 767.05 724.38
  L 767.33 725.04
  C 763.03 729.49 772.66 734.24 775.70 735.08
  Q 789.17 738.82 802.33 734.11
  C 806.32 732.68 811.71 728.95 811.97 724.24
  Q 812.25 723.84 812.81 723.85
  Q 829.90 724.12 847.00 723.97
  Q 849.69 723.95 851.52 723.44
  Z"
/>
<path fill="#e091b7" d="
  M 693.22 723.78
  Q 693.47 723.70 693.54 724.00
  Q 693.40 724.75 693.57 725.44
  Q 698.91 747.17 700.58 769.50
  Q 701.24 778.34 696.34 787.07
  C 688.94 800.25 678.43 812.16 668.14 823.14
  Q 651.21 841.21 634.23 859.22
  C 630.59 863.08 614.04 879.93 618.70 886.47
  C 624.12 894.07 642.00 880.02 646.75 876.48
  C 663.20 864.25 679.24 850.71 696.79 840.12
  C 698.06 839.36 699.70 838.86 701.06 838.38
  A 1.94 1.94 0.0 0 1 703.65 840.11
  C 704.12 848.97 702.70 856.66 700.12 868.42
  Q 696.28 885.95 692.54 903.51
  C 691.59 907.95 685.53 934.10 699.02 927.57
  C 707.65 923.39 718.42 904.92 722.89 896.35
  Q 723.99 897.13 723.99 897.75
  Q 724.02 933.62 723.97 969.49
  Q 723.97 969.69 723.78 969.74
  Q 723.63 969.78 723.49 969.81
  L 184.93 724.89
  Q 185.33 724.63 185.55 724.26
  Q 185.70 724.00 185.99 724.00
  L 693.00 724.00
  Q 693.19 724.00 693.20 723.89
  Q 693.21 723.84 693.22 723.78
  Z"
/>
<path fill="#000000" d="
  M 736.53 723.77
  Q 736.93 724.33 736.54 724.03
  C 747.91 745.90 754.54 770.87 753.33 795.47
  C 751.64 829.63 740.48 863.65 724.26 893.91
  Q 723.55 889.54 723.72 885.28
  Q 724.00 878.79 724.00 878.70
  Q 724.01 801.39 723.99 724.01
  Q 724.00 723.92 724.02 723.83
  L 736.53 723.77
  Z"
/>
<path fill="#dc84af" d="
  M 748.43 723.78
  Q 748.44 723.83 748.45 723.88
  C 749.04 733.12 757.98 740.49 765.58 744.41
  C 783.67 753.73 806.07 754.53 825.42 749.12
  C 836.82 745.93 850.85 737.15 851.54 724.01
  Q 1055.99 723.99 1260.44 724.01
  Q 1261.41 724.01 1262.32 725.31
  Q 993.17 847.69 724.00 970.00
  Q 723.63 970.17 723.49 969.81
  Q 723.63 969.78 723.78 969.74
  Q 723.97 969.69 723.97 969.49
  Q 724.02 933.62 723.99 897.75
  Q 723.99 897.13 722.89 896.35
  L 724.26 893.91
  C 740.48 863.65 751.64 829.63 753.33 795.47
  C 754.54 770.87 747.91 745.90 736.54 724.03
  L 748.43 723.78
  Z"
/>
<path fill="#1a1a1a" d="
  M 693.54 724.00
  L 723.99 724.01
  Q 724.01 801.39 724.00 878.70
  Q 724.00 878.79 723.72 885.28
  Q 723.55 889.54 724.26 893.91
  L 722.89 896.35
  C 718.42 904.92 707.65 923.39 699.02 927.57
  C 685.53 934.10 691.59 907.95 692.54 903.51
  Q 696.28 885.95 700.12 868.42
  C 702.70 856.66 704.12 848.97 703.65 840.11
  A 1.94 1.94 0.0 0 0 701.06 838.38
  C 699.70 838.86 698.06 839.36 696.79 840.12
  C 679.24 850.71 663.20 864.25 646.75 876.48
  C 642.00 880.02 624.12 894.07 618.70 886.47
  C 614.04 879.93 630.59 863.08 634.23 859.22
  Q 651.21 841.21 668.14 823.14
  C 678.43 812.16 688.94 800.25 696.34 787.07
  Q 701.24 778.34 700.58 769.50
  Q 698.91 747.17 693.57 725.44
  Q 693.40 724.75 693.54 724.00
  Z"
/>
</svg>
