<?xml version="1.0" encoding="UTF-8" standalone="no"?>
<!DOCTYPE svg PUBLIC "-//W3C//DTD SVG 1.1//EN" "http://www.w3.org/Graphics/SVG/1.1/DTD/svg11.dtd">
<svg xmlns="http://www.w3.org/2000/svg" version="1.1" viewBox="0.00 0.00 1448.00 1448.00">
<g stroke-width="2.00" fill="none" stroke-linecap="butt">
<path stroke="#808080" vector-effect="non-scaling-stroke" d="
  M 175.58 721.64
  A 2.59 2.59 0.0 0 0 175.58 726.36
  L 722.86 975.12
  A 2.59 2.59 0.0 0 0 725.00 975.12
  L 1272.30 726.35
  A 2.59 2.59 0.0 0 0 1272.30 721.63
  L 725.02 472.87
  A 2.59 2.59 0.0 0 0 722.88 472.87
  L 175.58 721.64"
/>
<path stroke="#794f1e" vector-effect="non-scaling-stroke" d="
  M 184.25 724.54
  L 723.43 969.78
  Q 723.95 970.02 724.48 969.78
  L 1264.57 724.29
  Q 1265.18 724.01 1264.57 723.73
  L 724.25 478.29"
/>
<path stroke="#7c654a" vector-effect="non-scaling-stroke" d="
  M 724.25 478.29
  Q 724.13 478.19 724.02 478.13
  Q 723.81 478.02 723.60 478.12
  L 183.38 723.67
  Q 182.83 723.92 183.35 724.23
  Q 183.82 724.51 184.25 724.54"
/>
<path stroke="#f5b468" vector-effect="non-scaling-stroke" d="
  M 724.25 478.29
  Q 724.35 478.91 724.17 479.45
  Q 724.02 479.91 724.02 480.39
  L 723.65 672.79"
/>
<path stroke="#bca58a" vector-effect="non-scaling-stroke" d="
  M 723.65 672.79
  C 721.86 670.30 718.18 660.53 714.35 664.56
  Q 708.96 670.23 702.14 674.11
  C 699.09 675.85 699.72 678.44 702.88 679.50
  Q 713.50 683.04 723.03 688.94
  Q 723.29 689.10 723.71 688.95"
/>
<path stroke="#897257" vector-effect="non-scaling-stroke" d="
  M 723.71 688.95
  Q 724.17 689.11 723.96 689.51"
/>
<path stroke="#f5b468" vector-effect="non-scaling-stroke" d="
  M 723.96 689.51
  L 723.66 718.87"
/>
<path stroke="#bca58a" vector-effect="non-scaling-stroke" d="
  M 723.66 718.87
  C 688.32 684.35 642.32 697.29 607.75 723.96"
/>
<path stroke="#897257" vector-effect="non-scaling-stroke" d="
  M 607.75 723.96
  Q 607.07 723.99 606.55 724.36"
/>
<path stroke="#f5b468" vector-effect="non-scaling-stroke" d="
  M 606.55 724.36
  Q 605.33 724.19 604.25 724.19
  Q 395.59 724.00 186.94 724.00
  C 186.03 724.00 185.17 724.40 184.25 724.54"
/>
<path stroke="#794f1e" vector-effect="non-scaling-stroke" d="
  M 755.05 723.92
  C 769.70 757.34 755.52 793.54 723.70 810.24"
/>
<path stroke="#865c2b" vector-effect="non-scaling-stroke" d="
  M 723.70 810.24
  Q 701.30 821.39 676.48 816.33
  C 644.65 809.83 605.43 781.40 621.17 743.82
  C 628.31 726.77 650.19 736.42 643.13 751.46
  C 633.03 773.01 661.60 788.66 677.92 792.75
  C 694.88 797.00 711.19 793.75 724.05 781.68"
/>
<path stroke="#794f1e" vector-effect="non-scaling-stroke" d="
  M 724.05 781.68
  C 742.18 764.25 741.73 737.73 724.37 719.91"
/>
<path stroke="#b98f5e" vector-effect="non-scaling-stroke" d="
  M 724.37 719.91
  Q 724.17 719.34 723.66 718.87"
/>
<path stroke="#865c2b" vector-effect="non-scaling-stroke" d="
  M 606.55 724.36
  Q 584.73 740.61 565.66 760.05
  Q 565.33 760.39 565.30 760.87
  C 562.96 802.26 615.00 830.05 647.63 841.66
  Q 648.15 841.85 648.13 842.39
  C 647.61 860.42 633.86 880.06 622.90 893.62
  A 2.38 2.38 0.0 0 0 624.75 897.49
  L 723.75 897.46"
/>
<path stroke="#794f1e" vector-effect="non-scaling-stroke" d="
  M 723.75 897.46
  L 803.08 897.48
  A 1.37 1.34 24.1 0 0 803.97 897.15
  C 805.22 896.03 805.26 894.77 804.38 893.28
  C 794.72 877.08 788.66 859.77 789.54 840.69
  A 1.51 1.50 -10.8 0 1 790.44 839.38
  C 840.16 817.60 868.82 779.20 867.96 723.75"
/>
<path stroke="#865c2b" vector-effect="non-scaling-stroke" d="
  M 867.96 723.75
  Q 867.38 703.21 862.23 686.05
  Q 861.76 684.46 859.63 684.29
  Q 859.16 684.25 858.77 684.52
  C 846.38 693.22 825.89 708.24 809.79 702.82
  C 798.66 699.07 789.49 685.53 785.26 675.43
  A 2.53 2.52 59.9 0 0 781.39 674.40
  Q 779.72 675.69 777.50 677.49
  C 763.42 688.92 743.43 693.66 729.26 679.26
  Q 726.59 676.54 724.04 673.75"
/>
<path stroke="#b98f5e" vector-effect="non-scaling-stroke" d="
  M 724.04 673.75
  L 723.65 672.79"
/>
<path stroke="#404040" vector-effect="non-scaling-stroke" d="
  M 724.37 719.91
  L 723.71 724.00"
/>
<path stroke="#4d4d4d" vector-effect="non-scaling-stroke" d="
  M 723.71 724.00
  L 607.75 723.96"
/>
<path stroke="#4d4d4d" vector-effect="non-scaling-stroke" d="
  M 724.04 673.75
  L 723.71 688.95"
/>
<path stroke="#865c2b" vector-effect="non-scaling-stroke" d="
  M 723.79 861.69
  L 670.74 862.58
  Q 670.18 862.59 669.98 863.12
  L 666.74 871.74
  Q 666.55 872.26 667.10 872.26
  L 724.00 872.29"
/>
<path stroke="#0d0d0d" vector-effect="non-scaling-stroke" d="
  M 867.96 723.75
  L 755.05 723.92"
/>
<path stroke="#865c2b" vector-effect="non-scaling-stroke" d="
  M 755.05 723.92
  Q 744.72 702.71 723.96 689.51"
/>
<path stroke="#0d0d0d" vector-effect="non-scaling-stroke" d="
  M 723.75 897.46
  L 724.00 872.29"
/>
<path stroke="#794f1e" vector-effect="non-scaling-stroke" d="
  M 724.00 872.29
  L 767.04 872.25
  Q 767.55 872.25 767.44 871.76
  L 765.20 861.52
  Q 765.10 861.04 764.60 861.05
  L 723.79 861.69"
/>
<path stroke="#0d0d0d" vector-effect="non-scaling-stroke" d="
  M 723.79 861.69
  L 723.70 810.24"
/>
<path stroke="#0d0d0d" vector-effect="non-scaling-stroke" d="
  M 724.05 781.68
  L 723.71 724.00"
/>
<path stroke="#bca58a" vector-effect="non-scaling-stroke" d="
  M 646.06 643.02
  C 653.01 653.74 663.34 663.48 676.58 664.76
  C 694.27 666.46 711.79 651.76 711.77 633.34
  Q 711.73 593.67 711.76 554.00
  C 711.76 550.98 710.57 550.31 707.74 550.45
  Q 676.01 552.03 648.23 559.92
  C 646.13 560.52 645.78 561.78 645.78 563.75
  Q 645.67 602.92 645.79 642.10
  A 1.70 1.70 0.0 0 0 646.06 643.02"
/>
<path stroke="#bca58a" vector-effect="non-scaling-stroke" d="
  M 572.09 658.53
  C 581.85 669.58 599.48 681.12 613.71 671.76
  C 624.10 664.92 630.56 654.22 630.54 641.67
  Q 630.47 605.36 630.50 569.06
  C 630.51 566.97 629.14 565.63 627.07 566.31
  Q 597.27 576.22 567.17 591.65
  Q 566.29 592.10 565.58 592.80
  Q 565.21 593.15 565.21 593.67
  C 565.20 614.03 568.31 634.71 570.60 654.94
  Q 570.84 657.11 572.09 658.53"
/>
<path stroke="#bca58a" vector-effect="non-scaling-stroke" d="
  M 629.22 684.07
  A 1.36 1.36 0.0 0 0 630.40 684.16
  Q 641.04 679.84 652.69 677.00
  C 655.92 676.20 655.94 673.76 653.38 671.97
  Q 648.22 668.38 643.55 664.20
  A 2.23 2.23 0.0 0 0 640.10 664.79
  Q 635.71 672.86 628.65 679.51
  C 626.80 681.26 627.15 682.85 629.22 684.07"
/>
<path stroke="#bca58a" vector-effect="non-scaling-stroke" d="
  M 567.83 719.46
  C 567.36 722.37 570.00 724.12 572.35 722.10
  Q 590.48 706.54 610.69 694.35
  A 2.33 2.32 -25.8 0 0 611.67 691.55
  C 610.54 688.54 606.96 690.18 604.75 690.39
  C 595.61 691.28 584.72 687.37 577.08 682.52
  C 574.38 680.80 572.64 682.08 572.45 685.12
  C 571.71 696.60 569.66 708.10 567.83 719.46"
/>
<path stroke="#865c2b" vector-effect="non-scaling-stroke" d="
  M 737.39 665.87
  C 750.41 683.90 772.50 663.96 781.01 652.68
  Q 782.44 650.78 782.92 648.27
  Q 791.28 604.81 799.39 561.83
  A 2.69 2.69 0.0 0 0 797.30 558.71
  Q 763.78 551.74 729.56 550.80
  A 2.49 2.49 0.0 0 0 727.00 553.29
  Q 727.00 594.67 726.99 636.56
  C 726.99 638.08 726.20 640.78 726.49 641.99
  Q 729.57 655.05 737.39 665.87"
/>
<path stroke="#865c2b" vector-effect="non-scaling-stroke" d="
  M 795.28 659.85
  C 798.15 668.91 808.06 691.89 820.74 688.79
  Q 826.63 687.35 834.68 682.42
  Q 854.80 670.09 871.66 653.50
  Q 873.11 652.08 873.64 650.10
  Q 880.26 625.10 882.81 599.18
  A 1.07 1.06 25.1 0 0 882.49 598.31
  C 865.15 581.73 841.05 570.64 818.07 564.16
  C 815.18 563.34 814.48 564.36 813.97 567.00
  Q 805.50 610.95 797.16 654.93
  Q 796.83 656.63 795.40 658.92
  Q 795.13 659.36 795.28 659.85"
/>
</g>
<path fill="#ffffff" d="
  M 719.55 979.21
  C 537.84 896.65 356.05 814.25 174.46 731.42
  C 169.81 729.30 166.98 724.51 170.20 719.95
  Q 171.75 717.78 176.20 715.75
  Q 448.73 591.88 721.25 468.01
  Q 724.08 466.72 727.61 468.33
  Q 1000.67 592.56 1273.77 716.70
  C 1281.14 720.05 1280.52 728.23 1273.40 731.47
  Q 1001.26 855.20 729.09 978.88
  C 725.30 980.61 723.60 981.05 719.55 979.21
  Z
  M 175.58 721.64
  A 2.59 2.59 0.0 0 0 175.58 726.36
  L 722.86 975.12
  A 2.59 2.59 0.0 0 0 725.00 975.12
  L 1272.30 726.35
  A 2.59 2.59 0.0 0 0 1272.30 721.63
  L 725.02 472.87
  A 2.59 2.59 0.0 0 0 722.88 472.87
  L 175.58 721.64
  Z"
/>
<path fill="#000000" d="
  M 175.58 721.64
  L 722.88 472.87
  A 2.59 2.59 0.0 0 1 725.02 472.87
  L 1272.30 721.63
  A 2.59 2.59 0.0 0 1 1272.30 726.35
  L 725.00 975.12
  A 2.59 2.59 0.0 0 1 722.86 975.12
  L 175.58 726.36
  A 2.59 2.59 0.0 0 1 175.58 721.64
  Z
  M 184.25 724.54
  L 723.43 969.78
  Q 723.95 970.02 724.48 969.78
  L 1264.57 724.29
  Q 1265.18 724.01 1264.57 723.73
  L 724.25 478.29
  Q 724.13 478.19 724.02 478.13
  Q 723.81 478.02 723.60 478.12
  L 183.38 723.67
  Q 182.83 723.92 183.35 724.23
  Q 183.82 724.51 184.25 724.54
  Z"
/>
<path fill="#f8c993" d="
  M 724.25 478.29
  Q 724.35 478.91 724.17 479.45
  Q 724.02 479.91 724.02 480.39
  L 723.65 672.79
  C 721.86 670.30 718.18 660.53 714.35 664.56
  Q 708.96 670.23 702.14 674.11
  C 699.09 675.85 699.72 678.44 702.88 679.50
  Q 713.50 683.04 723.03 688.94
  Q 723.29 689.10 723.71 688.95
  Q 724.17 689.11 723.96 689.51
  L 723.66 718.87
  C 688.32 684.35 642.32 697.29 607.75 723.96
  Q 607.07 723.99 606.55 724.36
  Q 605.33 724.19 604.25 724.19
  Q 395.59 724.00 186.94 724.00
  C 186.03 724.00 185.17 724.40 184.25 724.54
  Q 183.82 724.51 183.35 724.23
  Q 182.83 723.92 183.38 723.67
  L 723.60 478.12
  Q 723.81 478.02 724.02 478.13
  Q 724.13 478.19 724.25 478.29
  Z
  M 646.06 643.02
  C 653.01 653.74 663.34 663.48 676.58 664.76
  C 694.27 666.46 711.79 651.76 711.77 633.34
  Q 711.73 593.67 711.76 554.00
  C 711.76 550.98 710.57 550.31 707.74 550.45
  Q 676.01 552.03 648.23 559.92
  C 646.13 560.52 645.78 561.78 645.78 563.75
  Q 645.67 602.92 645.79 642.10
  A 1.70 1.70 0.0 0 0 646.06 643.02
  Z
  M 572.09 658.53
  C 581.85 669.58 599.48 681.12 613.71 671.76
  C 624.10 664.92 630.56 654.22 630.54 641.67
  Q 630.47 605.36 630.50 569.06
  C 630.51 566.97 629.14 565.63 627.07 566.31
  Q 597.27 576.22 567.17 591.65
  Q 566.29 592.10 565.58 592.80
  Q 565.21 593.15 565.21 593.67
  C 565.20 614.03 568.31 634.71 570.60 654.94
  Q 570.84 657.11 572.09 658.53
  Z
  M 629.22 684.07
  A 1.36 1.36 0.0 0 0 630.40 684.16
  Q 641.04 679.84 652.69 677.00
  C 655.92 676.20 655.94 673.76 653.38 671.97
  Q 648.22 668.38 643.55 664.20
  A 2.23 2.23 0.0 0 0 640.10 664.79
  Q 635.71 672.86 628.65 679.51
  C 626.80 681.26 627.15 682.85 629.22 684.07
  Z
  M 567.83 719.46
  C 567.36 722.37 570.00 724.12 572.35 722.10
  Q 590.48 706.54 610.69 694.35
  A 2.33 2.32 -25.8 0 0 611.67 691.55
  C 610.54 688.54 606.96 690.18 604.75 690.39
  C 595.61 691.28 584.72 687.37 577.08 682.52
  C 574.38 680.80 572.64 682.08 572.45 685.12
  C 571.71 696.60 569.66 708.10 567.83 719.46
  Z"
/>
<path fill="#f29e3c" d="
  M 724.25 478.29
  L 1264.57 723.73
  Q 1265.18 724.01 1264.57 724.29
  L 724.48 969.78
  Q 723.95 970.02 723.43 969.78
  L 184.25 724.54
  C 185.17 724.40 186.03 724.00 186.94 724.00
  Q 395.59 724.00 604.25 724.19
  Q 605.33 724.19 606.55 724.36
  Q 584.73 740.61 565.66 760.05
  Q 565.33 760.39 565.30 760.87
  C 562.96 802.26 615.00 830.05 647.63 841.66
  Q 648.15 841.85 648.13 842.39
  C 647.61 860.42 633.86 880.06 622.90 893.62
  A 2.38 2.38 0.0 0 0 624.75 897.49
  L 723.75 897.46
  L 803.08 897.48
  A 1.37 1.34 24.1 0 0 803.97 897.15
  C 805.22 896.03 805.26 894.77 804.38 893.28
  C 794.72 877.08 788.66 859.77 789.54 840.69
  A 1.51 1.50 -10.8 0 1 790.44 839.38
  C 840.16 817.60 868.82 779.20 867.96 723.75
  Q 867.38 703.21 862.23 686.05
  Q 861.76 684.46 859.63 684.29
  Q 859.16 684.25 858.77 684.52
  C 846.38 693.22 825.89 708.24 809.79 702.82
  C 798.66 699.07 789.49 685.53 785.26 675.43
  A 2.53 2.52 59.9 0 0 781.39 674.40
  Q 779.72 675.69 777.50 677.49
  C 763.42 688.92 743.43 693.66 729.26 679.26
  Q 726.59 676.54 724.04 673.75
  L 723.65 672.79
  L 724.02 480.39
  Q 724.02 479.91 724.17 479.45
  Q 724.35 478.91 724.25 478.29
  Z
  M 737.39 665.87
  C 750.41 683.90 772.50 663.96 781.01 652.68
  Q 782.44 650.78 782.92 648.27
  Q 791.28 604.81 799.39 561.83
  A 2.69 2.69 0.0 0 0 797.30 558.71
  Q 763.78 551.74 729.56 550.80
  A 2.49 2.49 0.0 0 0 727.00 553.29
  Q 727.00 594.67 726.99 636.56
  C 726.99 638.08 726.20 640.78 726.49 641.99
  Q 729.57 655.05 737.39 665.87
  Z
  M 795.28 659.85
  C 798.15 668.91 808.06 691.89 820.74 688.79
  Q 826.63 687.35 834.68 682.42
  Q 854.80 670.09 871.66 653.50
  Q 873.11 652.08 873.64 650.10
  Q 880.26 625.10 882.81 599.18
  A 1.07 1.06 25.1 0 0 882.49 598.31
  C 865.15 581.73 841.05 570.64 818.07 564.16
  C 815.18 563.34 814.48 564.36 813.97 567.00
  Q 805.50 610.95 797.16 654.93
  Q 796.83 656.63 795.40 658.92
  Q 795.13 659.36 795.28 659.85
  Z"
/>
<path fill="#808080" d="
  M 676.58 664.76
  C 663.34 663.48 653.01 653.74 646.06 643.02
  A 1.70 1.70 0.0 0 1 645.79 642.10
  Q 645.67 602.92 645.78 563.75
  C 645.78 561.78 646.13 560.52 648.23 559.92
  Q 676.01 552.03 707.74 550.45
  C 710.57 550.31 711.76 550.98 711.76 554.00
  Q 711.73 593.67 711.77 633.34
  C 711.79 651.76 694.27 666.46 676.58 664.76
  Z"
/>
<path fill="#1a1a1a" d="
  M 781.01 652.68
  C 772.50 663.96 750.41 683.90 737.39 665.87
  Q 729.57 655.05 726.49 641.99
  C 726.20 640.78 726.99 638.08 726.99 636.56
  Q 727.00 594.67 727.00 553.29
  A 2.49 2.49 0.0 0 1 729.56 550.80
  Q 763.78 551.74 797.30 558.71
  A 2.69 2.69 0.0 0 1 799.39 561.83
  Q 791.28 604.81 782.92 648.27
  Q 782.44 650.78 781.01 652.68
  Z"
/>
<path fill="#1a1a1a" d="
  M 820.74 688.79
  C 808.06 691.89 798.15 668.91 795.28 659.85
  Q 795.13 659.36 795.40 658.92
  Q 796.83 656.63 797.16 654.93
  Q 805.50 610.95 813.97 567.00
  C 814.48 564.36 815.18 563.34 818.07 564.16
  C 841.05 570.64 865.15 581.73 882.49 598.31
  A 1.07 1.06 25.1 0 1 882.81 599.18
  Q 880.26 625.10 873.64 650.10
  Q 873.11 652.08 871.66 653.50
  Q 854.80 670.09 834.68 682.42
  Q 826.63 687.35 820.74 688.79
  Z"
/>
<path fill="#808080" d="
  M 613.71 671.76
  C 599.48 681.12 581.85 669.58 572.09 658.53
  Q 570.84 657.11 570.60 654.94
  C 568.31 634.71 565.20 614.03 565.21 593.67
  Q 565.21 593.15 565.58 592.80
  Q 566.29 592.10 567.17 591.65
  Q 597.27 576.22 627.07 566.31
  C 629.14 565.63 630.51 566.97 630.50 569.06
  Q 630.47 605.36 630.54 641.67
  C 630.56 654.22 624.10 664.92 613.71 671.76
  Z"
/>
<path fill="#808080" d="
  M 723.65 672.79
  L 724.04 673.75
  L 723.71 688.95
  Q 723.29 689.10 723.03 688.94
  Q 713.50 683.04 702.88 679.50
  C 699.72 678.44 699.09 675.85 702.14 674.11
  Q 708.96 670.23 714.35 664.56
  C 718.18 660.53 721.86 670.30 723.65 672.79
  Z"
/>
<path fill="#808080" d="
  M 629.22 684.07
  C 627.15 682.85 626.80 681.26 628.65 679.51
  Q 635.71 672.86 640.10 664.79
  A 2.23 2.23 0.0 0 1 643.55 664.20
  Q 648.22 668.38 653.38 671.97
  C 655.94 673.76 655.92 676.20 652.69 677.00
  Q 641.04 679.84 630.40 684.16
  A 1.36 1.36 0.0 0 1 629.22 684.07
  Z"
/>
<path fill="#1a1a1a" d="
  M 724.04 673.75
  Q 726.59 676.54 729.26 679.26
  C 743.43 693.66 763.42 688.92 777.50 677.49
  Q 779.72 675.69 781.39 674.40
  A 2.53 2.52 59.9 0 1 785.26 675.43
  C 789.49 685.53 798.66 699.07 809.79 702.82
  C 825.89 708.24 846.38 693.22 858.77 684.52
  Q 859.16 684.25 859.63 684.29
  Q 861.76 684.46 862.23 686.05
  Q 867.38 703.21 867.96 723.75
  L 755.05 723.92
  Q 744.72 702.71 723.96 689.51
  Q 724.17 689.11 723.71 688.95
  L 724.04 673.75
  Z"
/>
<path fill="#808080" d="
  M 572.35 722.10
  C 570.00 724.12 567.36 722.37 567.83 719.46
  C 569.66 708.10 571.71 696.60 572.45 685.12
  C 572.64 682.08 574.38 680.80 577.08 682.52
  C 584.72 687.37 595.61 691.28 604.75 690.39
  C 606.96 690.18 610.54 688.54 611.67 691.55
  A 2.33 2.32 -25.8 0 1 610.69 694.35
  Q 590.48 706.54 572.35 722.10
  Z"
/>
<path fill="#f29e3c" d="
  M 723.96 689.51
  Q 744.72 702.71 755.05 723.92
  C 769.70 757.34 755.52 793.54 723.70 810.24
  Q 701.30 821.39 676.48 816.33
  C 644.65 809.83 605.43 781.40 621.17 743.82
  C 628.31 726.77 650.19 736.42 643.13 751.46
  C 633.03 773.01 661.60 788.66 677.92 792.75
  C 694.88 797.00 711.19 793.75 724.05 781.68
  C 742.18 764.25 741.73 737.73 724.37 719.91
  Q 724.17 719.34 723.66 718.87
  L 723.96 689.51
  Z"
/>
<path fill="#808080" d="
  M 723.66 718.87
  Q 724.17 719.34 724.37 719.91
  L 723.71 724.00
  L 607.75 723.96
  C 642.32 697.29 688.32 684.35 723.66 718.87
  Z"
/>
<path fill="#000000" d="
  M 724.37 719.91
  C 741.73 737.73 742.18 764.25 724.05 781.68
  L 723.71 724.00
  L 724.37 719.91
  Z"
/>
<path fill="#000000" d="
  M 867.96 723.75
  C 868.82 779.20 840.16 817.60 790.44 839.38
  A 1.51 1.50 -10.8 0 0 789.54 840.69
  C 788.66 859.77 794.72 877.08 804.38 893.28
  C 805.26 894.77 805.22 896.03 803.97 897.15
  A 1.37 1.34 24.1 0 1 803.08 897.48
  L 723.75 897.46
  L 724.00 872.29
  L 767.04 872.25
  Q 767.55 872.25 767.44 871.76
  L 765.20 861.52
  Q 765.10 861.04 764.60 861.05
  L 723.79 861.69
  L 723.70 810.24
  C 755.52 793.54 769.70 757.34 755.05 723.92
  L 867.96 723.75
  Z"
/>
<path fill="#1a1a1a" d="
  M 607.75 723.96
  L 723.71 724.00
  L 724.05 781.68
  C 711.19 793.75 694.88 797.00 677.92 792.75
  C 661.60 788.66 633.03 773.01 643.13 751.46
  C 650.19 736.42 628.31 726.77 621.17 743.82
  C 605.43 781.40 644.65 809.83 676.48 816.33
  Q 701.30 821.39 723.70 810.24
  L 723.79 861.69
  L 670.74 862.58
  Q 670.18 862.59 669.98 863.12
  L 666.74 871.74
  Q 666.55 872.26 667.10 872.26
  L 724.00 872.29
  L 723.75 897.46
  L 624.75 897.49
  A 2.38 2.38 0.0 0 1 622.90 893.62
  C 633.86 880.06 647.61 860.42 648.13 842.39
  Q 648.15 841.85 647.63 841.66
  C 615.00 830.05 562.96 802.26 565.30 760.87
  Q 565.33 760.39 565.66 760.05
  Q 584.73 740.61 606.55 724.36
  Q 607.07 723.99 607.75 723.96
  Z"
/>
<path fill="#f29e3c" d="
  M 724.00 872.29
  L 667.10 872.26
  Q 666.55 872.26 666.74 871.74
  L 669.98 863.12
  Q 670.18 862.59 670.74 862.58
  L 723.79 861.69
  L 764.60 861.05
  Q 765.10 861.04 765.20 861.52
  L 767.44 871.76
  Q 767.55 872.25 767.04 872.25
  L 724.00 872.29
  Z"
/>
</svg>
