<?xml version="1.0" encoding="UTF-8" standalone="no"?>
<!DOCTYPE svg PUBLIC "-//W3C//DTD SVG 1.1//EN" "http://www.w3.org/Graphics/SVG/1.1/DTD/svg11.dtd">
<svg xmlns="http://www.w3.org/2000/svg" version="1.1" viewBox="0.00 0.00 1280.00 1280.00">
<g stroke-width="2.00" fill="none" stroke-linecap="butt">
<path stroke="#7f7f7f" vector-effect="non-scaling-stroke" d="
  M 155.03 642.00
  L 639.31 862.13
  Q 639.94 862.42 640.58 862.13
  Q 881.67 752.56 1122.89 642.90
  C 1124.21 642.30 1125.75 641.77 1126.08 640.33
  A 2.04 2.02 18.7 0 0 1124.93 638.03
  L 640.41 417.78
  A 1.11 1.11 0.0 0 0 639.49 417.78
  L 155.03 638.00
  A 2.20 2.20 0.0 0 0 155.03 642.00"
/>
<path stroke="#0d5371" vector-effect="non-scaling-stroke" d="
  M 162.96 640.62
  Q 399.81 748.31 636.68 855.97
  C 637.63 856.40 639.10 857.38 640.32 857.28"
/>
<path stroke="#004e6f" vector-effect="non-scaling-stroke" d="
  M 640.32 857.28
  L 1115.30 641.38"
/>
<path stroke="#0d5371" vector-effect="non-scaling-stroke" d="
  M 1115.30 641.38
  L 1117.78 640.30
  Q 1118.38 640.03 1117.78 639.76
  L 640.31 422.71"
/>
<path stroke="#406778" vector-effect="non-scaling-stroke" d="
  M 640.31 422.71
  L 162.11 639.75
  Q 161.45 640.05 162.13 640.31
  L 162.96 640.62"
/>
<path stroke="#4dbae8" vector-effect="non-scaling-stroke" d="
  M 640.31 422.71
  L 639.70 639.39
  Q 639.70 639.93 639.16 639.93
  L 610.91 639.91"
/>
<path stroke="#80a7b8" vector-effect="non-scaling-stroke" d="
  M 610.91 639.91
  C 602.38 622.93 593.28 607.37 579.73 593.79
  A 1.23 1.22 66.8 0 0 578.84 593.43
  Q 556.58 593.86 537.81 592.43
  Q 475.66 587.72 412.46 574.03
  C 410.43 573.59 408.44 574.82 409.47 577.03
  Q 428.90 618.34 470.01 639.67"
/>
<path stroke="#4dbae8" vector-effect="non-scaling-stroke" d="
  M 470.01 639.67
  Q 469.77 640.50 469.04 640.17
  Q 468.67 640.00 468.25 640.00
  L 164.24 640.00
  A 0.74 0.69 28.6 0 0 163.89 640.09
  L 162.96 640.62"
/>
<path stroke="#0da1e0" vector-effect="non-scaling-stroke" d="
  M 1115.30 641.38
  C 1112.14 638.70 1108.76 640.01 1105.50 640.01
  Q 958.62 640.00 811.75 640.00
  Q 810.49 640.00 810.43 639.24"
/>
<path stroke="#0d5371" vector-effect="non-scaling-stroke" d="
  M 810.43 639.24
  L 824.72 630.76"
/>
<path stroke="#1a607e" vector-effect="non-scaling-stroke" d="
  M 824.72 630.76
  Q 854.75 610.32 870.62 576.55
  Q 870.83 576.10 870.66 575.63
  Q 869.87 573.48 867.31 574.03
  C 813.27 585.73 756.65 594.12 701.26 593.51
  Q 700.77 593.50 700.41 593.83
  C 687.16 605.96 676.82 623.31 669.38 639.57"
/>
<path stroke="#0d5371" vector-effect="non-scaling-stroke" d="
  M 669.38 639.57
  Q 669.00 639.77 668.89 640.18"
/>
<path stroke="#0da1e0" vector-effect="non-scaling-stroke" d="
  M 668.89 640.18
  L 640.60 640.09
  A 0.86 0.86 0.0 0 0 639.73 640.96
  Q 640.07 669.99 639.88 699.44
  Q 639.87 700.89 640.94 702.00"
/>
<path stroke="#0d5371" vector-effect="non-scaling-stroke" d="
  M 640.94 702.00
  Q 640.65 703.22 639.82 704.20"
/>
<path stroke="#1a607e" vector-effect="non-scaling-stroke" d="
  M 639.82 704.20
  Q 626.28 671.82 611.07 640.45"
/>
<path stroke="#4d93b1" vector-effect="non-scaling-stroke" d="
  M 611.07 640.45
  Q 611.04 640.81 610.91 639.91"
/>
<path stroke="#1a607e" vector-effect="non-scaling-stroke" d="
  M 579.24 640.11
  L 591.74 663.90
  A 0.43 0.42 -13.6 0 1 591.36 664.52
  Q 548.63 664.32 505.82 662.36
  Q 494.64 661.85 483.49 660.76
  C 480.74 660.49 480.24 662.69 481.18 664.77
  C 495.70 696.98 521.77 708.82 555.74 707.71
  C 573.73 707.12 594.40 704.48 602.86 686.08
  Q 603.14 685.48 603.46 686.06
  L 616.89 710.79
  Q 617.14 711.25 616.62 711.30
  Q 570.84 715.48 529.75 717.75
  Q 517.71 718.41 503.22 718.26
  C 500.51 718.23 499.83 720.38 501.07 722.55
  Q 520.20 756.34 557.76 759.09
  C 572.34 760.16 589.93 757.41 603.75 752.54
  Q 621.17 746.41 625.54 727.80
  A 0.41 0.40 37.2 0 1 626.29 727.70
  L 628.55 731.75
  A 0.94 0.93 -48.8 0 1 628.60 732.58
  C 625.91 739.20 610.48 777.36 615.14 781.85
  C 618.24 784.84 623.08 778.14 624.63 775.88
  Q 632.64 764.15 639.84 751.83"
/>
<path stroke="#1a607e" vector-effect="non-scaling-stroke" d="
  M 471.16 640.05
  C 495.82 652.10 539.09 663.53 561.21 640.05"
/>
<path stroke="#4d4d4d" vector-effect="non-scaling-stroke" d="
  M 611.07 640.45
  Q 610.86 640.51 610.70 640.36
  Q 610.50 640.18 610.23 640.18
  L 579.24 640.11"
/>
<path stroke="#4d93b1" vector-effect="non-scaling-stroke" d="
  M 579.24 640.11
  Q 578.81 639.90 578.82 639.41"
/>
<path stroke="#80a7b8" vector-effect="non-scaling-stroke" d="
  M 578.82 639.41
  L 567.67 617.91
  A 0.87 0.85 -10.3 0 0 567.00 617.46
  L 538.44 614.85
  Q 537.99 614.81 538.04 615.26
  C 539.39 627.07 552.09 632.12 562.05 633.86
  A 2.18 2.17 22.4 0 1 563.46 637.25
  L 561.75 639.70"
/>
<path stroke="#4d93b1" vector-effect="non-scaling-stroke" d="
  M 561.75 639.70
  Q 560.74 640.52 561.21 640.05"
/>
<path stroke="#4d4d4d" vector-effect="non-scaling-stroke" d="
  M 561.21 640.05
  L 471.16 640.05"
/>
<path stroke="#4d93b1" vector-effect="non-scaling-stroke" d="
  M 471.16 640.05
  L 470.01 639.67"
/>
<path stroke="#0da1e0" vector-effect="non-scaling-stroke" d="
  M 640.32 857.28
  Q 639.60 853.35 639.75 849.41
  C 640.41 831.75 639.96 812.53 639.93 795.93
  Q 639.90 775.98 639.89 756.02
  Q 639.89 755.47 640.43 755.52
  Q 641.52 755.61 641.90 755.00"
/>
<path stroke="#004e6f" vector-effect="non-scaling-stroke" d="
  M 810.43 639.24
  C 785.65 651.78 740.21 664.15 718.16 639.65"
/>
<path stroke="#004e6f" vector-effect="non-scaling-stroke" d="
  M 700.86 639.87
  L 688.20 663.96
  Q 687.94 664.45 688.50 664.45
  Q 736.06 664.23 777.94 662.18
  Q 785.40 661.82 796.43 660.58
  C 798.63 660.34 799.71 662.36 798.87 664.31
  C 786.15 693.74 761.77 707.77 730.44 707.78
  C 711.58 707.79 685.94 706.36 677.03 686.14
  A 0.37 0.37 0.0 0 0 676.37 686.11
  L 663.03 710.77
  Q 662.77 711.23 663.30 711.28
  Q 709.74 715.47 756.30 717.94
  C 763.30 718.31 770.37 718.28 777.33 718.24
  A 2.20 2.20 0.0 0 1 779.28 721.47
  C 764.31 749.67 738.05 762.01 706.78 758.90
  C 690.37 757.27 666.17 754.02 657.76 737.11
  Q 655.63 732.83 654.18 727.59
  A 0.24 0.24 0.0 0 0 653.74 727.54
  L 651.45 731.65
  Q 651.18 732.13 651.39 732.63
  C 657.14 746.82 662.33 760.98 665.59 776.17
  Q 666.49 780.38 664.24 782.46
  A 1.43 1.38 -63.4 0 1 663.20 782.83
  C 657.50 782.50 644.97 760.19 641.90 755.00"
/>
<path stroke="#0d5371" vector-effect="non-scaling-stroke" d="
  M 641.90 755.00
  L 639.84 751.83"
/>
<path stroke="#0d0d0d" vector-effect="non-scaling-stroke" d="
  M 639.84 751.83
  L 639.82 704.20"
/>
<path stroke="#004e6f" vector-effect="non-scaling-stroke" d="
  M 640.94 702.00
  Q 654.07 670.91 668.89 640.18"
/>
<path stroke="#0d0d0d" vector-effect="non-scaling-stroke" d="
  M 824.72 630.76
  Q 819.53 632.30 815.17 635.41
  C 812.29 637.46 807.66 639.79 804.07 639.82
  Q 762.24 640.24 720.39 639.81
  Q 719.87 639.81 719.54 639.41
  Q 718.31 637.95 717.01 637.94"
/>
<path stroke="#1a607e" vector-effect="non-scaling-stroke" d="
  M 717.01 637.94
  C 714.96 636.28 716.44 633.93 718.67 633.57
  C 728.34 632.00 741.06 626.47 741.76 615.28
  Q 741.79 614.78 741.29 614.83
  L 712.93 617.54
  Q 712.46 617.58 712.24 618.00
  L 702.46 636.74"
/>
<path stroke="#0d0d0d" vector-effect="non-scaling-stroke" d="
  M 702.46 636.74
  Q 701.36 635.25 700.94 637.89
  A 2.41 2.40 -85.6 0 1 698.58 639.92
  L 671.87 640.04
  Q 671.45 640.04 671.10 639.81
  Q 670.29 639.29 669.38 639.57"
/>
<path stroke="#4dbae8" vector-effect="non-scaling-stroke" d="
  M 578.82 639.41
  Q 578.16 640.05 577.25 640.02
  Q 572.41 639.86 562.81 640.05
  Q 562.20 640.06 561.75 639.70"
/>
<path stroke="#0d5371" vector-effect="non-scaling-stroke" d="
  M 717.01 637.94
  L 718.16 639.65"
/>
<path stroke="#0da1e0" vector-effect="non-scaling-stroke" d="
  M 718.16 639.65
  L 700.86 639.87"
/>
<path stroke="#0d5371" vector-effect="non-scaling-stroke" d="
  M 700.86 639.87
  L 702.46 636.74"
/>
</g>
<path fill="#fdfdfd" d="
  M 636.85 865.97
  C 476.47 793.08 316.10 720.19 155.74 647.28
  C 147.98 643.76 146.38 636.98 154.97 633.07
  Q 396.39 523.32 637.82 413.58
  C 639.28 412.92 641.57 413.36 643.20 414.10
  Q 882.95 523.07 1122.69 632.06
  C 1125.98 633.55 1129.11 634.39 1130.23 638.04
  C 1131.76 643.06 1128.44 645.35 1124.17 647.29
  Q 883.07 756.90 641.96 866.48
  C 640.70 867.04 638.30 866.63 636.85 865.97
  Z
  M 155.03 642.00
  L 639.31 862.13
  Q 639.94 862.42 640.58 862.13
  Q 881.67 752.56 1122.89 642.90
  C 1124.21 642.30 1125.75 641.77 1126.08 640.33
  A 2.04 2.02 18.7 0 0 1124.93 638.03
  L 640.41 417.78
  A 1.11 1.11 0.0 0 0 639.49 417.78
  L 155.03 638.00
  A 2.20 2.20 0.0 0 0 155.03 642.00
  Z"
/>
<path fill="#000000" d="
  M 639.31 862.13
  L 155.03 642.00
  A 2.20 2.20 0.0 0 1 155.03 638.00
  L 639.49 417.78
  A 1.11 1.11 0.0 0 1 640.41 417.78
  L 1124.93 638.03
  A 2.04 2.02 18.7 0 1 1126.08 640.33
  C 1125.75 641.77 1124.21 642.30 1122.89 642.90
  Q 881.67 752.56 640.58 862.13
  Q 639.94 862.42 639.31 862.13
  Z
  M 162.96 640.62
  Q 399.81 748.31 636.68 855.97
  C 637.63 856.40 639.10 857.38 640.32 857.28
  L 1115.30 641.38
  L 1117.78 640.30
  Q 1118.38 640.03 1117.78 639.76
  L 640.31 422.71
  L 162.11 639.75
  Q 161.45 640.05 162.13 640.31
  L 162.96 640.62
  Z"
/>
<path fill="#80ceef" d="
  M 640.31 422.71
  L 639.70 639.39
  Q 639.70 639.93 639.16 639.93
  L 610.91 639.91
  C 602.38 622.93 593.28 607.37 579.73 593.79
  A 1.23 1.22 66.8 0 0 578.84 593.43
  Q 556.58 593.86 537.81 592.43
  Q 475.66 587.72 412.46 574.03
  C 410.43 573.59 408.44 574.82 409.47 577.03
  Q 428.90 618.34 470.01 639.67
  Q 469.77 640.50 469.04 640.17
  Q 468.67 640.00 468.25 640.00
  L 164.24 640.00
  A 0.74 0.69 28.6 0 0 163.89 640.09
  L 162.96 640.62
  L 162.13 640.31
  Q 161.45 640.05 162.11 639.75
  L 640.31 422.71
  Z"
/>
<path fill="#1aa6e1" d="
  M 640.31 422.71
  L 1117.78 639.76
  Q 1118.38 640.03 1117.78 640.30
  L 1115.30 641.38
  C 1112.14 638.70 1108.76 640.01 1105.50 640.01
  Q 958.62 640.00 811.75 640.00
  Q 810.49 640.00 810.43 639.24
  L 824.72 630.76
  Q 854.75 610.32 870.62 576.55
  Q 870.83 576.10 870.66 575.63
  Q 869.87 573.48 867.31 574.03
  C 813.27 585.73 756.65 594.12 701.26 593.51
  Q 700.77 593.50 700.41 593.83
  C 687.16 605.96 676.82 623.31 669.38 639.57
  Q 669.00 639.77 668.89 640.18
  L 640.60 640.09
  A 0.86 0.86 0.0 0 0 639.73 640.96
  Q 640.07 669.99 639.88 699.44
  Q 639.87 700.89 640.94 702.00
  Q 640.65 703.22 639.82 704.20
  Q 626.28 671.82 611.07 640.45
  Q 611.04 640.81 610.91 639.91
  L 639.16 639.93
  Q 639.70 639.93 639.70 639.39
  L 640.31 422.71
  Z"
/>
<path fill="#808080" d="
  M 610.91 639.91
  Q 611.04 640.81 611.07 640.45
  Q 610.86 640.51 610.70 640.36
  Q 610.50 640.18 610.23 640.18
  L 579.24 640.11
  Q 578.81 639.90 578.82 639.41
  L 567.67 617.91
  A 0.87 0.85 -10.3 0 0 567.00 617.46
  L 538.44 614.85
  Q 537.99 614.81 538.04 615.26
  C 539.39 627.07 552.09 632.12 562.05 633.86
  A 2.18 2.17 22.4 0 1 563.46 637.25
  L 561.75 639.70
  Q 560.74 640.52 561.21 640.05
  L 471.16 640.05
  L 470.01 639.67
  Q 428.90 618.34 409.47 577.03
  C 408.44 574.82 410.43 573.59 412.46 574.03
  Q 475.66 587.72 537.81 592.43
  Q 556.58 593.86 578.84 593.43
  A 1.23 1.22 66.8 0 1 579.73 593.79
  C 593.28 607.37 602.38 622.93 610.91 639.91
  Z"
/>
<path fill="#1a1a1a" d="
  M 824.72 630.76
  Q 819.53 632.30 815.17 635.41
  C 812.29 637.46 807.66 639.79 804.07 639.82
  Q 762.24 640.24 720.39 639.81
  Q 719.87 639.81 719.54 639.41
  Q 718.31 637.95 717.01 637.94
  C 714.96 636.28 716.44 633.93 718.67 633.57
  C 728.34 632.00 741.06 626.47 741.76 615.28
  Q 741.79 614.78 741.29 614.83
  L 712.93 617.54
  Q 712.46 617.58 712.24 618.00
  L 702.46 636.74
  Q 701.36 635.25 700.94 637.89
  A 2.41 2.40 -85.6 0 1 698.58 639.92
  L 671.87 640.04
  Q 671.45 640.04 671.10 639.81
  Q 670.29 639.29 669.38 639.57
  C 676.82 623.31 687.16 605.96 700.41 593.83
  Q 700.77 593.50 701.26 593.51
  C 756.65 594.12 813.27 585.73 867.31 574.03
  Q 869.87 573.48 870.66 575.63
  Q 870.83 576.10 870.62 576.55
  Q 854.75 610.32 824.72 630.76
  Z"
/>
<path fill="#80ceef" d="
  M 578.82 639.41
  Q 578.16 640.05 577.25 640.02
  Q 572.41 639.86 562.81 640.05
  Q 562.20 640.06 561.75 639.70
  L 563.46 637.25
  A 2.18 2.17 22.4 0 0 562.05 633.86
  C 552.09 632.12 539.39 627.07 538.04 615.26
  Q 537.99 614.81 538.44 614.85
  L 567.00 617.46
  A 0.87 0.85 -10.3 0 1 567.67 617.91
  L 578.82 639.41
  Z"
/>
<path fill="#1aa6e1" d="
  M 717.01 637.94
  L 718.16 639.65
  L 700.86 639.87
  L 702.46 636.74
  L 712.24 618.00
  Q 712.46 617.58 712.93 617.54
  L 741.29 614.83
  Q 741.79 614.78 741.76 615.28
  C 741.06 626.47 728.34 632.00 718.67 633.57
  C 716.44 633.93 714.96 636.28 717.01 637.94
  Z"
/>
<path fill="#000000" d="
  M 824.72 630.76
  L 810.43 639.24
  C 785.65 651.78 740.21 664.15 718.16 639.65
  L 717.01 637.94
  Q 718.31 637.95 719.54 639.41
  Q 719.87 639.81 720.39 639.81
  Q 762.24 640.24 804.07 639.82
  C 807.66 639.79 812.29 637.46 815.17 635.41
  Q 819.53 632.30 824.72 630.76
  Z"
/>
<path fill="#000000" d="
  M 702.46 636.74
  L 700.86 639.87
  L 688.20 663.96
  Q 687.94 664.45 688.50 664.45
  Q 736.06 664.23 777.94 662.18
  Q 785.40 661.82 796.43 660.58
  C 798.63 660.34 799.71 662.36 798.87 664.31
  C 786.15 693.74 761.77 707.77 730.44 707.78
  C 711.58 707.79 685.94 706.36 677.03 686.14
  A 0.37 0.37 0.0 0 0 676.37 686.11
  L 663.03 710.77
  Q 662.77 711.23 663.30 711.28
  Q 709.74 715.47 756.30 717.94
  C 763.30 718.31 770.37 718.28 777.33 718.24
  A 2.20 2.20 0.0 0 1 779.28 721.47
  C 764.31 749.67 738.05 762.01 706.78 758.90
  C 690.37 757.27 666.17 754.02 657.76 737.11
  Q 655.63 732.83 654.18 727.59
  A 0.24 0.24 0.0 0 0 653.74 727.54
  L 651.45 731.65
  Q 651.18 732.13 651.39 732.63
  C 657.14 746.82 662.33 760.98 665.59 776.17
  Q 666.49 780.38 664.24 782.46
  A 1.43 1.38 -63.4 0 1 663.20 782.83
  C 657.50 782.50 644.97 760.19 641.90 755.00
  L 639.84 751.83
  L 639.82 704.20
  Q 640.65 703.22 640.94 702.00
  Q 654.07 670.91 668.89 640.18
  Q 669.00 639.77 669.38 639.57
  Q 670.29 639.29 671.10 639.81
  Q 671.45 640.04 671.87 640.04
  L 698.58 639.92
  A 2.41 2.40 -85.6 0 0 700.94 637.89
  Q 701.36 635.25 702.46 636.74
  Z"
/>
<path fill="#009cde" d="
  M 810.43 639.24
  Q 810.49 640.00 811.75 640.00
  Q 958.62 640.00 1105.50 640.01
  C 1108.76 640.01 1112.14 638.70 1115.30 641.38
  L 640.32 857.28
  Q 639.60 853.35 639.75 849.41
  C 640.41 831.75 639.96 812.53 639.93 795.93
  Q 639.90 775.98 639.89 756.02
  Q 639.89 755.47 640.43 755.52
  Q 641.52 755.61 641.90 755.00
  C 644.97 760.19 657.50 782.50 663.20 782.83
  A 1.43 1.38 -63.4 0 0 664.24 782.46
  Q 666.49 780.38 665.59 776.17
  C 662.33 760.98 657.14 746.82 651.39 732.63
  Q 651.18 732.13 651.45 731.65
  L 653.74 727.54
  A 0.24 0.24 0.0 0 1 654.18 727.59
  Q 655.63 732.83 657.76 737.11
  C 666.17 754.02 690.37 757.27 706.78 758.90
  C 738.05 762.01 764.31 749.67 779.28 721.47
  A 2.20 2.20 0.0 0 0 777.33 718.24
  C 770.37 718.28 763.30 718.31 756.30 717.94
  Q 709.74 715.47 663.30 711.28
  Q 662.77 711.23 663.03 710.77
  L 676.37 686.11
  A 0.37 0.37 0.0 0 1 677.03 686.14
  C 685.94 706.36 711.58 707.79 730.44 707.78
  C 761.77 707.77 786.15 693.74 798.87 664.31
  C 799.71 662.36 798.63 660.34 796.43 660.58
  Q 785.40 661.82 777.94 662.18
  Q 736.06 664.23 688.50 664.45
  Q 687.94 664.45 688.20 663.96
  L 700.86 639.87
  L 718.16 639.65
  C 740.21 664.15 785.65 651.78 810.43 639.24
  Z"
/>
<path fill="#1aa6e1" d="
  M 578.82 639.41
  Q 578.81 639.90 579.24 640.11
  L 591.74 663.90
  A 0.43 0.42 -13.6 0 1 591.36 664.52
  Q 548.63 664.32 505.82 662.36
  Q 494.64 661.85 483.49 660.76
  C 480.74 660.49 480.24 662.69 481.18 664.77
  C 495.70 696.98 521.77 708.82 555.74 707.71
  C 573.73 707.12 594.40 704.48 602.86 686.08
  Q 603.14 685.48 603.46 686.06
  L 616.89 710.79
  Q 617.14 711.25 616.62 711.30
  Q 570.84 715.48 529.75 717.75
  Q 517.71 718.41 503.22 718.26
  C 500.51 718.23 499.83 720.38 501.07 722.55
  Q 520.20 756.34 557.76 759.09
  C 572.34 760.16 589.93 757.41 603.75 752.54
  Q 621.17 746.41 625.54 727.80
  A 0.41 0.40 37.2 0 1 626.29 727.70
  L 628.55 731.75
  A 0.94 0.93 -48.8 0 1 628.60 732.58
  C 625.91 739.20 610.48 777.36 615.14 781.85
  C 618.24 784.84 623.08 778.14 624.63 775.88
  Q 632.64 764.15 639.84 751.83
  L 641.90 755.00
  Q 641.52 755.61 640.43 755.52
  Q 639.89 755.47 639.89 756.02
  Q 639.90 775.98 639.93 795.93
  C 639.96 812.53 640.41 831.75 639.75 849.41
  Q 639.60 853.35 640.32 857.28
  C 639.10 857.38 637.63 856.40 636.68 855.97
  Q 399.81 748.31 162.96 640.62
  L 163.89 640.09
  A 0.74 0.69 28.6 0 1 164.24 640.00
  L 468.25 640.00
  Q 468.67 640.00 469.04 640.17
  Q 469.77 640.50 470.01 639.67
  L 471.16 640.05
  C 495.82 652.10 539.09 663.53 561.21 640.05
  Q 560.74 640.52 561.75 639.70
  Q 562.20 640.06 562.81 640.05
  Q 572.41 639.86 577.25 640.02
  Q 578.16 640.05 578.82 639.41
  Z"
/>
<path fill="#009cde" d="
  M 668.89 640.18
  Q 654.07 670.91 640.94 702.00
  Q 639.87 700.89 639.88 699.44
  Q 640.07 669.99 639.73 640.96
  A 0.86 0.86 0.0 0 1 640.60 640.09
  L 668.89 640.18
  Z"
/>
<path fill="#1a1a1a" d="
  M 471.16 640.05
  L 561.21 640.05
  C 539.09 663.53 495.82 652.10 471.16 640.05
  Z"
/>
<path fill="#1a1a1a" d="
  M 611.07 640.45
  Q 626.28 671.82 639.82 704.20
  L 639.84 751.83
  Q 632.64 764.15 624.63 775.88
  C 623.08 778.14 618.24 784.84 615.14 781.85
  C 610.48 777.36 625.91 739.20 628.60 732.58
  A 0.94 0.93 -48.8 0 0 628.55 731.75
  L 626.29 727.70
  A 0.41 0.40 37.2 0 0 625.54 727.80
  Q 621.17 746.41 603.75 752.54
  C 589.93 757.41 572.34 760.16 557.76 759.09
  Q 520.20 756.34 501.07 722.55
  C 499.83 720.38 500.51 718.23 503.22 718.26
  Q 517.71 718.41 529.75 717.75
  Q 570.84 715.48 616.62 711.30
  Q 617.14 711.25 616.89 710.79
  L 603.46 686.06
  Q 603.14 685.48 602.86 686.08
  C 594.40 704.48 573.73 707.12 555.74 707.71
  C 521.77 708.82 495.70 696.98 481.18 664.77
  C 480.24 662.69 480.74 660.49 483.49 660.76
  Q 494.64 661.85 505.82 662.36
  Q 548.63 664.32 591.36 664.52
  A 0.43 0.42 -13.6 0 0 591.74 663.90
  L 579.24 640.11
  L 610.23 640.18
  Q 610.50 640.18 610.70 640.36
  Q 610.86 640.51 611.07 640.45
  Z"
/>
</svg>
