<svg xmlns="http://www.w3.org/2000/svg" viewBox="0 0 1280 1280">
  <g fill="none" stroke-width="2">
    <path stroke="#7f7f7f" d="m155 642 484 220h2l482-219c1-1 3-1 3-3a2 2 19 0 0-1-2L640 418a1 1 0 0 0-1 0L155 638a2 2 0 0 0 0 4" vector-effect="non-scaling-stroke"/>
    <path stroke="#0d5371" d="m163 641 474 215 3 1m475-216 3-1-478-217" vector-effect="non-scaling-stroke"/>
    <path stroke="#406778" d="M640 423 162 640q-1 0 0 0l1 1" vector-effect="non-scaling-stroke"/>
    <path stroke="#4dbae8" d="M640 423v216l-1 1h-28" vector-effect="non-scaling-stroke"/>
    <path stroke="#80a7b8" d="M611 640c-9-17-18-33-31-46a1 1 67 0 0-1-1q-22 1-41-1-62-4-126-18c-2 0-4 1-3 3q20 41 61 63" vector-effect="non-scaling-stroke"/>
    <path stroke="#4dbae8" d="M470 640H164l-1 1" vector-effect="non-scaling-stroke"/>
    <path stroke="#0da1e0" d="M1115 641c-3-2-6-1-9-1H812l-2-1" vector-effect="non-scaling-stroke"/>
    <path stroke="#1a607e" d="M825 631q30-21 46-54v-1q-1-3-4-2c-54 12-110 20-166 20h-1c-13 12-23 29-31 46" vector-effect="non-scaling-stroke"/>
    <path stroke="#0da1e0" d="M669 640h-28a1 1 0 0 0-1 1v58l1 3" vector-effect="non-scaling-stroke"/>
    <path stroke="#4d93b1" d="M611 640q0 1 0 0" vector-effect="non-scaling-stroke"/>
    <path stroke="#1a607e" d="m579 640 13 24-1 1-85-3-23-1c-2-1-3 2-2 4 15 32 41 44 75 43 18-1 38-4 47-22q0-1 0 0l14 25-87 7h-27c-2 0-3 2-2 5q19 33 57 36c14 1 32-2 46-6q17-7 22-25l3 4a1 1-49 0 1 0 1c-3 6-19 44-14 49 3 3 8-4 10-6l15-24" vector-effect="non-scaling-stroke"/>
    <path stroke="#1a607e" d="M471 640c25 12 68 24 90 0" vector-effect="non-scaling-stroke"/>
    <path stroke="#4d4d4d" d="M611 640q0 1 0 0h-32" vector-effect="non-scaling-stroke"/>
    <path stroke="#4d93b1" d="M579 640v-1" vector-effect="non-scaling-stroke"/>
    <path stroke="#80a7b8" d="m579 639-11-21a1 1-10 0 0-1-1l-29-2c1 12 14 17 24 19a2 2 22 0 1 1 3l-1 3" vector-effect="non-scaling-stroke"/>
    <path stroke="#4d93b1" d="M562 640h-1" vector-effect="non-scaling-stroke"/>
    <path stroke="#4d4d4d" d="M561 640h-90" vector-effect="non-scaling-stroke"/>
    <path stroke="#4d93b1" d="M471 640h-1" vector-effect="non-scaling-stroke"/>
    <path stroke="#0da1e0" d="M640 857V756q0-1 0 0l2-1" vector-effect="non-scaling-stroke"/>
    <path stroke="#004e6f" d="M810 639c-24 13-70 25-92 1" vector-effect="non-scaling-stroke"/>
    <path stroke="#004e6f" d="m701 640-13 24h1q47 0 89-2l18-1c3-1 4 1 3 3a69 69 0 0 1-69 44c-18 0-44-2-53-22h-1l-13 25 93 7h21a2 2 0 0 1 2 3 69 69 0 0 1-72 38c-17-2-41-5-49-22l-4-9-3 4v1c6 14 11 28 15 43q0 4-2 6a1 1-63 0 1-1 1c-5 0-18-23-21-28" vector-effect="non-scaling-stroke"/>
    <path stroke="#0d0d0d" d="M640 752v-48m185-73-10 4c-3 2-7 5-11 5h-84v-1l-3-1" vector-effect="non-scaling-stroke"/>
    <path stroke="#1a607e" d="M717 638c-2-2-1-4 2-4 9-2 22-8 23-19h-1l-28 3h-1l-10 19" vector-effect="non-scaling-stroke"/>
    <path stroke="#0d0d0d" d="M702 637q-1-2-1 1a2 2-86 0 1-2 2h-30" vector-effect="non-scaling-stroke"/>
    <path stroke="#4dbae8" d="m579 639-2 1h-15" vector-effect="non-scaling-stroke"/>
    <path stroke="#0da1e0" d="M718 640h-17" vector-effect="non-scaling-stroke"/>
  </g>
  <path fill="#fdfdfd" d="M637 866 156 647c-8-3-10-10-1-14l483-219h5l480 218c3 2 6 2 7 6 2 5-2 7-6 9L642 866h-5ZM155 642l484 220h2l482-219c1-1 3-1 3-3a2 2 19 0 0-1-2L640 418a1 1 0 0 0-1 0L155 638a2 2 0 0 0 0 4Z"/>
  <path d="M639 862 155 642a2 2 0 0 1 0-4l484-220a1 1 0 0 1 1 0l485 220a2 2 19 0 1 1 2c0 2-2 2-3 3L641 862h-2ZM163 641l474 215 3 1 475-216 3-1-478-217-478 217q-1 0 0 0l1 1Z"/>
  <path fill="#80ceef" d="M640 423v216l-1 1h-28c-9-17-18-33-31-46a1 1 67 0 0-1-1q-22 1-41-1-62-4-126-18c-2 0-4 1-3 3q20 41 61 63H164l-1 1-1-1q-1 0 0 0l478-217Z"/>
  <path fill="#1aa6e1" d="m640 423 478 217-3 1c-3-2-6-1-9-1H812l-2-1 15-8q30-21 46-54v-1q-1-3-4-2c-54 12-110 20-166 20h-1c-13 12-23 29-31 46h-28a1 1 0 0 0-1 1v58l1 3-1 2-29-64q0 1 0 0h28l1-1V423Z"/>
  <path fill="gray" d="M611 640q0 1 0 0 0 1 0 0h-32v-1l-11-21a1 1-10 0 0-1-1l-29-2c1 12 14 17 24 19a2 2 22 0 1 1 3l-1 3h-92q-41-22-61-63c-1-2 1-3 3-3q64 14 126 18 19 2 41 1a1 1 67 0 1 1 1c13 13 22 29 31 46Z"/>
  <path fill="#1a1a1a" d="m825 631-10 4c-3 2-7 5-11 5h-84v-1l-3-1c-2-2-1-4 2-4 9-2 22-8 23-19h-1l-28 3h-1l-10 19q-1-2-1 1a2 2-86 0 1-2 2h-30c8-17 18-34 31-46h1c56 0 112-8 166-20q3-1 4 2v1q-16 33-46 54Z"/>
  <path fill="#80ceef" d="m579 639-2 1h-15l1-3a2 2 22 0 0-1-3c-10-2-23-7-24-19l29 2a1 1-10 0 1 1 1l11 21Z"/>
  <path fill="#1aa6e1" d="m717 638 1 2h-17l1-3 10-19h1l28-3h1c-1 11-14 17-23 19-3 0-4 2-2 4Z"/>
  <path d="m825 631-15 8c-24 13-70 25-92 1l-1-2 3 1v1h84c4 0 8-3 11-5l10-4Z"/>
  <path d="m702 637-1 3-13 24h1q47 0 89-2l18-1c3-1 4 1 3 3a69 69 0 0 1-69 44c-18 0-44-2-53-22h-1l-13 25 93 7h21a2 2 0 0 1 2 3 69 69 0 0 1-72 38c-17-2-41-5-49-22l-4-9-3 4v1c6 14 11 28 15 43q0 4-2 6a1 1-63 0 1-1 1c-5 0-18-23-21-28l-2-3v-48l1-2 28-62h30a2 2-86 0 0 2-2q0-3 1-1Z"/>
  <path fill="#009cde" d="m810 639 2 1h294c3 0 6-1 9 1L640 857V756q0-1 0 0l2-1c3 5 16 28 21 28a1 1-63 0 0 1-1q2-2 2-6c-4-15-9-29-15-43v-1l3-4 4 9c8 17 32 20 49 22 31 3 57-9 72-38a2 2 0 0 0-2-3h-21l-93-7 13-25h1c9 20 35 22 53 22 32 0 56-14 69-44 1-2 0-4-3-3l-18 1q-42 2-89 2h-1l13-24h17c22 24 68 12 92-1Z"/>
  <path fill="#1aa6e1" d="M579 639v1l13 24-1 1-85-3-23-1c-2-1-3 2-2 4 15 32 41 44 75 43 18-1 38-4 47-22q0-1 0 0l14 25-87 7h-27c-2 0-3 2-2 5q19 33 57 36c14 1 32-2 46-6q17-7 22-25l3 4a1 1-49 0 1 0 1c-3 6-19 44-14 49 3 3 8-4 10-6l15-24 2 3-2 1q0-1 0 0v101l-3-1-474-215 1-1h307c25 12 68 24 90 0h16l2-1Z"/>
  <path fill="#009cde" d="m669 640-28 62-1-3v-58a1 1 0 0 1 1-1h28Z"/>
  <path fill="#1a1a1a" d="M471 640h90c-22 24-65 12-90 0Z"/>
  <path fill="#1a1a1a" d="m611 640 29 64v48l-15 24c-2 2-7 9-10 6-5-5 11-43 14-49a1 1-49 0 0 0-1l-3-4q-5 18-22 25c-14 4-32 7-46 6q-38-3-57-36c-1-3 0-5 2-5h27l87-7-14-25q0-1 0 0c-9 18-29 21-47 22-34 1-60-11-75-43-1-2 0-5 2-4l23 1 85 3 1-1-13-24h32q0 1 0 0Z"/>
</svg>
