<svg xmlns="http://www.w3.org/2000/svg" viewBox="0 0 1448 1448">
  <g fill="none" stroke-width="2">
    <path stroke="gray" d="M176 722a3 3 0 0 0 0 4l547 249a3 3 0 0 0 2 0l547-249a3 3 0 0 0 0-4L725 473a3 3 0 0 0-2 0L176 722" vector-effect="non-scaling-stroke"/>
    <path stroke="#33591f" d="m1264 725 1-1-541-246" vector-effect="non-scaling-stroke"/>
    <path stroke="#556a4a" d="M724 478 183 724l1 1" vector-effect="non-scaling-stroke"/>
    <path stroke="#88c368" d="M724 478v246m0 0h-4" vector-effect="non-scaling-stroke"/>
    <path stroke="#95aa8a" d="M720 724v-45l-1-6c-7-20-21-42-40-53a3 3 26 0 0-3 1l-1 4c1 4-1 7-5 7q-10 0-12-9c-1-6 2-9 7-10q15-3 26 6c10 8 18 21 24 33a2 2 0 0 0 3 1q2 0 2-2V527c0-3-3-3-5-1-11 15-26 28-39 39q0 1 0 0-20-7-32-24c-2-3-5-1-5 2q2 31-6 61 0 1 0 0-18-2-36-7c-2 0-3 0-4 2v1q7 20 9 42v1c-10 14-18 30-22 47 0 3 1 4 3 4a2 2-67 0 0 1 0c26-21 65-40 95-16 15 12 27 29 35 46" vector-effect="non-scaling-stroke"/>
    <path stroke="#88c368" d="M714 724h-7" vector-effect="non-scaling-stroke"/>
    <path stroke="#95aa8a" d="m707 724-1-1c-9-14-20-27-34-36-32-22-70 0-93 23a1 1-25 0 0 0 1v13" vector-effect="non-scaling-stroke"/>
    <path stroke="#88c368" d="M579 724H185l-1 1" vector-effect="non-scaling-stroke"/>
    <path stroke="#40662c" d="m579 724 3 16q-14-1-23 6c-2 1-1 3 0 4l46 33c5 3 9 9 14 13a1 1 0 0 1 0 1l-17 8q-2 1-2 3a2 2 0 0 0 2 3q26 5 52 14c10 4 19 13 29 21 9 8 18 18 21 29 4 15-4 32-13 44a2 2 65 0 0 0 1c0 3 2 4 4 3l24-9a2 2 0 0 0 1-2V805c-4-4-30-20-32-12v1c2 5 3 10-5 11-10 1-19-12-7-17 15-8 27-3 39 5 3 2 5 1 5-2 0-4-1-5-4-8-12-15-28-29-47-35-3 0-7 0-5 4 1 3 2 9-3 10q-10 3-14-6c-2-3-2-6 1-8 24-19 53 9 67 27a3 3 0 0 0 4 0l1-2v-26c0-6-10-18-13-23m7 0c1 4 6 5 6 0" vector-effect="non-scaling-stroke"/>
    <path stroke="#33591f" d="M869 724h-1" vector-effect="non-scaling-stroke"/>
    <path stroke="#40662c" d="m868 724 1-13a1 1-66 0 0 0-1c-22-22-59-44-91-24-15 9-27 23-37 38" vector-effect="non-scaling-stroke"/>
    <path stroke="#5eae32" d="M741 724h-7" vector-effect="non-scaling-stroke"/>
    <path stroke="#40662c" d="M734 724c10-21 28-46 50-55 27-9 60 8 80 25 4 0 4-2 4-4-4-17-12-33-22-47a1 1-60 0 1 0-1q2-21 9-41c0-3-2-4-4-4l-36 8v-1q-7-29-7-60v-3q-2-3-4 0-12 17-32 24c-15-12-29-24-39-39-1-1-3-2-5 0a1 1-29 0 0 0 1v125c2 3 4 1 5-1 10-20 25-45 52-37 4 1 6 3 5 7q-1 11-13 11c-5-1-5-6-4-10a1 1 29 0 0-1-1c-1-1-2-2-4-1-18 11-32 33-39 53l-1 6v44" vector-effect="non-scaling-stroke"/>
    <path stroke="#33591f" d="M728 723v1" vector-effect="non-scaling-stroke"/>
    <path stroke="#5eae32" d="M728 724h-4" vector-effect="non-scaling-stroke"/>
    <path stroke="#4d4d4d" d="M707 724H579" vector-effect="non-scaling-stroke"/>
    <path stroke="#2b5514" d="M741 724c-4 5-13 17-13 23v26c0 4 3 3 5 1 15-18 41-44 66-27 3 2 4 5 2 9q-3 8-12 6c-7-1-7-5-5-10 1-3-1-4-4-4-21 6-39 22-52 39v6c1 2 3 2 4 1 14-10 27-15 42-5 3 2 4 5 3 8q-4 11-15 7c-5-1-4-6-2-10a1 1 0 0 0 0-1c-2-8-28 8-31 11l-1 1v106q0 2 2 3l24 9a2 2-64 0 0 2-1v-3q-8-11-12-25c-8-29 22-51 42-65l3-2q27-10 56-16c4-1 3-4 0-6l-16-8-1-1 16-14 45-32 1-3c-6-6-16-8-24-7q-1 0 0 0l3-16" vector-effect="non-scaling-stroke"/>
    <path stroke="#5eae32" d="m723 970 1-2V724" vector-effect="non-scaling-stroke"/>
    <path stroke="#4d4d4d" d="M720 724h-6" vector-effect="non-scaling-stroke"/>
    <path stroke="#73995f" d="M714 724q1 1 0 0" vector-effect="non-scaling-stroke"/>
    <path stroke="#2b5514" d="M734 724c-1 4-6 5-6 0" vector-effect="non-scaling-stroke"/>
  </g>
  <path fill="#fff" d="M719 979 175 732c-5-3-8-8-4-13 1-2 4-3 6-4l544-247h6l547 249c8 3 6 12-1 15L729 979c-4 2-5 2-10 0ZM176 722a3 3 0 0 0 0 4l547 249a3 3 0 0 0 2 0l547-249a3 3 0 0 0 0-4L725 473a3 3 0 0 0-2 0L176 722Z"/>
  <path d="m176 722 547-249a3 3 0 0 1 2 0l547 249a3 3 0 0 1 0 4L725 975a3 3 0 0 1-2 0L176 726a3 3 0 0 1 0-4Zm8 3 539 245 541-245 1-1-541-246-541 246 1 1Z"/>
  <path fill="#aad493" d="M724 478v246h-4v-45l-1-6c-7-20-21-42-40-53a3 3 26 0 0-3 1l-1 4c1 4-1 7-5 7q-10 0-12-9c-1-6 2-9 7-10q15-3 26 6c10 8 18 21 24 33a2 2 0 0 0 3 1q2 0 2-2V527c0-3-3-3-5-1-11 15-26 28-39 39q0 1 0 0-20-7-32-24c-2-3-5-1-5 2q2 31-6 61 0 1 0 0-18-2-36-7c-2 0-3 0-4 2v1q7 20 9 42v1c-10 14-18 30-22 47 0 3 1 4 3 4a2 2-67 0 0 1 0c26-21 65-40 95-16 15 12 27 29 35 46h-7l-1-1c-9-14-20-27-34-36-32-22-70 0-93 23a1 1-25 0 0 0 1v13H185l-1 1-1-1 541-246Z"/>
  <path fill="#66b23d" d="m724 478 541 246-1 1-395-1h-1l1-13a1 1-66 0 0 0-1c-22-22-59-44-91-24-15 9-27 23-37 38h-7c10-21 28-46 50-55 27-9 60 8 80 25 4 0 4-2 4-4-4-17-12-33-22-47a1 1-60 0 1 0-1q2-21 9-41c0-3-2-4-4-4l-36 8v-1q-7-29-7-60v-3q-2-3-4 0-12 17-32 24c-15-12-29-24-39-39-1-1-3-2-5 0a1 1-29 0 0 0 1v125c2 3 4 1 5-1 10-20 25-45 52-37 4 1 6 3 5 7q-1 11-13 11c-5-1-5-6-4-10a1 1 29 0 0-1-1c-1-1-2-2-4-1-18 11-32 33-39 53l-1 6v45h-4V478Z"/>
  <path fill="gray" d="M720 724h-6q1 1 0 0c-8-17-20-34-35-46-30-24-69-5-95 16a2 2-67 0 1-1 0c-2 0-3-1-3-4 4-17 12-33 22-47v-1q-2-22-9-42v-1c1-2 2-2 4-2q18 5 36 7 0 1 0 0 8-30 6-61c0-3 3-5 5-2q12 17 32 24 0 1 0 0c13-11 28-24 39-39 2-2 5-2 5 1v124q0 2-2 2a2 2 0 0 1-3-1c-6-12-14-25-24-33q-11-9-26-6c-5 1-8 4-7 10q2 9 12 9c4 0 6-3 5-7l1-4a3 3 26 0 1 3-1c19 11 33 33 40 53l1 6v45Z"/>
  <path fill="#1a1a1a" d="m734 724-6-1v-44l1-6c7-20 21-42 39-53 2-1 3 0 4 1a1 1 29 0 1 1 1c-1 4-1 9 4 10q12 0 13-11c1-4-1-6-5-7-27-8-42 17-52 37-1 2-3 4-5 1V527a1 1-29 0 1 0-1c2-2 4-1 5 0 10 15 24 27 39 39q20-7 32-24 2-3 4 0v3q0 31 7 60v1l36-8c2 0 4 1 4 4q-7 20-9 41a1 1-60 0 0 0 1c10 14 18 30 22 47 0 2 0 4-4 4-20-17-53-34-80-25-22 9-40 34-50 55Z"/>
  <path fill="gray" d="M707 724H579v-13a1 1-25 0 1 0-1c23-23 61-45 93-23 14 9 25 22 34 36l1 1Z"/>
  <path fill="#1a1a1a" d="M868 724H741c10-15 22-29 37-38 32-20 69 2 91 24a1 1-66 0 1 0 1l-1 13Z"/>
  <path d="m728 723 6 1c-1 4-6 5-6 0v-1Z"/>
  <path fill="#55a927" d="M734 724h7c-4 5-13 17-13 23v26c0 4 3 3 5 1 15-18 41-44 66-27 3 2 4 5 2 9q-3 8-12 6c-7-1-7-5-5-10 1-3-1-4-4-4-21 6-39 22-52 39v6c1 2 3 2 4 1 14-10 27-15 42-5 3 2 4 5 3 8q-4 11-15 7c-5-1-4-6-2-10a1 1 0 0 0 0-1c-2-8-28 8-31 11l-1 1v106q0 2 2 3l24 9a2 2-64 0 0 2-1v-3q-8-11-12-25c-8-29 22-51 42-65l3-2q27-10 56-16c4-1 3-4 0-6l-16-8-1-1 16-14 45-32 1-3c-6-6-16-8-24-7q-1 0 0 0l3-16 395 1-541 245 1-2V724h4c0 5 5 4 6 0Z"/>
  <path d="M741 724h128l-3 16q-1 0 0 0c8-1 18 1 24 7l-1 3-45 32-16 14 1 1 16 8c3 2 4 5 0 6q-29 6-56 16l-3 2c-20 14-50 36-42 65q4 14 12 25v3a2 2-64 0 1-2 1l-24-9q-2-1-2-3V805l1-1c3-3 29-19 31-11a1 1 0 0 1 0 1c-2 4-3 9 2 10q11 4 15-7c1-3 0-6-3-8-15-10-28-5-42 5-1 1-3 1-4-1v-6c13-17 31-33 52-39 3 0 5 1 4 4-2 5-2 9 5 10q9 2 12-6c2-4 1-7-2-9-25-17-51 9-66 27-2 2-5 3-5-1v-26c0-6 9-18 13-23Z"/>
  <path fill="#66b23d" d="m579 724 3 16q-14-1-23 6c-2 1-1 3 0 4l46 33c5 3 9 9 14 13a1 1 0 0 1 0 1l-17 8q-2 1-2 3a2 2 0 0 0 2 3q26 5 52 14c10 4 19 13 29 21 9 8 18 18 21 29 4 15-4 32-13 44a2 2 65 0 0 0 1c0 3 2 4 4 3l24-9a2 2 0 0 0 1-2V805c-4-4-30-20-32-12v1c2 5 3 10-5 11-10 1-19-12-7-17 15-8 27-3 39 5 3 2 5 1 5-2 0-4-1-5-4-8-12-15-28-29-47-35-3 0-7 0-5 4 1 3 2 9-3 10q-10 3-14-6c-2-3-2-6 1-8 24-19 53 9 67 27a3 3 0 0 0 4 0l1-2v-26c0-6-10-18-13-23h7q1 1 0 0c1 4 6 5 6 0h4v244l-1 2-539-245 1-1h394Z"/>
  <path fill="#1a1a1a" d="M579 724h128c3 5 13 17 13 23v26l-1 2a3 3 0 0 1-4 0c-14-18-43-46-67-27-3 2-3 5-1 8q4 9 14 6c5-1 4-7 3-10-2-4 2-4 5-4 19 6 35 20 47 35 3 3 4 4 4 8 0 3-2 4-5 2-12-8-24-13-39-5-12 5-3 18 7 17 8-1 7-6 5-11v-1c2-8 28 8 32 12v107a2 2 0 0 1-1 2l-24 9c-2 1-4 0-4-3a2 2 65 0 1 0-1c9-12 17-29 13-44-3-11-12-21-21-29-10-8-19-17-29-21q-26-9-52-14a2 2 0 0 1-2-3q0-2 2-3l17-8a1 1 0 0 0 0-1c-5-4-9-10-14-13l-46-33c-1-1-2-3 0-4q9-7 23-6l-3-16Zm141 0c0 5-5 4-6 0h6Z"/>
</svg>
