<?xml version="1.0" encoding="UTF-8" standalone="no"?>
<!DOCTYPE svg PUBLIC "-//W3C//DTD SVG 1.1//EN" "http://www.w3.org/Graphics/SVG/1.1/DTD/svg11.dtd">
<svg xmlns="http://www.w3.org/2000/svg" version="1.1" viewBox="0.00 0.00 1448.00 1448.00">
<g stroke-width="2.00" fill="none" stroke-linecap="butt">
<path stroke="#808080" vector-effect="non-scaling-stroke" d="
  M 175.48 726.29
  L 722.71 975.04
  A 3.06 3.06 0.0 0 0 725.23 975.04
  Q 998.46 850.84 1272.17 726.39
  Q 1274.26 725.44 1273.64 723.19
  A 2.42 2.42 0.0 0 0 1272.31 721.63
  L 725.24 472.96
  A 3.05 3.02 44.8 0 0 722.71 472.96
  L 175.48 721.70
  A 2.52 2.52 0.0 0 0 175.48 726.29"
/>
<path stroke="#47261e" vector-effect="non-scaling-stroke" d="
  M 183.99 724.29
  L 723.88 969.97
  Q 723.99 970.02 724.11 969.97
  Q 724.26 969.91 724.34 969.85"
/>
<path stroke="#401c13" vector-effect="non-scaling-stroke" d="
  M 724.34 969.85
  L 1264.00 724.55"
/>
<path stroke="#47261e" vector-effect="non-scaling-stroke" d="
  M 1264.00 724.55
  Q 1264.68 724.50 1264.68 724.07
  A 0.44 0.43 13.2 0 0 1264.42 723.66
  L 724.03 478.29"
/>
<path stroke="#604e4a" vector-effect="non-scaling-stroke" d="
  M 724.03 478.29
  L 723.80 478.15
  Q 723.70 478.09 723.59 478.13
  L 183.42 723.67
  A 0.30 0.29 -53.4 0 0 183.50 724.23
  L 183.99 724.29"
/>
<path stroke="#a77468" vector-effect="non-scaling-stroke" d="
  M 724.03 478.29
  L 724.00 572.74"
/>
<path stroke="#a08e8a" vector-effect="non-scaling-stroke" d="
  M 724.00 572.74
  Q 697.67 572.74 671.33 572.77
  C 660.80 572.78 652.93 574.06 643.75 577.49
  C 624.02 584.86 605.70 596.00 588.48 607.99
  Q 554.93 631.35 524.49 658.37
  A 1.54 1.51 23.9 0 1 523.48 658.75
  L 485.73 658.75
  A 2.03 2.03 0.0 0 0 483.70 660.78
  L 483.63 699.19
  Q 483.62 702.00 486.44 702.00
  L 525.51 702.00
  A 1.39 1.36 23.7 0 0 526.43 701.65
  C 556.28 675.21 588.36 650.25 623.19 630.70
  C 638.04 622.36 653.66 615.99 670.75 616.00
  Q 697.36 616.00 723.96 616.00"
/>
<path stroke="#6d5b57" vector-effect="non-scaling-stroke" d="
  M 723.96 616.00
  Q 723.98 616.05 724.01 616.10"
/>
<path stroke="#a77468" vector-effect="non-scaling-stroke" d="
  M 724.01 616.10
  L 724.00 641.75"
/>
<path stroke="#a08e8a" vector-effect="non-scaling-stroke" d="
  M 724.00 641.75
  Q 699.58 641.81 675.15 641.74
  C 665.37 641.72 656.77 642.05 648.77 644.73
  Q 627.58 651.81 605.27 666.04
  Q 565.28 691.55 529.70 722.97
  Q 529.39 723.25 529.51 724.00"
/>
<path stroke="#6d5b57" vector-effect="non-scaling-stroke" d="
  M 529.51 724.00
  L 527.76 724.00"
/>
<path stroke="#a77468" vector-effect="non-scaling-stroke" d="
  M 527.76 724.00
  L 185.61 724.00
  Q 185.12 724.00 184.66 724.17
  Q 184.35 724.29 183.99 724.29"
/>
<path stroke="#0d0d0d" vector-effect="non-scaling-stroke" d="
  M 918.79 723.46
  Q 915.52 724.00 913.50 724.00
  Q 888.47 723.99 863.12 724.00"
/>
<path stroke="#4d2920" vector-effect="non-scaling-stroke" d="
  M 863.12 724.00
  L 862.60 723.88"
/>
<path stroke="#54332b" vector-effect="non-scaling-stroke" d="
  M 862.60 723.88
  Q 837.10 704.99 810.21 692.54
  Q 801.76 688.63 792.28 686.62
  Q 786.14 685.31 776.64 685.25
  Q 750.38 685.07 723.92 685.08"
/>
<path stroke="#6d5b57" vector-effect="non-scaling-stroke" d="
  M 723.92 685.08
  Q 723.96 685.08 724.00 685.07"
/>
<path stroke="#874231" vector-effect="non-scaling-stroke" d="
  M 1264.00 724.55
  Q 1263.01 724.22 1262.00 724.22
  Q 1093.12 724.00 924.25 723.97
  Q 922.16 723.97 919.90 724.29"
/>
<path stroke="#47261e" vector-effect="non-scaling-stroke" d="
  M 919.90 724.29
  L 918.79 723.46"
/>
<path stroke="#54332b" vector-effect="non-scaling-stroke" d="
  M 918.79 723.46
  Q 883.66 692.45 844.36 667.19
  C 829.11 657.39 809.95 646.60 791.18 643.01
  Q 784.30 641.69 771.26 641.72
  Q 747.62 641.79 724.00 641.75"
/>
<path stroke="#54332b" vector-effect="non-scaling-stroke" d="
  M 724.01 616.10
  Q 742.33 615.82 760.57 616.13
  C 766.84 616.24 776.35 615.71 784.24 616.36
  C 802.43 617.87 820.91 627.94 836.20 637.33
  C 866.62 656.02 894.72 678.12 921.53 701.64
  A 1.45 1.43 65.3 0 0 922.48 702.00
  L 961.75 702.00
  A 2.50 2.50 0.0 0 0 964.25 699.50
  L 964.25 661.00
  A 2.25 2.25 0.0 0 0 962.00 658.75
  L 924.51 658.75
  Q 924.04 658.75 923.68 658.44
  C 892.55 631.09 854.80 601.19 815.29 581.95
  C 802.46 575.71 789.74 572.67 775.03 572.71
  Q 749.50 572.80 724.00 572.74"
/>
<path stroke="#4d4d4d" vector-effect="non-scaling-stroke" d="
  M 724.00 641.75
  L 724.00 685.07"
/>
<path stroke="#a08e8a" vector-effect="non-scaling-stroke" d="
  M 724.00 685.07
  Q 697.45 685.37 670.97 685.23
  C 652.79 685.14 637.50 691.82 621.96 700.48
  Q 603.21 710.93 585.77 723.44
  Q 585.74 723.46 585.65 723.49
  Q 585.45 723.57 585.50 724.01"
/>
<path stroke="#87665e" vector-effect="non-scaling-stroke" d="
  M 585.50 724.01
  Q 585.06 724.28 584.49 724.29"
/>
<path stroke="#4d4d4d" vector-effect="non-scaling-stroke" d="
  M 584.49 724.29
  L 529.51 724.00"
/>
<path stroke="#4d4d4d" vector-effect="non-scaling-stroke" d="
  M 724.00 572.74
  L 723.96 616.00"
/>
<path stroke="#54332b" vector-effect="non-scaling-stroke" d="
  M 527.76 724.00
  C 526.36 726.19 524.78 727.76 521.92 727.75
  Q 503.70 727.73 485.88 727.76
  A 2.28 2.27 -0.1 0 0 483.60 730.04
  L 483.77 768.64
  A 2.37 2.37 0.0 0 0 486.14 771.00
  L 525.73 771.00
  Q 526.14 771.00 526.45 770.73
  Q 554.33 746.06 584.49 724.29"
/>
<path stroke="#401c13" vector-effect="non-scaling-stroke" d="
  M 919.90 724.29
  L 923.56 727.42
  Q 923.94 727.75 924.44 727.75
  L 962.00 727.75
  A 2.25 2.25 0.0 0 1 964.25 730.00
  L 964.25 768.75
  A 2.25 2.25 0.0 0 1 962.00 771.00
  L 922.26 771.00
  A 1.15 1.13 -24.0 0 1 921.51 770.72
  Q 893.50 746.10 863.12 724.00"
/>
<path stroke="#874231" vector-effect="non-scaling-stroke" d="
  M 724.34 969.85
  Q 724.30 969.63 724.25 969.48
  Q 724.06 968.95 724.06 968.82
  L 724.00 754.25"
/>
<path stroke="#874231" vector-effect="non-scaling-stroke" d="
  M 862.60 723.88
  Q 846.33 724.13 830.27 723.95
  C 828.83 723.93 827.03 724.66 825.13 723.90
  Q 824.65 723.70 824.29 724.07
  L 823.95 724.40"
/>
<path stroke="#47261e" vector-effect="non-scaling-stroke" d="
  M 823.95 724.40
  L 822.50 723.71"
/>
<path stroke="#54332b" vector-effect="non-scaling-stroke" d="
  M 822.50 723.71
  C 811.62 717.92 797.14 711.72 784.75 711.07
  C 765.15 710.03 744.19 711.18 723.99 710.90"
/>
<path stroke="#a77468" vector-effect="non-scaling-stroke" d="
  M 723.92 685.08
  L 723.99 710.90"
/>
<path stroke="#6d5b57" vector-effect="non-scaling-stroke" d="
  M 723.99 710.90
  Q 723.98 710.84 723.97 710.79"
/>
<path stroke="#a08e8a" vector-effect="non-scaling-stroke" d="
  M 723.97 710.79
  Q 697.06 710.84 670.15 711.00
  C 654.14 711.10 639.57 715.82 625.67 723.92"
/>
<path stroke="#6d5b57" vector-effect="non-scaling-stroke" d="
  M 625.67 723.92
  L 623.51 724.05"
/>
<path stroke="#a77468" vector-effect="non-scaling-stroke" d="
  M 623.51 724.05
  L 585.50 724.01"
/>
<path stroke="#0d0d0d" vector-effect="non-scaling-stroke" d="
  M 822.50 723.71
  L 724.74 723.99
  A 0.74 0.73 90.0 0 0 724.01 724.73
  L 724.00 754.25"
/>
<path stroke="#54332b" vector-effect="non-scaling-stroke" d="
  M 724.00 754.25
  Q 696.18 754.23 668.36 754.27
  C 653.90 754.29 640.15 759.96 627.57 766.57
  C 591.32 785.61 557.32 812.43 526.64 839.38
  Q 525.52 840.36 524.00 840.35
  Q 504.77 840.13 485.90 839.93
  A 2.17 2.17 0.0 0 1 483.75 837.76
  L 483.75 799.25
  A 2.50 2.50 0.0 0 1 486.25 796.75
  L 523.70 796.75
  Q 524.13 796.75 524.45 796.46
  C 553.54 770.80 587.62 744.09 623.05 724.79
  Q 623.44 724.57 623.51 724.05"
/>
<path stroke="#401c13" vector-effect="non-scaling-stroke" d="
  M 823.95 724.40
  C 859.76 743.47 893.02 769.53 923.25 796.37
  A 1.54 1.51 -23.9 0 0 924.26 796.75
  L 961.75 796.75
  A 2.50 2.50 0.0 0 1 964.25 799.25
  L 964.25 837.53
  A 2.72 2.71 -0.0 0 1 961.53 840.24
  L 923.22 840.25
  A 3.69 3.69 0.0 0 1 920.76 839.31
  Q 885.95 808.04 846.60 781.97
  C 830.46 771.28 810.65 759.45 791.54 755.50
  Q 785.33 754.22 774.88 754.23
  Q 749.43 754.27 724.00 754.25"
/>
<path stroke="#4d4d4d" vector-effect="non-scaling-stroke" d="
  M 723.97 710.79
  L 723.98 723.44
  Q 723.98 723.96 723.45 723.96
  L 625.67 723.92"
/>
</g>
<path fill="#ffffff" d="
  M 719.50 979.18
  C 536.99 896.25 354.34 813.60 172.02 730.28
  Q 170.60 729.63 169.62 727.27
  C 167.63 722.50 169.92 718.62 174.52 716.53
  Q 448.16 592.16 721.80 467.78
  C 723.42 467.04 726.30 467.84 728.19 468.70
  Q 1000.82 592.61 1273.44 716.54
  C 1281.03 719.99 1280.86 728.08 1273.30 731.52
  Q 1001.30 855.18 729.28 978.81
  C 725.37 980.59 723.68 981.07 719.50 979.18
  Z
  M 175.48 726.29
  L 722.71 975.04
  A 3.06 3.06 0.0 0 0 725.23 975.04
  Q 998.46 850.84 1272.17 726.39
  Q 1274.26 725.44 1273.64 723.19
  A 2.42 2.42 0.0 0 0 1272.31 721.63
  L 725.24 472.96
  A 3.05 3.02 44.8 0 0 722.71 472.96
  L 175.48 721.70
  A 2.52 2.52 0.0 0 0 175.48 726.29
  Z"
/>
<path fill="#000000" d="
  M 722.71 975.04
  L 175.48 726.29
  A 2.52 2.52 0.0 0 1 175.48 721.70
  L 722.71 472.96
  A 3.05 3.02 44.8 0 1 725.24 472.96
  L 1272.31 721.63
  A 2.42 2.42 0.0 0 1 1273.64 723.19
  Q 1274.26 725.44 1272.17 726.39
  Q 998.46 850.84 725.23 975.04
  A 3.06 3.06 0.0 0 1 722.71 975.04
  Z
  M 183.99 724.29
  L 723.88 969.97
  Q 723.99 970.02 724.11 969.97
  Q 724.26 969.91 724.34 969.85
  L 1264.00 724.55
  Q 1264.68 724.50 1264.68 724.07
  A 0.44 0.43 13.2 0 0 1264.42 723.66
  L 724.03 478.29
  L 723.80 478.15
  Q 723.70 478.09 723.59 478.13
  L 183.42 723.67
  A 0.30 0.29 -53.4 0 0 183.50 724.23
  L 183.99 724.29
  Z"
/>
<path fill="#c09c93" d="
  M 724.03 478.29
  L 724.00 572.74
  Q 697.67 572.74 671.33 572.77
  C 660.80 572.78 652.93 574.06 643.75 577.49
  C 624.02 584.86 605.70 596.00 588.48 607.99
  Q 554.93 631.35 524.49 658.37
  A 1.54 1.51 23.9 0 1 523.48 658.75
  L 485.73 658.75
  A 2.03 2.03 0.0 0 0 483.70 660.78
  L 483.63 699.19
  Q 483.62 702.00 486.44 702.00
  L 525.51 702.00
  A 1.39 1.36 23.7 0 0 526.43 701.65
  C 556.28 675.21 588.36 650.25 623.19 630.70
  C 638.04 622.36 653.66 615.99 670.75 616.00
  Q 697.36 616.00 723.96 616.00
  Q 723.98 616.05 724.01 616.10
  L 724.00 641.75
  Q 699.58 641.81 675.15 641.74
  C 665.37 641.72 656.77 642.05 648.77 644.73
  Q 627.58 651.81 605.27 666.04
  Q 565.28 691.55 529.70 722.97
  Q 529.39 723.25 529.51 724.00
  L 527.76 724.00
  L 185.61 724.00
  Q 185.12 724.00 184.66 724.17
  Q 184.35 724.29 183.99 724.29
  L 183.50 724.23
  A 0.30 0.29 -53.4 0 1 183.42 723.67
  L 723.59 478.13
  Q 723.70 478.09 723.80 478.15
  L 724.03 478.29
  Z"
/>
<path fill="#8d4c3c" d="
  M 724.03 478.29
  L 1264.42 723.66
  A 0.44 0.43 13.2 0 1 1264.68 724.07
  Q 1264.68 724.50 1264.00 724.55
  Q 1263.01 724.22 1262.00 724.22
  Q 1093.12 724.00 924.25 723.97
  Q 922.16 723.97 919.90 724.29
  L 918.79 723.46
  Q 883.66 692.45 844.36 667.19
  C 829.11 657.39 809.95 646.60 791.18 643.01
  Q 784.30 641.69 771.26 641.72
  Q 747.62 641.79 724.00 641.75
  L 724.01 616.10
  Q 742.33 615.82 760.57 616.13
  C 766.84 616.24 776.35 615.71 784.24 616.36
  C 802.43 617.87 820.91 627.94 836.20 637.33
  C 866.62 656.02 894.72 678.12 921.53 701.64
  A 1.45 1.43 65.3 0 0 922.48 702.00
  L 961.75 702.00
  A 2.50 2.50 0.0 0 0 964.25 699.50
  L 964.25 661.00
  A 2.25 2.25 0.0 0 0 962.00 658.75
  L 924.51 658.75
  Q 924.04 658.75 923.68 658.44
  C 892.55 631.09 854.80 601.19 815.29 581.95
  C 802.46 575.71 789.74 572.67 775.03 572.71
  Q 749.50 572.80 724.00 572.74
  L 724.03 478.29
  Z"
/>
<path fill="#808080" d="
  M 724.00 572.74
  L 723.96 616.00
  Q 697.36 616.00 670.75 616.00
  C 653.66 615.99 638.04 622.36 623.19 630.70
  C 588.36 650.25 556.28 675.21 526.43 701.65
  A 1.39 1.36 23.7 0 1 525.51 702.00
  L 486.44 702.00
  Q 483.62 702.00 483.63 699.19
  L 483.70 660.78
  A 2.03 2.03 0.0 0 1 485.73 658.75
  L 523.48 658.75
  A 1.54 1.51 23.9 0 0 524.49 658.37
  Q 554.93 631.35 588.48 607.99
  C 605.70 596.00 624.02 584.86 643.75 577.49
  C 652.93 574.06 660.80 572.78 671.33 572.77
  Q 697.67 572.74 724.00 572.74
  Z"
/>
<path fill="#1a1a1a" d="
  M 724.00 572.74
  Q 749.50 572.80 775.03 572.71
  C 789.74 572.67 802.46 575.71 815.29 581.95
  C 854.80 601.19 892.55 631.09 923.68 658.44
  Q 924.04 658.75 924.51 658.75
  L 962.00 658.75
  A 2.25 2.25 0.0 0 1 964.25 661.00
  L 964.25 699.50
  A 2.50 2.50 0.0 0 1 961.75 702.00
  L 922.48 702.00
  A 1.45 1.43 65.3 0 1 921.53 701.64
  C 894.72 678.12 866.62 656.02 836.20 637.33
  C 820.91 627.94 802.43 617.87 784.24 616.36
  C 776.35 615.71 766.84 616.24 760.57 616.13
  Q 742.33 615.82 724.01 616.10
  Q 723.98 616.05 723.96 616.00
  L 724.00 572.74
  Z"
/>
<path fill="#808080" d="
  M 724.00 641.75
  L 724.00 685.07
  Q 697.45 685.37 670.97 685.23
  C 652.79 685.14 637.50 691.82 621.96 700.48
  Q 603.21 710.93 585.77 723.44
  Q 585.74 723.46 585.65 723.49
  Q 585.45 723.57 585.50 724.01
  Q 585.06 724.28 584.49 724.29
  L 529.51 724.00
  Q 529.39 723.25 529.70 722.97
  Q 565.28 691.55 605.27 666.04
  Q 627.58 651.81 648.77 644.73
  C 656.77 642.05 665.37 641.72 675.15 641.74
  Q 699.58 641.81 724.00 641.75
  Z"
/>
<path fill="#1a1a1a" d="
  M 724.00 641.75
  Q 747.62 641.79 771.26 641.72
  Q 784.30 641.69 791.18 643.01
  C 809.95 646.60 829.11 657.39 844.36 667.19
  Q 883.66 692.45 918.79 723.46
  Q 915.52 724.00 913.50 724.00
  Q 888.47 723.99 863.12 724.00
  L 862.60 723.88
  Q 837.10 704.99 810.21 692.54
  Q 801.76 688.63 792.28 686.62
  Q 786.14 685.31 776.64 685.25
  Q 750.38 685.07 723.92 685.08
  Q 723.96 685.08 724.00 685.07
  L 724.00 641.75
  Z"
/>
<path fill="#c09c93" d="
  M 724.00 685.07
  Q 723.96 685.08 723.92 685.08
  L 723.99 710.90
  Q 723.98 710.84 723.97 710.79
  Q 697.06 710.84 670.15 711.00
  C 654.14 711.10 639.57 715.82 625.67 723.92
  L 623.51 724.05
  L 585.50 724.01
  Q 585.45 723.57 585.65 723.49
  Q 585.74 723.46 585.77 723.44
  Q 603.21 710.93 621.96 700.48
  C 637.50 691.82 652.79 685.14 670.97 685.23
  Q 697.45 685.37 724.00 685.07
  Z"
/>
<path fill="#8d4c3c" d="
  M 862.60 723.88
  Q 846.33 724.13 830.27 723.95
  C 828.83 723.93 827.03 724.66 825.13 723.90
  Q 824.65 723.70 824.29 724.07
  L 823.95 724.40
  L 822.50 723.71
  C 811.62 717.92 797.14 711.72 784.75 711.07
  C 765.15 710.03 744.19 711.18 723.99 710.90
  L 723.92 685.08
  Q 750.38 685.07 776.64 685.25
  Q 786.14 685.31 792.28 686.62
  Q 801.76 688.63 810.21 692.54
  Q 837.10 704.99 862.60 723.88
  Z"
/>
<path fill="#808080" d="
  M 723.97 710.79
  L 723.98 723.44
  Q 723.98 723.96 723.45 723.96
  L 625.67 723.92
  C 639.57 715.82 654.14 711.10 670.15 711.00
  Q 697.06 710.84 723.97 710.79
  Z"
/>
<path fill="#1a1a1a" d="
  M 723.99 710.90
  C 744.19 711.18 765.15 710.03 784.75 711.07
  C 797.14 711.72 811.62 717.92 822.50 723.71
  L 724.74 723.99
  A 0.74 0.73 90.0 0 0 724.01 724.73
  L 724.00 754.25
  Q 696.18 754.23 668.36 754.27
  C 653.90 754.29 640.15 759.96 627.57 766.57
  C 591.32 785.61 557.32 812.43 526.64 839.38
  Q 525.52 840.36 524.00 840.35
  Q 504.77 840.13 485.90 839.93
  A 2.17 2.17 0.0 0 1 483.75 837.76
  L 483.75 799.25
  A 2.50 2.50 0.0 0 1 486.25 796.75
  L 523.70 796.75
  Q 524.13 796.75 524.45 796.46
  C 553.54 770.80 587.62 744.09 623.05 724.79
  Q 623.44 724.57 623.51 724.05
  L 625.67 723.92
  L 723.45 723.96
  Q 723.98 723.96 723.98 723.44
  L 723.97 710.79
  Q 723.98 710.84 723.99 710.90
  Z"
/>
<path fill="#000000" d="
  M 918.79 723.46
  L 919.90 724.29
  L 923.56 727.42
  Q 923.94 727.75 924.44 727.75
  L 962.00 727.75
  A 2.25 2.25 0.0 0 1 964.25 730.00
  L 964.25 768.75
  A 2.25 2.25 0.0 0 1 962.00 771.00
  L 922.26 771.00
  A 1.15 1.13 -24.0 0 1 921.51 770.72
  Q 893.50 746.10 863.12 724.00
  Q 888.47 723.99 913.50 724.00
  Q 915.52 724.00 918.79 723.46
  Z"
/>
<path fill="#000000" d="
  M 822.50 723.71
  L 823.95 724.40
  C 859.76 743.47 893.02 769.53 923.25 796.37
  A 1.54 1.51 -23.9 0 0 924.26 796.75
  L 961.75 796.75
  A 2.50 2.50 0.0 0 1 964.25 799.25
  L 964.25 837.53
  A 2.72 2.71 -0.0 0 1 961.53 840.24
  L 923.22 840.25
  A 3.69 3.69 0.0 0 1 920.76 839.31
  Q 885.95 808.04 846.60 781.97
  C 830.46 771.28 810.65 759.45 791.54 755.50
  Q 785.33 754.22 774.88 754.23
  Q 749.43 754.27 724.00 754.25
  L 724.01 724.73
  A 0.74 0.73 -90.0 0 1 724.74 723.99
  L 822.50 723.71
  Z"
/>
<path fill="#803826" d="
  M 862.60 723.88
  L 863.12 724.00
  Q 893.50 746.10 921.51 770.72
  A 1.15 1.13 -24.0 0 0 922.26 771.00
  L 962.00 771.00
  A 2.25 2.25 0.0 0 0 964.25 768.75
  L 964.25 730.00
  A 2.25 2.25 0.0 0 0 962.00 727.75
  L 924.44 727.75
  Q 923.94 727.75 923.56 727.42
  L 919.90 724.29
  Q 922.16 723.97 924.25 723.97
  Q 1093.12 724.00 1262.00 724.22
  Q 1263.01 724.22 1264.00 724.55
  L 724.34 969.85
  Q 724.30 969.63 724.25 969.48
  Q 724.06 968.95 724.06 968.82
  L 724.00 754.25
  Q 749.43 754.27 774.88 754.23
  Q 785.33 754.22 791.54 755.50
  C 810.65 759.45 830.46 771.28 846.60 781.97
  Q 885.95 808.04 920.76 839.31
  A 3.69 3.69 0.0 0 0 923.22 840.25
  L 961.53 840.24
  A 2.72 2.71 0.0 0 0 964.25 837.53
  L 964.25 799.25
  A 2.50 2.50 0.0 0 0 961.75 796.75
  L 924.26 796.75
  A 1.54 1.51 -23.9 0 1 923.25 796.37
  C 893.02 769.53 859.76 743.47 823.95 724.40
  L 824.29 724.07
  Q 824.65 723.70 825.13 723.90
  C 827.03 724.66 828.83 723.93 830.27 723.95
  Q 846.33 724.13 862.60 723.88
  Z"
/>
<path fill="#8d4c3c" d="
  M 527.76 724.00
  C 526.36 726.19 524.78 727.76 521.92 727.75
  Q 503.70 727.73 485.88 727.76
  A 2.28 2.27 -0.1 0 0 483.60 730.04
  L 483.77 768.64
  A 2.37 2.37 0.0 0 0 486.14 771.00
  L 525.73 771.00
  Q 526.14 771.00 526.45 770.73
  Q 554.33 746.06 584.49 724.29
  Q 585.06 724.28 585.50 724.01
  L 623.51 724.05
  Q 623.44 724.57 623.05 724.79
  C 587.62 744.09 553.54 770.80 524.45 796.46
  Q 524.13 796.75 523.70 796.75
  L 486.25 796.75
  A 2.50 2.50 0.0 0 0 483.75 799.25
  L 483.75 837.76
  A 2.17 2.17 0.0 0 0 485.90 839.93
  Q 504.77 840.13 524.00 840.35
  Q 525.52 840.36 526.64 839.38
  C 557.32 812.43 591.32 785.61 627.57 766.57
  C 640.15 759.96 653.90 754.29 668.36 754.27
  Q 696.18 754.23 724.00 754.25
  L 724.06 968.82
  Q 724.06 968.95 724.25 969.48
  Q 724.30 969.63 724.34 969.85
  Q 724.26 969.91 724.11 969.97
  Q 723.99 970.02 723.88 969.97
  L 183.99 724.29
  Q 184.35 724.29 184.66 724.17
  Q 185.12 724.00 185.61 724.00
  L 527.76 724.00
  Z"
/>
<path fill="#1a1a1a" d="
  M 527.76 724.00
  L 529.51 724.00
  L 584.49 724.29
  Q 554.33 746.06 526.45 770.73
  Q 526.14 771.00 525.73 771.00
  L 486.14 771.00
  A 2.37 2.37 0.0 0 1 483.77 768.64
  L 483.60 730.04
  A 2.28 2.27 -0.1 0 1 485.88 727.76
  Q 503.70 727.73 521.92 727.75
  C 524.78 727.76 526.36 726.19 527.76 724.00
  Z"
/>
</svg>
