<svg xmlns="http://www.w3.org/2000/svg" viewBox="0 0 1448 1448">
  <g fill="none" stroke-width="2">
    <path stroke="gray" d="m175 726 548 249a3 3 0 0 0 2 0l547-249q2-1 2-3a2 2 0 0 0-2-1L725 473a3 3 45 0 0-2 0L175 722a3 3 0 0 0 0 4" vector-effect="non-scaling-stroke"/>
    <path stroke="#47261e" d="m1264 725 1-1h-1L724 478" vector-effect="non-scaling-stroke"/>
    <path stroke="#604e4a" d="M724 478 183 724h1" vector-effect="non-scaling-stroke"/>
    <path stroke="#a77468" d="M724 478v95" vector-effect="non-scaling-stroke"/>
    <path stroke="#a08e8a" d="M724 573h-53c-10 0-18 1-27 4-20 8-38 19-56 31q-33 23-64 50a2 2 24 0 1-1 1h-37a2 2 0 0 0-2 2v38q0 3 2 3h40c30-27 62-52 97-71 15-9 31-15 48-15h53" vector-effect="non-scaling-stroke"/>
    <path stroke="#a77468" d="M724 616v26" vector-effect="non-scaling-stroke"/>
    <path stroke="#a08e8a" d="M724 642h-49c-10 0-18 0-26 3q-21 7-44 21-40 26-75 57v1" vector-effect="non-scaling-stroke"/>
    <path stroke="#6d5b57" d="M530 724h-2" vector-effect="non-scaling-stroke"/>
    <path stroke="#a77468" d="M528 724H184" vector-effect="non-scaling-stroke"/>
    <path stroke="#0d0d0d" d="m919 723-5 1h-51" vector-effect="non-scaling-stroke"/>
    <path stroke="#54332b" d="M863 724q-26-19-53-31-8-4-18-6-6-2-15-2h-53" vector-effect="non-scaling-stroke"/>
    <path stroke="#874231" d="m1264 725-2-1H920" vector-effect="non-scaling-stroke"/>
    <path stroke="#54332b" d="M919 723q-35-31-75-56c-15-10-34-20-53-24l-20-1h-47" vector-effect="non-scaling-stroke"/>
    <path stroke="#54332b" d="M724 616h60c18 2 37 12 52 21 31 19 59 41 86 65h40a3 3 0 0 0 2-2v-39a2 2 0 0 0-2-2h-37l-1-1c-31-27-69-57-109-76-13-6-25-9-40-9h-51" vector-effect="non-scaling-stroke"/>
    <path stroke="#4d4d4d" d="M724 642v43" vector-effect="non-scaling-stroke"/>
    <path stroke="#a08e8a" d="M724 685h-53c-18 0-33 7-49 15l-36 23v1" vector-effect="non-scaling-stroke"/>
    <path stroke="#87665e" d="M586 724h-2" vector-effect="non-scaling-stroke"/>
    <path stroke="#4d4d4d" d="M584 724h-54m194-151v43" vector-effect="non-scaling-stroke"/>
    <path stroke="#54332b" d="M528 724c-2 2-3 4-6 4h-36a2 2 0 0 0-2 2v39a2 2 0 0 0 2 2h40q28-25 58-47" vector-effect="non-scaling-stroke"/>
    <path stroke="#401c13" d="m920 724 4 3v1h38a2 2 0 0 1 2 2v39a2 2 0 0 1-2 2h-40q-28-25-59-47" vector-effect="non-scaling-stroke"/>
    <path stroke="#874231" d="M724 970V754m139-30h-39" vector-effect="non-scaling-stroke"/>
    <path stroke="#47261e" d="M824 724h-1" vector-effect="non-scaling-stroke"/>
    <path stroke="#54332b" d="M823 724c-11-6-26-12-38-13h-61" vector-effect="non-scaling-stroke"/>
    <path stroke="#a77468" d="M724 685v26" vector-effect="non-scaling-stroke"/>
    <path stroke="#a08e8a" d="M724 711h-54c-16 0-30 5-44 13" vector-effect="non-scaling-stroke"/>
    <path stroke="#6d5b57" d="M626 724h-2" vector-effect="non-scaling-stroke"/>
    <path stroke="#a77468" d="M624 724h-38" vector-effect="non-scaling-stroke"/>
    <path stroke="#0d0d0d" d="M823 724h-98a1 1 90 0 0-1 1v29" vector-effect="non-scaling-stroke"/>
    <path stroke="#54332b" d="M724 754h-56c-14 0-28 6-40 13-37 19-71 45-101 72l-3 1h-38a2 2 0 0 1-2-2v-39a3 3 0 0 1 2-2h38v-1c30-25 64-52 99-71l1-1" vector-effect="non-scaling-stroke"/>
    <path stroke="#401c13" d="M824 724c36 19 69 46 99 72a2 2-24 0 0 1 1h38a3 3 0 0 1 2 2v39a3 3 0 0 1-2 2h-39a4 4 0 0 1-2-1q-35-31-74-57c-17-11-36-23-55-26q-7-2-17-2h-51" vector-effect="non-scaling-stroke"/>
    <path stroke="#4d4d4d" d="M724 711v12l-1 1h-97" vector-effect="non-scaling-stroke"/>
  </g>
  <path fill="#fff" d="M720 979c-183-83-366-165-548-249l-2-3c-2-4 0-8 5-10l547-249c1-1 4 0 6 1l545 248c8 3 8 11 0 15L729 979c-4 2-5 2-9 0ZM175 726l548 249a3 3 0 0 0 2 0l547-249q2-1 2-3a2 2 0 0 0-2-1L725 473a3 3 45 0 0-2 0L175 722a3 3 0 0 0 0 4Z"/>
  <path d="M723 975 175 726a3 3 0 0 1 0-4l548-249a3 3 45 0 1 2 0l547 249a2 2 0 0 1 2 1q0 2-2 3L725 975a3 3 0 0 1-2 0ZM184 724l540 246 540-245 1-1h-1L724 478 183 724h1Z"/>
  <path fill="#c09c93" d="M724 478v95h-53c-10 0-18 1-27 4-20 8-38 19-56 31q-33 23-64 50a2 2 24 0 1-1 1h-37a2 2 0 0 0-2 2v38q0 3 2 3h40c30-27 62-52 97-71 15-9 31-15 48-15h53v26h-49c-10 0-18 0-26 3q-21 7-44 21-40 26-75 57v1H183l541-246Z"/>
  <path fill="#8d4c3c" d="m724 478 540 246h1l-1 1-2-1H920l-1-1q-35-31-75-56c-15-10-34-20-53-24l-20-1h-47v-26h60c18 2 37 12 52 21 31 19 59 41 86 65h40a3 3 0 0 0 2-2v-39a2 2 0 0 0-2-2h-37l-1-1c-31-27-69-57-109-76-13-6-25-9-40-9h-51v-95Z"/>
  <path fill="gray" d="M724 573v43h-53c-17 0-33 6-48 15-35 19-67 44-97 71h-40q-2 0-2-3v-38a2 2 0 0 1 2-2h37a2 2 24 0 0 1-1q31-27 64-50c18-12 36-23 56-31 9-3 17-4 27-4h53Z"/>
  <path fill="#1a1a1a" d="M724 573h51c15 0 27 3 40 9 40 19 78 49 109 76l1 1h37a2 2 0 0 1 2 2v39a3 3 0 0 1-2 2h-40c-27-24-55-46-86-65-15-9-34-19-52-21h-60v-43Z"/>
  <path fill="gray" d="M724 642v43h-53c-18 0-33 7-49 15l-36 23v1h-56v-1q35-31 75-57 23-14 44-21c8-3 16-3 26-3h49Z"/>
  <path fill="#1a1a1a" d="M724 642h47l20 1c19 4 38 14 53 24q40 25 75 56l-5 1h-51q-26-19-53-31-8-4-18-6-6-2-15-2h-53v-43Z"/>
  <path fill="#c09c93" d="M724 685v26h-54c-16 0-30 5-44 13h-40v-1l36-23c16-8 31-15 49-15h53Z"/>
  <path fill="#8d4c3c" d="M863 724h-40c-11-6-26-12-38-13h-61v-26h53q9 0 15 2 10 2 18 6 27 12 53 31Z"/>
  <path fill="gray" d="M724 711v12l-1 1h-97c14-8 28-13 44-13h54Z"/>
  <path fill="#1a1a1a" d="M724 711h61c12 1 27 7 38 13h-98a1 1 90 0 0-1 1v29h-56c-14 0-28 6-40 13-37 19-71 45-101 72l-3 1h-38a2 2 0 0 1-2-2v-39a3 3 0 0 1 2-2h38v-1c30-25 64-52 99-71l1-1h99l1-1v-12Z"/>
  <path d="m919 723 1 1 4 3v1h38a2 2 0 0 1 2 2v39a2 2 0 0 1-2 2h-40q-28-25-59-47h51l5-1Zm-96 1h1c36 19 69 46 99 72a2 2-24 0 0 1 1h38a3 3 0 0 1 2 2v39a3 3 0 0 1-2 2h-39a4 4 0 0 1-2-1q-35-31-74-57c-17-11-36-23-55-26q-7-2-17-2h-51v-29a1 1-90 0 1 1-1h98Z"/>
  <path fill="#803826" d="M863 724q31 22 59 47h40a2 2 0 0 0 2-2v-39a2 2 0 0 0-2-2h-38v-1l-4-3h342l2 1-540 245V754h51q10 0 17 2c19 3 38 15 55 26q39 26 74 57a4 4 0 0 0 2 1h39a3 3 0 0 0 2-2v-39a3 3 0 0 0-2-2h-38a2 2-24 0 1-1-1c-30-26-63-53-99-72h39Z"/>
  <path fill="#8d4c3c" d="M528 724c-2 2-3 4-6 4h-36a2 2 0 0 0-2 2v39a2 2 0 0 0 2 2h40q28-25 58-47h40l-1 1c-35 19-69 46-99 71v1h-38a3 3 0 0 0-2 2v39a2 2 0 0 0 2 2h38l3-1c30-27 64-53 101-72 12-7 26-13 40-13h56v216L184 724h344Z"/>
  <path fill="#1a1a1a" d="M528 724h56q-30 22-58 47h-40a2 2 0 0 1-2-2v-39a2 2 0 0 1 2-2h36c3 0 4-2 6-4Z"/>
</svg>
