<?xml version="1.0" encoding="UTF-8" standalone="no"?>
<!DOCTYPE svg PUBLIC "-//W3C//DTD SVG 1.1//EN" "http://www.w3.org/Graphics/SVG/1.1/DTD/svg11.dtd">
<svg xmlns="http://www.w3.org/2000/svg" version="1.1" viewBox="0.00 0.00 1280.00 1280.00">
<g stroke-width="2.00" fill="none" stroke-linecap="butt">
<path stroke="#76797a" vector-effect="non-scaling-stroke" d="
  M 155.53 642.20
  C 316.12 715.35 476.83 788.27 637.49 861.28
  C 640.58 862.68 640.80 862.04 643.39 860.86
  Q 884.18 751.43 1124.81 642.04
  A 2.25 2.25 0.0 0 0 1125.99 639.23
  Q 1125.87 638.89 1125.34 638.38
  Q 1125.00 638.05 1124.46 637.81
  Q 882.73 527.93 640.67 417.90
  A 1.68 1.68 0.0 0 0 639.27 417.90
  Q 399.16 527.04 158.79 636.26
  Q 156.94 637.10 155.14 638.07
  C 153.03 639.20 153.55 641.29 155.53 642.20"
/>
<path stroke="#6e7476" vector-effect="non-scaling-stroke" d="
  M 256.47 683.12
  L 639.52 857.25
  Q 640.01 857.47 640.49 857.25
  L 1117.81 640.28
  Q 1118.36 640.03 1117.81 639.78
  L 640.81 422.96"
/>
<path stroke="#76797a" vector-effect="non-scaling-stroke" d="
  M 640.81 422.96
  L 640.46 422.72
  A 0.88 0.87 49.3 0 0 639.63 422.65
  L 162.19 639.69
  Q 161.60 639.96 162.19 640.22
  L 256.47 683.12"
/>
<path stroke="#e4edf0" vector-effect="non-scaling-stroke" d="
  M 640.81 422.96
  Q 640.84 423.68 640.06 424.27
  Q 639.67 424.56 639.68 425.04
  L 640.07 466.99"
/>
<path stroke="#76797a" vector-effect="non-scaling-stroke" d="
  M 640.07 466.99
  L 639.34 467.67"
/>
<path stroke="#b6b9ba" vector-effect="non-scaling-stroke" d="
  M 639.34 467.67
  L 615.06 491.86
  Q 614.76 492.16 615.06 492.46
  L 632.87 510.23
  A 0.54 0.53 -36.4 0 1 632.74 511.08
  L 521.78 569.63
  Q 521.23 569.92 521.06 569.32
  L 513.97 545.00
  Q 513.81 544.46 513.27 544.61
  L 479.85 554.32
  Q 479.35 554.47 479.50 554.96
  L 489.26 588.18
  A 0.60 0.60 0.0 0 0 490.00 588.58
  L 514.22 581.48
  Q 514.76 581.32 514.76 581.89
  L 514.75 639.46"
/>
<path stroke="#e4edf0" vector-effect="non-scaling-stroke" d="
  M 514.75 639.46
  Q 514.35 639.52 514.02 639.73
  Q 513.61 639.99 513.12 639.99
  Q 342.06 640.01 171.00 640.02
  Q 169.62 640.02 168.81 639.22
  Q 168.46 638.88 168.01 639.07
  L 166.35 639.75
  A 0.60 0.59 -43.0 0 0 166.31 640.83
  C 169.00 642.18 172.85 643.28 175.23 644.87
  Q 175.64 645.15 176.09 645.35
  L 218.02 664.29
  Q 227.13 668.41 232.76 670.71
  Q 233.62 671.06 244.16 676.25
  C 247.21 677.76 252.19 679.30 255.89 681.84
  Q 256.22 682.07 256.40 682.36
  Q 256.77 682.98 256.47 683.12"
/>
<path stroke="#aeb4b6" vector-effect="non-scaling-stroke" d="
  M 514.75 639.46
  Q 515.01 639.51 515.05 639.96"
/>
<path stroke="#7b8183" vector-effect="non-scaling-stroke" d="
  M 515.05 639.96
  L 514.71 698.15
  Q 514.71 698.69 514.19 698.54
  L 490.19 691.50
  Q 489.42 691.27 489.19 692.04
  L 479.60 724.81
  A 0.85 0.84 16.4 0 0 480.18 725.86
  L 508.77 734.15"
/>
<path stroke="#e4edf0" vector-effect="non-scaling-stroke" d="
  M 508.77 734.15
  Q 508.43 734.39 508.24 734.73
  A 0.48 0.47 -68.6 0 0 508.53 735.41
  L 512.88 736.60
  A 1.93 1.92 14.5 0 0 515.26 735.21
  Q 516.66 729.59 518.53 724.08
  C 519.55 721.08 520.40 716.46 522.20 712.85
  Q 522.44 712.36 522.92 712.62
  Q 528.82 715.79 534.89 718.62
  C 536.56 719.40 537.99 720.95 540.16 721.41
  Q 540.64 721.51 541.02 721.82
  Q 541.70 722.38 543.45 723.29
  C 566.85 735.56 590.28 747.80 613.53 760.34
  Q 614.17 760.69 614.65 760.77
  Q 615.93 760.98 615.77 760.00"
/>
<path stroke="#7b8183" vector-effect="non-scaling-stroke" d="
  M 615.77 760.00
  L 632.82 768.98
  A 0.46 0.46 0.0 0 1 632.93 769.71
  L 615.29 787.29
  Q 614.94 787.64 615.15 788.09
  Q 615.91 789.76 617.39 789.85"
/>
<path stroke="#6e7476" vector-effect="non-scaling-stroke" d="
  M 617.39 789.85
  L 639.71 812.68
  Q 640.07 813.04 640.42 812.68
  L 664.96 788.20
  Q 665.30 787.86 664.96 787.53
  L 647.07 769.72
  Q 646.62 769.28 647.18 768.98
  L 758.15 710.39
  Q 758.66 710.12 758.83 710.67
  L 765.94 735.03
  Q 766.11 735.62 766.70 735.45
  L 799.62 725.85
  Q 800.63 725.56 800.33 724.55
  L 790.77 692.04
  A 0.79 0.78 -16.2 0 0 789.79 691.51
  L 765.74 698.51
  A 0.43 0.43 0.0 0 1 765.19 698.10
  L 765.14 640.76"
/>
<path stroke="#7b8183" vector-effect="non-scaling-stroke" d="
  M 765.14 640.76
  L 765.18 581.92
  A 0.46 0.46 0.0 0 1 765.77 581.48
  L 790.02 588.53
  Q 790.55 588.68 790.70 588.16
  L 800.49 554.81
  A 0.36 0.36 0.0 0 0 800.24 554.36
  L 766.74 544.57
  Q 766.15 544.40 765.98 544.99
  L 758.86 569.40
  Q 758.71 569.91 758.25 569.66
  L 742.56 561.31"
/>
<path stroke="#e4edf0" vector-effect="non-scaling-stroke" d="
  M 742.56 561.31
  Q 740.11 558.02 734.96 556.54
  Q 734.81 556.50 734.65 556.51
  Q 734.22 556.55 734.19 556.05
  A 0.66 0.66 0.0 0 0 733.83 555.48
  Q 693.40 534.31 653.10 512.89
  Q 652.68 512.66 652.40 512.78
  Q 651.99 512.95 651.96 513.53"
/>
<path stroke="#7b8183" vector-effect="non-scaling-stroke" d="
  M 651.96 513.53
  L 647.16 511.05
  Q 646.64 510.78 647.05 510.36
  L 648.76 508.60"
/>
<path stroke="#6e7476" vector-effect="non-scaling-stroke" d="
  M 648.76 508.60
  L 664.85 492.52
  Q 665.22 492.15 664.85 491.78
  L 640.07 466.99"
/>
<path stroke="#4d4d4d" vector-effect="non-scaling-stroke" d="
  M 640.00 471.29
  L 640.01 527.52"
/>
<path stroke="#b6b9ba" vector-effect="non-scaling-stroke" d="
  M 640.01 527.52
  L 533.33 583.88
  Q 532.83 584.14 532.83 584.70
  L 532.81 639.25"
/>
<path stroke="#aeb4b6" vector-effect="non-scaling-stroke" d="
  M 532.81 639.25
  Q 532.25 639.85 532.74 639.87"
/>
<path stroke="#4d4d4d" vector-effect="non-scaling-stroke" d="
  M 532.74 639.87
  L 515.05 639.96"
/>
<path stroke="#0d0d0d" vector-effect="non-scaling-stroke" d="
  M 648.76 508.60
  Q 648.20 508.67 648.54 507.47
  Q 648.68 506.98 649.11 506.56
  Q 654.98 500.67 661.87 493.90
  A 2.48 2.47 -44.7 0 0 661.90 490.39
  L 642.93 471.29
  Q 642.57 470.93 642.07 471.00
  L 640.00 471.29"
/>
<path stroke="#404040" vector-effect="non-scaling-stroke" d="
  M 640.00 471.29
  Q 640.31 469.17 639.34 467.67"
/>
<path stroke="#838687" vector-effect="non-scaling-stroke" d="
  M 536.75 697.98
  L 569.29 715.15"
/>
<path stroke="#838687" vector-effect="non-scaling-stroke" d="
  M 615.77 760.00
  L 521.70 710.36
  Q 521.24 710.12 521.10 710.62
  L 513.99 734.99
  A 0.74 0.73 -73.1 0 1 513.06 735.49
  L 508.77 734.15"
/>
<path stroke="#0d0d0d" vector-effect="non-scaling-stroke" d="
  M 617.39 789.85
  Q 628.41 799.45 638.36 809.97
  Q 638.44 810.06 638.46 810.18
  Q 638.50 810.39 638.51 810.42
  A 0.74 0.73 -51.2 0 0 639.97 810.25
  L 639.94 755.04
  Q 639.94 754.64 639.78 754.28
  Q 639.19 752.99 637.92 752.97
  Q 637.43 752.96 636.99 752.74
  C 635.91 752.20 634.90 751.32 633.94 750.81
  Q 601.68 733.83 569.45 716.79
  Q 568.76 716.43 568.85 715.70
  Q 568.88 715.45 569.08 715.29
  Q 569.17 715.22 569.29 715.15"
/>
<path stroke="#76797a" vector-effect="non-scaling-stroke" d="
  M 569.29 715.15
  L 639.55 752.25
  Q 639.99 752.48 640.42 752.25
  L 649.29 747.51"
/>
<path stroke="#838687" vector-effect="non-scaling-stroke" d="
  M 651.96 513.53
  L 742.56 561.31"
/>
<path stroke="#0d0d0d" vector-effect="non-scaling-stroke" d="
  M 765.14 640.76
  L 764.98 640.01
  Q 764.89 639.59 764.45 639.62
  Q 755.93 640.39 747.29 639.70"
/>
<path stroke="#7b8183" vector-effect="non-scaling-stroke" d="
  M 747.29 639.70
  L 747.16 584.68
  Q 747.16 584.16 746.70 583.92
  L 743.36 582.11"
/>
<path stroke="#838687" vector-effect="non-scaling-stroke" d="
  M 743.36 582.11
  L 640.01 527.52"
/>
<path stroke="#e4edf0" vector-effect="non-scaling-stroke" d="
  M 743.36 582.11
  Q 742.90 583.27 742.28 582.94
  Q 702.20 561.74 662.08 540.61
  C 660.36 539.70 658.10 539.23 656.41 537.31
  Q 656.07 536.92 655.57 536.82
  C 653.30 536.37 651.23 534.82 649.79 534.11
  Q 645.53 532.00 640.97 529.46
  A 0.67 0.67 0.0 0 0 639.98 530.05
  L 640.01 581.47
  Q 640.01 581.86 640.36 582.04
  L 691.36 609.04
  Q 691.81 609.28 691.77 609.78
  Q 691.74 610.20 691.47 610.33"
/>
<path stroke="#76797a" vector-effect="non-scaling-stroke" d="
  M 691.47 610.33
  Q 666.53 597.12 641.60 583.88
  Q 640.31 583.19 639.44 583.73"
/>
<path stroke="#b6b9ba" vector-effect="non-scaling-stroke" d="
  M 639.44 583.73
  Q 638.34 583.58 637.95 584.21
  Q 612.71 597.42 587.46 610.90
  Q 586.25 611.54 586.25 612.92
  L 586.25 639.45"
/>
<path stroke="#e4edf0" vector-effect="non-scaling-stroke" d="
  M 586.25 639.45
  L 585.95 640.02
  Q 585.74 640.43 585.28 640.38
  Q 577.72 639.65 570.29 640.42"
/>
<path stroke="#838687" vector-effect="non-scaling-stroke" d="
  M 570.29 640.42
  L 570.25 639.89"
/>
<path stroke="#b6b9ba" vector-effect="non-scaling-stroke" d="
  M 570.25 639.89
  L 570.26 604.30
  Q 570.26 603.80 570.71 603.56
  Q 598.94 588.69 627.12 573.73
  Q 630.86 571.74 632.17 569.90
  C 636.13 564.34 632.28 556.40 625.45 556.03
  Q 622.74 555.88 618.04 558.36
  Q 587.63 574.40 557.30 590.58
  Q 552.32 593.24 552.30 599.01
  Q 552.26 619.26 552.24 639.48"
/>
<path stroke="#e4edf0" vector-effect="non-scaling-stroke" d="
  M 552.24 639.48
  L 551.97 640.77
  Q 551.86 641.29 551.40 641.02
  C 548.27 639.18 538.03 639.98 533.57 640.17
  Q 533.10 640.19 533.03 639.73
  Q 532.97 639.37 532.81 639.25"
/>
<path stroke="#6e7476" vector-effect="non-scaling-stroke" d="
  M 747.29 639.70
  L 747.26 695.27
  A 0.92 0.92 0.0 0 1 746.78 696.08
  L 649.29 747.51"
/>
<path stroke="#e4edf0" vector-effect="non-scaling-stroke" d="
  M 649.29 747.51
  Q 649.16 746.87 648.49 746.76
  Q 648.07 746.70 647.56 747.03
  Q 644.06 749.27 640.13 750.86
  Q 639.64 751.06 639.17 750.81
  L 537.52 697.19
  A 0.55 0.55 0.0 0 0 536.72 697.62
  Q 536.70 697.78 536.75 697.98"
/>
<path stroke="#7b8183" vector-effect="non-scaling-stroke" d="
  M 536.75 697.98
  L 533.21 696.04
  A 0.88 0.87 14.4 0 1 532.75 695.27
  L 532.74 639.87"
/>
<path stroke="#aeb4b6" vector-effect="non-scaling-stroke" d="
  M 552.24 639.48
  L 552.26 639.90"
/>
<path stroke="#7b8183" vector-effect="non-scaling-stroke" d="
  M 552.26 639.90
  Q 552.24 660.83 552.26 681.50
  C 552.26 685.48 554.52 688.09 558.14 690.01
  Q 588.41 706.08 618.70 722.08
  C 631.83 729.02 640.10 713.05 627.73 706.52
  Q 599.29 691.51 570.75 676.37
  Q 570.29 676.13 570.29 675.60
  L 570.29 640.42"
/>
<path stroke="#aeb4b6" vector-effect="non-scaling-stroke" d="
  M 586.25 639.45
  Q 586.80 639.71 586.33 639.92"
/>
<path stroke="#7b8183" vector-effect="non-scaling-stroke" d="
  M 586.33 639.92
  L 586.30 667.62
  A 1.45 1.45 0.0 0 0 587.07 668.90
  L 613.23 682.74"
/>
<path stroke="#6e7476" vector-effect="non-scaling-stroke" d="
  M 613.23 682.74
  L 639.11 696.31
  A 2.08 2.06 44.7 0 0 641.04 696.31
  L 692.59 669.08
  A 2.17 2.17 0.0 0 0 693.75 667.16
  L 693.74 638.26"
/>
<path stroke="#7b8183" vector-effect="non-scaling-stroke" d="
  M 693.74 638.26
  L 693.74 633.78"
/>
<path stroke="#6e7476" vector-effect="non-scaling-stroke" d="
  M 693.74 633.78
  Q 693.76 623.35 693.75 613.00
  Q 693.75 611.32 691.47 610.33"
/>
<path stroke="#0d0d0d" vector-effect="non-scaling-stroke" d="
  M 693.74 633.78
  Q 691.90 633.61 691.94 631.99
  Q 692.17 622.47 692.02 613.52
  A 2.12 2.12 0.0 0 0 690.91 611.69
  Q 667.50 598.97 644.56 587.33
  C 643.08 586.58 641.60 586.34 640.01 585.75"
/>
<path stroke="#404040" vector-effect="non-scaling-stroke" d="
  M 640.01 585.75
  Q 640.15 584.65 639.44 583.73"
/>
<path stroke="#4d4d4d" vector-effect="non-scaling-stroke" d="
  M 640.01 585.75
  L 640.00 638.91
  Q 640.00 639.95 638.96 639.95
  L 586.33 639.92"
/>
<path stroke="#4d4d4d" vector-effect="non-scaling-stroke" d="
  M 570.25 639.89
  L 552.26 639.90"
/>
<path stroke="#0d0d0d" vector-effect="non-scaling-stroke" d="
  M 693.74 638.26
  Q 693.17 637.74 692.05 639.54
  A 0.96 0.96 0.0 0 1 691.23 640.00
  L 640.48 640.01
  Q 640.02 640.01 640.02 640.46
  L 639.95 694.40
  Q 639.95 695.00 639.35 695.02
  Q 638.36 695.05 637.84 694.20
  A 0.91 0.90 74.6 0 0 637.09 693.77
  Q 636.62 693.77 636.20 693.54
  Q 625.35 687.76 614.49 682.02
  Q 613.27 681.38 613.23 682.74"
/>
<path stroke="#6e7476" vector-effect="non-scaling-stroke" d="
  M 709.75 632.75
  L 709.75 675.47
  A 1.13 1.10 76.4 0 1 709.16 676.46
  Q 680.24 691.69 651.35 707.03
  C 640.06 713.03 649.51 728.16 658.45 723.46
  Q 689.99 706.90 721.46 690.22
  C 725.33 688.17 727.74 685.82 727.74 681.50
  Q 727.76 660.71 727.75 639.64"
/>
<path stroke="#7b8183" vector-effect="non-scaling-stroke" d="
  M 727.75 639.64
  Q 727.75 620.15 727.75 600.39
  C 727.76 592.22 724.21 591.20 716.99 587.38
  Q 688.49 572.29 659.94 557.31
  C 648.63 551.37 639.55 566.79 653.08 573.94
  Q 681.11 588.74 709.26 603.62
  Q 709.72 603.86 709.72 604.38
  L 709.75 632.75"
/>
<path stroke="#0d0d0d" vector-effect="non-scaling-stroke" d="
  M 727.75 639.64
  L 711.67 639.92
  A 0.66 0.65 89.2 0 1 711.00 639.26
  L 711.00 633.97
  Q 711.00 633.48 710.73 633.06
  Q 710.20 632.27 709.75 632.75"
/>
</g>
<path fill="#ecf2f4" d="
  M 635.00 865.12
  C 475.02 792.39 315.05 719.64 155.05 646.96
  C 147.39 643.48 147.24 636.59 154.96 633.08
  Q 396.39 523.33 637.83 413.59
  C 639.17 412.98 641.66 413.40 643.21 414.10
  Q 884.33 523.69 1125.44 633.29
  C 1133.39 636.91 1131.65 643.90 1124.58 647.12
  Q 883.54 756.69 642.50 866.24
  C 639.94 867.41 637.54 866.28 635.00 865.12
  Z
  M 155.53 642.20
  C 316.12 715.35 476.83 788.27 637.49 861.28
  C 640.58 862.68 640.80 862.04 643.39 860.86
  Q 884.18 751.43 1124.81 642.04
  A 2.25 2.25 0.0 0 0 1125.99 639.23
  Q 1125.87 638.89 1125.34 638.38
  Q 1125.00 638.05 1124.46 637.81
  Q 882.73 527.93 640.67 417.90
  A 1.68 1.68 0.0 0 0 639.27 417.90
  Q 399.16 527.04 158.79 636.26
  Q 156.94 637.10 155.14 638.07
  C 153.03 639.20 153.55 641.29 155.53 642.20
  Z"
/>
<path fill="#000000" d="
  M 637.49 861.28
  C 476.83 788.27 316.12 715.35 155.53 642.20
  C 153.55 641.29 153.03 639.20 155.14 638.07
  Q 156.94 637.10 158.79 636.26
  Q 399.16 527.04 639.27 417.90
  A 1.68 1.68 0.0 0 1 640.67 417.90
  Q 882.73 527.93 1124.46 637.81
  Q 1125.00 638.05 1125.34 638.38
  Q 1125.87 638.89 1125.99 639.23
  A 2.25 2.25 0.0 0 1 1124.81 642.04
  Q 884.18 751.43 643.39 860.86
  C 640.80 862.04 640.58 862.68 637.49 861.28
  Z
  M 256.47 683.12
  L 639.52 857.25
  Q 640.01 857.47 640.49 857.25
  L 1117.81 640.28
  Q 1118.36 640.03 1117.81 639.78
  L 640.81 422.96
  L 640.46 422.72
  A 0.88 0.87 49.3 0 0 639.63 422.65
  L 162.19 639.69
  Q 161.60 639.96 162.19 640.22
  L 256.47 683.12
  Z"
/>
<path fill="#ecf2f4" d="
  M 640.81 422.96
  Q 640.84 423.68 640.06 424.27
  Q 639.67 424.56 639.68 425.04
  L 640.07 466.99
  L 639.34 467.67
  L 615.06 491.86
  Q 614.76 492.16 615.06 492.46
  L 632.87 510.23
  A 0.54 0.53 -36.4 0 1 632.74 511.08
  L 521.78 569.63
  Q 521.23 569.92 521.06 569.32
  L 513.97 545.00
  Q 513.81 544.46 513.27 544.61
  L 479.85 554.32
  Q 479.35 554.47 479.50 554.96
  L 489.26 588.18
  A 0.60 0.60 0.0 0 0 490.00 588.58
  L 514.22 581.48
  Q 514.76 581.32 514.76 581.89
  L 514.75 639.46
  Q 514.35 639.52 514.02 639.73
  Q 513.61 639.99 513.12 639.99
  Q 342.06 640.01 171.00 640.02
  Q 169.62 640.02 168.81 639.22
  Q 168.46 638.88 168.01 639.07
  L 166.35 639.75
  A 0.60 0.59 -43.0 0 0 166.31 640.83
  C 169.00 642.18 172.85 643.28 175.23 644.87
  Q 175.64 645.15 176.09 645.35
  L 218.02 664.29
  Q 227.13 668.41 232.76 670.71
  Q 233.62 671.06 244.16 676.25
  C 247.21 677.76 252.19 679.30 255.89 681.84
  Q 256.22 682.07 256.40 682.36
  Q 256.77 682.98 256.47 683.12
  L 162.19 640.22
  Q 161.60 639.96 162.19 639.69
  L 639.63 422.65
  A 0.88 0.87 49.3 0 1 640.46 422.72
  L 640.81 422.96
  Z"
/>
<path fill="#dce7eb" d="
  M 640.81 422.96
  L 1117.81 639.78
  Q 1118.36 640.03 1117.81 640.28
  L 640.49 857.25
  Q 640.01 857.47 639.52 857.25
  L 256.47 683.12
  Q 256.77 682.98 256.40 682.36
  Q 256.22 682.07 255.89 681.84
  C 252.19 679.30 247.21 677.76 244.16 676.25
  Q 233.62 671.06 232.76 670.71
  Q 227.13 668.41 218.02 664.29
  L 176.09 645.35
  Q 175.64 645.15 175.23 644.87
  C 172.85 643.28 169.00 642.18 166.31 640.83
  A 0.60 0.59 -43.0 0 1 166.35 639.75
  L 168.01 639.07
  Q 168.46 638.88 168.81 639.22
  Q 169.62 640.02 171.00 640.02
  Q 342.06 640.01 513.12 639.99
  Q 513.61 639.99 514.02 639.73
  Q 514.35 639.52 514.75 639.46
  Q 515.01 639.51 515.05 639.96
  L 514.71 698.15
  Q 514.71 698.69 514.19 698.54
  L 490.19 691.50
  Q 489.42 691.27 489.19 692.04
  L 479.60 724.81
  A 0.85 0.84 16.4 0 0 480.18 725.86
  L 508.77 734.15
  Q 508.43 734.39 508.24 734.73
  A 0.48 0.47 -68.6 0 0 508.53 735.41
  L 512.88 736.60
  A 1.93 1.92 14.5 0 0 515.26 735.21
  Q 516.66 729.59 518.53 724.08
  C 519.55 721.08 520.40 716.46 522.20 712.85
  Q 522.44 712.36 522.92 712.62
  Q 528.82 715.79 534.89 718.62
  C 536.56 719.40 537.99 720.95 540.16 721.41
  Q 540.64 721.51 541.02 721.82
  Q 541.70 722.38 543.45 723.29
  C 566.85 735.56 590.28 747.80 613.53 760.34
  Q 614.17 760.69 614.65 760.77
  Q 615.93 760.98 615.77 760.00
  L 632.82 768.98
  A 0.46 0.46 0.0 0 1 632.93 769.71
  L 615.29 787.29
  Q 614.94 787.64 615.15 788.09
  Q 615.91 789.76 617.39 789.85
  L 639.71 812.68
  Q 640.07 813.04 640.42 812.68
  L 664.96 788.20
  Q 665.30 787.86 664.96 787.53
  L 647.07 769.72
  Q 646.62 769.28 647.18 768.98
  L 758.15 710.39
  Q 758.66 710.12 758.83 710.67
  L 765.94 735.03
  Q 766.11 735.62 766.70 735.45
  L 799.62 725.85
  Q 800.63 725.56 800.33 724.55
  L 790.77 692.04
  A 0.79 0.78 -16.2 0 0 789.79 691.51
  L 765.74 698.51
  A 0.43 0.43 0.0 0 1 765.19 698.10
  L 765.14 640.76
  L 765.18 581.92
  A 0.46 0.46 0.0 0 1 765.77 581.48
  L 790.02 588.53
  Q 790.55 588.68 790.70 588.16
  L 800.49 554.81
  A 0.36 0.36 0.0 0 0 800.24 554.36
  L 766.74 544.57
  Q 766.15 544.40 765.98 544.99
  L 758.86 569.40
  Q 758.71 569.91 758.25 569.66
  L 742.56 561.31
  Q 740.11 558.02 734.96 556.54
  Q 734.81 556.50 734.65 556.51
  Q 734.22 556.55 734.19 556.05
  A 0.66 0.66 0.0 0 0 733.83 555.48
  Q 693.40 534.31 653.10 512.89
  Q 652.68 512.66 652.40 512.78
  Q 651.99 512.95 651.96 513.53
  L 647.16 511.05
  Q 646.64 510.78 647.05 510.36
  L 648.76 508.60
  L 664.85 492.52
  Q 665.22 492.15 664.85 491.78
  L 640.07 466.99
  L 639.68 425.04
  Q 639.67 424.56 640.06 424.27
  Q 640.84 423.68 640.81 422.96
  Z"
/>
<path fill="#000000" d="
  M 640.07 466.99
  L 664.85 491.78
  Q 665.22 492.15 664.85 492.52
  L 648.76 508.60
  Q 648.20 508.67 648.54 507.47
  Q 648.68 506.98 649.11 506.56
  Q 654.98 500.67 661.87 493.90
  A 2.48 2.47 -44.7 0 0 661.90 490.39
  L 642.93 471.29
  Q 642.57 470.93 642.07 471.00
  L 640.00 471.29
  Q 640.31 469.17 639.34 467.67
  L 640.07 466.99
  Z"
/>
<path fill="#808080" d="
  M 639.34 467.67
  Q 640.31 469.17 640.00 471.29
  L 640.01 527.52
  L 533.33 583.88
  Q 532.83 584.14 532.83 584.70
  L 532.81 639.25
  Q 532.25 639.85 532.74 639.87
  L 515.05 639.96
  Q 515.01 639.51 514.75 639.46
  L 514.76 581.89
  Q 514.76 581.32 514.22 581.48
  L 490.00 588.58
  A 0.60 0.60 0.0 0 1 489.26 588.18
  L 479.50 554.96
  Q 479.35 554.47 479.85 554.32
  L 513.27 544.61
  Q 513.81 544.46 513.97 545.00
  L 521.06 569.32
  Q 521.23 569.92 521.78 569.63
  L 632.74 511.08
  A 0.54 0.53 -36.4 0 0 632.87 510.23
  L 615.06 492.46
  Q 614.76 492.16 615.06 491.86
  L 639.34 467.67
  Z"
/>
<path fill="#1a1a1a" d="
  M 648.76 508.60
  L 647.05 510.36
  Q 646.64 510.78 647.16 511.05
  L 651.96 513.53
  L 742.56 561.31
  L 758.25 569.66
  Q 758.71 569.91 758.86 569.40
  L 765.98 544.99
  Q 766.15 544.40 766.74 544.57
  L 800.24 554.36
  A 0.36 0.36 0.0 0 1 800.49 554.81
  L 790.70 588.16
  Q 790.55 588.68 790.02 588.53
  L 765.77 581.48
  A 0.46 0.46 0.0 0 0 765.18 581.92
  L 765.14 640.76
  L 764.98 640.01
  Q 764.89 639.59 764.45 639.62
  Q 755.93 640.39 747.29 639.70
  L 747.16 584.68
  Q 747.16 584.16 746.70 583.92
  L 743.36 582.11
  L 640.01 527.52
  L 640.00 471.29
  L 642.07 471.00
  Q 642.57 470.93 642.93 471.29
  L 661.90 490.39
  A 2.48 2.47 -44.7 0 1 661.87 493.90
  Q 654.98 500.67 649.11 506.56
  Q 648.68 506.98 648.54 507.47
  Q 648.20 508.67 648.76 508.60
  Z"
/>
<path fill="#ecf2f4" d="
  M 742.56 561.31
  L 651.96 513.53
  Q 651.99 512.95 652.40 512.78
  Q 652.68 512.66 653.10 512.89
  Q 693.40 534.31 733.83 555.48
  A 0.66 0.66 0.0 0 1 734.19 556.05
  Q 734.22 556.55 734.65 556.51
  Q 734.81 556.50 734.96 556.54
  Q 740.11 558.02 742.56 561.31
  Z"
/>
<path fill="#ecf2f4" d="
  M 640.01 527.52
  L 743.36 582.11
  Q 742.90 583.27 742.28 582.94
  Q 702.20 561.74 662.08 540.61
  C 660.36 539.70 658.10 539.23 656.41 537.31
  Q 656.07 536.92 655.57 536.82
  C 653.30 536.37 651.23 534.82 649.79 534.11
  Q 645.53 532.00 640.97 529.46
  A 0.67 0.67 0.0 0 0 639.98 530.05
  L 640.01 581.47
  Q 640.01 581.86 640.36 582.04
  L 691.36 609.04
  Q 691.81 609.28 691.77 609.78
  Q 691.74 610.20 691.47 610.33
  Q 666.53 597.12 641.60 583.88
  Q 640.31 583.19 639.44 583.73
  Q 638.34 583.58 637.95 584.21
  Q 612.71 597.42 587.46 610.90
  Q 586.25 611.54 586.25 612.92
  L 586.25 639.45
  L 585.95 640.02
  Q 585.74 640.43 585.28 640.38
  Q 577.72 639.65 570.29 640.42
  L 570.25 639.89
  L 570.26 604.30
  Q 570.26 603.80 570.71 603.56
  Q 598.94 588.69 627.12 573.73
  Q 630.86 571.74 632.17 569.90
  C 636.13 564.34 632.28 556.40 625.45 556.03
  Q 622.74 555.88 618.04 558.36
  Q 587.63 574.40 557.30 590.58
  Q 552.32 593.24 552.30 599.01
  Q 552.26 619.26 552.24 639.48
  L 551.97 640.77
  Q 551.86 641.29 551.40 641.02
  C 548.27 639.18 538.03 639.98 533.57 640.17
  Q 533.10 640.19 533.03 639.73
  Q 532.97 639.37 532.81 639.25
  L 532.83 584.70
  Q 532.83 584.14 533.33 583.88
  L 640.01 527.52
  Z"
/>
<path fill="#dce7eb" d="
  M 743.36 582.11
  L 746.70 583.92
  Q 747.16 584.16 747.16 584.68
  L 747.29 639.70
  L 747.26 695.27
  A 0.92 0.92 0.0 0 1 746.78 696.08
  L 649.29 747.51
  Q 649.16 746.87 648.49 746.76
  Q 648.07 746.70 647.56 747.03
  Q 644.06 749.27 640.13 750.86
  Q 639.64 751.06 639.17 750.81
  L 537.52 697.19
  A 0.55 0.55 0.0 0 0 536.72 697.62
  Q 536.70 697.78 536.75 697.98
  L 533.21 696.04
  A 0.88 0.87 14.4 0 1 532.75 695.27
  L 532.74 639.87
  Q 532.25 639.85 532.81 639.25
  Q 532.97 639.37 533.03 639.73
  Q 533.10 640.19 533.57 640.17
  C 538.03 639.98 548.27 639.18 551.40 641.02
  Q 551.86 641.29 551.97 640.77
  L 552.24 639.48
  L 552.26 639.90
  Q 552.24 660.83 552.26 681.50
  C 552.26 685.48 554.52 688.09 558.14 690.01
  Q 588.41 706.08 618.70 722.08
  C 631.83 729.02 640.10 713.05 627.73 706.52
  Q 599.29 691.51 570.75 676.37
  Q 570.29 676.13 570.29 675.60
  L 570.29 640.42
  Q 577.72 639.65 585.28 640.38
  Q 585.74 640.43 585.95 640.02
  L 586.25 639.45
  Q 586.80 639.71 586.33 639.92
  L 586.30 667.62
  A 1.45 1.45 0.0 0 0 587.07 668.90
  L 613.23 682.74
  L 639.11 696.31
  A 2.08 2.06 44.7 0 0 641.04 696.31
  L 692.59 669.08
  A 2.17 2.17 0.0 0 0 693.75 667.16
  L 693.74 638.26
  L 693.74 633.78
  Q 693.76 623.35 693.75 613.00
  Q 693.75 611.32 691.47 610.33
  Q 691.74 610.20 691.77 609.78
  Q 691.81 609.28 691.36 609.04
  L 640.36 582.04
  Q 640.01 581.86 640.01 581.47
  L 639.98 530.05
  A 0.67 0.67 0.0 0 1 640.97 529.46
  Q 645.53 532.00 649.79 534.11
  C 651.23 534.82 653.30 536.37 655.57 536.82
  Q 656.07 536.92 656.41 537.31
  C 658.10 539.23 660.36 539.70 662.08 540.61
  Q 702.20 561.74 742.28 582.94
  Q 742.90 583.27 743.36 582.11
  Z
  M 709.75 632.75
  L 709.75 675.47
  A 1.13 1.10 76.4 0 1 709.16 676.46
  Q 680.24 691.69 651.35 707.03
  C 640.06 713.03 649.51 728.16 658.45 723.46
  Q 689.99 706.90 721.46 690.22
  C 725.33 688.17 727.74 685.82 727.74 681.50
  Q 727.76 660.71 727.75 639.64
  Q 727.75 620.15 727.75 600.39
  C 727.76 592.22 724.21 591.20 716.99 587.38
  Q 688.49 572.29 659.94 557.31
  C 648.63 551.37 639.55 566.79 653.08 573.94
  Q 681.11 588.74 709.26 603.62
  Q 709.72 603.86 709.72 604.38
  L 709.75 632.75
  Z"
/>
<path fill="#808080" d="
  M 570.25 639.89
  L 552.26 639.90
  L 552.24 639.48
  Q 552.26 619.26 552.30 599.01
  Q 552.32 593.24 557.30 590.58
  Q 587.63 574.40 618.04 558.36
  Q 622.74 555.88 625.45 556.03
  C 632.28 556.40 636.13 564.34 632.17 569.90
  Q 630.86 571.74 627.12 573.73
  Q 598.94 588.69 570.71 603.56
  Q 570.26 603.80 570.26 604.30
  L 570.25 639.89
  Z"
/>
<path fill="#1a1a1a" d="
  M 727.75 639.64
  L 711.67 639.92
  A 0.66 0.65 89.2 0 1 711.00 639.26
  L 711.00 633.97
  Q 711.00 633.48 710.73 633.06
  Q 710.20 632.27 709.75 632.75
  L 709.72 604.38
  Q 709.72 603.86 709.26 603.62
  Q 681.11 588.74 653.08 573.94
  C 639.55 566.79 648.63 551.37 659.94 557.31
  Q 688.49 572.29 716.99 587.38
  C 724.21 591.20 727.76 592.22 727.75 600.39
  Q 727.75 620.15 727.75 639.64
  Z"
/>
<path fill="#000000" d="
  M 691.47 610.33
  Q 693.75 611.32 693.75 613.00
  Q 693.76 623.35 693.74 633.78
  Q 691.90 633.61 691.94 631.99
  Q 692.17 622.47 692.02 613.52
  A 2.12 2.12 0.0 0 0 690.91 611.69
  Q 667.50 598.97 644.56 587.33
  C 643.08 586.58 641.60 586.34 640.01 585.75
  Q 640.15 584.65 639.44 583.73
  Q 640.31 583.19 641.60 583.88
  Q 666.53 597.12 691.47 610.33
  Z"
/>
<path fill="#808080" d="
  M 639.44 583.73
  Q 640.15 584.65 640.01 585.75
  L 640.00 638.91
  Q 640.00 639.95 638.96 639.95
  L 586.33 639.92
  Q 586.80 639.71 586.25 639.45
  L 586.25 612.92
  Q 586.25 611.54 587.46 610.90
  Q 612.71 597.42 637.95 584.21
  Q 638.34 583.58 639.44 583.73
  Z"
/>
<path fill="#1a1a1a" d="
  M 640.01 585.75
  C 641.60 586.34 643.08 586.58 644.56 587.33
  Q 667.50 598.97 690.91 611.69
  A 2.12 2.12 0.0 0 1 692.02 613.52
  Q 692.17 622.47 691.94 631.99
  Q 691.90 633.61 693.74 633.78
  L 693.74 638.26
  Q 693.17 637.74 692.05 639.54
  A 0.96 0.96 0.0 0 1 691.23 640.00
  L 640.48 640.01
  Q 640.02 640.01 640.02 640.46
  L 639.95 694.40
  Q 639.95 695.00 639.35 695.02
  Q 638.36 695.05 637.84 694.20
  A 0.91 0.90 74.6 0 0 637.09 693.77
  Q 636.62 693.77 636.20 693.54
  Q 625.35 687.76 614.49 682.02
  Q 613.27 681.38 613.23 682.74
  L 587.07 668.90
  A 1.45 1.45 0.0 0 1 586.30 667.62
  L 586.33 639.92
  L 638.96 639.95
  Q 640.00 639.95 640.00 638.91
  L 640.01 585.75
  Z"
/>
<path fill="#000000" d="
  M 727.75 639.64
  Q 727.76 660.71 727.74 681.50
  C 727.74 685.82 725.33 688.17 721.46 690.22
  Q 689.99 706.90 658.45 723.46
  C 649.51 728.16 640.06 713.03 651.35 707.03
  Q 680.24 691.69 709.16 676.46
  A 1.13 1.10 76.4 0 0 709.75 675.47
  L 709.75 632.75
  Q 710.20 632.27 710.73 633.06
  Q 711.00 633.48 711.00 633.97
  L 711.00 639.26
  A 0.66 0.65 89.2 0 0 711.67 639.92
  L 727.75 639.64
  Z"
/>
<path fill="#000000" d="
  M 693.74 638.26
  L 693.75 667.16
  A 2.17 2.17 0.0 0 1 692.59 669.08
  L 641.04 696.31
  A 2.08 2.06 44.7 0 1 639.11 696.31
  L 613.23 682.74
  Q 613.27 681.38 614.49 682.02
  Q 625.35 687.76 636.20 693.54
  Q 636.62 693.77 637.09 693.77
  A 0.91 0.90 74.6 0 1 637.84 694.20
  Q 638.36 695.05 639.35 695.02
  Q 639.95 695.00 639.95 694.40
  L 640.02 640.46
  Q 640.02 640.01 640.48 640.01
  L 691.23 640.00
  A 0.96 0.96 0.0 0 0 692.05 639.54
  Q 693.17 637.74 693.74 638.26
  Z"
/>
<path fill="#000000" d="
  M 765.14 640.76
  L 765.19 698.10
  A 0.43 0.43 0.0 0 0 765.74 698.51
  L 789.79 691.51
  A 0.79 0.78 -16.2 0 1 790.77 692.04
  L 800.33 724.55
  Q 800.63 725.56 799.62 725.85
  L 766.70 735.45
  Q 766.11 735.62 765.94 735.03
  L 758.83 710.67
  Q 758.66 710.12 758.15 710.39
  L 647.18 768.98
  Q 646.62 769.28 647.07 769.72
  L 664.96 787.53
  Q 665.30 787.86 664.96 788.20
  L 640.42 812.68
  Q 640.07 813.04 639.71 812.68
  L 617.39 789.85
  Q 628.41 799.45 638.36 809.97
  Q 638.44 810.06 638.46 810.18
  Q 638.50 810.39 638.51 810.42
  A 0.74 0.73 -51.2 0 0 639.97 810.25
  L 639.94 755.04
  Q 639.94 754.64 639.78 754.28
  Q 639.19 752.99 637.92 752.97
  Q 637.43 752.96 636.99 752.74
  C 635.91 752.20 634.90 751.32 633.94 750.81
  Q 601.68 733.83 569.45 716.79
  Q 568.76 716.43 568.85 715.70
  Q 568.88 715.45 569.08 715.29
  Q 569.17 715.22 569.29 715.15
  L 639.55 752.25
  Q 639.99 752.48 640.42 752.25
  L 649.29 747.51
  L 746.78 696.08
  A 0.92 0.92 0.0 0 0 747.26 695.27
  L 747.29 639.70
  Q 755.93 640.39 764.45 639.62
  Q 764.89 639.59 764.98 640.01
  L 765.14 640.76
  Z"
/>
<path fill="#1a1a1a" d="
  M 532.74 639.87
  L 532.75 695.27
  A 0.88 0.87 14.4 0 0 533.21 696.04
  L 536.75 697.98
  L 569.29 715.15
  Q 569.17 715.22 569.08 715.29
  Q 568.88 715.45 568.85 715.70
  Q 568.76 716.43 569.45 716.79
  Q 601.68 733.83 633.94 750.81
  C 634.90 751.32 635.91 752.20 636.99 752.74
  Q 637.43 752.96 637.92 752.97
  Q 639.19 752.99 639.78 754.28
  Q 639.94 754.64 639.94 755.04
  L 639.97 810.25
  A 0.74 0.73 -51.2 0 1 638.51 810.42
  Q 638.50 810.39 638.46 810.18
  Q 638.44 810.06 638.36 809.97
  Q 628.41 799.45 617.39 789.85
  Q 615.91 789.76 615.15 788.09
  Q 614.94 787.64 615.29 787.29
  L 632.93 769.71
  A 0.46 0.46 0.0 0 0 632.82 768.98
  L 615.77 760.00
  L 521.70 710.36
  Q 521.24 710.12 521.10 710.62
  L 513.99 734.99
  A 0.74 0.73 -73.1 0 1 513.06 735.49
  L 508.77 734.15
  L 480.18 725.86
  A 0.85 0.84 16.4 0 1 479.60 724.81
  L 489.19 692.04
  Q 489.42 691.27 490.19 691.50
  L 514.19 698.54
  Q 514.71 698.69 514.71 698.15
  L 515.05 639.96
  L 532.74 639.87
  Z"
/>
<path fill="#1a1a1a" d="
  M 570.25 639.89
  L 570.29 640.42
  L 570.29 675.60
  Q 570.29 676.13 570.75 676.37
  Q 599.29 691.51 627.73 706.52
  C 640.10 713.05 631.83 729.02 618.70 722.08
  Q 588.41 706.08 558.14 690.01
  C 554.52 688.09 552.26 685.48 552.26 681.50
  Q 552.24 660.83 552.26 639.90
  L 570.25 639.89
  Z"
/>
<path fill="#ecf2f4" d="
  M 649.29 747.51
  L 640.42 752.25
  Q 639.99 752.48 639.55 752.25
  L 569.29 715.15
  L 536.75 697.98
  Q 536.70 697.78 536.72 697.62
  A 0.55 0.55 0.0 0 1 537.52 697.19
  L 639.17 750.81
  Q 639.64 751.06 640.13 750.86
  Q 644.06 749.27 647.56 747.03
  Q 648.07 746.70 648.49 746.76
  Q 649.16 746.87 649.29 747.51
  Z"
/>
<path fill="#ecf2f4" d="
  M 615.77 760.00
  Q 615.93 760.98 614.65 760.77
  Q 614.17 760.69 613.53 760.34
  C 590.28 747.80 566.85 735.56 543.45 723.29
  Q 541.70 722.38 541.02 721.82
  Q 540.64 721.51 540.16 721.41
  C 537.99 720.95 536.56 719.40 534.89 718.62
  Q 528.82 715.79 522.92 712.62
  Q 522.44 712.36 522.20 712.85
  C 520.40 716.46 519.55 721.08 518.53 724.08
  Q 516.66 729.59 515.26 735.21
  A 1.93 1.92 14.5 0 1 512.88 736.60
  L 508.53 735.41
  A 0.48 0.47 -68.6 0 1 508.24 734.73
  Q 508.43 734.39 508.77 734.15
  L 513.06 735.49
  A 0.74 0.73 -73.1 0 0 513.99 734.99
  L 521.10 710.62
  Q 521.24 710.12 521.70 710.36
  L 615.77 760.00
  Z"
/>
</svg>
