<?xml version="1.0" encoding="UTF-8" standalone="no"?>
<!DOCTYPE svg PUBLIC "-//W3C//DTD SVG 1.1//EN" "http://www.w3.org/Graphics/SVG/1.1/DTD/svg11.dtd">
<svg xmlns="http://www.w3.org/2000/svg" version="1.1" viewBox="0.00 0.00 1448.00 1448.00">
<g stroke-width="2.00" fill="none" stroke-linecap="butt">
<path stroke="#808080" vector-effect="non-scaling-stroke" d="
  M 175.48 726.29
  L 722.73 975.05
  A 3.00 2.98 -45.1 0 0 725.21 975.04
  Q 998.48 850.84 1272.17 726.39
  Q 1274.26 725.43 1273.64 723.19
  A 2.42 2.42 0.0 0 0 1272.31 721.63
  L 725.24 472.96
  A 3.05 3.02 44.8 0 0 722.71 472.96
  L 175.48 721.70
  A 2.52 2.52 0.0 0 0 175.48 726.29"
/>
<path stroke="#808080" vector-effect="non-scaling-stroke" d="
  M 183.25 724.25
  L 723.43 969.80
  Q 723.97 970.04 724.51 969.80
  L 1264.92 724.14
  A 0.16 0.16 0.0 0 0 1264.92 723.85
  L 724.53 478.21
  Q 723.97 477.96 723.42 478.21
  L 183.25 723.74
  Q 182.68 724.00 183.25 724.25"
/>
<path stroke="#8d8d8d" vector-effect="non-scaling-stroke" d="
  M 551.72 723.95
  Q 552.16 771.55 576.32 811.70
  Q 579.53 817.02 582.79 819.32
  C 597.62 829.77 617.98 816.68 614.34 798.86
  Q 613.71 795.81 610.15 789.57
  Q 592.79 759.14 592.29 723.88"
/>
<path stroke="#c0c0c0" vector-effect="non-scaling-stroke" d="
  M 592.29 723.88
  C 593.95 650.26 650.23 594.13 723.89 592.90"
/>
<path stroke="#8d8d8d" vector-effect="non-scaling-stroke" d="
  M 723.89 592.90
  C 746.30 593.67 766.53 598.27 786.32 608.81
  C 789.31 610.40 795.22 614.39 799.07 614.96
  C 817.31 617.65 830.96 598.09 819.20 583.05
  Q 816.20 579.22 809.20 575.26
  Q 769.70 552.93 723.90 552.51"
/>
<path stroke="#c0c0c0" vector-effect="non-scaling-stroke" d="
  M 723.90 552.51
  C 629.21 553.23 551.91 628.46 551.72 723.95"
/>
<path stroke="#4d4d4d" vector-effect="non-scaling-stroke" d="
  M 723.90 552.51
  L 723.89 592.90"
/>
<path stroke="#4d4d4d" vector-effect="non-scaling-stroke" d="
  M 592.29 723.88
  L 551.72 723.95"
/>
<path stroke="#8d8d8d" vector-effect="non-scaling-stroke" d="
  M 619.90 723.96
  C 620.25 781.69 666.71 827.20 723.89 827.55"
/>
<path stroke="#808080" vector-effect="non-scaling-stroke" d="
  M 723.89 827.55
  C 781.18 827.35 827.72 781.67 828.02 723.94"
/>
<path stroke="#8d8d8d" vector-effect="non-scaling-stroke" d="
  M 828.02 723.94
  C 827.50 666.42 781.40 620.69 723.98 620.44"
/>
<path stroke="#c0c0c0" vector-effect="non-scaling-stroke" d="
  M 723.98 620.44
  C 665.90 621.02 620.98 665.96 619.90 723.96"
/>
<path stroke="#4d4d4d" vector-effect="non-scaling-stroke" d="
  M 723.98 620.44
  L 723.92 660.77"
/>
<path stroke="#c0c0c0" vector-effect="non-scaling-stroke" d="
  M 723.92 660.77
  C 688.20 661.61 661.73 688.24 660.42 723.91"
/>
<path stroke="#4d4d4d" vector-effect="non-scaling-stroke" d="
  M 660.42 723.91
  L 619.90 723.96"
/>
<path stroke="#808080" vector-effect="non-scaling-stroke" d="
  M 787.31 723.91
  C 787.36 759.76 759.28 785.91 723.92 787.17"
/>
<path stroke="#8d8d8d" vector-effect="non-scaling-stroke" d="
  M 723.92 787.17
  C 688.19 786.89 661.78 759.34 660.42 723.91"
/>
<path stroke="#0d0d0d" vector-effect="non-scaling-stroke" d="
  M 828.02 723.94
  L 787.31 723.91"
/>
<path stroke="#8d8d8d" vector-effect="non-scaling-stroke" d="
  M 787.31 723.91
  C 787.28 687.95 759.00 662.19 723.92 660.77"
/>
<path stroke="#0d0d0d" vector-effect="non-scaling-stroke" d="
  M 723.92 787.17
  L 723.89 827.55"
/>
<path stroke="#808080" vector-effect="non-scaling-stroke" d="
  M 855.53 723.46
  Q 855.63 759.46 837.56 790.07
  C 813.97 830.03 770.75 855.04 723.76 854.96"
/>
<path stroke="#8d8d8d" vector-effect="non-scaling-stroke" d="
  M 723.76 854.96
  C 697.68 854.69 677.42 847.66 655.43 835.85
  Q 650.50 833.21 647.08 832.80
  C 630.25 830.79 618.10 850.20 627.97 864.19
  Q 630.77 868.16 638.51 872.58
  Q 677.72 894.93 723.50 895.48"
/>
<path stroke="#808080" vector-effect="non-scaling-stroke" d="
  M 723.50 895.48
  C 818.58 895.22 896.15 819.37 896.21 723.66"
/>
<path stroke="#8d8d8d" vector-effect="non-scaling-stroke" d="
  M 896.21 723.66
  Q 895.69 678.83 874.11 640.19
  Q 870.41 633.56 868.31 631.45
  C 854.24 617.26 829.68 628.83 833.48 648.80
  C 834.35 653.40 837.82 658.85 840.25 663.41
  Q 855.00 691.03 855.53 723.46"
/>
<path stroke="#0d0d0d" vector-effect="non-scaling-stroke" d="
  M 896.21 723.66
  Q 875.80 724.63 855.53 723.46"
/>
<path stroke="#0d0d0d" vector-effect="non-scaling-stroke" d="
  M 723.50 895.48
  Q 723.26 895.16 723.66 894.63
  Q 723.95 894.26 723.95 893.79
  L 723.76 854.96"
/>
</g>
<path fill="#ffffff" d="
  M 719.55 979.20
  C 537.03 896.27 354.40 813.54 172.02 730.29
  Q 170.62 729.65 169.63 727.27
  C 167.64 722.49 169.92 718.62 174.52 716.54
  Q 448.15 592.15 721.79 467.78
  C 723.19 467.14 725.90 467.66 727.53 468.40
  Q 1000.50 592.45 1273.45 716.54
  C 1281.03 719.99 1280.85 728.09 1273.30 731.52
  Q 1001.21 855.23 729.10 978.89
  C 725.31 980.61 723.59 981.04 719.55 979.20
  Z
  M 175.48 726.29
  L 722.73 975.05
  A 3.00 2.98 -45.1 0 0 725.21 975.04
  Q 998.48 850.84 1272.17 726.39
  Q 1274.26 725.43 1273.64 723.19
  A 2.42 2.42 0.0 0 0 1272.31 721.63
  L 725.24 472.96
  A 3.05 3.02 44.8 0 0 722.71 472.96
  L 175.48 721.70
  A 2.52 2.52 0.0 0 0 175.48 726.29
  Z"
/>
<path fill="#000000" d="
  M 722.73 975.05
  L 175.48 726.29
  A 2.52 2.52 0.0 0 1 175.48 721.70
  L 722.71 472.96
  A 3.05 3.02 44.8 0 1 725.24 472.96
  L 1272.31 721.63
  A 2.42 2.42 0.0 0 1 1273.64 723.19
  Q 1274.26 725.43 1272.17 726.39
  Q 998.48 850.84 725.21 975.04
  A 3.00 2.98 -45.1 0 1 722.73 975.05
  Z
  M 183.25 724.25
  L 723.43 969.80
  Q 723.97 970.04 724.51 969.80
  L 1264.92 724.14
  A 0.16 0.16 0.0 0 0 1264.92 723.85
  L 724.53 478.21
  Q 723.97 477.96 723.42 478.21
  L 183.25 723.74
  Q 182.68 724.00 183.25 724.25
  Z"
/>
<path fill="#ffffff" d="
  M 723.43 969.80
  L 183.25 724.25
  Q 182.68 724.00 183.25 723.74
  L 723.42 478.21
  Q 723.97 477.96 724.53 478.21
  L 1264.92 723.85
  A 0.16 0.16 0.0 0 1 1264.92 724.14
  L 724.51 969.80
  Q 723.97 970.04 723.43 969.80
  Z
  M 551.72 723.95
  Q 552.16 771.55 576.32 811.70
  Q 579.53 817.02 582.79 819.32
  C 597.62 829.77 617.98 816.68 614.34 798.86
  Q 613.71 795.81 610.15 789.57
  Q 592.79 759.14 592.29 723.88
  C 593.95 650.26 650.23 594.13 723.89 592.90
  C 746.30 593.67 766.53 598.27 786.32 608.81
  C 789.31 610.40 795.22 614.39 799.07 614.96
  C 817.31 617.65 830.96 598.09 819.20 583.05
  Q 816.20 579.22 809.20 575.26
  Q 769.70 552.93 723.90 552.51
  C 629.21 553.23 551.91 628.46 551.72 723.95
  Z
  M 619.90 723.96
  C 620.25 781.69 666.71 827.20 723.89 827.55
  C 781.18 827.35 827.72 781.67 828.02 723.94
  C 827.50 666.42 781.40 620.69 723.98 620.44
  C 665.90 621.02 620.98 665.96 619.90 723.96
  Z
  M 855.53 723.46
  Q 855.63 759.46 837.56 790.07
  C 813.97 830.03 770.75 855.04 723.76 854.96
  C 697.68 854.69 677.42 847.66 655.43 835.85
  Q 650.50 833.21 647.08 832.80
  C 630.25 830.79 618.10 850.20 627.97 864.19
  Q 630.77 868.16 638.51 872.58
  Q 677.72 894.93 723.50 895.48
  C 818.58 895.22 896.15 819.37 896.21 723.66
  Q 895.69 678.83 874.11 640.19
  Q 870.41 633.56 868.31 631.45
  C 854.24 617.26 829.68 628.83 833.48 648.80
  C 834.35 653.40 837.82 658.85 840.25 663.41
  Q 855.00 691.03 855.53 723.46
  Z"
/>
<path fill="#808080" d="
  M 723.90 552.51
  L 723.89 592.90
  C 650.23 594.13 593.95 650.26 592.29 723.88
  L 551.72 723.95
  C 551.91 628.46 629.21 553.23 723.90 552.51
  Z"
/>
<path fill="#1a1a1a" d="
  M 723.89 592.90
  L 723.90 552.51
  Q 769.70 552.93 809.20 575.26
  Q 816.20 579.22 819.20 583.05
  C 830.96 598.09 817.31 617.65 799.07 614.96
  C 795.22 614.39 789.31 610.40 786.32 608.81
  C 766.53 598.27 746.30 593.67 723.89 592.90
  Z"
/>
<path fill="#808080" d="
  M 723.98 620.44
  L 723.92 660.77
  C 688.20 661.61 661.73 688.24 660.42 723.91
  L 619.90 723.96
  C 620.98 665.96 665.90 621.02 723.98 620.44
  Z"
/>
<path fill="#1a1a1a" d="
  M 723.98 620.44
  C 781.40 620.69 827.50 666.42 828.02 723.94
  L 787.31 723.91
  C 787.28 687.95 759.00 662.19 723.92 660.77
  L 723.98 620.44
  Z"
/>
<path fill="#1a1a1a" d="
  M 896.21 723.66
  Q 875.80 724.63 855.53 723.46
  Q 855.00 691.03 840.25 663.41
  C 837.82 658.85 834.35 653.40 833.48 648.80
  C 829.68 628.83 854.24 617.26 868.31 631.45
  Q 870.41 633.56 874.11 640.19
  Q 895.69 678.83 896.21 723.66
  Z"
/>
<path fill="#ffffff" d="
  M 723.92 660.77
  C 759.00 662.19 787.28 687.95 787.31 723.91
  C 787.36 759.76 759.28 785.91 723.92 787.17
  C 688.19 786.89 661.78 759.34 660.42 723.91
  C 661.73 688.24 688.20 661.61 723.92 660.77
  Z"
/>
<path fill="#000000" d="
  M 855.53 723.46
  Q 875.80 724.63 896.21 723.66
  C 896.15 819.37 818.58 895.22 723.50 895.48
  Q 723.26 895.16 723.66 894.63
  Q 723.95 894.26 723.95 893.79
  L 723.76 854.96
  C 770.75 855.04 813.97 830.03 837.56 790.07
  Q 855.63 759.46 855.53 723.46
  Z"
/>
<path fill="#1a1a1a" d="
  M 592.29 723.88
  Q 592.79 759.14 610.15 789.57
  Q 613.71 795.81 614.34 798.86
  C 617.98 816.68 597.62 829.77 582.79 819.32
  Q 579.53 817.02 576.32 811.70
  Q 552.16 771.55 551.72 723.95
  L 592.29 723.88
  Z"
/>
<path fill="#1a1a1a" d="
  M 660.42 723.91
  C 661.78 759.34 688.19 786.89 723.92 787.17
  L 723.89 827.55
  C 666.71 827.20 620.25 781.69 619.90 723.96
  L 660.42 723.91
  Z"
/>
<path fill="#000000" d="
  M 828.02 723.94
  C 827.72 781.67 781.18 827.35 723.89 827.55
  L 723.92 787.17
  C 759.28 785.91 787.36 759.76 787.31 723.91
  L 828.02 723.94
  Z"
/>
<path fill="#1a1a1a" d="
  M 723.76 854.96
  L 723.95 893.79
  Q 723.95 894.26 723.66 894.63
  Q 723.26 895.16 723.50 895.48
  Q 677.72 894.93 638.51 872.58
  Q 630.77 868.16 627.97 864.19
  C 618.10 850.20 630.25 830.79 647.08 832.80
  Q 650.50 833.21 655.43 835.85
  C 677.42 847.66 697.68 854.69 723.76 854.96
  Z"
/>
</svg>
