<?xml version="1.0" encoding="UTF-8" standalone="no"?>
<!DOCTYPE svg PUBLIC "-//W3C//DTD SVG 1.1//EN" "http://www.w3.org/Graphics/SVG/1.1/DTD/svg11.dtd">
<svg xmlns="http://www.w3.org/2000/svg" version="1.1" viewBox="0.00 0.00 1280.00 1280.00">
<g stroke-width="2.00" fill="none" stroke-linecap="butt">
<path stroke="#7f7f7f" vector-effect="non-scaling-stroke" d="
  M 155.04 641.99
  L 639.35 862.13
  Q 639.97 862.41 640.58 862.13
  Q 882.30 752.28 1124.36 642.23
  Q 1125.06 641.91 1125.44 641.54
  Q 1126.06 640.95 1126.13 640.40
  A 2.37 2.34 -74.4 0 0 1124.77 637.95
  L 640.60 417.87
  Q 639.97 417.58 639.34 417.87
  L 155.04 638.00
  A 2.19 2.19 0.0 0 0 155.04 641.99"
/>
<path stroke="#341d47" vector-effect="non-scaling-stroke" d="
  M 162.72 639.48
  L 162.11 639.69
  Q 161.43 639.93 162.09 640.23
  L 640.31 857.29"
/>
<path stroke="#2c1240" vector-effect="non-scaling-stroke" d="
  M 640.31 857.29
  L 1117.24 640.50"
/>
<path stroke="#341d47" vector-effect="non-scaling-stroke" d="
  M 1117.24 640.50
  Q 1117.55 640.52 1117.83 640.32
  Q 1118.30 639.99 1117.77 639.75
  L 640.01 422.55"
/>
<path stroke="#564960" vector-effect="non-scaling-stroke" d="
  M 640.01 422.55
  L 162.72 639.48"
/>
<path stroke="#8a65a7" vector-effect="non-scaling-stroke" d="
  M 640.01 422.55
  L 639.97 487.51"
/>
<path stroke="#9689a0" vector-effect="non-scaling-stroke" d="
  M 639.97 487.51
  C 607.87 487.46 575.70 494.69 547.69 510.67
  C 512.01 531.03 486.43 570.86 509.76 611.52
  C 516.66 623.54 524.97 630.88 535.04 639.99"
/>
<path stroke="#8a65a7" vector-effect="non-scaling-stroke" d="
  M 535.04 639.99
  L 162.80 640.00
  Q 162.55 640.00 162.63 639.77
  L 162.72 639.48"
/>
<path stroke="#391f4d" vector-effect="non-scaling-stroke" d="
  M 744.78 639.97
  Q 745.29 639.10 744.60 639.78"
/>
<path stroke="#0d0d0d" vector-effect="non-scaling-stroke" d="
  M 744.60 639.78
  L 640.91 639.66
  A 1.08 1.07 -0.0 0 0 639.83 640.73
  L 639.82 700.73"
/>
<path stroke="#391f4d" vector-effect="non-scaling-stroke" d="
  M 639.82 700.73
  Q 639.73 700.78 639.64 700.82"
/>
<path stroke="#412a54" vector-effect="non-scaling-stroke" d="
  M 639.64 700.82
  L 632.63 700.72
  A 2.80 2.80 0.0 0 1 630.25 699.34
  L 613.04 669.96
  Q 612.79 669.53 612.30 669.47
  Q 599.75 667.82 587.52 664.57
  Q 586.98 664.43 586.53 664.75
  L 566.45 679.22
  A 0.36 0.35 -53.5 0 0 566.54 679.84
  L 639.82 704.98"
/>
<path stroke="#391f4d" vector-effect="non-scaling-stroke" d="
  M 639.82 704.98
  Q 639.81 705.03 639.80 705.07"
/>
<path stroke="#0d0d0d" vector-effect="non-scaling-stroke" d="
  M 639.80 705.07
  L 639.83 742.81"
/>
<path stroke="#391f4d" vector-effect="non-scaling-stroke" d="
  M 639.83 742.81
  Q 640.17 742.98 639.21 743.12"
/>
<path stroke="#412a54" vector-effect="non-scaling-stroke" d="
  M 639.21 743.12
  C 604.41 756.56 569.75 769.81 533.28 779.81
  C 524.32 782.26 513.32 783.00 505.17 778.11
  C 502.58 776.55 503.80 774.51 505.84 773.36
  Q 548.67 749.21 591.15 725.13
  Q 591.77 724.78 591.10 724.54
  Q 557.09 712.35 523.08 699.90
  C 502.42 692.34 477.79 681.04 482.13 653.87
  A 2.39 2.39 0.0 0 1 485.26 651.99
  L 538.79 670.34
  Q 539.30 670.52 539.42 669.99
  L 544.72 647.02
  A 0.80 0.79 24.7 0 0 544.41 646.21
  L 535.87 640.02"
/>
<path stroke="#63566d" vector-effect="non-scaling-stroke" d="
  M 638.78 639.56
  Q 639.11 639.74 639.46 639.75
  Q 640.00 639.77 640.00 639.23
  L 640.01 638.74"
/>
<path stroke="#412a54" vector-effect="non-scaling-stroke" d="
  M 640.01 638.74
  Q 660.46 638.74 679.98 633.19
  C 704.83 626.12 736.69 606.95 734.69 576.60
  C 733.23 554.33 711.61 537.74 692.68 530.05
  Q 667.79 519.95 639.88 520.09"
/>
<path stroke="#602e87" vector-effect="non-scaling-stroke" d="
  M 1117.24 640.50
  C 1113.26 639.48 1109.26 640.00 1105.74 640.00
  Q 925.53 640.02 744.78 639.97"
/>
<path stroke="#412a54" vector-effect="non-scaling-stroke" d="
  M 744.78 639.97
  C 797.91 598.88 785.43 540.71 731.15 510.11
  C 703.44 494.49 671.67 487.46 639.97 487.51"
/>
<path stroke="#4d4d4d" vector-effect="non-scaling-stroke" d="
  M 639.97 487.51
  L 639.88 520.09"
/>
<path stroke="#745d87" vector-effect="non-scaling-stroke" d="
  M 639.88 520.09
  Q 640.33 519.90 639.80 520.51"
/>
<path stroke="#9689a0" vector-effect="non-scaling-stroke" d="
  M 639.80 520.51
  Q 639.78 520.35 639.75 520.24
  Q 639.71 520.10 639.58 520.10
  Q 613.13 519.97 588.57 529.57
  C 558.65 541.27 530.43 570.83 553.66 603.84
  C 570.87 628.30 608.24 638.10 636.42 638.83
  Q 636.92 638.85 637.33 639.14
  Q 637.95 639.60 638.78 639.56"
/>
<path stroke="#4d4d4d" vector-effect="non-scaling-stroke" d="
  M 638.78 639.56
  C 638.24 639.73 637.61 640.00 637.05 640.00
  Q 586.62 639.98 535.87 640.02"
/>
<path stroke="#745d87" vector-effect="non-scaling-stroke" d="
  M 535.87 640.02
  L 535.04 639.99"
/>
<path stroke="#602e87" vector-effect="non-scaling-stroke" d="
  M 639.21 743.12
  L 639.68 743.25
  Q 640.09 743.36 640.09 743.79
  L 640.31 857.29"
/>
<path stroke="#2c1240" vector-effect="non-scaling-stroke" d="
  M 744.60 639.78
  L 735.59 646.15
  Q 735.13 646.47 735.26 647.02
  L 740.53 669.88
  Q 740.65 670.41 741.17 670.24
  L 794.68 651.91
  A 2.29 2.29 0.0 0 1 797.67 653.65
  C 803.23 682.96 773.00 694.22 751.65 701.87
  Q 720.34 713.10 688.95 724.59
  Q 688.39 724.80 688.91 725.09
  Q 754.06 762.20 774.18 773.32
  Q 776.05 774.35 776.38 775.88
  A 1.11 1.09 -28.2 0 1 776.06 776.91
  C 764.06 788.21 733.02 776.45 717.56 771.18
  Q 678.65 757.93 639.83 742.81"
/>
<path stroke="#2c1240" vector-effect="non-scaling-stroke" d="
  M 639.80 705.07
  L 713.26 679.81
  A 0.37 0.36 53.2 0 0 713.35 679.17
  L 693.49 664.77
  Q 693.06 664.46 692.54 664.60
  Q 680.24 667.86 667.61 669.50
  A 0.94 0.93 11.1 0 0 666.92 669.96
  L 649.63 699.42
  A 2.72 2.70 -74.6 0 1 647.30 700.75
  L 639.82 700.73"
/>
<path stroke="#8a65a7" vector-effect="non-scaling-stroke" d="
  M 639.80 520.51
  L 639.95 535.54"
/>
<path stroke="#9689a0" vector-effect="non-scaling-stroke" d="
  M 639.95 535.54
  C 618.78 535.65 596.55 540.86 580.03 554.78
  C 553.71 576.96 572.05 604.15 596.82 614.68
  Q 617.02 623.26 639.93 623.21"
/>
<path stroke="#8a65a7" vector-effect="non-scaling-stroke" d="
  M 639.93 623.21
  L 640.01 638.74"
/>
<path stroke="#412a54" vector-effect="non-scaling-stroke" d="
  M 639.93 623.21
  Q 661.78 623.28 681.74 615.25
  C 696.63 609.26 713.12 595.97 712.55 578.66
  C 711.84 556.52 686.33 543.48 667.99 538.99
  Q 654.27 535.63 639.95 535.54"
/>
<path stroke="#602e87" vector-effect="non-scaling-stroke" d="
  M 639.64 700.82
  L 639.82 704.98"
/>
<path stroke="#4d4d4d" vector-effect="non-scaling-stroke" d="
  M 639.95 535.54
  L 639.91 567.63"
/>
<path stroke="#9689a0" vector-effect="non-scaling-stroke" d="
  M 639.91 567.63
  C 630.72 567.69 621.16 569.04 613.16 573.96
  C 604.79 579.10 611.19 584.67 616.98 586.95
  Q 628.07 591.32 639.86 591.14"
/>
<path stroke="#745d87" vector-effect="non-scaling-stroke" d="
  M 639.86 591.14
  Q 639.89 591.18 639.92 591.22"
/>
<path stroke="#4d4d4d" vector-effect="non-scaling-stroke" d="
  M 639.92 591.22
  L 639.93 623.21"
/>
<path stroke="#412a54" vector-effect="non-scaling-stroke" d="
  M 639.92 591.22
  C 648.95 591.14 660.26 589.76 667.83 584.11
  C 672.01 580.99 671.61 576.89 667.26 574.21
  C 658.91 569.05 649.46 567.70 639.91 567.63"
/>
<path stroke="#8a65a7" vector-effect="non-scaling-stroke" d="
  M 639.91 567.63
  L 639.86 591.14"
/>
</g>
<path fill="#fdfdfd" d="
  M 635.00 865.12
  C 474.88 792.34 314.72 719.61 154.63 646.75
  C 149.53 644.43 146.96 639.16 151.74 634.78
  Q 152.60 634.00 156.52 632.22
  Q 397.20 522.97 637.83 413.59
  Q 639.69 412.74 642.40 413.97
  Q 882.25 522.75 1122.04 631.67
  Q 1124.15 632.63 1126.22 633.66
  C 1130.22 635.67 1132.20 640.20 1129.25 643.89
  Q 1127.88 645.61 1123.84 647.45
  Q 883.17 756.86 642.50 866.24
  C 639.93 867.41 637.54 866.28 635.00 865.12
  Z
  M 155.04 641.99
  L 639.35 862.13
  Q 639.97 862.41 640.58 862.13
  Q 882.30 752.28 1124.36 642.23
  Q 1125.06 641.91 1125.44 641.54
  Q 1126.06 640.95 1126.13 640.40
  A 2.37 2.34 -74.4 0 0 1124.77 637.95
  L 640.60 417.87
  Q 639.97 417.58 639.34 417.87
  L 155.04 638.00
  A 2.19 2.19 0.0 0 0 155.04 641.99
  Z"
/>
<path fill="#000000" d="
  M 639.35 862.13
  L 155.04 641.99
  A 2.19 2.19 0.0 0 1 155.04 638.00
  L 639.34 417.87
  Q 639.97 417.58 640.60 417.87
  L 1124.77 637.95
  A 2.37 2.34 -74.4 0 1 1126.13 640.40
  Q 1126.06 640.95 1125.44 641.54
  Q 1125.06 641.91 1124.36 642.23
  Q 882.30 752.28 640.58 862.13
  Q 639.97 862.41 639.35 862.13
  Z
  M 162.72 639.48
  L 162.11 639.69
  Q 161.43 639.93 162.09 640.23
  L 640.31 857.29
  L 1117.24 640.50
  Q 1117.55 640.52 1117.83 640.32
  Q 1118.30 639.99 1117.77 639.75
  L 640.01 422.55
  L 162.72 639.48
  Z"
/>
<path fill="#ab91c0" d="
  M 640.01 422.55
  L 639.97 487.51
  C 607.87 487.46 575.70 494.69 547.69 510.67
  C 512.01 531.03 486.43 570.86 509.76 611.52
  C 516.66 623.54 524.97 630.88 535.04 639.99
  L 162.80 640.00
  Q 162.55 640.00 162.63 639.77
  L 162.72 639.48
  L 640.01 422.55
  Z"
/>
<path fill="#68398d" d="
  M 640.01 422.55
  L 1117.77 639.75
  Q 1118.30 639.99 1117.83 640.32
  Q 1117.55 640.52 1117.24 640.50
  C 1113.26 639.48 1109.26 640.00 1105.74 640.00
  Q 925.53 640.02 744.78 639.97
  C 797.91 598.88 785.43 540.71 731.15 510.11
  C 703.44 494.49 671.67 487.46 639.97 487.51
  L 640.01 422.55
  Z"
/>
<path fill="#808080" d="
  M 639.97 487.51
  L 639.88 520.09
  Q 640.33 519.90 639.80 520.51
  Q 639.78 520.35 639.75 520.24
  Q 639.71 520.10 639.58 520.10
  Q 613.13 519.97 588.57 529.57
  C 558.65 541.27 530.43 570.83 553.66 603.84
  C 570.87 628.30 608.24 638.10 636.42 638.83
  Q 636.92 638.85 637.33 639.14
  Q 637.95 639.60 638.78 639.56
  C 638.24 639.73 637.61 640.00 637.05 640.00
  Q 586.62 639.98 535.87 640.02
  L 535.04 639.99
  C 524.97 630.88 516.66 623.54 509.76 611.52
  C 486.43 570.86 512.01 531.03 547.69 510.67
  C 575.70 494.69 607.87 487.46 639.97 487.51
  Z"
/>
<path fill="#1a1a1a" d="
  M 639.97 487.51
  C 671.67 487.46 703.44 494.49 731.15 510.11
  C 785.43 540.71 797.91 598.88 744.78 639.97
  Q 745.29 639.10 744.60 639.78
  L 640.91 639.66
  A 1.08 1.07 -0.0 0 0 639.83 640.73
  L 639.82 700.73
  Q 639.73 700.78 639.64 700.82
  L 632.63 700.72
  A 2.80 2.80 0.0 0 1 630.25 699.34
  L 613.04 669.96
  Q 612.79 669.53 612.30 669.47
  Q 599.75 667.82 587.52 664.57
  Q 586.98 664.43 586.53 664.75
  L 566.45 679.22
  A 0.36 0.35 -53.5 0 0 566.54 679.84
  L 639.82 704.98
  Q 639.81 705.03 639.80 705.07
  L 639.83 742.81
  Q 640.17 742.98 639.21 743.12
  C 604.41 756.56 569.75 769.81 533.28 779.81
  C 524.32 782.26 513.32 783.00 505.17 778.11
  C 502.58 776.55 503.80 774.51 505.84 773.36
  Q 548.67 749.21 591.15 725.13
  Q 591.77 724.78 591.10 724.54
  Q 557.09 712.35 523.08 699.90
  C 502.42 692.34 477.79 681.04 482.13 653.87
  A 2.39 2.39 0.0 0 1 485.26 651.99
  L 538.79 670.34
  Q 539.30 670.52 539.42 669.99
  L 544.72 647.02
  A 0.80 0.79 24.7 0 0 544.41 646.21
  L 535.87 640.02
  Q 586.62 639.98 637.05 640.00
  C 637.61 640.00 638.24 639.73 638.78 639.56
  Q 639.11 639.74 639.46 639.75
  Q 640.00 639.77 640.00 639.23
  L 640.01 638.74
  Q 660.46 638.74 679.98 633.19
  C 704.83 626.12 736.69 606.95 734.69 576.60
  C 733.23 554.33 711.61 537.74 692.68 530.05
  Q 667.79 519.95 639.88 520.09
  L 639.97 487.51
  Z"
/>
<path fill="#ab91c0" d="
  M 639.80 520.51
  L 639.95 535.54
  C 618.78 535.65 596.55 540.86 580.03 554.78
  C 553.71 576.96 572.05 604.15 596.82 614.68
  Q 617.02 623.26 639.93 623.21
  L 640.01 638.74
  L 640.00 639.23
  Q 640.00 639.77 639.46 639.75
  Q 639.11 639.74 638.78 639.56
  Q 637.95 639.60 637.33 639.14
  Q 636.92 638.85 636.42 638.83
  C 608.24 638.10 570.87 628.30 553.66 603.84
  C 530.43 570.83 558.65 541.27 588.57 529.57
  Q 613.13 519.97 639.58 520.10
  Q 639.71 520.10 639.75 520.24
  Q 639.78 520.35 639.80 520.51
  Z"
/>
<path fill="#68398d" d="
  M 639.88 520.09
  Q 667.79 519.95 692.68 530.05
  C 711.61 537.74 733.23 554.33 734.69 576.60
  C 736.69 606.95 704.83 626.12 679.98 633.19
  Q 660.46 638.74 640.01 638.74
  L 639.93 623.21
  Q 661.78 623.28 681.74 615.25
  C 696.63 609.26 713.12 595.97 712.55 578.66
  C 711.84 556.52 686.33 543.48 667.99 538.99
  Q 654.27 535.63 639.95 535.54
  L 639.80 520.51
  Q 640.33 519.90 639.88 520.09
  Z"
/>
<path fill="#808080" d="
  M 639.95 535.54
  L 639.91 567.63
  C 630.72 567.69 621.16 569.04 613.16 573.96
  C 604.79 579.10 611.19 584.67 616.98 586.95
  Q 628.07 591.32 639.86 591.14
  Q 639.89 591.18 639.92 591.22
  L 639.93 623.21
  Q 617.02 623.26 596.82 614.68
  C 572.05 604.15 553.71 576.96 580.03 554.78
  C 596.55 540.86 618.78 535.65 639.95 535.54
  Z"
/>
<path fill="#1a1a1a" d="
  M 639.95 535.54
  Q 654.27 535.63 667.99 538.99
  C 686.33 543.48 711.84 556.52 712.55 578.66
  C 713.12 595.97 696.63 609.26 681.74 615.25
  Q 661.78 623.28 639.93 623.21
  L 639.92 591.22
  C 648.95 591.14 660.26 589.76 667.83 584.11
  C 672.01 580.99 671.61 576.89 667.26 574.21
  C 658.91 569.05 649.46 567.70 639.91 567.63
  L 639.95 535.54
  Z"
/>
<path fill="#ab91c0" d="
  M 639.91 567.63
  L 639.86 591.14
  Q 628.07 591.32 616.98 586.95
  C 611.19 584.67 604.79 579.10 613.16 573.96
  C 621.16 569.04 630.72 567.69 639.91 567.63
  Z"
/>
<path fill="#68398d" d="
  M 639.91 567.63
  C 649.46 567.70 658.91 569.05 667.26 574.21
  C 671.61 576.89 672.01 580.99 667.83 584.11
  C 660.26 589.76 648.95 591.14 639.92 591.22
  Q 639.89 591.18 639.86 591.14
  L 639.91 567.63
  Z"
/>
<path fill="#68398d" d="
  M 162.72 639.48
  L 162.63 639.77
  Q 162.55 640.00 162.80 640.00
  L 535.04 639.99
  L 535.87 640.02
  L 544.41 646.21
  A 0.80 0.79 24.7 0 1 544.72 647.02
  L 539.42 669.99
  Q 539.30 670.52 538.79 670.34
  L 485.26 651.99
  A 2.39 2.39 0.0 0 0 482.13 653.87
  C 477.79 681.04 502.42 692.34 523.08 699.90
  Q 557.09 712.35 591.10 724.54
  Q 591.77 724.78 591.15 725.13
  Q 548.67 749.21 505.84 773.36
  C 503.80 774.51 502.58 776.55 505.17 778.11
  C 513.32 783.00 524.32 782.26 533.28 779.81
  C 569.75 769.81 604.41 756.56 639.21 743.12
  L 639.68 743.25
  Q 640.09 743.36 640.09 743.79
  L 640.31 857.29
  L 162.09 640.23
  Q 161.43 639.93 162.11 639.69
  L 162.72 639.48
  Z"
/>
<path fill="#000000" d="
  M 744.60 639.78
  L 735.59 646.15
  Q 735.13 646.47 735.26 647.02
  L 740.53 669.88
  Q 740.65 670.41 741.17 670.24
  L 794.68 651.91
  A 2.29 2.29 0.0 0 1 797.67 653.65
  C 803.23 682.96 773.00 694.22 751.65 701.87
  Q 720.34 713.10 688.95 724.59
  Q 688.39 724.80 688.91 725.09
  Q 754.06 762.20 774.18 773.32
  Q 776.05 774.35 776.38 775.88
  A 1.11 1.09 -28.2 0 1 776.06 776.91
  C 764.06 788.21 733.02 776.45 717.56 771.18
  Q 678.65 757.93 639.83 742.81
  L 639.80 705.07
  L 713.26 679.81
  A 0.37 0.36 53.2 0 0 713.35 679.17
  L 693.49 664.77
  Q 693.06 664.46 692.54 664.60
  Q 680.24 667.86 667.61 669.50
  A 0.94 0.93 11.1 0 0 666.92 669.96
  L 649.63 699.42
  A 2.72 2.70 -74.6 0 1 647.30 700.75
  L 639.82 700.73
  L 639.83 640.73
  A 1.08 1.07 0.0 0 1 640.91 639.66
  L 744.60 639.78
  Z"
/>
<path fill="#572380" d="
  M 744.78 639.97
  Q 925.53 640.02 1105.74 640.00
  C 1109.26 640.00 1113.26 639.48 1117.24 640.50
  L 640.31 857.29
  L 640.09 743.79
  Q 640.09 743.36 639.68 743.25
  L 639.21 743.12
  Q 640.17 742.98 639.83 742.81
  Q 678.65 757.93 717.56 771.18
  C 733.02 776.45 764.06 788.21 776.06 776.91
  A 1.11 1.09 -28.2 0 0 776.38 775.88
  Q 776.05 774.35 774.18 773.32
  Q 754.06 762.20 688.91 725.09
  Q 688.39 724.80 688.95 724.59
  Q 720.34 713.10 751.65 701.87
  C 773.00 694.22 803.23 682.96 797.67 653.65
  A 2.29 2.29 0.0 0 0 794.68 651.91
  L 741.17 670.24
  Q 740.65 670.41 740.53 669.88
  L 735.26 647.02
  Q 735.13 646.47 735.59 646.15
  L 744.60 639.78
  Q 745.29 639.10 744.78 639.97
  Z"
/>
<path fill="#68398d" d="
  M 639.64 700.82
  L 639.82 704.98
  L 566.54 679.84
  A 0.36 0.35 -53.5 0 1 566.45 679.22
  L 586.53 664.75
  Q 586.98 664.43 587.52 664.57
  Q 599.75 667.82 612.30 669.47
  Q 612.79 669.53 613.04 669.96
  L 630.25 699.34
  A 2.80 2.80 0.0 0 0 632.63 700.72
  L 639.64 700.82
  Z"
/>
<path fill="#572380" d="
  M 639.80 705.07
  Q 639.81 705.03 639.82 704.98
  L 639.64 700.82
  Q 639.73 700.78 639.82 700.73
  L 647.30 700.75
  A 2.72 2.70 -74.6 0 0 649.63 699.42
  L 666.92 669.96
  A 0.94 0.93 11.1 0 1 667.61 669.50
  Q 680.24 667.86 692.54 664.60
  Q 693.06 664.46 693.49 664.77
  L 713.35 679.17
  A 0.37 0.36 53.2 0 1 713.26 679.81
  L 639.80 705.07
  Z"
/>
</svg>
