<?xml version="1.0" encoding="UTF-8" standalone="no"?>
<!DOCTYPE svg PUBLIC "-//W3C//DTD SVG 1.1//EN" "http://www.w3.org/Graphics/SVG/1.1/DTD/svg11.dtd">
<svg xmlns="http://www.w3.org/2000/svg" version="1.1" viewBox="0.00 0.00 1280.00 1280.00">
<g stroke-width="2.00" fill="none" stroke-linecap="butt">
<path stroke="#7f7f7f" vector-effect="non-scaling-stroke" d="
  M 154.89 641.92
  L 639.36 862.13
  Q 639.97 862.41 640.59 862.13
  Q 882.30 752.27 1124.36 642.24
  Q 1125.06 641.92 1125.44 641.55
  Q 1126.05 640.95 1126.12 640.40
  A 2.36 2.33 -74.2 0 0 1124.77 637.95
  L 640.60 417.87
  A 1.51 1.51 0.0 0 0 639.34 417.87
  L 154.89 638.07
  A 2.12 2.11 -45.0 0 0 154.89 641.92"
/>
<path stroke="#75324f" vector-effect="non-scaling-stroke" d="
  M 162.96 640.62
  L 639.47 857.22"
/>
<path stroke="#732949" vector-effect="non-scaling-stroke" d="
  M 639.47 857.22
  Q 639.48 857.41 639.62 857.47
  Q 639.72 857.51 639.87 857.45
  Q 877.64 749.53 1115.28 641.38"
/>
<path stroke="#75324f" vector-effect="non-scaling-stroke" d="
  M 1115.28 641.38
  L 1117.77 640.30
  Q 1118.39 640.03 1117.78 639.75
  L 640.31 422.71"
/>
<path stroke="#7a5465" vector-effect="non-scaling-stroke" d="
  M 640.31 422.71
  L 162.11 639.75
  Q 161.64 639.97 162.06 640.27
  Q 162.46 640.55 162.96 640.62"
/>
<path stroke="#ee86b3" vector-effect="non-scaling-stroke" d="
  M 640.31 422.71
  L 639.93 548.44"
/>
<path stroke="#ba94a5" vector-effect="non-scaling-stroke" d="
  M 639.93 548.44
  Q 619.32 548.94 599.43 554.37
  Q 598.92 554.51 598.66 554.05
  Q 578.77 518.72 546.83 493.69
  A 2.07 2.07 0.0 0 0 543.49 495.23
  Q 541.80 535.69 550.25 575.28
  Q 550.37 575.82 549.90 576.12
  C 524.08 592.38 500.27 614.11 483.84 639.95"
/>
<path stroke="#876172" vector-effect="non-scaling-stroke" d="
  M 483.84 639.95
  Q 483.86 639.97 483.88 639.99"
/>
<path stroke="#ee86b3" vector-effect="non-scaling-stroke" d="
  M 483.88 639.99
  Q 325.68 640.05 167.81 639.94
  Q 164.50 639.94 162.96 640.62"
/>
<path stroke="#823f5c" vector-effect="non-scaling-stroke" d="
  M 483.88 639.99
  Q 476.37 651.38 474.50 664.25
  Q 474.15 666.62 475.05 674.78"
/>
<path stroke="#75324f" vector-effect="non-scaling-stroke" d="
  M 475.05 674.78
  C 480.83 720.33 520.55 752.93 561.94 767.76
  Q 562.39 767.92 562.83 767.75
  Q 564.43 767.15 564.23 765.35
  Q 564.18 764.85 563.83 764.49
  L 556.92 757.32"
/>
<path stroke="#823f5c" vector-effect="non-scaling-stroke" d="
  M 556.92 757.32
  C 527.89 725.25 519.79 680.25 536.18 640.04"
/>
<path stroke="#823f5c" vector-effect="non-scaling-stroke" d="
  M 580.16 639.99
  C 558.52 683.57 573.58 746.75 622.95 763.27"
/>
<path stroke="#4d4d4d" vector-effect="non-scaling-stroke" d="
  M 640.50 548.57
  Q 639.99 548.81 640.00 549.25
  Q 640.19 557.28 639.83 570.66"
/>
<path stroke="#ba94a5" vector-effect="non-scaling-stroke" d="
  M 639.83 570.66
  C 593.81 571.23 554.33 597.69 536.18 639.92"
/>
<path stroke="#4d4d4d" vector-effect="non-scaling-stroke" d="
  M 536.18 639.92
  L 483.84 639.95"
/>
<path stroke="#e85a98" vector-effect="non-scaling-stroke" d="
  M 1115.28 641.38
  C 1112.68 638.79 1110.70 640.00 1107.80 640.00
  Q 952.06 639.99 796.20 640.01"
/>
<path stroke="#75324f" vector-effect="non-scaling-stroke" d="
  M 796.20 640.01
  Q 795.63 639.69 795.79 639.42"
/>
<path stroke="#823f5c" vector-effect="non-scaling-stroke" d="
  M 795.79 639.42
  C 779.06 613.69 755.86 592.40 729.93 576.11
  Q 729.49 575.84 729.60 575.33
  Q 738.07 536.49 736.47 496.76
  Q 736.42 495.38 736.16 494.65
  A 2.07 2.06 -29.3 0 0 732.93 493.75
  C 712.20 510.38 694.02 530.64 681.47 554.16
  Q 681.20 554.66 680.65 554.50
  Q 661.04 548.85 640.50 548.57"
/>
<path stroke="#b5728f" vector-effect="non-scaling-stroke" d="
  M 640.50 548.57
  L 639.93 548.44"
/>
<path stroke="#0d0d0d" vector-effect="non-scaling-stroke" d="
  M 556.92 757.32
  Q 556.63 760.07 560.45 763.02
  C 561.16 763.56 561.25 764.26 562.27 764.48
  Q 562.75 764.59 562.56 765.04
  Q 561.83 766.77 559.77 765.94
  Q 542.68 759.07 525.41 748.20
  C 524.65 747.73 524.36 746.99 523.52 746.50
  C 519.01 743.88 515.02 740.17 511.04 736.77
  Q 493.41 721.65 483.34 700.69
  Q 480.87 695.54 477.38 681.68
  C 477.13 680.68 477.26 676.13 476.44 674.74
  Q 475.51 673.16 475.05 674.78"
/>
<path stroke="#732949" vector-effect="non-scaling-stroke" d="
  M 700.00 639.98
  C 715.59 673.94 712.46 714.84 687.09 743.56
  Q 668.48 764.63 640.09 765.91"
/>
<path stroke="#75324f" vector-effect="non-scaling-stroke" d="
  M 640.09 765.91
  Q 631.82 765.49 622.95 763.27"
/>
<path stroke="#0d0d0d" vector-effect="non-scaling-stroke" d="
  M 622.95 763.27
  L 622.98 762.78
  Q 623.03 762.26 623.54 762.34
  L 638.35 764.61
  Q 639.84 764.84 639.84 763.34
  Q 639.84 753.21 639.74 742.50
  Q 639.73 742.26 640.58 742.10"
/>
<path stroke="#732949" vector-effect="non-scaling-stroke" d="
  M 640.58 742.10
  C 661.59 740.86 675.42 722.33 680.37 703.32
  C 685.86 682.22 683.18 659.06 670.88 640.80"
/>
<path stroke="#732949" vector-effect="non-scaling-stroke" d="
  M 743.72 639.95
  C 761.10 683.35 750.93 731.58 716.76 763.56
  C 715.45 764.79 714.97 765.89 716.25 767.35
  Q 717.01 768.21 718.09 767.82
  C 761.26 752.46 802.92 717.27 805.41 668.00
  C 805.92 657.99 801.39 648.56 796.20 640.01"
/>
<path stroke="#e85a98" vector-effect="non-scaling-stroke" d="
  M 639.47 857.22
  Q 640.14 856.68 640.41 855.82
  Q 640.57 855.36 640.18 855.05
  Q 639.52 854.55 639.85 853.79
  Q 640.00 853.43 640.00 853.04
  L 640.09 765.91"
/>
<path stroke="#ee86b3" vector-effect="non-scaling-stroke" d="
  M 639.83 570.66
  L 639.88 598.96"
/>
<path stroke="#ba94a5" vector-effect="non-scaling-stroke" d="
  M 639.88 598.96
  C 613.42 599.27 591.40 616.70 580.16 639.99"
/>
<path stroke="#ee86b3" vector-effect="non-scaling-stroke" d="
  M 580.16 639.99
  L 536.18 640.04"
/>
<path stroke="#876172" vector-effect="non-scaling-stroke" d="
  M 536.18 640.04
  Q 536.18 639.98 536.18 639.92"
/>
<path stroke="#4d4d4d" vector-effect="non-scaling-stroke" d="
  M 640.04 598.90
  L 639.85 622.45"
/>
<path stroke="#ba94a5" vector-effect="non-scaling-stroke" d="
  M 639.85 622.45
  Q 621.07 623.87 609.87 639.88"
/>
<path stroke="#b5728f" vector-effect="non-scaling-stroke" d="
  M 609.87 639.88
  Q 609.46 639.89 609.33 640.17"
/>
<path stroke="#404040" vector-effect="non-scaling-stroke" d="
  M 609.33 640.17
  L 599.01 640.08"
/>
<path stroke="#4d4d4d" vector-effect="non-scaling-stroke" d="
  M 599.01 640.08
  L 580.16 639.99"
/>
<path stroke="#0d0d0d" vector-effect="non-scaling-stroke" d="
  M 599.01 640.08
  Q 593.02 640.41 587.01 640.21
  Q 586.68 640.20 586.52 640.32
  Q 586.31 640.47 586.26 640.76
  Q 586.17 641.28 586.70 641.37
  C 592.75 642.43 599.93 640.66 605.30 642.76
  Q 605.86 642.98 605.59 643.52
  L 600.86 652.93
  A 0.64 0.63 -78.7 0 0 601.47 653.85
  L 602.08 653.80"
/>
<path stroke="#e85a98" vector-effect="non-scaling-stroke" d="
  M 743.62 639.73
  Q 743.61 640.33 743.43 640.66
  A 0.47 0.47 0.0 0 1 742.64 640.71
  C 741.21 638.76 739.45 640.03 737.83 640.02
  Q 718.90 640.00 700.00 639.98"
/>
<path stroke="#75324f" vector-effect="non-scaling-stroke" d="
  M 700.00 639.98
  Q 699.76 639.85 699.43 639.25"
/>
<path stroke="#823f5c" vector-effect="non-scaling-stroke" d="
  M 699.43 639.25
  C 687.91 616.09 666.62 599.74 640.04 598.90"
/>
<path stroke="#b5728f" vector-effect="non-scaling-stroke" d="
  M 640.04 598.90
  Q 639.96 598.93 639.88 598.96"
/>
<path stroke="#0d0d0d" vector-effect="non-scaling-stroke" d="
  M 795.79 639.42
  C 794.36 639.66 793.16 640.00 791.72 640.00
  Q 767.81 640.04 743.72 639.95"
/>
<path stroke="#803656" vector-effect="non-scaling-stroke" d="
  M 743.72 639.95
  Q 743.72 639.82 743.62 639.73"
/>
<path stroke="#823f5c" vector-effect="non-scaling-stroke" d="
  M 743.62 639.73
  C 725.90 597.61 685.43 571.09 639.83 570.66"
/>
<path stroke="#75324f" vector-effect="non-scaling-stroke" d="
  M 670.43 639.97
  Q 670.48 640.44 670.88 640.80"
/>
<path stroke="#e85a98" vector-effect="non-scaling-stroke" d="
  M 670.88 640.80
  Q 670.21 641.85 669.02 640.40
  Q 668.66 639.95 668.08 639.95
  L 640.97 640.02
  A 1.09 1.08 -0.5 0 0 639.89 641.11
  L 639.95 648.38"
/>
<path stroke="#75324f" vector-effect="non-scaling-stroke" d="
  M 639.95 648.38
  Q 631.93 648.91 626.97 657.39"
/>
<path stroke="#823f5c" vector-effect="non-scaling-stroke" d="
  M 626.97 657.39
  Q 621.60 667.19 621.05 678.49
  C 620.45 690.72 623.41 713.03 638.41 716.36"
/>
<path stroke="#e85a98" vector-effect="non-scaling-stroke" d="
  M 638.41 716.36
  L 639.88 716.74
  Q 640.20 716.83 640.20 717.16
  L 639.87 742.04"
/>
<path stroke="#823f5c" vector-effect="non-scaling-stroke" d="
  M 639.87 742.04
  C 613.67 741.43 599.36 713.22 597.16 690.51
  Q 595.32 671.58 602.08 653.80"
/>
<path stroke="#75324f" vector-effect="non-scaling-stroke" d="
  M 602.08 653.80
  Q 604.90 646.79 609.33 640.17"
/>
<path stroke="#803656" vector-effect="non-scaling-stroke" d="
  M 640.58 742.10
  Q 640.10 741.90 639.87 742.04"
/>
<path stroke="#803656" vector-effect="non-scaling-stroke" d="
  M 638.41 716.36
  Q 638.56 716.29 638.71 716.21"
/>
<path stroke="#732949" vector-effect="non-scaling-stroke" d="
  M 638.71 716.21
  C 648.55 718.10 655.20 705.00 657.13 697.43
  Q 659.84 686.74 658.67 676.02
  C 657.53 665.64 652.78 648.76 639.95 648.38"
/>
<path stroke="#0d0d0d" vector-effect="non-scaling-stroke" d="
  M 699.43 639.25
  C 691.02 640.84 681.34 640.00 672.72 640.00
  Q 672.22 640.00 671.78 639.76
  Q 670.63 639.12 670.43 639.97"
/>
<path stroke="#823f5c" vector-effect="non-scaling-stroke" d="
  M 670.43 639.97
  C 662.60 629.82 653.09 623.17 639.87 622.55"
/>
<path stroke="#876172" vector-effect="non-scaling-stroke" d="
  M 639.87 622.55
  Q 639.86 622.50 639.85 622.45"
/>
<path stroke="#ee86b3" vector-effect="non-scaling-stroke" d="
  M 639.87 622.55
  L 639.86 639.28
  Q 639.86 639.89 639.25 639.89
  L 609.87 639.88"
/>
<path stroke="#0d0d0d" vector-effect="non-scaling-stroke" d="
  M 638.71 716.21
  L 639.54 714.87
  Q 639.84 714.38 639.85 713.81
  L 639.90 651.06
  Q 639.90 650.06 638.90 650.08
  Q 633.06 650.19 629.76 655.74
  Q 628.23 658.33 626.97 657.39"
/>
</g>
<path fill="#fdfdfd" d="
  M 635.00 865.12
  C 475.02 792.39 315.05 719.65 155.05 646.96
  C 148.51 643.99 146.57 637.17 153.94 633.62
  Q 160.02 630.69 166.17 627.90
  Q 402.11 520.73 637.29 413.85
  A 6.50 6.48 -44.9 0 1 642.66 413.85
  Q 883.75 523.42 1125.69 633.40
  C 1129.86 635.30 1132.29 639.57 1129.44 643.61
  Q 1128.10 645.51 1124.23 647.27
  Q 883.37 756.77 642.49 866.24
  C 639.92 867.41 637.54 866.28 635.00 865.12
  Z
  M 154.89 641.92
  L 639.36 862.13
  Q 639.97 862.41 640.59 862.13
  Q 882.30 752.27 1124.36 642.24
  Q 1125.06 641.92 1125.44 641.55
  Q 1126.05 640.95 1126.12 640.40
  A 2.36 2.33 -74.2 0 0 1124.77 637.95
  L 640.60 417.87
  A 1.51 1.51 0.0 0 0 639.34 417.87
  L 154.89 638.07
  A 2.12 2.11 -45.0 0 0 154.89 641.92
  Z"
/>
<path fill="#000000" d="
  M 639.36 862.13
  L 154.89 641.92
  A 2.12 2.11 -45.0 0 1 154.89 638.07
  L 639.34 417.87
  A 1.51 1.51 0.0 0 1 640.60 417.87
  L 1124.77 637.95
  A 2.36 2.33 -74.2 0 1 1126.12 640.40
  Q 1126.05 640.95 1125.44 641.55
  Q 1125.06 641.92 1124.36 642.24
  Q 882.30 752.27 640.59 862.13
  Q 639.97 862.41 639.36 862.13
  Z
  M 162.96 640.62
  L 639.47 857.22
  Q 639.48 857.41 639.62 857.47
  Q 639.72 857.51 639.87 857.45
  Q 877.64 749.53 1115.28 641.38
  L 1117.77 640.30
  Q 1118.39 640.03 1117.78 639.75
  L 640.31 422.71
  L 162.11 639.75
  Q 161.64 639.97 162.06 640.27
  Q 162.46 640.55 162.96 640.62
  Z"
/>
<path fill="#f3a8c9" d="
  M 640.31 422.71
  L 639.93 548.44
  Q 619.32 548.94 599.43 554.37
  Q 598.92 554.51 598.66 554.05
  Q 578.77 518.72 546.83 493.69
  A 2.07 2.07 0.0 0 0 543.49 495.23
  Q 541.80 535.69 550.25 575.28
  Q 550.37 575.82 549.90 576.12
  C 524.08 592.38 500.27 614.11 483.84 639.95
  Q 483.86 639.97 483.88 639.99
  Q 325.68 640.05 167.81 639.94
  Q 164.50 639.94 162.96 640.62
  Q 162.46 640.55 162.06 640.27
  Q 161.64 639.97 162.11 639.75
  L 640.31 422.71
  Z"
/>
<path fill="#e9639d" d="
  M 640.31 422.71
  L 1117.78 639.75
  Q 1118.39 640.03 1117.77 640.30
  L 1115.28 641.38
  C 1112.68 638.79 1110.70 640.00 1107.80 640.00
  Q 952.06 639.99 796.20 640.01
  Q 795.63 639.69 795.79 639.42
  C 779.06 613.69 755.86 592.40 729.93 576.11
  Q 729.49 575.84 729.60 575.33
  Q 738.07 536.49 736.47 496.76
  Q 736.42 495.38 736.16 494.65
  A 2.07 2.06 -29.3 0 0 732.93 493.75
  C 712.20 510.38 694.02 530.64 681.47 554.16
  Q 681.20 554.66 680.65 554.50
  Q 661.04 548.85 640.50 548.57
  L 639.93 548.44
  L 640.31 422.71
  Z"
/>
<path fill="#808080" d="
  M 639.93 548.44
  L 640.50 548.57
  Q 639.99 548.81 640.00 549.25
  Q 640.19 557.28 639.83 570.66
  C 593.81 571.23 554.33 597.69 536.18 639.92
  L 483.84 639.95
  C 500.27 614.11 524.08 592.38 549.90 576.12
  Q 550.37 575.82 550.25 575.28
  Q 541.80 535.69 543.49 495.23
  A 2.07 2.07 0.0 0 1 546.83 493.69
  Q 578.77 518.72 598.66 554.05
  Q 598.92 554.51 599.43 554.37
  Q 619.32 548.94 639.93 548.44
  Z"
/>
<path fill="#1a1a1a" d="
  M 795.79 639.42
  C 794.36 639.66 793.16 640.00 791.72 640.00
  Q 767.81 640.04 743.72 639.95
  Q 743.72 639.82 743.62 639.73
  C 725.90 597.61 685.43 571.09 639.83 570.66
  Q 640.19 557.28 640.00 549.25
  Q 639.99 548.81 640.50 548.57
  Q 661.04 548.85 680.65 554.50
  Q 681.20 554.66 681.47 554.16
  C 694.02 530.64 712.20 510.38 732.93 493.75
  A 2.07 2.06 -29.3 0 1 736.16 494.65
  Q 736.42 495.38 736.47 496.76
  Q 738.07 536.49 729.60 575.33
  Q 729.49 575.84 729.93 576.11
  C 755.86 592.40 779.06 613.69 795.79 639.42
  Z"
/>
<path fill="#f3a8c9" d="
  M 639.83 570.66
  L 639.88 598.96
  C 613.42 599.27 591.40 616.70 580.16 639.99
  L 536.18 640.04
  Q 536.18 639.98 536.18 639.92
  C 554.33 597.69 593.81 571.23 639.83 570.66
  Z"
/>
<path fill="#e9639d" d="
  M 639.83 570.66
  C 685.43 571.09 725.90 597.61 743.62 639.73
  Q 743.61 640.33 743.43 640.66
  A 0.47 0.47 0.0 0 1 742.64 640.71
  C 741.21 638.76 739.45 640.03 737.83 640.02
  Q 718.90 640.00 700.00 639.98
  Q 699.76 639.85 699.43 639.25
  C 687.91 616.09 666.62 599.74 640.04 598.90
  Q 639.96 598.93 639.88 598.96
  L 639.83 570.66
  Z"
/>
<path fill="#808080" d="
  M 639.88 598.96
  Q 639.96 598.93 640.04 598.90
  L 639.85 622.45
  Q 621.07 623.87 609.87 639.88
  Q 609.46 639.89 609.33 640.17
  L 599.01 640.08
  L 580.16 639.99
  C 591.40 616.70 613.42 599.27 639.88 598.96
  Z"
/>
<path fill="#1a1a1a" d="
  M 640.04 598.90
  C 666.62 599.74 687.91 616.09 699.43 639.25
  C 691.02 640.84 681.34 640.00 672.72 640.00
  Q 672.22 640.00 671.78 639.76
  Q 670.63 639.12 670.43 639.97
  C 662.60 629.82 653.09 623.17 639.87 622.55
  Q 639.86 622.50 639.85 622.45
  L 640.04 598.90
  Z"
/>
<path fill="#f3a8c9" d="
  M 639.85 622.45
  Q 639.86 622.50 639.87 622.55
  L 639.86 639.28
  Q 639.86 639.89 639.25 639.89
  L 609.87 639.88
  Q 621.07 623.87 639.85 622.45
  Z"
/>
<path fill="#e9639d" d="
  M 639.87 622.55
  C 653.09 623.17 662.60 629.82 670.43 639.97
  Q 670.48 640.44 670.88 640.80
  Q 670.21 641.85 669.02 640.40
  Q 668.66 639.95 668.08 639.95
  L 640.97 640.02
  A 1.09 1.08 -0.5 0 0 639.89 641.11
  L 639.95 648.38
  Q 631.93 648.91 626.97 657.39
  Q 621.60 667.19 621.05 678.49
  C 620.45 690.72 623.41 713.03 638.41 716.36
  L 639.88 716.74
  Q 640.20 716.83 640.20 717.16
  L 639.87 742.04
  C 613.67 741.43 599.36 713.22 597.16 690.51
  Q 595.32 671.58 602.08 653.80
  Q 604.90 646.79 609.33 640.17
  Q 609.46 639.89 609.87 639.88
  L 639.25 639.89
  Q 639.86 639.89 639.86 639.28
  L 639.87 622.55
  Z"
/>
<path fill="#000000" d="
  M 699.43 639.25
  Q 699.76 639.85 700.00 639.98
  C 715.59 673.94 712.46 714.84 687.09 743.56
  Q 668.48 764.63 640.09 765.91
  Q 631.82 765.49 622.95 763.27
  L 622.98 762.78
  Q 623.03 762.26 623.54 762.34
  L 638.35 764.61
  Q 639.84 764.84 639.84 763.34
  Q 639.84 753.21 639.74 742.50
  Q 639.73 742.26 640.58 742.10
  C 661.59 740.86 675.42 722.33 680.37 703.32
  C 685.86 682.22 683.18 659.06 670.88 640.80
  Q 670.48 640.44 670.43 639.97
  Q 670.63 639.12 671.78 639.76
  Q 672.22 640.00 672.72 640.00
  C 681.34 640.00 691.02 640.84 699.43 639.25
  Z"
/>
<path fill="#e65192" d="
  M 743.62 639.73
  Q 743.72 639.82 743.72 639.95
  C 761.10 683.35 750.93 731.58 716.76 763.56
  C 715.45 764.79 714.97 765.89 716.25 767.35
  Q 717.01 768.21 718.09 767.82
  C 761.26 752.46 802.92 717.27 805.41 668.00
  C 805.92 657.99 801.39 648.56 796.20 640.01
  Q 952.06 639.99 1107.80 640.00
  C 1110.70 640.00 1112.68 638.79 1115.28 641.38
  Q 877.64 749.53 639.87 857.45
  Q 639.72 857.51 639.62 857.47
  Q 639.48 857.41 639.47 857.22
  Q 640.14 856.68 640.41 855.82
  Q 640.57 855.36 640.18 855.05
  Q 639.52 854.55 639.85 853.79
  Q 640.00 853.43 640.00 853.04
  L 640.09 765.91
  Q 668.48 764.63 687.09 743.56
  C 712.46 714.84 715.59 673.94 700.00 639.98
  Q 718.90 640.00 737.83 640.02
  C 739.45 640.03 741.21 638.76 742.64 640.71
  A 0.47 0.47 0.0 0 0 743.43 640.66
  Q 743.61 640.33 743.62 639.73
  Z"
/>
<path fill="#000000" d="
  M 795.79 639.42
  Q 795.63 639.69 796.20 640.01
  C 801.39 648.56 805.92 657.99 805.41 668.00
  C 802.92 717.27 761.26 752.46 718.09 767.82
  Q 717.01 768.21 716.25 767.35
  C 714.97 765.89 715.45 764.79 716.76 763.56
  C 750.93 731.58 761.10 683.35 743.72 639.95
  Q 767.81 640.04 791.72 640.00
  C 793.16 640.00 794.36 639.66 795.79 639.42
  Z"
/>
<path fill="#e9639d" d="
  M 483.88 639.99
  Q 476.37 651.38 474.50 664.25
  Q 474.15 666.62 475.05 674.78
  C 480.83 720.33 520.55 752.93 561.94 767.76
  Q 562.39 767.92 562.83 767.75
  Q 564.43 767.15 564.23 765.35
  Q 564.18 764.85 563.83 764.49
  L 556.92 757.32
  C 527.89 725.25 519.79 680.25 536.18 640.04
  L 580.16 639.99
  C 558.52 683.57 573.58 746.75 622.95 763.27
  Q 631.82 765.49 640.09 765.91
  L 640.00 853.04
  Q 640.00 853.43 639.85 853.79
  Q 639.52 854.55 640.18 855.05
  Q 640.57 855.36 640.41 855.82
  Q 640.14 856.68 639.47 857.22
  L 162.96 640.62
  Q 164.50 639.94 167.81 639.94
  Q 325.68 640.05 483.88 639.99
  Z"
/>
<path fill="#1a1a1a" d="
  M 536.18 639.92
  Q 536.18 639.98 536.18 640.04
  C 519.79 680.25 527.89 725.25 556.92 757.32
  Q 556.63 760.07 560.45 763.02
  C 561.16 763.56 561.25 764.26 562.27 764.48
  Q 562.75 764.59 562.56 765.04
  Q 561.83 766.77 559.77 765.94
  Q 542.68 759.07 525.41 748.20
  C 524.65 747.73 524.36 746.99 523.52 746.50
  C 519.01 743.88 515.02 740.17 511.04 736.77
  Q 493.41 721.65 483.34 700.69
  Q 480.87 695.54 477.38 681.68
  C 477.13 680.68 477.26 676.13 476.44 674.74
  Q 475.51 673.16 475.05 674.78
  Q 474.15 666.62 474.50 664.25
  Q 476.37 651.38 483.88 639.99
  Q 483.86 639.97 483.84 639.95
  L 536.18 639.92
  Z"
/>
<path fill="#e65192" d="
  M 670.88 640.80
  C 683.18 659.06 685.86 682.22 680.37 703.32
  C 675.42 722.33 661.59 740.86 640.58 742.10
  Q 640.10 741.90 639.87 742.04
  L 640.20 717.16
  Q 640.20 716.83 639.88 716.74
  L 638.41 716.36
  Q 638.56 716.29 638.71 716.21
  C 648.55 718.10 655.20 705.00 657.13 697.43
  Q 659.84 686.74 658.67 676.02
  C 657.53 665.64 652.78 648.76 639.95 648.38
  L 639.89 641.11
  A 1.09 1.08 -0.5 0 1 640.97 640.02
  L 668.08 639.95
  Q 668.66 639.95 669.02 640.40
  Q 670.21 641.85 670.88 640.80
  Z"
/>
<path fill="#1a1a1a" d="
  M 580.16 639.99
  L 599.01 640.08
  Q 593.02 640.41 587.01 640.21
  Q 586.68 640.20 586.52 640.32
  Q 586.31 640.47 586.26 640.76
  Q 586.17 641.28 586.70 641.37
  C 592.75 642.43 599.93 640.66 605.30 642.76
  Q 605.86 642.98 605.59 643.52
  L 600.86 652.93
  A 0.64 0.63 -78.7 0 0 601.47 653.85
  L 602.08 653.80
  Q 595.32 671.58 597.16 690.51
  C 599.36 713.22 613.67 741.43 639.87 742.04
  Q 640.10 741.90 640.58 742.10
  Q 639.73 742.26 639.74 742.50
  Q 639.84 753.21 639.84 763.34
  Q 639.84 764.84 638.35 764.61
  L 623.54 762.34
  Q 623.03 762.26 622.98 762.78
  L 622.95 763.27
  C 573.58 746.75 558.52 683.57 580.16 639.99
  Z"
/>
<path fill="#000000" d="
  M 599.01 640.08
  L 609.33 640.17
  Q 604.90 646.79 602.08 653.80
  L 601.47 653.85
  A 0.64 0.63 -78.7 0 1 600.86 652.93
  L 605.59 643.52
  Q 605.86 642.98 605.30 642.76
  C 599.93 640.66 592.75 642.43 586.70 641.37
  Q 586.17 641.28 586.26 640.76
  Q 586.31 640.47 586.52 640.32
  Q 586.68 640.20 587.01 640.21
  Q 593.02 640.41 599.01 640.08
  Z"
/>
<path fill="#000000" d="
  M 639.95 648.38
  C 652.78 648.76 657.53 665.64 658.67 676.02
  Q 659.84 686.74 657.13 697.43
  C 655.20 705.00 648.55 718.10 638.71 716.21
  L 639.54 714.87
  Q 639.84 714.38 639.85 713.81
  L 639.90 651.06
  Q 639.90 650.06 638.90 650.08
  Q 633.06 650.19 629.76 655.74
  Q 628.23 658.33 626.97 657.39
  Q 631.93 648.91 639.95 648.38
  Z"
/>
<path fill="#1a1a1a" d="
  M 638.71 716.21
  Q 638.56 716.29 638.41 716.36
  C 623.41 713.03 620.45 690.72 621.05 678.49
  Q 621.60 667.19 626.97 657.39
  Q 628.23 658.33 629.76 655.74
  Q 633.06 650.19 638.90 650.08
  Q 639.90 650.06 639.90 651.06
  L 639.85 713.81
  Q 639.84 714.38 639.54 714.87
  L 638.71 716.21
  Z"
/>
<path fill="#000000" d="
  M 556.92 757.32
  L 563.83 764.49
  Q 564.18 764.85 564.23 765.35
  Q 564.43 767.15 562.83 767.75
  Q 562.39 767.92 561.94 767.76
  C 520.55 752.93 480.83 720.33 475.05 674.78
  Q 475.51 673.16 476.44 674.74
  C 477.26 676.13 477.13 680.68 477.38 681.68
  Q 480.87 695.54 483.34 700.69
  Q 493.41 721.65 511.04 736.77
  C 515.02 740.17 519.01 743.88 523.52 746.50
  C 524.36 746.99 524.65 747.73 525.41 748.20
  Q 542.68 759.07 559.77 765.94
  Q 561.83 766.77 562.56 765.04
  Q 562.75 764.59 562.27 764.48
  C 561.25 764.26 561.16 763.56 560.45 763.02
  Q 556.63 760.07 556.92 757.32
  Z"
/>
</svg>
