<?xml version="1.0" encoding="UTF-8" standalone="no"?>
<!DOCTYPE svg PUBLIC "-//W3C//DTD SVG 1.1//EN" "http://www.w3.org/Graphics/SVG/1.1/DTD/svg11.dtd">
<svg xmlns="http://www.w3.org/2000/svg" version="1.1" viewBox="0.00 0.00 1448.00 1448.00">
<g stroke-width="2.00" fill="none" stroke-linecap="butt">
<path stroke="#808080" vector-effect="non-scaling-stroke" d="
  M 175.17 726.17
  L 722.68 975.05
  A 3.10 3.10 0.0 0 0 725.22 975.05
  Q 998.54 850.79 1272.25 726.18
  Q 1274.29 725.24 1273.67 723.19
  A 2.50 2.47 -86.6 0 0 1272.32 721.65
  L 725.25 472.99
  A 3.15 3.15 0.0 0 0 722.63 472.99
  Q 450.52 596.66 178.53 720.25
  C 176.40 721.21 172.60 722.38 174.56 725.63
  A 1.34 1.31 85.9 0 0 175.17 726.17"
/>
<path stroke="#4f3618" vector-effect="non-scaling-stroke" d="
  M 183.57 723.60
  Q 184.95 725.00 187.56 726.19
  Q 455.53 848.07 723.90 970.01"
/>
<path stroke="#4a2e0d" vector-effect="non-scaling-stroke" d="
  M 723.90 970.01
  L 1264.61 724.22
  Q 1264.69 724.19 1264.70 724.09
  Q 1264.70 724.04 1264.71 723.99"
/>
<path stroke="#4f3618" vector-effect="non-scaling-stroke" d="
  M 1264.71 723.99
  Q 1264.64 723.58 1264.29 723.51
  Q 1263.88 723.42 1263.81 723.38
  Q 994.25 600.84 724.68 478.32
  Q 724.18 478.39 724.08 477.90"
/>
<path stroke="#655746" vector-effect="non-scaling-stroke" d="
  M 724.08 477.90
  L 183.57 723.60"
/>
<path stroke="#b48d5e" vector-effect="non-scaling-stroke" d="
  M 724.08 477.90
  L 723.72 613.52
  A 0.83 0.03 70.0 0 0 723.95 614.23
  Q 724.17 614.87 723.91 615.78"
/>
<path stroke="#a59786" vector-effect="non-scaling-stroke" d="
  M 723.91 615.78
  L 699.72 621.15
  A 2.54 2.53 -14.9 0 0 697.85 624.37
  L 709.82 663.24
  Q 710.56 665.62 713.04 665.32
  L 723.86 663.98"
/>
<path stroke="#b48d5e" vector-effect="non-scaling-stroke" d="
  M 723.86 663.98
  L 723.83 679.04"
/>
<path stroke="#726453" vector-effect="non-scaling-stroke" d="
  M 723.83 679.04
  Q 723.85 679.09 723.86 679.13"
/>
<path stroke="#a59786" vector-effect="non-scaling-stroke" d="
  M 723.86 679.13
  L 613.52 694.46
  Q 613.01 694.53 612.74 694.97
  Q 606.40 705.27 600.41 715.80
  C 598.71 718.79 596.73 720.46 599.33 723.96"
/>
<path stroke="#b48d5e" vector-effect="non-scaling-stroke" d="
  M 599.33 723.96
  L 577.86 723.95"
/>
<path stroke="#a59786" vector-effect="non-scaling-stroke" d="
  M 577.86 723.95
  Q 589.82 703.56 602.08 683.52
  Q 603.92 680.50 606.00 680.21
  Q 649.24 674.16 692.46 668.12
  A 2.40 2.40 0.0 0 0 694.42 665.04
  L 682.76 627.27
  A 2.57 2.57 0.0 0 0 679.76 625.51
  Q 632.18 635.92 585.15 646.28
  C 582.88 646.78 581.87 646.48 580.56 648.81
  Q 559.79 685.67 539.02 722.51
  Q 538.83 722.84 538.51 724.00"
/>
<path stroke="#726453" vector-effect="non-scaling-stroke" d="
  M 538.51 724.00
  L 538.14 724.01"
/>
<path stroke="#b48d5e" vector-effect="non-scaling-stroke" d="
  M 538.14 724.01
  Q 362.13 724.00 186.48 724.00
  Q 186.45 724.00 185.07 724.27
  Q 184.20 724.44 183.57 723.60"
/>
<path stroke="#8f7658" vector-effect="non-scaling-stroke" d="
  M 577.86 723.95
  Q 577.82 724.02 577.50 724.01"
/>
<path stroke="#4d4d4d" vector-effect="non-scaling-stroke" d="
  M 577.50 724.01
  L 538.51 724.00"
/>
<path stroke="#5c4325" vector-effect="non-scaling-stroke" d="
  M 538.14 724.01
  L 505.14 782.63
  A 2.88 2.87 -49.9 0 0 505.41 785.84
  L 523.68 808.56
  A 2.57 2.57 0.0 0 0 527.89 808.25
  L 577.50 724.01"
/>
<path stroke="#4d4d4d" vector-effect="non-scaling-stroke" d="
  M 723.89 663.79
  L 723.91 615.78"
/>
<path stroke="#0d0d0d" vector-effect="non-scaling-stroke" d="
  M 782.24 723.48
  C 780.66 723.70 779.15 724.00 777.55 724.00
  Q 751.10 724.00 725.46 724.00
  Q 723.90 724.00 723.90 725.55
  L 723.90 842.00"
/>
<path stroke="#5c4325" vector-effect="non-scaling-stroke" d="
  M 723.90 842.00
  L 649.31 842.00
  A 2.29 2.28 -11.1 0 1 647.19 840.58
  L 599.16 724.03"
/>
<path stroke="#4d4d4d" vector-effect="non-scaling-stroke" d="
  M 599.16 724.03
  L 723.37 724.00
  Q 723.85 724.00 723.85 723.52
  L 723.86 679.13"
/>
<path stroke="#8f7658" vector-effect="non-scaling-stroke" d="
  M 599.16 724.03
  Q 599.24 724.00 599.33 723.96"
/>
<path stroke="#996425" vector-effect="non-scaling-stroke" d="
  M 1264.71 723.99
  L 925.85 723.98
  A 1.37 1.31 -30.5 0 1 925.25 723.84
  Q 924.81 723.64 924.31 723.82"
/>
<path stroke="#5c4325" vector-effect="non-scaling-stroke" d="
  M 924.31 723.82
  L 901.02 680.88
  A 2.52 2.52 0.0 0 0 896.60 680.86
  L 872.83 723.83"
/>
<path stroke="#4f3618" vector-effect="non-scaling-stroke" d="
  M 872.83 723.83
  Q 873.22 723.52 872.74 724.00"
/>
<path stroke="#996425" vector-effect="non-scaling-stroke" d="
  M 872.74 724.00
  L 856.00 723.94
  Q 855.81 723.94 855.75 723.76
  Q 855.72 723.63 855.69 723.48"
/>
<path stroke="#5c4325" vector-effect="non-scaling-stroke" d="
  M 855.69 723.48
  L 863.04 710.03
  Q 863.59 709.03 862.97 708.06
  L 835.46 664.98
  A 2.31 2.30 69.7 0 0 833.19 663.93
  L 775.92 671.85
  A 2.45 2.44 -17.9 0 0 774.09 675.41
  L 799.59 723.94"
/>
<path stroke="#996425" vector-effect="non-scaling-stroke" d="
  M 799.59 723.94
  L 782.60 724.19"
/>
<path stroke="#4f3618" vector-effect="non-scaling-stroke" d="
  M 782.60 724.19
  L 782.24 723.48"
/>
<path stroke="#5c4325" vector-effect="non-scaling-stroke" d="
  M 782.24 723.48
  L 757.33 676.25
  A 2.76 2.75 72.2 0 0 754.52 674.80
  L 723.83 679.04"
/>
<path stroke="#8f7658" vector-effect="non-scaling-stroke" d="
  M 723.86 663.98
  Q 723.94 664.74 723.89 663.79"
/>
<path stroke="#5c4325" vector-effect="non-scaling-stroke" d="
  M 723.89 663.79
  Q 780.67 655.93 837.08 648.18
  Q 842.23 647.47 844.69 651.31
  Q 857.11 670.69 869.75 690.38
  A 2.50 2.50 0.0 0 0 874.04 690.24
  L 889.85 661.62
  A 1.43 1.43 0.0 0 0 889.85 660.24
  L 851.59 589.51
  A 2.37 2.36 69.5 0 0 849.01 588.33
  L 723.91 615.78"
/>
<path stroke="#4a2e0d" vector-effect="non-scaling-stroke" d="
  M 872.74 724.00
  L 809.61 838.59
  A 2.30 2.30 0.0 0 0 811.62 842.00
  L 890.50 842.00
  A 1.75 1.73 19.1 0 0 891.86 841.35
  L 948.67 771.45
  A 2.04 2.04 0.0 0 0 948.88 769.19
  L 924.31 723.82"
/>
<path stroke="#996425" vector-effect="non-scaling-stroke" d="
  M 723.90 970.01
  L 723.90 842.00"
/>
<path stroke="#4a2e0d" vector-effect="non-scaling-stroke" d="
  M 799.91 724.52
  L 824.62 771.41
  A 2.58 2.58 0.0 0 0 829.16 771.46
  L 855.08 724.53"
/>
<path stroke="#4a2e0d" vector-effect="non-scaling-stroke" d="
  M 782.60 724.19
  L 817.47 790.43
  A 2.39 2.37 -44.7 0 1 817.45 792.69
  L 790.92 840.68
  Q 790.19 842.00 788.69 842.00
  L 723.90 842.00"
/>
<path stroke="#0d0d0d" vector-effect="non-scaling-stroke" d="
  M 924.31 723.82
  L 872.83 723.83"
/>
<path stroke="#573b1a" vector-effect="non-scaling-stroke" d="
  M 855.69 723.48
  L 855.08 724.53"
/>
<path stroke="#0d0d0d" vector-effect="non-scaling-stroke" d="
  M 855.08 724.53
  Q 855.02 724.38 854.97 724.19
  Q 854.93 724.00 854.74 724.00
  L 800.99 724.00
  A 1.26 1.19 -63.0 0 0 800.23 724.27
  L 799.91 724.52"
/>
<path stroke="#573b1a" vector-effect="non-scaling-stroke" d="
  M 799.91 724.52
  Q 799.45 723.27 799.59 723.94"
/>
<path stroke="#5c4325" vector-effect="non-scaling-stroke" d="
  M 549.84 841.01
  A 2.66 2.66 0.0 0 0 551.92 842.00
  L 627.33 842.00
  A 2.66 2.66 0.0 0 0 629.79 838.33
  L 589.96 741.61
  A 2.66 2.66 0.0 0 0 585.21 741.27
  L 537.15 822.45
  A 2.66 2.66 0.0 0 0 537.36 825.48
  L 549.84 841.01"
/>
</g>
<path fill="#ffffff" d="
  M 719.49 979.18
  C 538.00 896.73 356.46 814.34 175.05 731.71
  C 170.18 729.49 166.67 724.99 170.23 719.96
  Q 171.81 717.74 176.20 715.75
  Q 448.64 591.92 721.07 468.08
  C 723.01 467.20 725.38 467.44 727.47 468.39
  Q 1000.62 592.54 1273.77 716.71
  C 1281.94 720.42 1279.94 728.49 1272.70 731.78
  Q 1000.99 855.30 729.27 978.80
  C 725.35 980.58 723.69 981.09 719.49 979.18
  Z
  M 175.17 726.17
  L 722.68 975.05
  A 3.10 3.10 0.0 0 0 725.22 975.05
  Q 998.54 850.79 1272.25 726.18
  Q 1274.29 725.24 1273.67 723.19
  A 2.50 2.47 -86.6 0 0 1272.32 721.65
  L 725.25 472.99
  A 3.15 3.15 0.0 0 0 722.63 472.99
  Q 450.52 596.66 178.53 720.25
  C 176.40 721.21 172.60 722.38 174.56 725.63
  A 1.34 1.31 85.9 0 0 175.17 726.17
  Z"
/>
<path fill="#000000" d="
  M 722.68 975.05
  L 175.17 726.17
  A 1.34 1.31 85.9 0 1 174.56 725.63
  C 172.60 722.38 176.40 721.21 178.53 720.25
  Q 450.52 596.66 722.63 472.99
  A 3.15 3.15 0.0 0 1 725.25 472.99
  L 1272.32 721.65
  A 2.50 2.47 -86.6 0 1 1273.67 723.19
  Q 1274.29 725.24 1272.25 726.18
  Q 998.54 850.79 725.22 975.05
  A 3.10 3.10 0.0 0 1 722.68 975.05
  Z
  M 183.57 723.60
  Q 184.95 725.00 187.56 726.19
  Q 455.53 848.07 723.90 970.01
  L 1264.61 724.22
  Q 1264.69 724.19 1264.70 724.09
  Q 1264.70 724.04 1264.71 723.99
  Q 1264.64 723.58 1264.29 723.51
  Q 1263.88 723.42 1263.81 723.38
  Q 994.25 600.84 724.68 478.32
  Q 724.18 478.39 724.08 477.90
  L 183.57 723.60
  Z"
/>
<path fill="#c9ad8c" d="
  M 724.08 477.90
  L 723.72 613.52
  A 0.83 0.03 70.0 0 0 723.95 614.23
  Q 724.17 614.87 723.91 615.78
  L 699.72 621.15
  A 2.54 2.53 -14.9 0 0 697.85 624.37
  L 709.82 663.24
  Q 710.56 665.62 713.04 665.32
  L 723.86 663.98
  L 723.83 679.04
  Q 723.85 679.09 723.86 679.13
  L 613.52 694.46
  Q 613.01 694.53 612.74 694.97
  Q 606.40 705.27 600.41 715.80
  C 598.71 718.79 596.73 720.46 599.33 723.96
  L 577.86 723.95
  Q 589.82 703.56 602.08 683.52
  Q 603.92 680.50 606.00 680.21
  Q 649.24 674.16 692.46 668.12
  A 2.40 2.40 0.0 0 0 694.42 665.04
  L 682.76 627.27
  A 2.57 2.57 0.0 0 0 679.76 625.51
  Q 632.18 635.92 585.15 646.28
  C 582.88 646.78 581.87 646.48 580.56 648.81
  Q 559.79 685.67 539.02 722.51
  Q 538.83 722.84 538.51 724.00
  L 538.14 724.01
  Q 362.13 724.00 186.48 724.00
  Q 186.45 724.00 185.07 724.27
  Q 184.20 724.44 183.57 723.60
  L 724.08 477.90
  Z"
/>
<path fill="#9e6c30" d="
  M 724.08 477.90
  Q 724.18 478.39 724.68 478.32
  Q 994.25 600.84 1263.81 723.38
  Q 1263.88 723.42 1264.29 723.51
  Q 1264.64 723.58 1264.71 723.99
  L 925.85 723.98
  A 1.37 1.31 -30.5 0 1 925.25 723.84
  Q 924.81 723.64 924.31 723.82
  L 901.02 680.88
  A 2.52 2.52 0.0 0 0 896.60 680.86
  L 872.83 723.83
  Q 873.22 723.52 872.74 724.00
  L 856.00 723.94
  Q 855.81 723.94 855.75 723.76
  Q 855.72 723.63 855.69 723.48
  L 863.04 710.03
  Q 863.59 709.03 862.97 708.06
  L 835.46 664.98
  A 2.31 2.30 69.7 0 0 833.19 663.93
  L 775.92 671.85
  A 2.45 2.44 -17.9 0 0 774.09 675.41
  L 799.59 723.94
  L 782.60 724.19
  L 782.24 723.48
  L 757.33 676.25
  A 2.76 2.75 72.2 0 0 754.52 674.80
  L 723.83 679.04
  L 723.86 663.98
  Q 723.94 664.74 723.89 663.79
  Q 780.67 655.93 837.08 648.18
  Q 842.23 647.47 844.69 651.31
  Q 857.11 670.69 869.75 690.38
  A 2.50 2.50 0.0 0 0 874.04 690.24
  L 889.85 661.62
  A 1.43 1.43 0.0 0 0 889.85 660.24
  L 851.59 589.51
  A 2.37 2.36 69.5 0 0 849.01 588.33
  L 723.91 615.78
  Q 724.17 614.87 723.95 614.23
  A 0.83 0.03 70.0 0 1 723.72 613.52
  L 724.08 477.90
  Z"
/>
<path fill="#1a1a1a" d="
  M 723.89 663.79
  L 723.91 615.78
  L 849.01 588.33
  A 2.37 2.36 69.5 0 1 851.59 589.51
  L 889.85 660.24
  A 1.43 1.43 0.0 0 1 889.85 661.62
  L 874.04 690.24
  A 2.50 2.50 0.0 0 1 869.75 690.38
  Q 857.11 670.69 844.69 651.31
  Q 842.23 647.47 837.08 648.18
  Q 780.67 655.93 723.89 663.79
  Z"
/>
<path fill="#808080" d="
  M 723.91 615.78
  L 723.89 663.79
  Q 723.94 664.74 723.86 663.98
  L 713.04 665.32
  Q 710.56 665.62 709.82 663.24
  L 697.85 624.37
  A 2.54 2.53 -14.9 0 1 699.72 621.15
  L 723.91 615.78
  Z"
/>
<path fill="#808080" d="
  M 577.86 723.95
  Q 577.82 724.02 577.50 724.01
  L 538.51 724.00
  Q 538.83 722.84 539.02 722.51
  Q 559.79 685.67 580.56 648.81
  C 581.87 646.48 582.88 646.78 585.15 646.28
  Q 632.18 635.92 679.76 625.51
  A 2.57 2.57 0.0 0 1 682.76 627.27
  L 694.42 665.04
  A 2.40 2.40 0.0 0 1 692.46 668.12
  Q 649.24 674.16 606.00 680.21
  Q 603.92 680.50 602.08 683.52
  Q 589.82 703.56 577.86 723.95
  Z"
/>
<path fill="#1a1a1a" d="
  M 855.69 723.48
  L 855.08 724.53
  Q 855.02 724.38 854.97 724.19
  Q 854.93 724.00 854.74 724.00
  L 800.99 724.00
  A 1.26 1.19 -63.0 0 0 800.23 724.27
  L 799.91 724.52
  Q 799.45 723.27 799.59 723.94
  L 774.09 675.41
  A 2.45 2.44 -17.9 0 1 775.92 671.85
  L 833.19 663.93
  A 2.31 2.30 69.7 0 1 835.46 664.98
  L 862.97 708.06
  Q 863.59 709.03 863.04 710.03
  L 855.69 723.48
  Z"
/>
<path fill="#1a1a1a" d="
  M 782.24 723.48
  C 780.66 723.70 779.15 724.00 777.55 724.00
  Q 751.10 724.00 725.46 724.00
  Q 723.90 724.00 723.90 725.55
  L 723.90 842.00
  L 649.31 842.00
  A 2.29 2.28 -11.1 0 1 647.19 840.58
  L 599.16 724.03
  L 723.37 724.00
  Q 723.85 724.00 723.85 723.52
  L 723.86 679.13
  Q 723.85 679.09 723.83 679.04
  L 754.52 674.80
  A 2.76 2.75 72.2 0 1 757.33 676.25
  L 782.24 723.48
  Z"
/>
<path fill="#808080" d="
  M 723.86 679.13
  L 723.85 723.52
  Q 723.85 724.00 723.37 724.00
  L 599.16 724.03
  Q 599.24 724.00 599.33 723.96
  C 596.73 720.46 598.71 718.79 600.41 715.80
  Q 606.40 705.27 612.74 694.97
  Q 613.01 694.53 613.52 694.46
  L 723.86 679.13
  Z"
/>
<path fill="#1a1a1a" d="
  M 924.31 723.82
  L 872.83 723.83
  L 896.60 680.86
  A 2.52 2.52 0.0 0 1 901.02 680.88
  L 924.31 723.82
  Z"
/>
<path fill="#000000" d="
  M 782.24 723.48
  L 782.60 724.19
  L 817.47 790.43
  A 2.39 2.37 -44.7 0 1 817.45 792.69
  L 790.92 840.68
  Q 790.19 842.00 788.69 842.00
  L 723.90 842.00
  L 723.90 725.55
  Q 723.90 724.00 725.46 724.00
  Q 751.10 724.00 777.55 724.00
  C 779.15 724.00 780.66 723.70 782.24 723.48
  Z"
/>
<path fill="#935b19" d="
  M 855.69 723.48
  Q 855.72 723.63 855.75 723.76
  Q 855.81 723.94 856.00 723.94
  L 872.74 724.00
  L 809.61 838.59
  A 2.30 2.30 0.0 0 0 811.62 842.00
  L 890.50 842.00
  A 1.75 1.73 19.1 0 0 891.86 841.35
  L 948.67 771.45
  A 2.04 2.04 0.0 0 0 948.88 769.19
  L 924.31 723.82
  Q 924.81 723.64 925.25 723.84
  A 1.37 1.31 -30.5 0 0 925.85 723.98
  L 1264.71 723.99
  Q 1264.70 724.04 1264.70 724.09
  Q 1264.69 724.19 1264.61 724.22
  L 723.90 970.01
  L 723.90 842.00
  L 788.69 842.00
  Q 790.19 842.00 790.92 840.68
  L 817.45 792.69
  A 2.39 2.37 -44.7 0 0 817.47 790.43
  L 782.60 724.19
  L 799.59 723.94
  Q 799.45 723.27 799.91 724.52
  L 824.62 771.41
  A 2.58 2.58 0.0 0 0 829.16 771.46
  L 855.08 724.53
  L 855.69 723.48
  Z"
/>
<path fill="#000000" d="
  M 872.83 723.83
  L 924.31 723.82
  L 948.88 769.19
  A 2.04 2.04 0.0 0 1 948.67 771.45
  L 891.86 841.35
  A 1.75 1.73 19.1 0 1 890.50 842.00
  L 811.62 842.00
  A 2.30 2.30 0.0 0 1 809.61 838.59
  L 872.74 724.00
  Q 873.22 723.52 872.83 723.83
  Z"
/>
<path fill="#9e6c30" d="
  M 538.14 724.01
  L 505.14 782.63
  A 2.88 2.87 -49.9 0 0 505.41 785.84
  L 523.68 808.56
  A 2.57 2.57 0.0 0 0 527.89 808.25
  L 577.50 724.01
  Q 577.82 724.02 577.86 723.95
  L 599.33 723.96
  Q 599.24 724.00 599.16 724.03
  L 647.19 840.58
  A 2.29 2.28 -11.1 0 0 649.31 842.00
  L 723.90 842.00
  L 723.90 970.01
  Q 455.53 848.07 187.56 726.19
  Q 184.95 725.00 183.57 723.60
  Q 184.20 724.44 185.07 724.27
  Q 186.45 724.00 186.48 724.00
  Q 362.13 724.00 538.14 724.01
  Z
  M 549.84 841.01
  A 2.66 2.66 0.0 0 0 551.92 842.00
  L 627.33 842.00
  A 2.66 2.66 0.0 0 0 629.79 838.33
  L 589.96 741.61
  A 2.66 2.66 0.0 0 0 585.21 741.27
  L 537.15 822.45
  A 2.66 2.66 0.0 0 0 537.36 825.48
  L 549.84 841.01
  Z"
/>
<path fill="#1a1a1a" d="
  M 538.14 724.01
  L 538.51 724.00
  L 577.50 724.01
  L 527.89 808.25
  A 2.57 2.57 0.0 0 1 523.68 808.56
  L 505.41 785.84
  A 2.88 2.87 -49.9 0 1 505.14 782.63
  L 538.14 724.01
  Z"
/>
<path fill="#000000" d="
  M 855.08 724.53
  L 829.16 771.46
  A 2.58 2.58 0.0 0 1 824.62 771.41
  L 799.91 724.52
  L 800.23 724.27
  A 1.26 1.19 -63.0 0 1 800.99 724.00
  L 854.74 724.00
  Q 854.93 724.00 854.97 724.19
  Q 855.02 724.38 855.08 724.53
  Z"
/>
<path fill="#1a1a1a" d="
  M 549.84 841.01
  L 537.36 825.48
  A 2.66 2.66 0.0 0 1 537.15 822.45
  L 585.21 741.27
  A 2.66 2.66 0.0 0 1 589.96 741.61
  L 629.79 838.33
  A 2.66 2.66 0.0 0 1 627.33 842.00
  L 551.92 842.00
  A 2.66 2.66 0.0 0 1 549.84 841.01
  Z"
/>
</svg>
