<?xml version="1.0" encoding="UTF-8" standalone="no"?>
<!DOCTYPE svg PUBLIC "-//W3C//DTD SVG 1.1//EN" "http://www.w3.org/Graphics/SVG/1.1/DTD/svg11.dtd">
<svg xmlns="http://www.w3.org/2000/svg" version="1.1" viewBox="0.00 0.00 1280.00 1280.00">
<g stroke-width="2.00" fill="none" stroke-linecap="butt">
<path stroke="#7f7f7f" vector-effect="non-scaling-stroke" d="
  M 155.22 642.07
  L 639.55 862.21
  A 1.06 1.06 0.0 0 0 640.45 862.21
  L 1125.10 641.92
  A 2.11 2.10 -45.0 0 0 1125.10 638.09
  L 640.63 417.87
  A 1.51 1.51 0.0 0 0 639.37 417.87
  Q 397.65 527.73 155.56 637.78
  Q 154.99 638.04 154.63 638.40
  Q 154.54 638.50 154.45 638.59
  A 2.23 2.18 33.2 0 0 155.22 642.07"
/>
<path stroke="#40464a" vector-effect="non-scaling-stroke" d="
  M 162.97 640.60
  L 639.53 857.23"
/>
<path stroke="#383f44" vector-effect="non-scaling-stroke" d="
  M 639.53 857.23
  Q 639.37 857.78 640.00 857.50
  Q 878.11 749.22 1116.27 640.97"
/>
<path stroke="#40464a" vector-effect="non-scaling-stroke" d="
  M 1116.27 640.97
  L 1117.83 640.29
  Q 1118.40 640.05 1117.84 639.79
  L 640.58 422.99"
/>
<path stroke="#5c6062" vector-effect="non-scaling-stroke" d="
  M 640.58 422.99
  Q 640.47 422.82 640.35 422.71
  Q 640.09 422.47 639.77 422.61
  L 162.15 639.72
  Q 161.61 639.97 162.10 640.30
  Q 162.49 640.56 162.97 640.60"
/>
<path stroke="#9ca5ab" vector-effect="non-scaling-stroke" d="
  M 640.58 422.99
  Q 640.18 423.66 640.18 424.25
  Q 640.00 473.01 640.00 521.74"
/>
<path stroke="#9ca0a2" vector-effect="non-scaling-stroke" d="
  M 640.00 521.74
  L 515.54 521.75
  A 2.00 1.99 79.1 0 0 513.69 524.49
  Q 513.94 525.12 514.86 525.88
  Q 551.14 555.62 587.59 585.17
  C 588.96 586.28 589.89 587.37 591.66 586.05
  A 2.02 2.02 0.0 0 0 591.94 583.06
  L 556.32 544.17
  A 0.24 0.24 0.0 0 1 556.50 543.76
  L 638.99 543.76"
/>
<path stroke="#9ca5ab" vector-effect="non-scaling-stroke" d="
  M 638.99 543.76
  Q 639.11 543.98 639.48 544.04
  Q 639.94 544.12 639.94 544.58
  L 639.99 598.42"
/>
<path stroke="#9ca0a2" vector-effect="non-scaling-stroke" d="
  M 639.99 598.42
  L 591.42 598.36
  Q 590.93 598.36 590.53 598.08
  Q 541.17 563.13 491.82 528.18
  Q 490.67 527.37 489.94 527.43
  A 2.37 2.32 -2.3 0 0 487.75 529.75
  L 487.75 638.96
  Q 487.75 639.21 487.88 639.43
  Q 488.10 639.81 487.87 639.99"
/>
<path stroke="#9ca5ab" vector-effect="non-scaling-stroke" d="
  M 487.87 639.99
  Q 327.88 640.05 167.56 639.94
  Q 164.41 639.94 162.97 640.60"
/>
<path stroke="#0d0d0d" vector-effect="non-scaling-stroke" d="
  M 781.74 639.74
  L 640.96 640.04
  Q 640.00 640.04 640.00 641.01
  L 640.00 773.24
  Q 640.00 773.66 639.75 774.01
  Q 639.20 774.78 640.00 775.25"
/>
<path stroke="#4d5357" vector-effect="non-scaling-stroke" d="
  M 640.00 775.25
  L 581.03 775.25
  A 2.51 2.50 65.5 0 1 579.38 774.63
  L 488.27 694.92
  A 1.31 1.31 0.0 0 1 487.83 693.94
  L 487.87 639.99"
/>
<path stroke="#4d4d4d" vector-effect="non-scaling-stroke" d="
  M 487.87 639.99
  L 559.64 640.14"
/>
<path stroke="#4d5357" vector-effect="non-scaling-stroke" d="
  M 559.64 640.14
  L 516.11 663.93
  Q 515.75 664.12 515.75 664.53
  L 515.75 678.95
  A 1.09 1.08 -68.5 0 0 516.09 679.74
  L 524.06 687.35
  A 0.75 0.74 56.2 0 0 524.83 687.51
  L 572.81 669.06
  Q 573.28 668.88 573.28 668.37
  L 573.31 640.00"
/>
<path stroke="#4d4d4d" vector-effect="non-scaling-stroke" d="
  M 573.31 640.00
  L 639.14 640.00
  A 0.86 0.86 0.0 0 0 640.00 639.14
  L 639.99 598.42"
/>
<path stroke="#4d5357" vector-effect="non-scaling-stroke" d="
  M 639.99 598.42
  L 743.81 598.56
  A 0.31 0.30 -26.4 0 0 744.00 598.01
  L 672.60 544.10
  A 1.60 1.59 63.6 0 0 671.63 543.77
  L 640.00 543.83"
/>
<path stroke="#78858d" vector-effect="non-scaling-stroke" d="
  M 1116.27 640.97
  C 1113.78 638.92 1103.76 639.99 1100.25 639.99
  Q 941.53 640.01 782.81 640.00
  Q 782.59 640.39 781.76 640.25"
/>
<path stroke="#40464a" vector-effect="non-scaling-stroke" d="
  M 781.76 640.25
  L 781.74 639.74"
/>
<path stroke="#4d5357" vector-effect="non-scaling-stroke" d="
  M 781.74 639.74
  L 781.74 604.03
  A 1.71 1.70 -71.0 0 0 781.09 602.69
  L 677.99 522.06
  Q 677.60 521.75 677.10 521.75
  L 640.00 521.74"
/>
<path stroke="#80868a" vector-effect="non-scaling-stroke" d="
  M 573.31 640.00
  Q 573.96 640.07 573.26 639.48"
/>
<path stroke="#9ca0a2" vector-effect="non-scaling-stroke" d="
  M 573.26 639.48
  L 573.23 633.54
  Q 573.23 632.93 572.70 633.22
  L 560.53 639.82"
/>
<path stroke="#80868a" vector-effect="non-scaling-stroke" d="
  M 560.53 639.82
  Q 559.70 639.87 559.64 640.14"
/>
<path stroke="#4d4d4d" vector-effect="non-scaling-stroke" d="
  M 640.00 521.74
  L 640.00 543.83"
/>
<path stroke="#80868a" vector-effect="non-scaling-stroke" d="
  M 640.00 543.83
  Q 639.61 543.67 638.99 543.76"
/>
<path stroke="#78858d" vector-effect="non-scaling-stroke" d="
  M 640.00 775.25
  L 640.47 775.94
  Q 640.56 776.07 640.45 776.17
  L 640.19 776.43
  A 0.69 0.67 -23.9 0 0 640.00 776.90
  Q 640.01 815.24 639.99 853.57
  Q 639.99 854.31 640.32 855.36
  Q 640.91 857.24 639.53 857.23"
/>
<path stroke="#383f44" vector-effect="non-scaling-stroke" d="
  M 781.76 640.25
  L 781.76 772.84
  A 2.41 2.41 0.0 0 1 779.35 775.25
  L 640.00 775.25"
/>
<path stroke="#9ca5ab" vector-effect="non-scaling-stroke" d="
  M 573.26 639.48
  Q 573.19 639.74 572.96 639.92
  Q 572.79 640.04 572.49 640.03
  Q 566.73 639.86 560.97 640.17
  Q 560.79 640.18 560.66 640.05
  Q 560.55 639.93 560.53 639.82"
/>
<path stroke="#4d5357" vector-effect="non-scaling-stroke" d="
  M 549.60 711.54
  A 0.34 0.34 0.0 0 0 549.48 712.10
  L 572.67 734.55
  A 0.34 0.34 0.0 0 0 573.25 734.31
  L 573.25 702.89
  A 0.34 0.34 0.0 0 0 572.79 702.57
  L 549.60 711.54"
/>
<path stroke="#9ca0a2" vector-effect="non-scaling-stroke" d="
  M 517.06 577.69
  Q 516.94 577.25 516.36 577.05
  A 0.43 0.43 0.0 0 0 515.79 577.46
  L 515.83 627.85
  Q 515.84 628.36 516.29 628.11
  L 550.87 609.36
  Q 551.30 609.13 550.94 608.80
  Q 534.02 593.13 517.06 577.69"
/>
</g>
<path fill="#fdfdfd" d="
  M 635.24 865.18
  C 475.04 792.47 314.76 719.88 154.74 646.78
  C 146.58 643.05 148.08 636.21 155.49 632.84
  Q 396.58 523.25 637.68 413.67
  C 639.17 412.99 641.60 413.35 643.26 414.11
  Q 882.64 522.91 1122.02 631.71
  C 1124.66 632.91 1127.93 633.89 1129.45 636.41
  C 1132.96 642.23 1128.58 645.31 1123.61 647.57
  Q 883.05 756.91 642.50 866.25
  C 639.95 867.41 637.71 866.30 635.24 865.18
  Z
  M 155.22 642.07
  L 639.55 862.21
  A 1.06 1.06 0.0 0 0 640.45 862.21
  L 1125.10 641.92
  A 2.11 2.10 -45.0 0 0 1125.10 638.09
  L 640.63 417.87
  A 1.51 1.51 0.0 0 0 639.37 417.87
  Q 397.65 527.73 155.56 637.78
  Q 154.99 638.04 154.63 638.40
  Q 154.54 638.50 154.45 638.59
  A 2.23 2.18 33.2 0 0 155.22 642.07
  Z"
/>
<path fill="#000000" d="
  M 639.55 862.21
  L 155.22 642.07
  A 2.23 2.18 33.2 0 1 154.45 638.59
  Q 154.54 638.50 154.63 638.40
  Q 154.99 638.04 155.56 637.78
  Q 397.65 527.73 639.37 417.87
  A 1.51 1.51 0.0 0 1 640.63 417.87
  L 1125.10 638.09
  A 2.11 2.10 -45.0 0 1 1125.10 641.92
  L 640.45 862.21
  A 1.06 1.06 0.0 0 1 639.55 862.21
  Z
  M 162.97 640.60
  L 639.53 857.23
  Q 639.37 857.78 640.00 857.50
  Q 878.11 749.22 1116.27 640.97
  L 1117.83 640.29
  Q 1118.40 640.05 1117.84 639.79
  L 640.58 422.99
  Q 640.47 422.82 640.35 422.71
  Q 640.09 422.47 639.77 422.61
  L 162.15 639.72
  Q 161.61 639.97 162.10 640.30
  Q 162.49 640.56 162.97 640.60
  Z"
/>
<path fill="#b8bfc3" d="
  M 640.58 422.99
  Q 640.18 423.66 640.18 424.25
  Q 640.00 473.01 640.00 521.74
  L 515.54 521.75
  A 2.00 1.99 79.1 0 0 513.69 524.49
  Q 513.94 525.12 514.86 525.88
  Q 551.14 555.62 587.59 585.17
  C 588.96 586.28 589.89 587.37 591.66 586.05
  A 2.02 2.02 0.0 0 0 591.94 583.06
  L 556.32 544.17
  A 0.24 0.24 0.0 0 1 556.50 543.76
  L 638.99 543.76
  Q 639.11 543.98 639.48 544.04
  Q 639.94 544.12 639.94 544.58
  L 639.99 598.42
  L 591.42 598.36
  Q 590.93 598.36 590.53 598.08
  Q 541.17 563.13 491.82 528.18
  Q 490.67 527.37 489.94 527.43
  A 2.37 2.32 -2.3 0 0 487.75 529.75
  L 487.75 638.96
  Q 487.75 639.21 487.88 639.43
  Q 488.10 639.81 487.87 639.99
  Q 327.88 640.05 167.56 639.94
  Q 164.41 639.94 162.97 640.60
  Q 162.49 640.56 162.10 640.30
  Q 161.61 639.97 162.15 639.72
  L 639.77 422.61
  Q 640.09 422.47 640.35 422.71
  Q 640.47 422.82 640.58 422.99
  Z"
/>
<path fill="#7f8b93" d="
  M 640.58 422.99
  L 1117.84 639.79
  Q 1118.40 640.05 1117.83 640.29
  L 1116.27 640.97
  C 1113.78 638.92 1103.76 639.99 1100.25 639.99
  Q 941.53 640.01 782.81 640.00
  Q 782.59 640.39 781.76 640.25
  L 781.74 639.74
  L 781.74 604.03
  A 1.71 1.70 -71.0 0 0 781.09 602.69
  L 677.99 522.06
  Q 677.60 521.75 677.10 521.75
  L 640.00 521.74
  Q 640.00 473.01 640.18 424.25
  Q 640.18 423.66 640.58 422.99
  Z"
/>
<path fill="#808080" d="
  M 640.00 521.74
  L 640.00 543.83
  Q 639.61 543.67 638.99 543.76
  L 556.50 543.76
  A 0.24 0.24 0.0 0 0 556.32 544.17
  L 591.94 583.06
  A 2.02 2.02 0.0 0 1 591.66 586.05
  C 589.89 587.37 588.96 586.28 587.59 585.17
  Q 551.14 555.62 514.86 525.88
  Q 513.94 525.12 513.69 524.49
  A 2.00 1.99 79.1 0 1 515.54 521.75
  L 640.00 521.74
  Z"
/>
<path fill="#1a1a1a" d="
  M 781.74 639.74
  L 640.96 640.04
  Q 640.00 640.04 640.00 641.01
  L 640.00 773.24
  Q 640.00 773.66 639.75 774.01
  Q 639.20 774.78 640.00 775.25
  L 581.03 775.25
  A 2.51 2.50 65.5 0 1 579.38 774.63
  L 488.27 694.92
  A 1.31 1.31 0.0 0 1 487.83 693.94
  L 487.87 639.99
  L 559.64 640.14
  L 516.11 663.93
  Q 515.75 664.12 515.75 664.53
  L 515.75 678.95
  A 1.09 1.08 -68.5 0 0 516.09 679.74
  L 524.06 687.35
  A 0.75 0.74 56.2 0 0 524.83 687.51
  L 572.81 669.06
  Q 573.28 668.88 573.28 668.37
  L 573.31 640.00
  L 639.14 640.00
  A 0.86 0.86 0.0 0 0 640.00 639.14
  L 639.99 598.42
  L 743.81 598.56
  A 0.31 0.30 -26.4 0 0 744.00 598.01
  L 672.60 544.10
  A 1.60 1.59 63.6 0 0 671.63 543.77
  L 640.00 543.83
  L 640.00 521.74
  L 677.10 521.75
  Q 677.60 521.75 677.99 522.06
  L 781.09 602.69
  A 1.71 1.70 -71.0 0 1 781.74 604.03
  L 781.74 639.74
  Z
  M 549.60 711.54
  A 0.34 0.34 0.0 0 0 549.48 712.10
  L 572.67 734.55
  A 0.34 0.34 0.0 0 0 573.25 734.31
  L 573.25 702.89
  A 0.34 0.34 0.0 0 0 572.79 702.57
  L 549.60 711.54
  Z"
/>
<path fill="#808080" d="
  M 639.99 598.42
  L 640.00 639.14
  A 0.86 0.86 0.0 0 1 639.14 640.00
  L 573.31 640.00
  Q 573.96 640.07 573.26 639.48
  L 573.23 633.54
  Q 573.23 632.93 572.70 633.22
  L 560.53 639.82
  Q 559.70 639.87 559.64 640.14
  L 487.87 639.99
  Q 488.10 639.81 487.88 639.43
  Q 487.75 639.21 487.75 638.96
  L 487.75 529.75
  A 2.37 2.32 -2.3 0 1 489.94 527.43
  Q 490.67 527.37 491.82 528.18
  Q 541.17 563.13 590.53 598.08
  Q 590.93 598.36 591.42 598.36
  L 639.99 598.42
  Z
  M 517.06 577.69
  Q 516.94 577.25 516.36 577.05
  A 0.43 0.43 0.0 0 0 515.79 577.46
  L 515.83 627.85
  Q 515.84 628.36 516.29 628.11
  L 550.87 609.36
  Q 551.30 609.13 550.94 608.80
  Q 534.02 593.13 517.06 577.69
  Z"
/>
<path fill="#7f8b93" d="
  M 638.99 543.76
  Q 639.61 543.67 640.00 543.83
  L 671.63 543.77
  A 1.60 1.59 63.6 0 1 672.60 544.10
  L 744.00 598.01
  A 0.31 0.30 -26.4 0 1 743.81 598.56
  L 639.99 598.42
  L 639.94 544.58
  Q 639.94 544.12 639.48 544.04
  Q 639.11 543.98 638.99 543.76
  Z"
/>
<path fill="#b8bfc3" d="
  M 517.06 577.69
  Q 534.02 593.13 550.94 608.80
  Q 551.30 609.13 550.87 609.36
  L 516.29 628.11
  Q 515.84 628.36 515.83 627.85
  L 515.79 577.46
  A 0.43 0.43 0.0 0 1 516.36 577.05
  Q 516.94 577.25 517.06 577.69
  Z"
/>
<path fill="#b8bfc3" d="
  M 573.26 639.48
  Q 573.19 639.74 572.96 639.92
  Q 572.79 640.04 572.49 640.03
  Q 566.73 639.86 560.97 640.17
  Q 560.79 640.18 560.66 640.05
  Q 560.55 639.93 560.53 639.82
  L 572.70 633.22
  Q 573.23 632.93 573.23 633.54
  L 573.26 639.48
  Z"
/>
<path fill="#7f8b93" d="
  M 573.26 639.48
  Q 573.96 640.07 573.31 640.00
  L 573.28 668.37
  Q 573.28 668.88 572.81 669.06
  L 524.83 687.51
  A 0.75 0.74 56.2 0 1 524.06 687.35
  L 516.09 679.74
  A 1.09 1.08 -68.5 0 1 515.75 678.95
  L 515.75 664.53
  Q 515.75 664.12 516.11 663.93
  L 559.64 640.14
  Q 559.70 639.87 560.53 639.82
  Q 560.55 639.93 560.66 640.05
  Q 560.79 640.18 560.97 640.17
  Q 566.73 639.86 572.49 640.03
  Q 572.79 640.04 572.96 639.92
  Q 573.19 639.74 573.26 639.48
  Z"
/>
<path fill="#7f8b93" d="
  M 487.87 639.99
  L 487.83 693.94
  A 1.31 1.31 0.0 0 0 488.27 694.92
  L 579.38 774.63
  A 2.51 2.50 65.5 0 0 581.03 775.25
  L 640.00 775.25
  L 640.47 775.94
  Q 640.56 776.07 640.45 776.17
  L 640.19 776.43
  A 0.69 0.67 -23.9 0 0 640.00 776.90
  Q 640.01 815.24 639.99 853.57
  Q 639.99 854.31 640.32 855.36
  Q 640.91 857.24 639.53 857.23
  L 162.97 640.60
  Q 164.41 639.94 167.56 639.94
  Q 327.88 640.05 487.87 639.99
  Z"
/>
<path fill="#000000" d="
  M 781.74 639.74
  L 781.76 640.25
  L 781.76 772.84
  A 2.41 2.41 0.0 0 1 779.35 775.25
  L 640.00 775.25
  Q 639.20 774.78 639.75 774.01
  Q 640.00 773.66 640.00 773.24
  L 640.00 641.01
  Q 640.00 640.04 640.96 640.04
  L 781.74 639.74
  Z"
/>
<path fill="#707e87" d="
  M 1116.27 640.97
  Q 878.11 749.22 640.00 857.50
  Q 639.37 857.78 639.53 857.23
  Q 640.91 857.24 640.32 855.36
  Q 639.99 854.31 639.99 853.57
  Q 640.01 815.24 640.00 776.90
  A 0.69 0.67 -23.9 0 1 640.19 776.43
  L 640.45 776.17
  Q 640.56 776.07 640.47 775.94
  L 640.00 775.25
  L 779.35 775.25
  A 2.41 2.41 0.0 0 0 781.76 772.84
  L 781.76 640.25
  Q 782.59 640.39 782.81 640.00
  Q 941.53 640.01 1100.25 639.99
  C 1103.76 639.99 1113.78 638.92 1116.27 640.97
  Z"
/>
<path fill="#7f8b93" d="
  M 549.60 711.54
  L 572.79 702.57
  A 0.34 0.34 0.0 0 1 573.25 702.89
  L 573.25 734.31
  A 0.34 0.34 0.0 0 1 572.67 734.55
  L 549.48 712.10
  A 0.34 0.34 0.0 0 1 549.60 711.54
  Z"
/>
</svg>
