<svg xmlns="http://www.w3.org/2000/svg" viewBox="0 0 1280 1280">
  <g fill="none" stroke-width="2">
    <path stroke="#7f7f7f" d="m155 642 485 220 485-220a2 2-45 0 0 0-4L641 418a2 2 0 0 0-2 0L156 638h-1l-1 1a2 2 33 0 0 1 3" vector-effect="non-scaling-stroke"/>
    <path stroke="#383f44" d="M640 857v1l476-217" vector-effect="non-scaling-stroke"/>
    <path stroke="#40464a" d="m1116 641 2-1-477-217" vector-effect="non-scaling-stroke"/>
    <path stroke="#5c6062" d="M641 423h-1q0-1 0 0L162 640l1 1" vector-effect="non-scaling-stroke"/>
    <path stroke="#9ca5ab" d="m641 423-1 1v98" vector-effect="non-scaling-stroke"/>
    <path stroke="#9ca0a2" d="M640 522H516a2 2 79 0 0-2 2l1 2 73 59c1 1 2 2 4 1a2 2 0 0 0 0-3l-36-39h83" vector-effect="non-scaling-stroke"/>
    <path stroke="#9ca5ab" d="m639 544 1 1v53" vector-effect="non-scaling-stroke"/>
    <path stroke="#9ca0a2" d="M640 598h-49l-99-70-2-1a2 2-2 0 0-2 3v110" vector-effect="non-scaling-stroke"/>
    <path stroke="#9ca5ab" d="M488 640H168l-5 1" vector-effect="non-scaling-stroke"/>
    <path stroke="#0d0d0d" d="M782 640H641l-1 1v134" vector-effect="non-scaling-stroke"/>
    <path stroke="#4d5357" d="M640 775h-59a3 3 66 0 1-2 0l-91-80a1 1 0 0 1 0-1v-54" vector-effect="non-scaling-stroke"/>
    <path stroke="#4d4d4d" d="M488 640h72" vector-effect="non-scaling-stroke"/>
    <path stroke="#4d5357" d="m560 640-44 24v15a1 1-68 0 0 0 1l8 7a1 1 56 0 0 1 1l48-19v-29" vector-effect="non-scaling-stroke"/>
    <path stroke="#4d4d4d" d="M573 640h66a1 1 0 0 0 1-1v-41" vector-effect="non-scaling-stroke"/>
    <path stroke="#4d5357" d="m640 598 104 1v-1l-71-54a2 2 64 0 0-1 0h-32" vector-effect="non-scaling-stroke"/>
    <path stroke="#78858d" d="M1116 641c-2-2-12-1-16-1H782" vector-effect="non-scaling-stroke"/>
    <path stroke="#4d5357" d="M782 640v-36a2 2-71 0 0-1-1l-103-81h-38" vector-effect="non-scaling-stroke"/>
    <path stroke="#80868a" d="M573 640v-1" vector-effect="non-scaling-stroke"/>
    <path stroke="#9ca0a2" d="M573 639v-6l-12 7" vector-effect="non-scaling-stroke"/>
    <path stroke="#80868a" d="M561 640h-1" vector-effect="non-scaling-stroke"/>
    <path stroke="#4d4d4d" d="M640 522v22" vector-effect="non-scaling-stroke"/>
    <path stroke="#80868a" d="M640 544h-1" vector-effect="non-scaling-stroke"/>
    <path stroke="#78858d" d="M640 775v1q1 0 0 0a1 1-24 0 0 0 1v80" vector-effect="non-scaling-stroke"/>
    <path stroke="#383f44" d="M782 640v133a2 2 0 0 1-3 2H640" vector-effect="non-scaling-stroke"/>
    <path stroke="#9ca5ab" d="M573 639v1h-12" vector-effect="non-scaling-stroke"/>
    <path stroke="#4d5357" d="M550 712h-1l24 23v-32l-23 9" vector-effect="non-scaling-stroke"/>
    <path stroke="#9ca0a2" d="m517 578-1-1v51l35-19-34-31" vector-effect="non-scaling-stroke"/>
  </g>
  <path fill="#fdfdfd" d="M635 865 155 647c-8-4-7-11 0-14l483-219h5l479 218c3 1 6 2 7 4 4 6 0 9-5 12L643 866c-3 1-5 0-8-1ZM155 642l485 220 485-220a2 2-45 0 0 0-4L641 418a2 2 0 0 0-2 0L156 638h-1l-1 1a2 2 33 0 0 1 3Z"/>
  <path d="M640 862 155 642a2 2 33 0 1-1-3l1-1h1l483-220a2 2 0 0 1 2 0l484 220a2 2-45 0 1 0 4L640 862ZM163 641l477 216v1l476-217 2-1-477-217h-1q0-1 0 0L162 640l1 1Z"/>
  <path fill="#b8bfc3" d="m641 423-1 1v98H516a2 2 79 0 0-2 2l1 2 73 59c1 1 2 2 4 1a2 2 0 0 0 0-3l-36-39h83l1 1v53h-49l-99-70-2-1a2 2-2 0 0-2 3v110H168l-5 1-1-1 478-217q0-1 0 0h1Z"/>
  <path fill="#7f8b93" d="m641 423 477 217-2 1c-2-2-12-1-16-1H782v-36a2 2-71 0 0-1-1l-103-81h-38v-98l1-1Z"/>
  <path fill="gray" d="M640 522v22h-84l36 39a2 2 0 0 1 0 3c-2 1-3 0-4-1l-73-59-1-2a2 2 79 0 1 2-2h124Z"/>
  <path fill="#1a1a1a" d="M782 640H641l-1 1v134h-59a3 3 66 0 1-2 0l-91-80a1 1 0 0 1 0-1v-54h72l-44 24v15a1 1-68 0 0 0 1l8 7a1 1 56 0 0 1 1l48-19v-29h66a1 1 0 0 0 1-1v-41l104 1v-1l-71-54a2 2 64 0 0-1 0h-32v-22h38l103 81a2 2-71 0 1 1 1v36Zm-232 72h-1l24 23v-32l-23 9Z"/>
  <path fill="gray" d="M640 598v41a1 1 0 0 1-1 1h-66v-7l-12 7h-73V530a2 2-2 0 1 2-3l2 1 99 70h49Zm-123-20-1-1v51l35-19-34-31Z"/>
  <path fill="#7f8b93" d="M639 544h33a2 2 64 0 1 1 0l71 54v1l-104-1v-53l-1-1Z"/>
  <path fill="#b8bfc3" d="m517 578 34 31-35 19v-51l1 1Zm56 61v1h-12l12-7v6Z"/>
  <path fill="#7f8b93" d="M573 639v30l-48 19a1 1 56 0 1-1-1l-8-7a1 1-68 0 1 0-1v-15l44-24h13v-1Z"/>
  <path fill="#7f8b93" d="M488 640v54a1 1 0 0 0 0 1l91 80a3 3 66 0 0 2 0h59v1q1 0 0 0a1 1-24 0 0 0 1v80L163 641l5-1h320Z"/>
  <path d="M782 640v133a2 2 0 0 1-3 2H640V641l1-1h141Z"/>
  <path fill="#707e87" d="M1116 641 640 858v-81a1 1-24 0 1 0-1q1 0 0 0v-1h139a2 2 0 0 0 3-2V640h318c4 0 14-1 16 1Z"/>
  <path fill="#7f8b93" d="m550 712 23-9v32l-24-23h1Z"/>
</svg>
